<?xml version="1.0" encoding="UTF-8"?>
<svg id="_レイヤー_2" data-name="レイヤー 2" xmlns="http://www.w3.org/2000/svg" viewBox="0 0 879.1835938 350.5157471">
  <defs>
    <style>
      .cls-1 {
        fill: #fff000;
      }

      .cls-1, .cls-2 {
        stroke-width: 0px;
      }

      .cls-2 {
        fill: #fff;
      }
    </style>
  </defs>
  <g id="_レイヤー_1-2" data-name="レイヤー 1">
    <g>
      <path class="cls-1" d="m91.0498047,350.5157471c-25.3818359,0-46.9038086-8.9069824-64.5615234-26.7211914C8.8286133,305.9803467,0,284.2657471,0,258.6506348c0-25.5369873,8.8286133-47.1733398,26.4882812-64.9111328,17.6577148-17.7359619,39.1796875-26.6048584,64.5615234-26.6048584,25.4589844,0,47.019043,8.8688965,64.6787109,26.6048584,17.6572266,17.737793,26.4882812,39.3741455,26.4882812,64.9111328,0,25.6151123-8.8310547,47.3297119-26.4882812,65.1439209-17.659668,17.814209-39.2197266,26.7211914-64.6787109,26.7211914Zm0-115.2680664c-5.0463867,0-9.237793,1.7664795-12.5742188,5.2976074-3.3383789,3.5330811-5.0068359,7.975708-5.0068359,13.331543,0,5.355957,1.668457,9.800415,5.0068359,13.331543,3.3364258,3.532959,7.527832,5.2977295,12.5742188,5.2977295,5.1230469,0,9.3530273-1.7647705,12.6914062-5.2977295,3.3364258-3.5311279,5.0063477-7.9755859,5.0063477-13.331543,0-5.355835-1.6699219-9.7984619-5.0063477-13.331543-3.3383789-3.5311279-7.5683594-5.2976074-12.6914062-5.2976074Z"/>
      <path class="cls-1" d="m210.8588867,169.9290771h107.7001953c22.7421875,0,40.2070312,5.7634277,52.3945312,17.2901611,12.1850586,11.5268555,18.2797852,25.7897949,18.2797852,42.7889404,0,16.6116943-5.7836914,30.7381592-17.3486328,42.3814697-11.5668945,11.6431885-25.4985352,17.4648438-41.7993164,17.4648438-13.5839844,0-27.128418-5.1612549-40.6347656-15.4854736v73.2359619h-78.5917969v-177.6759033Zm78.5917969,38.4227295v38.6555176c2.3286133.6221924,4.5009766.9315186,6.5200195.9315186,5.8984375,0,10.671875-1.862915,14.3212891-5.5887451,3.6479492-3.7258301,5.4726562-8.6160889,5.4726562-14.6705322,0-5.9763184-1.5537109-10.6917725-4.6577148-14.1466064-3.1054688-3.4528809-7.5297852-5.1811523-13.2729492-5.1811523h-8.3833008Z"/>
      <path class="cls-1" d="m556.546875,303.0113525v44.5936279h-147.5200195v-177.6759033h147.5200195v44.5936279h-68.9282227v22.0057373h47.9702148v44.5936279h-47.9702148v21.8892822h68.9282227Z"/>
      <path class="cls-1" d="m756.9277344,349.0021973h-59.6132812l-38.1914062-56.0040283v54.6068115h-78.5913086v-177.6759033h56.2368164l41.4501953,60.0791016v-60.0791016h78.7089844v179.0731201Z"/>
      <path class="cls-1" d="m813.1640625,296.6075439c-20.0263672-33.4543457-30.0390625-60.5048828-30.0390625-81.1534424,0-14.0482178,3.7255859-25.6151123,11.1767578-34.6967773,7.4521484-9.0817871,16.9208984-13.6226807,28.4101562-13.6226807,11.0986328,0,20.3554688,4.4244385,27.7685547,13.2733154,7.4121094,8.848877,11.1201172,20.0664062,11.1201172,33.6490479,0,23.210083-10.0917969,50.7263184-30.2724609,82.5505371,5.8974609,2.2523193,10.4970703,5.7052002,13.796875,10.3625488,3.2978516,4.6572266,4.9482422,9.9367676,4.9482422,15.8347168,0,7.6081543-2.6982422,14.128418-8.0917969,19.5606689-5.3964844,5.432373-11.8964844,8.1502686-19.5029297,8.1502686-7.6074219,0-14.1660156-2.7178955-19.6767578-8.1502686-5.5126953-5.432251-8.2666016-11.9525146-8.2666016-19.5606689,0-5.8215332,1.6298828-11.0792236,4.8896484-15.7764893,3.2607422-4.6955566,7.8398438-8.168457,13.7392578-10.4207764Z"/>
    </g>
    <g>
      <path class="cls-2" d="m48.9667969,20.9383545c.5136719,2.5673828,1.1982422,5.1347656,2.0541992,7.5880127,2.453125-1.9398193,4.90625-4.1647949,6.7890625-6.3898926h.6274414l5.3061523,4.963623v.5704346c-3.1948242,2.6815186-6.9033203,5.3059082-9.9272461,7.074585,2.5673828,4.4500732,6.21875,8.1014404,12.5517578,12.2092285l-5.6484375,5.4770508c-.3422852.3422852-.5703125.4564209-.855957.4564209-.2280273,0-.5131836-.1141357-.8554688-.3994141-6.1616211-4.6782227-9.6992188-9.52771-12.3803711-15.2900391-.456543-.9698486-.7416992-1.5975342-.9702148-2.1109619.456543,1.9398193.9130859,4.1647949.9130859,7.1885986,0,10.4976807-2.7387695,13.0080566-11.6386719,13.0080566-1.1411133,0-1.3125-.1711426-1.6547852-.9699707l-2.6811523-5.8193359c-4.0507812,2.1679688-8.5009766,3.9366455-13.2363281,5.2489014-.2851562.0570068-.5136719.1140137-.7416992.1140137-.3422852,0-.6274414-.1711426-.7988281-.4564209l-3.8227539-5.7052002c10.3837891-2.4532471,20.0258789-7.1315918,26.0161133-12.3803711-.1708984-.5705566-.3994141-1.0841064-.6274414-1.5975342-5.8764648,4.1647949-12.0380859,7.4168701-19.2836914,9.6989746-.2851562.1141357-.5136719.1141357-.7416992.1141357-.3422852,0-.6274414-.1712646-.7988281-.456543l-3.9365234-5.6481934c8.3295898-1.8256836,15.746582-5.1917725,21.3945312-9.0142822-.3422852-.4564209-.6845703-.855835-1.0839844-1.1981201-4.6210938,2.510376-9.7558594,4.6213379-15.1186523,6.21875-.2856445.1141357-.5708008.1141357-.7416992.1141357-.3422852,0-.6279297-.1141357-.855957-.5135498l-3.765625-5.4199219c7.074707-1.4833984,13.9208984-3.9936523,19.1699219-6.7321777h-1.0268555l-7.4741211.1711426-.3994141-.3422852v-5.8764648l.3422852-.3422852,7.53125.1711426h16.7163086l7.1884766-.1711426.3422852.2851562v5.9906006l-.3422852.2852783-5.5341797-.1141357ZM34.3041992,1.0839844l.3994141-.399292h7.6450195l.3994141.399292v4.3930664h11.5820312l9.4135742-.1711426.456543.3994141-.1713867,4.3359375v1.5405273l.2851562,7.3027344h-8.215332v-7.0175781H21.4677734v7.0175781h-7.987793l.2856445-7.3027344v-1.0269775l-.1713867-4.8494873.3994141-.3994141,9.4707031.1711426h10.8398438V1.0839844Zm1.8828125,47.0684814c1.5976562-.1711426,2.6816406-.7416992,2.8525391-5.1917725-2.5102539,1.9968262-5.1914062,3.7653809-8.0444336,5.3059082,1.769043.0570068,4.222168,0,5.1918945-.1141357Zm2.2250977-24.3614502c2.6245117,2.5102539,4.6782227,5.3059082,5.8764648,7.7020264-.855957-2.7385254-1.8256836-6.4468994-2.453125-10.2694092-1.0839844.9128418-2.2250977,1.7685547-3.4233398,2.5673828Z"/>
      <path class="cls-2" d="m69.3374023,17.800415l-.3994141-.3422852v-6.5040283l.3422852-.3422852,7.1884766.1711426h.1142578V1.4833984l.3994141-.3994141h6.6181641l.3994141.3994141v9.2995605l6.3325195-.1711426.3422852.2852783v3.8795166c2.5673828-4.107666,4.5644531-8.9001465,5.8193359-13.8066406l.5136719-.2282715,6.5610352,2.0539551.1708984.5705566c-.5131836,1.4262695-1.0268555,2.7955322-1.5400391,4.1647949h12.2089844l7.7021484-.1711426.456543.399292v6.21875l-.456543.3994141-7.7021484-.1711426h-15.1186523c-1.5405273,3.1949463-3.2519531,6.0474854-5.2490234,8.5578613-.2280273.2852783-.456543.4564209-.7416992.4564209s-.5703125-.1711426-.9697266-.4564209l-4.7924805-3.5372314c.3994141-.4564209.7416992-.9699707,1.1411133-1.4833984l-5.191899-.1141357h-2.9667924v4.6783447h4.6782227l4.8496094-.1141357.3422852.3424072c-.1142578,19.5119629-.2280273,26.5864258-2.6816406,29.6672363-1.2548828,1.5975342-3.0234375,2.3962402-7.2456055,2.3962402-.6274414,0-.8554688-.1711426-1.0839844-.7416992l-2.1108398-6.21875c-.855957,2.3392334-1.9399414,4.564209-3.1948242,6.7893066-.1713867.2282715-.2856445.3422852-.456543.3422852-.1713867,0-.3422852-.1140137-.5136719-.2281494l-5.1914062-4.2219238c4.3930664-7.9302979,5.362793-14.7766113,5.362793-29.3820801v-3.2519531l-3.9365234.1140137Zm11.0112305,11.1253662c-.2285156,6.1046143-.855957,12.2662354-2.8530273,18.0855713.9130859.0571289,1.769043.0571289,2.4536133-.0570068,1.0268555-.1141357,1.4262695-.1711426,1.8256836-.9128418.7416992-1.5974121,1.1411133-6.9033203,1.2548828-17.1157227h-2.6811523Zm34.5737305,3.1378174l7.5307617-.1711426.3422852.2852783v6.1616211l-.3422852.2852783-7.5307617-.1711426h-2.7954102c2.1679688,4.2789307,6.0473633,7.7021484,11.8095703,9.927124l-4.5639648,5.7623291c-.2856445.3994141-.5136719.5705566-.855957.5705566-.2280273,0-.5136719-.1141357-.9697266-.3422852-4.621582-2.6243896-7.5883789-5.7053223-9.527832-9.7559814-2.2822266,4.4500732-6.3330078,7.9873047-12.5517578,10.1552734-.3994141.1711426-.7416992.2282715-.9697266.2282715-.3994141,0-.6845703-.2282715-1.0268555-.6846924l-4.0507812-5.3057861c7.4165039-2.1680908,10.9541016-5.1347656,12.6083984-8.7861328.2851562-.6275635.5136719-1.1981201.6845703-1.7686768h-3.3662109l-7.1884766.1711426-.3994141-.3422852v-6.0476074l.3422852-.3422852,7.2456055.1711426h4.4501953c.0571289-.855835.0571289-1.8256836.0571289-2.909668v-2.7955322h-1.7114258c-.9697266,1.5974121-2.0541992,3.0236816-3.2519531,4.2789307-.3422852.3422852-.5708008.5134277-.855957.5134277s-.5703125-.1711426-.9697266-.4564209l-4.7924805-3.4230957c3.4228516-3.4802246,5.9902344-7.873291,7.3027344-11.9810791l.456543-.2282715,5.8764648,1.7686768.2851562.5705566c-.2851562.8557129-.6279297,1.7115479-.9702148,2.5673828h7.987793l6.9599609-.1711426.3427734.2851562v6.1617432l-.3427734.2852783-6.9599609-.1711426h-1.5976562v2.6813965c0,1.0839844,0,2.1109619-.0571289,3.0238037h3.3662109Z"/>
      <path class="cls-2" d="m132.5546875,38.1112061c4.5068359,3.0808105,8.215332,6.4468994,11.8666992,11.2393799v.4564209l-5.8764648,5.3059082h-.5131836c-3.6513672-5.0777588-7.9301758-9.3566895-11.581543-11.8669434v-.5135498l5.5336914-4.564209.5708008-.0570068Z"/>
      <path class="cls-2" d="m187.6689453,3.2520752l7.1884766,4.7353516.1713867.6275635c-7.9873047,8.5008545-14.5483398,14.3201904-20.5961914,18.65625,8.2158203-3.1949463,15.4614258-5.5911865,25.1035156-8.3867188l.5131836.2281494,2.1108398,7.5880127-.2851562.4564209c-7.1884766,1.3692627-14.434082,3.4802246-18.3139648,6.1046143-2.909668,1.9968262-3.9365234,4.0507812-3.9365234,6.1046143,0,3.9936523,5.3061523,5.4200439,15.0048828,5.1347656l.3422852.4564209-.9697266,8.2155762-.3994141.3994141c-15.1191406-.0571289-22.3647461-4.6783447-22.3647461-11.8669434,0-3.5373535.7988281-5.5911865,2.909668-7.9874268-4.2216797,1.8256836-6.2758789,2.909668-8.8432617,4.2219238-1.9394531.9698486-3.5371094,1.255127-4.7353516,1.255127-3.1948242,0-4.7353516-3.4802246-5.0205078-5.9904785,3.0239258-1.4833984,6.675293-4.0507812,11.0112305-7.873291,6.1616211-5.4770508,14.3203125-13.5784912,20.5390625-22.0223389l.5703125-.0570068Zm-26.9858398,5.7623291l5.8193359-4.7924805h.6274414c2.7958984,2.1109619,5.7055664,4.7924805,8.2158203,7.7591553l-.0571289.6275635-6.0473633,5.3059082-.6279297.0571289c-2.7382812-3.3662109-5.0776367-5.9335938-7.9873047-8.3868408l.0571289-.5704346Z"/>
      <path class="cls-2" d="m212.4326172,4.3930664l8.0444336.0571289.4560547.399292c-.2851562,7.074585-.5703125,11.9240723-.8554688,17.800415-.2285156,4.963623-.5708008,11.3535156-.5708008,15.8035889,0,4.1077881,1.9399414,5.9334717,5.3632812,5.9334717,6.5610352,0,13.9775391-5.1347656,18.8271484-13.9779053l4.9638672,6.6181641c.5131836.6275635.6274414,1.0839844.1708984,1.8256836-5.6479492,8.9572754-14.6054688,14.2060547-23.3344727,14.2060547-8.6147461,0-14.4912109-4.0506592-14.4912109-13.692627,0-7.9302979.3994141-13.2362061.5703125-18.4279785.1713867-4.4500732.456543-9.4707031.456543-16.145874l.3994141-.3994141Z"/>
      <path class="cls-2" d="m250.8886719,23.3916016l-1.8823242-7.5308838.2280273-.4564209c15.9174805-3.8796387,28.640625-6.5040283,44.7294922-9.4136963l.5131836.2852783,1.6547852,7.5878906-.3994141.5135498c-6.3330078.4564209-11.8671875,1.5974121-15.347168,4.4500732-5.3061523,4.2789307-8.2729492,9.4707031-8.2729492,14.8337402,0,4.3930664,2.1679688,6.6750488,5.5341797,7.7020264,3.1381836.9699707,7.7021484,1.3122559,13.6357422,1.255249l.3994141.399292-.456543,8.6719971-.456543.3422852c-7.1313477.1141357-13.3500977-.6275635-18.0283203-2.6243896-5.6484375-2.3962402-9.1855469-7.1885986-9.1855469-14.9477539,0-7.0174561,3.9365234-13.0650635,7.6450195-16.0888672-5.5913086,1.3692627-11.6958008,2.9667969-19.7973633,5.2489014l-.5136719-.2282715Z"/>
      <path class="cls-2" d="m312.1655273,55.3981934h-7.1884766l.2851562-14.7196045v-6.9604492c-.8554688,1.255127-1.5405273,2.053833-2.5102539,3.0238037-.2851562.2281494-.5131836.3422852-.6845703.3422852-.2851562,0-.5136719-.2281494-.6274414-.6275635l-2.3393555-6.9604492c3.9365234-3.708374,7.074707-8.3297119,10.2124023-15.347168l.5708008-.0570068,5.5336914,2.9667969.1713867.5134277c-1.0839844,2.5102539-2.2250977,4.7923584-3.4233398,6.9604492v30.8654785Zm-2.3388672-54.713501l5.362793,3.5943604.1713867.5134277c-3.4804688,4.963623-7.0175781,8.7290039-10.9541016,11.8669434-.2856445.2281494-.456543.3422852-.5708008.3422852-.2280273,0-.3994141-.2281494-.6845703-.6275635l-3.765625-5.7623291c3.9936523-2.7385254,6.9604492-5.7623291,9.8701172-9.8701172l.5708008-.0570068Zm21.2236328,30.9224854l5.6479492-.1711426.3422852.2852783v5.9334717l-.3422852.2852783-5.6479492-.1711426h-1.0839844v4.963501c2.8525391-.4564209,5.7050781-.9128418,8.4433594-1.4262695l-.1137695,5.3059082c-.0571289.6275635-.3994141.7987061-.9702148,1.0268555-5.8193359,1.3693848-13.6923828,2.9667969-21.2231445,4.2790527l-.5136719-.1711426-2.2822266-6.5611572.3994141-.4564209c2.9667969-.2851562,6.0478516-.6275635,9.128418-1.0268555v-5.9334717h-1.4262695l-5.4199219.1711426-.3994141-.3424072v-5.8193359l.3422852-.3422852,5.4770508.1711426h1.4262695v-4.6212158l.3994141-.3994141h6.3901367l.3422852.4564209v4.564209h1.0839844Zm.6845703-12.0950928l5.362793-.1712646.3422852.2852783v5.9334717l-.3422852.2852783-5.362793-.1711426h-11.0683594l-5.4199219.1711426-.3994141-.3422852v-5.8193359l.3422852-.3424072,5.4770508.1712646h2.2250977v-5.0206299h-1.0268555l-5.4199219.1711426-.3994141-.3422852v-5.819458l.3422852-.3422852,5.4770508.1711426h1.0268555V1.8256836l.3994141-.399292h6.3896484l.3422852.4564209v6.4468994h.9702148l5.362793-.1711426.3422852.2852783v5.9334717l-.3422852.2852783-4.7924805-.1711426h-1.5405273v5.0206299h1.7119141Zm7.1313477,6.3327637l-.3994141-.3422852v-6.1617432l.3422852-.3422852,5.7626953.1711426h3.4799805l5.6484375-.1711426.3422852.2852783v6.2757568l-.3422852.2852783-3.7084961-.1141357v9.0144043l.2280273,12.4375c0,6.7321777-1.2548828,8.1584473-9.527832,8.1584473-1.1411133,0-1.2548828-.1141357-1.4833984-.6845703l-2.6245117-6.3328857c1.7119141,0,3.5947266-.1141357,4.5644531-.2281494,1.1982422-.1141357,1.5405273-.456543,1.5405273-1.8256836v-20.5390625l-3.8227539.1141357Zm.1713867-15.1759033l-.3994141-.3424072v-6.1616211l.3422852-.3424072,5.4770508.1712646h2.7382812l5.6484375-.1712646.3422852.2852783v6.2758789l-.3422852.2852783-5.0776367-.1712646h-3.309082l-5.4199219.1712646Z"/>
      <path class="cls-2" d="m382.0581055,45.6992188c12.2661133-2.0539551,17.800293-7.9302979,17.800293-14.7766113,0-8.6719971-4.7924805-14.1490479-10.6118164-15.347168-1.1411133,10.782959-4.8496094,20.8242188-8.7861328,26.5864258-3.0805664,4.5072021-6.2758789,6.1617432-10.7255859,6.1617432-3.4233398,0-5.8764648-1.654541-8.0444336-5.0776367-1.6547852-2.5673828-2.7958984-5.7053223-2.7958984-10.3265381,0-13.8067627,10.3266602-24.9890137,26.0161133-24.9890137,15.5751953,0,23.9052734,10.4405518,23.9052734,23.1062012,0,10.383667-7.3027344,18.2568359-19.3979492,21.1094971-.7988281.0570068-1.1982422.0570068-1.8256836-.5705566l-5.5341797-5.8763428Zm-15.2900391-12.7797852c0,1.8826904.3422852,3.2519531.9697266,4.3359375.6274414,1.1411133,1.4262695,1.8828125,2.3393555,1.8828125,1.3120117,0,2.9667969-1.3122559,4.5068359-4.3930664,3.1953125-6.3898926,4.7924805-12.4375,5.6484375-19.3979492-8.3295898,1.4263916-13.4643555,8.7861328-13.4643555,17.5722656Z"/>
      <path class="cls-2" d="m436.4331055,48.894165c7.2456055-2.4532471,11.2392578-7.7021484,13.1791992-12.3233643-3.765625-1.7686768-7.53125-2.8526611-11.7529297-3.2520752-2.5673828,6.21875-3.9936523,9.6989746-5.4770508,11.9240723-1.9970703,3.0238037-4.621582,4.6783447-8.8432617,4.6783447-5.2490234,0-8.1586914-4.5072021-8.1586914-8.9572754,0-8.3297119,5.4199219-13.8637695,16.7163086-15.2901611,1.769043-4.5072021,2.6816406-7.1885986,4.222168-11.8099365-2.5673828.5135498-5.7050781,1.1411133-9.2998047,1.8256836l-.5131836-.399292-1.5976562-7.1315918.2851562-.5134277c6.2758789-1.1411133,11.4106445-1.9969482,14.8911133-2.5673828.6845703-.1141357,1.3120117-.1711426,1.9394531-.1711426,3.1953125,0,5.0209961,1.7685547,5.0209961,4.2789307,0,.6275635-.1713867,1.3121338-.3994141,2.053833-1.5405273,4.4500732-3.4804688,8.9572754-5.8764648,14.8337402,3.4228516.399292,7.1884766,1.255127,10.7827148,2.5102539.1713867-1.9968262.2285156-4.2218018.0571289-6.8463135l.3422852-.399292,7.6450195,1.0839844.2851562.5134277c.1142578,3.3660889.1142578,6.3328857-.2851562,9.128418,2.3393555,1.1981201,4.6782227,2.6243896,6.8461914,4.164917l.1142578.6275635-3.9936523,6.9033203-.5703125.2281494c-1.769043-1.3691406-3.4804688-2.4532471-4.9638672-3.4230957-2.6811523,5.4770508-7.1313477,10.6688232-12.6655273,13.2932129-.7988281,0-1.0268555-.0570068-1.5405273-.399292l-6.3896484-4.564209Zm-13.6928711-8.6719971c0,1.1981201.3422852,1.7685547,1.0268555,1.7685547.7416992,0,1.4262695-.5134277,2.1108398-1.7685547.855957-1.7116699,1.5976562-3.309082,3.0239258-6.7893066-2.909668.2852783-6.1616211,3.0808105-6.1616211,6.7893066Z"/>
      <path class="cls-2" d="m492.347168,3.5943604l7.5878906,3.1949463.1713867.6275635c-3.6513672,6.6751709-6.675293,11.7528076-9.6992188,17.3439941,1.6547852-.9128418,2.8530273-1.255127,4.4501953-1.255127,5.5913086,0,8.6152344,3.4802246,8.671875,8.1014404.0571289,3.5372314-.0566406,6.9033203-.1137695,8.5578613s.1708984,2.7385254,1.597168,2.7385254c3.5375977,0,7.5883789-3.9936523,11.7529297-12.8937988l5.0776367,6.7891846c.5708008.7987061.6279297,1.0839844.1142578,2.1109619-4.7353516,8.9002686-10.7827148,13.0650635-17.3442383,13.0650635-6.5039062,0-9.8129883-3.0238037-9.8129883-8.6719971,0-2.5102539.2856445-6.21875.2856445-9.2425537,0-2.9666748-.6279297-3.708374-2.5107422-3.708374-2.8525391,0-5.0776367,2.5102539-6.9599609,5.8764648-2.2822266,4.0506592-4.5073242,9.0142822-6.9604492,15.1759033l-.5708008.2282715-7.6450195-2.7956543-.1708984-.6275635c7.0170898-15.74646,14.2060547-30.0666504,21.5087891-44.4439697l.5703125-.1711426Z"/>
      <path class="cls-2" d="m551.2861328,3.8796387c-.5136719,2.2821045-1.1411133,4.5070801-1.6547852,6.5610352,1.9970703-.3994141,3.9936523-.855835,5.9907227-1.3692627l.5136719.2281494,1.0839844,5.020752c6.3896484.5134277,12.4375,1.8256836,17.6289062,4.4500732l.1713867.5704346-2.3393555,6.3328857-.4560547.2282715c-1.8261719-.855835-2.9667969-.9699707-4.621582-.9699707-3.6513672,0-6.7890625,1.4263916-6.7890625,3.9937744,0,1.7685547.8554688,4.3929443,2.5102539,8.5007324,4.7353516,2.0539551,9.2426758,4.6783447,12.4375,7.3027344v.5705566l-4.7924805,6.1617432-.5136719.0570068c-2.453125-2.2250977-4.2788086-3.8225098-6.6748047-5.4200439-.1713867,4.6213379-5.1918945,7.6451416-11.6391602,7.6451416-7.4165039,0-11.980957-2.9667969-11.980957-8.9002686,0-5.362915,4.5644531-9.128418,10.6689453-9.128418,1.9970703,0,2.5102539.1141357,3.7084961.2852783-.855957-2.909668-1.3691406-4.7353516-1.2553711-6.9604492.1142578-3.0808105,3.0239258-5.7052002,7.7592773-7.1315918-2.2250977-.399292-5.0205078-.6275635-7.7592773-.7987061l-.2851562-.399292,1.4262695-3.2520752c-2.453125.5135498-4.9633789,1.0269775-7.4736328,1.3692627-3.4233398,9.527832-7.7592773,17.0587158-13.4643555,25.1031494l-.5708008.1141357-6.7319336-4.3360596v-.5134277c4.7919922-5.7623291,8.671875-12.3803711,11.5244141-19.2838135-2.9667969.2852783-5.9907227.4564209-9.128418.5135498l-.456543-.3424072-.1708984-7.0174561.3994141-.399292c4.3359375-.1141357,8.3867188-.3994141,12.2661133-.7988281.9130859-3.1949463,1.6547852-6.3327637,2.1679688-9.4707031l.5136719-.3422852,7.6450195,1.3122559.3422852.5134277Zm-.6845703,38.4534912c-1.9399414,0-3.0810547,1.1981201-3.0810547,2.1679688,0,1.3692627,1.2553711,2.2821045,3.309082,2.2821045,3.2519531,0,5.1347656-1.1411133,5.0776367-3.4232178-1.3120117-.7415771-2.7382812-1.0268555-5.3056641-1.0268555Z"/>
      <path class="cls-2" d="m582.324707,50.5487061c3.0810547-9.9272461,5.9335938-18.5992432,8.8432617-27.3282471-2.6245117.3994141-5.7055664.7987061-8.5581055,1.1411133l-.456543-.3424072-1.2548828-6.9033203.3422852-.3994141c4.5073242-.3422852,8.7290039-.8557129,12.6655273-1.4262695,1.3691406-3.9366455,2.6816406-7.9874268,4.1650391-12.3804932l.5703125-.2851562,7.7021484,1.8826904.1713867.6275635c-1.1982422,3.2519531-2.2822266,6.2757568-3.2519531,9.0714111,1.1411133-.0571289,2.2250977-.1141357,3.309082-.1141357,4.7353516,0,9.1850586,2.909668,9.128418,11.2393799-.0571289,7.5308838-1.0839844,15.0618896-2.6245117,19.5119629-2.0541992,6.4468994-5.8193359,7.8162842-8.8432617,7.8162842-2.1108398,0-4.5073242-.3424072-7.0175781-1.0269775-.3994141-.1141357-.5703125-.2282715-.6274414-1.0269775l-.6845703-8.1014404c1.8256836.6845703,4.3359375,1.255127,5.7050781,1.255127,1.8256836,0,2.6245117-.3422852,3.4804688-3.0238037.9125977-2.909668,2.0537109-9.927124,2.0537109-14.8907471,0-3.4230957-.3994141-4.1077881-2.909668-4.1077881-1.0268555,0-2.3393555.1141357-3.765625.2282715-3.8222656,10.8399658-6.6748047,19.6831055-9.8129883,30.7513428l-.6274414.1711426-7.5307617-1.8826904-.1713867-.4564209Zm34.003418-34.2886963l6.0473633-3.8225098h.5708008c4.8491211,5.3059082,8.5004883,11.5246582,10.9541016,17.9715576l-.2285156.5705566-7.1313477,4.1077881-.5136719-.1141357c-2.2250977-6.5610352-5.4770508-13.2932129-9.8129883-18.1427002l.1142578-.5705566Zm3.309082-10.4976807l2.9667969-2.1109619.5703125-.0570068c2.1108398,1.7686768,4.1079102,3.7655029,5.8193359,6.0476074l-.0571289.5704346-3.1376953,2.2250977h-.5708008c-1.7685547-2.3391113-3.3657227-4.2219238-5.6479492-6.1616211l.0571289-.5135498Zm5.362793-3.5942383l2.909668-2.1109619.5708008-.0571289c2.1108398,1.7686768,3.9365234,3.5943604,5.6479492,5.8764648l-.0571289.5705566-2.9667969,2.1679688h-.5703125c-1.7685547-2.3391113-3.309082-3.9936523-5.5913086-5.9334717l.0571289-.5134277Z"/>
      <path class="cls-2" d="m56.1557617,86.2601318c.5703125,1.1411133,1.0839844,2.4532471,1.7114258,4.164917l-.2285156.4562988-3.5371094,1.0269775c1.7114258,1.3692627,3.309082,2.7385254,5.0776367,4.7924805l-.1708984.5704346c-6.21875,1.0269775-11.4677734,1.8256836-16.4311523,2.3962402v2.5673828c0,1.255127-.0571289,2.4532471-.1713867,3.5943604h12.9511719l9.4707031-.1711426.3994141.399292v6.3328857l-.3994141.399292-9.4707031-.1711426h-10.6118164c5.0776367,5.5341797,10.9541016,7.6451416,21.4516602,8.8432617l-4.1650391,7.8161621c-.2280273.3994141-.6274414.3422852-1.4262695.2281494-8.8999023-1.4832764-16.6591797-5.8193359-21.5087891-12.5515137-4.2216797,7.5308838-13.0078125,11.2963867-21.6796875,12.836792-.6279297.1141357-.9702148.1711426-1.3696289-.399292l-4.6782227-6.8463135c11.8671846-1.5405273,18.0859375-4.7353516,20.8813477-9.9272461h-9.5849609l-9.4707031.1711426-.3994141-.399292v-6.3328857l.3994141-.399292,9.4707031.1711426h11.4677734c.0571289-.7416992.1142578-1.5404053.1142578-2.3392334v-2.909668c-4.3364258.4564209-8.7294922.7988281-13.5786133,1.1981201-.7416992.0570068-1.1411133-.1711426-1.3125-.4564209l-3.3657227-6.1046143c13.4072266-.6275635,25.7875977-1.9968262,34.0029297-3.708374-.3989258-1.8256836-.9697266-3.5373535-1.6542969-5.2489014h-2.1108398c-1.1982422,1.7686768-2.4536133,3.3660889-3.6513672,4.6783447-.2851562.3422852-.5708008.4564209-.855957.4564209s-.5703125-.1141357-.9125977-.3422852l-5.1918945-3.5943604,1.0268555-1.0269775-5.4199219-.1711426c.5703125,1.255127,1.1982422,2.7385254,1.8256836,4.5072021l-.2285156.4564209-6.7319336,1.9968262-.456543-.2852783c-.5131836-2.2250977-1.1982422-4.4500732-2.1108398-6.6751709h-1.3691406c-1.4262695,1.7115479-2.909668,3.2520752-4.5644531,4.7353516-.3422852.3424072-.6274414.4564209-.9125977.4564209-.3422852,0-.6279297-.1711426-.9702148-.4564209l-4.8491211-3.8225098c4.1074219-3.5372314,7.2456055-7.473877,9.128418-11.9239502l.5131836-.1711426,6.5039062,2.6243896.1713867.5705566c-.2851562.6275635-.5708008,1.1981201-.855957,1.7685547h4.1079102l6.675293-.1711426.3422852.2852783v5.362915c2.3959961-2.8526611,4.1645508-5.9904785,5.8764648-10.1553955l.5131836-.1711426,6.5610352,2.1680908.1713867.5704346c-.2851562.7416992-.5708008,1.4263916-.855957,2.1109619h8.4438477l6.9604492-.1711426.3422852.2852783v5.9904785l-.3422852.2852783-6.9604492-.1711426h-1.996582Z"/>
      <path class="cls-2" d="m77.6098633,114.9576416c-.2280273,2.7385254-.6274414,5.4770508-1.4833984,8.1014404,6.3330078-2.1109619,12.0380859-5.0206299,16.0317383-7.6450195h.5708008l3.7080078,4.0506592-.0566406.6846924c-5.5913086,3.8795166-11.1826172,6.7893066-17.1157227,8.7290039-.2856445.1141357-.5136719.1711426-.6850586.1711426-.3422852,0-.4560547-.1711426-.7416992-.5704346l-2.3959961-3.3660889c-.456543,1.0839844-.9130859,2.1679688-1.4833984,3.30896-.1713867.3424072-.3994141.5705566-.6274414.5705566-.2285156,0-.5136719-.1711426-.855957-.4564209l-4.5639648-4.0507812c2.1108398-4.6782227,2.909668-8.8431396,2.909668-19.055542v-2.7955322l-.1713867-7.6450195.3994141-.3994141,4.0507812.0570068c-.2851562-1.5404053-.6274414-2.909668-1.1982422-5.0776367l.5136719-.3994141,5.4770508-1.0269775.456543.5135498c.5703125,2.1109619.9697266,4.2219238,1.2548828,6.1046143h2.3964844c.5131836-2.2250977.7983398-3.8796387,1.0839844-6.21875l.3422852-.3994141,5.762207,1.0841064.456543.399292c-.2285156,1.4833984-.6279297,3.1949463-1.0839844,5.0777588l4.90625-.1141357.456543.3422852v5.5911865l-.456543.3422852-4.1079102-.1141357,2.3964844,2.4533691-.0571289.6845703c-3.2519531,2.2821045-7.8730469,4.7924805-12.1523438,6.3328857-.2851562.1140137-.5131836.1711426-.6845703.1711426-.3422852,0-.5131836-.1711426-.7416992-.5705566l-2.2822266-3.6513672v.1141357c0,2.6243896,0,5.0206299-.1137695,7.2456055,5.4199219-1.5974121,9.8129883-3.7653809,13.1220703-6.2757568h.5703125l3.6513672,3.8225098-.0571289.6846924c-4.1645508,3.0808105-9.0712891,5.4770508-13.6923828,7.0174561-.2851562.1141357-.5136719.1711426-.6845703.1711426-.3422852,0-.456543-.1711426-.7416992-.5705566l-2.2822266-3.4230957Zm35.6577148-28.1269531l7.3027344-.1711426.456543.4564209-.1708984,6.3898926v16.2600098l.1708984,8.272583-.5131836.3994141-5.5341797-.1712646h-.6279297c3.2519531,1.3693848,6.675293,3.4232178,9.4140625,5.5341797l.1137695.5705566-4.449707,5.362915-.6850586.1711426c-2.9663086-2.6815186-6.3896484-5.1347656-10.269043-7.1885986-4.6787109,3.5372314-8.6152344,5.9334717-12.4946289,7.416748-.2856445.1141357-.5708008.1712646-.7416992.1712646-.3422852,0-.5708008-.1712646-.9130859-.5705566l-3.8222656-4.7924805c5.2485352-1.7685547,8.5004883-3.708374,11.6958008-6.618042l-4.4501953.1141357-.3994141-.3994141.1713867-7.9874268v-16.8304443l-.1713867-6.21875.3994141-.3422852,6.1044922.1141357c.3994141-.9699707.7416992-1.9969482,1.0268555-3.0238037h-2.3388672l-7.4741211.1711426v3.708374l-.3422852.2852783-7.5307617-.1711426h-9.2998047l-7.4736328.1711426-.3994141-.3422852v-5.9906006l.3422852-.3422852,7.5307617.1711426h.9702148v-5.4199219l.3994141-.3994141h6.8461914l.3994141.3994141v5.4199219h.6845703l7.4736328-.1711426v-3.6513672l.3422852-.3422852,7.53125.1711426h12.8369141l7.5307617-.1711426.3422852.2852783v6.1046143l-.3422852.2852783-7.5307617-.1711426h-1.9970703c-.5136719,1.0268555-1.0839844,2.053833-1.7114258,3.0808105h1.597168Zm-35.4296875,18.1427002c3.5375977-.9698486,6.7895508-2.3962402,9.9272461-4.2789307h-9.9272461v4.2789307Zm34.3457031,13.2932129h-6.4467773l-1.5976562.0571289,4.5073242,3.4802246,3.5371094-3.5373535Zm1.2553711-22.5927734v-2.909668h-8.7861328v2.909668h8.7861328Zm-8.7861328,8.272583h8.7861328v-2.909668h-8.7861328v2.909668Zm0,8.3868408h8.7861328v-3.0238037h-8.7861328v3.0238037Z"/>
      <path class="cls-2" d="m134.3232422,80.7260742l7.8730469,1.0839844.3422852.4564209c-.1708984,3.309082-.9125977,6.5610352-2.6245117,12.3803711-1.3120117,4.7353516-2.1108398,9.4708252-2.1108398,13.2362061,0,3.0238037.0571289,4.5072021.3422852,5.7623291.1713867.7416992.7416992.7987061,1.5976562-.0570068.9125977-1.0269775,2.1108398-2.5673828,2.909668-3.7084961l1.6542969.855835c-1.7114258,4.8494873-2.5673828,8.4437256-2.6811523,12.0380859-.0571289,2.5673828-1.3125,4.164917-3.9365234,4.2219238-2.2822266.0570068-3.6513672-1.1981201-4.9638672-3.4802246-1.2548828-2.1109619-2.8525391-6.7321777-2.8525391-14.9477539,0-5.1347656,1.1982422-12.0952148,2.5102539-17.3439941.855957-3.7655029,1.4262695-6.7893066,1.4833984-10.1553955l.456543-.3422852Zm41.2490234,42.2188721c-3.8798828.5705566-7.9873047.9128418-13.4077148.9128418-11.4672852,0-14.4912109-5.7623291-15.8603516-12.0950928l.2851562-.5135498,6.1044922-2.7955322.5136719.1711426c1.0839844,5.362915,3.309082,7.074585,10.9541016,7.0174561,1.8828125,0,6.7324219-.399292,10.6689453-1.1981201l.5131836.3424072.5136719,7.6450195-.2851562.5134277Zm-24.875-36.456543c1.8828125.0570068,3.7084961.1140137,5.4770508.1140137,5.4199219,0,10.3833008-.399292,16.0888672-1.3692627l.3994141.3424072.3422852,7.1885986-.3422852.4564209c-4.2792969.9128418-10.2695312,1.4262695-16.4882812,1.4262695-1.8256836,0-3.5942383,0-5.4199219-.1141357l-.3994141-.5134277v-7.0744629l.3422852-.4564209Z"/>
      <path class="cls-2" d="m206.3842773,78.6151123c-.5136719,2.2821045-1.1411133,4.5072021-1.6547852,6.5610352,1.9970703-.3994141,3.9936523-.855835,5.9907227-1.3692627l.5136719.2282715,1.0839844,5.0205078c6.3896484.5135498,12.4375,1.8256836,17.6289062,4.4501953l.1713867.5705566-2.3393555,6.3327637-.456543.2282715c-1.8251953-.855835-2.9663086-.9699707-4.6210938-.9699707-3.6513672,0-6.7890625,1.4263916-6.7890625,3.9936523,0,1.7686768.8554688,4.3930664,2.5102539,8.5008545,4.7353516,2.0539551,9.2426758,4.6783447,12.4375,7.3027344v.5705566l-4.7924805,6.1617432-.5136719.0570068c-2.453125-2.2250977-4.2788086-3.8225098-6.6748047-5.4200439-.1713867,4.6213379-5.1918945,7.6451416-11.6386719,7.6451416-7.4169922,0-11.9814453-2.9667969-11.9814453-8.9002686,0-5.362915,4.5644531-9.128418,10.6689453-9.128418,1.9970703,0,2.5102539.1141357,3.7084961.2852783-.855957-2.909668-1.3691406-4.7353516-1.2553711-6.9604492.1142578-3.0808105,3.0239258-5.7052002,7.7592773-7.1315918-2.2250977-.399292-5.0205078-.6275635-7.7592773-.7987061l-.2851562-.3994141,1.4262695-3.2519531c-2.453125.5134277-4.9633789,1.0269775-7.4736328,1.3692627-3.4233398,9.527832-7.7592773,17.0587158-13.4643555,25.1031494l-.5708008.1141357-6.7319336-4.3360596v-.5134277c4.7919922-5.7623291,8.671875-12.3803711,11.5244141-19.2838135-2.9667969.2852783-5.9907227.4564209-9.128418.5135498l-.456543-.3424072-.1708984-7.0174561.3994141-.399292c4.3359375-.1141357,8.3867188-.3994141,12.2661133-.7988281.9130859-3.1949463,1.6547852-6.3327637,2.1679688-9.4707031l.5136719-.3422852,7.6450195,1.3121338.3422852.5135498Zm-.6845703,38.4534912c-1.9399414,0-3.0810547,1.197998-3.0810547,2.1679688,0,1.3692627,1.2553711,2.2821045,3.309082,2.2821045,3.2519531,0,5.1347656-1.1411133,5.0776367-3.4232178-1.3120117-.7416992-2.7382812-1.0268555-5.3056641-1.0268555Z"/>
      <path class="cls-2" d="m242.7294922,90.767334l-1.4833984-7.3027344.3422852-.5135498c8.6723633-1.9396973,17.4584961-3.30896,23.6772461-4.1077881,2.8525391,0,5.2485352,2.2250977,5.2485352,4.963623,0,1.0269775-.1708984,2.1109619-1.0268555,2.9667969-4.6210938,4.564209-7.8164062,7.473877-12.5517578,12.1520996,2.7387695-1.3692627,4.7353516-1.4832764,7.1318359-1.4832764,8.6147461,0,14.3769531,5.8763428,14.3769531,14.7194824,0,10.383667-7.815918,16.2600098-20.9951172,16.2600098-6.7324219,0-12.4375-2.7955322-12.4375-9.2995605,0-3.708374,4.1079102-7.9302979,8.7290039-7.9302979,6.7895508,0,10.0415039,4.4500732,11.581543,8.4438477,3.3662109-1.5975342,4.3930664-4.2790527,4.3930664-8.2727051s-3.0234375-7.1885986-7.7587891-7.1885986c-8.1586914,0-14.0351562,5.362915-20.0825195,13.1790771l-.5708008.0571289-6.1044922-4.9064941-.0571289-.6276855c7.8730469-9.0142822,15.0620117-16.8874512,22.6499023-24.418457-4.3359375.9128418-9.3564453,2.1109619-14.6054688,3.5943604l-.456543-.2852783Zm11.5820312,27.0999756c-1.1411133,0-2.1679688.4564209-2.1679688,1.4833984,0,1.1981201,1.3120117,2.2821045,4.2216797,2.2821045.7988281,0,1.3691406-.0571289,1.8256836-.1711426-.5708008-2.4533691-2.5102539-3.5943604-3.8793945-3.5943604Z"/>
      <path class="cls-2" d="m298.7001953,102.2919922l-6.9033203.1711426-.3422852-.4564209.2851562-5.3630371v-4.963501l-.1713867-4.963623.3994141-.3994141,6.1616211.1712646v-2.1680908h-5.9331055l-8.4438477.1711426-.3994141-.3422852v-5.3059082l.3422852-.3422852,8.5009766.1711426h5.9331055v-2.9666748l.3994141-.3994141h6.4472656l.3422852.3994141v2.9666748h10.3833008v-2.9666748l.3994141-.3994141h6.675293l.3422852.3994141v2.9666748h5.5341797l8.5009766-.1711426.3422852.2852783v5.4200439l-.3422852.2851562-8.5009766-.1711426h-5.5341797v2.1680908l5.4770508-.1712646.3994141.3994141-.1713867,4.963623v4.963501l.1713867,5.3059082-.3994141.5135498-6.7890625-.1711426h-10.4980469c-.3422852.6275635-.7416992,1.3121338-1.0839844,1.9396973h17.7436523l8.7861328-.1711426.3422852.2852783v5.4200439l-.3422852.2851562-8.7861328-.1711426h-3.0239258c3.6513672,2.0539551,8.3295898,3.7655029,13.5214844,5.0206299l-3.3662109,5.4770508c-.1708984.2852783-.2851562.5135498-.7416992.5135498-.1708984,0-.3422852-.0571289-.6274414-.1141357-2.5102539-.7987061-4.9633789-1.8826904-7.2456055-3.1379395v3.309082l.2851562,9.0714111h-7.8164062v-1.5404053h-17.0014648v1.7115479h-7.5878906l.2851562-9.4136963v-2.4532471c-2.1679688,1.1981201-4.5073242,2.3391113-6.9033203,3.4230957-.2280273.1141357-.456543.1711426-.6274414.1711426-.3422852,0-.6279297-.2281494-1.0273438-.7415771l-3.5942383-4.6783447c5.3632812-2.0539551,9.5849609-4.2219238,12.9511719-6.6181641h-2.5102539l-9.0146484.1711426-.3994141-.3422852v-5.3059082l.3427734-.3422852,9.0712891.1711426h8.6147461c.456543-.6275635.9697266-1.255127,1.3691406-1.9396973h-4.2216797Zm22.421875-9.8701172v-1.654541h-21.9082031v1.654541h21.9082031Zm0,5.5340576v-1.7115479h-21.9082031v1.7115479h21.9082031Zm-2.168457,20.1966553v-1.654541h-17.0014648v1.654541h17.0014648Zm-17.0014648,5.7052002h17.0014648v-1.7115479h-17.0014648v1.7115479Zm3.8227539-13.9779053c-.6850586.7416992-1.3696289,1.4263916-2.168457,2.1109619h15.0048724c-.7416888-.6845703-1.4833881-1.3692627-2.1108295-2.1109619h-10.7255859Zm9.9267578-23.3914795v-2.1680908h-10.3833008v2.1680908h10.3833008Z"/>
      <path class="cls-2" d="m346.7983398,91.2237549l7.1318359,1.3692627.3422852.5134277c-1.1411133,4.1647949-1.7685547,7.873291-2.2822266,12.1522217,4.3359375-4.5072021,10.0981445-6.9604492,16.3168945-6.9604492,9.527832,0,14.7197266,5.9334717,14.7197266,13.1221924,0,11.1252441-10.7827148,15.9176025-26.7006836,16.7734375-1.0268555,0-1.3691406-.0571289-1.8256836-.7416992l-4.7353516-6.9604492c15.2900391-.4564209,23.7910156-3.4802246,23.7910156-8.9572754,0-3.4230957-1.1982422-5.9334717-5.9335938-5.9334717-5.1347656,0-11.4672852,2.8526611-16.0888672,10.9541016l-.5703125.2852783-6.9604492-.6275635-.3994141-.5134277c-.1142578-7.873291.9130859-16.0888672,2.6245117-24.2474365l.5703125-.2281494Zm4.2792969-7.3598633l3.5371094-6.2186279.5703125-.2852783c4.4501953,1.1981201,8.6723633,2.6243896,13.8071289,5.3057861l.1137695.5705566-3.8793945,6.6751709-.5708008.1141357c-4.6210938-2.5673828-8.4438477-4.2789307-13.4072266-5.7053223l-.1708984-.4564209Z"/>
      <path class="cls-2" d="m394.4399414,79.12854l8.0444336.0571289.4560547.399292c-.2851562,7.074585-.5703125,11.9240723-.8554688,17.800415-.2285156,4.963623-.5708008,11.3535156-.5708008,15.8035889,0,4.1077881,1.9399414,5.9334717,5.3632812,5.9334717,6.5610352,0,13.9775391-5.1347656,18.8271484-13.9779053l4.9638672,6.6181641c.5131836.6275635.6274414,1.0839844.1708984,1.8256836-5.6479492,8.9572754-14.6054688,14.2060547-23.3344727,14.2060547-8.6147461,0-14.4912109-4.0507812-14.4912109-13.692627,0-7.9302979.3994141-13.2362061.5703125-18.4279785.1713867-4.4500732.456543-9.4707031.456543-16.145874l.3994141-.3994141Z"/>
      <path class="cls-2" d="m440.8261719,112.8466797c4.5068359,3.0808105,8.215332,6.4468994,11.8666992,11.2393799v.4564209l-5.8764648,5.3059082h-.5131836c-3.6513672-5.0777588-7.9301758-9.3566895-11.581543-11.8669434v-.5135498l5.5336914-4.564209.5708008-.0570068Z"/>
      <path class="cls-2" d="m465.2460938,111.0209961l7.074707-2.3391113.456543.2281494c.9697266,5.9334717,4.0507812,6.8463135,13.578125,6.8463135,5.9907227,0,12.2666016-.5134277,18.3710938-1.4262695l.5136719.399292.7988281,8.5579834-.3427734.5134277c-6.6748047.7416992-13.578125.9128418-19.9111328.9128418-17.0585938,0-20.1396484-6.9033203-20.8242188-13.2932129l.2851562-.3994141Zm6.675293-27.6705322c3.4233398.3422852,6.7890625.5134277,10.1552734.5134277,5.4770508,0,11.6386719-.5704346,17.6293945-1.4262695l.3994141.3422852.2280273,8.0444336-.456543.3994141c-5.4199219.9698486-11.4672852,1.4262695-17.8574219,1.4262695-3.1948242,0-6.9033203-.1711426-10.3261719-.5134277l-.456543-.3994141.2851562-8.1014404.3994141-.2852783Z"/>
      <path class="cls-2" d="m513.4580078,111.0209961l7.074707-2.3391113.456543.2281494c.9697266,5.9334717,4.0507812,6.8463135,13.578125,6.8463135,5.9907227,0,12.2666016-.5134277,18.3710938-1.4262695l.5136719.399292.7988281,8.5579834-.3427734.5134277c-6.6748047.7416992-13.578125.9128418-19.9111328.9128418-17.0585938,0-20.1396484-6.9033203-20.8242188-13.2932129l.2851562-.3994141Zm6.675293-27.6705322c3.4233398.3422852,6.7890625.5134277,10.1552734.5134277,5.4770508,0,11.6386719-.5704346,17.6293945-1.4262695l.3994141.3422852.2280273,8.0444336-.456543.3994141c-5.4199219.9698486-11.4672852,1.4262695-17.8574219,1.4262695-3.1948242,0-6.9033203-.1711426-10.3261719-.5134277l-.456543-.3994141.2851562-8.1014404.3994141-.2852783Z"/>
      <path class="cls-2" d="m561.9545898,125.2841797c3.0810547-9.9272461,5.9335938-18.5992432,8.8432617-27.3282471-2.6245117.3994141-5.7055664.7987061-8.5581055,1.1409912l-.456543-.3422852-1.2548828-6.9033203.3422852-.3994141c4.5073242-.3422852,8.7290039-.8557129,12.6655273-1.4262695,1.3691406-3.9366455,2.6816406-7.9874268,4.1650391-12.3803711l.5703125-.2852783,7.7021484,1.8826904.1713867.6275635c-1.1982422,3.2520752-2.2822266,6.2757568-3.2519531,9.0714111,1.1411133-.0571289,2.2250977-.1141357,3.309082-.1141357,4.7353516,0,9.1850586,2.909668,9.128418,11.2393799-.0571289,7.5308838-1.0839844,15.0618896-2.6245117,19.5119629-2.0541992,6.4470215-5.8193359,7.8161621-8.8432617,7.8161621-2.1108398,0-4.5073242-.3422852-7.0175781-1.0268555-.3994141-.1141357-.5703125-.2282715-.6274414-1.0269775l-.6845703-8.1014404c1.8256836.6845703,4.3359375,1.255127,5.7050781,1.255127,1.8256836,0,2.6245117-.3422852,3.4804688-3.0238037.9125977-2.909668,2.0537109-9.927124,2.0537109-14.8907471,0-3.4230957-.3994141-4.1077881-2.909668-4.1077881-1.0268555,0-2.3393555.1141357-3.765625.2282715-3.8222656,10.8399658-6.6748047,19.6831055-9.8129883,30.7513428l-.6274414.1711426-7.5307617-1.8826904-.1713867-.4564209Zm34.003418-34.2886963l6.0473633-3.8225098h.5708008c4.8491211,5.3059082,8.5004883,11.5246582,10.9541016,17.9715576l-.2285156.5705566-7.1313477,4.1077881-.5136719-.1141357c-2.2250977-6.5610352-5.4770508-13.2932129-9.8129883-18.1427002l.1142578-.5705566Z"/>
      <path class="cls-2" d="m623.1176758,91.2237549l7.1318359,1.3692627.3422852.5134277c-1.1411133,4.1647949-1.7685547,7.873291-2.2822266,12.1522217,4.3359375-4.5072021,10.0981445-6.9604492,16.3168945-6.9604492,9.527832,0,14.7202148,5.9334717,14.7202148,13.1221924,0,11.1252441-10.7832031,15.9176025-26.7011719,16.7734375-1.0268555,0-1.3691406-.0571289-1.8256836-.7416992l-4.7353516-6.9604492c15.2900391-.4564209,23.7910156-3.4802246,23.7910156-8.9572754,0-3.4230957-1.1982422-5.9334717-5.9335938-5.9334717-5.1347656,0-11.4672852,2.8526611-16.0888672,10.9541016l-.5703125.2852783-6.9604492-.6275635-.3994141-.5134277c-.1142578-7.873291.9130859-16.0888672,2.6245117-24.2474365l.5703125-.2281494Zm4.2792969-7.3598633l3.5371094-6.2186279.5703125-.2852783c4.4501953,1.1981201,8.6723633,2.6243896,13.8071289,5.3057861l.1137695.5705566-3.8793945,6.6751709-.5708008.1141357c-4.6210938-2.5673828-8.4438477-4.2789307-13.4072266-5.7053223l-.1708984-.4564209Z"/>
      <path class="cls-2" d="m672.2988281,79.9272461l7.7597656,1.0841064.3417969.5134277c-.1132812,3.3660889-.7412109,6.9604492-2.2246094,12.8939209-1.3125,5.1347656-2.1113281,11.581665-2.1113281,16.0888672,0,1.1409912.0576172,2.2819824.3427734,3.5372314.2851562,1.1409912.6269531,1.255127,1.7109375.1711426,1.1416016-1.1411133,1.9970703-2.2821045,2.8535156-3.5943604l1.7109375.9128418c-2.2246094,6.3328857-2.6816406,8.6719971-2.9667969,12.5516357-.1142578,2.5102539-1.6542969,3.7655029-3.765625,3.8225098-1.8251953,0-3.4794922-1.1981201-4.5068359-2.510376-1.8251953-2.5102539-3.2519531-7.0174561-3.2519531-13.5214844,0-5.5340576.6279297-13.5784912,2.0546875-20.0253906.9121094-4.2219238,1.5966797-8.1585693,1.6533203-11.6387939l.3994141-.2852783Zm39.9941406,44.729248c-1.9970703-2.3391113-3.9931641-4.2789307-5.7617188-5.5910645-1.0273438,5.362915-4.9638672,7.5880127-11.0117188,7.5880127-5.9335938,0-11.4101562-2.5673828-11.4101562-8.9002686,0-6.2757568,5.7050781-9.0712891,10.8964844-9.0712891,1.6552734-.0571289,2.2255859.0570068,3.5947266.2281494-.1708984-3.5943604-.2851562-7.4168701-.3994141-11.6387939-3.9365234.2852783-8.1015625.3994141-11.9814453.456543l-.3994141-.456543-.1708984-6.9603271.3994141-.3424072c4.1650391,0,8.1015625-.1140137,11.9814453-.3422852-.1142578-2.8525391-.1142578-5.9904785-.1142578-9.1854248l.4560547-.5135498h7.53125l.4560547.456543c0,2.909668-.0566406,5.762207-.0566406,8.5007324,2.3388672-.2851562,4.7353516-.6275635,6.9599609-.9698486l.5712891.2852783,1.0263672,6.9033203-.3417969.4564209c-2.3398438.3994141-5.1347656.7987061-8.1591797,1.0839844.0576172,5.1347656.2851562,9.9842529.5712891,14.2631836,4.5068359,1.8826904,7.7011719,4.3360596,10.4970703,7.074585l-.0566406.6275635-4.4501953,5.9334717-.6279297.1140137Zm-17.4580078-9.4707031c-2.2822266,0-3.4804688.9128418-3.4804688,2.1109619,0,.9698486.8564453,1.9398193,3.5947266,1.9398193,3.0810547,0,3.7080078-1.0839844,3.5370894-3.5372314-1.0263472-.3424072-1.8827925-.5705566-3.6513472-.5135498Z"/>
      <path class="cls-2" d="m727.1298828,79.12854l8.0439453.0571289.4570312.399292c-.2851562,7.074585-.5703125,11.9240723-.8564453,17.800415-.2275391,4.963623-.5703125,11.3535156-.5703125,15.8035889,0,4.1077881,1.9404297,5.9334717,5.3632812,5.9334717,6.5605469,0,13.9775391-5.1347656,18.8271484-13.9779053l4.9638672,6.6181641c.5136719.6275635.6269531,1.0839844.1708984,1.8256836-5.6484375,8.9572754-14.6054688,14.2060547-23.3349609,14.2060547-8.6142578,0-14.4912109-4.0507812-14.4912109-13.692627,0-7.9302979.3994141-13.2362061.5712891-18.4279785.1708984-4.4500732.4560547-9.4707031.4560547-16.145874l.3994141-.3994141Zm21.2236328,7.5310059l2.9667969-2.1109619.5703125-.0571289c2.1113281,1.7686768,4.1074219,3.7655029,5.8193359,6.0476074l-.0566406.5705566-3.1386719,2.2250977h-.5703125c-1.7685547-2.3392334-3.3662109-4.2219238-5.6484375-6.1617432l.0576172-.5134277Zm5.3623047-3.5943604l2.9101562-2.1109619.5703125-.0570068c2.1113281,1.7685547,3.9365234,3.5942383,5.6484375,5.8764648l-.0566406.5704346-2.9667969,2.1680908h-.5712891c-1.7685547-2.3392334-3.3085938-3.9937744-5.5908203-5.9335938l.0566406-.5134277Z"/>
      <path class="cls-2" d="m771.8046875,97.1572266c4.4501953.5134277,9.1279297.6275635,13.9208984.3422852-.11428-1.8256836,0-3.6513672-.171875-5.4770508-4.2216797.2282715-8.3291016.1711426-12.5507812-.1141357l-.3994141-.5134277.1708984-6.3328857.4560547-.3422852c3.9365234.2282715,8.1015625.2852783,12.2666016.0570068,0-2.3391113,0-4.7353516.0566406-7.3597412l.3994141-.4564209h7.7021484l.3994141.4564209c-.0566406,2.2250977-.1142578,4.5072021-.1708984,6.6181641,3.1376953-.456543,6.0478516-.9699707,8.671875-1.5975342l.4570312.4564209.7412109,5.9334717-.3994141.4564209c-3.0810547.7987061-6.2753906,1.4833984-9.4707031,1.9398193,0,1.8256836,0,3.5942383.1142578,5.4199219,3.6513672-.5704346,7.1884766-1.3692627,10.5546875-2.3391113l.5136719.3422852.9130859,6.4470215-.2861328.5134277c-3.8789062,1.0839844-7.7021484,1.8826904-11.4667969,2.4532471.1132812,2.6815186.2275391,5.1917725.3994141,7.5880127,5.7617188,2.3391113,10.5546875,5.4770508,15.9169922,9.6418457v.5705566l-5.0205078,6.0476074h-.6279297c-3.2519531-3.0808105-7.7011719-6.4468994-10.3828125-7.9302979-.3427734,6.1616211-5.3066406,8.5578613-13.2939453,8.5578613-5.4199219,0-11.8095703-2.4532471-11.8095703-9.128418,0-7.7591553,8.2724609-9.6418457,16.9443359-9.2425537-.1132812-1.7115479-.2275391-3.4802246-.2851562-5.1917725-5.3623047.3422852-10.3837891.2282715-15.4042969-.2852783l-.3417969-.4564209,1.0839844-6.6751709.3994141-.399292Zm10.2119141,19.4549561c-2.9667969,0-4.90625,1.255127-4.90625,2.2821045,0,1.3692627,1.1982422,2.3961182,4.90625,2.3961182,3.1953125,0,4.3359375-1.4262695,4.1083984-3.9936523-1.2558594-.5134277-2.1113281-.6845703-4.1083984-.6845703Z"/>
      <path class="cls-2" d="m821.8427734,90.767334l-1.4833984-7.3027344.3427734-.5135498c8.671875-1.9396973,17.4580078-3.30896,23.6767578-4.1077881,2.8525391,0,5.2490234,2.2250977,5.2490234,4.963623,0,1.0269775-.171875,2.1109619-1.0273438,2.9667969-4.6210938,4.564209-7.8164062,7.473877-12.5517578,12.1520996,2.7382812-1.3692627,4.7353516-1.4832764,7.1318359-1.4832764,8.6152344,0,14.3769531,5.8763428,14.3769531,14.7194824,0,10.383667-7.8164062,16.2600098-20.9951172,16.2600098-6.7324219,0-12.4375-2.7955322-12.4375-9.2995605,0-3.708374,4.1074219-7.9302979,8.7294922-7.9302979,6.7890625,0,10.0410156,4.4500732,11.5810547,8.4438477,3.3662109-1.5975342,4.3935547-4.2790527,4.3935547-8.2727051s-3.0244141-7.1885986-7.7597656-7.1885986c-8.1582031,0-14.0341797,5.362915-20.0820312,13.1790771l-.5703125.0571289-6.1054688-4.9064941-.0566406-.6276855c7.8730469-9.0142822,15.0615234-16.8874512,22.6503906-24.418457-4.3369141.9128418-9.3574219,2.1109619-14.6054688,3.5943604l-.4570312-.2852783Zm11.5820312,27.0999756c-1.1416016,0-2.1679688.4564209-2.1679688,1.4833984,0,1.1981201,1.3115234,2.2821045,4.2216797,2.2821045.7988281,0,1.3691406-.0571289,1.8251953-.1711426-.5703125-2.4533691-2.5097656-3.5943604-3.8789062-3.5943604Z"/>
      <path class="cls-2" d="m879.1835938,121.8039551c0,4.564209-3.5380859,8.0444336-8.1015625,8.0444336-4.5078125,0-8.1015625-3.4802246-8.1015625-8.0444336s3.59375-8.0444336,8.1015625-8.0444336c4.5634766,0,8.1015625,3.4802246,8.1015625,8.0444336Zm-12.8369141,0c0,2.6813965,2.0537109,4.7353516,4.7353516,4.7353516,2.7382812,0,4.7353516-2.0539551,4.7353516-4.7353516,0-2.6815186-1.9970703-4.7353516-4.7353516-4.7353516-2.6816406,0-4.7353516,2.053833-4.7353516,4.7353516Z"/>
    </g>
  </g>
</svg>