<?xml version="1.0" encoding="UTF-8"?>
<svg id="_レイヤー_2" data-name="レイヤー 2" xmlns="http://www.w3.org/2000/svg" viewBox="0 0 321.8872905 82.4954224">
  <defs>
    <style>
      .cls-1 {
        stroke-width: 0px;
      }
    </style>
  </defs>
  <g id="_レイヤー_1-2" data-name="レイヤー 1">
    <g>
      <g>
        <path class="cls-1" d="m14.8703262,22.0367507h7.4453503l14.8336393,38.5642668h-7.6302287l-3.0173982-7.9429243h-15.7352069l-3.1383681,7.9429243H.0001677L14.8703262,22.0367507Zm3.7683241,10.2230913l-5.174313,13.2404896h10.3189542l-5.1446412-13.2404896Z"/>
        <path class="cls-1" d="m63.0642474,27.2795372l-5.4367947,4.7977089c-1.9081278-2.6567712-3.8527748-3.9851568-5.829376-3.9851568-.9631937,0-1.7529212.2579168-2.3646177.7737504-.6139789.5158336-.9198271,1.0955758-.9198271,1.7437914,0,.6459332.2191152,1.2576297.6573455,1.8350894.5957193.7691855,2.3897246,2.4193965,5.3842984,4.9551979,2.8005655,2.3417932,4.498708,3.818538,5.0944273,4.4302345,1.4881571,1.5018518,2.5426487,2.939795,3.163475,4.3115471.6231087,1.3740346.9335218,2.8713215.9335218,4.4964255,0,3.163475-1.0932933,5.7768797-3.2821624,7.840214-2.1865866,2.0610519-5.037366,3.0927191-8.5546207,3.0927191-2.7480692,0-5.1400763-.6733226-7.1783037-2.0176854-2.0382274-1.3466452-3.7843013-3.4624759-5.2359392-6.3452096l6.169461-3.7226751c1.8556314,3.4076971,3.9920042,5.1126869,6.4068357,5.1126869,1.2599121,0,2.3189687-.3674744,3.1771697-1.1024231.858201-.7326663,1.2873015-1.5817375,1.2873015-2.5426487,0-.8741782-.3241078-1.7483563-.9723235-2.6225345-.6482157-.8718957-2.0747466-2.2094111-4.2795928-4.0102638-4.2019895-3.4259567-6.915822-6.0690332-8.1414974-7.931512-1.2256754-1.8601963-1.8396543-3.7181102-1.8396543-5.5691768,0-2.6750308,1.0202549-4.9688926,3.0584823-6.8838677,2.0382274-1.9126927,4.5534868-2.869039,7.5480605-2.869039,1.9241049,0,3.7569119.4450777,5.4984208,1.335233,1.741509.8924378,3.6268123,2.5175418,5.6559099,4.8775946Z"/>
        <path class="cls-1" d="m88.9540721,21.0667097c5.4573368,0,10.1477705,1.9743188,14.0735836,5.9252389,3.9280956,3.9486376,5.8910022,8.7646061,5.8910022,14.4456229,0,5.626238-1.9377996,10.3897101-5.8111164,14.2881339-3.8755993,3.8961413-8.5751628,5.8453532-14.100973,5.8453532-5.7882919,0-10.5996955-2.0017082-14.4296457-6.0028422-3.8299503-4.0034164-5.7449254-8.7577587-5.7449254-14.2630269,0-3.6884384.8924378-7.0778759,2.6773133-10.1728774,1.7825931-3.0927191,4.2362263-5.5440698,7.3586172-7.3540523,3.1201085-1.8077,6.4821566-2.71155,10.0861443-2.71155Zm-.0798857,7.1828686c-3.5674686,0-6.5688897,1.2416525-8.9996984,3.7226751-2.4330912,2.4810226-3.6496368,5.6376503-3.6496368,9.4653181,0,4.2636157,1.5315236,7.637076,4.5945708,10.1180986,2.3783124,1.9400821,5.108122,2.9101231,8.1871464,2.9101231,3.4807355,0,6.4456374-1.2576297,8.8969882-3.7751715,2.4490683-2.5175418,3.6747437-5.6193907,3.6747437-9.3055466,0-3.6724612-1.2348052-6.778875-3.7021331-9.3215238-2.4673279-2.5426487-5.4664666-3.8139731-9.0019808-3.8139731Z"/>
        <path class="cls-1" d="m115.8390447,60.6010175V22.0367507h6.0621859c3.5172547,0,6.0895753.2259625,7.7169618.68017,2.3098389.6116965,4.1494932,1.7483563,5.514398,3.4099796,1.3649048,1.6593408,2.0473572,3.6176825,2.0473572,5.8704601,0,1.4698975-.3104131,2.802848-.9312394,3.9988515-.6208263,1.198286-1.6296689,2.3212511-3.0288105,3.3688955,2.3417932,1.1024231,4.0559128,2.4787402,5.1377938,4.1289511,1.0841635,1.6524934,1.6273865,3.6062702,1.6273865,5.8590479,0,2.168327-.5614826,4.1426458-1.6798828,5.9252389-1.1206827,1.7825931-2.5631908,3.1155436-4.3320892,3.9988515-1.7666159.883308-4.2065544,1.3238207-7.322098,1.3238207h-10.8119633Zm7.3403576-31.5662766v8.1278027h1.604562c1.7894404,0,3.1201085-.3743217,3.9874393-1.1275301.8696133-.7509259,1.3032787-1.7734633,1.3032787-3.0676121,0-1.2051333-.4131234-2.1614797-1.2370876-2.869039-.8262467-.7075593-2.0793115-1.0636215-3.7637592-1.0636215h-1.8944331Zm0,14.6829976v9.8830063h1.8396543c3.0493525,0,5.1035571-.3834515,6.1648961-1.152637,1.0590566-.7691855,1.5908673-1.8875857,1.5908673-3.3552008,0-1.6616232-.6231087-2.9717492-1.8670437-3.9326605-1.243935-.9609112-3.3118342-1.4425081-6.2036977-1.4425081h-1.5246763Z"/>
        <path class="cls-1" d="m165.1924503,21.0667097c5.4573368,0,10.1477705,1.9743188,14.0735836,5.9252389,3.9280956,3.9486376,5.8910022,8.7646061,5.8910022,14.4456229,0,5.626238-1.9377996,10.3897101-5.8111164,14.2881339-3.8755993,3.8961413-8.5751628,5.8453532-14.100973,5.8453532-5.7882919,0-10.5996955-2.0017082-14.4296457-6.0028422-3.8299503-4.0034164-5.7449254-8.7577587-5.7449254-14.2630269,0-3.6884384.8924378-7.0778759,2.6773133-10.1728774,1.7825931-3.0927191,4.2362263-5.5440698,7.3586172-7.3540523,3.1201085-1.8077,6.4821566-2.71155,10.0861443-2.71155Zm-.0798857,7.1828686c-3.5674686,0-6.5688897,1.2416525-8.9996984,3.7226751-2.4330912,2.4810226-3.6496368,5.6376503-3.6496368,9.4653181,0,4.2636157,1.5315236,7.637076,4.5945708,10.1180986,2.3783124,1.9400821,5.108122,2.9101231,8.1871464,2.9101231,3.4807355,0,6.4456374-1.2576297,8.8969882-3.7751715,2.4490683-2.5175418,3.6747437-5.6193907,3.6747437-9.3055466,0-3.6724612-1.2348052-6.778875-3.7021331-9.3215238-2.4673279-2.5426487-5.4664666-3.8139731-9.0019808-3.8139731Z"/>
      </g>
      <g>
        <path class="cls-1" d="m13.3223054,3.1855468c-.0969858.2358518-.1564998.4893373-.2733236.7251891-.0969858.2138096-.0969858.5069711-.2138096.7229849-.09919.2358518-.2160138.4694993-.3328376.6855131-.119028.2336476-.3328376.3901473-.4518656.6259991-.1366618.2138096-.2138096.4694993-.3306333.6833089-.1366618.2160138-.4320276.3328376-.5686893.5290133-.1366618.2160138-.2336476.4694993-.3703093.6656751-.1366618.2138096-.119028.5466471-.2755278.7428229-.1366618.2160138-.4099853.3328376-.5664851.5091753-.2160138.2733236-.5290133.3703093-.8420129.3703093-.2336476,0-.5664851.079352-.7824989-.0969858-.2336476-.1763378-.3703093-.5664851-.3901473-.8420129-.039676-.2733236.1168238-.5863231.3129996-.8199707.1564998-.1763378.3328376-.3725136.4893373-.5885273.1366618-.1939716.1564998-.4694993.3129996-.6833089.1366618-.2160138.4099853-.3328376.5466471-.5686893.119028-.1939716.2160138-.4496613.3328376-.6634709.1366618-.2160138.1564998-.4893373.2733236-.7251891.119028-.2138096.2556898-.4298233.3526756-.6458371.1168238-.2336476.3526756-.4298233.4496613-.6458371-.2733236-.0176338-.5664851-.0374718-.8221749-.0374718-.2733236,0-.5466471-.1168238-.8199707-.1168238s-.5488513.0374718-.8221749.0374718-.5488513.039676-.8023369.039676c-.2733236,0-.5466471.0969858-.8221749.1168238-.2534856,0-.5268091-.1763378-.8023369-.1763378-.2733236,0-.5268091.2953658-.8001327.2953658-.2755278,0-.5488513-.079352-.8023369-.059514-.2755278,0-.5488513.059514-.8023369.059514-.2733236.0176338-.5488513-.059514-.8221749-.059514-.2733236.019838-.5290133.0969858-.8023369.1168238s-.5466471-.0771478-.8023369-.0771478c-.2931616.019838-.5664851-.039676-.7824989-.2160138C.2953518,2.8923853.019824,2.6388997.0021902,2.3457381c-.019838-.2931616.0969858-.6855131.2733236-.8816889.1939716-.2138096.5664851-.1564998.8794847-.1763378.2534856-.0176338.5091753-.2733236.8023369-.2931616.2534856,0,.5488513.2755278.8221749.2556898s.5466471-.019838.8199707-.039676c.2755278,0,.5488513,0,.8221749-.019838.2755278,0,.5488513-.019838.8221749-.039676.2733236,0,.5466471-.2138096.8221749-.2336476.2733236,0,.5466471.019838.8221749.019838.2733236,0,.5466471.1168238.8199707.1168238s.5488513.019838.8221749.019838.5488513.059514.8221749.059514.5466471-.2160138.8199707-.2160138h.8023369c.2755278.019838.5488513,0,.8221749.019838.2733236,0,.5488513.1168238.8023369.1366618.3526756,0,.6458371.1763378.8420129.4694993.1741336.2931616.2534856.6061611.1366618.9389987-.079352.2336476-.1564998.4694993-.2556898.7031469Zm-6.1608013,3.678847c-.039676.2534856-.1763378.5091753-.2160138.7626609s-.0771478.5091753-.1168238.7824989c-.039676.2534856-.1168238.5091753-.1564998.7626609s-.079352.5091753-.1366618.7824989c-.039676.2556898-.119028.5091753-.1564998.7626609-.059514.2556898-.019838.5290133-.079352.7824989-.0573098.2556898-.0771478.5290133-.1564998.7824989-.0573098.2556898-.1939716.4893373-.2733236.7450271-.079352.2336476-.2534856.3129996-.4298233.4496613-.1961758.1366618-.3328376.3703093-.5686893.3703093-.1168238,0-.2138096-.039676-.3129996-.0573098-.2931616-.09919-.4099853-.3526756-.5466471-.6083653-.1366618-.2336476-.3328376-.4871331-.2358518-.7802947.059514-.2358518.2755278-.4518656.3526756-.6855131.059514-.2358518-.1168238-.5488513-.0573098-.7824989.0573098-.2556898.3703093-.4298233.4099853-.6855131.0573098-.2336476-.1168238-.5268091-.059514-.7824989.039676-.2336476.079352-.4893373.1168238-.7229849.039676-.2556898.1961758-.4893373.2358518-.7229849.039676-.2556898.1763378-.4893373.1961758-.7450271.039676-.2336476.019838-.4893373.0573098-.7428229.019838-.2534856.1763378-.4893373.2160138-.7229849.019838-.2556898-.079352-.5290133-.059514-.7648651h-.019838c.039676-.3129996.2556898-.4871331.4717036-.6634709.2336476-.1763378.4672951-.3923516.7626609-.3526756.3129996.039676.5268091.2733236.7031469.4893373.1564998.2336476.3129996.4893373.2733236.8023369-.019838.2534856.039676.5268091,0,.7824989-.019838.2534856-.1741336.5069711-.2138096.7626609Z"/>
        <path class="cls-1" d="m25.7188515,7.2743791c-.1564998.059514-.2534856.1564998-.4099853.1564998-.2160138,0-.3328376-.1564998-.5091753-.2733236s-.3129996-.1961758-.3923516-.3901473c-.0969858-.2358518-.3901473-.3923516-.4871331-.6458371-.09919-.2160138-.1961758-.4694993-.2931616-.7053511-.09919-.2336476.0771478-.5664851,0-.8221749-.09919-.2336476-.4121896-.4099853-.4893373-.6634709-.059514-.2358518-.019838-.5290133-.079352-.7824989-.0771478-.2358518,0-.5290133-.0573098-.7824989l-.2755278.0573098c-.0771478-.2733236.1168238-.6061611.2755278-.8398087.1542956-.2358518.3703093-.4496613.6634709-.5091753.2931616-.079352.6656751-.079352.9015269.059514.2336476.1542956.2534856.5069711.3306333.8001327.059514.2755278.2755278.5091753.3526756.7824989.079352.2755278.1564998.5488513.2556898.8023369.0771478.2733236.1741336.5488513.2733236.8023369.0969858.2733236-.019838.6259991.0771478.8618509.1168238.2931616.3328376.5069711.4298233.7428229.119028.2733236.1763378.5863231.079352.8420129-.1168238.2534856-.3725136.3901473-.6458371.5069711Zm7.3158137-4.4789797c-.0573098.2733236-.1168238.5290133-.1939716.7824989-.059514.2534856-.079352.5268091-.1564998.7824989-.059514.2534856-.138866.5091753-.2160138.7626609s-.059514.5466471-.1564998.8023369c-.079352.2336476-.2534856.4694993-.3526756.7031469-.0771478.2556898-.2138096.4893373-.3129996.7450271-.0969858.2534856-.019838.5664851-.1168238.8001327-.0969858.2556898-.2160138.4893373-.3129996.7450271-.0969858.2534856-.2931616.4496613-.4099853.6833089-.09919.2556898-.1564998.5091753-.2755278.7626609-.0969858.2358518-.1564998.5091753-.2733236.7450271-.1168238.2336476-.2336476.4893373-.3526756.7229849-.1168238.2358518-.1564998.5290133-.2733236.7626609-.1168238.2358518-.4099853.3725136-.5466471.6061611,0,.019838-.059514-.0374718-.059514-.0374718-.0969858.1939716-.1168238.4099853-.2931616.5069711-.1564998,0-.3725136-.0573098-.5686893-.0573098-.1542956,0-.3306333.039676-.4871331-.039676-.2755278-.1564998-.3526756-.3923516-.4320276-.6656751-.0771478-.2733236-.2534856-.5664851-.1168238-.8398087.1168238-.2160138.3328376-.3923516.4298233-.6259991.119028-.2160138.3725136-.3923516.4694993-.6061611.119028-.2358518.09919-.5290133.2160138-.7648651.0969858-.2138096.079352-.5069711.1961758-.7428229.0969858-.2336476.4694993-.3526756.5664851-.5664851.0969858-.2358518.1763378-.4893373.2733236-.7251891.079352-.2336476.019838-.5268091.09919-.7626609.0969858-.2336476.1763378-.4893373.2733236-.7229849.0771478-.2358518.1763378-.4694993.2733236-.7053511.079352-.2336476.1961758-.4694993.2755278-.7031469.0771478-.2534856.2733236-.4496613.3504713-.6855131.079352-.2534856-.0374718-.5466471.039676-.7824989.059514-.2534856.1168238-.4893373.1961758-.7428229.0573098-.2336476.2534856-.4496613.3129996-.7053511.0771478-.2931616.1366618-.6436329.3703093-.7802947.2358518-.158704.5885273-.09919.8816889-.039676.2931616.0771478.4694993.2931616.6259991.5466471.1366618.2358518.1366618.4694993.0573098.7450271v.0969858Z"/>
        <path class="cls-1" d="m44.6685504,9.8378896c-.059514.2733236-.1961758.5268091-.2556898.8023369-.0573098.2733236.019838.5863231-.039676.8596467-.0771478.2755278-.1939716.5290133-.2733236.8023369-.0969858.2534856-.1961758.5091753-.3129996.7626609-.0969858.1961758-.2534856.2755278-.4298233.3923516-.1763378.0969858-.3129996.3328376-.5290133.3328376-.1564998,0-.2733236-.1763378-.4298233-.2358518-.2733236-.1168238-.5664851-.2534856-.6656751-.5268091-.0969858-.2556898-.0573098-.6083653.079352-.8816889.0771478-.1961758.0771478-.4298233.1564998-.6833089.0771478-.2160138.2733236-.4121896.3328376-.6458371.0374718-.2160138.1168238-.4518656.1763378-.6855131.0374718-.2336476.1366618-.4694993.1741336-.7053511.039676-.2336476-.1168238-.5069711-.0771478-.7229849.039676-.2931616.3129996-.5091753.5466471-.6656751.2160138-.1763378.4694993-.1939716.7626609-.1564998.2953658.039676.5686893.09919.7450271.3328376.1564998.2160138.1366618.4893373.0969858.7824989-.039676.2755278-.019838.5488513-.0573098.8420129Zm7.6861231-3.9521705c-.2138096.1961758-.4871331.2160138-.7824989.2160138-.3504713,0-.3504713.019838-.7031469.019838s-.3526756-.079352-.7053511-.079352c-.3504713,0-.3504713.1564998-.7031469.1564998-.3328376,0-.3725136-.1961758-.6061611.059514-.2755278.2931616-.2358518.3328376-.2358518.7229849,0,.3923516.059514.3923516.059514.8023369,0,.3901473-.019838.3901473-.019838.7824989v.7824989c0,.3901473.059514.3901473.059514.8023369v.7824989c0,.3901473.2138096.3901473.2138096.7824989,0,.3901473-.2733236.3901473-.2733236.8023369,0,.3901473.039676.3901473.039676.7824989,0,.2931616.019838.6259991-.1763378.8199707-.1961758.1961758-.5290133.2160138-.8420129.2160138-.2931616,0-.5863231-.0573098-.7824989-.2534856s-.1564998-.4893373-.1564998-.7824989c0-.3923516.019838-.3923516.019838-.8023369,0-.3923516-.1961758-.3923516-.1961758-.7824989,0-.3923516-.0969858-.3923516-.0969858-.8023369,0-.3901473.2336476-.3901473.2336476-.7824989s-.0969858-.3923516-.0969858-.7824989-.0969858-.3901473-.0969858-.8023369c0-.3901473.1564998-.3901473.1564998-.7824989,0-.3901473.0374718-.3901473.0374718-.7824989,0-.3901473.2556898-.6061611-.0374718-.8596467-.3129996-.2931616-.4893373.019838-.9191607.019838-.4320276,0-.4320276.0573098-.8618509.0573098s-.4298233-.1366618-.8596467-.1366618c-.4320276,0-.4320276.039676-.8618509.039676-.2931616,0-.6458371.039676-.8420129-.1564998-.1939716-.1961758-.2138096-.5488513-.2138096-.8420129s.0969858-.5664851.2931616-.7626609.4694993-.2733236.7626609-.2733236c.4298233,0,.4298233-.1763378.8618509-.1763378.4298233,0,.4298233.2336476.8596467.2336476s.4298233-.0573098.8618509-.0573098c.4298233,0,.5863231.2931616.8993227-.019838.2931616-.3129996-.019838-.4694993-.019838-.9191607s.1168238-.4496613.1168238-.9015269c0-.4298233-.2733236-.4298233-.2733236-.8794847,0-.2931616.3328376-.4893373.5290133-.6855131.1939716-.1939716.3901473-.3703093.6833089-.3703093.3129996,0,.6458371.019838.8420129.2160138.1961758.1939716.2336476.5466471.2336476.8398087,0,.4496613.039676.4496613.039676.8794847,0,.4518656-.019838.4518656-.019838.9015269s-.1763378.4694993.09919.8221749c.2138096.2733236.2534856-.019838.6061611-.019838.3504713,0,.3504713.1366618.6833089.1366618.3526756,0,.3526756-.1366618.7053511-.1366618s.3526756-.019838.7031469-.019838c.2953658,0,.5488513.2336476.7626609.4298233.1961758.1961758.3129996.4694993.3129996.7626609s-.0969858.5863231-.2931616.7824989Zm1.527526,7.2783419c-.09919.2534856-.3526756.5466471-.6259991.6634709-.1366618.039676-.3328376-.019838-.4694993-.019838-.2160138,0-.3923516-.1366618-.5686893-.2534856-.1564998-.1168238-.3703093-.2138096-.4694993-.4099853-.0969858-.2556898-.3129996-.4893373-.4099853-.7626609-.079352-.2556898-.1168238-.5686893-.1961758-.8420129-.0771478-.2733236.019838-.5863231-.039676-.8794847-.0771478-.2755278-.3328376-.4893373-.4099853-.7626609-.059514-.2953658.059514-.6083653-.019838-.8816889,0,0-.1961758.1564998-.2160138.1168238-.0771478-.2931616.09919-.6634709.2358518-.8993227.1366618-.2336476.3328376-.5268091.6259991-.6061611s.5863231.1366618.8221749.2733236c.2336476.1564998.3703093.3526756.4496613.6458371.0573098.2358518.2931616.4496613.3703093.7053511.059514.2534856.119028.5069711.1961758.7626609.059514.2733236.079352.5268091.1564998.7824989.079352.2733236.059514.5466471.1366618.7824989.079352.2733236.3923516.4496613.4694993.6634709.119028.2755278.079352.6656751-.0374718.9213649Zm.9389987-8.2371786c0,.2358518.0573098.4694993.0374718.6855131,0,.2336476-.1564998.3328376-.3129996.4694993-.1564998.1564998-.2534856.3328376-.4871331.3328376-.019838,0-.039676.0771478-.059514.0771478-.2358518-.019838-.3526756-.2931616-.4893373-.4496613-.1366618-.1763378-.3901473-.3129996-.3725136-.5466471.019838-.2755278.1564998-.5686893.1564998-.8816889.019838-.2931616.09919-.6061611.09919-.8993227s-.119028-.6061611-.119028-.8993227h-.1542956c0-.2358518.3129996-.3725136.4672951-.5290133.158704-.1564998.2953658-.3129996.5290133-.3129996.2556898,0,.4496613.09919.6061611.2534856.1564998.158704.3129996.3526756.3129996.5885273,0,.2336476-.0771478.4694993-.0771478.7031469,0,.2358518.1564998.4694993.1564998.7053511,0,.2336476-.2755278.4694993-.2931616.7031469Zm2.6208203,0c-.019838.2358518,0,.4694993-.019838.7053511-.019838.2138096-.039676.5091753-.1961758.6634709-.1564998.138866-.4496613,0-.6833089,0-.019838,0-.039676.2358518-.059514.2358518-.2534856-.019838-.5290133-.1564998-.6656751-.3328376-.1564998-.1763378-.1564998-.4694993-.1366618-.7031469.019838-.2755278-.039676-.5686893-.039676-.8816889,0-.2931616.2160138-.6061611.2160138-.8993227v-.8993227c0-.2358518-.0969858-.5290133.059514-.6855131s.4496613-.1168238.6833089-.1168238c.2556898,0,.4893373,0,.6656751.1564998.1564998.1564998.3328376.4099853.3328376.6458371,0,.2336476-.2358518.4694993-.2358518.7031469,0,.2358518.2556898.4694993.2556898.7053511,0,.2336476-.1763378.4694993-.1763378.7031469Z"/>
      </g>
      <g>
        <path class="cls-1" d="m4.4882697,77.7134202c-.9183106,1.3687338-2.0965956,2.564262-3.5520981,3.586474l-.2944607-.3465219c1.6977915-1.4206845,2.9454914-3.0320389,3.7249722-4.816599H1.2478755l-.1728741-.43318h3.4132683v-2.0444792c1.0739415.0520059,1.6111334.1906147,1.6283766.3811741,0,.121255-.2250458.2598638-.6583363.4158263v1.2474788h1.7499632l.7277512-.9702613c.398362.3984725.710508.7623482.952797,1.0915163l-.1905594.311925h-3.2399521v.6930438c1.9232794.7103422,2.8933196,1.4726904,2.8933196,2.2696908,0,.3984725-.1728741.5890872-.5195065.5890872-.1733162,0-.3466324-.1386088-.5199486-.4331247-.4332905-.7103975-1.0566983-1.3514906-1.8538645-1.9059257v5.007269h-.9700402v-4.6433934Zm.9355538-4.7993558c.4505337-1.0222119.796724-2.0617776,1.0222119-3.118697.9700402.3465219,1.4550603.6237394,1.4550603.8316525,0,.1386088-.2250458.2252669-.6928227.2426206-.2599743.5370813-.6928227,1.2301251-1.2649431,2.0444239h1.6633051l.710508-1.0048582c.3466324.3638204.6410931.7276407.8838243,1.0915163l-.1910015.3465219H1.0400729l-.1733162-.43318h4.5570669Zm-.9355538-6.0987853c1.0911847.0520059,1.6283766.2079131,1.6456198.43318,0,.1386088-.2250458.2945712-.6755795.4504785v1.4900441h1.7499632l.6928227-1.0395657c.3293892.3291682.6238499.6583916.8493379.9702613l.1211445.1732609-.2078026.3292234H1.4733634l-.2078026-.43318h3.2227089v-2.3737026Zm-2.0793524,3.0320942c1.1955282.7103422,1.8021349,1.4553919,1.8021349,2.2350386,0,.43318-.2082447.6410931-.6066067.6584469-.2772175,0-.4332905-.2079131-.4677769-.6410931-.0521717-.6410931-.3638756-1.2994295-.9704824-1.9751748l.2427311-.2772175Zm8.2471105,3.8810452c-.0172432,1.836566-.1905594,3.3959145-.5371918,4.6606918-.4156052,1.5246963-1.1605996,2.8241811-2.2522265,3.9157526l-.3466324-.2945712c.9355538-1.3341369,1.5421606-2.8414795,1.8366213-4.5394368.1905594-1.1954729.2944607-2.5989142.2944607-4.1755612v-4.9379646c.4677769.1559625.8316525.3118697,1.1265554.4677769,1.3684022-.4158263,2.5122008-.9875598,3.4649979-1.7326095.779923.5024844,1.178285.8490063,1.178285,1.0569194,0,.121255-.1039013.1732609-.312146.1732609-.1556309,0-.3117039-.0172985-.5022633-.0693044-1.1261133.4331247-2.4427859.7796466-3.9504601,1.0568641v3.7078395h3.9159737l.8144093-1.1262238c.4328484.3811741.796724.7797019,1.0911847,1.1955282l-.1733162.3638204h-2.3388846v8.6976995h-1.0049688v-8.6976995h-2.3043982v.2772175Z"/>
        <path class="cls-1" d="m27.1374269,72.4462875c0,1.3687338-.4850201,2.4603054-1.4378172,3.2399521.8833821.0866581,1.3339159.2252669,1.3339159.4505337,0,.121255-.2078026.2598638-.6410931.3984725v.6756901h5.2498896l.8833821-.9182554c.3638756.2599191.7626798.6064409,1.1955282,1.0395657l-.1905594.3118697h-6.7398784l.0866581.0693044c1.8193781,1.3341369,4.1410195,2.2870445,6.9998528,2.8761317-.3811188.3118697-.6410931.6583916-.7971662,1.0568641-2.8239047-.9182554-5.058888-2.1657342-6.6877067-3.7597349v4.4701324h-.9877256v-3.8636915c-1.8538645,1.5940007-4.2272355,2.7548214-7.1209973,3.4825174l-.2078026-.4158263c2.8933196-.9182554,5.1632315-2.2350386,6.8265365-3.9156974h-6.4799041l-.1905594-.43318h7.1727268v-1.2994295c-.4677769.3118697-1.0566983.5890872-1.7672064.8142988l-.1905594-.3638204c1.8193781-.8316525,2.7204456-2.1311373,2.7204456-3.8983437v-1.5940007c.2250458.0866028.554435.2252116.9872834.4331247h2.8415901l.4850201-.5197828c.6066067.43318.9183106.727696.9183106.8490063,0,.0519507-.0344864.1039013-.1211445.1559072l-.3466324.2252116v2.7202245c0,.2945712.2078026.43318.6066067.43318.3638756,0,.5889214-.1213103.6755795-.3638756.1388298-.3811741.2254879-.9702613.2599743-1.7845601l.4505337.1559072c-.0172432.1559072-.0172432.3118697-.0172432.4678322,0,.9529076.2078026,1.4380382.6234078,1.4206845-.0172432.4158263-.1556309.6757453-.4505337.7970556-.242289.0866028-.6755795.1386088-1.2817441.1386088-.6760217,0-1.1265554-.0520059-1.3688444-.1386088-.2944607-.1040118-.4332905-.3638756-.4332905-.7970556v-3.3266102h-2.8588332v.7103975Zm-2.8760764-3.9503496l.7449944-1.0049135c.3638756.3292234.6932649.6930438.9877256,1.1088701l-.2078026.3292234h-3.6042698c.8838243.5197276,1.3171148,1.0395657,1.3171148,1.576647,0,.4158263-.1905594.6237394-.5893636.6237394-.2944607,0-.4677769-.1905594-.5195065-.554435-.1039013-.6410931-.3988041-1.1781744-.8838243-1.6459514h-.398362c-.6755795,1.1608207-1.576647,2.1657342-2.7027602,3.0146852l-.2949028-.3118144c1.2649431-1.2994847,2.2177401-2.9627898,2.8588332-5.007269,1.0222119.1905594,1.5249174.3811741,1.5249174.6063857,0,.1386088-.2427311.2599191-.7449944.3465219-.156073.3638756-.2772175.6757453-.398362.9183106h2.9105628Zm-1.8366213,6.1680897c.952797-.1559625,1.9232794-.3465219,2.8760764-.5717888l.0521717.43318c-1.9232794.6756901-3.8116303,1.1781744-5.6654948,1.5246963-.0866581.3984725-.1910015.6063857-.312146.6063857-.2250458,0-.4677769-.5024291-.710508-1.5246963.6760217-.0519507,1.6288187-.1732057,2.8243469-.3291682v-2.5989142h-2.2699118l-.1556309-.4331247h4.4872098l.7277512-.86636c.3988041.3638756.7277512.6930438.9704824,1.0049688l-.1905594.294516h-2.6337874v2.4603054Zm9.2520793-6.1680897l.8144093-1.0569194c.3811188.3465219.7449944.7277512,1.0916269,1.160876l-.1905594.3292234h-4.8860139c.9877256.4677769,1.4727457.9702613,1.4727457,1.4899889,0,.3985278-.1905594.5891425-.554435.5891425-.2944607,0-.4677769-.1386088-.5199486-.4158263-.1211445-.6410931-.4677769-1.1955282-1.0739415-1.6633051h-.2949028c-.5716782.8142988-1.2994295,1.5246963-2.1655684,2.1137283l-.2772175-.2598638c1.1610418-1.2128266,1.9577658-2.5816157,2.3910563-4.1063121.952797.1559625,1.4378172.3465219,1.4378172.5717888,0,.121255-.2250458.2425653-.6755795.3465219-.1383877.3638756-.2772175.6583916-.4332905.9009569h3.863802Zm-3.9327748,3.7597902c.952797.7103422,1.420574,1.4206845,1.420574,2.1137283,0,.43318-.1905594.6410931-.5889214.6410931-.2772175,0-.4332905-.2252669-.4505337-.6930438-.0172432-.6756901-.2427311-1.282131-.6755795-1.836566l.2944607-.2252116Z"/>
        <path class="cls-1" d="m35.8226914,74.9931958c2.3906142-1.9924732,4.1233342-4.574089,5.214961-7.7447367,1.0394551.3638756,1.5594038.6583916,1.5594038.8836032,0,.1559625-.2427311.2772175-.7277512.3812293-.8661389,1.8192123-1.8021349,3.2746042-2.8066615,4.3661758-.7626798.848951-1.7499632,1.6806035-2.9627345,2.4602502l-.2772175-.3465219Zm2.8066615-.9009569l-.1388298-.4331247h7.9703351l.6583363-.7796466c.6755795.5370813,1.0222119.8836032,1.0222119,1.0395657,0,.0866028-.0521717.1732057-.1733162.2598638l-.3638756.2772175c-.0172432,3.4132683-.2944607,5.6136547-.8488957,6.6358666-.3811188.6930438-1.0571405,1.0395657-2.0271807,1.0395657,0-.3465219-.2254879-.6063857-.6583363-.7796466-.3293892-.1386088-.9355538-.2772175-1.8193781-.4158263v-.4678322c1.1610418.1559625,2.0793524.2426206,2.7204456.2426206.6061646,0,.9872834-.3638756,1.1605996-1.0915716.2944607-1.1954729.4505337-3.0493927.4677769-5.5270518h-4.1233342c-.1733162,2.0964851-.6587785,3.7771439-1.4727457,5.007269-.8838243,1.3687338-2.287155,2.443007-4.1931912,3.2226536l-.242289-.3811741c2.0271807-1.0915163,3.3955829-2.564262,4.106091-4.4354802.3638756-1.0222119.6066067-2.1484357.710508-3.4132683h-2.7549319Zm6.4454177-6.8437797c1.6111334,2.7895289,3.551656,4.8686602,5.838811,6.2373941-.3466324.2425653-.6410931.5890872-.9010675,1.0569194-1.6977915-1.3341369-3.0666358-2.8934854-4.1233342-4.6607471-.3988041-.6756901-.8144093-1.4727457-1.2476999-2.3910011l.4332905-.2425653Z"/>
        <path class="cls-1" d="m57.5367369,69.4142486c.3811188.3118144.7449944.6583363,1.0743837,1.0395657l-.1733162.3118144h-5.4926207l-.1733162-.4331247h3.9853886l.7794808-.9182554Zm-.6066067,2.2003864c.3293892.2598638.6760217.5890872,1.0222119,1.0222119l-.1905594.2945712h-4.1927491l-.1733162-.43318h2.8415901l.6928227-.8836032Zm0,2.1830879c.3293892.2599191.6587785.5717335,1.0222119.9702613l-.2250458.3292234h-4.1410195l-.1905594-.43318h2.8588332l.6755795-.8663047Zm-.398362,3.0840448l.5716782-.7103975c.6760217.5371366,1.0049688.8836585,1.0049688,1.0569194,0,.0519507-.0344864.1039566-.1211445.1559625l-.3811188.2252116v4.7473499h-.9355538v-1.1088701h-2.287155v1.1088701h-.9704824v-6.0121272c.1215866.0519507.4854622.2425101,1.0743837.5370813h2.0444239Zm.4677769-9.6506623c.3466324.2772175.6932649.6237394,1.0571405,1.0395657l-.1733162.311925h-4.2104344l-.1733162-.43318h2.8071037l.6928227-.9183106Zm-2.6161021,13.5836582h2.287155v-3.4998158h-2.287155v3.4998158Zm9.1826643-4.1235553c-.4156052.4158263-.9006253.848951-1.4550603,1.2820757v2.7202245c.7794808-.1386088,1.6633051-.3465219,2.6505885-.6063857l.1039013.4158263c-1.6633051.6410379-3.2050235,1.1261685-4.6087964,1.4206845-.0689728.3812293-.1556309.5717888-.2772175.5717888-.2250458,0-.4500916-.4677769-.6755795-1.4034413.6755795-.0693044,1.2821863-.1559072,1.8538645-.2425101v-2.2524476c-.8833821.4851306-1.9232794.9009569-3.153294,1.2301804l-.2078026-.4158263c1.8538645-.6410379,3.3610966-1.5593485,4.5048951-2.7201692h-3.9853886l-.1728741-.43318h2.7894183v-1.4034413h-1.8193781l-.1733162-.4331247h1.9926943v-1.2647773h-2.2004969l-.156073-.43318h2.3565699v-1.6286529c1.0566983.0866028,1.5938902.2425653,1.5938902.4678322,0,.1386088-.2250458.2772175-.6583363.4158263v.7449944h2.5643725v-1.6633051c1.0394551.0693044,1.5594038.2079131,1.5594038.43318,0,.121255-.2082447.2598638-.6238499.3984725v.8316525h1.1433564l.6583363-.7970004c.2944607.2772175.5716782.5717335.8488957.9009569l-.2078026.3292234h-2.4427859v1.2647773h.9006253l.6760217-.7970004c.2078026.1732609.4850201.4677769.8488957.8836032l-.1905594.3465219h-2.2349833v1.4034413h1.5244753l.6410931-.8142988c.3638756.3291682.6410931.6237394.8665811.9009569l-.1905594.3465219h-4.0892899c.2944607.7796466.710508,1.5073426,1.2304567,2.1657342.6234078-.554435,1.1955282-1.1954729,1.6977915-1.9058704.7449944.4851306,1.1088701.8142988,1.1088701,1.0049135,0,.1213103-.1211445.1732609-.3811188.1732609l-.3811188-.0346522c-.4160473.3465219-1.0049688.7103422-1.7499632,1.0915716.7100659.7623482,1.7499632,1.4553919,3.1188076,2.0617776-.3466324.3118697-.6238499.6237394-.8144093.9183106-2.2354254-1.2474788-3.6732426-3.0667464-4.3315789-5.4750459h-.0521717Zm-5.1804747-5.2844865c1.2821863-.5717888,2.3043982-1.282131,3.0666358-2.131082.8316525.3291682,1.2476999.589032,1.2476999.7623482,0,.1559072-.2427311.2252116-.710508.2252116-.9872834.6410379-2.1138388,1.1261685-3.3610966,1.4726904l-.2427311-.3291682Zm4.3143357-4.6260396c1.0743837.0172985,1.6111334.1386088,1.6111334.3638204,0,.1213103-.2078026.2599191-.6410931.4158263v1.0568641h2.8243469l.7971662-.9702613c.398362.3292234.7273091.6930438,1.0222119,1.0742731l-.1733162.3291682h-9.3559806l-.2082447-.43318h4.1237763v-1.8365108Zm-.8316525,7.6407801h2.5643725v-1.2647773h-2.5643725v1.2647773Zm0,1.836566h2.5643725v-1.4034413h-2.5643725v1.4034413Zm2.5466872-6.9130841c1.2649431.2252116,2.2354254.5370813,2.8937618.9182554.4850201.294516.7277512.5717335.7277512.848951,0,.3292234-.1733162.5024844-.5027054.5024844-.1383877,0-.2772175-.0693044-.4328484-.2252669-.710508-.7103422-1.6633051-1.2647773-2.8765186-1.6806035l.1905594-.3638204Z"/>
        <path class="cls-1" d="m74.1220374,72.3076787c0,.1386088-.2254879.2945712-.6755795.4677769v9.581358h-1.0222119v-8.9056126c-.710508,1.1954729-1.4727457,2.2870445-2.2699118,3.2746042l-.3466324-.2772175c1.8193781-2.6508648,3.1882225-5.8561647,4.1237763-9.6333086,1.1088701.2945712,1.6633051.5717888,1.6633051.8143541,0,.1559072-.2599743.2772175-.7971662.3638204-.4156052,1.3687891-.9355538,2.6682738-1.5417185,3.8983989.5716782.0866581.8661389.2252669.8661389.4158263Zm6.150957,8.6976995h3.4128261l.8838243-1.2647773c.398362.3638204.7971662.8142988,1.1955282,1.3513801l-.2078026.3465219h-11.0020424l-.2082447-.4331247h4.8687708v-4.9206109h-3.7771439l-.1905594-.4331247h3.9677033v-4.1582627h-4.2449208l-.2078026-.43318h8.4725984l.8316525-1.1781744c.4850201.4504785.8661389.8663047,1.1433564,1.2648325l-.1905594.3465219h-4.7471841v4.1582627h2.4255427l.8144093-1.1435775c.398362.3812293.7622376.7970556,1.1088701,1.2474788l-.1910015.3292234h-4.1578206v4.9206109Zm-2.5471293-14.1553917c1.9232794.9529076,2.8933196,1.8885167,2.8933196,2.8067721,0,.4505337-.2078026.6757453-.6238499.6757453-.2944607,0-.5022677-.2252116-.640651-.6757453-.2772175-.848951-.9010675-1.6633051-1.888793-2.4429517l.2599743-.3638204Z"/>
        <path class="cls-1" d="m94.744456,66.8499866c1.195086.0172985,1.7844496.1559072,1.7844496.4158263,0,.1559072-.2599743.3118144-.7622376.4851306v1.8712182h5.284376l.7277512-.9009569c.8833821.8142988,1.3166727,1.3340817,1.3166727,1.5940007,0,.121255-.0866581.1905594-.2599743.2079131l-.5716782.0866028c-.4505337.5890872-.9877256,1.1781744-1.6288187,1.7672617l-.3289471-.2598638c.3466324-.6410931.6234078-1.3341369.8144093-2.0618329h-11.3836034v.3292234c0,.8316525-.1383877,1.5073426-.4328484,2.0444239-.2427311.4678322-.5371918.6930438-.8665811.6930438-.1556309,0-.3117039-.0866028-.4677769-.2425101-.1383877-.1213103-.2078026-.2426206-.2078026-.3985278,0-.1906147.1039013-.3985278.3293892-.6064409.6061646-.6583363.9700402-1.6459514,1.0566983-2.9800883l.4505337.0520059c.0517296.2772175.0866581.5024291.1039013.6757453h5.042087v-2.7721751Zm-.8316525,6.583916c-1.73272.4158263-3.4132683.7623482-5.042087,1.0222119l-.2250458-.43318c3.8982884-.7449944,7.0343391-1.7672064,9.4253955-3.0839896.8661389.5024291,1.2994295.848951,1.2994295,1.0741626,0,.1040118-.1215866.1559625-.3638756.1559625-.1733162,0-.3811188-.0173537-.6066067-.0693044-1.1605996.43318-2.3216414.7797019-3.4477547,1.0742179v3.2400073l5.4749354-.7450497.8316525-1.3340817c.4677769.3118144.9877256.6930438,1.5249174,1.143467l-.1910015.3812293-7.6405038,1.0395657v3.3785608c0,.2945712.1039013.4851306.2944607.5717888.2250458.0866028,1.1088701.121255,2.6337874.121255,1.4899889,0,2.373371-.0519507,2.6678317-.1559625.4160473-.1559072.7277512-1.0741626.9183106-2.7721751l.4505337.2079131c-.0172432.2426206-.0172432.5024844-.0172432.7797019,0,.7970004.0694149,1.2994295.1905594,1.4900441.0866581.1386088.2599743.2079131.5371918.2079131-.0521717.6064409-.3466324.9356091-.9183106,1.0222672-.6066067.1039013-1.7844496.1559072-3.5520981.1559072-2.2000548,0-3.4822411-.0866028-3.8116303-.2772175-.2944607-.1732609-.4328484-.5371366-.4328484-1.1088701v-3.4652189l-5.8909827.7970004-.2254879-.4504785,6.1164706-.8316525v-3.1359955Z"/>
        <path class="cls-1" d="m120.3917185,67.3004098l-14.9697457,14.9697457-.5199486-.5197276,14.9697457-14.9697457.5199486.5197276Z"/>
        <path class="cls-1" d="m137.7741851,72.8967659c-.2944607.2599191-.5716782.6064409-.796724,1.0568641-2.9631767-1.4380382-5.3193045-3.3266102-7.0347813-5.7002575-.6928227.9875598-1.3166727,1.7846154-1.8538645,2.3563489-1.4727457,1.6112992-3.3610966,2.9107839-5.6482516,3.9330511l-.242289-.3638756c2.2349833-1.2301251,4.0716046-2.7721751,5.5094218-4.6433934.5716782-.7623482,1.178285-1.6806588,1.7844496-2.7721751.9704824.2598638,1.4555025.5024844,1.4555025.727696,0,.1386088-.242289.2425653-.7100659.3292234,2.1655684,2.3736473,4.6777692,4.0542509,7.5366025,5.0765181Zm-7.415458,8.1606182h4.3488221l.952797-1.2128819c.4332905.3638756.8665811.7970556,1.2821863,1.2994847l-.1905594.3465219h-13.566415l-.1905594-.4331247h6.3415164v-3.5172248h-4.1755059l-.2082447-.4331247h4.3837506v-3.2053551h-4.2798493l-.1556309-.43318h7.9004781l.8493379-.8142988c.398362.2598638.8139672.554435,1.2127714.9009569l-.2082447.3465219h-4.2966504v3.2053551h2.4600291l.8493379-1.0222672c.2944607.2425653.6755795.6237394,1.1605996,1.1435222l-.1733162.3118697h-4.2966504v3.5172248Z"/>
        <path class="cls-1" d="m143.3746862,79.3247747c.9355538-1.1955282,2.1138388-2.5469635,3.5344128-4.0370077,1.7676485-1.8538645,2.6510306-3.3439639,2.6510306-4.4528339,0-.7103422-.2078026-1.2820757-.6238499-1.7499079-.4328484-.4851306-.9872834-.727696-1.6633051-.727696-.7794808,0-1.420574.2425653-1.9228373.7103975-.2599743.2598638-.4160473.589032-.5027054.9529076.398362.1905594.5889214.4851306.5889214.8836032,0,.6237394-.3117039.9356644-.9178685.9356644-.6410931,0-.9532392-.3465219-.9532392-1.0395657s.2599743-1.2994847.779923-1.8366213c.7449944-.7796466,1.7322779-1.1608207,2.9627345-1.1608207.7277512,0,1.3860876.1559625,1.975009.4504785,1.0743837.5717335,1.6115755,1.4726904,1.6115755,2.6855723,0,.7796466-.312146,1.5940007-.9183106,2.4082995-.3638756.4851306-1.0916269,1.2301251-2.2004969,2.2523923-1.5594038,1.4380935-2.685517,2.6162679-3.3615387,3.5345233h4.2104344c.8838243,0,1.4555025-.2425653,1.7499632-.7450497.1733162-.3118144.3117039-.8316525.4156052-1.5592932h.4160473v3.3439086h-7.8315053v-.848951Z"/>
        <path class="cls-1" d="m160.3915087,68.1147638v8.0913138h2.512643v.8142988h-2.512643v1.4034413c0,.589032.156073.9702613.4505337,1.1261685.2427311.1386088.6238499.2079131,1.1437986.2252116v.3985278h-4.4354802v-.3985278c.7794808-.0345969,1.2645009-.1732057,1.4727457-.3984725.1556309-.1905594.2250458-.5024844.2250458-.9529076v-1.4034413h-5.8909827v-.727696l6.1854434-8.1779167h.8488957Zm-6.1160285,8.0913138h4.9726721v-6.549319l-4.9726721,6.549319Z"/>
        <path class="cls-1" d="m170.2201296,74.1095926c-.5195065,1.6459514-1.2300146,3.2399521-2.1483252,4.7646484l-.398362-.294516c1.1778428-2.2004416,2.0094954-4.7126977,2.5122008-7.5021713h-2.2177401l-.156073-.43318h2.4082995v-3.8290945c1.1610418.0520059,1.7499632.2252669,1.7499632.4851306,0,.1559625-.2599743.311925-.7794808.4678322v2.8761317h1.0394551l.710508-.987615c.3634335.3638756.6755795.7277512.9700402,1.1262238l-.1905594.2945712h-2.529444v1.9231689c.6755795.4677769,1.2127714.987615,1.6111334,1.576647.3466324.5024844.5199486.9183106.5199486,1.2821863,0,.3984725-.1905594.6063857-.5893636.6063857-.2250458,0-.3638756-.1386088-.4156052-.3984725-.156073-.7970556-.5199486-1.6287082-1.1261133-2.4949576v8.7843023h-.9704824v-8.247221Zm10.8287262-2.6162127l.6583363-.7623482c.6760217.5370813,1.0222119.8836032,1.0222119,1.0395657,0,.0693044-.0517296.1386088-.1383877.1905594l-.4160473.2598638v4.8167096h-.9700402v-.7103975h-2.4427859c.0172432.0519507.0517296.0866581.1039013.1386088,1.2472577,1.576647,2.8933196,2.8414795,4.9205003,3.7770886-.3293892.2772175-.5889214.6237394-.7794808,1.0395657-1.8193781-1.1261685-3.2748806-2.564262-4.3492642-4.3141699v5.3883878h-.9700402v-4.7126977c-1.2994295,1.6113544-2.9799777,2.997442-5.042087,4.140909l-.2772175-.3638204c2.131082-1.403386,3.8293156-3.1013986,5.0942587-5.0938718h-2.2004969v.8663047h-.9704824v-6.3239969c.4160473.2079131.7971662.4158263,1.1261133.6237394h2.2699118v-1.8712182h-4.1927491l-.1733162-.43318h4.3660653v-2.3737026c1.1088701.0347075,1.6633051.1733162,1.6633051.3985278,0,.1213103-.2250458.294516-.6932649.4851306v1.4900441h2.9454914l.8665811-1.0742179c.5022633.4678322.8833821.848951,1.1088701,1.1435222l-.1733162.3638756h-4.7476263v1.8712182h2.3910563Zm-5.7866393.4331247v1.6979573h2.4255427v-1.6979573h-2.4255427Zm0,2.1311373v1.8365108h2.4255427v-1.8365108h-2.4255427Zm3.3955829-.43318h2.5471293v-1.6979573h-2.5471293v1.6979573Zm0,2.2696908h2.5471293v-1.8365108h-2.5471293v1.8365108Z"/>
      </g>
      <g>
        <path class="cls-1" d="m77.4154875,4.6890989c.2307935,2.9224452.8749816,5.2339728,1.9480389,6.9511076.5447081.8750369.9413016,1.3208729,1.1720951,1.3208729.2807546,0,.5287913-1.0566983.7595848-3.1866197l.4461124.2146557c-.0990378,1.1722609-.1489989,2.0143036-.1489989,2.5426527,0,.8420979.1817167,1.3373977.5287913,1.4694849-.09948.5118244-.3302735.7594743-.693707.7594743-.660547,0-1.4196897-.5613434-2.2951134-1.6840853-1.4196897-1.8161726-2.3278313-4.5900058-2.7076237-8.3049747h-8.7838602l-.1817167-.4127866h8.932417c-.0826789-.9080863-.1485568-2.3610465-.1649157-4.3588806,1.0894162.0495189,1.6345664.1816062,1.6345664.4293113,0,.1155626-.2148767.2476499-.627387.3962619.0163589,1.5850475.0658778,2.7407837.1317557,3.4507391h2.8234626l.7595848-1.0401736.4293113.4292561c.2144346.2146557.4293113.4623608.6110281.7100106l-.1653578.3136935h-4.408068Zm-4.1277555,7.5950193c1.1062173-.2146557,2.3441902-.4788303,3.6816431-.7925238v.5118244l-.8418216.2476499c-2.6749058.7760543-5.1349349,1.3704471-7.3641705,1.7832337-.0822368.4292561-.1812746.6439117-.3134724.6439117-.2312357,0-.4951892-.5118244-.8091037-1.5520533l1.8326421-.2311251v-6.0264965c1.0566983.0825684,1.5850475.2146557,1.5850475.4293113,0,.1320873-.2144346.2641746-.6437459.4127313v5.0523666c.8913405-.1320873,1.5355286-.2311804,1.9480389-.3136935v-7.0502007c1.0239805.0825684,1.5355286.2311804,1.5355286.4458361,0,.1320873-.1980757.2641746-.6105859.3962619v2.2124345h1.4196897l.7432259-1.122742c.3629914.3797371.6437459.7264801.8418216,1.0566983l.1158389.1816062-.1653578.297224h-2.9552183v3.4177449Zm.9408594-11.4915944c.3797924.3797371.7100659.7594743,1.0235383,1.1722609l-.1980757.2806993h-6.0099165l-.1649157-.4127866h4.5570669l.7923027-1.0401736Zm4.1609155-.0165247c1.4033308.495355,2.1133967,1.1062725,2.1133967,1.8162279,0,.4127313-.1980757.6109175-.5778681.6109175-.2643957,0-.4461124-.148612-.5283492-.4293113-.1980757-.7099554-.5946691-1.271354-1.2052551-1.7171348l.1980757-.2806993Z"/>
        <path class="cls-1" d="m96.6615456,6.042966c.8418216.4293113,1.2711329.7430048,1.2711329.9576605,0,.1155626-.1980757.1981309-.594227.2146557-.4293113,1.3373424-.9744616,2.5426527-1.6182075,3.5993511.4293113.7925238.8749816,1.4529602,1.3538118,1.9978341.1485568.148612.2643957.2311251.3139146.2311251.2144346,0,.4456703-.924611.7264248-2.7573084l.3961513.2311804c-.1154016,1.0731678-.1817167,1.8161726-.1817167,2.2619534,0,.6604365.1653578,1.0566983.4788303,1.2053104-.1153968.4788303-.3466324.7100106-.7264248.7100106-.3961513,0-.8913405-.3137488-1.4692086-.9576605-.6110281-.627387-1.0898583-1.3043482-1.4532918-2.047353-1.0894162,1.3538671-2.4105102,2.394096-3.9623977,3.1371008l-.2475946-.346743c.7427838-.4457808,1.3869718-.9081416,1.9316799-1.419966h-4.6724636v1.0897478h-.9249426V5.8778845c.4461124.1816062.8091037.346743,1.1230183.5283492h3.3350107l.6769059-.8750921c.3466324.297224.6769059.6274423.9744616.9741852l-.1653578.3136935h-2.5590669v1.6345664h.8586227l.561067-.6439117c.5615092.4292561.8422637.7099554.8422637.8255179,0,.0825684-.03316.1320873-.1153968.1816062l-.3139146.2146557v2.3115276h-.8586227v-.5778681h-.9740194v1.8822163h1.2384151l.6769059-.8255179c.3797924.346743.6437459.6109175.7759438.7595296.5615092-.5779234,1.0235383-1.1557914,1.3701708-1.7171348-.6932649-1.6841406-1.1389351-3.6819747-1.3206519-5.9769776h-7.1656527v2.3280523c0,1.5850475-.1321978,2.9223899-.3965935,4.0286624-.3134724,1.3373977-.9076995,2.5261833-1.7994821,3.5828816l-.3466324-.2641746c1.0566983-1.7006653,1.5850475-4.160805,1.5850475-7.3804189v-3.3186518c.4620292.1980757.8586227.3962619,1.1888962.6108623h6.9180581c0-.0495189,0-.0825131-.0168011-.1155626,0-.1155626,0-.2806993-.0163589-.5118244,0-.2146557,0-.3962619-.0168011-.5118244h-.4951892v-1.1887856h-3.4013307v1.7171348h-.9408594v-1.7171348h-4.2599533l-.1649157-.4127866h4.424869V.0330495c1.0730573.0164695,1.6014064.1320873,1.6014064.3632124,0,.1320873-.2144346.2641746-.660547.4127866v.924611h3.4013307V.0330495c1.0239805,0,1.5355286.1320873,1.5355286.3797371,0,.148612-.2144346.2971688-.627387.4623055v.8585674h2.9720193l.7923027-1.0237041c.3139146.2806993.660547.643967,1.0403394,1.0897478l-.1649205.346743h-4.6397409v.6439117c.6769059.0825131,1.0235383.1981309,1.0071794.3797371,0,.1155626-.1485568.2146557-.4456703.3302182,0,.4788303,0,.7925238.0163589.924611h2.6912648l.660547-1.0071794.2639535.2641746c.2312357.2311804.4624713.5118244.6769059.8255732l-.2144346.3302182h-4.0618777c.0826789,1.8822163.3965935,3.5828264.9413016,5.0853608.5283492-1.0071794.9908205-2.2950582,1.3706129-3.8801057Zm-6.8853403,2.4106207v-1.6345664h-1.5682464v1.6345664h1.5682464Zm1.8658021.4127866h-3.4340485v1.4859544h3.4340485v-1.4859544Zm-1.8658021,1.898741h-1.5682464v1.8822163h1.5682464v-1.8822163Zm5.3166517-8.3710183c1.1557362.2146004,1.7336043.6108623,1.7336043,1.1722609,0,.3797371-.1649157.5778681-.5119902.5778681-.2144346,0-.3629914-.1155626-.4456703-.3632124-.1153968-.3797924-.4129524-.7430048-.9245005-1.0897478l.1485568-.2971688Z"/>
        <path class="cls-1" d="m100.6845155,4.4579185l-.1653578-.4127313h2.4931891V.1155626c.1158389-.0165247.2148767-.0165247.3302735-.0165247.8422637,0,1.2715751.1156178,1.2715751.346743,0,.148612-.2312357.3302182-.6773481.5283492v3.0710572h.9413016l.7759438-1.1062173c.3466324.3797371.660547.7429496.9081416,1.1062173l-.1153968.4127313h-2.5099902v1.6841406c.9576605.5778681,1.6345664,1.1062173,2.0311599,1.5850475.3302735.4127866.4951892.8255179.4951892,1.2383045s-.1980757.6109175-.594227.6109175c-.2148767,0-.3797924-.1981309-.5119902-.5943928-.1817167-.6439117-.660547-1.4199108-1.4201318-2.2950029v8.1728874h-.9245005v-7.7601561c-.627387,1.7501843-1.4364908,3.3682812-2.4436702,4.8377109l-.3629914-.280644c1.287934-2.1299214,2.1956335-4.5405421,2.7407837-7.1988127h-2.2619534Zm6.4224268,0l-.1649157-.4127313h4.4907469V.2476499c1.1066594.0165247,1.6677264.148612,1.6513675.4293113,0,.148612-.2312357.3136935-.693707.478775v2.889451h.8091037l.8091037-1.2053104c.4129524.4292561.7595848.8585674,1.0403394,1.2878787l-.1485568.330163h-2.4604712v8.8498486c0,.9411358-.5778681,1.419966-1.7336043,1.419966-.0163589-.3632677-.2307935-.6274423-.6769059-.775999-.2807546-.1156178-.8749816-.2311804-1.7831232-.3632677v-.4292561c1.0071794.0990378,1.8494432.1485568,2.5263491.1485568.4788303,0,.7100659-.1650815.7100659-.478775V4.4579185h-4.3757922Zm1.6018486,4.9533287c-.1817167-1.0071794-.7432259-2.0638778-1.6677264-3.170095l.2807546-.297224c1.0403394.7430048,1.7831232,1.5519981,2.2455945,2.4270902.2144346.4127866.3302735.7925238.3302735,1.1062173,0,.4788303-.1985178.7100106-.6110281.7100106-.2971135,0-.4951892-.2641746-.5778681-.775999Z"/>
        <path class="cls-1" d="m123.7444145,12.5978117V.6604365c1.1062173.0330495,1.6677264.1651367,1.6677264.3962619,0,.148612-.2312357.297224-.693707.4788303v11.0622831h4.5075479V3.5663569c1.0898583.0825684,1.6345664.2311251,1.6345664.4623055,0,.148612-.2144346.2971688-.6601105.4457808v10.0386342h-.9744559v-1.5024791h-9.8900775v1.6510912h-.9576605V3.6653947c1.0898583.0495742,1.6345664.1816615,1.6345664.4293113,0,.148612-.2307935.297224-.6769059.4623055v8.0408001h4.4085101Z"/>
        <path class="cls-1" d="m140.1670099.1651367c1.1561783.0495189,1.7340464.1816062,1.7340464.4292561,0,.148612-.2480367.3136935-.7595848.4788303v1.9647847h4.8541804l.9081416-1.1557362c.3797924.330163.7923027.7594743,1.221614,1.2712987l-.1817167.297224h-7.6940019c.9740194.1816062,1.4696507.3632124,1.4696507.5283492,0,.1155626-.1817167.2311251-.5615092.3466877v1.7997032h3.863802l.6437459-.7430048c.6769059.5118797,1.0235383.8420979,1.0071794.99071,0,.0825131-.0495189.1485568-.1653578.2311251l-.3793503.297224v4.6890436c0,.8750921-.5451502,1.3208729-1.6513675,1.3208729,0-.280644-.1649157-.4952997-.4788303-.627387-.3134724-.1320873-.8749816-.2476499-1.6509254-.3632124v-.4623608c.7595848.0990931,1.5023686.148612,2.2287934.148612.3965935,0,.5946691-.1650815.5946691-.5118244v-4.5570116h-4.0123588v8.3214994h-1.0071794V6.538321h-3.764322v6.5217962h-.9576605v-7.462932l.9576605.4457808.1485568.0825684h3.6157653v-2.67474h-6.4555868l-.1980757-.4127866h6.6700214V.1651367Z"/>
        <path class="cls-1" d="m153.1887168,6.967577c.8091037.346743,1.5023686.7595296,2.0475188,1.2053104.4788303.4127866.7096238.775999.7096238,1.122742,0,.3632677-.1812746.5448739-.5283492.5448739-.1812746,0-.3797924-.1650815-.561067-.4788303-.3470746-.6769612-.9081416-1.3043482-1.6677264-1.8822163v7.3803636h-.9245005v-6.9841018c-.6769059.7594743-1.4696507,1.5024791-2.3609913,2.2289592l-.2807546-.3302182c1.9811989-1.898741,3.4835675-3.9626188,4.5075479-6.2246275h-4.1113966l-.1653578-.4127866h2.4109523V.0495189c1.0566983.0495189,1.5850475.1816062,1.6014064.4127866,0,.148612-.2312357.2971688-.6769059.4457808v2.2289592h.8913405l.6278291-.7594743c.6601049.5778681.9903784.9576605.9903784,1.1062173,0,.0825684-.0495189.1320873-.1649157.1816062l-.4129524.1816615c-.660547,1.1392114-1.3042929,2.1133967-1.9316799,2.9224452v.1980757Zm6.3238311-3.8305315V.0495189c1.1062173.0495189,1.6509254.1816062,1.6509254.4127866,0,.1155626-.2312357.2806993-.6769059.4623055v2.2124345h2.3114659l.5942335-.7429496c.6769059.5283492,1.0239805.8750369,1.0071794,1.0236489,0,.0660436-.0495189.1320873-.1317557.1981309l-.4129524.297224v7.165708h-.9245005v-.97413h-2.4436702v4.7551425h-.9740194v-4.7551425h-2.1960756v1.122742h-.9413016V2.6086964c.4461124.1981862.8091037.3797924,1.0898583.5283492h2.0475188Zm-2.1960756,3.2031445h2.1960756v-2.7903579h-2.1960756v2.7903579Zm0,.4127866v2.9389146h2.1960756v-2.9389146h-2.1960756Zm5.6137652-3.2031445h-2.4436702v2.7903579h2.4436702v-2.7903579Zm0,3.2031445h-2.4436702v2.9389146h2.4436702v-2.9389146Z"/>
        <path class="cls-1" d="m171.1304819,1.7336595l.627387-.775999c.627387.478775.9413016.7925238.9245005.9410805,0,.0660436-.0495189.1320873-.1485568.2146557l-.3466324.2641746v9.3286788h-.9245005v-1.1062173h-3.0710572v1.7336043h-.9576605V1.1722609c.1317557.0660436.2639535.1320873.3961513.1816615l.2971135.1485568c.1817167.1156178.3302735.1816062.4293113.2311804h2.7739437Zm.1321978.4127866h-3.0710572v3.7314384h3.0710572v-3.7314384Zm-3.0710572,4.144225v3.8965751h3.0710572v-3.8965751h-3.0710572Zm10.847738-4.9863229l.6601049-.8090485c.660547.5118797.9908205.8255732.9908205.9741852,0,.0495189-.0495189.1320873-.1321978.2146004l-.3797924.3137488v11.2934635c0,.9080863-.5778681,1.3703918-1.7172453,1.3703918,0-.297224-.1980757-.5283492-.594227-.6769612-.3134724-.1155626-.9081416-.2146004-1.7831232-.3136935v-.4623055c.9081416.0825684,1.7831232.1320873,2.5922269.1320873.3466324,0,.5119902-.1816062.5119902-.5283492v-3.8140067h-4.1609155c-.1153968,1.2383045-.3961513,2.2950029-.8586227,3.170095-.5447081,1.0566983-1.4860097,1.9647847-2.8066615,2.7077895l-.2975556-.3302182c1.3706129-1.0071794,2.2455945-2.2620087,2.6585469-3.7644878.2475946-.8916169.3629914-1.9813094.3629914-3.2526634V.7430048c.3470746.1485568.7100591.3302182,1.1230183.5613434h3.830642Zm.1485568,3.9296246h-4.0950377v2.2950029c0,.2641746-.0163589.6109175-.0327179,1.0566983h4.1277555v-3.3517012Zm-4.0950377-.4127866h4.0950377V1.7171348h-4.0950377v3.1040514Z"/>
      </g>
      <g>
        <path class="cls-1" d="m252.1275148,78.9179569h-60.7835875l19.2009604-20.1097652c6.8168096-7.1576943,11.9296379-13.4064733,15.5652992-19.2007946,2.044866-3.1812589,4.0901742-6.9304931,4.0901742-11.8158991,0-.7953424,0-4.7718331-2.2725646-7.2713225-1.1362823-1.2498-3.0675201-2.2723436-5.5668991-2.2723436-3.1811483,0-5.3400847,1.4770012-6.5899953,3.0676306-1.8176096,2.3858613-2.6130072,6.7032367-2.7266354,9.3163544h-20.3368006c.1136282-9.8844403,4.4310589-17.0421346,8.4076049-21.0186253,5.1123861-5.1126625,12.042824-8.1802379,21.4730829-8.1802379,11.3610546,0,17.9510499,4.4309484,21.3594547,7.8393532,3.0675201,3.0676306,7.3849508,8.861952,7.3849508,18.632764,0,9.5436108-4.4310589,16.1332745-11.2478685,22.4956817l-12.7250355,11.8158991h24.7678595v16.7013051Z"/>
        <path class="cls-1" d="m312.6847302,49.4918373h9.2025603v15.1106757h-9.2025603v14.3154439h-18.1783064v-14.3154439h-36.6974974v-12.6111862l29.1989184-48.8541707h25.6768854v46.3546812Zm-18.1783064,0v-30.9031208l-17.8378638,30.9031208h17.8378638Z"/>
      </g>
    </g>
  </g>
</svg>