<?xml version="1.0" encoding="utf-8"?>
<!-- Generator: Adobe Illustrator 28.0.0, SVG Export Plug-In . SVG Version: 6.00 Build 0)  -->
<svg version="1.1" id="_レイヤー_2" xmlns="http://www.w3.org/2000/svg" xmlns:xlink="http://www.w3.org/1999/xlink" x="0px"
	 y="0px" viewBox="0 0 390.7 28.3" style="enable-background:new 0 0 390.7 28.3;" xml:space="preserve">
<style type="text/css">
	.st0{fill:#3B3B3B;}
</style>
<g id="_レイヤー_1-2">
	<g>
		<path class="st0" d="M119.2,25.5h-16.4l5.2-5.4c1.8-1.9,3.2-3.6,4.2-5.2c0.6-0.9,1.1-1.9,1.1-3.2c0-0.2,0-1.3-0.6-2
			c-0.3-0.3-0.8-0.6-1.5-0.6c-0.9,0-1.4,0.4-1.8,0.8c-0.5,0.6-0.7,1.8-0.7,2.5h-5.5c0-2.7,1.2-4.6,2.3-5.7c1.4-1.4,3.2-2.2,5.8-2.2
			c3.1,0,4.8,1.2,5.8,2.1c0.8,0.8,2,2.4,2,5c0,2.6-1.2,4.4-3,6.1l-3.4,3.2h6.7V25.5z"/>
		<path class="st0" d="M135.5,17.6h2.5v4.1h-2.5v3.9h-4.9v-3.9h-9.9v-3.4l7.9-13.2h6.9V17.6z M130.6,17.6V9.3l-4.8,8.3H130.6z"/>
	</g>
	<g>
		<g>
			<path class="st0" d="M145.7,5.5c1.3,0.1,3.2,0.2,5.8,0.2h10.7c0.8,0,1.3-0.1,1.7-0.3c0.2-0.1,0.3-0.2,0.5-0.2
				c0.2,0,0.4,0.1,0.5,0.2c0.9,0.7,1.6,1.4,2.1,2.1c0.2,0.2,0.2,0.4,0.2,0.6c0,0.2-0.1,0.4-0.3,0.6c-0.2,0.2-0.4,0.6-0.7,1.2
				c-1.6,3.9-3.5,7.1-5.8,9.8c-2.7,3.1-5.5,5.5-8.5,7.1c-0.3,0.2-0.5,0.3-0.8,0.3s-0.5-0.1-0.7-0.3c-0.6-0.6-1.6-1.1-2.8-1.6
				c2.3-1.2,4.3-2.4,5.8-3.6c1.4-1.1,2.7-2.4,4-3.9c2.3-2.6,4-5.4,5.1-8.6h-10.8c-1.1,0-2.8,0-5,0.1c-0.3,0-0.5-0.2-0.6-0.6
				C145.9,8,145.8,7,145.7,5.5z M168.9,0c1,0,1.8,0.4,2.4,1.1c0.6,0.6,0.8,1.3,0.8,2.2c0,1-0.4,1.8-1.1,2.4
				c-0.6,0.5-1.3,0.8-2.2,0.8c-1,0-1.8-0.4-2.4-1.1c-0.6-0.6-0.8-1.3-0.8-2.2c0-1,0.4-1.8,1.1-2.4C167.4,0.3,168.1,0,168.9,0z
				 M168.9,1.4c-0.5,0-1,0.2-1.3,0.6c-0.3,0.3-0.4,0.7-0.4,1.2c0,0.6,0.2,1,0.6,1.3c0.3,0.3,0.7,0.4,1.2,0.4c0.5,0,1-0.2,1.3-0.6
				c0.3-0.3,0.4-0.7,0.4-1.2c0-0.5-0.2-1-0.6-1.3C169.8,1.6,169.4,1.4,168.9,1.4z"/>
			<path class="st0" d="M193.1,22.5h-11.6v1.8c0,0.3,0,0.4-0.1,0.5c-0.1,0.1-0.2,0.1-0.5,0.1c-0.4,0-0.8,0-1.2,0s-0.8,0-1.2,0
				c-0.4,0-0.6-0.1-0.6-0.4v-0.1c0.1-3.1,0.1-5.1,0.1-6V9.2c0-1.2,0-2.2-0.1-3c0-0.3,0.1-0.4,0.3-0.4c1.1,0.1,2.8,0.1,5.4,0.1h7.1
				c2.8,0,4.7,0,5.6-0.1c0.3,0,0.4,0.2,0.4,0.5v0.1l0,4.8v7.2c0,1.1,0,3,0.1,5.7c0,0.3-0.2,0.5-0.6,0.5c-0.5,0-0.9,0-1.4,0
				c-0.5,0-0.9,0-1.4,0c-0.2,0-0.3,0-0.4-0.1c0-0.1,0-0.2,0-0.4V22.5z M193.1,19.4V9h-11.7v10.3H193.1z"/>
			<path class="st0" d="M205.3,13c0.1-0.1,0.4-0.7,1-1.6c0.3-0.4,0.5-0.7,0.6-0.9c0.1-0.2,0.3-0.3,0.5-0.3c0,0,0.1,0,0.1,0
				c2.1,0.7,4,1.7,5.8,2.9c0.2,0.2,0.3,0.3,0.3,0.4c0,0.1,0,0.2-0.1,0.3c-0.3,0.6-0.7,1.4-1.3,2.3c-0.2,0.2-0.3,0.3-0.4,0.3
				c-0.1,0-0.2-0.1-0.4-0.2C209.6,15,207.6,13.9,205.3,13z M207.7,23.1c1.3-0.2,2.6-0.7,4.1-1.5c3.2-1.7,6-3.4,8.2-5.2
				c3.1-2.4,6-5.1,8.6-8.4c0.1,0.9,0.4,2.1,0.9,3.4c0.1,0.2,0.1,0.4,0.1,0.6c0,0.2-0.1,0.5-0.3,0.7c-2.3,2.4-4.8,4.8-7.6,6.9
				c-2.3,1.8-5.3,3.6-9,5.6c-1,0.6-1.6,0.9-1.7,1c-0.2,0.2-0.3,0.2-0.5,0.2c-0.2,0-0.4-0.1-0.6-0.4
				C209.3,25.5,208.6,24.5,207.7,23.1z M208.9,6l1.6-2.4c0.1-0.2,0.3-0.3,0.4-0.3c0.1,0,0.2,0,0.3,0.1c2.3,0.9,4.1,2,5.6,3.3
				c0.2,0.1,0.2,0.2,0.2,0.4c0,0.1,0,0.3-0.1,0.4c-0.6,1-1.1,1.8-1.5,2.3c-0.1,0.1-0.2,0.2-0.3,0.2s-0.3-0.1-0.5-0.2
				C212.8,8.1,210.9,6.9,208.9,6z M222.7,3.7l1.6-1.1c0.1,0,0.1-0.1,0.2-0.1c0.1,0,0.2,0,0.3,0.1c1,0.8,2,1.9,2.8,3.2
				c0.1,0.1,0.1,0.2,0.1,0.2c0,0.1-0.1,0.2-0.2,0.3l-1.3,0.9c-0.1,0.1-0.2,0.1-0.2,0.1c-0.1,0-0.2-0.1-0.3-0.2
				C224.8,5.8,223.7,4.6,222.7,3.7z M225.4,1.8l1.5-1.1c0.1,0,0.1-0.1,0.2-0.1c0.1,0,0.2,0,0.2,0.1c1.2,0.9,2.1,1.9,2.9,3.1
				c0.1,0.1,0.1,0.2,0.1,0.2c0,0.1-0.1,0.2-0.2,0.3l-1.2,0.9c-0.1,0.1-0.2,0.1-0.2,0.1c-0.1,0-0.2-0.1-0.3-0.2
				C227.6,3.9,226.6,2.7,225.4,1.8z"/>
			<path class="st0" d="M248.8,14.8v7.6h3.2c1.8,0,3.4,0,4.8-0.1c0.3,0,0.4,0.2,0.4,0.6c0,0.3,0,0.6,0,1c0,0.3,0,0.6,0,1
				c0,0.4-0.2,0.5-0.4,0.5h-0.1l-4.7-0.1h-9.4c-1.3,0-2.8,0-4.4,0.1c-0.3,0-0.5-0.2-0.6-0.6c-0.1-0.5-0.1-1.3-0.1-2.4
				c1.2,0.1,2.9,0.1,5.1,0.1h3v-7.6h-1.7c-1.5,0-2.8,0-3.7,0h0c-0.2,0-0.4-0.2-0.4-0.6c0-0.3-0.1-1.1-0.2-2.4
				c0.9,0.1,2.3,0.1,4.2,0.1h6.7l4-0.1h0.1c0.2,0,0.4,0.2,0.4,0.5c0,0.3,0,0.6,0,0.9c0,0.3,0,0.6,0,0.9c0,0.4-0.2,0.6-0.5,0.6h-0.1
				l-3.9-0.1H248.8z"/>
			<path class="st0" d="M277.4,6.9l5.4-0.1c0.7,0,1.2-0.1,1.5-0.4c0.1-0.1,0.2-0.1,0.4-0.1c0.1,0,0.3,0.1,0.5,0.2
				c0.7,0.4,1.4,1,2,1.6c0.3,0.2,0.4,0.5,0.4,0.7c0,0.2-0.1,0.4-0.4,0.6c-0.4,0.3-0.7,0.7-1,1.3c-1.9,3.8-3.9,6.9-5.9,9.3
				c-1.4,1.5-2.9,3-4.7,4.5c-1.5,1.2-3,2.2-4.4,3c-0.2,0.1-0.3,0.1-0.5,0.1c-0.2,0-0.4-0.1-0.7-0.3c-0.8-0.6-1.7-1.1-2.9-1.4
				c2.4-1.3,4.4-2.6,6-3.8c1.3-1,2.6-2.3,4-3.8c1.3-1.4,2.3-2.8,3.2-4.1c0.8-1.2,1.6-2.7,2.4-4.4l-7.3,0.2c-2.4,3-4.3,5-5.7,6.2
				c-0.2,0.2-0.4,0.3-0.6,0.3c-0.1,0-0.3-0.1-0.4-0.2c-0.9-0.7-1.9-1.1-2.9-1.3c3.3-2.7,6-5.7,8.1-8.9c0.9-1.6,1.5-2.9,1.8-4.1
				c1.7,0.6,2.9,1.1,3.5,1.6c0.2,0.1,0.3,0.3,0.3,0.5c0,0.2-0.1,0.4-0.3,0.5c-0.1,0.1-0.4,0.3-0.7,0.8
				C278.2,5.7,277.8,6.2,277.4,6.9z"/>
			<path class="st0" d="M306.3,10.6c3.8,1.2,6.9,2.5,9.5,4.1c0.3,0.1,0.4,0.3,0.4,0.5c0,0.1,0,0.2-0.1,0.3c-0.4,0.9-0.8,1.8-1.3,2.6
				c-0.1,0.2-0.3,0.3-0.4,0.3c-0.1,0-0.2,0-0.3-0.1c-2.8-1.8-5.4-3.1-7.9-3.9v6.6c0,1.1,0,3.1,0.1,5.9V27c0,0.2-0.2,0.4-0.5,0.4
				c-0.4,0-0.9,0-1.3,0c-0.4,0-0.9,0-1.3,0c-0.4,0-0.6-0.2-0.6-0.5c0.1-1.9,0.1-3.9,0.1-5.9V6.3c0-1.8-0.1-3.3-0.3-4.4
				c1.8,0.1,3,0.3,3.8,0.5c0.4,0.1,0.6,0.2,0.6,0.5c0,0.2-0.1,0.4-0.2,0.7c-0.1,0.3-0.2,1.2-0.2,2.8V10.6z"/>
			<path class="st0" d="M336,1.1c1.2,0.1,2.2,0.2,3,0.4c0.3,0.1,0.5,0.2,0.5,0.4c0,0.2-0.1,0.4-0.2,0.6c-0.2,0.2-0.3,0.7-0.4,1.4
				c-0.2,1.4-0.3,2.5-0.5,3.3h1.3l3.1-0.1c0.3,0,0.4,0.1,0.4,0.4c-0.1,0.7-0.2,1.4-0.2,2.2c-0.3,3.9-1,7.1-2.1,9.7
				c0.8,0.6,1.7,1.3,2.7,2.2c0.1,0.1,0.2,0.2,0.2,0.3c0,0.1-0.1,0.2-0.2,0.4l-1.1,1.7c-0.1,0.2-0.2,0.3-0.3,0.3
				c-0.1,0-0.1,0-0.2-0.1c-1-0.9-1.8-1.6-2.4-2.1c-1.2,1.9-2.8,3.7-4.8,5.2c-0.4,0.3-0.6,0.4-0.7,0.4c-0.1,0-0.3-0.2-0.6-0.7
				c-0.4-0.6-0.8-1.1-1.3-1.6c2.2-1.4,4-3.1,5.2-5.1c-0.6-0.4-1.2-0.8-1.9-1.2l-0.1,0.4c-0.1,0.3-0.2,0.4-0.3,0.4
				c-0.1,0-0.2,0-0.4-0.1l-1.6-0.6c-0.3-0.1-0.4-0.2-0.4-0.3c0-0.1,0-0.2,0.1-0.3c1-2.8,1.8-5.7,2.5-8.8c-0.6,0-1.2,0-1.8,0
				c-0.4,0-0.5,0-0.6,0c-0.2,0-0.3-0.1-0.3-0.3V7.4c0-0.2,0.1-0.3,0.3-0.3l2.8,0.1c0.2-1.1,0.3-2.2,0.5-3.2c0.1-0.7,0.1-1.5,0.1-2.2
				C336,1.5,336,1.3,336,1.1z M340.1,9.8h-2.3c-0.5,2.3-1,4.5-1.6,6.6c1,0.6,1.8,1,2.3,1.3C339.3,15.6,339.9,13,340.1,9.8z
				 M355.4,5.9c1.7,2.2,3.1,4.8,4.3,7.6c0,0.1,0.1,0.2,0.1,0.2c0,0.1-0.1,0.2-0.4,0.3l-1.8,0.8c-0.2,0.1-0.3,0.1-0.4,0.1
				c-0.1,0-0.2-0.1-0.2-0.2c-0.2-0.6-0.5-1.3-0.9-2c-2.8,0.4-6.3,0.9-10.5,1.3c-0.4,0-0.7,0.1-1,0.3c-0.2,0.1-0.4,0.2-0.5,0.2
				c-0.2,0-0.3-0.2-0.4-0.5c-0.2-0.7-0.3-1.6-0.5-3c0.4,0,0.9,0.1,1.4,0.1c0.3,0,0.5,0,0.8,0c1.1-2.5,2.1-5,2.8-7.6
				c0.2-0.7,0.4-1.5,0.5-2.3c1.2,0.2,2.2,0.4,3.1,0.6c0.3,0.1,0.5,0.3,0.5,0.5c0,0.2-0.1,0.4-0.3,0.6c-0.2,0.3-0.4,0.7-0.6,1.2
				c-0.9,2.8-1.8,5-2.6,6.8c2.5-0.2,4.5-0.4,6.2-0.7c-0.6-1-1.2-2.1-1.9-3.1c-0.1-0.1-0.1-0.2-0.1-0.3c0-0.1,0.1-0.2,0.4-0.3
				l1.6-0.7c0.2-0.1,0.3-0.1,0.3-0.1C355.3,5.7,355.3,5.8,355.4,5.9z M347.9,28c0,0.2-0.1,0.3-0.3,0.3h-2.4c-0.2,0-0.3-0.1-0.3-0.3
				l0.1-5.3v-2.5l-0.1-3.6c0-0.2,0-0.3,0.1-0.3s0.1,0,0.3,0l3.6,0.1h5.2l3.6-0.1c0.2,0,0.3,0,0.3,0.1c0,0,0,0.1,0,0.3l-0.1,3.1v2.9
				l0.1,5.2c0,0.1,0,0.2-0.1,0.3c0,0-0.2,0-0.3,0H355c-0.2,0-0.3-0.1-0.3-0.3v-1.1h-6.8V28z M354.7,19.1h-6.8v5h6.8V19.1z"/>
			<path class="st0" d="M378.3,22.9c-0.1,0.5-0.2,1-0.3,1.4l-0.1,0.5c1.5-1.7,2.6-4,3.4-6.7c0.5-1.8,0.8-4.4,1-7.7c-0.7,0-1.4,0-2,0
				c-0.4,0-0.6,0-0.6,0c-0.2,0-0.3,0-0.3-0.1c0,0,0-0.1,0-0.3V8c0-0.2,0-0.2,0.1-0.3s0.1,0,0.3,0l2.7,0.1l0-2.4
				c0-1.7-0.1-3.1-0.2-4.2c1,0,2,0.1,3,0.2c0.3,0,0.5,0.1,0.5,0.3c0,0.1-0.1,0.4-0.2,0.7c-0.1,0.3-0.2,1.3-0.2,3.1c0,1,0,1.8,0,2.3
				h1.7l3.3-0.1c0.2,0,0.4,0.1,0.4,0.4c0,0.7-0.1,1.6-0.1,2.8c0,5.7-0.3,10.3-0.9,13.7c-0.2,1.2-0.6,2.1-1.3,2.6
				c-0.6,0.5-1.4,0.7-2.5,0.7c-0.4,0-1,0-1.6-0.1c-0.4,0-0.6-0.1-0.6-0.2c0-0.1-0.1-0.4-0.1-0.8c-0.1-0.8-0.3-1.5-0.6-2
				c1.1,0.2,1.9,0.2,2.5,0.2c0.9,0,1.4-0.6,1.6-1.9c0.5-2.9,0.7-7.1,0.7-12.7h-2.5c-0.2,3.5-0.6,6.4-1.1,8.6
				c-0.8,3.4-2.3,6.3-4.4,8.5c-0.3,0.3-0.5,0.5-0.6,0.5c-0.1,0-0.3-0.1-0.6-0.4c-0.5-0.6-1.2-1.1-1.9-1.4c0.4-0.4,0.8-0.7,1-0.9
				c-0.1,0-0.3,0.1-0.6,0.1c-3.2,0.6-6.7,1.2-10.5,1.6c-0.7,0.1-1,0.2-1.1,0.2c-0.2,0.1-0.4,0.2-0.5,0.2c-0.2,0-0.3-0.2-0.4-0.5
				c-0.2-0.8-0.3-1.6-0.5-2.6c0.4,0,0.8,0,1.2,0c0.5,0,1.1,0,1.9-0.1c1.5-0.1,2.7-0.2,3.4-0.2v-1.7h-1.8l-3.6,0.1
				c-0.2,0-0.3-0.1-0.3-0.3v-1.8c0-0.2,0-0.3,0.1-0.3s0.1,0,0.3,0l3.6,0.1h1.8v-1.3h-1.2l-3.6,0.1c-0.2,0-0.3,0-0.3-0.1
				c0,0,0-0.1,0-0.3l0.1-2.5v-3.2l-0.1-2.5c0-0.2,0-0.3,0.1-0.3c0,0,0.2,0,0.3,0l3.6,0.1h1.2V8.6h-2.2l-3.8,0.1
				c-0.2,0-0.3,0-0.3-0.1c0,0,0-0.1,0-0.3V6.5c0-0.2,0-0.3,0.1-0.3c0,0,0.1,0,0.3,0l3.8,0.1h2.2V4.9c-1.7,0.2-3,0.3-3.9,0.3
				c-0.2,0-0.3,0-0.4,0c-0.2,0-0.4-0.1-0.5-0.2c-0.1-0.1-0.1-0.2-0.2-0.5c-0.2-0.5-0.5-1-0.9-1.6c4-0.1,7.6-0.5,10.6-1.1
				c0.6-0.1,1.1-0.3,1.7-0.5c0.7,0.6,1.3,1.2,1.7,1.6c0.2,0.2,0.2,0.4,0.2,0.5c0,0.2-0.2,0.3-0.6,0.3c-0.2,0-0.6,0.1-1.3,0.2
				c-1.3,0.3-2.6,0.5-3.6,0.6v1.7h1.7l3.8-0.1c0.2,0,0.3,0.1,0.3,0.3v1.8c0,0.2,0,0.3,0,0.3c0,0-0.1,0-0.2,0l-3.9-0.1h-1.7v1.3h1.3
				l3.6-0.1c0.2,0,0.3,0,0.3,0.1c0,0,0,0.1,0,0.3l-0.1,2.5v3.2l0.1,2.5c0,0.2,0,0.3-0.1,0.3s-0.1,0-0.3,0l-3.6-0.1h-1.3v1.3h1.1
				l3.7-0.1c0.2,0,0.3,0,0.3,0.1c0,0,0,0.1,0,0.3v1.8c0,0.2-0.1,0.3-0.3,0.3l-3.7-0.1h-1.1v1.4C374.8,23.4,376.5,23.2,378.3,22.9z
				 M368,13.3h2.5v-1.6H368V13.3z M368,16.7h2.5v-1.6H368V16.7z M375.8,11.8h-2.6v1.6h2.6V11.8z M375.8,16.7v-1.6h-2.6v1.6H375.8z"
				/>
		</g>
		<g>
			<path class="st0" d="M7.9,5.2h3.9l7.8,20.4h-4L14,21.3H5.7L4,25.5H0L7.9,5.2z M9.8,10.6l-2.7,7h5.5C12.6,17.6,9.8,10.6,9.8,10.6z
				"/>
			<path class="st0" d="M33.3,7.9l-2.9,2.5c-1-1.4-2-2.1-3.1-2.1c-0.5,0-0.9,0.1-1.2,0.4c-0.3,0.3-0.5,0.6-0.5,0.9
				c0,0.3,0.1,0.7,0.3,1c0.3,0.4,1.3,1.3,2.8,2.6c1.5,1.2,2.4,2,2.7,2.3c0.8,0.8,1.3,1.6,1.7,2.3c0.3,0.7,0.5,1.5,0.5,2.4
				c0,1.7-0.6,3.1-1.7,4.1c-1.2,1.1-2.7,1.6-4.5,1.6c-1.5,0-2.7-0.4-3.8-1.1c-1.1-0.7-2-1.8-2.8-3.4l3.3-2c1,1.8,2.1,2.7,3.4,2.7
				c0.7,0,1.2-0.2,1.7-0.6c0.5-0.4,0.7-0.8,0.7-1.3c0-0.5-0.2-0.9-0.5-1.4c-0.3-0.5-1.1-1.2-2.3-2.1c-2.2-1.8-3.7-3.2-4.3-4.2
				c-0.6-1-1-2-1-2.9c0-1.4,0.5-2.6,1.6-3.6c1.1-1,2.4-1.5,4-1.5c1,0,2,0.2,2.9,0.7C31.2,5.8,32.2,6.7,33.3,7.9z"/>
			<path class="st0" d="M47,4.7c2.9,0,5.4,1,7.4,3.1c2.1,2.1,3.1,4.6,3.1,7.6c0,3-1,5.5-3.1,7.5C52.4,25,49.9,26,47,26
				c-3.1,0-5.6-1.1-7.6-3.2c-2-2.1-3-4.6-3-7.5c0-1.9,0.5-3.7,1.4-5.4C38.7,8.3,40,7,41.7,6.1C43.3,5.1,45.1,4.7,47,4.7z M46.9,8.4
				c-1.9,0-3.5,0.7-4.8,2c-1.3,1.3-1.9,3-1.9,5c0,2.3,0.8,4,2.4,5.3c1.3,1,2.7,1.5,4.3,1.5c1.8,0,3.4-0.7,4.7-2
				c1.3-1.3,1.9-3,1.9-4.9c0-1.9-0.7-3.6-2-4.9S48.8,8.4,46.9,8.4z"/>
			<path class="st0" d="M61.2,25.5V5.2h3.2c1.9,0,3.2,0.1,4.1,0.4c1.2,0.3,2.2,0.9,2.9,1.8c0.7,0.9,1.1,1.9,1.1,3.1
				c0,0.8-0.2,1.5-0.5,2.1c-0.3,0.6-0.9,1.2-1.6,1.8c1.2,0.6,2.1,1.3,2.7,2.2c0.6,0.9,0.9,1.9,0.9,3.1c0,1.1-0.3,2.2-0.9,3.1
				c-0.6,0.9-1.4,1.6-2.3,2.1c-0.9,0.5-2.2,0.7-3.9,0.7L61.2,25.5L61.2,25.5z M65.1,8.9v4.3h0.8c0.9,0,1.6-0.2,2.1-0.6
				c0.5-0.4,0.7-0.9,0.7-1.6c0-0.6-0.2-1.1-0.7-1.5c-0.4-0.4-1.1-0.6-2-0.6C66.1,8.9,65.1,8.9,65.1,8.9z M65.1,16.6v5.2h1
				c1.6,0,2.7-0.2,3.3-0.6c0.6-0.4,0.8-1,0.8-1.8c0-0.9-0.3-1.6-1-2.1s-1.7-0.8-3.3-0.8C65.9,16.6,65.1,16.6,65.1,16.6z"/>
			<path class="st0" d="M87.2,4.7c2.9,0,5.4,1,7.4,3.1c2.1,2.1,3.1,4.6,3.1,7.6c0,3-1,5.5-3.1,7.5c-2,2.1-4.5,3.1-7.4,3.1
				c-3.1,0-5.6-1.1-7.6-3.2c-2-2.1-3-4.6-3-7.5c0-1.9,0.5-3.7,1.4-5.4C79,8.3,80.3,7,81.9,6.1C83.6,5.1,85.3,4.7,87.2,4.7L87.2,4.7z
				 M87.2,8.4c-1.9,0-3.5,0.7-4.8,2c-1.3,1.3-1.9,3-1.9,5c0,2.3,0.8,4,2.4,5.3c1.3,1,2.7,1.5,4.3,1.5c1.8,0,3.4-0.7,4.7-2
				c1.3-1.3,1.9-3,1.9-4.9c0-1.9-0.7-3.6-2-4.9S89.1,8.4,87.2,8.4z"/>
		</g>
	</g>
</g>
</svg>
