<?xml version="1.0" encoding="utf-8"?>
<!-- Generator: Adobe Illustrator 28.0.0, SVG Export Plug-In . SVG Version: 6.00 Build 0)  -->
<svg version="1.1" id="_レイヤー_2" xmlns="http://www.w3.org/2000/svg" xmlns:xlink="http://www.w3.org/1999/xlink" x="0px"
	 y="0px" viewBox="0 0 1122.8 110" style="enable-background:new 0 0 1122.8 110;" xml:space="preserve">
<style type="text/css">
	.st0{fill:#E28A00;}
	.st1{fill:#009DE6;}
	.st2{fill:none;stroke:#000000;stroke-width:1.1442;stroke-miterlimit:10;}
	.st3{fill:#231815;}
	.st4{fill:#E60012;}
</style>
<g id="_レイヤー_1-2">
	<g>
		<g>
			<path d="M19.2,28.5h9.6L48,78.4h-9.9l-3.9-10.3H13.9L9.9,78.4H0L19.2,28.5z M24.1,41.7l-6.7,17.1h13.3
				C30.8,58.9,24.1,41.7,24.1,41.7z"/>
			<path d="M81.6,35.3l-7,6.2c-2.5-3.4-5-5.2-7.5-5.2c-1.2,0-2.3,0.3-3.1,1c-0.8,0.7-1.2,1.4-1.2,2.3c0,0.8,0.3,1.6,0.9,2.4
				c0.8,1,3.1,3.1,7,6.4c3.6,3,5.8,4.9,6.6,5.7c1.9,1.9,3.3,3.8,4.1,5.6c0.8,1.8,1.2,3.7,1.2,5.8c0,4.1-1.4,7.5-4.2,10.1
				c-2.8,2.7-6.5,4-11.1,4c-3.6,0-6.6-0.9-9.3-2.6c-2.6-1.7-4.9-4.5-6.8-8.2l8-4.8c2.4,4.4,5.2,6.6,8.3,6.6c1.6,0,3-0.5,4.1-1.4
				c1.1-0.9,1.7-2,1.7-3.3c0-1.1-0.4-2.3-1.3-3.4c-0.8-1.1-2.7-2.9-5.5-5.2c-5.4-4.4-8.9-7.8-10.5-10.3c-1.6-2.4-2.4-4.8-2.4-7.2
				c0-3.5,1.3-6.4,4-8.9c2.6-2.5,5.9-3.7,9.8-3.7c2.5,0,4.9,0.6,7.1,1.7C76.5,30.1,78.9,32.2,81.6,35.3z"/>
			<path d="M115.1,27.2c7.1,0,13.1,2.6,18.2,7.7c5.1,5.1,7.6,11.3,7.6,18.7c0,7.3-2.5,13.4-7.5,18.5c-5,5-11.1,7.6-18.2,7.6
				c-7.5,0-13.7-2.6-18.7-7.8c-5-5.2-7.4-11.3-7.4-18.4c0-4.8,1.2-9.2,3.5-13.2c2.3-4,5.5-7.2,9.5-9.5
				C106,28.4,110.4,27.2,115.1,27.2L115.1,27.2z M115,36.5c-4.6,0-8.5,1.6-11.6,4.8c-3.1,3.2-4.7,7.3-4.7,12.2c0,5.5,2,9.9,5.9,13.1
				c3.1,2.5,6.6,3.8,10.6,3.8c4.5,0,8.3-1.6,11.5-4.9c3.2-3.3,4.8-7.3,4.8-12c0-4.8-1.6-8.8-4.8-12.1
				C123.4,38.2,119.5,36.5,115,36.5z"/>
			<path d="M149.8,78.4V28.5h7.8c4.5,0,7.9,0.3,10,0.9c3,0.8,5.4,2.3,7.1,4.4c1.8,2.1,2.6,4.7,2.6,7.6c0,1.9-0.4,3.6-1.2,5.2
				c-0.8,1.5-2.1,3-3.9,4.4c3,1.4,5.2,3.2,6.6,5.3c1.4,2.1,2.1,4.7,2.1,7.6c0,2.8-0.7,5.4-2.2,7.7c-1.4,2.3-3.3,4-5.6,5.2
				c-2.3,1.1-5.4,1.7-9.5,1.7H149.8z M159.3,37.6v10.5h2.1c2.3,0,4-0.5,5.2-1.5c1.1-1,1.7-2.3,1.7-4c0-1.6-0.5-2.8-1.6-3.7
				c-1.1-0.9-2.7-1.4-4.9-1.4H159.3L159.3,37.6z M159.3,56.5v12.8h2.4c3.9,0,6.6-0.5,8-1.5c1.4-1,2.1-2.4,2.1-4.3
				c0-2.1-0.8-3.8-2.4-5.1s-4.3-1.9-8-1.9L159.3,56.5L159.3,56.5z"/>
			<path d="M213.7,27.2c7.1,0,13.1,2.6,18.2,7.7c5.1,5.1,7.6,11.3,7.6,18.7c0,7.3-2.5,13.4-7.5,18.5c-5,5-11.1,7.6-18.2,7.6
				c-7.5,0-13.7-2.6-18.7-7.8c-5-5.2-7.4-11.3-7.4-18.4c0-4.8,1.2-9.2,3.5-13.2c2.3-4,5.5-7.2,9.5-9.5
				C204.7,28.4,209,27.2,213.7,27.2L213.7,27.2z M213.6,36.5c-4.6,0-8.5,1.6-11.6,4.8c-3.1,3.2-4.7,7.3-4.7,12.2
				c0,5.5,2,9.9,5.9,13.1c3.1,2.5,6.6,3.8,10.6,3.8c4.5,0,8.3-1.6,11.5-4.9c3.2-3.3,4.8-7.3,4.8-12c0-4.8-1.6-8.8-4.8-12.1
				S218.1,36.5,213.6,36.5L213.6,36.5z"/>
		</g>
		<g>
			<path d="M17.2,4.1c-0.1,0.3-0.2,0.6-0.4,0.9c-0.1,0.3-0.1,0.7-0.3,0.9c-0.1,0.3-0.3,0.6-0.4,0.9c-0.2,0.3-0.4,0.5-0.6,0.8
				c-0.2,0.3-0.3,0.6-0.4,0.9C15,8.9,14.6,9,14.4,9.3c-0.2,0.3-0.3,0.6-0.5,0.9c-0.2,0.3-0.2,0.7-0.4,1c-0.2,0.3-0.5,0.4-0.7,0.7
				c-0.3,0.4-0.7,0.5-1.1,0.5c-0.3,0-0.7,0.1-1-0.1c-0.3-0.2-0.5-0.7-0.5-1.1c-0.1-0.4,0.2-0.8,0.4-1.1c0.2-0.2,0.4-0.5,0.6-0.8
				c0.2-0.3,0.2-0.6,0.4-0.9c0.2-0.3,0.5-0.4,0.7-0.7c0.2-0.3,0.3-0.6,0.4-0.9C13,6.4,13,6.1,13.2,5.8c0.2-0.3,0.3-0.6,0.5-0.8
				c0.2-0.3,0.5-0.6,0.6-0.8c-0.4,0-0.7,0-1.1,0c-0.4,0-0.7-0.2-1.1-0.2s-0.7,0-1.1,0S10.3,4,10,4C9.6,4,9.3,4.1,8.9,4.1
				c-0.3,0-0.7-0.2-1-0.2c-0.4,0-0.7,0.4-1,0.4c-0.4,0-0.7-0.1-1-0.1c-0.4,0-0.7,0.1-1,0.1c-0.4,0-0.7-0.1-1.1-0.1
				c-0.4,0-0.7,0.1-1,0.2S2,4.3,1.6,4.3c-0.4,0-0.7-0.1-1-0.3C0.4,3.7,0,3.4,0,3c0-0.4,0.1-0.9,0.4-1.1c0.3-0.3,0.7-0.2,1.1-0.2
				c0.3,0,0.7-0.4,1-0.4c0.3,0,0.7,0.4,1.1,0.3s0.7,0,1.1-0.1c0.4,0,0.7,0,1.1,0c0.4,0,0.7,0,1.1-0.1c0.4,0,0.7-0.3,1.1-0.3
				c0.4,0,0.7,0,1.1,0c0.4,0,0.7,0.2,1.1,0.2s0.7,0,1.1,0s0.7,0.1,1.1,0.1s0.7-0.3,1.1-0.3h1c0.4,0,0.7,0,1.1,0c0.4,0,0.7,0.2,1,0.2
				c0.5,0,0.8,0.2,1.1,0.6c0.2,0.4,0.3,0.8,0.2,1.2C17.5,3.5,17.4,3.8,17.2,4.1z M9.3,8.9C9.2,9.2,9,9.5,9,9.9s-0.1,0.7-0.2,1
				c-0.1,0.3-0.2,0.7-0.2,1s-0.1,0.7-0.2,1c-0.1,0.3-0.2,0.7-0.2,1c-0.1,0.3,0,0.7-0.1,1c-0.1,0.3-0.1,0.7-0.2,1
				c-0.1,0.3-0.3,0.6-0.4,1c-0.1,0.3-0.3,0.4-0.6,0.6c-0.3,0.2-0.4,0.5-0.7,0.5c-0.2,0-0.3-0.1-0.4-0.1c-0.4-0.1-0.5-0.5-0.7-0.8
				c-0.2-0.3-0.4-0.6-0.3-1c0.1-0.3,0.4-0.6,0.5-0.9c0.1-0.3-0.2-0.7-0.1-1c0.1-0.3,0.5-0.6,0.5-0.9c0.1-0.3-0.2-0.7-0.1-1
				c0.1-0.3,0.1-0.6,0.2-0.9c0.1-0.3,0.3-0.6,0.3-0.9c0.1-0.3,0.2-0.6,0.3-1c0.1-0.3,0-0.6,0.1-1c0-0.3,0.2-0.6,0.3-0.9
				c0-0.3-0.1-0.7-0.1-1h0C6.7,6.1,7,5.9,7.3,5.7c0.3-0.2,0.6-0.5,1-0.5C8.7,5.3,9,5.6,9.2,5.8c0.2,0.3,0.4,0.6,0.4,1
				c0,0.3,0.1,0.7,0,1C9.5,8.2,9.3,8.5,9.3,8.9z"/>
			<path d="M33.3,9.4c-0.2,0.1-0.3,0.2-0.5,0.2c-0.3,0-0.4-0.2-0.7-0.4S31.7,9,31.6,8.8c-0.1-0.3-0.5-0.5-0.6-0.8
				c-0.1-0.3-0.3-0.6-0.4-0.9c-0.1-0.3,0.1-0.7,0-1.1c-0.1-0.3-0.5-0.5-0.6-0.9c-0.1-0.3,0-0.7-0.1-1c-0.1-0.3,0-0.7-0.1-1l-0.4,0.1
				c-0.1-0.4,0.2-0.8,0.4-1.1c0.2-0.3,0.5-0.6,0.9-0.7c0.4-0.1,0.9-0.1,1.2,0.1c0.3,0.2,0.3,0.7,0.4,1c0.1,0.4,0.4,0.7,0.5,1
				c0.1,0.4,0.2,0.7,0.3,1c0.1,0.4,0.2,0.7,0.4,1c0.1,0.4,0,0.8,0.1,1.1c0.2,0.4,0.4,0.7,0.6,1c0.2,0.4,0.2,0.8,0.1,1.1
				C33.9,9.1,33.6,9.3,33.3,9.4z M42.7,3.6c-0.1,0.4-0.2,0.7-0.3,1c-0.1,0.3-0.1,0.7-0.2,1c-0.1,0.3-0.2,0.7-0.3,1s-0.1,0.7-0.2,1
				c-0.1,0.3-0.3,0.6-0.5,0.9c-0.1,0.3-0.3,0.6-0.4,1c-0.1,0.3,0,0.7-0.2,1c-0.1,0.3-0.3,0.6-0.4,1c-0.1,0.3-0.4,0.6-0.5,0.9
				c-0.1,0.3-0.2,0.7-0.4,1c-0.1,0.3-0.2,0.7-0.4,1c-0.2,0.3-0.3,0.6-0.5,0.9c-0.2,0.3-0.2,0.7-0.4,1c-0.2,0.3-0.5,0.5-0.7,0.8
				c0,0-0.1,0-0.1,0c-0.1,0.3-0.2,0.5-0.4,0.7c-0.2,0-0.5-0.1-0.7-0.1c-0.2,0-0.4,0.1-0.6-0.1c-0.4-0.2-0.5-0.5-0.6-0.9
				c-0.1-0.4-0.3-0.7-0.2-1.1c0.2-0.3,0.4-0.5,0.6-0.8c0.2-0.3,0.5-0.5,0.6-0.8c0.2-0.3,0.1-0.7,0.3-1c0.1-0.3,0.1-0.7,0.3-1
				c0.1-0.3,0.6-0.5,0.7-0.7c0.1-0.3,0.2-0.6,0.4-0.9c0.1-0.3,0-0.7,0.1-1c0.1-0.3,0.2-0.6,0.4-0.9c0.1-0.3,0.2-0.6,0.4-0.9
				C38.8,7.3,39,7,39.1,6.7c0.1-0.3,0.4-0.6,0.5-0.9c0.1-0.3,0-0.7,0.1-1c0.1-0.3,0.2-0.6,0.3-1c0.1-0.3,0.3-0.6,0.4-0.9
				c0.1-0.4,0.2-0.8,0.5-1c0.3-0.2,0.8-0.1,1.1-0.1c0.4,0.1,0.6,0.4,0.8,0.7c0.2,0.3,0.2,0.6,0.1,1C42.7,3.5,42.7,3.6,42.7,3.6z"/>
			<path d="M57.8,12.7c-0.1,0.4-0.3,0.7-0.3,1c-0.1,0.4,0,0.8-0.1,1.1c-0.1,0.4-0.3,0.7-0.4,1c-0.1,0.3-0.3,0.7-0.4,1
				c-0.1,0.3-0.3,0.4-0.6,0.5c-0.2,0.1-0.4,0.4-0.7,0.4c-0.2,0-0.4-0.2-0.6-0.3c-0.4-0.2-0.7-0.3-0.9-0.7c-0.1-0.3-0.1-0.8,0.1-1.1
				c0.1-0.3,0.1-0.6,0.2-0.9c0.1-0.3,0.4-0.5,0.4-0.8c0-0.3,0.2-0.6,0.2-0.9c0-0.3,0.2-0.6,0.2-0.9c0.1-0.3-0.2-0.7-0.1-0.9
				c0.1-0.4,0.4-0.7,0.7-0.9c0.3-0.2,0.6-0.3,1-0.2c0.4,0.1,0.7,0.1,1,0.4c0.2,0.3,0.2,0.6,0.1,1C57.8,12,57.8,12.3,57.8,12.7z
				 M67.7,7.6c-0.3,0.3-0.6,0.3-1,0.3c-0.5,0-0.5,0-0.9,0s-0.5-0.1-0.9-0.1C64.4,7.8,64.4,8,64,8c-0.4,0-0.5-0.3-0.8,0.1
				c-0.4,0.4-0.3,0.4-0.3,0.9c0,0.5,0.1,0.5,0.1,1c0,0.5,0,0.5,0,1v1c0,0.5,0.1,0.5,0.1,1v1c0,0.5,0.3,0.5,0.3,1
				c0,0.5-0.4,0.5-0.4,1c0,0.5,0.1,0.5,0.1,1c0,0.4,0,0.8-0.2,1.1c-0.3,0.3-0.7,0.3-1.1,0.3c-0.4,0-0.8-0.1-1-0.3s-0.2-0.6-0.2-1
				c0-0.5,0-0.5,0-1c0-0.5-0.3-0.5-0.3-1c0-0.5-0.1-0.5-0.1-1c0-0.5,0.3-0.5,0.3-1s-0.1-0.5-0.1-1s-0.1-0.5-0.1-1
				c0-0.5,0.2-0.5,0.2-1c0-0.5,0-0.5,0-1c0-0.5,0.3-0.8,0-1.1c-0.4-0.4-0.6,0-1.2,0c-0.6,0-0.6,0.1-1.1,0.1s-0.6-0.2-1.1-0.2
				c-0.6,0-0.6,0.1-1.1,0.1c-0.4,0-0.8,0.1-1.1-0.2c-0.3-0.3-0.3-0.7-0.3-1.1s0.1-0.7,0.4-1s0.6-0.4,1-0.4c0.6,0,0.6-0.2,1.1-0.2
				c0.6,0,0.6,0.3,1.1,0.3s0.6-0.1,1.1-0.1c0.6,0,0.8,0.4,1.2,0c0.4-0.4,0-0.6,0-1.2s0.2-0.6,0.2-1.2c0-0.6-0.4-0.6-0.4-1.1
				c0-0.4,0.4-0.6,0.7-0.9c0.3-0.3,0.5-0.5,0.9-0.5c0.4,0,0.8,0,1.1,0.3c0.3,0.3,0.3,0.7,0.3,1.1c0,0.6,0.1,0.6,0.1,1.1
				c0,0.6,0,0.6,0,1.2s-0.2,0.6,0.1,1.1c0.3,0.4,0.3,0,0.8,0c0.5,0,0.5,0.2,0.9,0.2c0.5,0,0.5-0.2,0.9-0.2s0.5,0,0.9,0
				c0.4,0,0.7,0.3,1,0.6c0.3,0.3,0.4,0.6,0.4,1S68,7.4,67.7,7.6z M69.7,17c-0.1,0.3-0.5,0.7-0.8,0.9c-0.2,0.1-0.4,0-0.6,0
				c-0.3,0-0.5-0.2-0.7-0.3c-0.2-0.2-0.5-0.3-0.6-0.5c-0.1-0.3-0.4-0.6-0.5-1c-0.1-0.3-0.2-0.7-0.3-1.1c-0.1-0.4,0-0.8-0.1-1.1
				c-0.1-0.4-0.4-0.6-0.5-1c-0.1-0.4,0.1-0.8,0-1.1c0,0-0.3,0.2-0.3,0.2c-0.1-0.4,0.1-0.9,0.3-1.2c0.2-0.3,0.4-0.7,0.8-0.8
				s0.8,0.2,1.1,0.4c0.3,0.2,0.5,0.5,0.6,0.8c0.1,0.3,0.4,0.6,0.5,0.9c0.1,0.3,0.2,0.7,0.3,1c0.1,0.4,0.1,0.7,0.2,1
				c0.1,0.4,0.1,0.7,0.2,1c0.1,0.4,0.5,0.6,0.6,0.9C69.9,16.2,69.8,16.7,69.7,17z M70.9,6.4c0,0.3,0.1,0.6,0,0.9
				c0,0.3-0.2,0.4-0.4,0.6c-0.2,0.2-0.3,0.4-0.6,0.4c0,0-0.1,0.1-0.1,0.1c-0.3,0-0.5-0.4-0.6-0.6c-0.2-0.2-0.5-0.4-0.5-0.7
				c0-0.4,0.2-0.7,0.2-1.1c0-0.4,0.1-0.8,0.1-1.2S68.9,4,68.9,3.6h-0.2c0-0.3,0.4-0.5,0.6-0.7c0.2-0.2,0.4-0.4,0.7-0.4
				c0.3,0,0.6,0.1,0.8,0.3c0.2,0.2,0.4,0.5,0.4,0.8c0,0.3-0.1,0.6-0.1,0.9c0,0.3,0.2,0.6,0.2,0.9C71.3,5.8,70.9,6.1,70.9,6.4
				L70.9,6.4z M74.3,6.4c0,0.3,0,0.6,0,0.9c0,0.3-0.1,0.7-0.3,0.9c-0.2,0.2-0.6,0-0.9,0c0,0-0.1,0.3-0.1,0.3c-0.3,0-0.7-0.2-0.9-0.4
				C72,7.8,72,7.4,72,7.1C72,6.8,72,6.4,72,6c0-0.4,0.3-0.8,0.3-1.2V3.6c0-0.3-0.1-0.7,0.1-0.9s0.6-0.2,0.9-0.2c0.3,0,0.6,0,0.9,0.2
				c0.2,0.2,0.4,0.5,0.4,0.8c0,0.3-0.3,0.6-0.3,0.9c0,0.3,0.3,0.6,0.3,0.9C74.5,5.8,74.3,6.1,74.3,6.4z"/>
		</g>
		<g>
			<path d="M5.8,100.5c-1.2,1.8-2.7,3.3-4.6,4.6l-0.4-0.4c2.2-1.8,3.8-3.9,4.8-6.2h-4l-0.2-0.6h4.4v-2.6c1.4,0.1,2.1,0.2,2.1,0.5
				c0,0.2-0.3,0.3-0.9,0.5v1.6h2.3l0.9-1.3c0.5,0.5,0.9,1,1.2,1.4l-0.2,0.4H7.1v0.9c2.5,0.9,3.7,1.9,3.7,2.9c0,0.5-0.2,0.8-0.7,0.8
				c-0.2,0-0.4-0.2-0.7-0.6c-0.6-0.9-1.4-1.7-2.4-2.5v6.5H5.8C5.8,106.5,5.8,100.5,5.8,100.5z M7,94.3c0.6-1.3,1-2.7,1.3-4
				c1.3,0.4,1.9,0.8,1.9,1.1c0,0.2-0.3,0.3-0.9,0.3c-0.3,0.7-0.9,1.6-1.6,2.6h2.2l0.9-1.3c0.4,0.5,0.8,0.9,1.1,1.4l-0.2,0.4H1.3
				l-0.2-0.6C1.1,94.3,7,94.3,7,94.3z M5.8,86.4c1.4,0.1,2.1,0.3,2.1,0.6c0,0.2-0.3,0.4-0.9,0.6v1.9h2.3l0.9-1.3
				c0.4,0.4,0.8,0.9,1.1,1.3l0.2,0.2l-0.3,0.4H1.9l-0.3-0.6h4.2V86.4z M3.1,90.3c1.5,0.9,2.3,1.9,2.3,2.9c0,0.6-0.3,0.8-0.8,0.9
				c-0.4,0-0.6-0.3-0.6-0.8c-0.1-0.8-0.5-1.7-1.3-2.6L3.1,90.3z M13.8,95.4c0,2.4-0.2,4.4-0.7,6c-0.5,2-1.5,3.7-2.9,5.1l-0.4-0.4
				c1.2-1.7,2-3.7,2.4-5.9c0.2-1.5,0.4-3.4,0.4-5.4v-6.4c0.6,0.2,1.1,0.4,1.5,0.6c1.8-0.5,3.2-1.3,4.5-2.2c1,0.6,1.5,1.1,1.5,1.4
				c0,0.2-0.1,0.2-0.4,0.2c-0.2,0-0.4,0-0.6-0.1c-1.5,0.6-3.2,1-5.1,1.4v4.8h5.1l1.1-1.5c0.6,0.5,1,1,1.4,1.5L21.1,95h-3v11.2h-1.3
				V95h-3L13.8,95.4L13.8,95.4z"/>
			<path d="M35.1,93.7c0,1.8-0.6,3.2-1.9,4.2c1.1,0.1,1.7,0.3,1.7,0.6c0,0.2-0.3,0.3-0.8,0.5v0.9h6.8l1.1-1.2c0.5,0.3,1,0.8,1.5,1.3
				l-0.2,0.4h-8.7l0.1,0.1c2.4,1.7,5.4,3,9.1,3.7c-0.5,0.4-0.8,0.9-1,1.4c-3.7-1.2-6.5-2.8-8.6-4.9v5.8h-1.3v-5
				c-2.4,2.1-5.5,3.6-9.2,4.5l-0.3-0.5c3.7-1.2,6.7-2.9,8.8-5.1h-8.4l-0.2-0.6h9.3v-1.7c-0.6,0.4-1.4,0.8-2.3,1.1l-0.2-0.5
				c2.4-1.1,3.5-2.8,3.5-5v-2.1c0.3,0.1,0.7,0.3,1.3,0.6h3.7l0.6-0.7c0.8,0.6,1.2,0.9,1.2,1.1c0,0.1,0,0.1-0.2,0.2L40,93.1v3.5
				c0,0.4,0.3,0.6,0.8,0.6c0.5,0,0.8-0.2,0.9-0.5c0.2-0.5,0.3-1.3,0.3-2.3l0.6,0.2c0,0.2,0,0.4,0,0.6c0,1.2,0.3,1.9,0.8,1.8
				c0,0.5-0.2,0.9-0.6,1c-0.3,0.1-0.9,0.2-1.7,0.2c-0.9,0-1.5-0.1-1.8-0.2c-0.4-0.1-0.6-0.5-0.6-1v-4.3h-3.7
				C35.1,92.8,35.1,93.7,35.1,93.7z M31.4,88.6l1-1.3c0.5,0.4,0.9,0.9,1.3,1.4l-0.3,0.4h-4.7c1.1,0.7,1.7,1.3,1.7,2
				c0,0.5-0.2,0.8-0.8,0.8c-0.4,0-0.6-0.2-0.7-0.7c-0.1-0.8-0.5-1.5-1.1-2.1h-0.5c-0.9,1.5-2,2.8-3.5,3.9l-0.4-0.4
				c1.6-1.7,2.9-3.8,3.7-6.5c1.3,0.2,2,0.5,2,0.8c0,0.2-0.3,0.3-1,0.4c-0.2,0.5-0.4,0.9-0.5,1.2C27.6,88.6,31.4,88.6,31.4,88.6z
				 M29,96.6c1.2-0.2,2.5-0.4,3.7-0.7l0.1,0.6c-2.5,0.9-4.9,1.5-7.3,2c-0.1,0.5-0.2,0.8-0.4,0.8c-0.3,0-0.6-0.6-0.9-2
				c0.9-0.1,2.1-0.2,3.7-0.4v-3.4h-2.9l-0.2-0.6h5.8l0.9-1.1c0.5,0.5,0.9,0.9,1.3,1.3l-0.2,0.4H29L29,96.6L29,96.6z M41,88.6
				l1.1-1.4c0.5,0.4,1,0.9,1.4,1.5l-0.2,0.4h-6.3c1.3,0.6,1.9,1.3,1.9,1.9c0,0.5-0.2,0.8-0.7,0.8c-0.4,0-0.6-0.2-0.7-0.5
				c-0.2-0.8-0.6-1.5-1.4-2.2h-0.4c-0.7,1.1-1.7,2-2.8,2.7l-0.4-0.3c1.5-1.6,2.5-3.3,3.1-5.3c1.2,0.2,1.9,0.4,1.9,0.7
				c0,0.2-0.3,0.3-0.9,0.4c-0.2,0.5-0.4,0.9-0.6,1.2C36,88.6,41,88.6,41,88.6z M35.9,93.5c1.2,0.9,1.8,1.8,1.8,2.7
				c0,0.6-0.2,0.8-0.8,0.8c-0.4,0-0.6-0.3-0.6-0.9c0-0.9-0.3-1.7-0.9-2.4C35.5,93.7,35.9,93.5,35.9,93.5z"/>
			<path d="M46.3,97c3.1-2.6,5.3-5.9,6.7-10c1.3,0.5,2,0.9,2,1.1c0,0.2-0.3,0.4-0.9,0.5c-1.1,2.4-2.3,4.2-3.6,5.6
				c-1,1.1-2.3,2.2-3.8,3.2C46.7,97.4,46.3,97,46.3,97z M50,95.8l-0.2-0.6h10.3l0.9-1c0.9,0.7,1.3,1.1,1.3,1.3
				c0,0.1-0.1,0.2-0.2,0.3l-0.5,0.4c0,4.4-0.4,7.3-1.1,8.6c-0.5,0.9-1.4,1.3-2.6,1.3c0-0.4-0.3-0.8-0.9-1c-0.4-0.2-1.2-0.4-2.4-0.5
				v-0.6c1.5,0.2,2.7,0.3,3.5,0.3c0.8,0,1.3-0.5,1.5-1.4c0.4-1.5,0.6-3.9,0.6-7.1h-5.3c-0.2,2.7-0.9,4.9-1.9,6.5
				c-1.1,1.8-3,3.2-5.4,4.2l-0.3-0.5c2.6-1.4,4.4-3.3,5.3-5.7c0.5-1.3,0.8-2.8,0.9-4.4H50z M58.3,87c2.1,3.6,4.6,6.3,7.6,8.1
				c-0.4,0.3-0.8,0.8-1.2,1.4c-2.2-1.7-4-3.7-5.3-6c-0.5-0.9-1.1-1.9-1.6-3.1C57.7,87.3,58.3,87,58.3,87z"/>
			<path d="M74.4,89.8c0.5,0.4,1,0.9,1.4,1.3l-0.2,0.4h-7.1L68.3,91h5.2C73.4,91,74.4,89.8,74.4,89.8z M73.6,92.6
				c0.4,0.3,0.9,0.8,1.3,1.3l-0.2,0.4h-5.4l-0.2-0.6h3.7L73.6,92.6z M73.6,95.5c0.4,0.3,0.9,0.7,1.3,1.3l-0.3,0.4h-5.4l-0.2-0.6h3.7
				C72.8,96.6,73.6,95.5,73.6,95.5z M73.1,99.4l0.7-0.9c0.9,0.7,1.3,1.1,1.3,1.4c0,0.1,0,0.1-0.2,0.2l-0.5,0.3v6.1h-1.2v-1.4h-3v1.4
				h-1.3v-7.8c0.2,0.1,0.6,0.3,1.4,0.7C70.5,99.4,73.1,99.4,73.1,99.4z M73.7,87c0.4,0.4,0.9,0.8,1.4,1.3l-0.2,0.4h-5.4l-0.2-0.6
				h3.6C72.8,88.1,73.7,87,73.7,87z M70.3,104.5h3V100h-3V104.5z M82.2,99.2c-0.5,0.5-1.2,1.1-1.9,1.7v3.5c1-0.2,2.2-0.4,3.4-0.8
				l0.1,0.5c-2.2,0.8-4.1,1.5-6,1.8c-0.1,0.5-0.2,0.7-0.4,0.7c-0.3,0-0.6-0.6-0.9-1.8c0.9-0.1,1.7-0.2,2.4-0.3v-2.9
				c-1.1,0.6-2.5,1.2-4.1,1.6l-0.3-0.5c2.4-0.8,4.3-2,5.8-3.5h-5.2l-0.2-0.6h3.6v-1.8h-2.4l-0.2-0.6h2.6v-1.6H76l-0.2-0.6h3V92
				c1.4,0.1,2.1,0.3,2.1,0.6c0,0.2-0.3,0.4-0.9,0.5v1h3.3v-2.2c1.3,0.1,2,0.3,2,0.6c0,0.2-0.3,0.3-0.8,0.5v1.1H86l0.9-1
				c0.4,0.4,0.7,0.7,1.1,1.2l-0.3,0.4h-3.2v1.6h1.2l0.9-1c0.3,0.2,0.6,0.6,1.1,1.1l-0.2,0.4h-2.9v1.8h2l0.8-1.1
				c0.5,0.4,0.8,0.8,1.1,1.2l-0.2,0.4h-5.3c0.4,1,0.9,1.9,1.6,2.8c0.8-0.7,1.5-1.5,2.2-2.5c1,0.6,1.4,1.1,1.4,1.3
				c0,0.2-0.2,0.2-0.5,0.2l-0.5,0c-0.5,0.4-1.3,0.9-2.3,1.4c0.9,1,2.3,1.9,4,2.7c-0.4,0.4-0.8,0.8-1.1,1.2
				C85,104.7,83.1,102.3,82.2,99.2L82.2,99.2L82.2,99.2z M75.5,92.4c1.7-0.7,3-1.7,4-2.8c1.1,0.4,1.6,0.8,1.6,1
				c0,0.2-0.3,0.3-0.9,0.3c-1.3,0.8-2.7,1.5-4.3,1.9C75.8,92.8,75.5,92.4,75.5,92.4z M81.1,86.4c1.4,0,2.1,0.2,2.1,0.5
				c0,0.2-0.3,0.3-0.8,0.5v1.4H86l1-1.3c0.5,0.4,0.9,0.9,1.3,1.4l-0.2,0.4H76l-0.3-0.6h5.3V86.4z M80,96.3h3.3v-1.6H80V96.3z
				 M80,98.6h3.3v-1.8H80V98.6z M83.3,89.7c1.6,0.3,2.9,0.7,3.7,1.2c0.6,0.4,0.9,0.7,0.9,1.1c0,0.4-0.2,0.6-0.7,0.6
				c-0.2,0-0.4-0.1-0.6-0.3c-0.9-0.9-2.2-1.6-3.7-2.2C83.1,90.2,83.3,89.7,83.3,89.7z"/>
			<path d="M95.9,93.5c0,0.2-0.3,0.4-0.9,0.6v12.4h-1.3V95c-0.9,1.5-1.9,3-2.9,4.2l-0.4-0.4c2.4-3.4,4.1-7.6,5.3-12.5
				c1.4,0.4,2.2,0.7,2.2,1.1c0,0.2-0.3,0.4-1,0.5c-0.5,1.8-1.2,3.5-2,5C95.5,93.1,95.9,93.3,95.9,93.5z M103.8,104.8h4.4l1.1-1.6
				c0.5,0.5,1,1.1,1.5,1.7l-0.3,0.4H96.4l-0.3-0.6h6.3v-6.4h-4.9l-0.2-0.6h5.1v-5.4H97l-0.3-0.6h11l1.1-1.5c0.6,0.6,1.1,1.1,1.5,1.6
				l-0.2,0.4h-6.1v5.4h3.1l1.1-1.5c0.5,0.5,1,1,1.4,1.6l-0.2,0.4h-5.4L103.8,104.8L103.8,104.8z M100.5,86.5
				c2.5,1.2,3.7,2.4,3.7,3.6c0,0.6-0.3,0.9-0.8,0.9c-0.4,0-0.6-0.3-0.8-0.9c-0.4-1.1-1.2-2.2-2.4-3.2L100.5,86.5z"/>
			<path d="M122.5,86.5c1.5,0,2.3,0.2,2.3,0.5c0,0.2-0.3,0.4-1,0.6v2.4h6.8l0.9-1.2c1.1,1.1,1.7,1.7,1.7,2.1c0,0.2-0.1,0.2-0.3,0.3
				l-0.7,0.1c-0.6,0.8-1.3,1.5-2.1,2.3l-0.4-0.3c0.4-0.8,0.8-1.7,1.1-2.7h-14.7V91c0,1.1-0.2,1.9-0.6,2.6c-0.3,0.6-0.7,0.9-1.1,0.9
				c-0.2,0-0.4-0.1-0.6-0.3c-0.2-0.2-0.3-0.3-0.3-0.5c0-0.2,0.1-0.5,0.4-0.8c0.8-0.9,1.3-2.1,1.4-3.9l0.6,0.1
				c0.1,0.4,0.1,0.6,0.1,0.9h6.5C122.5,90.1,122.5,86.5,122.5,86.5z M121.5,95c-2.2,0.5-4.4,1-6.5,1.3l-0.3-0.6c5-1,9.1-2.3,12.2-4
				c1.1,0.6,1.7,1.1,1.7,1.4c0,0.1-0.2,0.2-0.5,0.2c-0.2,0-0.5,0-0.8-0.1c-1.5,0.6-3,1-4.5,1.4v4.2l7.1-1l1.1-1.7
				c0.6,0.4,1.3,0.9,2,1.5l-0.2,0.5l-9.9,1.3v4.4c0,0.4,0.1,0.6,0.4,0.7c0.3,0.1,1.4,0.2,3.4,0.2c1.9,0,3.1-0.1,3.5-0.2
				c0.5-0.2,0.9-1.4,1.2-3.6l0.6,0.3c0,0.3,0,0.6,0,1c0,1,0.1,1.7,0.2,1.9c0.1,0.2,0.3,0.3,0.7,0.3c-0.1,0.8-0.4,1.2-1.2,1.3
				c-0.8,0.1-2.3,0.2-4.6,0.2c-2.8,0-4.5-0.1-4.9-0.4c-0.4-0.2-0.6-0.7-0.6-1.4v-4.5l-7.6,1l-0.3-0.6l7.9-1.1L121.5,95L121.5,95z"/>
			<path d="M155.7,87l-19.4,19.4l-0.7-0.7L155,86.4L155.7,87z"/>
			<path d="M178.2,94.3c-0.4,0.3-0.7,0.8-1,1.4c-3.8-1.9-6.9-4.3-9.1-7.4c-0.9,1.3-1.7,2.3-2.4,3c-1.9,2.1-4.3,3.8-7.3,5.1l-0.3-0.5
				c2.9-1.6,5.3-3.6,7.1-6c0.7-1,1.5-2.2,2.3-3.6c1.3,0.3,1.9,0.6,1.9,0.9c0,0.2-0.3,0.3-0.9,0.4C171.3,90.8,174.5,93,178.2,94.3
				L178.2,94.3z M168.6,104.8h5.6l1.2-1.6c0.6,0.5,1.1,1,1.7,1.7l-0.2,0.4h-17.5l-0.2-0.6h8.2v-4.5h-5.4l-0.3-0.6h5.7v-4.1h-5.5
				l-0.2-0.6h10.2l1.1-1.1c0.5,0.3,1.1,0.7,1.6,1.2l-0.3,0.4h-5.6v4.1h3.2l1.1-1.3c0.4,0.3,0.9,0.8,1.5,1.5l-0.2,0.4h-5.6
				L168.6,104.8L168.6,104.8z"/>
			<path d="M185.4,102.6c1.2-1.5,2.7-3.3,4.6-5.2c2.3-2.4,3.4-4.3,3.4-5.8c0-0.9-0.3-1.7-0.8-2.3c-0.6-0.6-1.3-0.9-2.2-0.9
				c-1,0-1.8,0.3-2.5,0.9c-0.3,0.3-0.5,0.8-0.7,1.2c0.5,0.2,0.8,0.6,0.8,1.1c0,0.8-0.4,1.2-1.2,1.2c-0.8,0-1.2-0.4-1.2-1.3
				s0.3-1.7,1-2.4c1-1,2.2-1.5,3.8-1.5c0.9,0,1.8,0.2,2.6,0.6c1.4,0.7,2.1,1.9,2.1,3.5c0,1-0.4,2.1-1.2,3.1
				c-0.5,0.6-1.4,1.6-2.8,2.9c-2,1.9-3.5,3.4-4.3,4.6h5.4c1.1,0,1.9-0.3,2.3-1c0.2-0.4,0.4-1.1,0.5-2h0.5v4.3h-10.1L185.4,102.6
				L185.4,102.6z"/>
			<path d="M207.5,88.1v10.5h3.2v1.1h-3.2v1.8c0,0.8,0.2,1.3,0.6,1.5c0.3,0.2,0.8,0.3,1.5,0.3v0.5h-5.7v-0.5c1,0,1.6-0.2,1.9-0.5
				c0.2-0.2,0.3-0.6,0.3-1.2v-1.8h-7.6v-0.9l8-10.6H207.5z M199.5,98.6h6.4v-8.5L199.5,98.6z"/>
			<path d="M220.2,95.9c-0.7,2.1-1.6,4.2-2.8,6.2l-0.5-0.4c1.5-2.8,2.6-6.1,3.2-9.7h-2.9l-0.2-0.6h3.1v-5c1.5,0.1,2.3,0.3,2.3,0.6
				c0,0.2-0.3,0.4-1,0.6v3.7h1.3l0.9-1.3c0.5,0.5,0.9,0.9,1.3,1.5l-0.2,0.4h-3.3v2.5c0.9,0.6,1.6,1.3,2.1,2c0.4,0.6,0.7,1.2,0.7,1.7
				c0,0.5-0.2,0.8-0.8,0.8c-0.3,0-0.5-0.2-0.5-0.5c-0.2-1-0.7-2.1-1.5-3.2v11.4h-1.3V95.9L220.2,95.9z M234.2,92.5l0.9-1
				c0.9,0.7,1.3,1.1,1.3,1.3c0,0.1-0.1,0.2-0.2,0.2l-0.5,0.3v6.2h-1.3v-0.9h-3.2c0,0.1,0.1,0.1,0.1,0.2c1.6,2,3.7,3.7,6.4,4.9
				c-0.4,0.4-0.8,0.8-1,1.3c-2.4-1.5-4.2-3.3-5.6-5.6v7h-1.3v-6.1c-1.7,2.1-3.9,3.9-6.5,5.4l-0.4-0.5c2.8-1.8,5-4,6.6-6.6h-2.8v1.1
				h-1.3v-8.2c0.5,0.3,1,0.5,1.5,0.8h2.9v-2.4h-5.4l-0.2-0.6h5.6v-3.1c1.4,0,2.2,0.2,2.2,0.5c0,0.2-0.3,0.4-0.9,0.6v1.9h3.8l1.1-1.4
				c0.6,0.6,1.1,1.1,1.4,1.5l-0.2,0.5h-6.1v2.4L234.2,92.5L234.2,92.5z M226.7,93v2.2h3.1V93H226.7z M226.7,95.8v2.4h3.1v-2.4H226.7
				z M231.1,95.2h3.3V93h-3.3V95.2z M231.1,98.2h3.3v-2.4h-3.3V98.2z"/>
		</g>
		<g>
			<path d="M100.1,6.1c0.3,3.8,1.1,6.8,2.5,9c0.7,1.1,1.2,1.7,1.5,1.7c0.4,0,0.7-1.4,1-4.1l0.6,0.3c-0.1,1.5-0.2,2.6-0.2,3.3
				c0,1.1,0.2,1.7,0.7,1.9c-0.1,0.7-0.4,1-0.9,1c-0.9,0-1.8-0.7-3-2.2c-1.8-2.3-3-5.9-3.5-10.7H87.5l-0.2-0.5h11.6
				c-0.1-1.2-0.2-3.1-0.2-5.6c1.4,0.1,2.1,0.2,2.1,0.6c0,0.1-0.3,0.3-0.8,0.5c0,2.1,0.1,3.5,0.2,4.5h3.7l1-1.3l0.6,0.6
				c0.3,0.3,0.6,0.6,0.8,0.9l-0.2,0.4C105.8,6.1,100.1,6.1,100.1,6.1z M94.8,15.9c1.4-0.3,3-0.6,4.8-1v0.7l-1.1,0.3
				c-3.5,1-6.6,1.8-9.5,2.3c-0.1,0.6-0.2,0.8-0.4,0.8c-0.3,0-0.6-0.7-1-2l2.4-0.3V8.9c1.4,0.1,2.1,0.3,2.1,0.6
				c0,0.2-0.3,0.3-0.8,0.5v6.5c1.2-0.2,2-0.3,2.5-0.4V7c1.3,0.1,2,0.3,2,0.6c0,0.2-0.3,0.3-0.8,0.5v2.9h1.8l1-1.5
				c0.5,0.5,0.8,0.9,1.1,1.4l0.1,0.2l-0.2,0.4h-3.8C94.8,11.5,94.8,15.9,94.8,15.9z M96,1c0.5,0.5,0.9,1,1.3,1.5l-0.3,0.4h-7.8
				l-0.2-0.5H95C95,2.4,96,1,96,1z M101.4,1c1.8,0.6,2.7,1.4,2.7,2.3c0,0.5-0.3,0.8-0.7,0.8c-0.3,0-0.6-0.2-0.7-0.6
				c-0.3-0.9-0.8-1.6-1.6-2.2C101.1,1.4,101.4,1,101.4,1z"/>
			<path d="M125,7.8c1.1,0.6,1.6,1,1.6,1.2c0,0.1-0.3,0.3-0.8,0.3c-0.6,1.7-1.3,3.3-2.1,4.7c0.6,1,1.1,1.9,1.8,2.6
				c0.2,0.2,0.3,0.3,0.4,0.3c0.3,0,0.6-1.2,0.9-3.6l0.5,0.3c-0.1,1.4-0.2,2.3-0.2,2.9c0,0.9,0.2,1.4,0.6,1.6
				c-0.1,0.6-0.4,0.9-0.9,0.9c-0.5,0-1.2-0.4-1.9-1.2c-0.8-0.8-1.4-1.7-1.9-2.6c-1.4,1.8-3.1,3.1-5.1,4.1l-0.3-0.4
				c1-0.6,1.8-1.2,2.5-1.8h-6v1.4h-1.2V7.6c0.6,0.2,1,0.4,1.5,0.7h4.3l0.9-1.1c0.4,0.4,0.9,0.8,1.3,1.3l-0.2,0.4h-3.3v2.1h1.1
				l0.7-0.8c0.7,0.6,1.1,0.9,1.1,1.1c0,0.1,0,0.2-0.1,0.2l-0.4,0.3v3h-1.1v-0.7h-1.3v2.4h1.6l0.9-1.1c0.5,0.4,0.8,0.8,1,1
				c0.7-0.7,1.3-1.5,1.8-2.2c-0.9-2.2-1.5-4.8-1.7-7.7h-9.3v3c0,2.1-0.2,3.8-0.5,5.2c-0.4,1.7-1.2,3.3-2.3,4.6l-0.4-0.3
				c1.4-2.2,2.1-5.4,2.1-9.5V5c0.6,0.3,1.1,0.5,1.5,0.8h8.9c0-0.1,0-0.1,0-0.1c0-0.1,0-0.4,0-0.7c0-0.3,0-0.5,0-0.7h-0.6V2.8h-4.4V5
				h-1.2V2.8H109l-0.2-0.5h5.7V0c1.4,0,2.1,0.2,2.1,0.5c0,0.2-0.3,0.3-0.9,0.5v1.2h4.4V0c1.3,0,2,0.2,2,0.5c0,0.2-0.3,0.4-0.8,0.6
				v1.1h3.8l1-1.3c0.4,0.4,0.9,0.8,1.3,1.4l-0.2,0.4h-6v0.8c0.9,0.1,1.3,0.3,1.3,0.5c0,0.1-0.2,0.3-0.6,0.4c0,0.6,0,1,0,1.2h3.5
				l0.9-1.3l0.3,0.3c0.3,0.3,0.6,0.7,0.9,1.1l-0.3,0.4H122c0.1,2.4,0.5,4.6,1.2,6.6C123.9,11.5,124.5,9.9,125,7.8L125,7.8z
				 M116.1,10.9V8.8h-2v2.1H116.1z M118.5,11.5h-4.4v1.9h4.4C118.5,13.4,118.5,11.5,118.5,11.5z M116.1,13.9h-2v2.4h2
				C116.1,16.4,116.1,13.9,116.1,13.9z M123,3.1c1.5,0.3,2.2,0.8,2.2,1.5c0,0.5-0.2,0.7-0.7,0.7c-0.3,0-0.5-0.1-0.6-0.5
				c-0.1-0.5-0.5-1-1.2-1.4C122.8,3.5,123,3.1,123,3.1z"/>
			<path d="M130.2,5.8L130,5.2h3.2V0.1c0.1,0,0.3,0,0.4,0c1.1,0,1.6,0.1,1.6,0.4c0,0.2-0.3,0.4-0.9,0.7v4h1.2l1-1.4
				c0.4,0.5,0.9,1,1.2,1.4l-0.1,0.5h-3.2v2.2c1.2,0.7,2.1,1.4,2.6,2.1c0.4,0.5,0.6,1.1,0.6,1.6s-0.3,0.8-0.8,0.8
				c-0.3,0-0.5-0.3-0.7-0.8c-0.2-0.8-0.9-1.8-1.8-3v10.6h-1.2v-10c-0.8,2.3-1.9,4.4-3.2,6.3l-0.5-0.4c1.7-2.8,2.8-5.9,3.5-9.3
				L130.2,5.8L130.2,5.8z M138.5,5.8l-0.2-0.5h5.8V0.3c1.4,0,2.2,0.2,2.1,0.6c0,0.2-0.3,0.4-0.9,0.6v3.7h1l1-1.6
				c0.5,0.6,1,1.1,1.3,1.7l-0.2,0.4h-3.2v11.4c0,1.2-0.7,1.8-2.2,1.8c0-0.5-0.3-0.8-0.9-1c-0.4-0.1-1.1-0.3-2.3-0.5V17
				c1.3,0.1,2.4,0.2,3.3,0.2c0.6,0,0.9-0.2,0.9-0.6V5.8H138.5L138.5,5.8z M140.6,12.2c-0.2-1.3-1-2.7-2.2-4.1l0.4-0.4
				c1.3,1,2.3,2,2.9,3.1c0.3,0.5,0.4,1,0.4,1.4c0,0.6-0.3,0.9-0.8,0.9C141,13.2,140.7,12.8,140.6,12.2L140.6,12.2z"/>
			<path d="M160.1,16.3V0.9c1.4,0,2.2,0.2,2.2,0.5c0,0.2-0.3,0.4-0.9,0.6v14.3h5.8V4.6c1.4,0.1,2.1,0.3,2.1,0.6
				c0,0.2-0.3,0.4-0.9,0.6v13h-1.3v-1.9h-12.8V19h-1.2V4.7c1.4,0.1,2.1,0.2,2.1,0.6c0,0.2-0.3,0.4-0.9,0.6v10.4H160.1L160.1,16.3z"
				/>
			<path d="M181.3,0.2c1.5,0.1,2.2,0.2,2.2,0.6c0,0.2-0.3,0.4-1,0.6v2.5h6.3l1.2-1.5c0.5,0.4,1,1,1.6,1.6l-0.2,0.4h-10
				c1.3,0.2,1.9,0.5,1.9,0.7c0,0.1-0.2,0.3-0.7,0.4v2.3h5l0.8-1c0.9,0.7,1.3,1.1,1.3,1.3c0,0.1-0.1,0.2-0.2,0.3L189,8.9V15
				c0,1.1-0.7,1.7-2.1,1.7c0-0.4-0.2-0.6-0.6-0.8c-0.4-0.2-1.1-0.3-2.1-0.5v-0.6c1,0.1,1.9,0.2,2.9,0.2c0.5,0,0.8-0.2,0.8-0.7V8.5
				h-5.2v10.8h-1.3V8.5h-4.9v8.4h-1.2V7.2l1.2,0.6l0.2,0.1h4.7V4.5h-8.3l-0.3-0.5h8.6L181.3,0.2L181.3,0.2z"/>
			<path d="M198.1,9c1,0.4,1.9,1,2.6,1.6c0.6,0.5,0.9,1,0.9,1.5c0,0.5-0.2,0.7-0.7,0.7c-0.2,0-0.5-0.2-0.7-0.6
				c-0.4-0.9-1.2-1.7-2.2-2.4v9.5h-1.2v-9c-0.9,1-1.9,1.9-3.1,2.9l-0.4-0.4c2.6-2.5,4.5-5.1,5.8-8.1H194l-0.2-0.5h3.1v-4
				c1.4,0.1,2.1,0.2,2.1,0.5c0,0.2-0.3,0.4-0.9,0.6v2.9h1.2l0.8-1c0.9,0.7,1.3,1.2,1.3,1.4c0,0.1-0.1,0.2-0.2,0.2L200.6,5
				c-0.9,1.5-1.7,2.7-2.5,3.8L198.1,9L198.1,9z M206.3,4.1v-4c1.4,0.1,2.1,0.2,2.1,0.5c0,0.1-0.3,0.4-0.9,0.6v2.9h3l0.8-1
				c0.9,0.7,1.3,1.1,1.3,1.3c0,0.1-0.1,0.2-0.2,0.3l-0.5,0.4v9.3h-1.2v-1.3h-3.2v6.2h-1.3v-6.2h-2.8v1.5h-1.2V3.4
				c0.6,0.3,1,0.5,1.4,0.7H206.3L206.3,4.1z M203.5,8.2h2.8V4.6h-2.8V8.2z M203.5,8.7v3.8h2.8V8.7H203.5z M210.7,4.6h-3.2v3.6h3.2
				C210.7,8.2,210.7,4.6,210.7,4.6z M210.7,8.7h-3.2v3.8h3.2V8.7z"/>
			<path d="M221.3,2.2l0.8-1c0.8,0.6,1.2,1,1.2,1.2c0,0.1-0.1,0.2-0.2,0.3l-0.4,0.3v12.1h-1.2v-1.4h-4V16h-1.2V1.5
				c0.2,0.1,0.3,0.2,0.5,0.2l0.4,0.2c0.2,0.1,0.4,0.2,0.6,0.3H221.3L221.3,2.2z M221.5,2.8h-4v4.8h4V2.8z M217.5,8.1v5h4v-5H217.5z
				 M231.6,1.7l0.9-1c0.9,0.7,1.3,1.1,1.3,1.3c0,0.1-0.1,0.2-0.2,0.3L233,2.6v14.6c0,1.2-0.7,1.8-2.2,1.8c0-0.4-0.3-0.7-0.8-0.9
				c-0.4-0.1-1.2-0.3-2.3-0.4v-0.6c1.2,0.1,2.3,0.2,3.4,0.2c0.4,0,0.7-0.2,0.7-0.7v-4.9h-5.4c-0.1,1.6-0.5,3-1.1,4.1
				c-0.7,1.4-1.9,2.5-3.6,3.5l-0.4-0.4c1.8-1.3,2.9-2.9,3.4-4.9c0.3-1.2,0.5-2.6,0.5-4.2V1c0.4,0.2,0.9,0.4,1.5,0.7L231.6,1.7
				L231.6,1.7z M231.8,6.8h-5.3v3c0,0.3,0,0.8,0,1.4h5.3L231.8,6.8L231.8,6.8z M226.5,6.2h5.3v-4h-5.3
				C226.5,2.2,226.5,6.2,226.5,6.2z"/>
		</g>
		<g>
			<path class="st0" d="M432.8,24L428,24c-0.2,0-0.3,0-0.4-0.1c0,0-0.1-0.2-0.1-0.3v-3.1c0-0.2,0-0.3,0.1-0.3c0,0,0.1-0.1,0.3-0.1
				l4.8,0.1h8.4c0.1-1.7,0.1-3,0.1-4c0-0.3,0-0.6,0-0.9c0-1.2-0.1-2.4-0.2-3.4c1.9,0.1,3.3,0.2,4.2,0.3c0.4,0.1,0.7,0.3,0.7,0.5
				c0,0.2-0.1,0.5-0.3,0.8c-0.2,0.4-0.3,1.3-0.3,2.6c0,1.8-0.1,3.2-0.2,4.1h9.6l4.8-0.1c0.2,0,0.3,0,0.3,0.1c0,0,0.1,0.2,0.1,0.3
				v3.1c0,0.2,0,0.3-0.1,0.3s-0.2,0.1-0.3,0.1l-4.8-0.1h-8.8c1.4,4.1,3.4,7.7,6.1,10.8c2.6,2.9,5.5,5.1,8.9,6.4
				c-0.8,0.8-1.5,1.7-2.2,2.8c-0.3,0.6-0.6,0.9-0.8,0.9c-0.2,0-0.4-0.1-0.8-0.4c-3.1-1.8-5.9-4.3-8.4-7.4c-2.1-2.7-3.8-5.7-5-8.9
				c-0.5,1.8-1.1,3.4-1.8,4.7c-2.4,4.8-6.4,8.8-11.8,11.8c-0.4,0.2-0.7,0.3-0.9,0.3c-0.2,0-0.5-0.3-0.9-0.8
				c-0.5-0.8-1.3-1.6-2.2-2.4c5.7-2.6,9.7-6.1,11.9-10.5c1.1-2,1.8-4.5,2.3-7.3L432.8,24L432.8,24z M443.5,35.9
				c1.5,1.5,2.9,3.3,4.2,5.3c0.1,0.1,0.1,0.2,0.1,0.3c0,0.1-0.1,0.2-0.4,0.4l-2.4,1.8c-0.2,0.2-0.4,0.2-0.5,0.2
				c-0.1,0-0.2-0.1-0.3-0.3c-1.2-2.2-2.6-4-4.1-5.5c-0.1-0.1-0.2-0.2-0.2-0.3c0-0.1,0.1-0.2,0.4-0.4l2.4-1.6
				c0.2-0.1,0.3-0.2,0.4-0.2S443.3,35.7,443.5,35.9L443.5,35.9z"/>
			<path class="st0" d="M474.8,23.4c1.9,1.9,2.8,4.3,2.8,7.4c0,2.9-1.5,4.5-4.5,5c-0.3,0-0.5,0.1-0.7,0.1c-0.2,0-0.4-0.1-0.5-0.3
				c0-0.1-0.1-0.4-0.1-0.9c-0.1-0.9-0.3-1.7-0.7-2.2c0.2,0,0.3,0,0.4,0c1,0,1.7-0.2,2.1-0.7c0.4-0.4,0.5-1.1,0.5-2
				c0-1.9-1-4-2.9-6.2c1.1-2.3,2.1-4.8,3-7.4h-3.6v21.1l0.1,8c0,0.2,0,0.3-0.1,0.3c0,0-0.1,0-0.3,0h-2.9c-0.2,0-0.3,0-0.4-0.1
				c0,0-0.1-0.1-0.1-0.3l0.1-8V21.1l-0.1-8.1c0-0.2,0-0.3,0.1-0.3c0,0,0.2-0.1,0.3-0.1l2.9,0.1h4.8c0.2,0,0.4,0,0.7-0.1
				c0.1-0.1,0.3-0.1,0.5-0.1c0.3,0,0.8,0.4,1.4,1.2c0.6,0.7,1,1.2,1,1.5c0,0.2-0.1,0.4-0.4,0.7c-0.2,0.2-0.5,0.6-0.7,1.1
				C476.7,19.3,475.7,21.5,474.8,23.4z M476.6,40.6c3.5-1.6,6.1-3.8,8-6.5h-2.1c-1.3,1.4-2.8,2.6-4.3,3.7c-0.4,0.3-0.7,0.4-0.9,0.4
				c-0.2,0-0.5-0.2-0.9-0.7c-0.4-0.5-1-0.9-1.8-1.3c2.7-1.4,4.9-3.2,6.5-5.4c0.2-0.4,0.5-0.9,0.9-1.6c-1,0-1.8,0-2.6,0.1
				c-0.5,0-0.8,0-0.8,0c-0.2,0-0.3,0-0.3-0.1c0,0-0.1-0.2-0.1-0.3v-2.4c0-0.2,0-0.3,0.1-0.3c0,0,0.2-0.1,0.3-0.1l5,0.1h10.3l5-0.1
				c0.2,0,0.4,0,0.4,0.1c0,0,0.1,0.2,0.1,0.3v2.4c0,0.2,0,0.3-0.1,0.3c0,0-0.2,0.1-0.4,0.1l-5-0.1h-10l1.1,0.3
				c0.4,0.1,0.6,0.3,0.6,0.5c0,0.2-0.1,0.3-0.2,0.4c-0.2,0.1-0.4,0.3-0.6,0.6h8.7l4.3-0.1c0.3,0,0.5,0.2,0.5,0.5
				c0,0.5-0.1,1.1-0.1,1.9c0,0.8-0.1,1.3-0.1,1.6c-0.2,3.4-0.5,5.9-0.9,7.4c-0.3,1.1-0.8,1.9-1.4,2.3c-0.6,0.4-1.4,0.6-2.5,0.6
				c-0.7,0-1.3,0-1.7-0.1c-0.5,0-0.7-0.1-0.8-0.3c-0.1-0.1-0.2-0.5-0.3-1c-0.2-1-0.5-1.8-0.9-2.4c1.1,0.2,1.9,0.3,2.6,0.3
				c0.8,0,1.4-0.4,1.7-1.2c0.3-1,0.6-3.1,0.7-6.4h-1.1c-1,2.6-2.3,4.8-3.7,6.5c-1.4,1.6-3.1,3.1-5.1,4.3c-0.5,0.3-0.8,0.4-0.9,0.4
				c-0.2,0-0.5-0.2-0.9-0.7c-0.4-0.4-1-0.8-1.6-1.2c4.1-2,7-5.1,8.8-9.3h-1.8c-2,3.3-4.6,5.9-8,7.9c-0.4,0.3-0.7,0.4-0.8,0.4
				c-0.1,0-0.4-0.2-1-0.7C477.9,41.3,477.3,40.9,476.6,40.6L476.6,40.6z M491.6,12.9l4.3-0.1c0.2,0,0.3,0,0.3,0.1
				c0,0,0.1,0.2,0.1,0.4l-0.1,3.1v4.5l0.1,3.1c0,0.3-0.1,0.4-0.4,0.4l-4.3-0.1H485l-4.3,0.1c-0.2,0-0.3,0-0.4-0.1
				c0,0-0.1-0.2-0.1-0.3l0.1-3.1v-4.5l-0.1-3.1c0-0.2,0-0.4,0.1-0.4c0,0,0.2-0.1,0.3-0.1l4.3,0.1H491.6z M483.8,15.7v1.7h8.9v-1.7
				C492.7,15.7,483.8,15.7,483.8,15.7z M492.7,21.6V20h-8.9v1.7H492.7z"/>
			<path class="st0" d="M510,28.9l-4.8,0.1c-0.2,0-0.3,0-0.4-0.1c0,0-0.1-0.2-0.1-0.3v-2.9c0-0.2,0-0.3,0.1-0.4s0.2-0.1,0.3-0.1
				l4.8,0.1h8.7v-9c0-1.9-0.1-3.4-0.2-4.5c1.7,0,3,0.1,4,0.3c0.4,0,0.6,0.2,0.6,0.5c0,0.2-0.1,0.4-0.3,0.8c-0.1,0.3-0.2,1.3-0.2,3v9
				h9.5l4.8-0.1c0.2,0,0.4,0.1,0.4,0.4v2.9c0,0.2,0,0.3-0.1,0.4c0,0-0.1,0.1-0.3,0.1l-4.8-0.1h-5.8v10c0,1.1,0.1,1.7,0.4,2
				c0.3,0.3,1.2,0.5,2.7,0.5c1.6,0,2.7-0.2,3.2-0.7c0.3-0.3,0.6-0.9,0.7-1.6c0.1-0.6,0.2-1.5,0.2-2.8c0.6,0.5,1.6,0.9,2.8,1.2
				c0.4,0.1,0.7,0.2,0.8,0.2c0.1,0.1,0.2,0.2,0.2,0.4c0,0.1,0,0.3-0.1,0.5c-0.2,2.5-0.8,4.1-1.6,5c-0.6,0.6-1.4,1-2.4,1.2
				c-1,0.2-2.3,0.3-4.1,0.3c-1.8,0-3.1-0.1-4-0.3c-0.8-0.2-1.3-0.5-1.7-0.9c-0.6-0.7-1-2.1-1-4.2V28.9h-4.1
				c-0.2,4.6-1.1,8.1-2.9,10.7c-1.7,2.5-4.4,4.4-8,5.6c-0.4,0.1-0.7,0.2-0.8,0.2c-0.2,0-0.5-0.3-0.9-0.9c-0.5-0.9-1.1-1.7-1.9-2.4
				c4-1.1,6.7-2.7,8.3-4.9c1.4-1.9,2.1-4.7,2.2-8.3L510,28.9L510,28.9z M511.4,14.2c1.6,2.2,3,4.6,4.2,7.2c0,0.1,0.1,0.2,0.1,0.3
				c0,0.1-0.1,0.2-0.4,0.4l-2.5,1.3c-0.2,0.1-0.4,0.2-0.4,0.2c-0.1,0-0.2-0.1-0.3-0.3c-1-2.6-2.3-5-4-7.2c-0.1-0.1-0.1-0.2-0.1-0.3
				c0-0.1,0.1-0.2,0.4-0.3l2.5-1.3c0.2-0.1,0.3-0.1,0.4-0.1C511.2,14,511.3,14.1,511.4,14.2L511.4,14.2z M525.5,22.2
				c1.9-2.4,3.3-4.7,4.3-6.9c0.2-0.4,0.4-0.9,0.5-1.6c1.3,0.5,2.4,1,3.5,1.7c0.3,0.2,0.4,0.3,0.4,0.5c0,0.1-0.1,0.3-0.4,0.5
				c-0.2,0.2-0.4,0.5-0.7,1c-1.3,2.3-2.5,4.2-3.6,5.7c-0.4,0.5-0.6,0.7-0.8,0.7c-0.2,0-0.5-0.2-0.9-0.5
				C527.4,23.2,526.6,22.8,525.5,22.2L525.5,22.2z"/>
			<path class="st0" d="M542.8,36.7c3.5-3.1,6.2-6.8,8.1-11.1c1-2.3,1.6-4.1,1.7-5.5c2.1,0.7,3.6,1.4,4.6,1.9
				c0.3,0.1,0.5,0.3,0.5,0.6c0,0.3-0.1,0.5-0.4,0.7c-0.4,0.4-0.8,1.1-1.3,2.3c-2.3,5.2-4.9,9.3-8,12.5c-0.3,0.4-0.7,0.6-1.1,0.6
				c-0.3,0-0.6-0.1-0.9-0.4C545.2,37.7,544.1,37.2,542.8,36.7L542.8,36.7z M561.8,22.6c0.4-0.3,1-0.7,1.8-1.3
				c0.5-0.4,0.9-0.6,1.1-0.8c0.2-0.1,0.4-0.2,0.5-0.2c0.2,0,0.4,0.1,0.6,0.3c3.8,3.8,6.9,8.4,9.3,13.7c0.1,0.2,0.1,0.3,0.1,0.5
				c0,0.2-0.1,0.4-0.4,0.6c-0.9,0.7-1.9,1.3-3.1,2c-0.2,0.1-0.3,0.1-0.4,0.1c-0.2,0-0.4-0.2-0.5-0.5
				C568.3,31.1,565.3,26.3,561.8,22.6L561.8,22.6z M573.3,14.1c1.2,0,2.2,0.4,3,1.3c0.7,0.8,1,1.6,1,2.7c0,1.2-0.4,2.2-1.3,3
				c-0.8,0.7-1.7,1-2.7,1c-1.2,0-2.2-0.4-3-1.3c-0.7-0.8-1-1.6-1-2.7c0-1.2,0.4-2.2,1.3-3C571.3,14.4,572.2,14.1,573.3,14.1
				L573.3,14.1z M573.3,15.9c-0.7,0-1.2,0.2-1.7,0.7c-0.4,0.4-0.5,0.9-0.5,1.5c0,0.7,0.2,1.2,0.7,1.7c0.4,0.4,0.9,0.5,1.5,0.5
				c0.7,0,1.2-0.2,1.7-0.7c0.4-0.4,0.5-0.9,0.5-1.5c0-0.7-0.2-1.2-0.7-1.7C574.4,16.1,573.9,15.9,573.3,15.9L573.3,15.9z"/>
			<path class="st0" d="M600.5,29.9v7.9l0.1,6.7c0,0.3-0.2,0.5-0.7,0.5c-0.5,0-1,0.1-1.6,0.1c-0.6,0-1.1,0-1.6-0.1
				c-0.5,0-0.7-0.2-0.7-0.5l0.2-6.6V33c-3.2,2.4-6.7,4.4-10.2,6.2c-0.3,0.1-0.5,0.2-0.6,0.2c-0.3,0-0.5-0.1-0.7-0.4
				c-1.1-1.1-2.1-1.9-3-2.3c4.7-2.1,8.7-4.4,12-6.7c2.9-2,5.3-4.1,7.2-6l-8.6,0.2c-1.8,0.1-3.5,0.2-4.9,0.3c-0.3,0-0.5-0.2-0.6-0.7
				c-0.1-0.6-0.3-1.8-0.4-3.6c1.7,0.2,3.3,0.3,4.6,0.3h0.6l10.8-0.1c1.2,0,2.1-0.1,2.7-0.4c0.2-0.1,0.4-0.1,0.5-0.1
				c0.2,0,0.4,0.1,0.6,0.3c0.4,0.3,1,1.1,1.9,2.2c0.2,0.2,0.2,0.4,0.2,0.6c0,0.3-0.2,0.5-0.6,0.7c-0.4,0.2-0.8,0.5-1.2,0.9
				C604.4,26.4,602.5,28.2,600.5,29.9L600.5,29.9z M592.7,15.3c0.3-0.4,0.6-1,1.1-1.8c0.3-0.6,0.6-1,0.7-1.1
				c0.2-0.3,0.4-0.4,0.5-0.4c0.1,0,0.1,0,0.2,0c2.5,0.8,5.2,1.8,7.9,3.2c0.3,0.1,0.4,0.3,0.4,0.4c0,0.1,0,0.2-0.1,0.4
				c-0.5,1.1-1,2-1.5,2.7c-0.1,0.3-0.3,0.4-0.5,0.4c-0.1,0-0.3,0-0.4-0.1C598.6,17.5,595.8,16.3,592.7,15.3z M602.4,32
				c0.9-1.3,1.6-2.3,2.1-2.9c0.1-0.2,0.3-0.3,0.4-0.3c0.1,0,0.2,0,0.4,0.1c2.8,1.2,5.5,2.7,8.1,4.5c0.2,0.1,0.3,0.3,0.3,0.4
				c0,0.1,0,0.3-0.1,0.5c-0.8,1.3-1.4,2.2-1.8,2.7c-0.2,0.2-0.3,0.3-0.4,0.3c-0.1,0-0.3-0.1-0.5-0.3C608.6,35.4,605.8,33.7,602.4,32
				L602.4,32z"/>
			<path class="st0" d="M627.9,18.3c2.4,0.3,4,0.6,4.7,0.8c0.4,0.1,0.6,0.3,0.6,0.7c0,0.1,0,0.3-0.1,0.5c-0.3,0.6-0.5,1.4-0.5,2.5
				c-0.1,4.5-0.7,8.1-2,10.9c-1.1,2.6-2.9,4.9-5.3,7c-0.4,0.3-0.7,0.5-1,0.5c-0.2,0-0.4-0.1-0.7-0.3c-0.9-0.6-1.9-1.1-3.2-1.6
				c2.9-2.2,5-4.7,6.2-7.4c0.6-1.5,1-2.9,1.2-4.3c0.2-1.5,0.4-3.6,0.4-6.2C628.2,20.3,628.1,19.2,627.9,18.3z M640.9,34.8
				c1.7-0.9,3.4-2,5.3-3.5c2.6-2,4.7-4.1,6.5-6.3c0.1,1.3,0.5,2.6,1.2,3.8c0.1,0.4,0.2,0.6,0.2,0.6c0,0.3-0.2,0.6-0.6,0.9
				c-1.8,1.9-3.7,3.5-5.5,4.9c-2.1,1.6-4.3,3.1-6.6,4.5c-0.4,0.2-0.7,0.5-1.1,0.8c-0.2,0.2-0.5,0.3-0.8,0.3c-0.2,0-0.5-0.1-0.8-0.3
				c-0.7-0.5-1.5-1.3-2.2-2.3c-0.2-0.3-0.3-0.6-0.3-0.8s0-0.4,0.1-0.6c0.1-0.3,0.2-1.2,0.2-2.8V22.4c0-3.2-0.1-5.3-0.4-6.5
				c2.3,0.3,3.9,0.6,4.7,0.8c0.4,0.1,0.7,0.3,0.7,0.6c0,0.2-0.1,0.5-0.3,0.9c-0.2,0.5-0.3,1.8-0.3,4.1L640.9,34.8L640.9,34.8z"/>
			<path d="M687.6,29.2c-0.4,3.9-1.4,6.8-3.2,8.7c0.8,0.9,1.5,1.4,2.3,1.7c0.7,0.2,1.6,0.3,2.9,0.3l-0.9,3.4h-1.3
				c-1.6,0-2.9-0.2-3.8-0.7c-0.7-0.3-1.5-0.9-2.3-1.8c-1.9,1.6-4.5,2.5-7.6,2.5c-3.1,0-5.5-0.9-7.3-2.7c-1.6-1.6-2.4-3.6-2.4-6
				c0-2.1,0.6-3.8,1.7-5.2c1-1.2,2.4-2.3,4.4-3.2c-1.4-2.1-2.1-4-2.1-5.8c0-2,0.8-3.6,2.3-4.9c1.3-1.1,3-1.6,5-1.6
				c2.3,0,4.1,0.6,5.4,1.9c1.1,1.1,1.7,2.5,1.7,4.3c0,1.9-0.6,3.5-1.8,4.6c-1.1,1.1-2.8,1.9-5,2.6c1.9,2.8,4,5.6,6.4,8.4
				c0.9-1.6,1.5-4,1.7-7.3C683.6,28.4,687.6,29.2,687.6,29.2z M671.7,28.7c-2.2,1.2-3.3,3-3.3,5.4c0,1.9,0.7,3.4,2,4.5
				c1.2,1,2.6,1.5,4.2,1.5c1.9,0,3.4-0.5,4.5-1.5C676.4,35.4,673.9,32.1,671.7,28.7L671.7,28.7z M674,24.9c1.7-0.6,2.8-1.3,3.4-2.1
				c0.5-0.7,0.8-1.6,0.8-2.7c0-1-0.3-1.7-0.9-2.3c-0.5-0.5-1.2-0.7-2-0.7c-0.9,0-1.7,0.3-2.3,1c-0.5,0.6-0.8,1.3-0.8,2.2
				C672.2,21.6,672.8,23.1,674,24.9L674,24.9z"/>
			<path d="M706.7,11.5c1.4,0,2.6,0.1,3.6,0.2c0.3,0,0.5,0.2,0.5,0.4c0,0.2-0.1,0.4-0.2,0.5c-0.1,0.2-0.2,0.6-0.2,1.2h7.5
				c0-1-0.1-1.8-0.2-2.3c1.5,0,2.7,0.1,3.6,0.2c0.4,0,0.5,0.2,0.5,0.3c0,0.1-0.1,0.3-0.2,0.5c-0.1,0.2-0.2,0.6-0.2,1.2h4.3l4.7-0.1
				c0.2,0,0.3,0,0.4,0.1c0,0,0.1,0.2,0.1,0.3v2.3c0,0.2,0,0.3-0.1,0.3c0,0-0.1,0.1-0.3,0.1l-4.7-0.1h-4.3l0.1,1.6
				c0,0.2,0,0.3-0.1,0.4c0,0-0.2,0.1-0.3,0.1h-2.9c-0.2,0-0.3,0-0.4-0.1c0,0-0.1-0.1-0.1-0.3c0-0.1,0-0.3,0-0.6c0-0.4,0-0.7,0.1-1
				h-7.5l0.1,1.6c0,0.2,0,0.3-0.1,0.3s-0.2,0.1-0.3,0.1h-2.8c-0.2,0-0.3,0-0.3-0.1c0,0-0.1-0.1-0.1-0.3c0,0,0-0.2,0-0.6
				c0-0.3,0-0.7,0.1-1H703l-4.7,0.1c-0.2,0-0.3,0-0.4-0.1c0,0-0.1-0.2-0.1-0.3v-2.3c0-0.2,0-0.3,0.1-0.3c0,0,0.2-0.1,0.3-0.1
				l4.7,0.1h3.9C706.9,13.1,706.8,12.3,706.7,11.5z M703.6,23l-4.8,0.1c-0.2,0-0.3,0-0.4-0.1c0,0-0.1-0.2-0.1-0.3v-2.3
				c0-0.2,0-0.3,0.1-0.3c0,0,0.2-0.1,0.4-0.1l4.8,0.1h8.8c0-0.6-0.1-1.3-0.3-2.3c1.1,0,2.2,0.1,3.5,0.2c0.4,0,0.6,0.2,0.6,0.4
				c0,0.1-0.1,0.3-0.2,0.6c-0.1,0.3-0.2,0.6-0.2,1.1h9.4l4.8-0.1c0.2,0,0.3,0,0.4,0.1c0,0,0.1,0.2,0.1,0.3v2.3c0,0.2,0,0.3-0.1,0.4
				c0,0-0.2,0.1-0.3,0.1l-4.8-0.1h-10.4c-1.5,1.4-2.8,2.6-4.2,3.7c0.9,0.6,1.6,1.1,2.1,1.5c1.7-1.1,3.1-2.3,4.4-3.4
				c0.7-0.6,1.2-1.2,1.6-1.7c1.3,0.6,2.2,1.1,2.8,1.5c0.2,0.1,0.3,0.3,0.3,0.5c0,0.2-0.2,0.3-0.5,0.4c-0.3,0.1-0.7,0.4-1.2,0.7
				c-1.5,1.2-2.9,2.2-4.1,2.9l7.9-0.3l-1.7-1.5c-0.1-0.1-0.2-0.2-0.2-0.3c0-0.1,0.1-0.2,0.3-0.3l1.4-1c0.2-0.2,0.4-0.2,0.5-0.2
				c0.1,0,0.2,0.1,0.3,0.2c2.3,1.6,4.3,3.4,6.1,5.4c0.1,0.1,0.2,0.2,0.2,0.3c0,0.1-0.1,0.2-0.3,0.4l-1.6,1.3
				c-0.2,0.2-0.4,0.3-0.5,0.3s-0.2-0.1-0.3-0.2c-0.6-0.8-1.2-1.4-1.6-1.9c-8.8,0.6-17.1,1-25,1.2c-0.6,0-1,0.1-1.4,0.2
				c-0.3,0.1-0.5,0.2-0.6,0.2c-0.2,0-0.4-0.2-0.5-0.6c-0.2-0.8-0.4-1.8-0.5-3c1,0,2.3,0.1,3.9,0.1c1.3,0,3.6,0,6.9-0.1
				c-1.6-1.1-3.6-2.3-6-3.6c-0.2-0.1-0.2-0.2-0.2-0.2c0-0.1,0.1-0.2,0.3-0.4l1.6-1.3c0.2-0.2,0.3-0.2,0.4-0.2c0.1,0,0.2,0,0.4,0.1
				c0.4,0.2,1.2,0.7,2.5,1.4c0.7-0.6,1.5-1.3,2.3-2.1L703.6,23L703.6,23z M705.3,45.7h-3c-0.2,0-0.3,0-0.4-0.1c0,0-0.1-0.2-0.1-0.3
				l0.1-5.5v-2.5l-0.1-3.4c0-0.2,0-0.3,0.1-0.4c0,0,0.2-0.1,0.3-0.1l5.2,0.1h13.8l5.2-0.1c0.2,0,0.3,0,0.4,0.1c0,0,0.1,0.2,0.1,0.3
				l-0.1,3v2.9l0.1,5.5c0,0.2,0,0.3-0.1,0.4c0,0-0.2,0.1-0.3,0.1h-3c-0.2,0-0.3,0-0.4-0.1c0,0-0.1-0.2-0.1-0.3v-1h-17.4v1.1
				c0,0.2,0,0.3-0.1,0.4C705.6,45.7,705.5,45.7,705.3,45.7z M705.7,35.9v1.9h6.7v-1.9H705.7z M705.7,41.8h6.7v-1.9h-6.7V41.8z
				 M723.1,35.9H716v1.9h7.1V35.9z M716,41.8h7.1v-1.9H716V41.8z"/>
			<path d="M744.8,15.8l-5,0.1c-0.2,0-0.4,0-0.4-0.1c0,0-0.1-0.2-0.1-0.3V13c0-0.2,0-0.3,0.1-0.3c0,0,0.2-0.1,0.4-0.1l5,0.1h16.7
				l5.1-0.1c0.2,0,0.3,0,0.3,0.1c0,0,0.1,0.2,0.1,0.3v2.4c0,0.2,0,0.3-0.1,0.3s-0.2,0.1-0.3,0.1l-5.1-0.1h-6.7v1.5h9.1l4.9-0.1
				c0.2,0,0.3,0,0.4,0.1c0,0,0.1,0.2,0.1,0.3l-0.1,1.9v1.9l0.1,3.8c0,0.2,0,0.3-0.1,0.3c0,0-0.2,0.1-0.3,0.1h-2.9
				c-0.2,0-0.3,0-0.4-0.1c0,0-0.1-0.2-0.1-0.3v-5.1h-10.7v3.2l0.1,3.7c0,0.2-0.1,0.4-0.4,0.4h-3c-0.3,0-0.4-0.1-0.4-0.4l0.1-3.7
				v-3.2h-10.3v5.1c0,0.2,0,0.3-0.1,0.3c0,0-0.2,0.1-0.3,0.1h-2.9c-0.3,0-0.4-0.1-0.4-0.4l0-3.8v-1.6l0-2.2c0-0.3,0.1-0.4,0.4-0.4
				l4.9,0.1h8.7v-1.5L744.8,15.8L744.8,15.8z M759.3,28.2l5.8-0.1c0.2,0,0.3,0,0.4,0.1c0,0,0.1,0.2,0.1,0.3l-0.1,3.4v4.2l0.1,3.4
				c0,0.2,0,0.3-0.1,0.3c0,0-0.2,0.1-0.4,0.1l-5.8-0.1h-4.7v0.6c0,0.5,0.1,0.8,0.2,1c0.1,0.1,0.3,0.2,0.5,0.3
				c0.8,0.1,2.4,0.2,4.9,0.2c3,0,4.8-0.3,5.5-0.8c0.3-0.3,0.6-0.6,0.7-1.1c0.1-0.5,0.2-1.4,0.3-2.7c0.9,0.5,1.7,0.8,2.7,1.1
				c0.4,0.1,0.7,0.2,0.8,0.3c0.1,0.1,0.1,0.2,0.1,0.5c0,0.1,0,0.3,0,0.5c-0.3,2.1-1,3.6-2.1,4.3c-1.2,0.8-3.8,1.1-7.8,1.1
				c-3.8,0-6.3-0.2-7.4-0.6c-1.3-0.4-1.9-1.6-1.9-3.4v-1.4h-6.8v1.5c0,0.2,0,0.3-0.1,0.4c0,0-0.2,0.1-0.4,0.1h-2.9
				c-0.2,0-0.4-0.1-0.4-0.4l0.1-3.4v-6l-0.1-3.5c0-0.2,0-0.3,0.1-0.4c0,0,0.1-0.1,0.3-0.1l5.6,0.1C746.3,28.2,759.3,28.2,759.3,28.2
				z M748.8,21.4c0.3,0,0.4,0.1,0.4,0.3v1.5c0,0.2-0.1,0.3-0.4,0.3l-2.1,0h-1.8l-2.1,0c-0.3,0-0.4-0.1-0.4-0.3v-1.5
				c0-0.2,0.1-0.3,0.4-0.3l2.1,0.1h1.8C746.7,21.4,748.8,21.4,748.8,21.4z M748.8,24.7c0.3,0,0.4,0.1,0.4,0.3v1.4
				c0,0.2-0.1,0.3-0.4,0.3l-2.1,0h-1.8l-2.1,0c-0.3,0-0.4-0.1-0.4-0.3V25c0-0.2,0.1-0.3,0.4-0.3l2.1,0h1.8
				C746.7,24.7,748.8,24.7,748.8,24.7z M744.1,32.7h6.8v-1.9h-6.8V32.7z M744.1,37.2h6.8v-1.9h-6.8V37.2z M761.8,30.9h-7.2v1.9h7.2
				V30.9z M761.8,37.2v-1.9h-7.2v1.9H761.8z M763.2,21.3c0.3,0,0.4,0.1,0.4,0.3v1.5c0,0.2-0.1,0.3-0.4,0.3l-2.2-0.1h-1.8l-2.2,0.1
				c-0.3,0-0.4-0.1-0.4-0.4v-1.5c0-0.2,0.1-0.3,0.4-0.3l2.2,0h1.8L763.2,21.3z M763.2,24.6c0.3,0,0.4,0.1,0.4,0.3v1.5
				c0,0.2-0.1,0.3-0.4,0.3l-2.2,0h-1.8l-2.2,0c-0.3,0-0.4-0.1-0.4-0.3v-1.5c0-0.2,0.1-0.3,0.4-0.3l2.2,0h1.8L763.2,24.6z"/>
			<path d="M777.4,21.6c1.9,1.1,3.6,2.4,5.2,3.8c0.2,0.1,0.3,0.3,0.3,0.4c0,0.1-0.1,0.2-0.2,0.4l-1.6,2.2c-0.2,0.2-0.3,0.4-0.4,0.4
				c-0.1,0-0.2-0.1-0.3-0.2c-1.5-1.6-3.3-3-5.2-4.1c-0.1-0.1-0.2-0.2-0.2-0.3c0-0.1,0.1-0.2,0.2-0.3l1.6-2c0.2-0.2,0.4-0.4,0.5-0.4
				C777.2,21.5,777.3,21.5,777.4,21.6L777.4,21.6z M775,42.9c0.7-0.8,1.3-1.8,1.8-2.8c1.5-3,2.6-5.9,3.6-8.8
				c0.6,0.6,1.3,1.2,2.1,1.9c0.5,0.4,0.8,0.7,0.8,1c0,0.2-0.1,0.4-0.2,0.9c-0.9,2.8-2,5.5-3.4,8.2c-0.3,0.5-0.5,1-0.5,1.4
				c-0.1,0.3-0.2,0.5-0.5,0.5c-0.2,0-0.4-0.1-0.7-0.2C777,44.5,776.1,43.8,775,42.9L775,42.9z M779,12.2c1.8,1.1,3.5,2.4,5.2,4
				c0.1,0.1,0.2,0.2,0.2,0.3c0,0.1-0.1,0.2-0.2,0.5l-1.7,2.2c-0.2,0.2-0.3,0.3-0.4,0.3c-0.1,0-0.2-0.1-0.3-0.2
				c-1.7-1.8-3.4-3.2-5.2-4.3c-0.2-0.1-0.3-0.2-0.3-0.3c0-0.1,0.1-0.2,0.3-0.4l1.6-2c0.2-0.2,0.3-0.3,0.4-0.3
				C778.7,12.1,778.9,12.1,779,12.2L779,12.2z M804.7,35.5c0.9,0.6,1.8,1,2.8,1.2c0.4,0.1,0.7,0.2,0.8,0.3c0.1,0.1,0.1,0.2,0.1,0.5
				c0,0.1,0,0.2,0,0.5c-0.2,2.7-0.8,4.5-1.8,5.4c-0.6,0.5-1.7,0.9-3.1,1.1c-1.4,0.2-3.5,0.3-6.2,0.3c-3.2,0-5.4-0.1-6.6-0.2
				c-0.9-0.1-1.6-0.3-2.1-0.6c-1-0.6-1.6-1.7-1.6-3.4V27.9l-3,0.9c-0.1,0-0.2,0.1-0.2,0.1c-0.1,0-0.2-0.1-0.2-0.4l-0.3-2.9v-0.1
				c0-0.1,0.1-0.3,0.4-0.3c1.3-0.3,2.4-0.6,3.4-0.9v-4.1c0-1.9-0.1-3.5-0.3-4.8c1.6,0,2.9,0.1,3.9,0.2c0.4,0.1,0.7,0.2,0.7,0.4
				c0,0.1-0.1,0.3-0.2,0.7c-0.1,0.4-0.2,1.4-0.2,3.1V23l3.8-1.2v-4.5c0-2.4-0.1-4.2-0.3-5.4c1.8,0,3,0.1,3.9,0.2
				c0.4,0,0.6,0.2,0.6,0.4c0,0.2-0.1,0.4-0.2,0.8c-0.2,0.4-0.3,1.7-0.3,3.7v3.6l3.1-0.9c1.5-0.4,2.8-0.8,3.9-1.2
				c0.7-0.2,1.1-0.4,1.1-0.4h0.1c0.2,0,0.3,0.1,0.3,0.3l-0.1,3.8c-0.1,5.4-0.5,8.8-1,10.3c-0.4,1.3-1.5,1.9-3.1,1.9
				c-0.7,0-1.2,0-1.6-0.1c-0.4,0-0.6-0.1-0.7-0.2c-0.1-0.1-0.1-0.4-0.2-0.9c-0.1-0.9-0.4-1.8-0.9-2.6c0.8,0.2,1.4,0.3,1.9,0.3
				c0.6,0,1-0.3,1.2-0.8c0.3-0.8,0.5-3.2,0.5-7.2l-4.6,1.4v6.8l0.1,5.7c0,0.2,0,0.3-0.1,0.4c0,0-0.2,0.1-0.4,0.1h-3
				c-0.2,0-0.3,0-0.3-0.1c0,0-0.1-0.2-0.1-0.3l0.1-5.7v-5.6l-3.8,1.1V39c0,0.8,0.2,1.4,0.6,1.6c0.4,0.3,2.4,0.4,6,0.4
				c3.6,0,5.7-0.3,6.3-0.9C804.4,39.5,804.7,38,804.7,35.5L804.7,35.5z"/>
			<path d="M837,31.4h-3.1l-3.1,0.1c-0.2,0-0.4,0-0.4-0.1c0,0-0.1-0.2-0.1-0.4v-1.7c-1.4,1.2-2.9,2.2-4.6,3.1
				c-0.4,0.2-0.7,0.4-0.8,0.4c-0.2,0-0.4-0.3-0.7-1c-0.4-0.7-0.6-1.1-0.7-1.3c-0.8,0.4-1.5,0.7-1.9,0.9v2.1l0.1,7.4
				c0,1.9-0.4,3.1-1.2,3.7c-0.8,0.5-2.1,0.8-4.2,0.8c-0.2,0-0.4,0-0.5,0c-0.4,0-0.6-0.1-0.7-0.2c-0.1-0.1-0.2-0.4-0.3-0.9
				c-0.2-1.1-0.5-2-0.9-2.7c0.9,0.1,1.7,0.1,2.6,0.1c0.9,0,1.3-0.5,1.3-1.4v-7.4c-0.7,0.2-1.2,0.4-1.6,0.5c-0.4,0.1-0.8,0.4-1.3,0.7
				c-0.2,0.1-0.4,0.2-0.6,0.2c-0.2,0-0.4-0.2-0.4-0.5c-0.3-1.1-0.5-2.3-0.7-3.6c1.1-0.1,2.2-0.4,3.4-0.7c0.1,0,0.3-0.1,0.6-0.2
				c0.2-0.1,0.4-0.1,0.5-0.2v-6.9h-0.6l-3.4,0.1c-0.2,0-0.3,0-0.4-0.1c0,0-0.1-0.2-0.1-0.4v-2.7c0-0.2,0-0.3,0.1-0.4
				c0,0,0.2-0.1,0.3-0.1l3.4,0.1h0.6v-1.9c0-1.9-0.1-3.7-0.3-5.2c1.4,0,2.6,0.1,3.8,0.3c0.4,0,0.6,0.2,0.6,0.4
				c0,0.1-0.1,0.4-0.3,0.8c-0.1,0.3-0.2,1.6-0.2,3.8v2l3.1-0.1c0.2,0,0.3,0,0.3,0.1c0,0,0.1,0.2,0.1,0.3v2.7c0,0.2,0,0.4-0.1,0.4
				c0,0-0.1,0.1-0.3,0.1l-3.1-0.1v5.6c1.8-0.8,3-1.3,3.6-1.6c0,0,0,0.8-0.1,2.4v0.3c3-1.6,5.4-3.8,7.2-6.5c0.6-1,1.1-1.9,1.3-2.6
				c1.2,0.1,2.4,0.4,3.5,0.7c0.3,0.1,0.5,0.2,0.5,0.4s-0.1,0.4-0.3,0.5c2.8,3.3,6.4,5.8,10.9,7.4c-0.5,0.7-1,1.6-1.3,2.5
				c-0.2,0.6-0.4,0.9-0.6,0.9c-0.1,0-0.4-0.1-0.9-0.4c-1.7-0.8-3.3-1.8-4.8-3v2c0,0.2,0,0.3-0.1,0.4c0,0-0.2,0.1-0.3,0.1L837,31.4
				L837,31.4z M828.9,11.7c1.1,0,2.3,0.1,3.4,0.2c0.3,0,0.5,0.1,0.5,0.3c0,0.1-0.1,0.2-0.2,0.5c-0.1,0.2-0.2,0.8-0.2,1.8v0.7h5.9V15
				c0-1.5-0.1-2.6-0.2-3.3c1.3,0,2.4,0.1,3.5,0.3c0.3,0,0.5,0.1,0.5,0.3c0,0.1-0.1,0.3-0.2,0.5c-0.1,0.2-0.2,0.8-0.2,1.7v0.7l5-0.1
				c0.2,0,0.3,0,0.4,0.1c0,0.1,0.1,0.2,0.1,0.4v2.4c0,0.2,0,0.3-0.1,0.3s-0.2,0.1-0.4,0.1l-5-0.1l0.1,3c0,0.2,0,0.3-0.1,0.3
				c0,0-0.2,0.1-0.3,0.1h-2.7c-0.2,0-0.3,0-0.3-0.1c0,0-0.1-0.2-0.1-0.3l0.1-3h-5.9l0.1,2.9c0,0.2,0,0.3-0.1,0.3s-0.2,0.1-0.3,0.1
				h-2.7c-0.2,0-0.3,0-0.4-0.1c0,0-0.1-0.2-0.1-0.3l0.1-2.9c-1.2,0-2.2,0-3.1,0.1l-0.9,0c-0.2,0-0.4,0-0.4-0.1c0,0-0.1-0.2-0.1-0.3
				v-2.4c0-0.2,0-0.4,0.1-0.4c0,0,0.2-0.1,0.4-0.1l4,0.1v-0.4C829,13.4,829,12.3,828.9,11.7z M830.1,45.7h-2.8c-0.2,0-0.3,0-0.4-0.1
				c0,0-0.1-0.2-0.1-0.3l0.1-5.5v-2.3l-0.1-3.4c0-0.2,0-0.3,0.1-0.4s0.2-0.1,0.3-0.1l4.6,0.1h7.3l4.6-0.1c0.2,0,0.3,0,0.4,0.1
				c0,0,0.1,0.2,0.1,0.3l-0.1,2.9v2.7l0.1,5.5c0,0.3-0.1,0.4-0.4,0.4h-2.9c-0.3,0-0.4-0.1-0.4-0.4V44h-9.9v1.3c0,0.2,0,0.3-0.1,0.3
				C830.4,45.7,830.3,45.7,830.1,45.7z M830.6,36.8v4h9.9v-4H830.6z M831.5,28.3c0.3,0,1.1,0,2.5,0h3.1l2.7,0
				c-1.6-1.3-3.1-2.8-4.4-4.6C834.2,25.4,832.9,27,831.5,28.3z"/>
			<path d="M858,41.8l-5,0.1c-0.2,0-0.4-0.1-0.4-0.4v-2.1c0-0.3,0.1-0.4,0.4-0.4l5,0.1h3.5v-1.6h-1.8l-4.5,0.1c-0.2,0-0.3,0-0.4-0.1
				c0,0-0.1-0.2-0.1-0.3l0.1-2.8v-3.1l-0.1-2.7c0-0.2,0-0.3,0.1-0.4s0.2-0.1,0.3-0.1l4.5,0.1h1.8v-1.5h-2.9l-4.8,0.1
				c-0.2,0-0.3,0-0.3-0.1c0,0-0.1-0.2-0.1-0.4v-2c0-0.2,0-0.4,0.1-0.4c0,0,0.2-0.1,0.3-0.1l4.8,0.1h2.9v-0.4c0-0.7,0-1.2,0-1.5h-4.4
				l-4.5,0.1c-0.2,0-0.3,0-0.4-0.1c0,0-0.1-0.2-0.1-0.3v-2.2c0-0.2,0-0.3,0.1-0.4c0,0,0.2-0.1,0.3-0.1l4.5,0.1h4.3v-2.1h-1.5
				l-4.4,0.1c-0.2,0-0.3,0-0.3-0.1c0,0-0.1-0.2-0.1-0.4V15c0-0.2,0-0.3,0.1-0.4c0,0,0.2-0.1,0.3-0.1l4.4,0.1h1.5
				c0-1.2-0.1-2.2-0.3-3c0.8,0,2,0.1,3.7,0.3c0.4,0,0.6,0.2,0.6,0.4c0,0.2-0.1,0.4-0.2,0.6c-0.1,0.3-0.2,0.9-0.2,1.7h1.6l4.4-0.1
				c0.2,0,0.3,0,0.3,0.1c0,0,0.1,0.2,0.1,0.3v1.9c0,0.2,0,0.3-0.1,0.4c0,0-0.1,0.1-0.3,0.1l-4.4-0.1h-1.6v2.1h9l0-2.2
				c-0.1-2.4-0.2-4.2-0.4-5.4c1.2,0,2.5,0.1,3.7,0.3c0.4,0.1,0.6,0.2,0.6,0.5c0,0.2-0.1,0.5-0.2,0.8c-0.1,0.3-0.2,1-0.2,2.1
				c0,0.4,0,1,0,1.8c0,1,0,1.7,0,2.2h3.3l4.6-0.1c0.2,0,0.3,0,0.4,0.1c0,0,0.1,0.2,0.1,0.3v2.2c0,0.2,0,0.3-0.1,0.3
				c0,0-0.1,0.1-0.3,0.1l-4.6-0.1h-3.2c0.2,4.2,0.5,7.5,0.9,10.1c0.8-1.4,1.4-2.9,1.9-4.3c0.4-1.3,0.7-2.4,0.8-3.3
				c1.1,0.3,2.1,0.7,3,1.1c0.4,0.2,0.6,0.4,0.6,0.6c0,0.1-0.2,0.4-0.5,0.8c-0.1,0.2-0.4,0.8-0.8,1.7c-1.2,3-2.4,5.6-3.8,7.9
				c0.9,2.8,1.8,4.3,2.6,4.3c0.3,0,0.6-0.3,0.8-1c0.2-0.6,0.4-1.8,0.6-3.4c0.6,0.5,1.3,0.9,1.9,1.2c0.6,0.3,0.9,0.6,0.9,0.9
				c0,0.1,0,0.4-0.1,0.9c-0.4,2.3-0.9,3.8-1.5,4.6c-0.6,0.8-1.4,1.2-2.5,1.2c-1.9,0-3.6-1.7-5.1-5.2c-1.4,1.8-2.9,3.4-4.6,4.9
				c-0.4,0.4-0.7,0.6-0.9,0.6c-0.1,0-0.4-0.2-0.8-0.7c-0.6-0.7-1.3-1.3-1.9-1.6c0.8-0.6,1.5-1.1,1.9-1.5l-3.3,0h-2.8l0.1,3.4
				c0,0.3-0.1,0.4-0.4,0.4h-2.7c-0.3,0-0.4-0.1-0.4-0.4l0-1.1c0-0.7,0-1.5,0.1-2.3L858,41.8L858,41.8z M857.8,31.9h3.8v-1.5h-3.8
				V31.9z M857.8,35.4h3.8v-1.7h-3.8V35.4z M868.8,30.3h-3.9v1.5h3.9V30.3z M868.8,35.4v-1.7h-3.9v1.7H868.8z M876.1,36.4
				c-1-3.4-1.6-8.2-1.9-14.2h-9.1c-0.1,0.3-0.1,0.7-0.1,1.5v0.4h2.6l4.8-0.1c0.2,0,0.3,0,0.3,0.1c0,0,0.1,0.2,0.1,0.4v2
				c0,0.2,0,0.4-0.1,0.4c0,0-0.1,0.1-0.3,0.1l-4.8-0.1h-2.6v1.5h2l4.5-0.1c0.2,0,0.3,0,0.3,0.1c0,0,0.1,0.2,0.1,0.3l-0.1,2.7v3.1
				l0.1,2.8c0,0.2,0,0.3-0.1,0.3c0,0-0.2,0.1-0.3,0.1l-4.5-0.1h-2v1.6h2.8l4.5-0.1c0.2,0,0.3,0,0.3,0.1c0,0,0.1,0.2,0.1,0.3v1.1
				C873.9,39.2,875.1,37.9,876.1,36.4L876.1,36.4z M881.4,12.8c1,1.2,1.9,2.5,2.6,3.9c0.1,0.1,0.1,0.2,0.1,0.3
				c0,0.1-0.1,0.2-0.4,0.4l-1.8,0.9c-0.2,0.1-0.3,0.1-0.4,0.1c-0.1,0-0.2-0.1-0.3-0.3c-0.6-1.4-1.4-2.7-2.4-4
				c-0.1-0.1-0.1-0.2-0.1-0.3c0-0.1,0.1-0.2,0.4-0.4l1.6-0.8c0.2-0.1,0.3-0.1,0.4-0.1C881.2,12.6,881.3,12.6,881.4,12.8L881.4,12.8z
				"/>
		</g>
		<g>
			<path class="st1" d="M495.5,93l-4.1,0.1c-0.2,0-0.3,0-0.3-0.1c0,0,0-0.1,0-0.3v-2.2c0-0.2,0-0.3,0.1-0.3s0.1,0,0.3,0l3.2,0.1
				v-4.2h-0.9l-3.8,0.1c-0.2,0-0.3-0.1-0.3-0.3v-2.2c0-0.2,0.1-0.3,0.3-0.3l3.8,0.1h0.9v-3.1c-0.4,0.5-1,1-1.5,1.5
				c-0.4,0.3-0.6,0.4-0.7,0.4c-0.1,0-0.4-0.2-0.7-0.6c-0.5-0.6-0.9-1-1.4-1.4c2.2-1.5,4-3.4,5.4-5.7c0.3-0.7,0.6-1.3,0.8-1.9
				c0.9,0.2,1.8,0.4,2.6,0.8c0.3,0.1,0.4,0.2,0.4,0.4c0,0.2-0.1,0.3-0.3,0.4c-0.2,0.2-0.4,0.5-0.7,0.9c-0.4,0.6-0.7,1.1-1,1.5h14
				l4.2-0.1c0.2,0,0.3,0,0.3,0.1c0,0,0.1,0.1,0.1,0.3v2.2c0,0.2,0,0.2-0.1,0.3c0,0-0.1,0-0.3,0c0,0-0.2,0-0.4,0c-0.7,0-1.5,0-2.4,0
				v4h0.5l3.8-0.1c0.2,0,0.3,0.1,0.3,0.3v2.2c0,0.2-0.1,0.3-0.3,0.3l-3.8-0.1H513v4.2l3.1-0.1c0.2,0,0.3,0,0.3,0.1c0,0,0,0.1,0,0.3
				v2.2c0,0.2,0,0.2-0.1,0.3c0,0-0.1,0.1-0.3,0.1L512,93C512,93,495.5,93,495.5,93z M493.7,94c0.1-0.2,0.1-0.3,0.2-0.3
				c0.1,0,0.2,0,0.4,0.1l1.8,0.8c0.2,0.1,0.3,0.2,0.3,0.3c0,0,0,0.1-0.1,0.2c-0.9,2-2.1,3.8-3.6,5.4c-0.1,0.1-0.2,0.2-0.3,0.2
				c-0.1,0-0.2-0.1-0.4-0.2l-1.7-1.2c-0.2-0.1-0.3-0.2-0.3-0.3c0-0.1,0.1-0.2,0.2-0.3C491.8,97.4,492.9,95.8,493.7,94z M497.5,83.3
				h2.4v-4h-2.4V83.3z M497.5,90.3h2.4v-4.2h-2.4V90.3z M501,94.5h0.2c0.2,0,0.3,0.1,0.3,0.3c0.3,1.3,0.6,3,0.7,5.1c0,0,0,0.1,0,0.1
				c0,0.2-0.1,0.3-0.4,0.3l-2.2,0.2c-0.1,0-0.2,0-0.3,0c-0.2,0-0.3-0.1-0.3-0.3c0-1.9-0.2-3.6-0.5-5.1c0-0.1,0-0.1,0-0.2
				c0-0.2,0.2-0.3,0.5-0.3C499,94.7,501,94.5,501,94.5z M502.6,83.3h2.4v-4h-2.4V83.3z M502.6,90.3h2.4v-4.2h-2.4V90.3z M507.6,94.6
				c0.6,1.4,1.2,3.1,1.6,4.9c0,0.1,0,0.2,0,0.2c0,0.1-0.1,0.2-0.4,0.3l-2.2,0.4c-0.2,0-0.3,0-0.3,0c-0.1,0-0.2-0.1-0.2-0.3
				c-0.4-2-0.8-3.7-1.3-4.9c0-0.1,0-0.2,0-0.2c0-0.1,0.1-0.2,0.4-0.2l1.9-0.4c0.1,0,0.2,0,0.3,0C507.4,94.3,507.5,94.4,507.6,94.6
				L507.6,94.6z M507.7,83.3h2.5v-4h-2.5V83.3z M507.7,90.3h2.5v-4.2h-2.5V90.3z M513.5,93.9c1.4,1.6,2.5,3.2,3.3,4.9
				c0.1,0.1,0.1,0.2,0.1,0.2c0,0.1-0.1,0.2-0.4,0.3l-1.9,1.1c-0.2,0.1-0.3,0.1-0.3,0.1c-0.1,0-0.2-0.1-0.3-0.2
				c-0.9-1.9-1.9-3.6-3.1-5.1c-0.1-0.1-0.1-0.2-0.1-0.2c0-0.1,0.1-0.2,0.3-0.3l1.7-0.8c0.2-0.1,0.3-0.1,0.3-0.1
				C513.3,93.7,513.4,93.8,513.5,93.9L513.5,93.9z"/>
			<path class="st1" d="M527.5,76.5l-4.2,0.1c-0.2,0-0.3,0-0.3-0.1c0,0,0-0.1,0-0.3v-2c0-0.2,0-0.3,0.1-0.3c0,0,0.1,0,0.3,0l4.2,0.1
				h13.8l4.2-0.1c0.2,0,0.3,0,0.3,0.1c0,0,0,0.1,0,0.3v2c0,0.2,0,0.3-0.1,0.3s-0.1,0-0.3,0l-4.2-0.1h-5.6v1.2h7.6l4-0.1
				c0.2,0,0.3,0,0.3,0.1c0,0,0,0.1,0,0.3l-0.1,1.5v1.6l0.1,3.1c0,0.2,0,0.3-0.1,0.3c0,0-0.1,0-0.3,0h-2.4c-0.2,0-0.3,0-0.3-0.1
				c0,0,0-0.1,0-0.3V80h-8.8v2.6l0.1,3.1c0,0.2-0.1,0.3-0.3,0.3h-2.5c-0.2,0-0.3-0.1-0.3-0.3l0.1-3.1V80h-8.5v4.2
				c0,0.2,0,0.3-0.1,0.3c0,0-0.1,0-0.3,0h-2.4c-0.2,0-0.3-0.1-0.3-0.3l0-3.1v-1.4l0-1.8c0-0.2,0.1-0.3,0.3-0.3l4,0.1h7.2v-1.2
				L527.5,76.5L527.5,76.5z M539.5,86.7l4.8-0.1c0.2,0,0.3,0,0.3,0.1c0,0,0,0.1,0,0.3l-0.1,2.8v3.5l0.1,2.8c0,0.2,0,0.2-0.1,0.3
				c0,0-0.1,0.1-0.3,0.1l-4.8-0.1h-3.9v0.5c0,0.4,0.1,0.7,0.2,0.8c0.1,0.1,0.2,0.2,0.4,0.3c0.6,0.1,2,0.2,4.1,0.2
				c2.5,0,4-0.2,4.5-0.6c0.3-0.2,0.5-0.5,0.6-0.9c0.1-0.4,0.2-1.1,0.2-2.2c0.7,0.4,1.4,0.7,2.2,0.9c0.4,0.1,0.6,0.2,0.6,0.3
				c0.1,0.1,0.1,0.2,0.1,0.4c0,0.1,0,0.2,0,0.4c-0.2,1.8-0.8,3-1.7,3.6c-1,0.6-3.2,0.9-6.4,0.9c-3.1,0-5.2-0.2-6.2-0.5
				c-1-0.4-1.6-1.3-1.6-2.8v-1.1h-5.7v1.3c0,0.2,0,0.3-0.1,0.3c0,0-0.1,0.1-0.3,0.1h-2.4c-0.2,0-0.3-0.1-0.3-0.3l0.1-2.8v-5
				l-0.1-2.9c0-0.2,0-0.3,0.1-0.3c0,0,0.1,0,0.2,0l4.6,0.1L539.5,86.7L539.5,86.7z M530.8,81.1c0.2,0,0.3,0.1,0.3,0.3v1.2
				c0,0.1-0.1,0.2-0.3,0.2l-1.7,0h-1.5l-1.7,0c-0.2,0-0.3-0.1-0.3-0.2v-1.2c0-0.2,0.1-0.3,0.3-0.3l1.7,0h1.5L530.8,81.1z
				 M530.8,83.8c0.2,0,0.3,0.1,0.3,0.3v1.2c0,0.2-0.1,0.3-0.3,0.3l-1.7,0h-1.5l-1.7,0c-0.2,0-0.3-0.1-0.3-0.3V84
				c0-0.2,0.1-0.2,0.3-0.2l1.7,0h1.5L530.8,83.8z M526.9,90.5h5.7v-1.5h-5.7V90.5z M526.9,94.2h5.7v-1.6h-5.7V94.2z M541.6,88.9h-6
				v1.5h6V88.9z M541.6,94.2v-1.6h-6v1.6H541.6z M542.7,81c0.2,0,0.3,0.1,0.3,0.3v1.2c0,0.2-0.1,0.3-0.3,0.3l-1.8-0.1h-1.5l-1.8,0.1
				c-0.2,0-0.3-0.1-0.3-0.3v-1.2c0-0.2,0.1-0.3,0.3-0.3l1.8,0h1.5L542.7,81z M542.7,83.7c0.2,0,0.3,0.1,0.3,0.3v1.2
				c0,0.2-0.1,0.2-0.3,0.2l-1.8,0h-1.5l-1.8,0c-0.2,0-0.3-0.1-0.3-0.2V84c0-0.2,0.1-0.2,0.3-0.2l1.8,0h1.5L542.7,83.7z"/>
			<path class="st1" d="M552.6,93.9c-0.2,0.3-0.4,0.5-0.5,0.5c-0.1,0-0.2-0.2-0.3-0.6c-0.4-1-0.7-1.8-1.1-2.3c2.3-3,3.9-6.3,4.8-9.8
				h-0.8l-3,0.1c-0.2,0-0.3,0-0.3-0.1c0,0,0-0.1,0-0.3v-2.2c0-0.2,0-0.3,0.1-0.3c0,0,0.1,0,0.3,0l3,0.1h1v-1.9
				c0-1.8-0.1-3.2-0.3-4.2c1.2,0,2.2,0.1,3.1,0.2c0.3,0,0.5,0.1,0.5,0.3c0,0.1-0.1,0.4-0.2,0.6c-0.2,0.3-0.2,1.3-0.2,3V79l2.5-0.1
				c0.2,0,0.3,0,0.3,0.1c0,0,0,0.1,0,0.3v2.2c0,0.2,0,0.3-0.1,0.3c0,0-0.1,0-0.3,0l-0.7,0c-0.5,0-1.1,0-1.7,0
				c0.7,1.9,1.8,3.8,3.6,5.9c-0.5,0.6-0.8,1.3-1.1,1.9c-0.1,0.3-0.2,0.5-0.4,0.5c-0.1,0-0.3-0.2-0.4-0.5c-0.8-1.3-1.4-2.5-1.8-3.7
				c0,3.4,0,7.1,0.1,10.8c0,0.8,0,1.9,0.1,3.2c0,0.6,0,0.9,0,1c0,0.2,0,0.3-0.1,0.3c0,0-0.1,0-0.3,0h-2.5c-0.2,0-0.3,0-0.3-0.1
				c0,0,0-0.1,0-0.3c0-0.1,0-0.8,0-2.2c0.1-4.2,0.1-8.1,0.2-11.5C555,89.4,554,91.7,552.6,93.9L552.6,93.9z M565,100.1l-4.2,0.1
				c-0.2,0-0.3,0-0.3-0.1c0,0,0-0.1,0-0.3v-2.4c0-0.2,0-0.2,0.1-0.3c0,0,0.1-0.1,0.3-0.1l4.2,0.1h3.1v-6.7H567l-3.7,0.1
				c-0.2,0-0.3,0-0.3-0.1c0,0,0-0.1,0-0.3v-2.3c0-0.2,0-0.3,0.1-0.3c0.1,0,0.2,0,0.3,0l3.7,0.1h1.1v-5.6h-1.4l-3.9,0.1
				c-0.2,0-0.3,0-0.3-0.1c0,0,0-0.1,0-0.3v-2.3c0-0.2,0-0.3,0.1-0.3s0.1,0,0.3,0l3.9,0.1h7.2l4-0.1c0.2,0,0.3,0,0.3,0.1
				c0,0,0,0.1,0,0.3v2.3c0,0.2,0,0.3-0.1,0.3s-0.1,0-0.3,0l-4-0.1h-2.6v5.6h1.9l3.8-0.1c0.2,0,0.3,0,0.3,0.1c0,0,0,0.1,0,0.3V90
				c0,0.2,0,0.3-0.1,0.3c0,0-0.1,0.1-0.3,0.1l-3.8-0.1h-1.9v6.7h3.2l4.2-0.1c0.2,0,0.3,0,0.3,0.1c0,0,0,0.1,0,0.3v2.4
				c0,0.2,0,0.3-0.1,0.3s-0.1,0-0.3,0l-4.2-0.1H565z M568,73.1c1.6,0.8,3.2,1.9,4.7,3.2c0.1,0.1,0.2,0.2,0.2,0.2
				c0,0.1-0.1,0.2-0.3,0.3l-1.6,1.5c-0.2,0.2-0.4,0.3-0.4,0.3c-0.1,0-0.1,0-0.2-0.1c-1.2-1.2-2.8-2.3-4.6-3.3
				c-0.1-0.1-0.2-0.1-0.2-0.2c0-0.1,0.1-0.2,0.3-0.3l1.6-1.4c0.2-0.1,0.3-0.2,0.4-0.2C567.8,73,567.9,73,568,73.1L568,73.1z"/>
			<path class="st1" d="M581.7,85.7c3.2-2.9,5.6-6.4,7.1-10.4c0.3-0.7,0.5-1.4,0.6-2.2c1,0.3,2,0.6,3,1c0.4,0.1,0.5,0.3,0.5,0.5
				c0,0.2-0.1,0.4-0.3,0.5c-0.2,0.2-0.5,0.6-0.8,1.3c-0.6,1.4-1.2,2.8-1.9,4v15.7l0.1,4.7c0,0.2-0.1,0.3-0.3,0.3H587
				c-0.2,0-0.3,0-0.3-0.1c0,0,0-0.1,0-0.3l0.1-4.7v-7c0-0.8,0-2.1,0.1-3.9c-1,1.3-1.9,2.4-2.7,3.2c-0.3,0.3-0.6,0.5-0.7,0.5
				c-0.2,0-0.3-0.2-0.5-0.7C582.6,87.4,582.2,86.6,581.7,85.7L581.7,85.7z M606.4,92c0.7,0.5,1.5,0.9,2.4,1.3
				c0.3,0.1,0.5,0.2,0.6,0.3c0.1,0.1,0.1,0.2,0.1,0.4c0,0.1,0,0.2,0,0.5c-0.1,1.6-0.3,2.8-0.6,3.6c-0.3,0.7-0.6,1.2-1.1,1.5
				c-1,0.7-2.9,1.1-5.6,1.1c-2.7,0-4.5-0.2-5.4-0.6c-0.6-0.3-1-0.7-1.2-1.2c-0.3-0.5-0.4-1.2-0.4-2.2V77.1c0-1.6-0.1-2.8-0.2-3.6
				c1.2,0,2.3,0.1,3.3,0.2c0.4,0,0.6,0.2,0.6,0.4c0,0.1-0.1,0.3-0.2,0.6c-0.1,0.3-0.2,0.9-0.2,2.1v7.7c1.9-1.2,3.8-2.7,5.7-4.5
				c0.7-0.6,1.3-1.3,1.8-2.1c0.8,0.6,1.6,1.3,2.4,2c0.2,0.2,0.3,0.4,0.3,0.6c0,0.2-0.2,0.4-0.5,0.5c-0.4,0.1-0.9,0.5-1.6,1.2
				c-2.5,2.3-5.2,4.2-8.1,6v7.3c0,0.6,0.1,1,0.2,1.2c0.1,0.2,0.4,0.4,0.7,0.5c0.4,0.1,1.4,0.2,3.1,0.2c1.5,0,2.6-0.3,3.2-0.8
				C606,96.2,606.3,94.7,606.4,92L606.4,92z"/>
			<path d="M625.4,80c-0.7-1.5-1.2-2.5-1.5-3.2c-0.5-1-1-1.9-1.5-2.5c1.8-0.3,3-0.5,3.7-0.5c0.7,0,1.1,0.2,1.1,0.6v0.4
				c0,0.2,0,0.3,0,0.4c0.1,0.5,0.3,1,0.5,1.5c0.5,1.3,0.9,2.1,1.1,2.5c2.4-0.6,4.6-1.2,6.4-1.9c0.1-0.1,0.2-0.1,0.3-0.1
				c0.1,0,0.2,0.1,0.3,0.3c0.2,0.4,0.5,1.2,0.8,2.4c0,0.1,0,0.1,0,0.2c0,0.2-0.1,0.3-0.3,0.3c-1.6,0.6-3.7,1.2-6.1,1.8
				c1.2,2.2,2.8,4.4,4.7,6.5c0.2,0.2,0.4,0.4,0.8,0.7c0.2,0.2,0.3,0.3,0.3,0.4c0,0.2-0.1,0.3-0.2,0.5c-0.2,0.6-0.6,1.3-1.2,2
				c-0.2,0.3-0.4,0.5-0.6,0.5c-0.1,0-0.3-0.1-0.5-0.2c-0.5-0.4-1-0.7-1.3-0.8c-2-1-4.2-1.6-6.5-1.6c-3.4,0-5.1,1-5.1,2.9
				c0,2.2,2.5,3.3,7.6,3.3c1.6,0,3.3-0.1,4.9-0.4c-0.1,1.2-0.3,2.3-0.6,3.3c-0.1,0.2-0.3,0.4-0.6,0.4c-0.9,0.1-2,0.2-3.4,0.2
				c-3.9,0-6.8-0.6-8.7-1.9c-1.7-1.1-2.5-2.6-2.5-4.5c0-1.9,0.8-3.4,2.4-4.5c1.4-1,3.3-1.5,5.7-1.5c2.1,0,4,0.3,5.5,0.8
				c-1.5-1.4-2.8-3.2-4-5.5c-2,0.4-4,0.6-5.9,0.8c-1.4,0.1-2.4,0.2-3,0.2c-0.2,0-0.4-0.2-0.5-0.6c-0.2-0.7-0.5-1.7-0.7-2.8
				c0.6,0,1.2,0,1.7,0c0.7,0,1.5,0,2.2-0.1C621.8,80.5,623.4,80.3,625.4,80L625.4,80z"/>
			<path d="M650.4,73.8c1.6,0.2,2.8,0.4,3.5,0.6c0.4,0.1,0.6,0.3,0.6,0.6c0,0.1-0.1,0.3-0.2,0.6c-0.1,0.2-0.2,0.7-0.3,1.5
				c0,0.8-0.1,1.8-0.2,3.1c0.5,0.2,0.9,0.5,1.2,0.7c0.2,0.1,0.3,0.3,0.3,0.4c0,0.1-0.1,0.2-0.2,0.3c-0.6,1-1.1,1.9-1.6,2.9v0.2
				c0.9-1,1.8-2,2.9-3c2.1-2,4-3,5.6-3c1.2,0,2.2,0.4,2.8,1.2c0.6,0.7,0.9,1.7,0.9,2.9c0,1.6-0.1,3.4-0.3,5.6c0,0.8-0.1,1.9-0.2,3.5
				c-0.1,0.8-0.1,1.4-0.1,1.7c0,0.8,0.1,1.3,0.3,1.5c0.2,0.2,0.4,0.3,0.8,0.3c0.6,0,1.4-0.4,2.3-1.1c0.6-0.5,1.2-1.4,1.9-2.6
				c0.4,1,0.8,1.8,1.1,2.3c0.2,0.3,0.3,0.5,0.3,0.7c0,0.1-0.1,0.3-0.2,0.5c-1.7,2.4-3.7,3.5-5.9,3.5c-2.6,0-3.9-1.6-3.9-4.7
				c0-0.6,0.1-2.4,0.2-5.2c0.2-2.5,0.2-4.2,0.2-5.1c0-1.4-0.3-2-1-2c-0.8,0-2,0.7-3.4,2c-1.7,1.6-3.1,3.1-4.3,4.5
				c0,0.7,0,2.9,0.1,6.4c0,2.3,0,4,0,5.2c0,0.3-0.1,0.4-0.4,0.4c-0.5,0.1-1.3,0.1-2.4,0.1c-0.3,0-0.4-0.2-0.4-0.5c0-4,0-7,0.1-8.8
				c-1,1.6-2.2,3.4-3.6,5.6c-0.1,0.2-0.2,0.3-0.3,0.3c-0.1,0-0.2-0.1-0.4-0.2c-0.7-0.5-1.4-1-1.9-1.7c-0.1-0.1-0.2-0.2-0.2-0.3
				c0-0.2,0.1-0.3,0.3-0.5c2.1-2.6,4.1-5.3,6-8.1c0-0.9,0-1.6,0-2.1c-1.5,0.4-2.7,0.8-3.7,1.2c-0.1,0-0.2,0.1-0.3,0.2
				c-0.3,0.2-0.5,0.3-0.6,0.3c-0.3,0-0.5-0.2-0.6-0.5c-0.3-0.5-0.7-1.4-1.2-2.8c0.6,0,1.3-0.1,2.2-0.3c1.6-0.4,3.1-0.8,4.3-1.2v-4.2
				C650.7,75.6,650.6,74.6,650.4,73.8L650.4,73.8z"/>
			<path d="M686.5,79.5c1.3-0.2,2.7-0.6,4.4-1c0.1,0,0.1,0,0.2,0c0.2,0,0.3,0.1,0.3,0.3c0.1,0.8,0.2,1.6,0.2,2.2v0.1
				c0,0.2-0.2,0.4-0.5,0.5c-1.8,0.5-3.6,0.9-5.4,1.2c-2,6.6-3.9,12.2-5.6,16.7c-0.1,0.2-0.2,0.4-0.4,0.4c-0.1,0-0.2,0-0.3-0.1
				c-1.1-0.4-1.9-0.8-2.5-1.1c-0.2-0.1-0.3-0.3-0.3-0.4c0-0.1,0-0.1,0-0.2c2.2-4.9,3.9-9.8,5.3-14.6c-2.2,0.2-4,0.3-5.4,0.3
				c-0.4,0-0.6-0.2-0.6-0.5c-0.1-0.5-0.3-1.5-0.4-2.8c0.4,0.1,1.2,0.1,2.3,0.1c1.6,0,3.3-0.1,5-0.3c0.2-0.9,0.5-2.2,0.8-3.9
				c0.1-0.9,0.2-1.9,0.2-2.8c1.9,0.3,3.2,0.6,3.9,0.9c0.2,0.1,0.3,0.2,0.3,0.5c0,0.2-0.1,0.3-0.2,0.5c-0.4,0.7-0.6,1.1-0.6,1.2
				c-0.1,0.4-0.3,1-0.4,1.7C686.7,78.8,686.6,79.2,686.5,79.5L686.5,79.5z M687.1,93.6c1.2-0.3,2.1-0.5,2.6-0.5
				c0.3,0,0.4,0.1,0.5,0.4c0.1,1.2,0.6,1.9,1.5,2.4c0.7,0.4,1.8,0.5,3.2,0.5c1.2,0,2.9-0.1,5.2-0.4c0,0,0.1,0,0.1,0
				c0.2,0,0.3,0.1,0.3,0.3c0.2,1.1,0.2,2,0.2,2.7c0,0.1,0,0.1,0,0.2c0,0.2-0.2,0.3-0.5,0.3c-1.5,0.2-2.9,0.3-4.2,0.3
				c-2.1,0-3.8-0.2-5-0.5c-1-0.3-1.9-0.8-2.5-1.5C687.6,97,687.1,95.6,687.1,93.6L687.1,93.6z M689.5,87.8c-0.1-1.5-0.1-2.4-0.1-2.8
				c0-0.2,0-0.4,0.1-0.5c0.1-0.1,0.2-0.1,0.4-0.2c2.3-0.5,4.3-0.7,6-0.7c1.2,0,2.4,0.1,3.6,0.3c0.2,0,0.4,0.1,0.4,0.1
				c0.1,0.1,0.1,0.2,0.1,0.3c0,0.4,0,0.9,0,1.4c0,0.3,0,0.7,0,1c0,0.4-0.1,0.6-0.4,0.6c-0.1,0-0.1,0-0.2,0c-1.2-0.2-2.5-0.4-3.8-0.4
				C693.9,87.1,691.8,87.3,689.5,87.8z"/>
			<path d="M705.1,98.4c4.3-0.5,7.4-1.5,9.2-3c0.7-0.5,1.2-1.1,1.6-1.9h-5.5l-4,0.1c-0.2,0-0.3,0-0.3-0.1c0,0,0-0.1,0-0.3V91
				c0-0.2,0-0.3,0.1-0.3s0.1,0,0.3,0l4,0.1h6.4c0.1-0.4,0.1-0.8,0.1-1.2c0-0.3,0-0.5,0-0.8c1.1,0.1,2.2,0.2,3.1,0.2
				c0.4,0.1,0.6,0.2,0.6,0.4c0,0.2-0.1,0.4-0.2,0.5c-0.1,0.1-0.2,0.4-0.3,0.7h7.6l4-0.1c0.2,0,0.3,0,0.3,0.1c0,0,0,0.1,0,0.3v2.1
				c0,0.2,0,0.2-0.1,0.3c0,0-0.1,0.1-0.3,0.1l-4-0.1h-6.3c2.3,2.7,6.2,4.3,11.7,4.8c-0.5,0.6-0.8,1.3-1.1,2.1
				c-0.2,0.4-0.3,0.6-0.3,0.7c-0.1,0.1-0.2,0.2-0.4,0.2c-0.1,0-0.3,0-0.6-0.1c-5.3-0.8-9.3-2.9-11.9-6.4c-0.6,1.1-1.5,2-2.5,2.9
				c-2.1,1.7-5,2.8-8.8,3.5c-0.3,0.1-0.5,0.1-0.6,0.1c-0.2,0-0.3-0.1-0.4-0.2c-0.1-0.1-0.1-0.3-0.3-0.6
				C705.9,99.5,705.5,98.8,705.1,98.4L705.1,98.4z M709.7,88.5l-3.9,0.1c-0.2,0-0.3,0-0.3-0.1c0-0.1,0-0.2,0-0.3V86
				c0-0.2,0-0.3,0.1-0.3c0,0,0.1,0,0.3,0l3.9,0.1h7.7v-2H713l-4.2,0.1c-0.2,0-0.3-0.1-0.3-0.3v-2c0-0.2,0.1-0.3,0.3-0.3l4.2,0.1h4.3
				v-1.8h-5.7l-4.2,0.1c-0.2,0-0.3,0-0.3-0.1c0,0,0-0.1,0-0.3v-2.1c0-0.2,0-0.3,0.1-0.3c0,0,0.1,0,0.3,0l4.2,0.1h1.9
				c-0.5-1-1-1.7-1.5-2.3c-0.1-0.1-0.2-0.3-0.2-0.3c0-0.1,0.1-0.2,0.3-0.3l2.1-0.9c0.2-0.1,0.3-0.1,0.3-0.1c0.1,0,0.2,0.1,0.3,0.2
				c0.7,0.8,1.3,1.5,1.7,2.3c0.1,0.2,0.1,0.3,0.1,0.3c0,0.1-0.1,0.2-0.3,0.3l-1.7,0.8h6c0.5-0.9,1-1.6,1.3-2.3
				c0.2-0.6,0.4-1.1,0.5-1.6c1.5,0.3,2.5,0.5,3.1,0.7c0.3,0.1,0.4,0.2,0.4,0.4c0,0.2-0.1,0.3-0.3,0.5c-0.2,0.1-0.3,0.3-0.5,0.6
				c-0.3,0.5-0.7,1-1.1,1.6h2.7l4.1-0.1c0.2,0,0.3,0,0.3,0.1c0,0.1,0,0.2,0,0.3v2.1c0,0.2,0,0.3-0.1,0.3c0,0-0.1,0-0.3,0l-4.1-0.1
				h-6.2v1.8h4.8l4.2-0.1c0.2,0,0.3,0,0.3,0.1c0,0,0,0.1,0,0.3v2c0,0.2,0,0.3-0.1,0.3c0,0-0.1,0-0.3,0l-4.2-0.1h-4.8v2h8.1l3.9-0.1
				c0.2,0,0.3,0,0.3,0.1c0,0,0,0.1,0,0.3v2.2c0,0.2,0,0.3-0.1,0.3c0,0-0.1,0.1-0.3,0.1l-3.9-0.1L709.7,88.5L709.7,88.5z"/>
			<path d="M742.8,74.4c2,0.2,3.2,0.4,3.9,0.6c0.5,0.1,0.7,0.3,0.7,0.6c0,0.2-0.1,0.5-0.3,1c-0.2,0.4-0.3,1.7-0.4,3.7
				c-0.3,4.8-0.5,8.7-0.5,11.9c0,1.7,0.2,2.7,0.6,3.2c0.4,0.4,1.1,0.6,2.3,0.6c1.6,0,3.4-0.5,5.4-1.5c1.9-1,3.7-2.4,5.4-4.2
				c0.1,1.1,0.3,2.1,0.7,2.9c0.2,0.4,0.2,0.6,0.2,0.7c0,0.3-0.2,0.6-0.6,1c-1.7,1.6-3.7,2.8-6,3.6c-1.9,0.7-3.8,1-5.7,1
				c-2.2,0-3.7-0.5-4.6-1.6c-0.8-1-1.2-2.6-1.2-4.7c0-1.9,0.1-6.4,0.4-13.3c0-1,0-1.8,0-2.1C743.2,76.6,743.1,75.4,742.8,74.4
				L742.8,74.4z"/>
			<path d="M769,77.3c1.7,0.2,3,0.5,3.9,1c0.3,0.2,0.5,0.3,0.5,0.6c0,0.2-0.1,0.5-0.3,0.9c-0.2,0.6-0.3,1.6-0.3,3
				c0,2.6,0.2,4.9,0.6,7c0.5,3,1.4,4.5,2.5,4.5c0.5,0,1-0.4,1.5-1.1c0.4-0.6,0.9-1.7,1.5-3.2c0.5,0.8,1.2,1.6,2,2.4
				c0.2,0.2,0.3,0.4,0.3,0.7c0,0.1,0,0.3-0.1,0.5c-0.6,1.7-1.4,2.9-2.4,3.7c-0.9,0.7-1.8,1.1-2.8,1.1c-1.4,0-2.6-0.8-3.7-2.3
				c-1-1.5-1.7-3.4-2.1-5.7c-0.5-2.9-0.7-5.9-0.7-9C769.4,79.8,769.3,78.5,769,77.3L769,77.3z M784.8,81.7c1-0.6,1.8-1.1,2.4-1.4
				c0.2-0.1,0.3-0.1,0.3-0.1c0.1,0,0.2,0.1,0.3,0.2c1.5,1.3,2.8,3,4,5.1c1,1.8,1.7,3.6,2,5.4c0,0.1,0,0.1,0,0.2
				c0,0.2-0.1,0.3-0.4,0.5c-0.9,0.6-1.7,1-2.4,1.2c-0.1,0-0.2,0-0.3,0c-0.2,0-0.3-0.1-0.4-0.4c-0.6-2.4-1.3-4.5-2.3-6.2
				C787.4,84.7,786.2,83.1,784.8,81.7L784.8,81.7z"/>
			<path d="M803.3,80c0.7,0.4,1.4,0.9,2.2,1.4c0.3,0.2,0.4,0.4,0.4,0.6c0,0.2-0.1,0.3-0.3,0.5c-0.2,0.1-0.5,0.5-0.9,1
				c-0.4,0.7-0.8,1.4-1.4,2.1V97l0.1,3.8c0,0.2,0,0.3-0.1,0.3c0,0-0.1,0-0.3,0h-2.5c-0.2,0-0.3,0-0.3-0.1c0,0,0-0.1,0-0.3l0.1-3.8
				v-4.5c0-0.8,0-2,0.1-3.6c-0.7,0.6-1.2,1.1-1.5,1.3c-0.3,0.3-0.6,0.4-0.6,0.4c-0.2,0-0.3-0.2-0.4-0.7c-0.2-0.8-0.4-1.5-0.8-2.2
				c2.3-1.8,4.1-3.9,5.5-6.2C802.7,81.3,803,80.7,803.3,80L803.3,80z M802.7,73c0.7,0.3,1.6,0.8,2.5,1.4c0.3,0.2,0.4,0.4,0.4,0.6
				c0,0.2-0.1,0.3-0.3,0.4c-0.2,0.1-0.5,0.4-0.9,0.9c-1.3,1.7-2.9,3.4-4.9,5c-0.3,0.3-0.5,0.4-0.6,0.4c-0.1,0-0.3-0.2-0.5-0.7
				c-0.3-0.8-0.7-1.5-1.1-2.1c1.8-1.2,3.4-2.7,4.6-4.4C802.3,73.9,802.6,73.4,802.7,73z M813.1,92.1h-0.3v3c1.6-0.3,2.9-0.6,4.1-0.9
				c-0.1,0.5-0.2,1-0.2,1.6c0,0.5-0.1,0.8-0.2,0.9c-0.1,0.1-0.4,0.2-0.8,0.3c-2.8,0.6-5.4,1.2-8,1.6c-0.7,0.1-1.2,0.3-1.5,0.4
				c-0.3,0.2-0.4,0.2-0.6,0.2c-0.1,0-0.2-0.1-0.3-0.4c-0.3-0.8-0.5-1.8-0.7-2.9c0.9,0,1.8-0.1,2.8-0.2l2.4-0.3v-3.5h-0.4l-3.2,0.1
				c-0.2,0-0.3,0-0.3-0.1c0,0,0-0.1,0-0.3v-2.1c0-0.2,0-0.3,0.1-0.3c0,0,0.1,0,0.3,0l3.2,0.1h0.4v-0.3c0-1.1-0.1-2-0.2-2.8
				c1.2,0,2.2,0.1,3.1,0.2c0.4,0,0.5,0.1,0.5,0.3c0,0.1-0.1,0.3-0.2,0.6c-0.1,0.3-0.2,0.7-0.2,1.3v0.6h0.3l3.2-0.1
				c0.2,0,0.3,0,0.3,0.1c0,0,0,0.1,0,0.3v2.1c0,0.2,0,0.3-0.1,0.3c0,0-0.1,0.1-0.3,0.1L813.1,92.1L813.1,92.1z M813.1,79.7h-0.3V83
				h0.5l3.4-0.1c0.2,0,0.3,0,0.3,0.1c0,0,0,0.1,0,0.3v2.2c0,0.2-0.1,0.3-0.3,0.3l-3.4-0.1H809l-3.4,0.1c-0.2,0-0.3-0.1-0.3-0.3v-2.2
				c0-0.2,0-0.3,0.1-0.3c0,0,0.1,0,0.3,0l3.4,0.1h0.7v-3.2h-0.3l-3.1,0.1c-0.2,0-0.3,0-0.3-0.1c0,0,0-0.1,0-0.3v-2.1
				c0-0.2,0-0.3,0.1-0.3c0,0,0.1,0,0.3,0l3.1,0.1h0.3v-1c0-1.3-0.1-2.3-0.2-3c1.1,0,2.2,0.1,3.1,0.3c0.3,0,0.5,0.1,0.5,0.3
				c0,0.1-0.1,0.3-0.2,0.6c-0.1,0.4-0.2,0.9-0.2,1.6v1.2h0.3l3.1-0.1c0.2,0,0.3,0,0.3,0.1c0,0,0,0.1,0,0.3v2.1c0,0.2,0,0.3-0.1,0.3
				s-0.1,0-0.3,0C816.3,79.8,813.1,79.7,813.1,79.7z M816.5,97.5c0.8,0.1,1.7,0.2,2.6,0.2c0.4,0,0.7-0.1,0.9-0.3
				c0.1-0.2,0.2-0.5,0.2-0.9V84.6l-2.3,0.1c-0.2,0-0.3,0-0.3-0.1c0,0,0-0.1,0-0.3V82c0-0.2,0-0.3,0.1-0.3c0,0,0.1,0,0.3,0l2.6,0.1
				h2.5l2.6-0.1c0.2,0,0.3,0,0.3,0.1c0,0,0,0.1,0,0.3v2.3c0,0.2,0,0.3-0.1,0.3c0,0-0.1,0-0.3,0l-2.4-0.1v6.5l0.1,6
				c0,1.5-0.3,2.5-1,3c-0.4,0.3-0.8,0.5-1.5,0.6c-0.6,0.1-1.4,0.1-2.6,0.1c-0.5,0-0.8-0.1-0.9-0.2c-0.1-0.1-0.2-0.4-0.2-0.9
				C817.1,99,816.8,98.2,816.5,97.5L816.5,97.5z M825.2,75c0.2,0,0.3,0.1,0.3,0.3v2.3c0,0.2-0.1,0.3-0.3,0.3l-2.4-0.1h-2.2l-2.4,0.1
				c-0.2,0-0.3,0-0.3-0.1c0,0,0-0.1,0-0.3v-2.3c0-0.2,0-0.3,0.1-0.3c0,0,0.1,0,0.3,0l2.4,0.1h2.2L825.2,75z"/>
			<path d="M832.7,99.9l-3.8,0.1c-0.2,0-0.3-0.1-0.3-0.3v-2.4c0-0.2,0.1-0.3,0.3-0.3l3.8,0.1h4.9V82.7h-3.7l-4,0.1
				c-0.2,0-0.3,0-0.3-0.1c0,0-0.1-0.1-0.1-0.3V80c0-0.2,0-0.3,0.1-0.3c0,0,0.1,0,0.3,0l4,0.1h10c1-1.6,1.9-3.2,2.6-5
				c0.2-0.4,0.3-0.9,0.4-1.5c1.3,0.3,2.3,0.5,3.1,0.8c0.3,0.1,0.4,0.3,0.4,0.5c0,0.1-0.1,0.3-0.3,0.5c-0.3,0.3-0.5,0.6-0.7,0.9
				c-0.7,1.5-1.4,2.7-2.2,3.9h3.6l4-0.1c0.2,0,0.3,0,0.3,0.1c0,0,0,0.1,0,0.3v2.3c0,0.2,0,0.3-0.1,0.3c0,0-0.1,0-0.3,0l-4-0.1h-4.2
				V97h5.3l3.8-0.1c0.2,0,0.3,0.1,0.3,0.3v2.4c0,0.2-0.1,0.3-0.3,0.3l-3.8-0.1L832.7,99.9L832.7,99.9z M833.5,85.3
				c1,2.2,2,4.7,2.8,7.5c0,0.1,0,0.2,0,0.2c0,0.1-0.1,0.2-0.4,0.3l-2.1,0.8c-0.2,0-0.3,0.1-0.3,0.1c-0.1,0-0.2-0.1-0.3-0.3
				c-0.8-2.8-1.7-5.3-2.7-7.5c-0.1-0.1-0.1-0.2-0.1-0.2c0-0.1,0.1-0.2,0.4-0.3l2-0.7c0.2-0.1,0.3-0.1,0.4-0.1
				C833.3,85.1,833.4,85.2,833.5,85.3L833.5,85.3z M837.5,73.6c1.1,1.5,2,2.9,2.6,4.1c0.1,0.1,0.1,0.2,0.1,0.2
				c0,0.1-0.1,0.2-0.4,0.3l-2.1,0.9c-0.2,0.1-0.3,0.1-0.3,0.1c-0.1,0-0.2-0.1-0.3-0.3c-0.6-1.5-1.4-2.9-2.4-4.1
				c-0.1-0.1-0.1-0.2-0.1-0.2c0-0.1,0.1-0.2,0.4-0.3l2-0.9c0.2-0.1,0.3-0.1,0.3-0.1C837.3,73.4,837.4,73.4,837.5,73.6z M840.7,97
				h3.1V82.7h-3.1V97z M847.6,93.5c1.2-2.1,2.2-4.2,3-6.5c0.3-0.7,0.4-1.4,0.5-2.1c1.2,0.3,2.1,0.6,2.7,0.9c0.4,0.2,0.6,0.4,0.6,0.6
				c0,0.1-0.1,0.3-0.3,0.5c-0.2,0.2-0.3,0.5-0.5,0.9c-0.8,2.1-1.7,4.1-2.7,6c-0.3,0.5-0.5,0.7-0.6,0.7c-0.1,0-0.3-0.1-0.7-0.3
				C849.1,94,848.5,93.8,847.6,93.5z"/>
			<path d="M878.7,87.3c0.3-1.5,0.5-2.8,0.6-4c0-0.3,0-0.6,0-0.9c0-0.4,0-0.8-0.1-1.2c1.6,0.4,2.8,0.8,3.6,1.3
				c0.2,0.1,0.3,0.3,0.3,0.5c0,0.1,0,0.2-0.1,0.3c-0.3,0.6-0.5,1-0.5,1.2c-0.2,1-0.5,2.3-0.9,4c1.8,0.9,3.4,1.9,4.8,3
				c0.2,0.1,0.3,0.2,0.3,0.3c0,0.1,0,0.2-0.1,0.3c-0.4,1-0.8,1.8-1.3,2.6c-0.1,0.1-0.2,0.2-0.3,0.2c-0.1,0-0.2-0.1-0.4-0.2
				c-1.3-1.2-2.7-2.1-4-2.9c-0.9,1.9-1.8,3.5-2.8,4.8c-0.9,1.2-2.1,2.3-3.4,3.3c-0.3,0.2-0.5,0.3-0.6,0.3c-0.1,0-0.3-0.1-0.5-0.2
				c-0.7-0.6-1.6-1-2.7-1.3c2-1.4,3.5-2.8,4.7-4.3c0.9-1.2,1.7-2.5,2.2-4.1c-1.8-0.9-3.8-1.5-6.1-1.9c-1.5,3.1-2.7,5.2-3.8,6.2
				c-1.1,1.1-2.4,1.7-3.9,1.7c-1.1,0-2-0.4-2.6-1.1c-0.7-0.8-1-1.8-1-3.1c0-2.1,1-3.7,2.9-5.1c1.7-1.2,3.8-1.7,6.1-1.7
				c1-2.6,1.9-5,2.6-7.3c-1.4,0.2-2.8,0.3-4.2,0.5c-0.5,0.1-1,0.2-1.4,0.3c-0.2,0.1-0.4,0.1-0.6,0.1c-0.2,0-0.4-0.1-0.5-0.3
				c-0.3-0.6-0.6-1.7-0.9-3.4c0.6,0.1,1.3,0.2,2.1,0.2c0.2,0,0.4,0,0.6,0c1.3,0,2.9-0.1,4.8-0.4c0.6-0.1,1.1-0.3,1.5-0.5
				c0.1-0.1,0.2-0.1,0.4-0.1c0.2,0,0.3,0,0.4,0.1c0.8,0.5,1.5,1,2.1,1.7c0.2,0.2,0.3,0.4,0.3,0.5c0,0.1-0.1,0.3-0.3,0.5
				c-0.2,0.2-0.4,0.4-0.5,0.8l-0.3,0.8c-1.5,4-2.4,6.3-2.6,6.7C874.6,86,876.6,86.5,878.7,87.3L878.7,87.3z M868.2,88.4
				c-1.6,0.1-2.9,0.5-3.9,1.3c-0.8,0.6-1.2,1.4-1.2,2.2c0,0.9,0.4,1.4,1.1,1.4c0.6,0,1.2-0.4,1.8-1.2
				C866.7,91.2,867.4,90,868.2,88.4L868.2,88.4z"/>
		</g>
		<line class="st2" x1="427.9" y1="60.8" x2="889.2" y2="60.8"/>
		<g>
			<path d="M326.1,102.1h-78.6l24.8-26c8.8-9.3,15.4-17.3,20.1-24.8c2.6-4.1,5.3-9,5.3-15.3c0-1,0-6.2-2.9-9.4
				c-1.5-1.6-4-2.9-7.2-2.9c-4.1,0-6.9,1.9-8.5,4c-2.4,3.1-3.4,8.7-3.5,12h-26.3c0.1-12.8,5.7-22,10.9-27.2
				c6.6-6.6,15.6-10.6,27.8-10.6c14.7,0,23.2,5.7,27.6,10.1c4,4,9.6,11.5,9.6,24.1c0,12.3-5.7,20.9-14.5,29.1l-16.5,15.3h32
				L326.1,102.1L326.1,102.1z"/>
			<path d="M404.4,64h11.9v19.5h-11.9v18.5h-23.5V83.6h-47.5V67.2l37.8-63.2h33.2V64z M380.9,64V24l-23.1,40H380.9z"/>
		</g>
		<path d="M435.2,90.6c0,0.3,0,0.5,0,0.9c0,0.3,0,0.6,0,0.9c0,0.3,0,0.4,0,0.5c0,0.3-0.1,0.4-0.2,0.5c-0.1,0.1-0.3,0.2-0.7,0.3
			c-1.4,0.6-3.2,1.3-5.5,2c-0.6,0.2-0.9,0.4-1,0.5c-0.1,0.1-0.3,0.2-0.5,0.2s-0.3-0.1-0.4-0.4c-0.3-0.8-0.5-1.7-0.7-2.8
			c0.9-0.1,1.5-0.3,2.1-0.4V80c0-2.2-0.1-3.8-0.2-4.8c0.8,0.1,1.8,0.4,2.8,0.7c2.3-0.4,4.4-1,6.6-1.9c0.6-0.2,1.1-0.5,1.6-0.9
			c0.8,0.7,1.5,1.3,2,2c0.2,0.2,0.2,0.4,0.2,0.5c0,0.2-0.2,0.3-0.6,0.4c-0.4,0.1-0.8,0.2-1.3,0.3c-0.6,0.3-1.2,0.5-1.9,0.6
			c0.1,2.4,0.1,4.2,0.2,5.5c1-0.1,1.9-0.1,2.8-0.2c0.6-0.1,0.9-0.1,1-0.1c0,0,0.1,0,0.1,0c0.2,0,0.2,0.1,0.2,0.3l0.1,2.3
			c0,0.2-0.1,0.3-0.3,0.4c-0.5,0-1.7,0.1-3.7,0.2c0.2,1.6,0.3,2.9,0.6,4c0.5,2.6,0.9,3.9,1.3,3.9c0.3,0,0.5-0.3,0.6-1
			c0.1-0.4,0.1-1.3,0.3-2.8c0.4,0.4,0.9,0.8,1.4,1.1c0.3,0.2,0.5,0.3,0.6,0.5c0.1,0.1,0.1,0.3,0.1,0.5c0,0.1,0,0.3,0,0.5
			c-0.2,1.8-0.6,3-1.1,3.8c-0.4,0.6-1,0.8-1.8,0.8c-2,0-3.4-2.2-4.2-6.5c-0.2-1.2-0.4-2.7-0.6-4.6l-3.8,0.2V92
			C432.7,91.6,434,91.1,435.2,90.6L435.2,90.6z M436.3,100.3h-4.5l-3.4,0.1c-0.2,0-0.3,0-0.3-0.1c0,0,0-0.1,0-0.3v-2.3
			c0-0.2,0-0.2,0.1-0.3c0,0,0.1-0.1,0.3-0.1l3.4,0.1h4.5l3.4-0.1c0.2,0,0.4,0.1,0.4,0.3v2.3c0,0.2,0,0.3-0.1,0.3s-0.1,0-0.3,0
			L436.3,100.3z M434.7,77.9c-1.5,0.3-2.6,0.6-3.4,0.7v4.3l3.6-0.2C434.9,81.6,434.8,80,434.7,77.9z M447,94.1c0.1,0,0.2,0,0.3,0
			c2.6,0,3.9-0.8,3.9-2.5c0-1.1-0.3-2.1-0.8-3c-0.6-1-1.6-2.1-3.1-3.4c1.2-2.4,2.2-5.1,3.2-8.1h-4.1v17.3l0.1,6.5
			c0,0.2-0.1,0.3-0.3,0.3h-2.5c-0.2,0-0.3,0-0.3-0.1c0,0,0-0.1,0-0.2l0.1-6.4V81.1l-0.1-6.5c0-0.2,0-0.3,0.1-0.3c0,0,0.2,0,0.3,0
			l2.8,0.1h4.7c0.4,0,0.7,0,0.8-0.1c0.2-0.1,0.3-0.1,0.5-0.1c0.3,0,0.7,0.3,1.3,0.9c0.5,0.6,0.7,1,0.7,1.2c0,0.2-0.1,0.4-0.3,0.6
			c-0.2,0.1-0.4,0.5-0.6,1.1c-1,2.6-1.9,4.8-2.8,6.7c1.5,1.4,2.5,2.7,3.1,4c0.4,1,0.6,2,0.6,3.2c0,3.2-1.8,4.9-5.4,5.2
			c-0.3,0-0.5,0-0.5,0c-0.2,0-0.4-0.1-0.4-0.2c0-0.1-0.1-0.3-0.1-0.7C447.7,95.3,447.4,94.6,447,94.1L447,94.1z"/>
		<path d="M469.1,87l-7-7l1.2-1.3l7,7l7-7l1.3,1.2l-7,7l7,7l-1.3,1.2l-7-7l-7,7l-1.2-1.2L469.1,87z"/>
		<g>
			<path class="st3" d="M1066.3,83c0,1.9-0.2,3.6-0.4,5h6.8l0.9-1.1c1,0.7,1.4,1.2,1.4,1.5c0,0.1-0.1,0.2-0.2,0.3l-0.6,0.3
				c-0.1,4.5-0.6,7.5-1.4,8.9c-0.6,1-1.6,1.5-3,1.5c0-0.5-0.4-0.8-1-1.1c-0.5-0.2-1.4-0.4-2.7-0.7v-0.6c1.5,0.3,2.9,0.4,3.9,0.4
				c1.1,0,1.8-0.5,2.1-1.4c0.5-1.6,0.7-4.1,0.9-7.6h-7c-1,5.3-3.7,9.1-8.2,11.3l-0.4-0.5c2.7-1.7,4.6-3.8,5.7-6.4
				c1.2-2.5,1.8-5.9,1.9-10h-7.3l-0.2-0.6h16.2l1.3-1.7c0.6,0.5,1.2,1.1,1.7,1.7l-0.2,0.5L1066.3,83L1066.3,83z"/>
			<path class="st3" d="M1096.3,82.3l0.9-1c1,0.7,1.4,1.2,1.4,1.4c0,0.1-0.1,0.2-0.2,0.3l-0.6,0.3v14.9c0,1.2-0.8,1.9-2.5,1.9
				c0-0.4-0.3-0.7-0.9-1c-0.5-0.2-1.3-0.3-2.6-0.5V98c1.5,0.1,2.7,0.2,3.6,0.2c0.7,0,1-0.2,1-0.7v-6.6h-13.9v9.3h-1.3V81.6
				c0.4,0.2,1,0.4,1.6,0.7L1096.3,82.3L1096.3,82.3z M1082.6,90.2h6.3v-7.4h-6.3V90.2z M1096.5,82.9h-6.3v7.4h6.3V82.9z"/>
			<path class="st3" d="M1102.9,92c-0.3,0-0.5-0.2-0.5-0.5c0-0.2,0.1-0.4,0.4-0.7c2-2,3.7-2.9,5.4-2.9c1.5,0,3,0.7,4.8,2.1
				c1.8,1.3,3.2,1.9,4.4,1.9c1.5,0,2.8-0.9,4.5-2.2c0.3-0.2,0.5-0.3,0.7-0.3c0.1,0,0.2,0.1,0.2,0.2c0,0.1-0.1,0.3-0.3,0.5
				c-1.9,2.1-3.5,3-5.2,3c-1.5,0-3.2-0.8-5.1-2.2c-1.5-1.1-2.8-1.7-4-1.7c-1.4,0-2.8,0.8-4.6,2.4C1103.3,91.9,1103.1,92,1102.9,92
				L1102.9,92z"/>
		</g>
		<g>
			<path class="st3" d="M904.5,28.2c1-1.1,1.8-2.3,2.3-3.6c1,0.4,1.5,0.8,1.5,1c0,0.1-0.2,0.2-0.7,0.2c-0.7,1-1.6,2-2.7,2.8
				C904.8,28.5,904.5,28.2,904.5,28.2z M909.8,13.1l0.7-0.8c0.8,0.6,1.1,0.9,1.1,1.1c0,0.1,0,0.1-0.1,0.2l-0.5,0.4v10.3h-1v-0.8
				h-3.2v1h-1V12.5c0.1,0.1,0.3,0.1,0.4,0.2c0.1,0,0.3,0.2,0.8,0.4L909.8,13.1L909.8,13.1z M906.8,16.3h3.2v-2.7h-3.2V16.3z
				 M910,16.8h-3.2v2.8h3.2V16.8z M910,20h-3.2v3h3.2V20z M910.9,27.2c-0.3,0-0.5-0.2-0.6-0.5c-0.2-0.7-0.8-1.4-1.6-2l0.2-0.4
				c1.7,0.7,2.5,1.4,2.5,2.2c0,0.1,0,0.2,0,0.2c0.8-2,1.2-4.7,1.2-8.2v-5.7c0.4,0.2,0.9,0.4,1.4,0.7h5.3l0.9-1.2
				c0.5,0.5,1,0.9,1.3,1.3l-0.2,0.4h-7.6v4h5.3l0.7-0.9c0.8,0.7,1.2,1.1,1.2,1.3c0,0.1-0.1,0.1-0.2,0.2l-0.6,0.3
				c-0.4,1.8-1.2,3.6-2.2,5.2c1,1.2,2.3,2.2,3.9,3c-0.4,0.3-0.7,0.7-0.9,1.1c-1.4-1-2.6-2.1-3.5-3.3c-1.1,1.5-2.6,2.6-4.4,3.5
				l-0.3-0.4c1.7-1,3-2.3,4-3.9l0.1-0.1c-1-1.6-1.7-3.4-2.2-5.7h-0.8c0,2.3-0.2,4.2-0.5,5.6c-0.4,1.7-1.2,3.2-2.3,4.4l-0.4-0.3
				c0.3-0.4,0.5-0.8,0.7-1.3C911.2,27.1,911.1,27.2,910.9,27.2L910.9,27.2z M915.2,18.8c0.5,1.8,1.2,3.3,2.1,4.6
				c0.8-1.3,1.4-2.9,1.8-4.8h-4C915.1,18.5,915.2,18.8,915.2,18.8z"/>
			<path class="st3" d="M923.5,28.2c2.4-0.7,4-1.8,4.7-3.3c0.4-0.9,0.7-2.3,0.7-4c1.2,0.1,1.9,0.3,1.9,0.5c0,0.2-0.2,0.3-0.7,0.5
				c-0.1,2.4-0.9,4.2-2.3,5.2c-0.9,0.7-2.3,1.2-4,1.5L923.5,28.2z M937.8,19.5l0.7-0.9c0.9,0.8,1.4,1.3,1.4,1.5
				c0,0.1-0.1,0.2-0.3,0.2l-0.6,0.1c-0.6,0.7-1.2,1.3-1.9,1.8l-0.4-0.3c0.4-0.6,0.8-1.3,1.1-2h-11.7c-0.1,0.9-0.2,1.6-0.6,2.2
				c-0.3,0.5-0.7,0.8-1,0.8c-0.5,0-0.7-0.2-0.7-0.7c0-0.2,0.1-0.4,0.5-0.7c0.7-0.7,1.2-1.6,1.3-2.8l0.5,0.1c0,0.2,0,0.4,0,0.7H937.8
				L937.8,19.5z M931.2,14.9h-7l-0.2-0.5h7.2v-2.7c1.3,0,2,0.2,2,0.4c0,0.2-0.3,0.3-0.9,0.5v1.7h5.1l1-1.3c0.4,0.4,0.9,0.9,1.3,1.4
				l-0.2,0.4h-7.2v2.3h3.7l0.9-1.2l0.3,0.3c0.3,0.3,0.7,0.6,1,1l-0.2,0.4h-12.5l-0.1-0.5h5.8L931.2,14.9L931.2,14.9z M939.2,23.9
				c0,0.3,0,0.6,0,1c0,0.9,0.1,1.4,0.2,1.6c0.1,0.2,0.3,0.2,0.6,0.3c0,0.6-0.3,1-0.9,1.1c-0.5,0.1-1.5,0.1-2.9,0.1
				c-1.7,0-2.7-0.1-3-0.3c-0.2-0.2-0.4-0.5-0.4-1v-5.8c1.3,0.1,1.9,0.2,1.9,0.5c0,0.2-0.3,0.3-0.8,0.5v4.5c0,0.3,0.1,0.5,0.3,0.6
				C934.4,27,935,27,936,27c1.3,0,2-0.2,2.2-0.5c0.2-0.4,0.4-1.3,0.6-2.8L939.2,23.9L939.2,23.9z"/>
			<path class="st3" d="M946,17.8c0,0.1-0.3,0.3-0.8,0.5v10.3h-1.1v-9.4c-0.6,1.2-1.3,2.3-2,3.4l-0.4-0.3c1.7-2.9,2.9-6.4,3.7-10.5
				c1.1,0.2,1.7,0.5,1.7,0.7c0,0.2-0.3,0.3-0.8,0.4c-0.5,1.7-1,3.2-1.5,4.5C945.6,17.4,946,17.5,946,17.8z M950.5,17.7v-3.8h-3.7
				l-0.2-0.5h10l1-1.3c0.5,0.4,0.9,0.9,1.4,1.4l-0.2,0.4h-4.2v3.8h1.9l0.8-0.9c0.8,0.6,1.2,1,1.2,1.2c0,0.1-0.1,0.2-0.2,0.2
				l-0.4,0.3v9.9h-1.1v-1.4h-8.3v1.4h-1.1V17c0.5,0.2,0.9,0.5,1.2,0.7C948.7,17.7,950.5,17.7,950.5,17.7z M948.6,26.4h1.9v-8.3h-1.9
				V26.4z M953.6,17.7v-3.8h-2v3.8H953.6z M951.6,26.4h2v-8.3h-2V26.4z M956.9,18.1h-2.2v8.3h2.2V18.1z"/>
			<path class="st3" d="M963.4,19.4c-0.7,2.1-1.6,3.9-2.6,5.6l-0.4-0.2c1.4-2.6,2.4-5.3,3-8.3h-2.6l-0.1-0.5h2.8v-4.2
				c1.2,0.1,1.8,0.2,1.8,0.5c0,0.1-0.2,0.3-0.7,0.4v3.2h1l0.9-1.3l0.2,0.2c0.3,0.3,0.6,0.7,0.9,1.1l-0.2,0.4h-2.8v1.7
				c1.7,1.1,2.5,2.2,2.5,3.1c0,0.5-0.2,0.7-0.6,0.7c-0.3,0-0.5-0.2-0.6-0.7c-0.2-0.9-0.7-1.8-1.3-2.6v9.8h-1.1L963.4,19.4
				L963.4,19.4z M967.1,19.1l-0.4-0.4c1.7-1.9,3-4.2,3.8-6.9c1.1,0.3,1.6,0.6,1.6,0.8c0,0.1-0.3,0.3-0.8,0.3c-0.2,0.4-0.3,0.7-0.4,1
				h3.3l0.7-0.9c0.8,0.7,1.2,1.1,1.2,1.3c0,0.1-0.1,0.2-0.2,0.2l-0.5,0.2c-0.7,1.3-1.5,2.5-2.5,3.6c1.4,1.2,3.1,2.1,5.1,2.8
				c-0.3,0.3-0.6,0.6-0.8,1.1c-2-1-3.6-2-4.8-3.2c-1.6,1.6-3.5,2.9-5.8,3.9l-0.3-0.4c2.1-1.1,3.9-2.6,5.4-4.3
				c-0.6-0.7-1.2-1.5-1.8-2.5C969.1,17,968.2,18.1,967.1,19.1z M974.4,22.5l0.7-0.7c0.8,0.6,1.2,0.9,1.2,1.1c0,0.1,0,0.1-0.1,0.2
				l-0.5,0.3v5.2h-1.1v-1h-4.8v1h-1v-6.5c0.1,0,0.5,0.2,1.2,0.4H974.4L974.4,22.5z M969.7,27.1h4.8V23h-4.8V27.1z M972.1,17.8
				c0.9-1,1.6-2.2,2.1-3.3h-3.6c0,0.1-0.2,0.4-0.5,0.9C970.7,16.2,971.4,17.1,972.1,17.8z"/>
		</g>
		<g>
			<path class="st3" d="M1061.5,75.8c-2.3-1.6-3.5-4-3.5-7.1c0-2,0.5-3.7,1.6-5.2c0.5-0.7,1.2-1.4,1.9-1.9h0.6
				c-2.2,1.7-3.3,4.1-3.3,7.1c0,3,1.1,5.4,3.3,7.1H1061.5z"/>
			<path class="st3" d="M1066.6,68.9c-0.6,1.6-1.3,3-2.3,4.3L1064,73c1.2-2,2.1-4.1,2.5-6.4h-2.2l-0.1-0.4h2.4v-2.6
				c-0.7,0.2-1.4,0.3-2.2,0.4l-0.1-0.3c1.9-0.4,3.4-1,4.5-1.7c0.7,0.4,1,0.7,1,0.9c0,0.1-0.1,0.1-0.3,0.1c-0.1,0-0.3,0-0.5-0.1
				c-0.6,0.2-1.1,0.3-1.6,0.5v2.8h0.9l0.7-1c0.3,0.4,0.6,0.7,0.9,1.1l-0.2,0.3h-2.3V68c1.5,0.9,2.3,1.7,2.3,2.6
				c0,0.4-0.2,0.5-0.5,0.5c-0.2,0-0.4-0.2-0.6-0.6c-0.2-0.7-0.6-1.4-1.3-2v7.3h-0.9L1066.6,68.9L1066.6,68.9z M1075.2,69.8v4.4
				c0,0.3,0.3,0.5,0.9,0.5s1-0.2,1.1-0.5c0.1-0.4,0.2-1.2,0.3-2.3l0.4,0.2c0,1.3,0.1,2,0.2,2.2c0.1,0.2,0.2,0.2,0.5,0.2
				c0,0.4-0.2,0.7-0.5,0.8c-0.3,0.1-0.9,0.2-1.9,0.2c-0.8,0-1.3-0.1-1.6-0.2c-0.2-0.1-0.3-0.4-0.3-0.9v-4.7h-1.2
				c0,1.6-0.3,2.8-0.8,3.7c-0.6,1.1-1.7,1.9-3.3,2.4l-0.3-0.4c1.6-0.8,2.6-1.9,3.1-3.3c0.2-0.7,0.3-1.5,0.3-2.5h-0.9v0.8h-0.9v-5.5
				c0.4,0.2,0.7,0.3,1,0.5h2.9c0.5-1.1,1-2.4,1.4-3.8c1,0.4,1.4,0.6,1.5,0.8c0,0.1-0.2,0.2-0.7,0.3c-0.4,0.8-1,1.7-1.6,2.7h1.4
				l0.5-0.7c0.6,0.5,1,0.8,1,1c0,0.1,0,0.1-0.1,0.2l-0.4,0.3v4.2h-0.9v-0.7C1076.3,69.8,1075.2,69.8,1075.2,69.8z M1071,62
				c1.4,0.9,2.1,1.8,2.1,2.8c0,0.4-0.2,0.6-0.5,0.6c-0.2,0-0.4-0.2-0.5-0.6c-0.2-0.9-0.6-1.7-1.4-2.5L1071,62L1071,62z M1076.3,66
				h-5v3.4h5V66z"/>
			<path class="st3" d="M1083.3,72.3c0.5,0.9,1.3,1.5,2.4,1.8c1,0.3,2.4,0.4,4.1,0.4c1.1,0,2.5-0.1,4.2-0.2
				c-0.2,0.4-0.4,0.8-0.5,1.1h-3.3c-2.1,0-3.7-0.2-4.8-0.6c-1.1-0.4-1.9-1-2.3-1.9c-0.1,0.1-0.1,0.1-0.2,0.2c-0.6,0.8-1.3,1.5-2,2
				c0,0.4-0.1,0.6-0.2,0.6c-0.2,0-0.5-0.4-1-1.2c0.9-0.4,1.7-1,2.6-1.6v-4.2h-2.5l-0.1-0.4h2.4l0.6-0.8c0.6,0.5,1,0.8,1,1
				c0,0.1,0,0.1-0.2,0.2l-0.3,0.2C1083.3,69.1,1083.3,72.3,1083.3,72.3z M1080.7,62.4c1.8,0.7,2.8,1.5,2.8,2.3
				c0,0.4-0.2,0.6-0.6,0.6c-0.3,0-0.5-0.2-0.6-0.5c-0.3-0.8-0.9-1.5-1.8-2.1C1080.5,62.7,1080.7,62.4,1080.7,62.4z M1088.4,63.4
				h-2.9l-0.2-0.4h2.8l0.6-0.8c0.7,0.5,1,0.9,1,1c0,0.1-0.1,0.2-0.2,0.2l-0.7,0.3c0,2.3,0.6,4.2,1.7,5.6c0.7,1,1.7,1.9,3,2.8
				c-0.3,0.2-0.6,0.5-0.9,0.9c-2-1.6-3.2-3.4-3.8-5.5c-0.9,2.4-2.3,4.2-4.5,5.5l-0.3-0.3c2.3-1.7,3.8-4.1,4.4-7.1
				C1088.4,65.1,1088.4,64.4,1088.4,63.4L1088.4,63.4z"/>
			<path class="st3" d="M1096.1,75.8c2.2-1.7,3.3-4.1,3.3-7.1c0-3-1.1-5.4-3.3-7.1h0.6c2.3,1.7,3.5,4,3.5,7.1c0,2-0.5,3.7-1.6,5.2
				c-0.5,0.7-1.2,1.4-1.9,1.9H1096.1z"/>
		</g>
		<g>
			<g>
				<path class="st4" d="M903.5,85.5v-4.9h9v5.4c0,4.3,1.9,6,4.9,6c3,0,4.9-1.5,4.9-6.8v-4.9c0-5.6-1.9-7.7-6.2-7.7h-3.2v-8.6h3.5
					c3.5,0,5.7-1.6,5.7-6.4V53c0-4.3-2-6-4.7-6c-2.8,0-4.6,1.6-4.6,5.6v4h-9v-3.2c0-9.7,4.8-15,13.9-15c9.1,0,13.9,5.3,13.9,14.9
					v2.2c0,6.5-2.1,10.4-6.7,12.2v0.2c5.1,1.9,7,6.3,7,12.4v5.4c0,9.7-4.8,14.9-14.2,14.9C908.3,100.5,903.5,95.2,903.5,85.5z"/>
				<path class="st4" d="M938.3,99.6h-3.1v-9.2h9.2v8.2l-4.7,11.3h-4.4L938.3,99.6z"/>
				<path class="st4" d="M949.5,85.3v-4.7h9V86c0,4.3,1.9,5.9,4.9,5.9s4.9-1.6,4.9-5.9V72.4c0-4.3-1.9-6-4.9-6s-4.9,1.6-4.9,6V73h-9
					l1.7-33.8h25v8.6h-16.6l-0.8,14.4h0.2c1.7-2.8,4.4-4.4,8.2-4.4c7,0,10.5,4.9,10.5,13.8v13.6c0,9.7-4.8,15.2-14.2,15.2
					C954.3,100.5,949.5,95,949.5,85.3z"/>
				<path class="st4" d="M983.1,85.6v-5.4c0-5.8,1.7-10,6.2-12.3v-0.2c-4-2.2-5.9-6-5.9-11.9v-2.5c0-9.7,5.3-14.9,14.5-14.9
					c9.2,0,14.5,5.3,14.5,14.9v2.5c0,6-2,9.8-5.9,11.9v0.2c4.5,2.3,6.2,6.6,6.2,12.3v5.4c0,9.7-5.3,14.9-14.8,14.9
					C988.4,100.5,983.1,95.2,983.1,85.6z M1003.3,85v-5.8c0-4.6-1.8-6.8-5.4-6.8c-3.5,0-5.4,2.2-5.4,6.8V85c0,4.6,1.8,6.8,5.4,6.8
					C1001.5,91.9,1003.3,89.6,1003.3,85z M1003,57.8V53c0-4-1.7-6-5-6c-3.3,0-5,2.1-5,6v4.7c0,4,1.7,6,5,6
					C1001.3,63.8,1003,61.7,1003,57.8z"/>
				<path class="st4" d="M1016.4,85.3V53.5c0-9.7,5.1-15.2,14.4-15.2c9.3,0,14.4,5.5,14.4,15.2v31.8c0,9.7-5.1,15.2-14.4,15.2
					C1021.5,100.5,1016.4,95,1016.4,85.3z M1035.7,85.9v-33c0-4.3-1.9-6-4.9-6s-4.9,1.6-4.9,6v33c0,4.3,1.9,6,4.9,6
					S1035.7,90.2,1035.7,85.9z"/>
			</g>
		</g>
	</g>
</g>
</svg>
