<?xml version="1.0" encoding="UTF-8"?>
<svg id="_レイヤー_2" data-name="レイヤー 2" xmlns="http://www.w3.org/2000/svg" viewBox="0 0 633.4015669 94.0342155">
  <defs>
    <style>
      .cls-1 {
        fill: #231815;
      }

      .cls-1, .cls-2, .cls-3 {
        stroke-width: 0px;
      }

      .cls-3 {
        fill: #e60012;
      }
    </style>
  </defs>
  <g id="_レイヤー_2-2" data-name="レイヤー 2">
    <g>
      <path class="cls-2" d="m16.42243,24.3368561h8.2224655l16.3819139,42.5894471h-8.4266407l-3.3323419-8.7719742H11.8902433l-3.4659381,8.7719742H.0001852L16.42243,24.3368561Zm4.1616464,11.2901358l-5.7143866,14.6224777h11.3960044l-5.6816178-14.6224777Z"/>
      <path class="cls-2" d="m69.6466355,30.1268633l-6.0042651,5.2984741c-2.1072904-2.9340741-4.2549116-4.4011112-6.4378224-4.4011112-1.0637279,0-1.935884.2848371-2.6114268.8545113-.6780635.5696742-1.0158349,1.2099275-1.0158349,1.9258012,0,.7133531.2419855,1.3888959.7259565,2.0266285.6578981.8494699,2.6391543,2.6719232,5.9462894,5.4724011,3.0928771,2.58622,4.9682647,4.2171014,5.6261628,4.8926442,1.6434848,1.6586089,2.80804,3.2466387,3.4936656,4.7615688.6881463,1.5174507,1.030959,3.1710183,1.030959,4.965744,0,3.4936656-1.2074068,6.3798468-3.6247411,8.6585435-2.4148136,2.2761761-5.5631457,3.4155244-9.447517,3.4155244-3.0349014,0-5.6765764-.7436013-7.9275456-2.2282831-2.2509692-1.4872025-4.1792912-3.823875-5.7824451-7.0074966l6.8134041-4.1112327c2.0493147,3.7633786,4.4086732,5.6463282,7.0755551,5.6463282,1.3914166,0,2.5610132-.4058298,3.5087897-1.2174895.9477765-.809139,1.4216648-1.7468328,1.4216648-2.80804,0-.9654213-.3579369-1.9308426-1.0738106-2.8962639-.7158738-.9629006-2.2913002-2.4400204-4.7262792-4.4288387-4.640576-3.783544-7.6376672-6.7024941-8.9912736-8.7593708-1.3536064-2.054356-2.0316699-4.1061914-2.0316699-6.1504647,0-2.9542396,1.126745-5.4875252,3.3777142-7.6023776,2.2509692-2.1123317,5.0287611-3.1684976,8.3358962-3.1684976,2.1249351,0,4.149043.491533,6.0723235,1.4745991,1.9232805.9855868,4.0053641,2.7803125,6.2462506,5.3866979Z"/>
      <path class="cls-2" d="m98.2387342,23.2655662c6.0269512,0,11.2069532,2.1803901,15.5425267,6.5436911,4.3380941,4.3607803,6.5058809,9.6794198,6.5058809,15.9533979,0,6.2134817-2.1400592,11.4741456-6.417657,15.7794708-4.2801184,4.3028046-9.4702032,6.4554672-15.5727749,6.4554672-6.3924502,0-11.7060483-2.2106383-15.9357531-6.6293943-4.2297048-4.4212767-6.3445572-9.6718578-6.3445572-15.7517433,0-4.0734225.9855868-7.8166356,2.9567603-11.2346807,1.9686528-3.4155244,4.6783862-6.1227372,8.1266795-8.1216382,3.4457726-1.9963803,7.1587376-2.9945705,11.1388948-2.9945705Zm-.0882239,7.932587c-3.9398263,0-7.2545235,1.3712511-9.9390501,4.1112327-2.6870473,2.7399816-4.0305709,6.2260851-4.0305709,10.4532693,0,4.7086344,1.6913778,8.4342028,5.0741334,11.1741844,2.6265509,2.1425799,5.6412869,3.2138699,9.0416872,3.2138699,3.8440404,0,7.1184066-1.3888959,9.8256194-4.1692084,2.704692-2.7803125,4.0582984-6.2059197,4.0582984-10.2768215,0-4.0557777-1.3636891-7.4864263-4.0885466-10.2944663-2.7248575-2.80804-6.037034-4.21206-9.9415708-4.21206Z"/>
      <path class="cls-2" d="m127.9298503,66.9263033V24.3368561h6.694932c3.8843713,0,6.7251802.2495475,8.5224267.7511633,2.5509304.6755428,4.5826003,1.9308426,6.0899683,3.7658993,1.507368,1.832536,2.261052,3.9952814,2.261052,6.4831947,0,1.6233194-.3428128,3.0953978-1.0284384,4.4162353-.6856256,1.3233582-1.7997671,2.5635338-3.3449453,3.720527,2.58622,1.2174895,4.4792523,2.7374609,5.6740557,4.5599142,1.1973241,1.8249739,1.7972464,3.9826779,1.7972464,6.4705913,0,2.3946481-.6200878,4.5750383-1.8552221,6.5436911-1.237655,1.9686528-2.8307262,3.4407313-4.7842549,4.4162353-1.9510081.975504-4.6456174,1.4619957-8.0863486,1.4619957h-11.9404718Zm8.1065141-34.8610354v8.9761495h1.7720396c1.9762149,0,3.4457726-.4133919,4.4036319-1.245217.9603799-.8293045,1.4393096-1.9585701,1.4393096-3.3877969,0-1.3309202-.4562435-2.3870861-1.3662098-3.1684976-.912487-.7814115-2.2963415-1.1746379-4.156605-1.1746379h-2.0921663Zm0,16.2155489v10.9145541h2.0316699c3.3676315,0,5.6362455-.4234746,6.8083627-1.2729445,1.1695966-.8494699,1.7569155-2.0846042,1.7569155-3.7054029,0-1.8350567-.6881463-3.2819283-2.0619181-4.3431355-1.3737718-1.0612072-3.6575099-1.5930712-6.8512143-1.5930712h-1.6838157Z"/>
      <path class="cls-2" d="m182.4345624,23.2655662c6.0269512,0,11.2069532,2.1803901,15.5425267,6.5436911,4.3380941,4.3607803,6.5058809,9.6794198,6.5058809,15.9533979,0,6.2134817-2.1400592,11.4741456-6.417657,15.7794708-4.2801184,4.3028046-9.4702032,6.4554672-15.5727749,6.4554672-6.3924502,0-11.7060483-2.2106383-15.9357531-6.6293943-4.2297048-4.4212767-6.3445572-9.6718578-6.3445572-15.7517433,0-4.0734225.9855868-7.8166356,2.9567603-11.2346807,1.9686528-3.4155244,4.6783862-6.1227372,8.1266795-8.1216382,3.4457726-1.9963803,7.1587376-2.9945705,11.1388948-2.9945705Zm-.0882239,7.932587c-3.9398263,0-7.2545235,1.3712511-9.9390501,4.1112327-2.6870473,2.7399816-4.0305709,6.2260851-4.0305709,10.4532693,0,4.7086344,1.6913778,8.4342028,5.0741334,11.1741844,2.6265509,2.1425799,5.6412869,3.2138699,9.0416872,3.2138699,3.8440404,0,7.1184066-1.3888959,9.8256194-4.1692084,2.704692-2.7803125,4.0582984-6.2059197,4.0582984-10.2768215,0-4.0557777-1.3636891-7.4864263-4.0885466-10.2944663-2.7248575-2.80804-6.037034-4.21206-9.9415708-4.21206Z"/>
    </g>
    <g>
      <path class="cls-2" d="m14.7128332,3.5180407c-.1071088.260469-.1728346.5404124-.301852.8008814-.1071088.2361261-.1071088.5598867-.2361261.7984471-.109543.260469-.2385604.5185038-.3675778.7570642-.1314517.2580347-.3675778.4308693-.4990294.6913384-.150926.2361261-.2361261.5185038-.3651435.7546299-.150926.2385604-.4771208.3675778-.6280468.5842296-.150926.2385604-.2580347.5185038-.4089607.7351556-.150926.2361261-.1314517.6037039-.3042862.8203557-.150926.2385604-.4527779.3675778-.6256125.562321-.2385604.301852-.5842296.4089607-.9298988.4089607-.2580347,0-.6256125.0876344-.8641729-.1071088-.2580347-.1947432-.4089607-.6256125-.4308693-.9298988-.0438172-.301852.1290174-.6475211.3456692-.9055559.1728346-.1947432.3675778-.411395.5404124-.6499554.150926-.2142175.1728346-.5185038.3456692-.7546299.150926-.2385604.4527779-.3675778.6037039-.6280468.1314517-.2142175.2385604-.4965952.3675778-.7327213.150926-.2385604.1728346-.5404124.301852-.8008814.1314517-.2361261.2823776-.4746865.3894864-.713247.1290174-.2580347.3894864-.4746865.4965952-.713247-.301852-.0194743-.6256125-.0413829-.9079902-.0413829-.301852,0-.6037039-.1290174-.9055559-.1290174s-.6061382.0413829-.9079902.0413829-.6061382.0438172-.8860816.0438172c-.301852,0-.6037039.1071088-.9079902.1290174-.2799433,0-.5817953-.1947432-.8860816-.1947432-.301852,0-.5817953.3261949-.8836473.3261949-.3042862,0-.6061382-.0876344-.8860816-.0657258-.3042862,0-.6061382.0657258-.8860816.0657258-.301852.0194743-.6061382-.0657258-.9079902-.0657258-.301852.0219086-.5842296.1071088-.8860816.1290174s-.6037039-.0852001-.8860816-.0852001c-.3237606.0219086-.6256125-.0438172-.8641729-.2385604C.3261794,3.1942801.0218932,2.9143368.0024188,2.5905762c-.0219086-.3237606.1071088-.7570642.301852-.973716.2142175-.2361261.6256125-.1728346.9712817-.1947432.2799433-.0194743.562321-.301852.8860816-.3237606.2799433,0,.6061382.3042862.9079902.2823776s.6037039-.0219086.9055559-.0438172c.3042862,0,.6061382,0,.9079902-.0219086.3042862,0,.6061382-.0219086.9079902-.0438172.301852,0,.6037039-.2361261.9079902-.2580347.301852,0,.6037039.0219086.9079902.0219086.301852,0,.6037039.1290174.9055559.1290174s.6061382.0219086.9079902.0219086.6061382.0657258.9079902.0657258.6037039-.2385604.9055559-.2385604h.8860816c.3042862.0219086.6061382,0,.9079902.0219086.301852,0,.6061382.1290174.8860816.150926.3894864,0,.713247.1947432.9298988.5185038.1923089.3237606.2799433.6694297.150926,1.0370075-.0876344.2580347-.1728346.5185038-.2823776.7765385Zm-6.8038405,4.06283c-.0438172.2799433-.1947432.562321-.2385604.8422643s-.0852001.562321-.1290174.8641729c-.0438172.2799433-.1290174.562321-.1728346.8422643s-.0876344.562321-.150926.8641729c-.0438172.2823776-.1314517.562321-.1728346.8422643-.0657258.2823776-.0219086.5842296-.0876344.8641729-.0632915.2823776-.0852001.5842296-.1728346.8641729-.0632915.2823776-.2142175.5404124-.301852.82279-.0876344.2580347-.2799433.3456692-.4746865.4965952-.2166518.150926-.3675778.4089607-.6280468.4089607-.1290174,0-.2361261-.0438172-.3456692-.0632915-.3237606-.109543-.4527779-.3894864-.6037039-.671864-.150926-.2580347-.3675778-.5379781-.260469-.8617387.0657258-.260469.3042862-.4990294.3894864-.7570642.0657258-.260469-.1290174-.6061382-.0632915-.8641729.0632915-.2823776.4089607-.4746865.4527779-.7570642.0632915-.2580347-.1290174-.5817953-.0657258-.8641729.0438172-.2580347.0876344-.5404124.1290174-.7984471.0438172-.2823776.2166518-.5404124.260469-.7984471.0438172-.2823776.1947432-.5404124.2166518-.82279.0438172-.2580347.0219086-.5404124.0632915-.8203557.0219086-.2799433.1947432-.5404124.2385604-.7984471.0219086-.2823776-.0876344-.5842296-.0657258-.8446986h-.0219086c.0438172-.3456692.2823776-.5379781.5209381-.7327213.2580347-.1947432.5160695-.4333036.8422643-.3894864.3456692.0438172.5817953.301852.7765385.5404124.1728346.2580347.3456692.5404124.301852.8860816-.0219086.2799433.0438172.5817953,0,.8641729-.0219086.2799433-.1923089.5598867-.2361261.8422643Z"/>
      <path class="cls-2" d="m28.40328,8.0336486c-.1728346.0657258-.2799433.1728346-.4527779.1728346-.2385604,0-.3675778-.1728346-.562321-.301852s-.3456692-.2166518-.4333036-.4308693c-.1071088-.260469-.4308693-.4333036-.5379781-.713247-.109543-.2385604-.2166518-.5185038-.3237606-.7789728-.109543-.2580347.0852001-.6256125,0-.9079902-.109543-.2580347-.4552122-.4527779-.5404124-.7327213-.0657258-.260469-.0219086-.5842296-.0876344-.8641729-.0852001-.260469,0-.5842296-.0632915-.8641729l-.3042862.0632915c-.0852001-.301852.1290174-.6694297.3042862-.9274645.1704003-.260469.4089607-.4965952.7327213-.562321.3237606-.0876344.7351556-.0876344.9956246.0657258.2580347.1704003.2799433.5598867.3651435.8836473.0657258.3042862.3042862.562321.3894864.8641729.0876344.3042862.1728346.6061382.2823776.8860816.0852001.301852.1923089.6061382.301852.8860816.1071088.301852-.0219086.6913384.0852001.9518074.1290174.3237606.3675778.5598867.4746865.8203557.1314517.301852.1947432.6475211.0876344.9298988-.1290174.2799433-.411395.4308693-.713247.5598867Zm8.0794084-4.9464772c-.0632915.301852-.1290174.5842296-.2142175.8641729-.0657258.2799433-.0876344.5817953-.1728346.8641729-.0657258.2799433-.1533603.562321-.2385604.8422643s-.0657258.6037039-.1728346.8860816c-.0876344.2580347-.2799433.5185038-.3894864.7765385-.0852001.2823776-.2361261.5404124-.3456692.82279-.1071088.2799433-.0219086.6256125-.1290174.8836473-.1071088.2823776-.2385604.5404124-.3456692.82279-.1071088.2799433-.3237606.4965952-.4527779.7546299-.109543.2823776-.1728346.562321-.3042862.8422643-.1071088.260469-.1728346.562321-.301852.82279-.1290174.2580347-.2580347.5404124-.3894864.7984471-.1290174.260469-.1728346.5842296-.301852.8422643-.1290174.260469-.4527779.411395-.6037039.6694297,0,.0219086-.0657258-.0413829-.0657258-.0413829-.1071088.2142175-.1290174.4527779-.3237606.5598867-.1728346,0-.411395-.0632915-.6280468-.0632915-.1704003,0-.3651435.0438172-.5379781-.0438172-.3042862-.1728346-.3894864-.4333036-.4771208-.7351556-.0852001-.301852-.2799433-.6256125-.1290174-.9274645.1290174-.2385604.3675778-.4333036.4746865-.6913384.1314517-.2385604.411395-.4333036.5185038-.6694297.1314517-.260469.109543-.5842296.2385604-.8446986.1071088-.2361261.0876344-.5598867.2166518-.8203557.1071088-.2580347.5185038-.3894864.6256125-.6256125.1071088-.260469.1947432-.5404124.301852-.8008814.0876344-.2580347.0219086-.5817953.109543-.8422643.1071088-.2580347.1947432-.5404124.301852-.7984471.0852001-.260469.1947432-.5185038.301852-.7789728.0876344-.2580347.2166518-.5185038.3042862-.7765385.0852001-.2799433.301852-.4965952.3870521-.7570642.0876344-.2799433-.0413829-.6037039.0438172-.8641729.0657258-.2799433.1290174-.5404124.2166518-.8203557.0632915-.2580347.2799433-.4965952.3456692-.7789728.0852001-.3237606.150926-.7108127.4089607-.8617387.260469-.1752689.6499554-.109543.973716-.0438172.3237606.0852001.5185038.3237606.6913384.6037039.150926.260469.150926.5185038.0632915.82279v.1071088Z"/>
      <path class="cls-2" d="m49.3308709,10.8647278c-.0657258.301852-.2166518.5817953-.2823776.8860816-.0632915.301852.0219086.6475211-.0438172.9493731-.0852001.3042862-.2142175.5842296-.301852.8860816-.1071088.2799433-.2166518.562321-.3456692.8422643-.1071088.2166518-.2799433.3042862-.4746865.4333036-.1947432.1071088-.3456692.3675778-.5842296.3675778-.1728346,0-.301852-.1947432-.4746865-.260469-.301852-.1290174-.6256125-.2799433-.7351556-.5817953-.1071088-.2823776-.0632915-.671864.0876344-.973716.0852001-.2166518.0852001-.4746865.1728346-.7546299.0852001-.2385604.301852-.4552122.3675778-.713247.0413829-.2385604.1290174-.4990294.1947432-.7570642.0413829-.2580347.150926-.5185038.1923089-.7789728.0438172-.2580347-.1290174-.5598867-.0852001-.7984471.0438172-.3237606.3456692-.562321.6037039-.7351556.2385604-.1947432.5185038-.2142175.8422643-.1728346.3261949.0438172.6280468.109543.82279.3675778.1728346.2385604.150926.5404124.1071088.8641729-.0438172.3042862-.0219086.6061382-.0632915.9298988Zm8.4883691-4.3646819c-.2361261.2166518-.5379781.2385604-.8641729.2385604-.3870521,0-.3870521.0219086-.7765385.0219086s-.3894864-.0876344-.7789728-.0876344c-.3870521,0-.3870521.1728346-.7765385.1728346-.3675778,0-.411395-.2166518-.6694297.0657258-.3042862.3237606-.260469.3675778-.260469.7984471,0,.4333036.0657258.4333036.0657258.8860816,0,.4308693-.0219086.4308693-.0219086.8641729v.8641729c0,.4308693.0657258.4308693.0657258.8860816v.8641729c0,.4308693.2361261.4308693.2361261.8641729,0,.4308693-.301852.4308693-.301852.8860816,0,.4308693.0438172.4308693.0438172.8641729,0,.3237606.0219086.6913384-.1947432.9055559-.2166518.2166518-.5842296.2385604-.9298988.2385604-.3237606,0-.6475211-.0632915-.8641729-.2799433s-.1728346-.5404124-.1728346-.8641729c0-.4333036.0219086-.4333036.0219086-.8860816,0-.4333036-.2166518-.4333036-.2166518-.8641729,0-.4333036-.1071088-.4333036-.1071088-.8860816,0-.4308693.2580347-.4308693.2580347-.8641729s-.1071088-.4333036-.1071088-.8641729-.1071088-.4308693-.1071088-.8860816c0-.4308693.1728346-.4308693.1728346-.8641729,0-.4308693.0413829-.4308693.0413829-.8641729,0-.4308693.2823776-.6694297-.0413829-.9493731-.3456692-.3237606-.5404124.0219086-1.0150989.0219086-.4771208,0-.4771208.0632915-.9518074.0632915s-.4746865-.150926-.9493731-.150926c-.4771208,0-.4771208.0438172-.9518074.0438172-.3237606,0-.713247.0438172-.9298988-.1728346-.2142175-.2166518-.2361261-.6061382-.2361261-.9298988s.1071088-.6256125.3237606-.8422643.5185038-.301852.8422643-.301852c.4746865,0,.4746865-.1947432.9518074-.1947432.4746865,0,.4746865.2580347.9493731.2580347s.4746865-.0632915.9518074-.0632915c.4746865,0,.6475211.3237606.9931903-.0219086.3237606-.3456692-.0219086-.5185038-.0219086-1.0150989s.1290174-.4965952.1290174-.9956246c0-.4746865-.301852-.4746865-.301852-.9712817,0-.3237606.3675778-.5404124.5842296-.7570642.2142175-.2142175.4308693-.4089607.7546299-.4089607.3456692,0,.713247.0219086.9298988.2385604.2166518.2142175.2580347.6037039.2580347.9274645,0,.4965952.0438172.4965952.0438172.9712817,0,.4990294-.0219086.4990294-.0219086.9956246s-.1947432.5185038.109543.9079902c.2361261.301852.2799433-.0219086.6694297-.0219086.3870521,0,.3870521.150926.7546299.150926.3894864,0,.3894864-.150926.7789728-.150926s.3894864-.0219086.7765385-.0219086c.3261949,0,.6061382.2580347.8422643.4746865.2166518.2166518.3456692.5185038.3456692.8422643s-.1071088.6475211-.3237606.8641729Zm1.686963,8.0380255c-.109543.2799433-.3894864.6037039-.6913384.7327213-.150926.0438172-.3675778-.0219086-.5185038-.0219086-.2385604,0-.4333036-.150926-.6280468-.2799433-.1728346-.1290174-.4089607-.2361261-.5185038-.4527779-.1071088-.2823776-.3456692-.5404124-.4527779-.8422643-.0876344-.2823776-.1290174-.6280468-.2166518-.9298988-.0852001-.301852.0219086-.6475211-.0438172-.9712817-.0852001-.3042862-.3675778-.5404124-.4527779-.8422643-.0657258-.3261949.0657258-.671864-.0219086-.973716,0,0-.2166518.1728346-.2385604.1290174-.0852001-.3237606.109543-.7327213.260469-.9931903.150926-.2580347.3675778-.5817953.6913384-.6694297s.6475211.150926.9079902.301852c.2580347.1728346.4089607.3894864.4965952.713247.0632915.260469.3237606.4965952.4089607.7789728.0657258.2799433.1314517.5598867.2166518.8422643.0657258.301852.0876344.5817953.1728346.8641729.0876344.301852.0657258.6037039.150926.8641729.0876344.301852.4333036.4965952.5185038.7327213.1314517.3042862.0876344.7351556-.0413829,1.0175332Zm1.0370075-9.0969416c0,.260469.0632915.5185038.0413829.7570642,0,.2580347-.1728346.3675778-.3456692.5185038-.1728346.1728346-.2799433.3675778-.5379781.3675778-.0219086,0-.0438172.0852001-.0657258.0852001-.260469-.0219086-.3894864-.3237606-.5404124-.4965952-.150926-.1947432-.4308693-.3456692-.411395-.6037039.0219086-.3042862.1728346-.6280468.1728346-.973716.0219086-.3237606.109543-.6694297.109543-.9931903s-.1314517-.6694297-.1314517-.9931903h-.1704003c0-.260469.3456692-.411395.5160695-.5842296.1752689-.1728346.3261949-.3456692.5842296-.3456692.2823776,0,.4965952.109543.6694297.2799433.1728346.1752689.3456692.3894864.3456692.6499554,0,.2580347-.0852001.5185038-.0852001.7765385,0,.260469.1728346.5185038.1728346.7789728,0,.2580347-.3042862.5185038-.3237606.7765385Zm2.8943708,0c-.0219086.260469,0,.5185038-.0219086.7789728-.0219086.2361261-.0438172.562321-.2166518.7327213-.1728346.1533603-.4965952,0-.7546299,0-.0219086,0-.0438172.260469-.0657258.260469-.2799433-.0219086-.5842296-.1728346-.7351556-.3675778-.1728346-.1947432-.1728346-.5185038-.150926-.7765385.0219086-.3042862-.0438172-.6280468-.0438172-.973716,0-.3237606.2385604-.6694297.2385604-.9931903v-.9931903c0-.260469-.1071088-.5842296.0657258-.7570642s.4965952-.1290174.7546299-.1290174c.2823776,0,.5404124,0,.7351556.1728346.1728346.1728346.3675778.4527779.3675778.713247,0,.2580347-.260469.5185038-.260469.7765385,0,.260469.2823776.5185038.2823776.7789728,0,.2580347-.1947432.5185038-.1947432.7765385Z"/>
    </g>
    <g>
      <path class="cls-2" d="m4.9567369,85.8248291c-1.0141602,1.5115967-2.3154297,2.8319092-3.9228516,3.9608154l-.3251953-.3826904c1.875-1.5689697,3.2529297-3.3485107,4.1137695-5.3193359H1.3781236l-.190918-.4783936h3.7695312v-2.2578735c1.1860352.0574341,1.7792969.2105103,1.7983398.4209595,0,.1339111-.2485352.2869873-.7270508.4592285v1.3776855h1.9326172l.8037109-1.0715332c.4399414.4400635.784668.8419189,1.0522461,1.2054443l-.2104492.3444824h-3.578125v.7653809c2.1240234.7844849,3.1953125,1.6264038,3.1953125,2.5065918,0,.4400635-.190918.6505737-.5737305.6505737-.1914062,0-.3828125-.1530762-.5742188-.4783325-.4785156-.7845459-1.1669922-1.4925537-2.0473633-2.1048584v5.5299072h-1.0712891v-5.1280518Zm1.0332031-5.300293c.4975586-1.1289062.8798828-2.2769775,1.1289062-3.4442139,1.0712891.3826904,1.6069336.6888428,1.6069336.918457,0,.1530762-.2485352.2487793-.7651367.2679443-.2871094.5931396-.7651367,1.3585205-1.3969727,2.2578125h1.8369141l.784668-1.1097412c.3828125.4017944.7080078.8035889.9760742,1.2054443l-.2109375.3826904H1.1486314l-.1914062-.4783936h5.0327148Zm-1.0332031-6.7353516c1.2050781.0574341,1.7983398.2296143,1.8173828.4783936,0,.1530762-.2485352.3253174-.7460938.4974976v1.6455688h1.9326172l.7651367-1.1480713c.3637695.3635254.6889648.7271118.9379883,1.0715332l.1337891.1913452-.2294922.3635864H1.6271471l-.2294922-.4783936h3.559082v-2.62146Zm-2.2963867,3.3485718c1.3203125.7844849,1.9902344,1.6072998,1.9902344,2.4683228,0,.4783936-.2299805.7080078-.6699219.7271729-.3061523,0-.4785156-.2296143-.5166016-.7080078-.0576172-.7080078-.4018555-1.4350586-1.0717773-2.1813354l.2680664-.3061523Zm9.1079102,4.2861328c-.019043,2.0282593-.2104492,3.7503662-.5932617,5.1471558-.4589844,1.6838379-1.2817383,3.1189575-2.4873047,4.3244629l-.3828125-.3253174c1.0332031-1.4733887,1.703125-3.1380615,2.0283203-5.0132446.2104492-1.3202515.3251953-2.8701782.3251953-4.6113892v-5.4533691c.5166016.1722412.918457.3444214,1.2441406.5166016,1.5112305-.4592285,2.7744141-1.0906372,3.8266602-1.9134521.8613281.5549316,1.3012695.9376221,1.3012695,1.1672363,0,.1339111-.1147461.1913452-.3447266.1913452-.171875,0-.3442383-.019104-.5546875-.0765381-1.2436523.4783325-2.6977539.8610229-4.362793,1.1671753v4.0948486h4.324707l.8994141-1.2437744c.4780273.4209595.8798828.861084,1.2050781,1.3203125l-.1914062.4017944h-2.5830078v9.6055298h-1.1098633v-9.6055298h-2.5449219v.3061523Z"/>
      <path class="cls-2" d="m29.9699205,80.0079346c0,1.5115967-.5356445,2.7171021-1.5878906,3.578125.9755859.0957031,1.4731445.2487793,1.4731445.4975586,0,.1339111-.2294922.2869873-.7080078.4400635v.7462158h5.7978516l.9755859-1.0140991c.4018555.2870483.8422852.6697388,1.3203125,1.1480713l-.2104492.3444214h-7.4433594l.0957031.0765381c2.0092773,1.4733887,4.5732422,2.5257568,7.7304688,3.1763306-.4208984.3444214-.7080078.7271118-.8803711,1.1671753-3.1186523-1.0140991-5.5869141-2.3917847-7.3857422-4.1521606v4.9367065h-1.0908203v-4.2669678c-2.0473633,1.760376-4.668457,3.0423584-7.8642578,3.8460083l-.2294922-.4592285c3.1953125-1.0140991,5.7021484-2.4683228,7.5390625-4.3244019h-7.15625l-.2104492-.4783936h7.9213867v-1.4350586c-.5166016.3444214-1.1669922.6505737-1.9516602.899292l-.2104492-.4017944c2.0092773-.918457,3.0043945-2.3535767,3.0043945-4.3052368v-1.760376c.2485352.0956421.6123047.2487183,1.090332.4783325h3.1381836l.5356445-.5740356c.6699219.4783936,1.0141602.8036499,1.0141602.9376221,0,.057373-.0380859.1147461-.1337891.1721802l-.3828125.2487183v3.0041504c0,.3253174.2294922.4783936.6699219.4783936.4018555,0,.6503906-.1339722.7460938-.4018555.1533203-.4209595.2490234-1.0715332.2871094-1.9708252l.4975586.1721802c-.019043.1721802-.019043.3444214-.019043.5166626,0,1.0523682.2294922,1.5881348.6884766,1.5689697-.019043.4592285-.171875.7462769-.4975586.880249-.2675781.0956421-.7460938.1530762-1.4155273.1530762-.746582,0-1.2441406-.0574341-1.5117188-.1530762-.3251953-.1148682-.4785156-.4018555-.4785156-.880249v-3.6738281h-3.1572266v.7845459Zm-3.1762695-4.3626709l.8227539-1.1098022c.4018555.3635864.765625.7653809,1.0908203,1.2246094l-.2294922.3635864h-3.9804688c.9760742.5739746,1.4545898,1.1480713,1.4545898,1.7412109,0,.4592285-.2104492.6888428-.6508789.6888428-.3251953,0-.5166016-.2104492-.5737305-.6123047-.1147461-.7080078-.4404297-1.3011475-.9760742-1.817749h-.4399414c-.7460938,1.2819824-1.7412109,2.3917847-2.9848633,3.3293457l-.3256836-.3443604c1.3969727-1.4351196,2.4492188-3.2720337,3.1572266-5.5299072,1.1289062.2104492,1.684082.4209595,1.684082.6696777,0,.1530762-.2680664.2870483-.8227539.3826904-.1723633.4018555-.3061523.7462769-.4399414,1.0141602h3.2143555Zm-2.0283203,6.8118896c1.0522461-.1722412,2.1240234-.3826904,3.1762695-.6314697l.0576172.4783936c-2.1240234.7462158-4.2094727,1.3011475-6.2568359,1.6838379-.0957031.4400635-.2109375.6696777-.3447266.6696777-.2485352,0-.5166016-.5548706-.784668-1.6838379.746582-.057373,1.7988281-.1912842,3.1191406-.3635254v-2.8701782h-2.5068359l-.171875-.4783325h4.9555664l.8037109-.9567871c.4404297.4018555.8037109.7653809,1.0717773,1.1098633l-.2104492.3252563h-2.9086914v2.7171021Zm10.2177734-6.8118896l.8994141-1.1672363c.4208984.3826904.8227539.8037109,1.2055664,1.2820435l-.2104492.3635864h-5.3959961c1.0908203.5166016,1.6264648,1.0715332,1.6264648,1.6455078,0,.4401245-.2104492.6506348-.6123047.6506348-.3251953,0-.5166016-.1530762-.5742188-.4592285-.1337891-.7080078-.5166016-1.3203125-1.1860352-1.8369141h-.3256836c-.6313477.899292-1.4350586,1.6838379-2.3916016,2.3343506l-.3061523-.2869873c1.2822266-1.3394165,2.1621094-2.8510742,2.640625-4.5349121,1.0522461.1722412,1.5878906.3826904,1.5878906.6314697,0,.1339111-.2485352.2678833-.7460938.3826904-.152832.4018555-.3061523.7271118-.4785156.9949951h4.2670898Zm-4.3432617,4.1522217c1.0522461.7844849,1.5688477,1.5689697,1.5688477,2.3343506,0,.4783936-.2104492.7080078-.6503906.7080078-.3061523,0-.4785156-.2487793-.4975586-.7653809-.019043-.7462158-.2680664-1.4159546-.7460938-2.0282593l.3251953-.2487183Z"/>
      <path class="cls-2" d="m39.5617174,82.8206787c2.6401367-2.2004395,4.5537109-5.0515137,5.7592773-8.5531006,1.1479492.4018555,1.722168.7271118,1.722168.9758301,0,.1722412-.2680664.3061523-.8037109.4210205-.956543,2.0090942-1.9902344,3.616394-3.0996094,4.8218994-.8422852.937561-1.9326172,1.8560181-3.2719727,2.717041l-.3061523-.3826904Zm3.0996094-.9949951l-.1533203-.4783325h8.8022461l.7270508-.8610229c.7460938.5931396,1.1289062.9758301,1.1289062,1.1480713,0,.0956421-.0576172.1912842-.1914062.2869873l-.4018555.3061523c-.019043,3.7695312-.3251953,6.199585-.9375,7.3284912-.4208984.7653809-1.1674805,1.1480713-2.2387695,1.1480713,0-.3826904-.2490234-.6696777-.7270508-.8610229-.3637695-.1530762-1.0332031-.3061523-2.0092773-.4592285v-.5166626c1.2822266.1722412,2.2963867.2679443,3.0043945.2679443.6694336,0,1.090332-.4018555,1.2817383-1.2055054.3251953-1.3202515.4975586-3.3676758.5166016-6.1039429h-4.5537109c-.1914062,2.3153076-.7275391,4.1713867-1.6264648,5.5299072-.9760742,1.5115967-2.5258789,2.697998-4.6308594,3.559021l-.2675781-.4209595c2.2387695-1.2054443,3.75-2.8319092,4.534668-4.8984375.4018555-1.1289062.6699219-2.3726807.784668-3.7695312h-3.0424805Zm7.1181641-7.5581055c1.7792969,3.0806885,3.9223633,5.3768311,6.4482422,6.8884277-.3828125.2678833-.7080078.6505737-.9951172,1.1672363-1.875-1.4733887-3.3867188-3.1954956-4.5537109-5.1472168-.4404297-.7462158-.8994141-1.6264648-1.3779297-2.640564l.4785156-.2678833Z"/>
      <path class="cls-2" d="m63.5421861,76.6594238c.4208984.3443604.8227539.7270508,1.1865234,1.1480713l-.1914062.3443604h-6.065918l-.1914062-.4783325h4.4013672l.8608398-1.0140991Zm-.6699219,2.4300537c.3637695.2869873.746582.6505737,1.1289062,1.1289062l-.2104492.3253174h-4.6303711l-.1914062-.4783936h3.1381836l.7651367-.9758301Zm0,2.4109497c.3637695.2870483.7275391.6314087,1.1289062,1.0715332l-.2485352.3635864h-4.5732422l-.2104492-.4783936h3.1572266l.7460938-.9567261Zm-.4399414,3.4059448l.6313477-.7845459c.746582.5932007,1.1098633.9758911,1.1098633,1.1672363,0,.057373-.0380859.1148071-.1337891.1722412l-.4208984.2487183v5.2428589h-1.0332031v-1.2246094h-2.5258789v1.2246094h-1.0717773v-6.6396484c.1342773.057373.5361328.2678223,1.1865234.5931396h2.2578125Zm.5166016-10.657959c.3828125.3061523.765625.6888428,1.1674805,1.1480713l-.1914062.3444824h-4.6499023l-.1914062-.4783936h3.1000977l.7651367-1.0141602Zm-2.8891602,15.0014648h2.5258789v-3.8651123h-2.5258789v3.8651123Zm10.1411133-4.5539551c-.4589844.4592285-.9946289.937561-1.6069336,1.4158936v3.0041504c.8608398-.1530762,1.8369141-.3826904,2.9272461-.6696777l.1147461.4592285c-1.8369141.7079468-3.5395508,1.2437134-5.0898438,1.5689697-.0761719.4210205-.171875.6314697-.3061523.6314697-.2485352,0-.4970703-.5166016-.7460938-1.5499268.7460938-.0765381,1.4160156-.1721802,2.0473633-.2678223v-2.4875488c-.9755859.5357666-2.1240234.9949951-3.4824219,1.3585815l-.2294922-.4592285c2.0473633-.7079468,3.7119141-1.7221069,4.9750977-3.0040894h-4.4013672l-.190918-.4783936h3.0805664v-1.5499268h-2.0092773l-.1914062-.4783325h2.2006836v-1.3967896h-2.4301758l-.1723633-.4783936h2.6025391v-1.798645c1.1669922.0956421,1.7602539.2678833,1.7602539.5166626,0,.1530762-.2485352.3061523-.7270508.4592285v.8227539h2.8320312v-1.8369141c1.1479492.0765381,1.722168.2296143,1.722168.4783936,0,.1339111-.2299805.2869873-.6889648.4400635v.918457h1.2626953l.7270508-.880188c.3251953.3061523.6313477.6314087.9375.9949951l-.2294922.3635864h-2.6977539v1.3967896h.9946289l.746582-.880188c.2294922.1913452.5356445.5166016.9375.9758301l-.2104492.3826904h-2.4682617v1.5499268h1.6835938l.7080078-.899292c.4018555.3635254.7080078.6888428.9570312.9949951l-.2104492.3826904h-4.5161133c.3251953.8610229.784668,1.6646729,1.3588867,2.3917847.6884766-.6123047,1.3203125-1.3202515,1.875-2.1047974.8227539.5357666,1.2246094.899292,1.2246094,1.1098022,0,.1339722-.1337891.1913452-.4208984.1913452l-.4208984-.038269c-.4594727.3826904-1.1098633.7844849-1.9326172,1.2055054.7841797.8419189,1.9326172,1.6072998,3.4443359,2.2769775-.3828125.3444214-.6889648.6888428-.8994141,1.0141602-2.46875-1.3776855-4.0566406-3.3868408-4.7836914-6.0465088h-.0576172Zm-5.7211914-5.8360596c1.4160156-.6314697,2.5449219-1.4159546,3.3867188-2.3535156.918457.3635254,1.3779297.6505127,1.3779297.8419189,0,.1721802-.2680664.2487183-.784668.2487183-1.090332.7079468-2.3344727,1.2437134-3.7119141,1.6264038l-.2680664-.3635254Zm4.7646484-5.1088867c1.1865234.019104,1.7792969.1530762,1.7792969.4017944,0,.1339722-.2294922.2870483-.7080078.4592285v1.1671753h3.1191406l.8803711-1.0715332c.4399414.3635864.8032227.7653809,1.1289062,1.1864014l-.1914062.3635254h-10.3325195l-.2299805-.4783936h4.5541992v-2.0281982Zm-.918457,8.4382935h2.8320312v-1.3967896h-2.8320312v1.3967896Zm0,2.0282593h2.8320312v-1.5499268h-2.8320312v1.5499268Zm2.8125-7.6346436c1.3969727.2487183,2.46875.5931396,3.1958008,1.0140991.5356445.3252563.8037109.6314087.8037109.937561,0,.3635864-.1914062.5549316-.5551758.5549316-.152832,0-.3061523-.0765381-.4780273-.2487793-.784668-.7844849-1.8369141-1.3967896-3.1767578-1.8560181l.2104492-.4017944Z"/>
      <path class="cls-2" d="m81.8585924,79.8548584c0,.1530762-.2490234.3253174-.7460938.5166016v10.5814209h-1.1289062v-9.835144c-.784668,1.3202515-1.6264648,2.5257568-2.5068359,3.616394l-.3828125-.3061523c2.0092773-2.9275513,3.5209961-6.4674072,4.5541992-10.6387939,1.2246094.3253174,1.8369141.6314697,1.8369141.899353,0,.1721802-.2871094.3061523-.8803711.4017944-.4589844,1.5116577-1.0332031,2.9467773-1.7026367,4.3052979.6313477.0957031.956543.2487793.956543.4592285Zm6.7929688,9.6055298h3.769043l.9760742-1.3967896c.4399414.4017944.8803711.899292,1.3203125,1.4924316l-.2294922.3826904h-12.1503906l-.2299805-.4783325h5.3769531v-5.4342041h-4.1713867l-.2104492-.4783325h4.3818359v-4.5922852h-4.6879883l-.2294922-.4783936h9.3569336l.918457-1.3011475c.5356445.4974976.956543.9567261,1.2626953,1.3968506l-.2104492.3826904h-5.2426758v4.5922852h2.6787109l.8994141-1.2629395c.4399414.4210205.8417969.880249,1.2246094,1.3776855l-.2109375.3635864h-4.5917969v5.4342041Zm-2.8129883-15.6328735c2.1240234,1.0523682,3.1953125,2.0856323,3.1953125,3.0997314,0,.4975586-.2294922.7462769-.6889648.7462769-.3251953,0-.5546923-.2487183-.7075195-.7462769-.3061523-.937561-.9951172-1.8369141-2.0859375-2.697937l.2871094-.4017944Z"/>
      <path class="cls-2" d="m104.6334947,73.8275146c1.3198242.019104,1.9707031.1721802,1.9707031.4592285,0,.1721802-.2871094.3443604-.8417969.5357666v2.0665283h5.8359375l.8037109-.9949951c.9755859.899292,1.4541016,1.4733276,1.4541016,1.760376,0,.1339111-.0957031.2104492-.2871094.2296143l-.6313477.0956421c-.4975586.6505737-1.0908203,1.3011475-1.7988281,1.9517212l-.3632812-.2869873c.3828125-.7080078.6884766-1.4733887.8994141-2.2770386h-12.5717773v.3635864c0,.918457-.152832,1.6646729-.4780273,2.2578125-.2680664.5166626-.5932617.7653809-.9570312.7653809-.171875,0-.3442383-.0956421-.5166016-.2678223-.152832-.1339722-.2294922-.2679443-.2294922-.4401245,0-.2105103.1147461-.4401245.3637695-.6697388.6694336-.7270508,1.0712891-1.817749,1.1669922-3.2911377l.4975586.0574341c.0571289.3061523.0957031.5548706.1147461.7462769h5.5683594v-3.0615234Zm-.918457,7.2711182c-1.9135742.4592285-3.7695312.8419189-5.5683594,1.1289062l-.2485352-.4783936c4.3051758-.8227539,7.7685547-1.9516602,10.4091797-3.4058838.956543.5548706,1.4350586.937561,1.4350586,1.1862793,0,.1148682-.1342773.1722412-.4018555.1722412-.1914062,0-.4208984-.019165-.6699219-.0765381-1.2817383.4783936-2.5639648.861084-3.8076172,1.1863403v3.578186l6.0463867-.8228149.918457-1.4733276c.5166016.3443604,1.0908203.7653809,1.684082,1.2628174l-.2109375.4210205-8.4379883,1.1480713v3.7312012c0,.3253174.1147461.5357666.3251953.6314697.2485352.0956421,1.2246094.1339111,2.9086914.1339111,1.6455078,0,2.6210938-.057373,2.9462891-.1722412.4594727-.1721802.8037109-1.1862793,1.0141602-3.0615234l.4975586.2296143c-.019043.2679443-.019043.5549316-.019043.861084,0,.880188.0766602,1.4350586.2104492,1.6455688.0957031.1530762.2871094.2296143.5932617.2296143-.0576172.6697388-.3828125,1.0332642-1.0141602,1.1289673-.6699219.1147461-1.9707031.1721802-3.9228516.1721802-2.4296875,0-3.8457031-.0956421-4.2094727-.3061523-.3251953-.1913452-.4780273-.5932007-.4780273-1.2246094v-3.8269043l-6.5058594.880188-.2490234-.4974976,6.7548828-.918457v-3.4633179Z"/>
      <path class="cls-2" d="m132.9577135,74.3249512l-16.5322266,16.5322266-.5742188-.5739746,16.5322266-16.5322266.5742188.5739746Z"/>
      <path class="cls-2" d="m152.1544908,80.5054321c-.3251953.2870483-.6313477.6697388-.8798828,1.1671753-3.2724609-1.5881348-5.8745117-3.6738281-7.769043-6.2952271-.7651367,1.0906372-1.4541016,1.9708862-2.0473633,2.6022949-1.6264648,1.77948-3.7119141,3.2145996-6.237793,4.3435669l-.2675781-.4018555c2.4682617-1.3585205,4.496582-3.0615234,6.0844727-5.1280518.6313477-.8419189,1.3012695-1.8560791,1.9707031-3.0615234,1.0717773.2869873,1.6074219.5549316,1.6074219.8036499,0,.1530762-.2675781.2678833-.7841797.3635864,2.3916016,2.6213989,5.1660156,4.477417,8.3232422,5.6063843Zm-8.1894531,9.0123901h4.8027344l1.0522461-1.3394775c.4785156.4018555.9570312.880249,1.4160156,1.4351196l-.2104492.3826904h-14.9824219l-.2104492-.4783325h7.003418v-3.8843384h-4.6113281l-.2299805-.4783325h4.8413086v-3.539917h-4.7265625l-.171875-.4783936h8.7250977l.9379883-.899292c.4399414.2869873.8989258.6123047,1.3393555.9949951l-.2299805.3826904h-4.7451172v3.539917h2.7167969l.9379883-1.1289673c.3251953.2678833.7460938.6888428,1.2817383,1.2628784l-.1914062.3444214h-4.7451172v3.8843384Z"/>
      <path class="cls-2" d="m158.3395494,87.6043701c1.0332031-1.3203125,2.3344727-2.8128052,3.9033203-4.458374,1.9521484-2.0473633,2.9277344-3.6929932,2.9277344-4.9176025,0-.7844849-.2294922-1.4158936-.6889648-1.9325562-.4780273-.5357666-1.090332-.8036499-1.8369141-.8036499-.8608398,0-1.5688477.2678833-2.1235352.7845459-.2871094.2869873-.4594727.6505127-.5551758,1.0523682.4399414.2104492.6503906.5357666.6503906.9758301,0,.6888428-.3442383,1.0333252-1.0136719,1.0333252-.7080078,0-1.0527344-.3826904-1.0527344-1.1480713s.2871094-1.4351196.8613281-2.0283203c.8227539-.8610229,1.9130859-1.2819824,3.2719727-1.2819824.8037109,0,1.5307617.1722412,2.1811523.4974976,1.1865234.6314087,1.7797852,1.6264038,1.7797852,2.9658813,0,.8610229-.3447266,1.760376-1.0141602,2.659668-.4018555.5357666-1.2055664,1.3585205-2.4301758,2.4874878-1.722168,1.5881958-2.9658203,2.8893433-3.7124023,3.9034424h4.6499023c.9760742,0,1.6074219-.2678833,1.9326172-.8228149.1914062-.3443604.3442383-.918457.4589844-1.7220459h.4594727v3.6929321h-8.6489258v-.937561Z"/>
      <path class="cls-2" d="m177.1325181,75.2243042v8.9358521h2.7749023v.899292h-2.7749023v1.5499268c0,.6505127.1723633,1.0715332.4975586,1.2437134.2680664.1530762.6889648.2296143,1.2631836.2487183v.4401245h-4.8984375v-.4401245c.8608398-.038208,1.3964844-.1912842,1.6264648-.4400635.171875-.2104492.2485352-.5549316.2485352-1.0523682v-1.5499268h-6.5058594v-.8036499l6.8310547-9.0314941h.9375Zm-6.7543945,8.9358521h5.4916992v-7.2329102l-5.4916992,7.2329102Z"/>
      <path class="cls-2" d="m187.9870103,81.8448486c-.5737305,1.817749-1.3583984,3.578125-2.3725586,5.2619629l-.4399414-.3252563c1.3007812-2.4301147,2.2192383-5.2045898,2.7744141-8.2852173h-2.4492188l-.1723633-.4783936h2.659668v-4.2287598c1.2822266.0574341,1.9326172.2487793,1.9326172.5357666,0,.1722412-.2871094.3444824-.8608398.5166626v3.1763306h1.1479492l.784668-1.0906982c.4013672.4018555.7460938.8037109,1.0712891,1.2437744l-.2104492.3253174h-2.793457v2.1239014c.7460938.5166016,1.3393555,1.0906982,1.7792969,1.7412109.3828125.5549316.5742188,1.0141602.5742188,1.4160156,0,.4400635-.2104492.6696777-.6508789.6696777-.2485352,0-.4018555-.1530762-.4589844-.4400635-.1723633-.880249-.5742188-1.7987061-1.2436523-2.7553711v9.7011719h-1.0717773v-9.1080322Zm11.9589844-2.8892822l.7270508-.8419189c.746582.5931396,1.1289062.9758301,1.1289062,1.1480713,0,.0765381-.0571289.1530762-.152832.2104492l-.4594727.2869873v5.319458h-1.0712891v-.7845459h-2.6977539c.019043.057373.0571289.0957031.1147461.1530762,1.3774414,1.7412109,3.1953125,3.1380615,5.434082,4.1713257-.3637695.3061523-.6503906.6888428-.8608398,1.1480713-2.0092773-1.2437134-3.6166992-2.8319092-4.8032227-4.7644653v5.9508057h-1.0712891v-5.2045898c-1.4350586,1.779541-3.2910156,3.3103027-5.5683594,4.5731201l-.3061523-.4017944c2.3535156-1.5498657,4.2290039-3.4251099,5.6259766-5.6255493h-2.4301758v.9567261h-1.0717773v-6.9840698c.4594727.2296143.8803711.4592285,1.2436523.6888428h2.5068359v-2.0665283h-4.6303711l-.1914062-.4783936h4.8217773v-2.62146c1.2246094.0383301,1.8369141.1914062,1.8369141.4401245,0,.1339722-.2485352.3252563-.765625.5357666v1.6455688h3.2529297l.9570312-1.1863403c.5546875.5166626.9755859.937561,1.2246094,1.2628784l-.1914062.4018555h-5.2431641v2.0665283h2.640625Zm-6.390625.4783325v1.8751831h2.6787109v-1.8751831h-2.6787109Zm0,2.3535767v2.0281982h2.6787109v-2.0281982h-2.6787109Zm3.75-.4783936h2.8129883v-1.8751831h-2.8129883v1.8751831Zm0,2.5065918h2.8129883v-2.0281982h-2.8129883v2.0281982Z"/>
    </g>
    <g>
      <path class="cls-2" d="m85.4957994,5.1785278c.2548828,3.227478.9663086,5.7802734,2.1513672,7.6766357.6015625.9663696,1.0395508,1.4587402,1.2944336,1.4587402.3100586,0,.5839844-1.1669922.8388672-3.5192261l.4926758.2370605c-.109375,1.2946167-.1645508,2.2245483-.1645508,2.8080444,0,.9299927.2006836,1.4769897.5839844,1.6228638-.1098633.5652466-.3647461.8387451-.7661133.8387451-.7294922,0-1.5678711-.6199341-2.534668-1.8598633-1.5678711-2.0057373-2.5708008-5.0690918-2.9902344-9.171814h-9.7006836l-.2006836-.4558716h9.8647461c-.0913086-1.0028687-.1640625-2.6074829-.1821289-4.8138428,1.203125.0546875,1.8051758.2005615,1.8051758.4741211,0,.1276245-.2373047.2734985-.6928711.4376221.0180664,1.7504883.0727539,3.0268555.1455078,3.8109131h3.1181641l.8388672-1.1487427.4741211.4740601c.2368164.2370605.4741211.5106201.6748047.7841187l-.1826172.3464355h-4.8681641Zm-4.5585938,8.3877563c1.2216797-.2370605,2.5888672-.5288086,4.065918-.8752441v.5652466l-.9296875.2734985c-2.9541016.8570557-5.6708984,1.5134888-8.1328125,1.9693604-.0908203.4740601-.2001953.7111206-.3461914.7111206-.2553711,0-.546875-.5652466-.8935547-1.7140503l2.0239258-.255249v-6.6555176c1.1669922.0911865,1.7504883.2370605,1.7504883.4741211,0,.145874-.2368164.291748-.7109375.4558105v5.5797119c.984375-.145874,1.6958008-.2553101,2.1513672-.3464355v-7.7860718c1.1308594.0911865,1.6958008.2553101,1.6958008.4923706,0,.145874-.21875.291748-.6743164.4376221v2.4433594h1.5678711l.8208008-1.2399292c.4008789.4193726.7109375.8023071.9296875,1.1669922l.1279297.2005615-.1826172.3282471h-3.2636719v3.7744751Zm1.0390625-12.69104c.4194336.4193726.7841797.8387451,1.1303711,1.2946167l-.21875.3099976h-6.637207l-.1821289-.4558716h5.0327148l.875-1.1487427Zm4.5952148-.0182495c1.5498047.5470581,2.3339844,1.2217407,2.3339844,2.0057983,0,.4558105-.21875.6746826-.6381836.6746826-.2919922,0-.4926758-.1641235-.5834961-.4741211-.21875-.7840576-.6567383-1.4040527-1.3310547-1.8963623l.21875-.3099976Z"/>
      <path class="cls-2" d="m106.7506822,6.6737061c.9296875.4741211,1.4038086.8205566,1.4038086,1.0576172,0,.1276245-.21875.218811-.65625.2370605-.4741211,1.4769287-1.0761719,2.8080444-1.7871094,3.9750366.4741211.8752441.9663086,1.6046143,1.4951172,2.2063599.1640625.1641235.2919922.255249.3466797.255249.2368164,0,.4921875-1.0211182.8022461-3.045105l.4375.2553101c-.1274468,1.1851807-.2006836,2.0057373-.2006836,2.4980469,0,.7293701.1826172,1.1669922.5288086,1.3311157-.1274414.5288086-.3828125.7841187-.8022461.7841187-.4375,0-.984375-.3464966-1.6225586-1.0576172-.6748047-.6928711-1.2036133-1.4404907-1.6049805-2.2610474-1.203125,1.4951782-2.6621094,2.6439819-4.3759766,3.4645386l-.2734375-.3829346c.8203125-.4923096,1.5317383-1.0029297,2.1333008-1.5681763h-5.1601562v1.2034912h-1.0214844V6.491394c.4926758.2005615.8935547.3829346,1.2402344.5834961h3.6831055l.7475586-.9664307c.3828125.3282471.7475586.6929321,1.0761719,1.0758667l-.1826172.3464355h-2.8261719v1.8051758h.9482422l.6196289-.7111206c.6201172.4740601.9301758.7840576.9301758.9116821,0,.0911865-.0366211.145874-.1274414.2005615l-.3466797.2370605v2.5527954h-.9482422v-.6381836h-1.0756836v2.0786743h1.3676758l.7475586-.9116821c.4194336.3829346.7109375.6746826.8569336.8388062.6201172-.6382446,1.1303711-1.2764282,1.5131836-1.8963623-.765625-1.8599243-1.2578125-4.0662842-1.4584961-6.6008301h-7.9135742v2.5710449c0,1.7504883-.1459961,3.227417-.4379883,4.4491577-.3461914,1.4769897-1.0024414,2.789856-1.9873047,3.9568481l-.3828125-.291748c1.1669922-1.8781738,1.7504883-4.5950928,1.7504883-8.1507568v-3.6650391c.5102539.21875.9482422.4376221,1.3129883.6746216h7.6401367c0-.0546875,0-.0911255-.0185547-.1276245,0-.1276245,0-.3099976-.0180664-.5652466,0-.2370605,0-.4376221-.0185547-.5652466h-.546875v-1.3128662h-3.7563477v1.8963623h-1.0390625v-1.8963623h-4.7045898l-.1821289-.4558716h4.8867188V.036499c1.1850586.0181885,1.7685547.145874,1.7685547.401123,0,.145874-.2368164.291748-.7294922.4558716v1.0211182h3.7563477V.036499c1.1308594,0,1.6958008.145874,1.6958008.4193726,0,.1641235-.2368164.328186-.6928711.5105591v.9481812h3.2822266l.875-1.1305542c.3466797.3099976.7294922.7111816,1.1489258,1.2034912l-.1821343.3829346h-5.1240181v.7111206c.7475586.0911255,1.1303711.218811,1.1123047.4193726,0,.1276245-.1640625.2370605-.4921875.3646851,0,.5288086,0,.8752441.0180664,1.0211182h2.972168l.7294922-1.1123047.2915039.291748c.2553711.2553101.5107422.5652466.7475586.9117432l-.2368164.3646851h-4.4858398c.0913086,2.0786743.4379883,3.9567871,1.0395508,5.6161499.5834961-1.1123047,1.0942383-2.5346069,1.5136719-4.2850952Zm-7.6040039,2.6622314v-1.8051758h-1.7319336v1.8051758h1.7319336Zm2.0605469.4558716h-3.7924805v1.6410522h3.7924805v-1.6410522Zm-2.0605469,2.0969238h-1.7319336v2.0786743h1.7319336v-2.0786743Zm5.871582-9.244751c1.2763672.2369995,1.9145508.6746216,1.9145508,1.2946167,0,.4193726-.1821289.6381836-.5654297.6381836-.2368164,0-.4008789-.1276245-.4921875-.401123-.1274414-.4194336-.4560547-.8205566-1.0209961-1.2034912l.1640625-.328186Z"/>
      <path class="cls-2" d="m111.1935533,4.9232178l-.1826172-.4558105h2.753418V.1276245c.1279297-.0182495.2373047-.0182495.3647461-.0182495.9301758,0,1.4042969.1276855,1.4042969.3829346,0,.1641235-.2553711.3646851-.7480469.5834961v3.3916016h1.0395508l.8569336-1.2216797c.3828125.4193726.7294922.8204956,1.0029297,1.2216797l-.1274414.4558105h-2.7719727v1.8599243c1.0576172.6381836,1.8051758,1.2216797,2.2431641,1.7504883.3647461.4558716.546875.9116821.546875,1.3675537s-.21875.6746826-.65625.6746826c-.2373047,0-.4194336-.218811-.5654297-.6564331-.2006836-.7111206-.7294922-1.5681152-1.5683594-2.5345459v9.0259399h-1.0209961V7.8406982c-.6928711,1.9328613-1.5864258,3.7198486-2.6987305,5.3426514l-.4008789-.3099365c1.4223633-2.3522339,2.4248047-5.0144653,3.0268555-7.9501953h-2.4980469Zm7.0927734,0l-.1821289-.4558105h4.9594727V.2734985c1.222168.0182495,1.8417969.1641235,1.8237305.4741211,0,.1641235-.2553711.3464355-.7661133.5287476v3.19104h.8935547l.8935547-1.3311157c.4560547.4740601.8388672.9481812,1.1489258,1.4223022l-.1640625.364624h-2.7172852v9.7735596c0,1.0393677-.6381836,1.5681763-1.9145508,1.5681763-.0180664-.4011841-.2548828-.6929321-.7475586-.8569946-.3100586-.1276855-.9663086-.2553101-1.9692383-.4011841v-.4740601c1.1123047.109375,2.0424805.1640625,2.7900391.1640625.5288086,0,.7841797-.182312.7841797-.5287476V4.9232178h-4.8325195Zm1.769043,5.4703369c-.2006836-1.1123047-.8208008-2.2792969-1.8417969-3.5009766l.3100586-.3282471c1.1489258.8205566,1.9692383,1.7139893,2.4799805,2.6804199.2368164.4558716.3647461.8752441.3647461,1.2216797,0,.5288086-.2192383.7841187-.6748047.7841187-.328125,0-.546875-.291748-.6381836-.8569946Z"/>
      <path class="cls-2" d="m136.6603502,13.9127197V.7293701c1.2216797.036499,1.8417969.182373,1.8417969.4376221,0,.1641235-.2553711.3282471-.7661133.5288086v12.2169189h4.9780273V3.9385986c1.2036133.0911865,1.8051758.255249,1.8051758.5105591,0,.1641235-.2368164.328186-.7290102.4923096v11.0864258h-1.0761656v-1.6593018h-10.9223633v1.8234253h-1.0576172V4.0479736c1.2036133.0547485,1.8051758.2006226,1.8051758.4741211,0,.1641235-.2548828.3282471-.7475586.5105591v8.8800659h4.8686523Z"/>
      <path class="cls-2" d="m154.7970689.182373c1.2768555.0546875,1.9150391.2005615,1.9150391.4740601,0,.1641235-.2739258.3464355-.8388672.5288086v2.1698608h5.3608398l1.0029297-1.2763672c.4194336.364624.875.8387451,1.3491211,1.4039917l-.2006836.3282471h-8.4970703c1.0756836.2005615,1.6230469.401123,1.6230469.5834961,0,.1276245-.2006836.255249-.6201172.3828735v1.9875488h4.2670898l.7109375-.8205566c.7475586.5653076,1.1303711.9299927,1.1123047,1.0941162,0,.0911255-.0546875.1640625-.1826172.255249l-.4189453.3282471v5.1784668c0,.9664307-.6020508,1.4587402-1.8237305,1.4587402,0-.3099365-.1821289-.5469971-.5288086-.6928711-.3461914-.145874-.9663086-.2734985-1.8232422-.401123v-.5106201c.8388672.109436,1.6591797.1641235,2.4614258.1641235.4379883,0,.6567383-.182312.6567383-.5652466v-5.0326538h-4.4311523v9.1900635h-1.1123047V7.2207642h-4.1572266v7.2025146h-1.0576172V6.1813965l1.0576172.4923096.1640625.0911865h3.9931641v-2.9539185h-7.1293945l-.21875-.4558716h7.3662109V.182373Z"/>
      <path class="cls-2" d="m169.1779283,7.6948242c.8935547.3829346,1.6591797.8388062,2.2612305,1.3311157.5288086.4558716.7836914.8569946.7836914,1.2399292,0,.4011841-.2001953.6017456-.5834961.6017456-.2001953,0-.4194336-.182312-.6196289-.5288086-.3833008-.7476196-1.0029297-1.4404907-1.8417969-2.0786743v8.1506958h-1.0209961v-7.7130737c-.7475586.8387451-1.6230469,1.6593018-2.6074219,2.4616089l-.3100586-.3646851c2.1879883-2.0969238,3.847168-4.3762207,4.9780273-6.8743286h-4.5405273l-.1826172-.4558716h2.6625977V.0546875c1.1669922.0546875,1.7504883.2005615,1.7685547.4558716,0,.1641235-.2553711.328186-.7475586.4923096v2.4616089h.984375l.6933594-.8387451c.7290039.6381836,1.09375,1.0576172,1.09375,1.2216797,0,.0911865-.0546875.145874-.1821289.2005615l-.4560547.2006226c-.7294922,1.2581177-1.4404297,2.3339844-2.1333008,3.227478v.21875Zm6.9838867-4.2303467V.0546875c1.2216797.0546875,1.8232422.2005615,1.8232422.4558716,0,.1276245-.2553711.3099976-.7475586.5105591v2.4433594h2.5527272l.6562572-.8204956c.7475586.5834961,1.1308594.9663696,1.1123047,1.1304932,0,.072937-.0546875.145874-.1455078.218811l-.4560547.3282471v7.9136353h-1.0209961v-1.0758057h-2.6987305v5.2514648h-1.0756836v-5.2514648h-2.425293v1.2399292h-1.0395508V2.8809814c.4926758.2188721.8935547.4194336,1.2036133.5834961h2.2612305Zm-2.425293,3.5374756h2.425293v-3.081604h-2.425293v3.081604Zm0,.4558716v3.2456665h2.425293v-3.2456665h-2.425293Zm6.199707-3.5374756h-2.6987305v3.081604h2.6987305v-3.081604Zm0,3.5374756h-2.6987305v3.2456665h2.6987305v-3.2456665Z"/>
      <path class="cls-2" d="m188.9923814,1.9146118l.6928711-.8569946c.6928711.5287476,1.0395508.8752441,1.0209961,1.0393066,0,.072937-.0546875.145874-.1640625.2370605l-.3828125.291748v10.3023682h-1.0209961v-1.2216797h-3.3916016v1.9145508h-1.0576172V1.2946167c.1455078.072937.2915039.145874.4375.2006226l.328125.1640625c.2006836.1276855.3647461.2005615.4741211.2553101h3.0634766Zm.1459961.4558716h-3.3916016v4.1209106h3.3916016V2.3704834Zm-3.3916016,4.5767822v4.3032837h3.3916016v-4.3032837h-3.3916016Zm11.9799805-5.5067749l.7290039-.8934937c.7294922.5653076,1.0942383.9117432,1.0942383,1.0758667,0,.0546875-.0546875.145874-.1459961.2369995l-.4194336.3464966v12.472229c0,1.0028687-.6381836,1.5134277-1.8964844,1.5134277,0-.3282471-.21875-.5834961-.65625-.7476196-.3461914-.1276245-1.0029297-.2369995-1.9692383-.3464355v-.5105591c1.0029297.0911865,1.9692383.145874,2.862793.145874.3828125,0,.5654297-.2005615.5654297-.5834961v-4.2120972h-4.5952148c-.1274414,1.3675537-.4375,2.5345459-.9482422,3.5009766-.6015625,1.1669922-1.6411133,2.1698608-3.0996094,2.9904175l-.3286133-.3646851c1.5136719-1.1123047,2.4799805-2.4981079,2.9360352-4.1574097.2734375-.9846802.4008789-2.1881104.4008789-3.5921631V.8205566c.3833008.1640625.7841722.3646851,1.2402344.6199341h4.2304688Zm.1640625,4.3397827h-4.5224609v2.5345459c0,.291748-.0180664.6746826-.0361328,1.1669922h4.5585938v-3.7015381Zm-4.5224609-.4558716h4.5224609V1.8963623h-4.5224609v3.4280396Z"/>
    </g>
    <g>
      <path class="cls-2" d="m278.4435533,87.1550903h-67.1279297l21.2050781-22.2087402c7.5283203-7.9047852,13.1748047-14.8057861,17.1899414-21.204895,2.2583008-3.5133057,4.5170898-7.6538696,4.5170898-13.0491943,0-.8783569,0-5.2698975-2.5097656-8.0302734-1.2548828-1.380249-3.3876953-2.5095215-6.1479492-2.5095215-3.5131836,0-5.8974609,1.6311646-7.277832,3.3878174-2.0073242,2.6348877-2.8857422,7.4028931-3.0112305,10.2887573h-22.4594727c.1254883-10.9161377,4.8935547-18.8209229,9.2851562-23.2124634,5.6459961-5.6463013,13.2998047-9.0340576,23.7143555-9.0340576,12.546875,0,19.824707,4.8934326,23.5888672,8.6575928,3.3876953,3.3878174,8.1557617,9.7869263,8.1557617,20.5775757,0,10.5397339-4.8935547,17.8171997-12.421875,24.843689l-14.0532227,13.0491943h27.3530273v18.444519Z"/>
      <path class="cls-2" d="m345.321483,54.6575928h10.1630859v16.6878662h-10.1630859v15.8096313h-20.0756836v-15.8096313h-40.527832v-13.9274902L316.9645494,3.4645996h28.3569336v51.1929932Zm-20.0756836,0V20.5289307l-19.699707,34.1286621h19.699707Z"/>
    </g>
    <g>
      <path class="cls-1" d="m579.3079803,67.871362c-.0437965,1.8277957-.1743751,3.4161297-.3698374,4.7652049h6.4843203l.8483551-1.0226288c.9140499.7179793,1.3706693,1.1749029,1.3706693,1.3925676,0,.0869848-.086782.1740709-.2392588.2828526l-.5661108.326345c-.1086803,4.3082813-.5434014,7.1587058-1.3049745,8.5512734-.5442125.9791364-1.5231462,1.4795524-2.9157137,1.4795524-.0218983-.4569236-.3479391-.8050655-1.0008319-1.0444257-.4355322-.1522741-1.3057856-.3698374-2.6334694-.6309945v-.5875021c1.4801607.2611571,2.7421497.3917357,3.7867782.3917357,1.0657157,0,1.7186085-.4569236,1.9797656-1.3490752.4566194-1.5013493.7177765-3.916647.8264568-7.2456906h-6.7446663c-.9140499,5.1133468-3.5467083,8.725243-7.8987861,10.8793836l-.3479391-.4787205c2.5677746-1.6536233,4.3950634-3.6771854,5.5045756-6.0923818,1.1533087-2.4369933,1.762405-5.6355597,1.8499981-9.617496h-6.9847362l-.2173606-.5439084h15.5794007l1.261989-1.5884354c.5434014.4787205,1.1095122,1.0444257,1.6748119,1.6754202l-.2392588.4569236h-9.7041766Z"/>
      <path class="cls-1" d="m608.0522948,67.1533827l.8483551-.9792378c.9140499.6745883,1.3706693,1.1315119,1.3706693,1.3708721,0,.1087817-.0648838.1958678-.1954623.2610557l-.5661108.3264464v14.252021c0,1.1750043-.7834713,1.7842019-2.3715012,1.8059988-.0218983-.4134312-.2830554-.7180807-.8272679-.9138471-.4566194-.1523754-1.2830763-.3046495-2.5239781-.4569236v-.609299c1.4144659.1305786,2.5896729.1958678,3.4818245.1958678.6309945,0,.9570354-.2393602.9570354-.7180807v-6.3753358h-13.2946814v8.9211108h-1.2838873v-17.7334399c.4136339.1522741.9359482.3698374,1.5231462.6527914h12.8818585Zm-13.1211174,7.615528h6.0495991v-7.0716196h-6.0495991v7.0716196Zm13.2946814-7.0716196h-6.0049915v7.0716196h6.0049915v-7.0716196Z"/>
      <path class="cls-1" d="m614.3192545,76.4226354c-.2611571,0-.4347212-.1740709-.4347212-.4352281,0-.1740709.1086803-.4134312.3479391-.65269,1.9148818-1.8712881,3.52481-2.7851352,5.200433-2.7851352,1.4144659,0,2.8719172.65269,4.6124239,1.9799683,1.6975212,1.2837859,3.024394,1.8277957,4.1996011,1.8277957,1.4582624,0,2.7202514-.8268624,4.3082813-2.0888514.2611571-.2175633.500416-.3046495.6528928-.3046495.1086803,0,.1954623.0652893.1954623.1740709,0,.1305786-.086782.3046495-.2611571.5005173-1.8053905,2.0017652-3.3723332,2.8939169-5.0041596,2.8939169-1.4793496,0-3.0462923-.7397762-4.8954793-2.1106483-1.4582624-1.0661212-2.6545566-1.6319278-3.8297636-1.6319278-1.3487711,0-2.6764549.7397762-4.3950634,2.3065161-.2400699.2392588-.500416.326345-.6966893.326345Z"/>
    </g>
    <g>
      <path class="cls-1" d="m370.3036172,60.3049023c1.2181925-1.2402935,2.1103441-2.6545566,2.6975421-4.2429921,1.1314105.500416,1.6975212.8921516,1.6975212,1.1532074,0,.1740709-.2830554.2611571-.8272679.2611571-.7615731,1.2184966-1.8272888,2.2846178-3.1768709,3.2202619l-.3909246-.3916343Zm6.2012649-17.4941811l.7615731-.9791364c.8921516.6745883,1.3268728,1.0880195,1.3049745,1.2837859,0,.0652893-.0429855.1523754-.1305786.2175633l-.587198.4134312v11.9892h-1.1533087v-.9574409h-3.6772868v1.109715h-1.1962942v-13.7950974c.1516658.0652893.3260409.1522741.4785177.2393602.0648838.0216955.3479391.1957665.8921516.4786191h3.3074494Zm-3.4818245,3.6554899h3.6772868v-3.1114802h-3.6772868v3.1114802Zm3.6772868.5440097h-3.6772868v3.2420588h3.6772868v-3.2420588Zm0,3.7860685h-3.6772868v3.4378252h3.6772868v-3.4378252Zm1.0446285,8.3554056c-.3049536,0-.5442125-.2175633-.6966893-.6309945-.2822443-.8268624-.8921516-1.5884354-1.849187-2.3065161l.2611571-.4133298c1.9797656.8050655,2.9586992,1.6536233,2.9586992,2.5892674,0,.1087817,0,.1958678-.0210872.2610557.9570354-2.3064147,1.4355531-5.4831842,1.4355531-9.5303084v-6.6146961c.500416.2392588,1.0227302.5222128,1.588841.8703547h6.1355701l1.088425-1.4361614c.6090963.5440097,1.1095122,1.0662226,1.4793496,1.544943l-.2392588.4351267h-8.7909378v4.6346264h6.2020596l.7826767-1.0226288c.9359482.7615731,1.3925676,1.261989,1.3925676,1.5013493,0,.0870862-.0648838.1740709-.1954623.2393602l-.6528928.3481419c-.500416,2.1323438-1.3706693,4.1559059-2.5888618,6.0706863,1.174396,1.3490752,2.6756439,2.5240795,4.4818454,3.5467083-.4785177.3699388-.8483551.78337-1.0876139,1.2402935-1.675623-1.1532074-3.0462923-2.4152978-4.112819-3.7860685-1.3276838,1.7189126-3.0462923,3.0679878-5.113651,4.0471242l-.3479391-.4351267c1.9367801-1.1968011,3.5029117-2.6981504,4.6781187-4.5040478l.0656948-.1305786c-1.1533087-1.8059988-2.0024749-4.0036318-2.5239781-6.5712037h-.9797447c0,2.7198459-.1954623,4.8957835-.587198,6.5494068-.500416,2.0018666-1.3706693,3.7207792-2.6326584,5.1351437l-.4355322-.3481419c.3268519-.4569236.588009-.9574409.8272679-1.5013493-.1086803.1522741-.2830554.2175633-.5223142.2175633Zm5.0479561-9.7479732c.587198,2.0670545,1.4144659,3.8512564,2.4590943,5.3091133.9351371-1.5013493,1.6537247-3.3726373,2.1322424-5.6137628h-4.6781187l.086782.3046495Z"/>
      <path class="cls-1" d="m392.4322219,60.3266992c2.8289317-.8486592,4.6351333-2.1106483,5.4186046-3.8078654.500416-1.0879181.7615731-2.6328611.7826603-4.6346264,1.4363641.1087817,2.1541407.3046495,2.1541407.5875021,0,.1958678-.2822443.3698374-.8483551.5657052-.1524768,2.8286276-1.0446285,4.8522911-2.6545566,6.0489908-1.0665267.8050655-2.6326584,1.3925676-4.6562205,1.762405l-.1962734-.5221115Zm16.6021308-10.0744196l.8491661-1.0661212c1.0657157.9355426,1.5880299,1.5230448,1.5880299,1.7407095,0,.1087817-.1086803.1957665-.3260409.2610557l-.6966893.1740709c-.6747911.7832686-1.3925676,1.5013493-2.1760389,2.1323438l-.4347212-.3481419c.5223142-.7397762.9351371-1.5230448,1.2400908-2.3499071h-13.6215333c-.0648838,1.0226288-.2822443,1.8494912-.67398,2.5239781-.3698374.5875021-.7615731.8921516-1.175207.8921516-.5442125,0-.8053696-.2611571-.8053696-.7615731,0-.2175633.1743751-.4787205.5442125-.8050655.8702534-.7615731,1.3925676-1.8494912,1.5669427-3.2856525l.5434014.1305786c.0218983.2175633.0218983.4787205.0218983.7615731h13.5558385Zm-7.6587162-5.352707h-8.138045l-.2173606-.5439084h8.3554056v-3.1332771c1.5231462.0216955,2.2847192.1957665,2.2847192.5222128,0,.1957665-.3268519.3916343-1.0008319.6091976v2.0018666h5.874413l1.1533087-1.5231462c.5223142.4787205,1.0227302,1.0226288,1.5231462,1.6536233l-.2173606.4134312h-8.3335073v2.6981504h4.3512668l1.0665267-1.3708721.3698374.3264464c.3917357.3481419.7615731.7397762,1.1314105,1.1750043l-.2392588.4134312h-14.5785687l-.1743751-.5440097h6.7892739v-2.6981504Zm9.3343392,10.444257c-.0218983.3264464-.0218983.7180807,0,1.1315119,0,1.0009333.0648838,1.6319278.2173606,1.9147804.1086803.1958678.3487502.2828526.6966893.3046495-.0437965.7179793-.3917357,1.1749029-1.0446285,1.3272783-.587198.1087817-1.6975212.1740709-3.3504349.1740709-2.0243732,0-3.1987691-.1087817-3.525621-.3264464-.2822443-.1957665-.4347212-.6091976-.4347212-1.2184966v-6.788767c1.4574513.0652893,2.1971262.2393602,2.1971262.5658066,0,.1957665-.3041426.3698374-.9132389.5657052v5.2003316c0,.3699388.1086803.5875021.3260409.6527914.2392588.0870862.9359482.1305786,2.0454604.1305786,1.5012479,0,2.349603-.1958678,2.5458763-.5658066.2830554-.4569236.500416-1.5448417.67398-3.2420588l.5661108.1740709Z"/>
      <path class="cls-1" d="m375.068518,72.8909315c0,.1740709-.3049536.3698374-.9140499.5657052v12.0108955h-1.2400908v-10.9882667c-.6747911,1.4143645-1.4582624,2.7198459-2.3285158,3.916647l-.4566194-.3046495c1.9367801-3.3291449,3.3723332-7.3979647,4.3520779-12.2502557,1.3268728.2611571,2.0016638.5440097,2.0016638.8268624,0,.1958678-.3049536.3481419-.9359482.500416-.5442125,2.0235621-1.1095122,3.7425761-1.6967102,5.1786361.8045586.1087817,1.2181925.2828526,1.2181925.5440097Zm5.287215-.1087817v-4.3953675h-4.2644848l-.1962734-.5439084h11.6847533l1.1314105-1.4796538c.5442125.4569236,1.088425,1.0009333,1.588841,1.5884354l-.2392588.4351267h-4.8305956v4.3953675h2.2409227l.8921516-1.0662226c.8921516.6962838,1.3487711,1.1532074,1.3487711,1.3490752,0,.1087817-.0648838.1957665-.1954623.2828526l-.5223142.3481419v11.4668858h-1.261989v-1.6754202h-9.6173946v1.6754202h-1.261989v-13.142306c.587198.2828526,1.0446285.5439084,1.4144659.7615731h2.0884459Zm-2.2409227,10.1614043h2.262821v-9.617496h-2.262821v9.617496Zm5.8533258-10.1614043v-4.3953675h-2.350414v4.3953675h2.350414Zm-2.350414,10.1614043h2.350414v-9.617496h-2.350414v9.617496Zm6.1144829-9.617496h-2.5239781v9.617496h2.5239781v-9.617496Z"/>
      <path class="cls-1" d="m395.3698339,74.7404226c-.8045586,2.4151964-1.8062015,4.591134-3.0024958,6.5059144l-.500416-.2828526c1.6099282-2.981003,2.7632369-6.2013663,3.4599262-9.6609884h-3.0033068l-.173564-.5439084h3.2198563v-4.8304942c1.3706693.0652893,2.0673586.2610557,2.0892569.5875021,0,.1740709-.2830554.3481419-.8491661.5222128v3.7207792h1.2190035l1.0008319-1.4578569.2173606.2828526c.3268519.3698374.6747911.8050655,1.0446285,1.3054814l-.2173606.4134312h-3.2644639v2.0018666c1.9367801,1.3272783,2.8946265,2.545775,2.8727283,3.6554899,0,.5874007-.2392588.8703547-.6966893.8703547-.3260409,0-.5652997-.2611571-.6958783-.78337-.2830554-1.0879181-.7834713-2.0888514-1.4801607-3.0026985v11.4233934h-1.2400908v-10.7271096Zm4.1996011-.3046495l-.4136339-.4134312c1.9805766-2.1976331,3.438028-4.8739866,4.3739761-8.0289592,1.2400908.3698374,1.849187.6744869,1.849187.9573395,0,.1740709-.3041426.3046495-.8921516.3699388-.1954623.4569236-.3698374.8485579-.5223142,1.1749029h3.8297636l.8053696-1.0008319c.9351371.7615731,1.3925676,1.2401922,1.3925676,1.4795524,0,.1087817-.0875931.2175633-.2611571.2828526l-.6309945.2611571c-.7615731,1.5013493-1.7194195,2.8939169-2.85083,4.1342104,1.6537247,1.3925676,3.6343013,2.4804857,5.9182095,3.2855512-.3698544.326345-.6520817.7397762-.8913406,1.2402935-2.3723123-1.109715-4.2433976-2.3500085-5.6359652-3.7207792-1.849187,1.8494912-4.112008,3.3726373-6.7884629,4.5475402l-.3049536-.4786191c2.4801815-1.3273797,4.5694385-2.981003,6.2669597-4.9610727-.6966893-.7832686-1.3714804-1.7407095-2.0454604-2.87212-.8491661,1.3272783-1.9148818,2.5892674-3.1987691,3.7424747Zm8.5508679,3.9819363l.7615731-.8486592c.9140499.6527914,1.3714804,1.0662226,1.3714804,1.261989,0,.0870862-.0437965.1523754-.1524768.2176647l-.5661108.3916343v6.0271939h-1.2400908v-1.1314105h-5.6140669v1.1314105h-1.2181925v-7.572137c.1524768.0435938.6090963.2176647,1.3706693.5223142h5.287215Zm-5.4396918,5.3744025h5.6140669v-4.8304942h-5.6140669v4.8304942Zm2.7421497-10.9011805c1.0227302-1.2184966,1.8272888-2.5022826,2.4152978-3.8513578h-4.1347173c-.0210872.0652893-.2173606.4134312-.5652997,1.0662226.67398,1.0226288,1.4355531,1.9582728,2.2847192,2.7851352Z"/>
    </g>
    <g>
      <path class="cls-3" d="m425.0314426,70.5254117v-4.7182656h8.6092633v5.1321023c0,4.1389753,1.8208004,5.7116967,4.71786,5.7116967s4.7186711-1.4072678,4.7186711-6.5393701v-4.7183669c0-5.3805868-1.8216114-7.3672463-5.960384-7.3672463h-3.0625132v-8.2777478h3.3106936c3.3942314,0,5.4640232-1.4898932,5.4640232-6.125432v-4.2217021c0-4.1388739-1.9043382-5.7944235-4.5532175-5.7944235s-4.3869529,1.5727214-4.3869529,5.3805868v3.8076626h-8.6092633v-3.062716c0-9.2710776,4.6359443-14.4032812,13.3271233-14.4032812,8.69199,0,13.3271233,5.0494769,13.3271233,14.3205544v2.0693863c0,6.2083616-1.986254,10.0160242-6.4559336,11.6715737v.1656563c4.8833136,1.8210031,6.704925,6.0427052,6.704925,11.9199569v5.1321023c0,9.2710776-4.6359443,14.3205544-13.5761147,14.3205544-8.9393594,0-13.5753037-5.1322036-13.5753037-14.4032812Z"/>
      <path class="cls-3" d="m458.474152,84.1009181h-2.9797865v-8.7744127h8.7739058v7.8638097l-4.5524065,10.8439003h-4.2214993l2.9797865-9.9332974Z"/>
      <path class="cls-3" d="m499.7799616,70.6081385v-5.1321023c0-5.5461417,1.6553468-9.6021875,5.9595729-11.8372301v-.165555c-3.8078654-2.0694876-5.6286658-5.7116967-5.6286658-11.423292v-2.4004962c0-9.2710776,5.0495782-14.3205544,13.9070219-14.3205544,8.8566326,0,13.9062108,5.0494769,13.9062108,14.3205544v2.4004962c0,5.7115953-1.9035272,9.3538043-5.6286658,11.423292v.165555c4.3042261,2.2350426,5.9595729,6.2910883,5.9595729,11.8372301v5.1321023c0,9.2710776-5.0495782,14.3205544-14.237118,14.3205544-9.1883508,0-14.237929-5.0494769-14.237929-14.3205544Zm19.369423-.4965635v-5.5461417c0-4.3871557-1.7380736-6.5394715-5.131494-6.5394715-3.3942314,0-5.132305,2.1523158-5.132305,6.5394715v5.5461417c0,4.3871557,1.7380736,6.5393701,5.132305,6.5393701,3.3934204,0,5.131494-2.1522144,5.131494-6.5393701Zm-.3309072-26.1576831v-4.552812c0-3.807764-1.6553468-5.7944235-4.8005868-5.7944235-3.1460511,0-4.8013979,1.9866595-4.8013979,5.7944235v4.552812c0,3.8076626,1.6553468,5.7943221,4.8013979,5.7943221,3.14524,0,4.8005868-1.9866595,4.8005868-5.7943221Z"/>
      <path class="cls-3" d="m531.64924,70.3598567v-30.462112c0-9.2710776,4.8841247-14.5688362,13.8242951-14.5688362,8.9393594,0,13.823484,5.2977586,13.823484,14.5688362v30.462112c0,9.2710776-4.8841247,14.5688362-13.823484,14.5688362-8.9401704,0-13.8242951-5.2977586-13.8242951-14.5688362Zm18.5421551.5793917v-31.6208953c0-4.1389753-1.8208004-5.7116967-4.71786-5.7116967-2.8978707,0-4.7186711,1.5727214-4.7186711,5.7116967v31.6208953c0,4.1389753,1.8208004,5.7116967,4.7186711,5.7116967,2.8970597,0,4.71786-1.5727214,4.71786-5.7116967Z"/>
    </g>
    <g>
      <path class="cls-1" d="m574.6322947,60.9112613c-2.2336233-1.5741407-3.3431355-3.8228697-3.3431355-6.7762972,0-1.873924.5093375-3.5379895,1.5142246-4.9921967.5093375-.704597,1.1241111-1.3042649,1.8289108-1.7839991h.569355c-2.0835796,1.6640656-3.1330743,3.9127946-3.1330743,6.7761958,0,2.8784056,1.0494947,5.1422404,3.1330743,6.7762972h-.569355Z"/>
      <path class="cls-1" d="m579.5731926,54.3149151c-.5547561,1.5591364-1.2741547,2.9234187-2.1581959,4.10775l-.345506-.2248628c1.1549308-1.8740253,1.9789545-3.912896,2.4436844-6.1016075h-2.1435971l-.1200349-.3748051h2.3236495v-2.4736932c-.6439713.1499423-1.3487711.2848802-2.1135883.3898094l-.1200349-.329792c1.8289108-.4198182,3.283118-.9594685,4.3480226-1.6191538.6593812.3898094.9894773.6746897.9894773.8545393,0,.0899248-.0900262.1349379-.2554798.1349379-.1200349,0-.2692676-.0150044-.44932-.0600175-.5547561.179951-1.0649046.3298933-1.5596433.4348225v2.6685472h.8548435l.6747911-.9594685c.3146862.3447963.6147736.704597.8840412,1.0794021l-.1646425.2548715h-2.2490332v1.3042649c1.4696171.8545393,2.2044256,1.6640656,2.2044256,2.4585874,0,.3447963-.1500437.5247474-.4501311.5247474-.22466,0-.4047124-.179951-.5393462-.5547561-.2100612-.6745883-.6147736-1.3192692-1.2149483-1.9638488v7.0460717h-.8394336v-6.5963461Zm8.2459142.839535v4.2575909c0,.314889.2846775.4648313.8694423.4648313s.9294598-.1649467,1.0340848-.4797343c.1354448-.3898094.225471-1.1244152.2846775-2.1888129l.4055235.1798497c0,1.21434.0592064,1.9189371.1792414,2.1138925.0754274.1498409.2100612.2248628.4347212.2248628-.0145988.4047124-.1492326.6595839-.4347212.7646145-.2846775.1198322-.8994511.1798497-1.8435097.1798497-.7648173,0-1.2741547-.0749205-1.4996258-.2098584-.1946513-.1349379-.2992763-.4198182-.2992763-.8245306v-4.4825551h-1.1549308c-.0300087,1.4992203-.2846775,2.6685472-.7794161,3.5230865-.5847648,1.034389-1.6488584,1.8140079-3.1630831,2.3386538l-.2400699-.3447963c1.5442334-.7346058,2.5337106-1.7839991,2.953833-3.1182727.2092501-.6745883.3146862-1.4842159.3292851-2.3986713h-.8394336v.8095262h-.8540324v-5.2770769c.3446949.1649467.67398.314889.9894773.4797343h2.7429607c.5247474-1.0643977.9748784-2.2637334,1.3195734-3.598007.9140499.3447963,1.3787798.6146722,1.3941897.7946232,0,.1349379-.2100612.2098584-.6447823.2398671-.4047124.8095262-.9294598,1.6640656-1.5742421,2.5635166h1.3341722l.5247474-.6895927c.6147736.4797343.9294598.7795175.9448697.9144554,0,.0750218-.0454186.1349379-.1354448.179951l-.3747037.2548715v4.0327281h-.8394336v-.704597h-1.0640936Zm-4.0933539-7.4958986c1.364992.8545393,2.038972,1.7390874,2.038972,2.6535428,0,.4048138-.1792414.6146722-.5247474.6146722-.22466,0-.3747037-.194854-.44932-.5996678-.1500437-.8245306-.5847648-1.6490612-1.3041635-2.443583l.2392588-.2249641Zm5.1574475,3.8828872h-4.8273514v3.2382063h4.8273514v-3.2382063Z"/>
      <path class="cls-1" d="m595.5938028,57.6131389c.4793287.854438,1.2287361,1.4091941,2.263632,1.6939729.9594685.2848802,2.2790419.4198182,3.9725079.4198182,1.0949134,0,2.4290856-.0750218,4.0033277-.2098584-.225471.3897081-.3755147.7346058-.4347212,1.0193846h-3.1338854c-2.0535708,0-3.5823943-.1798497-4.6172902-.5396504-1.0340848-.3748051-1.7843033-.9894773-2.2490332-1.8290122-.0746163.0749205-.1192239.1349379-.1492326.1798497-.6147736.7496101-1.2595559,1.3942911-1.9043382,1.9489458-.0145988.4048138-.0900262.6146722-.1946513.6146722-.1946513,0-.4947386-.3898094-.9148609-1.1543226.8248347-.4198182,1.6642683-.9444642,2.4891031-1.5591364v-3.9878164h-2.3536582l-.1354448-.3748051h2.3390594l.569355-.7196014c.6147736.4947386.9294598.8095262.9294598.9444642,0,.0749205-.0446076.1349379-.1500437.1949554l-.3292851.2098584v3.1482815Zm-2.5191118-9.5497736c1.7542945.6446809,2.6391467,1.3942911,2.6391467,2.2337247,0,.4048138-.1800524.5997692-.5401573.5997692-.2400699,0-.4347212-.1649467-.569355-.509743-.3146862-.7346058-.8848522-1.4091941-1.7242858-2.053875l.1946513-.2698759Zm7.3464632,1.0044816h-2.7437718l-.1500437-.3748051h2.6837543l.569355-.7646145c.6601922.5247474.9894773.8545393.9894773,1.0044816,0,.0899248-.0746163.1648453-.22466.2248628l-.6293724.2698759c.0446076,2.1738086.569355,3.987715,1.588841,5.4120148.6747911.9743715,1.6342596,1.8439152,2.8784056,2.6385385-.3146862.194854-.5847648.4797343-.8248347.8245306-1.8735184-1.5142246-3.1030656-3.268215-3.6578217-5.2770769-.8240237,2.2637334-2.2482221,4.0327281-4.302604,5.2770769l-.2546687-.314889c2.2036145-1.6640656,3.6132141-3.9578077,4.197979-6.8511163-.0600175-.4648313-.1054361-1.1544239-.1200349-2.0688794Z"/>
      <path class="cls-1" d="m607.8357453,60.9112613c2.0835796-1.6490612,3.1330743-3.8978916,3.1330743-6.7612928,0-2.8784056-1.0494947-5.142139-3.1330743-6.7912002h.570166c2.2336233,1.5891451,3.3431355,3.8528785,3.3431355,6.7761958,0,1.8740253-.5101485,3.5380909-1.5142246,4.9922981-.5101485.704597-1.1249221,1.3042649-1.8289108,1.7839991h-.570166Z"/>
    </g>
    <path class="cls-3" d="m467.5351684,70.4778641v-4.4893476h8.4884173v5.1423417c0,4.0812896,1.7956579,5.5505011,4.6529763,5.5505011,2.8565073,0,4.6521652-1.4692115,4.6521652-5.5505011v-12.8149472c0-4.0812896-1.7956579-5.6321127-4.6521652-5.6321127-2.8573184,0-4.6529763,1.5508231-4.6529763,5.6321127v.4896696h-8.4884173l1.6318264-31.9150012h23.671216v8.1623764h-15.67186l-.7348085,13.6312659c1.6326375-2.6935883,4.3261244-4.1629012,7.9182513-4.1629012,6.6108436,0,9.9580343,4.6526721,9.9580343,13.0598833v12.8966601c0,9.1419183-4.5710605,14.3658717-13.3863297,14.3658717-8.8160802,0-13.3863297-5.2239533-13.3863297-14.3658717Z"/>
  </g>
</svg>