<?xml version="1.0" encoding="UTF-8"?>
<svg id="_レイヤー_2" data-name="レイヤー 2" xmlns="http://www.w3.org/2000/svg" viewBox="0 0 89.0595703 17.5810547">
  <defs>
    <style>
      .cls-1 {
        fill: #0097e0;
        stroke-width: 0px;
      }
    </style>
  </defs>
  <g id="_レイヤー_2-2" data-name="レイヤー 2">
    <g>
      <path class="cls-1" d="m12.4111328,9.0712891c-.097168.0478516-.2192383.0722656-.3168945.0722656-.4145508,0-.7314453-.3408203-.7314453-.7314453,0-.3164062.1464844-.4873047.3901367-.6582031,1.3901367-.9023438,3.2431641-3.4384766,3.8525391-4.9736328h-.4389648c-1.706543-.0253906-3.4379883.1210938-5.1445312.2431641-3.097168.2197266-6.1450195.7070312-9.2172852.8779297h-.0976562c-.4140625.0244141-.7070312-.3164062-.7070312-.7314453,0-.3896484.2685547-.6337891.6342773-.7070312s.7558594-.0976562,1.121582-.1220703l2.6088867-.2929688c2.3896484-.2431641,4.8037109-.4628906,7.2177734-.609375,1.1459961-.0732422,2.3164062-.1464844,3.4868164-.1464844.6337891,0,2.1699219-.1210938,2.1699219.9023438,0,1.7314453-3.2919922,6.1210938-4.828125,6.8769531Zm-3.0478516.8769531c-.2924805,1.6337891-.6337891,3.2431641-.9750977,4.8769531-.0976562.5117188-.1708984,1.0488281-.3168945,1.5605469-.1220703.4628906-.4389648.5849609-.8779297.5849609-.3168945,0-.5854492-.4140625-.5854492-.6826172,0-.4873047.2441406-1.2675781.3413086-1.7558594.3662109-1.6328125.7075195-3.2910156,1-4.9492188.1704102-.9511719.3657227-1.9755859.3657227-2.9501953,0-.4150391.3168945-.7314453.7314453-.7314453.3901367,0,.7314453.3408203.7314453.7314453,0,1.0966797-.2192383,2.2431641-.4145508,3.3154297Z"/>
      <path class="cls-1" d="m36.3354492,8.1933594c-1.0244141,2.0478516-2.0239258,4.0957031-2.9506836,6.1689453-.3901367.9023438-.7314453,1.828125-1.097168,2.7304688-.1220703.2929688-.3657227.4882812-.6826172.4882812-.3901367,0-.7314453-.3417969-.7314453-.7324219,0-.0722656.0244141-.1699219.0483398-.2431641.9755859-2.9501953,2.7070312-6.2421875,4.0966797-9.0712891.5849609-1.1699219,1.2192383-2.3652344,1.7070312-3.5839844-1.5605469-.3417969-3.5844727-.3417969-5.1694336-.3417969-.1953125,0-.3657227-.0722656-.512207-.1943359-.5849609.8291016-2.3896484,3.5839844-2.3652344,4.6083984v.0488281c.1464844.1464844.2197266.3408203.2197266.5361328,0,.3896484-.3413086.7070312-.7314453.7070312-.6098633,0-.9267578-.6826172-.9267578-1.21875,0-2.0976562,3.0966797-6.4619141,4.5595703-7.8759766.1464844-.1464844.3168945-.2197266.512207-.2197266.4145508,0,.7314453.3173828.7314453.7070312,0,.4394531-.7314453,1.1220703-1.0239258,1.4628906.9506836,0,5.2666016,0,5.9980469.8291016.1708984.1953125.2929688.3662109.2929688.6582031,0,.7558594-1.6337891,3.8535156-1.9750977,4.5361328Z"/>
      <path class="cls-1" d="m65.5258789,6.6083984c-.5605469,1.4628906-2.3408203,4.2177734-3.5356445,5.1689453-.121582.0976562-.2924805.1708984-.4628906.1708984-.4145508,0-.7558594-.3173828-.7558594-.7314453,0-.2441406.097168-.390625.2680664-.5615234,1.1459961-1.1210938,2.0239258-2.4140625,2.7797852-3.828125-.6586914-.0976562-1.3168945-.0976562-1.9750977-.0976562-1.9995117,0-4.0234375.1708984-6.0229492.4150391-.1704102,1.5849609-.3657227,3.21875-.3657227,4.828125,0,2.2431641.6342773,2.9257812,2.9262695,2.9257812,1.3408203,0,2.6577148-.3173828,3.9741211-.6582031.0732422-.0244141.1220703-.0244141.1953125-.0244141.3901367,0,.7070312.3417969.7070312.7314453,0,.3408203-.2192383.609375-.5366211.7070312-1.21875.3896484-3.0234375.7070312-4.3154297.7070312-3.0727539,0-4.4135742-1.3164062-4.4135742-4.3886719,0-1.5361328.1948242-3.0966797.3413086-4.6328125-1.3413086.1708984-3.2919922.4140625-4.5595703.9267578-.0976562.0488281-.1953125.0722656-.3173828.0722656-.3896484,0-.7314453-.3408203-.7314453-.7314453,0-.3164062.1708984-.5117188.4145508-.6582031.8046875-.4628906,4.3647461-.9755859,5.3647461-1.1210938.0727539-.6826172.4140625-3.5361328.7802734-4.0478516.1704102-.2197266.3657227-.3662109.6582031-.3662109.3901367,0,.7070312.3417969.7070312.7314453,0,.1464844-.0488281.2441406-.0976562.3662109-.2680664.6337891-.4628906,2.4384766-.5605469,3.1455078,1.9262695-.2197266,3.8769531-.390625,5.8276367-.390625.8046875,0,2.5844727.0488281,3.315918.390625.2685547.1220703.4389648.3652344.4389648.6826172,0,.0976562-.0244141.1708984-.0488281.2685547Z"/>
      <path class="cls-1" d="m88.3037109,16.0205078c-.097168,0-.1948242-.0244141-.2924805-.0732422-1.706543-.7802734-4.9008789-3.5605469-6.1201172-5.0234375-1.2924805,1.2431641-2.6088867,2.5117188-3.8037109,3.8769531-.2929688.3173828-.5610352.6337891-.8291016.9755859-.1708984.1953125-.2924805.4140625-.4633789.609375s-.3413086.3173828-.609375.3173828c-.390625,0-.7319336-.3662109-.7319336-.7558594,0-.1464844.0488281-.2929688.1220703-.4150391.5366211-.8291016,1.2924805-1.6337891,1.9750977-2.3652344,1.3652344-1.4384766,2.8041992-2.828125,4.2426758-4.1933594,1-.9511719,4.0234375-3.7558594,4.6083984-4.828125-1.097168-.5371094-3.8525391-.6582031-5.0717773-.6582031-1.3896484,0-3.2670898.0722656-4.5595703.5849609-.0976562.0488281-.1953125.0732422-.2924805.0732422-.3901367,0-.7314453-.3417969-.7314453-.7314453,0-.3173828.1948242-.5371094.4628906-.6826172,1.0732422-.5615234,3.9501953-.7070312,5.1694336-.7070312,1.2436523,0,6.559082.0488281,6.559082,1.9746094,0,1.0976562-2.1699219,3.1455078-2.8769531,3.8525391l-2.121582,2.0722656c1.1704102,1.4150391,3.1943359,3.1455078,4.7304688,4.1455078.3168945.1953125.6337891.3662109.9511719.5361328.2680664.1464844.4384766.3662109.4384766.6826172,0,.390625-.3413086.7324219-.7558594.7324219Z"/>
    </g>
  </g>
</svg>