<?xml version="1.0" encoding="UTF-8"?>
<svg id="_レイヤー_2" data-name="レイヤー 2" xmlns="http://www.w3.org/2000/svg" viewBox="0 0 348.149779 168.9301758">
  <defs>
    <style>
      .cls-1, .cls-2 {
        stroke-width: 0px;
      }

      .cls-2 {
        fill: #24bcef;
      }
    </style>
  </defs>
  <g id="_レイヤー_2-2" data-name="レイヤー 2">
    <g>
      <g>
        <path class="cls-2" d="m102.1044922,77.34375c-.2099609,0-.3603516-.0600586-.5097656-.1801758-.5703125-.4199219-1.1103516-.8696289-1.7099609-1.2900391-1.7695312-1.2597656-3.6298828-2.4594727-5.4599609-3.659668-.75-.4799805-1.5-.9599609-2.2197266-1.4697266-1.3496094.0297852-2.6699219.0595703-4.0195312.1196289-2.3105469,2.7900391-6.1796875,6.8398438-9.3603516,8.5795898-.1201172.0600586-.2695312.1201172-.4199219.1201172-.4492188,0-.8398438-.3896484-.8398438-.8398438,0-.2998047.1796875-.5400391.4199219-.6899414l1.2597656-.8100586c2.4599609-1.7700195,4.6806641-3.9897461,6.6601562-6.2695312-1.5302734.0595703-3.0898438.1796875-4.6201172.3295898-.6601562.090332-1.3496094.2104492-2.0097656.2700195h-.1201172c-.4199219,0-.8398438-.3598633-.8398438-.8095703,0-.4204102.2705078-.75.6904297-.840332.8095703-.1499023,1.6796875-.2099609,2.5195312-.2998047,1.9501953-.1801758,3.8994141-.300293,5.8496094-.3598633l1.3505859-1.800293c-.6308594.0302734-1.2900391.090332-1.9199219.1499023v.0605469c.0292969.449707-.390625.8095703-.8105469.8095703-.8701172,0-.7802734-.9296875-1.0498047-1.4697266v-.0600586l-.2099609-1.199707c-.1503906-1.2602539-.2402344-2.550293-.2402344-3.8100586,0-.7202148-.1796875-2.2202148.8701172-2.2202148.2705078,0,.4501953.090332.6298828.2705078.2998047-.0605469.6298828-.090332.9296875-.1201172-.2998047-.3300781-.4492188-2.3398438-.4794922-2.8203125-1.8896484.0605469-3.7802734.1503906-5.6699219.3300781-.6894531.0600586-1.3496094.1801758-2.0400391.2402344h-.1201172c-.4794922,0-.8398438-.3603516-.8398438-.8398438,0-.4199219.2998047-.7202148.6904297-.8100586.8994141-.2099609,1.9199219-.2402344,2.8496094-.3300781,1.7099609-.1201172,3.3896484-.2099609,5.0996094-.2700195,0-.2700195-.0302734-.5400391-.0302734-.7802734,0-.7197266-.0595703-1.5898438.9306641-1.5898438.4199219,0,.7792969.4199219.7792969.840332,0,.4799805-.0292969.9897461-.0292969,1.4697266l3.9296875-.1196289c.0898438-.5703125.1201172-1.1401367.1201172-1.7099609,0-.4204102.2998047-.8701172.7792969-.8701172.6601562,0,.9003906.4199219.9003906,1.0195312,0,.5102539-.0595703,1.0205078-.1201172,1.5302734,1.7705078-.0302734,3.5400391-.0600586,5.3398438-.0600586.8398438,0,1.7099609-.0297852,2.5498047.0297852.4804688.0302734.8398438.3300781.8398438.840332,0,.4799805-.4199219.8100586-.8701172.8100586-.5693359.0297852-1.1396484-.0302734-1.6796875-.0302734-2.1601562,0-4.3193359.0600586-6.4794922.0898438-.2099609.9301758-.4804688,1.8300781-.7802734,2.7299805.5400391,0,1.0498047-.0297852,1.5898438-.0297852.6601562,0,2.1904297-.2099609,2.1904297.8398438,0,.2099609-.0302734.4199219-.0605469.6298828-.2099609,1.6201172-.359375,3.2700195-.75,4.8598633.1201172.1499023.2099609.3300781.2099609.5400391,0,.4799805-.359375.8398438-.8398438.8398438-1.3798828,0-2.7900391.0600586-4.1699219.1201172-.359375.6298828-.8095703,1.2299805-1.2294922,1.7998047,2.6699219-.0898438,5.3398438-.1196289,8.0097656-.1196289h2.7900391c.5693359,0,1.1992188.0898438,1.1992188.8398438,0,.449707-.3896484.8095703-.8398438.8095703-1.8300781,0-3.6894531,0-5.5195312.0302734l.1503906.0898438c1.5.9301758,2.9394531,1.9199219,4.3798828,2.9101562.9892578.6601562,2.0390625,1.3496094,2.9394531,2.159668.1796875.1801758.2998047.3901367.2998047.6601562,0,.449707-.3896484.8100586-.8398438.8100586Zm-7.4091797,2.0698242c.2392578.1499023.4199219.4199219.4199219.7202148,0,.449707-.390625.8398438-.8398438.8398438-.8408203,0-6.5400391.0898438-6.8398438.3300781h-.1503906c-.4199219,0-.7197266-.300293-.8095703-.6904297-.3007812-1.3496094-.3603516-4.1396484-.3603516-5.5795898,0-.8100586-.1503906-2.0698242.9902344-2.0698242.2998047,0,.5996094.2998047.6894531.5698242.1503906-.2099609.2998047-.3300781.5400391-.3901367.9902344-.2998047,3.5400391-.3300781,4.6201172-.3300781.7802734,0,2.2802734-.2397461,2.2802734.9003906,0,1.7099609-.2109375,4.0498047-.5400391,5.699707Zm-.1201172-18.2094727c-2.7900391,0-5.6699219.0600586-8.4296875.4199219v.300293c0,.3295898,0,.6298828.0292969.9599609,2.6103516-.4199219,5.640625-.4501953,8.2802734-.5102539.0595703-.3896484.1201172-.7797852.1494141-1.1699219h-.0292969Zm-8.2802734,3.3598633c.0302734.4501953.0898438.9301758.1806641,1.3803711,2.4599609-.2402344,4.9794922-.3300781,7.4394531-.3603516.1201172-.5097656.2099609-1.0200195.2998047-1.5297852-2.3701172.0297852-5.6396484.1196289-7.9199219.5097656Zm6.6904297,9.8999023c-1.3798828-.0302734-2.9101562,0-4.2597656.2998047-.0605469.0302734-.1201172.0302734-.2099609.0302734-.3007812,0-.5400391-.1801758-.6904297-.4199219-.0302734.2695312-.0302734.5395508-.0302734.8095703,0,.3300781.0302734.6601562.0302734.9902344,1.8603516-.2402344,3.75-.300293,5.609375-.3300781.0605469-.4501953.0908203-.9301758.0908203-1.3798828h-.5400391Zm-5.1005859,3.3598633l.1201172,1.7094727c1.6503906-.1494141,3.3300781-.1796875,5.0097656-.2099609.1201172-.5996094.2099609-1.2294922.2705078-1.8295898-1.7998047.0600586-3.6298828.0898438-5.4003906.3300781Zm.2402344-20.8793945c.0605469.75.0898438,1.5.2998047,2.2197266.0302734.090332.0302734.2099609.0302734.300293,0,.0898438,0,.2099609-.0302734.2998047.8105469-.0600586,1.5898438-.1196289,2.4003906-.1499023l.0302734-.1499023c.2998047-.8701172.5693359-1.7397461.8095703-2.6098633l-3.5400391.0898438Z"/>
        <path class="cls-2" d="m118.8154297,78.9335938c-.1503906.1201172-.3603516.1796875-.5400391.1796875-.4804688,0-.9003906-.3896484-.9003906-.8696289,0-.300293.1503906-.5400391.3603516-.7202148.5097656-.4199219,1.0498047-.8398438,1.5292969-1.2900391,2.1601562-2.0996094,3.75-4.8295898,3.75-7.8896484,0-1.1396484-1.0195312-1.2900391-1.9199219-1.2900391-1.3496094,0-2.8496094.3901367-4.0791016.9003906-.1201172.0595703-.2402344.0898438-.390625.0898438-1.2001953,0-1.3193359-2.3095703-1.3193359-3.1499023,0-1.1699219.359375-4.1396484,1.0195312-5.1298828.1796875-.2700195.4501953-.449707.7802734-.449707.5097656,0,.8994141.3896484.8994141.8999023,0,.1801758-.0292969.2998047-.1201172.449707-.5400391,1.050293-.7792969,3.1801758-.7792969,4.3500977,0,.3300781,0,.659668.0595703.9599609,1.2001953-.3901367,2.5800781-.6899414,3.8701172-.6899414,1.9501953,0,3.7792969.8095703,3.7792969,3.0595703,0,4.2299805-2.6396484,8.1899414-5.9990234,10.5898438Zm4.8291016-19.4091797c-.4794922,0-.8994141-.4199219-.8994141-.8999023,0-.6601562-.1503906-2.6098633-.3300781-3.2099609-.0302734-.1201172-.0595703-.2099609-.0595703-.3300781,0-.4799805.4199219-.8999023.8994141-.8999023.3896484,0,.6904297.2099609.8398438.5698242.2705078.6303711.4501953,3.0898438.4501953,3.8701172,0,.4799805-.4199219.8999023-.9003906.8999023Z"/>
        <path class="cls-2" d="m151.7246094,78.7836914c-.0898438,0-.2695312-.0302734-.359375-.0600586-3.6298828-1.4101562-3.9003906-7.2597656-3.9003906-10.5297852,0-2.7597656.2099609-5.4897461.4804688-8.1894531l.2402344-2.4897461c.0292969-.4199219.0595703-.8701172.1191406-1.2900391.0908203-.4799805.4208984-.8100586.9003906-.8100586.4804688,0,.9296875.4199219.9003906.8999023v.0898438c-.2099609,3.9296875-.8105469,7.8598633-.8105469,11.7895508,0,2.3100586.1201172,6.5097656,1.8300781,8.2495117.2998047.300293.5703125.4204102.9296875.6303711.3300781.2099609.5703125.4199219.5703125.8398438,0,.4799805-.4199219.8701172-.9003906.8701172Z"/>
        <path class="cls-2" d="m183.2548828,77.7036133c-.1503906.1201172-.3603516.1801758-.5400391.1801758-.4794922,0-.8994141-.4199219-.8994141-.9003906,0-.2998047.1191406-.5097656.359375-.7197266.5097656-.4501953,1.0205078-.8398438,1.5-1.3500977,1.7998047-1.949707,3.3300781-5.0698242,3.3300781-7.7695312,0-3.8999023-2.3095703-6.2397461-6.2695312-6.2700195.5400391.8100586.9892578,2.0102539.9892578,3,0,1.2900391-.2392578,2.5498047-.6894531,3.75-.9003906,2.3701172-3.3603516,5.7900391-6.2099609,5.7900391-2.7900391,0-4.7392578-2.4003906-4.7392578-5.1000977,0-5.699707,5.2197266-9.2094727,10.5292969-9.2094727,5.0097656,0,8.1591797,3.0297852,8.1591797,8.0395508,0,3.8100586-2.4599609,8.3393555-5.5195312,10.5595703Zm-4.4697266-16.3793945c-.0898438-.0898438-.1503906-.1201172-.1796875-.2402344-3.6005859.7202148-6.75,3.3300781-6.75,7.2299805,0,1.7099609,1.1396484,3.2998047,2.9697266,3.2998047.6298828,0,1.3496094-.449707,1.8300781-.8100586,2.0400391-1.5898438,3.2695312-4.3798828,3.2695312-6.9296875,0-.8999023-.5097656-1.9199219-1.1396484-2.5498047Z"/>
        <path class="cls-2" d="m205.7255859,60.4541016c-1.0800781,0-2.1601562.0302734-3.2402344.090332v5.9697266c.4199219-.1499023,2.7001953-1.1401367,3.0302734-1.1401367.4492188,0,.8691406.3901367.8691406.8398438,0,.3603516-.2392578.6601562-.5693359.8100586-1.0800781.4799805-2.2197266.840332-3.3300781,1.3198242-.0302734,2.0102539,0,9.8999023-.8398438,11.5498047-.1503906.2998047-.3896484.4501953-.7197266.4501953-.75,0-2.7597656-2.2202148-2.7597656-2.9404297,0-.449707.3896484-.8398438.8691406-.8398438.3007812,0,.5703125.1801758.7207031.4199219.2099609.3300781.4199219.6601562.6894531.9599609.3603516-2.8198242.3300781-6.0595703.3300781-8.9091797-.8994141.4199219-1.7998047.8696289-2.6699219,1.3496094-.1796875.0898438-.2695312.1201172-.4501953.1201172-.4794922,0-.8398438-.3300781-.8398438-.8398438,0-.300293.1201172-.5102539.3603516-.6904297.8398438-.5996094,2.6396484-1.3193359,3.6298828-1.7695312v-6.5400391c-1.0205078.090332-2.1298828.1503906-3.0898438.5102539-.1201172.0600586-.2099609.0600586-.3300781.0600586-.4804688,0-.8398438-.3603516-.8398438-.8398438,0-.3603516.2099609-.6000977.5097656-.75.7802734-.3901367,2.8496094-.6000977,3.75-.6601562,0-1.0200195-.0605469-3.0600586.1201172-4.0200195.0898438-.4199219.359375-.7495117.8095703-.7495117.4804688,0,.8701172.3896484.8398438.8398438v.1201172c-.0595703,1.2294922-.0898438,2.4594727-.0898438,3.6894531,1.0800781-.0600586,2.1601562-.0898438,3.2402344-.0898438.4492188,0,.8398438.3896484.8398438.8398438s-.390625.8398438-.8398438.8398438Zm17.8486328,18.4794922c-.8095703.3896484-2.6699219.6899414-3.5693359.6899414-2.5498047,0-9.3300781-3.1499023-11.9697266-4.1098633-.6904297,1.1098633-2.1298828,3.1796875-3.0898438,4.0195312-.2099609.1801758-.3300781.2402344-.5996094.2402344-.4501953,0-.8408203-.3300781-.8408203-.8100586,0-.2397461.0908203-.3901367.2402344-.5698242l1.0205078-1.1396484c1.5292969-1.8603516,2.7900391-4.050293,3.7792969-6.2700195.2099609-.5102539.390625-1.050293.6298828-1.5898438.1503906-.3300781.4199219-.5698242.8105469-.5698242.4501953,0,.8398438.3896484.8398438.8398438,0,.5996094-1.5605469,3.6894531-1.9199219,4.3798828.359375.1196289.6894531.2695312,1.0195312.4199219,1.140625.4799805,2.3105469.9599609,3.4804688,1.409668.0292969-2.9995117.1201172-6.0297852.2099609-9.0297852-1.9501953.0605469-3.9003906.300293-5.8496094.300293h-.0908203c-.4492188,0-.8095703-.3901367-.8095703-.8398438,0-.4799805.2998047-.7802734.75-.840332.5400391-.0898438,1.1103516-.0898438,1.6494141-.1196289,1.0507812-.0600586,2.1005859-.090332,3.1503906-.1201172,2.8203125-.1201172,5.609375-.1801758,8.4296875-.1801758.4501953,0,.8398438.3901367.8398438.8398438,0,.4501953-.3896484.840332-.8398438.840332-1.8603516,0-3.6894531.0297852-5.5498047.0898438l-.0898438,3.5400391c1.3496094-.0302734,2.7294922-.0302734,4.0800781-.0302734.6298828,0,1.3798828-.0297852,1.3798828.840332,0,.449707-.390625.8398438-.8408203.8398438h-2.5498047c-.6894531,0-1.4091797,0-2.1298828.0297852-.0292969,1.5-.0595703,2.9702148-.0595703,4.4702148,1.0498047.3896484,3.8398438,1.4697266,4.9199219,1.4697266.9599609,0,2.0693359-.2402344,2.9697266-.5703125.0898438-.0297852.2099609-.0595703.2998047-.0595703.4501953,0,.8398438.3896484.8398438.8095703,0,.3901367-.2099609.6303711-.5400391.7802734Zm-4.0498047-21.3291016c-.1494141,1.3798828-.2695312,2.7597656-.5097656,4.1098633.1796875.1499023.2998047.3901367.2998047.6298828,0,.4799805-.3896484.8100586-.8398438.8398438-.9902344.0600586-7.5595703.2099609-7.9794922.4199219h-.1503906c-.4199219,0-.7197266-.2700195-.8095703-.659668-.1796875-.75-.1201172-2.0703125-.1201172-2.8203125,0-1.3198242.0302734-2.6396484.0898438-3.9296875.0302734-.5400391,0-1.1396484.0898438-1.6796875.0605469-.4199219.390625-.75.8105469-.75.7197266,0,.8398438.5400391.8398438,1.0800781,1.6201172-.2099609,3.2695312-.2099609,4.8896484-.2099609.9003906,0,1.9804688-.0605469,2.8798828.0898438.4199219.0600586.7197266.3896484.7197266.8398438,0,.5703125-.1494141,1.4399414-.2099609,2.0400391Zm-3.4199219-1.2900391c-1.6191406,0-3.3291016-.0302734-4.9492188.2402344l-.0605469,1.7099609c2.1904297-.2705078,4.5-.3300781,6.6904297-.2402344.0898438-.5703125.1191406-1.1098633.1796875-1.6796875-.6298828-.0302734-1.2304688-.0302734-1.8603516-.0302734Zm.3007812,3.3598633c-1.7402344,0-3.5703125.0297852-5.3105469.2700195v.4799805c0,.449707,0,.9301758.0302734,1.409668,2.0703125-.1499023,4.1396484-.2397461,6.2099609-.2998047.1201172-.5996094.1796875-1.2299805.2695312-1.8300781-.3896484,0-.7792969-.0297852-1.1992188-.0297852Z"/>
        <path class="cls-2" d="m252.7949219,62.8842773h-.0908203c-1.2294922-.0600586-2.4589844-.090332-3.7197266-.090332-1.5898438,0-3.1796875.0302734-4.7695312.0605469-.2099609.8398438-.4794922,1.6796875-.7802734,2.4897461.6904297,0,2.0703125-.1801758,2.0703125.8696289,0,.4501953-.3603516.8701172-.8398438.8701172-.6601562,0-1.3203125,0-1.9804688-.0302734-.2695312.4804688-.6591797,1.3500977-1.3193359,1.3500977-.4804688,0-.8701172-.4199219-.8701172-.8696289,0-.2099609.0898438-.4199219.2402344-.5703125-1.5605469-.1201172-4.8896484-.2998047-4.8896484-2.4897461,0-.4199219.0898438-.8398438.1796875-1.2602539-2.1601562.1503906-6.1494141.3300781-8.1601562,1.0205078-.0898438.0297852-.2099609.0595703-.2998047.0595703-.4501953,0-.8701172-.3598633-.8701172-.8398438,0-.3598633.2402344-.6601562.5703125-.8100586,1.7402344-.7197266,7.2597656-1.0498047,9.2392578-1.1699219l1.0507812-2.909668c.1191406-.3300781.4492188-.5703125.8095703-.5703125.4794922,0,.8701172.4199219.8701172.8701172,0,.4199219-.6904297,1.9501953-.8701172,2.4902344l4.5-.1801758c.1796875-.8100586.2998047-1.6201172.4199219-2.4301758.0595703-.449707.359375-.7797852.8398438-.7797852.4794922,0,.8701172.3901367.8701172.8701172,0,.75-.2099609,1.5898438-.3603516,2.3100586,1.5605469-.0605469,3.1201172-.090332,4.6796875-.090332.9902344,0,2.6103516-.0297852,3.5703125.1201172.4199219.0600586.7792969.3901367.7792969.8398438,0,.4799805-.3896484.8999023-.8691406.8701172Zm-.5400391,14.7592773c-3.3603516,0-8.1298828-1.8598633-11.2197266-3.2099609v5.0400391c0,.4799805-.3896484.8398438-.8701172.8398438-.4794922,0-.8398438-.3901367-.8398438-.8701172v-5.3398438c-1.5898438,1.3798828-3.3603516,2.5800781-5.1601562,3.6899414-.8701172.5698242-1.7998047,1.1699219-2.7294922,1.590332-.1201172.0595703-.2705078.0898438-.3896484.0898438-.4501953,0-.8701172-.3901367-.8701172-.8398438,0-.3603516.2099609-.5703125.4794922-.75.4199219-.2705078.9003906-.4804688,1.3203125-.7202148,2.0996094-1.2299805,5.2197266-3.2397461,6.8994141-4.949707-1.6796875.0898438-8.2197266.3300781-9.6298828.8999023-.1191406.0600586-.2392578.0898438-.3896484.0898438-.4501953,0-.8398438-.3598633-.8398438-.8100586,0-.3896484.1796875-.6298828.4794922-.8095703,1.2001953-.6904297,9.2402344-1.0498047,10.8603516-1.1103516.0292969-.7797852-.1503906-1.9794922.9296875-1.9794922.5097656,0,.8701172.3896484.8701172.8696289s-.0605469.5400391-.0898438,1.050293c3.5390625-.1201172,7.0791016-.1801758,10.6191406-.1801758.4501953,0,.8398438.3901367.8398438.8398438,0,.4501953-.359375.8701172-.8398438.8701172-3.5400391,0-7.109375.0600586-10.6494141.1801758v.4794922l.0898438.0302734c3.1201172,1.0498047,7.8896484,3.2998047,11.1298828,3.2998047.4794922,0,.8701172.3901367.8701172.8701172s-.390625.8398438-.8701172.8398438Zm-3.7197266-17.3393555c-.1806641.2402344-.390625.3598633-.6904297.3598633-.4794922,0-.8701172-.3598633-.8701172-.8398438,0-.2099609.0605469-.3598633.1503906-.5097656.4794922-.75.7792969-1.3798828,1.0498047-2.2197266-1.3203125-.0605469-2.6103516-.0605469-3.9296875-.0605469-2.1298828,0-4.2900391.0302734-6.4199219.1503906-1.2900391.0595703-2.6396484.1499023-3.8994141.449707-.1503906.9301758-.3007812,1.8598633-.3007812,2.7900391,0,.4799805-.3896484.8398438-.8398438.8398438-.5693359,0-.8701172-.4799805-.8701172-1.0200195,0-1.3496094.2402344-2.8496094.5400391-4.1699219.0898438-.4199219.4501953-.659668.8701172-.659668.3300781,0,.5703125.1499023.7197266.449707,1.8300781-.3598633,3.7802734-.4199219,5.640625-.4794922l.1191406-1.0800781c.0605469-.6000977.0605469-1.4101562.9003906-1.4101562.4794922,0,.8701172.3901367.8701172.8701172,0,.5097656-.1503906,1.0200195-.1503906,1.5595703.75,0,1.5302734-.0297852,2.2802734-.0297852,1.2597656,0,2.4902344.0297852,3.75.0600586.5996094.0302734,1.3496094,0,1.9199219.1499023.4199219.090332.6894531.3901367.6894531.840332,0,.9599609-.9599609,3.1796875-1.5292969,3.9594727Zm-10.7402344,2.7900391c-.1201172.4199219-.2695312.8696289-.2392578,1.3198242v.1201172c.4794922.5698242,3.4189453.7197266,4.0498047.75.3291016-.7802734.5693359-1.5600586.8095703-2.3701172-1.5302734.0302734-3.0898438.1201172-4.6201172.1801758Z"/>
        <path class="cls-2" d="m11.5800781,114.5336914c-1.1699219,1.1699219-3.9296875,2.2197266-5.5800781,2.2197266-2.7001953,0-6-.8999023-6-4.1694336,0-2.6401367,2.0107422-4.8300781,4.0498047-6.2402344-.9892578-2.0698242-1.3496094-5.0097656-1.3496094-7.2895508,0-1.2900391.0898438-3.1796875.5097656-4.3798828.1503906-.3901367.4501953-.659668.8701172-.659668.5097656,0,.9003906.3896484.9003906.8999023,0,.0898438,0,.1499023-.0302734.2397461-.3300781,1.3203125-.4501953,2.6401367-.4501953,3.9599609,0,1.9799805.2705078,4.4697266,1.0800781,6.2695312,1.0800781-.5996094,3.0898438-1.5,4.3203125-1.5.4794922,0,.9296875.3603516.9296875.8701172,0,.5400391-.3300781.8398438-.8398438.9301758-.4804688.0898438-.9003906.1499023-1.3505859.2998047-2.609375.840332-6.8388672,3.5400391-6.8388672,6.6000977,0,2.0996094,2.609375,2.3994141,4.1992188,2.3994141,1.5605469,0,3.1796875-.8696289,4.3798828-1.7998047.1796875-.1499023.3603516-.2397461.5996094-.2397461.4804688,0,.9003906.4199219.9003906.8999023,0,.2998047-.0898438.4799805-.2998047.6899414Z"/>
        <path class="cls-2" d="m39.2099609,118.7036133c-.1201172.0600586-.2402344.0898438-.3603516.0898438-.4794922,0-.8994141-.4199219-.8994141-.8999023,0-.3901367.2099609-.6298828.5400391-.8100586.6298828-.3300781,1.2597656-.6298828,1.8896484-1.0498047,2.4003906-1.590332,4.8300781-4.409668,4.8300781-7.4399414,0-2.5195312-1.2001953-4.4394531-3.5400391-5.3994141-1.6503906,6.0292969-5.1894531,10.5893555-11.2197266,12.5991211-.8095703.2700195-1.6494141.4204102-2.4892578.4204102-2.5800781,0-4.1103516-1.4702148-4.1103516-4.050293,0-4.949707,4.9199219-9.1791992,9.2695312-10.6196289.0302734-1.9199219.1201172-3.8398438.4199219-5.7294922-1.7392578.1201172-3.5996094.1499023-5.2792969.6298828-.0898438.0302734-.2099609.0302734-.2998047.0302734-.4804688,0-.8701172-.3901367-.8701172-.8701172,0-.4199219.2392578-.6899414.5996094-.8398438,1.0205078-.4501953,4.9501953-.6904297,6.1796875-.75.1503906-.75.3300781-1.5898438.6601562-2.2802734.1503906-.3300781.4501953-.5400391.8398438-.5400391.4501953,0,.8701172.3901367.8701172.8701172,0,.2402344-.4501953,1.5302734-.5400391,1.8901367,1.8300781-.090332,3.6601562-.1201172,5.4902344-.1201172.8398438,0,2.2490234-.0600586,3.0898438.0600586.5097656.0600586.8398438.3896484.8398438.9296875,0,.5102539-.4501953.840332-.9306641.840332-.9296875,0-1.8291016-.0600586-2.7597656-.0600586-2.0097656,0-4.0498047.0600586-6.0595703.1201172-.2695312,1.7695312-.3896484,3.5693359-.4501953,5.3696289.9902344-.2397461,2.0097656-.300293,3.0302734-.300293.8095703,0,1.6201172.0605469,2.3994141.1801758.1503906-.7202148.2402344-1.4399414.3603516-2.159668.0898438-.4501953.4199219-.7802734.8701172-.7802734.4794922,0,.8994141.3901367.8994141.8701172,0,.6298828-.2695312,1.8896484-.3896484,2.5498047,3.1503906,1.1699219,4.8896484,3.8100586,4.8896484,7.1396484,0,4.4399414-3.9599609,8.3999023-7.7695312,10.1098633Zm-1.2001953-16.1396484c-1.0195312,0-2.0996094.0600586-3.0898438.3300781.0302734,1.9799805.1806641,4.5297852.9003906,6.3896484.0595703.1201172.0898438.2402344.0898438.3598633,0,.5102539-.4199219.8701172-.9003906.8701172-.3896484,0-.6298828-.1796875-.8095703-.5097656-.75-1.3500977-.9902344-5.0097656-1.0498047-6.5698242-3.4199219,1.3198242-7.5302734,4.7099609-7.5302734,8.699707,0,1.6201172.75,2.3095703,2.3701172,2.3095703.6298828,0,1.2900391-.1196289,1.9199219-.3295898,5.4902344-1.8598633,8.5800781-5.909668,10.0498047-11.3999023-.6601562-.0898438-1.2900391-.1499023-1.9501953-.1499023Z"/>
        <path class="cls-2" d="m69.8701172,111.8637695c-.9003906,2.7299805-3.4501953,4.5297852-6.2998047,4.5297852-1.9794922,0-3.6601562-1.4399414-3.6601562-3.4799805,0-2.909668,3.4199219-3.659668,5.7304688-3.659668.9296875,0,1.859375.0898438,2.7597656.3300781-.1503906-1.8300781-2.9101562-4.8300781-4.6201172-5.3701172-.4199219-.1499023-.7197266-.4199219-.7197266-.8696289,0-.4501953.2099609-.6601562.5693359-.840332.8701172-.4794922,3.8398438-4.4394531,4.2597656-5.4296875-.5996094-.5996094-2.0097656-.9296875-2.7890625-1.1699219-.4199219-.1201172-.6904297-.4501953-.6904297-.8999023,0-.4799805.3896484-.8696289.8701172-.8696289.0898438,0,.1796875,0,.2402344.0297852,1.2900391.2998047,4.1992188,1.1699219,4.1992188,2.8500977,0,1.3193359-3.1191406,5.0996094-4.1396484,6.1191406,2.0097656,1.3500977,4.6201172,4.0800781,4.6201172,6.6601562,0,.1796875-.0302734.3598633-.0302734.5400391.2099609.1499023.3300781.4199219.3300781.659668,0,.3901367-.2695312.75-.6298828.8701172Zm-4.2597656-.8398438c-1.1396484,0-3.9296875.2998047-3.9296875,1.8896484,0,1.050293.8994141,1.7099609,1.8896484,1.7099609,2.0996094,0,3.8701172-1.2895508,4.5595703-3.2700195-.8095703-.2397461-1.6796875-.3295898-2.5195312-.3295898Z"/>
        <path class="cls-2" d="m105.5693359,104.4541016c-.2099609,0-.2998047-.0302734-.4794922-.1201172-.7197266-.2998047-6.9902344-.3598633-8.0097656-.3598633-.5996094,2.2197266-4.0195312,11.5493164-5.25,13.0493164-.1796875.2402344-.4199219.3901367-.7197266.3901367-.4794922,0-.9003906-.4199219-.9003906-.8999023,0-.1801758.0605469-.3300781.1503906-.4799805,1.0498047-1.6801758,1.7695312-3.6000977,2.4902344-5.4301758.8701172-2.1894531,1.7099609-4.3793945,2.3691406-6.6293945h-.359375c-1.3798828,0-9.5097656.2099609-10.6201172,1.0795898-.2099609.1801758-.3291016.2705078-.6298828.2705078-.5097656,0-.8994141-.3901367-.8994141-.9003906,0-.2695312.0898438-.4199219.2402344-.6298828,1.2597656-1.6499023,11.4589844-1.6499023,13.6191406-1.6499023,1.4394531,0,7.9199219.0600586,9.0898438.4799805.4492188.1503906.8095703.4199219.8095703.9599609,0,.4501953-.4199219.8701172-.9003906.8701172Zm-4.4091797-6.4794922c-.1503906,0-.2402344-.0605469-.3603516-.090332-.5097656-.1499023-5.0996094-.1801758-5.8496094-.1801758-1.2294922,0-2.4599609.0302734-3.6894531.1201172h-.0908203c-.5097656.0302734-.8994141-.4199219-.8994141-.8999023s.3300781-.8100586.7802734-.8999023c1.1396484-.1801758,2.6699219-.1499023,3.8095703-.1499023.6601562,0,1.3496094.0297852,2.0097656.0297852.9003906.0302734,3.7802734.0302734,4.5898438.3300781.1503906.0600586.2998047.1499023.3896484.2700195.1201172.1801758.2099609.3598633.2099609.5698242,0,.5102539-.4199219.9003906-.8994141.9003906Zm3.0595703-1.2602539c-.9599609,0-1.6796875-1.8300781-1.6796875-2.6401367,0-.5400391.3896484-.9296875.9296875-.9296875.4804688,0,.8398438.3896484.8701172.8701172.0595703.8696289.75,1.199707.75,1.7998047,0,.4799805-.3603516.8999023-.8701172.8999023Zm3.9902344-1.2602539c-1.2597656,0-1.7402344-2.3398438-1.7402344-3.3295898,0-.5102539.3300781-.9599609.8701172-.9599609.5097656,0,.8994141.3598633.9296875.8701172.0302734.4799805.0898438,1.4697266.4804688,1.7998047.2099609.1801758.359375.4199219.359375.7202148,0,.5097656-.4199219.8994141-.8994141.8994141Z"/>
        <path class="cls-2" d="m130.7099609,99.984375c-.2402344.4199219-2.1894531,2.4897461-2.5800781,2.9394531.1503906.1503906.2402344.3901367.2402344.6000977,0,.9902344-.1503906,1.9799805-.2402344,2.9702148-.2402344,2.5195312-.5097656,5.0693359-.5097656,7.6196289,0,.449707.0595703.8999023.0595703,1.3798828s-.3896484.8696289-.8691406.8696289c-1.140625,0-.9902344-1.5595703-.9902344-2.3095703,0-2.5800781.2998047-5.1601562.5400391-7.7099609l.1494141-1.6796875c-.8994141.9599609-5.9394531,6.2998047-6.7792969,6.75-.1503906.0898438-.2705078.1196289-.4501953.1196289-.4794922,0-.8994141-.3901367-.8994141-.8999023,0-.3598633.1796875-.5698242.4492188-.7802734.6005859-.449707,1.140625-1.0195312,1.6806641-1.5297852l2.9394531-2.9995117c1.1699219-1.2304688,2.3701172-2.4902344,3.5097656-3.75.75-.8100586,1.5302734-1.6499023,2.2197266-2.5200195.2099609-.2700195.4199219-.449707.75-.449707.5107422,0,.9003906.4199219.9003906.9296875,0,.1801758-.0302734.2998047-.1201172.4501953Z"/>
        <path class="cls-2" d="m152.8505859,104.0639648c-.4804688,0-.7802734-.2998047-.8701172-.75-.1503906-.659668-2.0703125-2.0698242-2.5498047-2.4296875-.9599609-.6899414-2.0097656-1.4101562-3.0898438-1.8901367-.3603516-.1499023-.6298828-.449707-.6298828-.8701172,0-.4794922.4492188-.8994141.8994141-.8994141.1201172,0,.2099609.0297852.2998047.0595703.5400391.1801758,1.1103516.5400391,1.5898438.8398438,1.5908203.9301758,4.890625,3.0302734,5.25,4.9199219v.1201172c0,.5400391-.3896484.8999023-.8994141.8999023Zm13.6191406-1.5898438c-1.7099609,1.6499023-18.1494141,12.5693359-19.4990234,12.5693359-.4804688,0-.9003906-.449707-.9003906-.8999023,0-.4199219.2099609-.6601562.5400391-.8398438l.6601562-.3300781c.6601562-.3300781,1.3203125-.7197266,1.9794922-1.1098633,2.6699219-1.5898438,5.2802734-3.2700195,7.8896484-4.9799805,2.7900391-1.8598633,5.5205078-3.7197266,8.1601562-5.7597656.1796875-.1499023.3603516-.2099609.5703125-.2099609.5097656,0,.8994141.3901367.8994141.8701172,0,.2998047-.0898438.5097656-.2998047.6899414Z"/>
        <path class="cls-2" d="m189.4804688,104.5439453c-1.2607422,2.5200195-2.4902344,5.0400391-3.6298828,7.5898438-.4804688,1.1098633-.9003906,2.25-1.3505859,3.3598633-.1494141.3598633-.4501953.6000977-.8398438.6000977-.4794922,0-.8994141-.4199219-.8994141-.9003906,0-.0898438.0292969-.2099609.0595703-.2998047,1.2001953-3.6298828,3.3300781-7.6796875,5.0400391-11.1591797.7197266-1.4404297,1.5-2.9101562,2.0996094-4.4101562-1.9199219-.4199219-4.4101562-.4199219-6.359375-.4199219-.2402344,0-.4501953-.0898438-.6298828-.2402344-.7207031,1.0200195-2.9404297,4.4101562-2.9101562,5.6699219v.0600586c.1796875.1801758.2695312.4199219.2695312.659668,0,.4804688-.4199219.8701172-.8994141.8701172-.75,0-1.140625-.8398438-1.140625-1.5,0-2.5795898,3.8105469-7.9492188,5.6103516-9.6894531.1796875-.1796875.3896484-.2700195.6298828-.2700195.5097656,0,.9003906.3901367.9003906.8701172,0,.5400391-.9003906,1.3798828-1.2607422,1.7998047,1.1699219,0,6.4804688,0,7.3798828,1.0200195.2099609.2402344.3603516.4501953.3603516.8100586,0,.9301758-2.0097656,4.7397461-2.4296875,5.5795898Z"/>
        <path class="cls-2" d="m223.4101562,114.1738281c-.1201172,0-.2402344-.0302734-.3603516-.090332-2.0996094-.9599609-6.0292969-4.3793945-7.5292969-6.1796875-1.5898438,1.5297852-3.2099609,3.0898438-4.6796875,4.7700195-.3603516.3896484-.6904297.7797852-1.0205078,1.199707-.2099609.2402344-.3603516.5102539-.5703125.75-.2099609.2402344-.4199219.3901367-.75.3901367-.4794922,0-.8994141-.4501953-.8994141-.9301758,0-.1796875.0595703-.3598633.1503906-.5097656.6591797-1.0200195,1.5898438-2.0102539,2.4296875-2.909668,1.6796875-1.7705078,3.4492188-3.4799805,5.2197266-5.1601562,1.2294922-1.1699219,4.9492188-4.6196289,5.6699219-5.9394531-1.3505859-.6601562-4.7402344-.8100586-6.2402344-.8100586-1.7099609,0-4.0195312.0898438-5.609375.7197266-.1201172.0600586-.2402344.090332-.3603516.090332-.4794922,0-.8994141-.4199219-.8994141-.9003906,0-.3896484.2392578-.659668.5693359-.8398438,1.3203125-.6899414,4.8603516-.8701172,6.3603516-.8701172,1.5292969,0,8.0693359.0605469,8.0693359,2.4301758,0,1.3500977-2.6699219,3.8696289-3.5400391,4.7397461l-2.609375,2.5498047c1.4394531,1.7402344,3.9296875,3.8701172,5.8193359,5.0996094.3896484.2402344.7802734.4501953,1.1699219.6601562.3300781.1801758.5400391.4501953.5400391.8398438,0,.4804688-.4199219.9003906-.9296875.9003906Z"/>
        <path class="cls-2" d="m248.25,115.7036133c-.1503906.1201172-.3603516.1801758-.5400391.1801758-.4794922,0-.8994141-.4199219-.8994141-.9003906,0-.2998047.1191406-.5097656.359375-.7197266.5097656-.4501953,1.0205078-.8398438,1.5-1.3500977,1.7998047-1.949707,3.3300781-5.0698242,3.3300781-7.7695312,0-3.8999023-2.3095703-6.2397461-6.2695312-6.2700195.5400391.8100586.9892578,2.0102539.9892578,3,0,1.2900391-.2392578,2.5498047-.6894531,3.75-.9003906,2.3701172-3.3603516,5.7900391-6.2099609,5.7900391-2.7900391,0-4.7392578-2.4003906-4.7392578-5.1000977,0-5.699707,5.2197266-9.2094727,10.5292969-9.2094727,5.0097656,0,8.1591797,3.0297852,8.1591797,8.0395508,0,3.8100586-2.4599609,8.3393555-5.5195312,10.5595703Zm-4.4697266-16.3793945c-.0898438-.0898438-.1503906-.1201172-.1796875-.2402344-3.6005859.7202148-6.75,3.3300781-6.75,7.2299805,0,1.7099609,1.1396484,3.2998047,2.9697266,3.2998047.6298828,0,1.3496094-.449707,1.8300781-.8100586,2.0400391-1.5898438,3.2695312-4.3798828,3.2695312-6.9296875,0-.8999023-.5097656-1.9199219-1.1396484-2.5498047Z"/>
        <path class="cls-2" d="m285.9599609,106.7939453c-.9003906,0-1.7705078-.0600586-2.6699219-.0600586-2.3398438,0-4.7099609.0600586-7.0800781.1201172,0,3.5097656.0302734,6.9897461.0302734,10.4995117,0,.5400391-.3603516.9296875-.9003906.9296875s-.8398438-.3598633-.8994141-.8696289c-.0898438-.6000977-.0302734-1.2900391-.0302734-1.8901367v-8.609375c-2.7900391.1201172-5.5800781.2099609-8.3398438.4199219l-2.0693359.2099609h-.1503906c-.5097656,0-.9296875-.3901367-.9296875-.8999023,0-.4799805.3300781-.75.75-.8701172.5097656-.1499023,1.2001953-.1499023,1.7392578-.1801758,1.2607422-.1196289,2.5507812-.1796875,3.8105469-.2397461-.5703125-1.1401367-2.0097656-4.7099609-2.0097656-5.909668,0-.5097656.4199219-.8999023.8994141-.8999023.4804688,0,.8105469.2998047.9003906.7495117.359375,1.6503906,1.2294922,4.6801758,2.2792969,5.9702148l3.1201172-.1499023c0-3.3901367-.0302734-6.75.0302734-10.1396484-1.5898438.0595703-3.1503906.1201172-4.7402344.2099609-.4794922.0297852-.9892578.1201172-1.5.1201172h-.1201172c-.5097656,0-.8994141-.4204102-.8994141-.9003906s.3300781-.8095703.7802734-.8999023c.9599609-.2099609,3.0292969-.2397461,4.0498047-.2700195,2.8496094-.1201172,5.6992188-.2099609,8.5488281-.2099609.75,0,2.1601562-.2099609,2.1601562.9301758,0,1.199707-1.5292969.8696289-2.2792969.8696289-1.4101562,0-2.7900391.0302734-4.2001953.090332-.0302734,2.159668-.0302734,4.2895508-.0302734,6.449707v3.6894531c.8398438,0,1.6796875-.0297852,2.5205078-.0595703,1.4091797-1.7099609,2.8798828-4.8598633,3.5097656-6.9897461.1201172-.4199219.3896484-.75.8701172-.75.5097656,0,.8994141.4199219.8994141.9301758,0,1.2294922-2.3398438,5.6694336-3.0595703,6.7792969.8994141-.0297852,1.7695312-.0297852,2.6699219-.0297852.75,0,1.6494141-.0600586,2.3994141.0600586.4501953.0595703.8398438.3896484.8398438.8701172,0,.5097656-.3896484.9296875-.8994141.9296875Z"/>
        <path class="cls-2" d="m313.6796875,116.2436523c-.5996094.0600586-1.2900391,0-1.9199219,0-4.3496094,0-8.7890625.0898438-13.1396484.5698242-.1201172.0898438-.2392578.0898438-.3896484.0898438-.5097656,0-.8095703-.3598633-.9003906-.8095703-.1191406-.5703125-.0898438-1.8603516-.1191406-2.4902344-.0605469-1.8300781-.0908203-3.6298828-.0908203-5.4594727,0-2.9702148.0605469-5.9702148.1806641-8.9399414.0595703-1.0800781.0898438-2.1298828.1796875-3.2099609,0-.3295898,0-.75.0595703-1.0795898.0908203-.4799805.3603516-.840332.9003906-.840332.4804688,0,.8701172.3901367.8701172.8701172,1.1396484-.75,9.8398438-.8398438,11.609375-.8398438.5703125,0,1.9501953-.0302734,2.4902344.0600586.6894531.1499023.8095703.5400391.8095703,1.1699219,0,2.7895508-.0898438,5.6098633-.1494141,8.3999023-.0605469,3.5693359-.1503906,7.1694336-.3007812,10.7392578.4804688.0302734.8398438.4199219.8398438.8999023,0,.5400391-.4492188.8100586-.9296875.8701172Zm-3.1494141-20.3393555c-2.1601562,0-4.3505859.0600586-6.5097656.1801758-1.2900391.0898438-2.640625.1196289-3.9003906.449707-.0898438.0302734-.1494141.0302734-.2392578.0302734-.2402344,0-.4501953-.0898438-.6308594-.2700195-.1796875,2.8198242-.2392578,5.6098633-.2998047,8.4296875,1.5302734-.300293,3.0898438-.4199219,4.6503906-.5400391,2.2197266-.1499023,4.4990234-.2397461,6.7490234-.2397461.6298828,0,1.2900391,0,1.9199219.0297852.0605469-2.6699219.1503906-5.3696289.1503906-8.0395508-.6298828-.0302734-1.2597656-.0302734-1.8896484-.0302734Zm-.1201172,9.8398438c-2.4003906,0-4.7998047.0898438-7.1699219.2695312-1.4101562.1201172-2.9101562.2104492-4.2900391.5400391v2.1904297c0,2.0693359,0,4.1694336.1201172,6.2392578,4.2597656-.449707,8.609375-.5400391,12.8994141-.5400391.1201172-2.8798828.1806641-5.7895508.2705078-8.6694336-.6005859-.0297852-1.2304688-.0297852-1.8300781-.0297852Z"/>
        <path class="cls-2" d="m325.6201172,108.8935547c-.9599609,1.3500977-1.859375,2.7304688-2.7890625,4.1103516-.1503906.2397461-.390625.3896484-.6904297.3896484-.4501953,0-.8095703-.3598633-.8095703-.8095703,0-.1503906.0292969-.300293.1201172-.4204102.3291016-.6000977.75-1.1396484,1.109375-1.7094727.5703125-.8701172,1.1396484-1.7705078,1.7998047-2.550293.1503906-.1801758.390625-.2998047.6601562-.2998047.4199219,0,.7802734.3598633.7802734.8100586,0,.1796875-.0898438.3300781-.1806641.4794922Zm6-2.9995117c-.8701172,0-.7197266-1.0800781-.8701172-1.6499023-.7792969.0898438-1.5292969.1499023-2.3095703.2700195-.2695312,4.2299805-.3896484,8.5195312-.3896484,12.7792969,0,.4199219-.3603516.840332-.8105469.840332-.7792969,0-.8095703-.6904297-.8095703-1.2602539,0-4.0498047.1494141-8.1293945.3896484-12.1791992-1.1396484.1494141-2.3095703.2695312-3.4492188.5097656-.0605469,0-.0908203.0297852-.1503906.0297852-.4501953,0-.8095703-.3901367-.8095703-.8398438,0-.300293.1796875-.5102539.4199219-.6899414,1.5292969-.9902344,3.5693359-2.8798828,4.7998047-4.2299805-1.0205078-.2397461-1.9804688-.3295898-3.0302734-.3295898-.4501953,0-.8095703-.3901367-.8095703-.8105469,0-.2695312.1201172-.449707.2998047-.6298828.9902344-.8999023,2.3701172-3.3295898,3.1201172-4.5292969.1494141-.2402344.3896484-.4204102.6894531-.4204102.4501953,0,.8105469.3598633.8105469.8100586,0,.5703125-2.0107422,3.4501953-2.4306641,4.0200195.8105469.0898438,3.4501953.449707,3.4501953,1.5898438,0,.8398438-2.9697266,3.3896484-3.6298828,3.9897461,1.3798828-.1796875,2.7900391-.3598633,4.1699219-.5097656-.1201172-.3300781-.5097656-.9301758-.5097656-1.2299805,0-.4501953.3896484-.8100586.8095703-.8100586.2998047,0,.5400391.1499023.6904297.3896484.5693359.8105469,1.2294922,3,1.2294922,3.9902344,0,.5400391-.3300781.8999023-.8701172.8999023Zm-.1494141,4.8295898c-.5703125,0-2.1904297-1.409668-2.6103516-1.8300781-.1494141-.1494141-.2402344-.359375-.2402344-.5698242,0-.4799805.3603516-.8100586.8105469-.8100586.2099609,0,.4199219.090332.5693359.2402344.75.6899414,1.0507812.8999023,1.890625,1.4697266.2392578.1503906.3896484.3901367.3896484.6904297,0,.4199219-.3603516.8095703-.8095703.8095703Zm15.8085938,7.3198242c-.1191406.300293-.4199219.5102539-.75.5102539-.6591797,0-2.0996094-.4501953-2.0996094-1.2602539,0-.4799805.3603516-.8100586.8105469-.8100586.3896484,0,.4492188.1801758.75.2700195.3896484-1.7397461.4492188-3.6298828.5097656-5.3999023-.8701172,0-1.7402344.0302734-2.6103516.0605469-.0595703,1.1699219-.1201172,2.3095703-.2099609,3.4794922-.0302734.5400391-.0302734,1.1699219-.1494141,1.7099609-.0908203.3901367-.390625.6899414-.8105469.6899414s-.7802734-.3901367-.7802734-.7797852v-.1503906c.2402344-1.5297852.2402344-3.359375.3300781-4.9194336l-1.8896484.0898438c-.0302734,1.5-.0595703,3-.0595703,4.5,0,.4799805-.3300781.8398438-.8105469.8398438-.8095703,0-.8095703-.75-.8095703-1.3500977,0-1.2900391.0302734-2.6098633.0595703-3.8994141-.7792969.0297852-1.5292969.0595703-2.3095703.1494141-.0595703,1.5-.1201172,3-.1201172,4.5,0,.2998047.0302734.6000977.0302734.9003906,0,.4199219-.3603516.7797852-.8105469.7797852-.8691406,0-.8398438-.8999023-.8398438-1.5297852,0-2.4003906.1503906-4.8300781.2402344-7.2597656-.8095703,1.9199219-1.8300781,3.7797852-3.0595703,5.4296875-.2099609.2397461-.390625.5400391-.6005859.75-.1494141.1796875-.3896484.2695312-.6298828.2695312-.4199219,0-.8095703-.359375-.8095703-.7797852,0-.2099609.0898438-.3901367.2099609-.5395508.6298828-.8105469,1.2294922-1.5605469,1.7402344-2.4301758,2.2792969-3.7797852,3.8095703-9.0595703,4.0498047-13.4692383-.2705078.0297852-.5703125.1196289-.8408203.1196289-.4199219,0-.7792969-.3901367-.7792969-.8100586,0-.3896484.2695312-.659668.6298828-.7797852.6601562-.2099609,1.6201172-.1801758,2.3398438-.2397461,2.4599609-.1503906,4.9501953-.2099609,7.4394531-.2099609.6601562,0,2.1298828-.2099609,2.0400391.8095703v.1201172c-.1201172,1.7099609-.6298828,3.4199219-1.0498047,5.0698242-.0898438.3901367-.3300781.7202148-.7802734.7202148l-.0302734.0297852h-.6298828c-1.4394531,0-2.8798828.0297852-4.3193359.0600586-1.0498047.0297852-2.0996094.0600586-3.1201172.1499023-.1494141.6899414-.3300781,1.3798828-.5400391,2.0698242.1503906.0600586.2998047.1801758.390625.3300781,1.2294922-.2402344,2.5195312-.2998047,3.7792969-.3901367,1.7099609-.0898438,3.4794922-.1499023,5.2197266-.1499023,2.6396484,0,2.5498047-.1499023,2.5498047,2.4296875,0,2.25-.0595703,8.4599609-.8701172,10.3198242Zm-10.6191406-10.5893555l-.1201172,2.699707c.75-.0898438,1.5-.1201172,2.25-.1499023.0302734-.9301758.0595703-1.8901367.0595703-2.8198242-.7197266.0600586-1.4697266.1196289-2.1894531.2700195Zm.7802734-9.1499023c-.0302734,1.1699219-.1806641,2.3398438-.390625,3.4799805,2.3701172-.1499023,4.7998047-.1801758,7.1699219-.1801758.2998047-1.1699219.5097656-2.3696289.7197266-3.5395508-2.4892578,0-5.0097656.0898438-7.4990234.2397461Zm3.7792969-3.3295898c-.2099609,0-.4199219-.090332-.5693359-.2402344-.7207031-.6899414-1.5302734-1.2900391-2.3701172-1.8300781-.2402344-.1499023-.3603516-.4199219-.3603516-.6894531,0-.4501953.3300781-.7802734.7802734-.7802734.5703125,0,2.6396484,1.6796875,3.0898438,2.1601562.1494141.1499023.2402344.3598633.2402344.5698242,0,.449707-.3603516.8100586-.8105469.8100586Zm-.75,12.0893555l-.0595703,2.8500977,1.9199219-.090332c.0595703-.9599609.0898438-1.8901367.1201172-2.8500977l-1.9804688.090332Zm6.0595703-.1499023h-.4492188c-.6601562,0-1.3505859,0-2.0097656.0297852-.0302734.9599609-.0605469,1.8901367-.1201172,2.8500977.8691406-.0302734,1.7099609-.0302734,2.5791016-.0302734,0-.4799805.0302734-.9599609.0302734-1.4697266,0-.4501953,0-.9301758-.0302734-1.3798828Z"/>
      </g>
      <g>
        <path class="cls-1" d="m101.0214844.5253906v18.2021484h7.28125v5.1455078h-13.3369141V.5253906h6.0556641Z"/>
        <path class="cls-1" d="m117.4707031.5253906v23.3476562h-6.0556641V.5253906h6.0556641Z"/>
        <path class="cls-1" d="m135.7412109,5.6708984h-7.3154297v3.8857422h6.6503906v5.1455078h-6.6503906v9.1708984h-6.0556641V.5253906h13.3710938v5.1455078Z"/>
        <path class="cls-1" d="m152.6113281,5.6708984h-7.2109375v3.8857422h6.8261719v5.1455078h-6.8261719v4.0253906h7.2109375v5.1455078h-13.2666016V.5253906h13.2666016v5.1455078Z"/>
        <path class="cls-1" d="m158,16.8720703c1.2949219,1.2255859,3.2558594,2.3798828,5.3554688,2.3798828,1.2255859,0,1.9609375-.3847656,2.3457031-.8046875.3496094-.3496094.5947266-.875.5947266-1.4697266,0-.4550781-.1748047-.9804688-.6650391-1.4003906-.5947266-.5253906-1.5048828-.7705078-3.0097656-1.2255859l-1.5751953-.4902344c-.9804688-.3144531-2.4160156-.8398438-3.3603516-1.8896484-1.1904297-1.2949219-1.3300781-2.9404297-1.3300781-4.1308594,0-2.8701172,1.1201172-4.6201172,2.1347656-5.6357422,1.1904297-1.1894531,3.1503906-2.2050781,5.9853516-2.2050781,2.3105469,0,5.0058594.7353516,7.2109375,1.890625l-2.4150391,4.7255859c-1.8203125-1.4355469-3.1855469-1.5751953-3.9902344-1.5751953-.5957031,0-1.4003906.1396484-1.9951172.7001953-.3505859.3496094-.5957031.734375-.5957031,1.2597656,0,.4199219.0703125.7353516.3154297,1.0498047.1748047.2099609.5947266.6308594,2.0302734,1.0507812l1.8544922.5595703c1.4707031.4550781,3.0107422.9804688,4.2363281,2.3105469,1.1894531,1.2597656,1.5048828,2.5546875,1.5048828,4.1650391,0,2.1357422-.5253906,4.2011719-2.2050781,5.8808594-1.9951172,1.9951172-4.4111328,2.3808594-6.8955078,2.3808594-1.4707031,0-2.8710938-.140625-4.5859375-.7705078-.3847656-.140625-1.8554688-.7001953-3.5351562-1.8554688l2.5898438-4.9003906Z"/>
        <path class="cls-1" d="m185.2666016,5.6708984v18.2021484h-6.0556641V5.6708984h-4.9707031V.5253906h15.9960938v5.1455078h-4.9697266Z"/>
        <path class="cls-1" d="m198.4951172,12.671875l-8.4355469-12.1464844h7.2460938l4.4101562,6.3710938,4.2353516-6.3710938h7.3505859l-8.7158203,12.1464844v11.2011719h-6.0908203v-11.2011719Z"/>
        <path class="cls-1" d="m221.3857422.5253906v18.2021484h7.28125v5.1455078h-13.3369141V.5253906h6.0556641Z"/>
        <path class="cls-1" d="m245.0458984,5.6708984h-7.2109375v3.8857422h6.8261719v5.1455078h-6.8261719v4.0253906h7.2109375v5.1455078h-13.2666016V.5253906h13.2666016v5.1455078Z"/>
      </g>
      <g>
        <path class="cls-1" d="m26.5019531,158.0146484c-.4160156.3486328-.9355469.7333984-1.5605469,1.1538086,1.6757812,1.6269531,2.5146484,3.6166992,2.5146484,5.9682617,0,1.2397461-.171875,2.0693359-.5146484,2.4902344-.3154297.3925781-.8740234.5893555-1.6767578.5893555-.359375,0-.7001953-.0166016-1.0205078-.0498047-.1328125-.0112305-.2138672-.0307617-.2412109-.0581055-.0224609-.027832-.0498047-.1054688-.0830078-.2324219-.0556641-.2270508-.140625-.4262695-.2578125-.5976562.7197266.1049805,1.3037109.1577148,1.7519531.1577148.4316406,0,.7412109-.144043.9296875-.4316406.2431641-.3652344.3652344-.9931641.3652344-1.8842773,0-.5366211-.046875-1.0180664-.140625-1.4443359-1.0078125.8691406-2.125,1.6132812-3.3535156,2.2329102-1.0244141.5200195-2.2636719,1.0239258-3.71875,1.5107422-.1113281.0385742-.1806641.0581055-.2080078.0581055-.0498047,0-.1162109-.0693359-.1992188-.2075195-.1103516-.1660156-.2568359-.3154297-.4404297-.4482422,1.7773438-.4868164,3.2734375-1.0483398,4.4912109-1.6850586,1.1621094-.6030273,2.2441406-1.3554688,3.2451172-2.2578125-.1542969-.5087891-.359375-1.0014648-.6132812-1.4775391-.9853516.6806641-1.9072266,1.2231445-2.7646484,1.6269531-.7695312.3652344-1.7402344.7470703-2.9130859,1.1455078-.1113281.0390625-.1855469.0581055-.2246094.0581055-.0605469,0-.1269531-.0664062-.1992188-.1992188-.0888672-.1606445-.2246094-.2958984-.40625-.4067383,1.3945312-.3925781,2.5810547-.8242188,3.5605469-1.2949219.8408203-.3984375,1.7041016-.9072266,2.5898438-1.5273438-.3320312-.4755859-.6894531-.8964844-1.0703125-1.2617188-1.0292969.5869141-2.2890625,1.1152344-3.7773438,1.5854492-.0996094.0332031-.1630859.0498047-.1914062.0498047-.0546875,0-.1210938-.0634766-.1992188-.190918-.0771484-.1162109-.2177734-.2573242-.4228516-.4233398,1.3886719-.3652344,2.5322266-.7583008,3.4287109-1.1787109.7744141-.3652344,1.5185547-.8217773,2.2324219-1.3696289h-1.6855469l-2.3574219.0332031c-.0820312,0-.1240234-.0385742-.1240234-.1162109v-.4980469c0-.0883789.0419922-.1328125.1240234-.1328125l2.3574219.0332031h4.9648438l2.3652344-.0332031c.0771484,0,.1162109.0444336.1162109.1328125v.4980469c0,.0776367-.0390625.1162109-.1162109.1162109l-2.3652344-.0332031h-1.0380859c.3378906,1.4335938.7529297,2.6230469,1.2451172,3.5693359.8408203-.6860352,1.5498047-1.3779297,2.125-2.0751953.1884766-.2324219.3398438-.4589844.4570312-.6806641.3320312.2104492.5644531.3764648.6972656.4980469.0664062.0664062.0996094.1274414.0996094.1826172,0,.0610352-.0615234.1298828-.1835938.2075195-.1376953.0664062-.4003906.293457-.7880859.6806641-.5810547.5810547-1.2705078,1.1816406-2.0673828,1.8012695,1.0185547,1.7045898,2.5488281,3.1376953,4.5908203,4.2998047-.1992188.1328125-.3652344.2958984-.4980469.4897461-.0771484.1381836-.1386719.2075195-.1826172.2075195-.0332031,0-.0966797-.0361328-.1914062-.1079102-1.8037109-1.2231445-3.1845703-2.6088867-4.1416016-4.1586914-.8193359-1.328125-1.4501953-2.9658203-1.8925781-4.9140625h-.4228516Zm-.8144531-3.2456055v-.2739258c0-.6694336-.0410156-1.1621094-.1240234-1.4775391.3486328.0224609.6416016.0498047.8798828.0830078.1269531.0224609.1914062.0634766.1914062.1245117,0,.027832-.0332031.1357422-.0996094.3237305-.0556641.1274414-.0839844.4428711-.0839844.9462891v.2739258h4.0761719l2.3828125-.0332031c.0771484,0,.1152344.0385742.1152344.1162109l-.0332031.7470703v.6308594l.0332031,1.7514648c0,.0664062-.0380859.0996094-.1152344.0996094h-.5820312c-.0771484,0-.1152344-.0332031-.1152344-.0996094v-2.5151367h-12.0371094v2.5151367c0,.0664062-.0380859.0996094-.1152344.0996094h-.5820312c-.0771484,0-.1152344-.0332031-.1152344-.0996094l.0332031-1.7514648v-.5063477l-.0332031-.871582c0-.0776367.0380859-.1162109.1152344-.1162109l2.3828125.0332031h3.8261719Z"/>
        <path class="cls-1" d="m38.4042969,156.7612305l-.0908203,2.5151367h1.7021484l1.078125-.0332031c.0888672,0,.1328125.0444336.1328125.1328125-.0107422.2158203-.0214844.53125-.0332031.9462891-.015625.53125-.0273438.9130859-.0332031,1.1455078-.015625,1.7099609-.140625,3.2236328-.3730469,4.5405273-.1162109.6362305-.3017578,1.090332-.5566406,1.3613281-.2431641.2602539-.5800781.3901367-1.0117188.3901367-.2832031,0-.5791016-.0166016-.8886719-.0498047-.1220703-.0112305-.1962891-.0332031-.2246094-.0664062-.0214844-.0332031-.0410156-.1132812-.0576172-.2407227-.0166016-.1879883-.0800781-.3818359-.1904297-.5810547.4423828.1162109.890625.1743164,1.34375.1743164.3105469,0,.5341797-.1601562.6728516-.4814453.0830078-.1933594.1572266-.5253906.2236328-.9960938.2382812-1.5825195.3652344-3.4365234.3828125-5.5615234h-2.2001953c-.0996094,1.9921875-.3154297,3.5610352-.6474609,4.706543-.3095703,1.0791016-.796875,2.0834961-1.4609375,3.0131836-.0771484.1103516-.1328125.1660156-.1660156.1660156s-.0966797-.0444336-.1914062-.1328125c-.1210938-.144043-.2841797-.2519531-.4892578-.3237305.9736328-1.1674805,1.6181641-2.6508789,1.9345703-4.4492188.2373047-1.355957.3701172-3.4145508.3984375-6.1757812l-1.859375.0332031c-.078125,0-.1171875-.0385742-.1171875-.1162109v-.53125c0-.0664062.0390625-.0996094.1171875-.0996094l1.8925781.0332031h1.0703125v-1.2036133c0-.8740234-.0410156-1.4692383-.125-1.784668.3320312.0112305.6289062.0385742.8886719.0830078.1220703.0219727.1826172.0664062.1826172.1328125,0,.0444336-.0332031.1469727-.0996094.3071289-.0556641.144043-.0830078.5644531-.0830078,1.2617188v1.2036133h.4394531l1.8847656-.0332031c.0830078,0,.125.0332031.125.0996094v.53125c0,.0776367-.0419922.1162109-.125.1162109l-1.8847656-.0332031h-1.5605469Zm8.3095703,6.0180664c.7197266,1.9648438,2.2109375,3.4614258,4.4736328,4.4907227-.1660156.1660156-.2900391.3237305-.3730469.4731445-.0605469.1269531-.1132812.190918-.1582031.190918-.0380859,0-.1044922-.0249023-.1992188-.074707-2.0361328-1.0898438-3.4199219-2.5620117-4.1503906-4.4160156-.3261719,1.0683594-.8652344,1.9702148-1.6181641,2.7060547-.6972656.675293-1.6240234,1.2558594-2.7802734,1.7431641-.1220703.0439453-.1972656.0664062-.2246094.0664062-.0556641,0-.125-.0664062-.2070312-.1992188-.0947266-.1552734-.2246094-.2905273-.390625-.4067383,1.4667969-.53125,2.5732422-1.206543,3.3203125-2.0253906.625-.6860352,1.0595703-1.5356445,1.3027344-2.5483398h-1.3769531l-2.2421875.0332031c-.0771484,0-.1152344-.0385742-.1152344-.1162109v-.5146484c0-.0771484.0380859-.1162109.1152344-.1162109l2.2421875.0332031h1.5185547c.1054688-.5976562.1572266-1.3032227.1572266-2.1166992,0-.1713867-.0019531-.340332-.0078125-.5063477h-1.8183594c-.3427734.5537109-.7275391,1.0791016-1.1533203,1.5771484-.0996094.1162109-.1689453.1743164-.2080078.1743164-.0332031,0-.0996094-.0444336-.1992188-.1328125-.09375-.0830078-.2324219-.1577148-.4140625-.2241211.8847656-.8852539,1.5214844-1.8149414,1.9082031-2.7890625.171875-.4257812.2744141-.7832031.3076172-1.0708008.3378906.0830078.5810547.1635742.7304688.2407227.0996094.0498047.1494141.1054688.1494141.1660156,0,.0776367-.0439453.1523438-.1328125.2241211-.0605469.0498047-.1738281.2407227-.3398438.5727539-.0283203.0722656-.125.2714844-.2910156.5976562h3.2949219l1.9589844-.0332031c.078125,0,.1171875.0390625.1171875.1162109v.4980469c0,.0776367-.0390625.1162109-.1171875.1162109l-1.9589844-.0332031h-1.0537109c-.0166016,1.0737305-.0722656,1.9482422-.1660156,2.6230469h1.6269531l2.2666016-.0332031c.0664062,0,.0996094.0390625.0996094.1162109v.5146484c0,.0776367-.0332031.1162109-.0996094.1162109l-2.2666016-.0332031h-1.5273438Zm-2.8056641-7.1967773h4.65625l2.0761719-.0332031c.0820312,0,.1240234.0385742.1240234.1162109v.53125c0,.0776367-.0419922.1162109-.1240234.1162109l-2.0761719-.0332031h-4.9804688c-.4199219.8300781-.9404297,1.6157227-1.5605469,2.3574219-.0878906.1049805-.1484375.1577148-.1816406.1577148s-.1025391-.046875-.2080078-.1411133c-.1435547-.1049805-.2958984-.1772461-.4560547-.2158203.7128906-.7749023,1.2802734-1.5551758,1.7011719-2.3408203.2763672-.5258789.5371094-1.1508789.7802734-1.8759766.1435547-.4760742.2158203-.8603516.2158203-1.1538086.2880859.0776367.5566406.1630859.8046875.2573242.0888672.027832.1328125.0830078.1328125.1660156,0,.0551758-.0439453.1303711-.1328125.2241211-.0771484.0722656-.1738281.2880859-.2900391.6474609-.1494141.4428711-.3095703.8496094-.4814453,1.2202148Z"/>
        <path class="cls-1" d="m55.0146484,156.8774414v-1.8344727c0-.9296875-.046875-1.5712891-.1416016-1.9257812.2880859.0166016.5839844.046875.8886719.0913086.1269531.0166016.1914062.0610352.1914062.1328125,0,.0664062-.0361328.1689453-.1083984.3071289-.0556641.1386719-.0830078.5976562-.0830078,1.3779297v1.8510742h.0830078l1.5107422-.0332031c.0771484,0,.1162109.0385742.1162109.1162109v.4980469c0,.0776367-.0390625.1162109-.1162109.1162109l-1.5107422-.0332031h-.0498047c.4755859,1.5883789,1.0878906,2.8803711,1.8339844,3.8764648-.1484375.1274414-.2675781.2905273-.3564453.4897461-.0556641.1108398-.0966797.1660156-.1240234.1660156-.0283203,0-.0722656-.0498047-.1328125-.1494141-.5429688-1.0180664-.9960938-2.1860352-1.3613281-3.5029297.015625,2.269043.0488281,4.6401367.0996094,7.1137695.0107422.5922852.0244141,1.2783203.0410156,2.0585938.0107422.3706055.0166016.5727539.0166016.605957,0,.0776367-.0419922.1162109-.1240234.1162109h-.6230469c-.0771484,0-.1162109-.0385742-.1162109-.1162109,0-.0053711.0087891-.4926758.0244141-1.4609375.0664062-2.8886719.1083984-5.6030273.125-8.1430664-.4648438,2.152832-1.1787109,4.0566406-2.1416016,5.7109375-.0605469.0996094-.1083984.1494141-.1416016.1494141-.0380859,0-.0820312-.0498047-.1328125-.1494141-.0996094-.2045898-.2236328-.3515625-.3730469-.4399414,1.1953125-1.8481445,2.0615234-3.956543,2.5976562-6.3251953h-.5058594l-1.5273438.0332031c-.0830078,0-.125-.0385742-.125-.1162109v-.4980469c0-.0776367.0419922-.1162109.125-.1162109l1.5273438.0332031h.6142578Zm5.1132812,1.8676758v-1.402832l-1.9677734.0332031c-.0820312,0-.1240234-.0385742-.1240234-.1162109v-.3984375c0-.0776367.0419922-.1162109.1240234-.1162109l1.9677734.0332031v-1.2617188h-.0498047l-2.3652344.0332031c-.078125,0-.1171875-.0444336-.1171875-.1328125v-.3984375c0-.0776367.0390625-.1162109.1171875-.1162109l2.3652344.0332031h.0498047c0-.9243164-.0390625-1.5244141-.1162109-1.8012695.2988281.0166016.5703125.0444336.8134766.0830078.1269531.0166016.1904297.0556641.1904297.1162109,0,.0498047-.0351562.1523438-.1074219.3071289-.0556641.1274414-.0830078.559082-.0830078,1.2949219h2.5986328c0-.9628906-.0332031-1.5629883-.0996094-1.8012695.28125.0166016.546875.0444336.796875.0830078.1269531.0166016.1904297.0556641.1904297.1162109,0,.0888672-.0361328.190918-.1083984.3071289-.0546875.1162109-.0820312.5478516-.0820312,1.2949219h.7460938l2.3828125-.0332031c.0664062,0,.0996094.0385742.0996094.1162109v.3984375c0,.0883789-.0332031.1328125-.0996094.1328125l-2.3828125-.0332031h-.7460938v1.2617188h.2568359l2.2744141-.0332031c.0771484,0,.1162109.0385742.1162109.1162109v.3984375c0,.0776367-.0390625.1162109-.1162109.1162109l-2.2744141-.0332031h-.2568359v1.402832h1.0537109l2.3994141-.0332031c.0771484,0,.1152344.0390625.1152344.1162109v.4150391c0,.0776367-.0380859.1162109-.1152344.1162109l-2.3994141-.0332031h-2.7890625v1.3613281h1.5107422l2.2080078-.0415039c.0830078,0,.1240234.0385742.1240234.1162109l-.0332031,1.9838867v1.7763672c.4267578-.0053711.8027344-.0136719,1.1289062-.0249023.2167969-.0053711.3271484-.0083008.3320312-.0083008.078125,0,.1171875.0390625.1171875.1162109v.4150391c0,.0776367-.0390625.1162109-.1171875.1162109-.0107422,0-.0712891-.0029297-.1816406-.0083008-.3652344-.0112305-.7919922-.019043-1.2792969-.0249023l.0175781,1.7348633c0,.4814453-.1142578.8271484-.3408203,1.0375977-.2158203.1713867-.8271484.2626953-1.8349609.2739258-.1435547,0-.2294922-.0141602-.2568359-.0415039-.0224609-.0224609-.0498047-.0996094-.0830078-.2324219-.0390625-.1606445-.1298828-.3291016-.2734375-.5063477.4140625.0332031.8515625.0498047,1.3105469.0498047.3164062,0,.5234375-.0551758.6230469-.1660156.0830078-.0942383.125-.2602539.125-.4980469v-1.6518555h-6.5742188v1.1704102l.0332031,1.9091797c0,.0776367-.0419922.1162109-.125.1162109h-.5390625c-.078125,0-.1171875-.0385742-.1171875-.1162109l.0332031-1.8510742v-1.2285156c-.3476562.0058594-.6582031.0136719-.9296875.0249023-.1816406.0053711-.2763672.0083008-.28125.0083008-.078125,0-.1171875-.0385742-.1171875-.1162109v-.4150391c0-.0771484.0390625-.1162109.1171875-.1162109.015625,0,.0683594.0029297.1572266.0083008.3154297.0112305.6669922.0195312,1.0537109.0249023v-1.8676758l-.0332031-1.8925781c0-.0776367.0390625-.1162109.1171875-.1162109l2.2070312.0415039h1.2207031v-1.3613281h-2.0332031l-2.3828125.0332031c-.0771484,0-.1162109-.0385742-.1162109-.1162109v-.4150391c0-.0771484.0390625-.1162109.1162109-.1162109l2.3828125.0332031h.4560547Zm1.5771484,2.5151367h-2.796875v1.3115234h2.796875v-1.3115234Zm0,1.859375h-2.796875v1.402832h2.796875v-1.402832Zm-.8798828-7.6035156v1.2617188h2.5986328v-1.2617188h-2.5986328Zm0,1.8261719v1.402832h2.5986328v-1.402832h-2.5986328Zm1.5605469,3.9179688v1.3115234h3.0966797v-1.3115234h-3.0966797Zm0,1.859375v1.402832h3.0966797v-1.402832h-3.0966797Z"/>
        <path class="cls-1" d="m80.3066406,162.9619141c.5595703-.8408203,1.0292969-1.7128906,1.4121094-2.6147461.2705078-.6640625.4228516-1.1757812.4560547-1.5356445.2597656.0722656.5087891.1689453.7470703.2905273.1269531.0717773.1914062.1411133.1914062.2075195,0,.0166016-.0615234.1191406-.1835938.3071289-.0664062.0830078-.2041016.3540039-.4140625.8134766-.5429688,1.2451172-1.1650391,2.3740234-1.8681641,3.3867188.4648438,1.0737305.9794922,1.9091797,1.5439453,2.5068359.4541016.4760742.8525391.7138672,1.1953125.7138672.5039062,0,.7861328-.8354492.8466797-2.5068359.1328125.1494141.2880859.2685547.4648438.3569336.1601562.0830078.2412109.1743164.2412109.2739258,0,.0332031-.0029297.0776367-.0087891.1328125-.1601562,1.7651367-.6640625,2.6479492-1.5107422,2.6479492-1.0683594,0-2.1611328-1.1425781-3.2792969-3.4282227-1.1289062,1.4165039-2.4091797,2.5429688-3.8427734,3.378418-.0996094.0605469-.1689453.0913086-.2080078.0913086-.0488281,0-.1298828-.0639648-.2402344-.190918-.0830078-.0996094-.21875-.2075195-.40625-.3237305,1.6152344-.8413086,3.0546875-2.0942383,4.3164062-3.7602539-.7636719-1.8647461-1.2460938-4.1586914-1.4453125-6.8813477h-6.1669922v2.9550781h2.6728516l1.4609375-.0332031c.0888672,0,.1328125.0444336.1328125.1328125l-.0996094,1.7348633c-.0556641,1.1015625-.140625,1.9755859-.2578125,2.6230469-.1767578.9521484-.7216797,1.4277344-1.6347656,1.4277344-.4541016,0-.8330078-.0166016-1.1367188-.0498047-.1171875-.0107422-.1884766-.0332031-.2167969-.0664062-.0214844-.0332031-.046875-.1191406-.0742188-.2573242-.0332031-.2045898-.1054688-.387207-.2158203-.5478516.6416016.1049805,1.1787109.1577148,1.6103516.1577148.2714844,0,.4726562-.0634766.6054688-.190918.1503906-.144043.2607422-.3984375.3320312-.7636719.1113281-.503418.1972656-1.6601562.2578125-3.4697266h-3.4365234c-.0166016,1.2949219-.0966797,2.390625-.2412109,3.2871094-.2763672,1.7597656-.7685547,3.1875-1.4765625,4.2832031-.078125.121582-.1308594.1826172-.1582031.1826172-.0390625,0-.0996094-.0498047-.1826172-.1494141-.1162109-.1328125-.2685547-.2407227-.4560547-.3237305.7744141-1.1176758,1.2773438-2.5507812,1.5097656-4.2998047.1503906-1.1176758.2246094-2.4179688.2246094-3.9013672l-.0332031-3.3618164c0-.0883789.0390625-.1328125.1162109-.1328125l2.4150391.0332031h4.4003906l-.0332031-.9711914c-.0283203-.8740234-.0722656-1.5302734-.1328125-1.9672852.28125.0166016.5751953.0498047.8789062.0996094.1386719.0219727.2080078.0776367.2080078.1660156,0,.0717773-.0224609.1523438-.0664062.2407227-.0722656.1772461-.1083984.5395508-.1083984,1.0874023v.3237305c0,.2490234.0117188.5893555.0332031,1.0209961h2.9472656l2.3740234-.0332031c.0830078,0,.1240234.0444336.1240234.1328125v.5478516c0,.0776367-.0410156.1162109-.1240234.1162109l-2.3740234-.0332031h-2.9052734c.1933594,2.3959961.6005859,4.440918,1.2197266,6.1342773Zm1.0546875-9.487793c.6035156.3486328,1.1923828.8354492,1.7675781,1.4609375.0332031.0385742.0507812.0693359.0507812.0913086,0,.0332031-.0390625.0888672-.1171875.1660156l-.2070312.2075195c-.09375.0942383-.1582031.1411133-.1914062.1411133-.0273438,0-.0517578-.0195312-.0742188-.0581055-.4589844-.5922852-1.0214844-1.1010742-1.6855469-1.5273438-.0488281-.0332031-.0742188-.0688477-.0742188-.1079102,0-.0273438.0195312-.0605469.0585938-.0996094l.2480469-.2158203c.0664062-.0551758.1142578-.0830078.1416016-.0830078.0224609,0,.0498047.0083008.0830078.0249023Z"/>
        <path class="cls-1" d="m89.953125,156.1801758c.3144531,0,.578125.1162109.7880859.3486328.1826172.1992188.2744141.4370117.2744141.7138672,0,.3208008-.1171875.5893555-.3496094.8051758-.1992188.1826172-.4365234.2739258-.7128906.2739258-.3320312,0-.6035156-.1186523-.8144531-.3569336-.1767578-.1992188-.265625-.4399414-.265625-.722168,0-.3208008.1171875-.5864258.3496094-.796875.1992188-.1772461.4423828-.265625.7304688-.265625Zm0,6.9560547c.3144531,0,.578125.1162109.7880859.3486328.1826172.2045898.2744141.4428711.2744141.7138672,0,.3320312-.1171875.6030273-.3496094.8134766-.1992188.1772461-.4365234.265625-.7128906.265625-.3378906,0-.609375-.1132812-.8144531-.340332-.1767578-.1992188-.265625-.4453125-.265625-.7387695,0-.3154297.1171875-.578125.3496094-.7885742.1992188-.1826172.4423828-.2739258.7304688-.2739258Z"/>
        <path class="cls-1" d="m102.8769531,160.5297852h4.5742188l2.2988281-.0332031c.0771484,0,.1162109.0385742.1162109.1162109v.5644531c0,.0776367-.0390625.1162109-.1162109.1162109l-2.2988281-.0332031h-4.1503906c.7246094,1.6157227,1.7177734,2.9194336,2.9794922,3.909668,1.0400391.8134766,2.3876953,1.5107422,4.0419922,2.0917969-.1767578.1601562-.3066406.3291016-.3896484.5063477-.0722656.1547852-.1386719.2324219-.1992188.2324219-.0332031,0-.0966797-.0195312-.1904297-.0581055-1.8154297-.7197266-3.2871094-1.6240234-4.4160156-2.7143555-1.0517578-1.0126953-1.8623047-2.2382812-2.4326172-3.6772461-.0556641.2822266-.1240234.53125-.2080078.7470703-.4921875,1.4223633-1.328125,2.6342773-2.5058594,3.6357422-.9628906.8193359-2.2138672,1.5380859-3.7519531,2.1582031-.1054688.0439453-.1748047.0664062-.2080078.0664062-.0439453,0-.1103516-.0664062-.1992188-.1992188-.1162109-.1826172-.2744141-.3349609-.4736328-.456543,3.4375-1.2006836,5.5732422-3.0380859,6.4082031-5.5117188.078125-.2543945.1416016-.4980469.1914062-.7304688h-3.8925781l-2.3164062.0332031c-.0771484,0-.1162109-.0385742-.1162109-.1162109v-.5644531c0-.0776367.0390625-.1162109.1162109-.1162109l2.3164062.0332031h4.0253906c.1269531-.8852539.1914062-1.9892578.1914062-3.3120117h-2.6894531l-2.4326172.0332031c-.0771484,0-.1162109-.0385742-.1162109-.1162109v-.5644531c0-.0771484.0390625-.1162109.1162109-.1162109l2.4326172.0332031h2.6894531v-1.2451172c0-.8022461-.0419922-1.4580078-.125-1.9672852.3378906.0166016.6474609.0498047.9296875.0996094.1494141.0219727.2246094.074707.2246094.1577148,0,.0166016-.0390625.1298828-.1171875.340332-.0664062.1826172-.0996094.6337891-.0996094,1.3530273v1.2617188h2.921875l2.4326172-.0332031c.0771484,0,.1162109.0390625.1162109.1162109v.5644531c0,.0776367-.0390625.1162109-.1162109.1162109l-2.4326172-.0332031h-2.921875c0,1.2397461-.0683594,2.34375-.2070312,3.3120117Z"/>
        <path class="cls-1" d="m118.8886719,152.8847656c-1.4658203,1.3061523-2.4902344,2.6396484-3.0703125,4.0009766-.4765625,1.1181641-.7148438,2.390625-.7148438,3.8183594,0,1.6328125.3164062,3.0712891.9472656,4.3164062.5976562,1.1733398,1.5429688,2.3408203,2.8378906,3.5029297l-.3564453.4067383c-1.6542969-1.3168945-2.8222656-2.6782227-3.5029297-4.0839844-.5869141-1.2119141-.8798828-2.5922852-.8798828-4.1420898,0-1.7597656.3896484-3.3173828,1.1708984-4.6733398.6914062-1.206543,1.7617188-2.390625,3.2119141-3.5527344l.3564453.4067383Z"/>
        <path class="cls-1" d="m120.9316406,157.6079102c.2265625-1.1176758.6943359-1.9536133,1.4023438-2.5068359.5976562-.4702148,1.3339844-.7055664,2.2080078-.7055664,1.0400391,0,1.8652344.3125,2.4736328.9379883.5478516.559082.8222656,1.2895508.8222656,2.1914062,0,.7250977-.1972656,1.3920898-.5898438,2.0004883-.3710938.5644531-1.0292969,1.2729492-1.9755859,2.125-1.5996094,1.4003906-2.7226562,2.800293-3.3701172,4.2001953h5.9511719v.9379883h-7.0214844v-.8383789c.7021484-1.6821289,1.9277344-3.3232422,3.6767578-4.9223633.9296875-.8686523,1.5410156-1.5576172,1.8349609-2.0668945.2480469-.4316406.3730469-.9101562.3730469-1.4360352,0-.7250977-.2294922-1.2866211-.6894531-1.6850586-.3925781-.3374023-.8935547-.5063477-1.5019531-.5063477-1.3945312,0-2.2353516.8496094-2.5234375,2.5483398l-1.0703125-.2739258Z"/>
        <path class="cls-1" d="m137.375,154.6030273v.8549805c-1.1621094,1.859375-2.0332031,3.7382812-2.6142578,5.6362305-.5253906,1.6987305-.8769531,3.597168-1.0537109,5.6943359h-1.2128906c.2275391-2.3188477.6923828-4.440918,1.3945312-6.3666992.5703125-1.5771484,1.3642578-3.1928711,2.3828125-4.8476562h-5.9511719v-.9711914h7.0546875Z"/>
        <path class="cls-1" d="m150.7138672,164.0327148c.4101562-.6694336.7724609-1.4389648,1.0878906-2.3076172.1103516-.3266602.1884766-.6723633.2324219-1.0375977.3046875.0888672.5253906.1689453.6640625.2407227.1386719.0664062.2070312.1274414.2070312.1826172,0,.0717773-.0351562.1411133-.1074219.2075195-.0664062.0664062-.1435547.2128906-.2324219.4399414-.5087891,1.2617188-1.0214844,2.2827148-1.5351562,3.0629883.3759766.8193359.7636719,1.4746094,1.1621094,1.9672852.359375.4428711.6640625.6640625.9121094.6640625.2714844,0,.4824219-.2211914.6308594-.6640625.0947266-.2822266.1972656-.7802734.3076172-1.4941406.0830078.1328125.21875.2631836.4072266.3901367.1376953.0996094.2070312.1884766.2070312.265625,0,.0390625-.0058594.1025391-.0166016.190918-.1435547.7802734-.3232422,1.3115234-.5400391,1.59375-.2373047.3208008-.5917969.4814453-1.0625.4814453-.7851562,0-1.6123047-.9130859-2.4814453-2.7392578-.9130859,1.1508789-1.9892578,2.0336914-3.2294922,2.6479492-.1103516.0551758-.1816406.0830078-.2148438.0830078-.0507812,0-.125-.0556641-.2246094-.1660156-.1162109-.1274414-.2578125-.2324219-.4238281-.3154297,1.5-.6474609,2.7509766-1.640625,3.7519531-2.9799805-.5585938-1.3115234-.9208984-3.043457-1.0869141-5.1962891h-7.2714844v1.6352539c0,.4926758-.0302734,1.1123047-.0908203,1.859375-.0556641.7583008-.1220703,1.2978516-.1992188,1.6186523-.3164062,1.3447266-.828125,2.4956055-1.5361328,3.453125-.0771484.0996094-.1386719.1494141-.1826172.1494141-.0390625,0-.1074219-.0444336-.2070312-.1328125-.1328125-.1381836-.2851562-.2353516-.4570312-.2905273.7636719-.8300781,1.2978516-1.8789062,1.6015625-3.1459961.2167969-.9296875.3242188-2.2382812.3242188-3.9262695l-.0332031-1.8178711c0-.0776367.0390625-.1162109.1162109-.1162109l2.4326172.0332031h5.453125l-.0166016-.5478516c-.0224609-.3984375-.0556641-.7250977-.0996094-.9794922.2714844.0112305.5087891.0332031.7138672.0664062.1494141.0219727.2246094.0717773.2246094.1494141,0,.0444336-.0253906.1245117-.0751953.2407227-.0224609.0664062-.0332031.1689453-.0332031.3071289v.2158203l.0166016.5478516h1.6347656l2.390625-.0332031c.0839844,0,.125.0385742.125.1162109v.5146484c0,.0776367-.0410156.1162109-.125.1162109l-2.390625-.0332031h-1.6015625c.1162109,1.7431641.40625,3.2373047.8710938,4.4824219Zm-3.7929688-7.4790039v-1.8344727c0-.9130859-.0410156-1.5024414-.125-1.7680664.4042969.0166016.7001953.0444336.8886719.0830078.1269531.0166016.1914062.0610352.1914062.1328125,0,.0664062-.03125.1464844-.0917969.2407227-.0664062.121582-.0996094.456543-.0996094,1.0043945h2.6152344l2.2070312-.0332031c.0839844,0,.125.0390625.125.1162109v.4814453c0,.0776367-.0410156.1162109-.125.1162109l-2.2070312-.0332031h-2.6152344v1.4941406h4.25l2.2744141-.0332031c.0771484,0,.1162109.0390625.1162109.1162109v.4980469c0,.0776367-.0390625.1162109-.1162109.1162109l-2.2744141-.0332031h-9.6621094l-2.2910156.0332031c-.0771484,0-.1162109-.0385742-.1162109-.1162109v-.4980469c0-.0771484.0390625-.1162109.1162109-.1162109l2.2910156.0332031h.8554688v-.9296875c0-.9018555-.0390625-1.4941406-.1171875-1.7763672.2441406.0166016.5429688.046875.8964844.0913086.1171875.0166016.1748047.0610352.1748047.1328125,0,.0664062-.0302734.1469727-.0908203.2407227-.0664062.1494141-.0996094.5869141-.0996094,1.3115234v.9296875h3.0292969Zm-5.1875,9.7617188c.6357422-.7026367,1.1230469-1.5439453,1.4609375-2.5234375.0771484-.2324219.1269531-.503418.1484375-.8134766.3046875.0776367.53125.1464844.6816406.2075195.1044922.0385742.1572266.0883789.1572266.1494141,0,.0664062-.0361328.1357422-.1083984.2075195-.0380859.0390625-.1044922.1796875-.1992188.4233398-.4033203.9907227-.8457031,1.8071289-1.328125,2.4487305-.0820312.1220703-.1464844.1826172-.1904297.1826172-.0390625,0-.1103516-.0385742-.2158203-.1162109-.1162109-.0830078-.2519531-.1381836-.40625-.1660156Zm3.6015625-4.590332h-.8378906l-1.7519531.0332031c-.0771484,0-.1152344-.0385742-.1152344-.1162109v-.4814453c0-.0776367.0380859-.1162109.1152344-.1162109l1.7519531.0332031h2.0419922l1.7841797-.0332031c.078125,0,.1171875.0385742.1171875.1162109v.4814453c0,.0776367-.0390625.1162109-.1171875.1162109l-1.7841797-.0332031h-.5068359v2.2744141l.0253906,2.2080078c0,.5864258-.140625.965332-.4238281,1.137207-.1601562.1049805-.359375.1689453-.5976562.190918-.1044922.0112305-.3457031.0166016-.7216797.0166016-.1386719,0-.2216797-.0141602-.2490234-.0415039-.0332031-.0224609-.0634766-.0942383-.0917969-.2158203-.0712891-.2045898-.1630859-.3789062-.2734375-.5229492.3544922.0444336.6533203.0664062.8964844.0664062.3154297,0,.5205078-.0522461.6142578-.1577148.0830078-.0883789.1240234-.2573242.1240234-.5063477v-4.4492188Zm1.7851562,1.5605469c-.0166016-.027832-.0253906-.0522461-.0253906-.074707,0-.0439453.0419922-.0800781.125-.1079102l.2246094-.0913086c.0820312-.0273438.1328125-.0415039.1484375-.0415039.0332031,0,.0693359.0249023.1083984.074707.3046875.4482422.6416016,1.1069336,1.0126953,1.9755859.0058594.027832.0078125.046875.0078125.0581055,0,.0385742-.0634766.0942383-.1904297.1660156l-.1904297.0830078c-.1054688.0551758-.171875.0830078-.1992188.0830078-.0283203,0-.0507812-.0332031-.0664062-.0996094-.25-.7583008-.5673828-1.4331055-.9550781-2.0253906Zm4.3330078-5.84375c.3046875.2045898.6748047.5146484,1.1123047.9296875.0273438.027832.0410156.0527344.0410156.074707,0,.0390625-.0380859.0942383-.1152344.1660156l-.1660156.1494141c-.0615234.0610352-.1083984.0913086-.1416016.0913086-.0273438,0-.0605469-.0219727-.0996094-.0664062-.265625-.293457-.6220703-.6166992-1.0712891-.9711914-.0332031-.0332031-.0488281-.0581055-.0488281-.074707,0-.027832.0332031-.0717773.0996094-.1328125l.1738281-.1328125c.0605469-.0551758.1054688-.0830078.1328125-.0830078.0224609,0,.0498047.0166016.0830078.0498047Z"/>
        <path class="cls-1" d="m156.4335938,152.8847656l.3564453-.4067383c1.6552734,1.3168945,2.8222656,2.6782227,3.5039062,4.0839844.5859375,1.2119141.8789062,2.5927734.8789062,4.1420898,0,1.765625-.3867188,3.3232422-1.1621094,4.6733398-.6914062,1.2119141-1.7646484,2.3959961-3.2207031,3.5527344l-.3564453-.4067383c1.4716797-1.3173828,2.4960938-2.6533203,3.0712891-4.0092773.4755859-1.1123047.7138672-2.3823242.7138672-3.8100586,0-1.6323242-.3154297-3.0742188-.9462891-4.324707-.5976562-1.1787109-1.5439453-2.3432617-2.8388672-3.4946289Z"/>
        <path class="cls-1" d="m168.3701172,159.359375c.3925781,0,.7226562.1464844.9882812.4399414.2265625.2543945.3398438.5507812.3398438.8881836,0,.3930664-.1464844.7250977-.4394531.9960938-.2548828.2324219-.5507812.3486328-.8886719.3486328-.3925781,0-.7246094-.1494141-.9960938-.4482422-.2324219-.2597656-.3486328-.5585938-.3486328-.8964844,0-.3925781.1494141-.722168.4482422-.987793.2548828-.2270508.5537109-.340332.8964844-.340332Z"/>
        <path class="cls-1" d="m180.6630859,158.6455078v-1.4111328h-2.5566406l-2.40625.0332031c-.0839844,0-.125-.0385742-.125-.1162109v-.4814453c0-.0771484.0410156-.1162109.125-.1162109l2.40625.0332031h2.5566406v-1.2866211h-4l-2.3417969.0332031c-.0820312,0-.1240234-.0385742-.1240234-.1162109v-.5146484c0-.0664062.0419922-.0996094.1240234-.0996094l2.3417969.0332031h4v-.0664062c0-.7192383-.0351562-1.2421875-.1074219-1.5688477.3427734.0166016.6279297.0390625.8554688.0664062.1210938.0224609.1816406.0693359.1816406.1411133,0,.0498047-.0214844.1274414-.0664062.2324219-.0771484.2104492-.1152344.5864258-.1152344,1.1289062v.0664062h4.0253906l2.3652344-.0332031c.078125,0,.1171875.0332031.1171875.0996094v.5146484c0,.0776367-.0390625.1162109-.1171875.1162109l-2.3652344-.0332031h-4.0253906v1.2866211h2.3818359l2.5322266-.0332031c.0771484,0,.1152344.0390625.1152344.1162109l-.0332031,1.5024414v.4731445h.1171875l1.875-.0332031c.078125,0,.1171875.0390625.1171875.1162109v.4814453c0,.0776367-.0390625.1162109-.1171875.1162109l-1.875-.0332031h-.1171875v.5395508l.0332031,1.519043c0,.0776367-.0380859.1162109-.1152344.1162109l-2.5322266-.0332031h-3.8427734c.2871094.0664062.5136719.1357422.6796875.2075195.0996094.0385742.1503906.0942383.1503906.1660156,0,.0551758-.0507812.1191406-.1503906.190918-.0712891.0390625-.2539062.2519531-.546875.6391602l-.1660156.2241211h6.1171875l2.2578125-.0332031c.0830078,0,.125.0390625.125.1162109v.4980469c0,.0776367-.0419922.1162109-.125.1162109l-2.2578125-.0332031h-1.3447266c-.5478516.9355469-1.1982422,1.7236328-1.9501953,2.3657227,1.5048828.4150391,3.0214844.9130859,4.5488281,1.4941406.0712891.0166016.1074219.0444336.1074219.0830078,0,.0332031-.0302734.0913086-.0917969.1743164l-.1816406.2490234c-.0996094.1435547-.1689453.2158203-.2080078.2158203-.0224609,0-.0556641-.0083008-.0996094-.0249023-1.8154297-.7250977-3.4199219-1.2807617-4.8144531-1.668457-.9189453.5976562-2.0498047,1.0488281-3.3955078,1.3530273-.9677734.2211914-2.1738281.3930664-3.6191406.5146484-.0771484.0053711-.1210938.0083008-.1328125.0083008-.0878906,0-.1630859-.0693359-.2236328-.2075195-.0888672-.2045898-.1962891-.362793-.3232422-.4731445,2.8828125-.1494141,5.1152344-.6337891,6.6982422-1.4526367-.7246094-.1772461-1.8261719-.4150391-3.3037109-.7138672-.2490234.2490234-.4511719.4428711-.6054688.5810547-.0390625.0385742-.0859375.0581055-.1416016.0581055-.0498047,0-.1162109-.0195312-.1992188-.0581055l-.2412109-.0996094c-.1269531-.0610352-.1904297-.1108398-.1904297-.1494141,0-.0219727.0166016-.046875.0498047-.074707.1933594-.1494141.4257812-.3540039.6972656-.6142578.4980469-.4755859.9765625-.9960938,1.4355469-1.5605469h-2.2988281l-2.2578125.0332031c-.0830078,0-.125-.0385742-.125-.1162109v-.4980469c0-.0771484.0419922-.1162109.125-.1162109l2.2578125.0332031h2.8056641l.2568359-.340332c.265625-.3598633.4677734-.722168.6064453-1.0874023h-1.8505859l-2.3574219.0332031c-.0839844,0-.125-.0385742-.125-.1162109v-.4648438c0-.0771484.0410156-.1162109.125-.1162109l2.3574219.0332031h2.6386719v-1.5107422h-4.5732422l-2.2822266.0332031c-.078125,0-.1171875-.0385742-.1171875-.1162109v-.4814453c0-.0771484.0390625-.1162109.1171875-.1162109l2.2822266.0332031h4.5732422Zm-2.4482422,6.2753906c1.3837891.2324219,2.5898438.4814453,3.6191406.7470703.8193359-.5644531,1.4882812-1.2783203,2.0087891-2.1416016h-4.4414062c-.3984375.4873047-.7939453.9521484-1.1865234,1.3945312Zm7.4287109-6.2753906v-1.4111328h-4.2324219v1.4111328h4.2324219Zm0,.6474609h-4.2324219v1.5107422h4.2324219v-1.5107422Z"/>
        <path class="cls-1" d="m197.2978516,152.8847656c-1.4658203,1.3061523-2.4902344,2.6396484-3.0703125,4.0009766-.4765625,1.1181641-.7148438,2.390625-.7148438,3.8183594,0,1.6328125.3164062,3.0712891.9472656,4.3164062.5976562,1.1733398,1.5429688,2.3408203,2.8378906,3.5029297l-.3564453.4067383c-1.6542969-1.3168945-2.8222656-2.6782227-3.5029297-4.0839844-.5869141-1.2119141-.8798828-2.5922852-.8798828-4.1420898,0-1.7597656.3896484-3.3173828,1.1708984-4.6733398.6914062-1.206543,1.7617188-2.390625,3.2119141-3.5527344l.3564453.4067383Z"/>
        <path class="cls-1" d="m199.3408203,157.6079102c.2265625-1.1176758.6943359-1.9536133,1.4023438-2.5068359.5976562-.4702148,1.3339844-.7055664,2.2080078-.7055664,1.0400391,0,1.8652344.3125,2.4736328.9379883.5478516.559082.8222656,1.2895508.8222656,2.1914062,0,.7250977-.1972656,1.3920898-.5898438,2.0004883-.3710938.5644531-1.0292969,1.2729492-1.9755859,2.125-1.5996094,1.4003906-2.7226562,2.800293-3.3701172,4.2001953h5.9511719v.9379883h-7.0214844v-.8383789c.7021484-1.6821289,1.9277344-3.3232422,3.6767578-4.9223633.9296875-.8686523,1.5410156-1.5576172,1.8349609-2.0668945.2480469-.4316406.3730469-.9101562.3730469-1.4360352,0-.7250977-.2294922-1.2866211-.6894531-1.6850586-.3925781-.3374023-.8935547-.5063477-1.5019531-.5063477-1.3945312,0-2.2353516.8496094-2.5234375,2.5483398l-1.0703125-.2739258Z"/>
        <path class="cls-1" d="m215.6503906,155.9892578l-1.0205078.4980469c-.3486328-.7802734-.9433594-1.1704102-1.7841797-1.1704102-1.9042969,0-2.8886719,1.8510742-2.9550781,5.5532227.7685547-1.2338867,1.7314453-1.8510742,2.8886719-1.8510742.984375,0,1.7705078.3930664,2.3574219,1.1787109.5136719.6918945.7714844,1.574707.7714844,2.6479492,0,1.3613281-.3681641,2.4267578-1.1035156,3.1958008-.6152344.6474609-1.3867188.9711914-2.3164062.9711914-1.1787109,0-2.0917969-.5283203-2.7392578-1.5854492-.6083984-.9848633-.9130859-2.3544922-.9130859-4.1088867,0-2.4902344.4121094-4.3193359,1.2363281-5.4868164.6816406-.9575195,1.6162109-1.4360352,2.8066406-1.4360352,1.2724609,0,2.1962891.53125,2.7714844,1.59375Zm-5.7265625,5.9516602c.0107422,1.4663086.2900391,2.5595703.8378906,3.2788086.4423828.5810547,1.0185547.871582,1.7265625.871582.7695312,0,1.3583984-.3154297,1.7675781-.9462891.3652344-.559082.5488281-1.3198242.5488281-2.2827148,0-.9682617-.2246094-1.7128906-.6728516-2.2329102-.3876953-.4482422-.8935547-.6723633-1.5185547-.6723633-1.0625,0-1.9589844.6611328-2.6894531,1.9838867Z"/>
        <path class="cls-1" d="m229.1230469,164.0327148c.4101562-.6694336.7724609-1.4389648,1.0878906-2.3076172.1103516-.3266602.1884766-.6723633.2324219-1.0375977.3046875.0888672.5253906.1689453.6640625.2407227.1386719.0664062.2070312.1274414.2070312.1826172,0,.0717773-.0351562.1411133-.1074219.2075195-.0664062.0664062-.1435547.2128906-.2324219.4399414-.5087891,1.2617188-1.0214844,2.2827148-1.5351562,3.0629883.3759766.8193359.7636719,1.4746094,1.1621094,1.9672852.359375.4428711.6640625.6640625.9121094.6640625.2714844,0,.4824219-.2211914.6308594-.6640625.0947266-.2822266.1972656-.7802734.3076172-1.4941406.0830078.1328125.21875.2631836.4072266.3901367.1376953.0996094.2070312.1884766.2070312.265625,0,.0390625-.0058594.1025391-.0166016.190918-.1435547.7802734-.3232422,1.3115234-.5400391,1.59375-.2373047.3208008-.5917969.4814453-1.0625.4814453-.7851562,0-1.6123047-.9130859-2.4814453-2.7392578-.9130859,1.1508789-1.9892578,2.0336914-3.2294922,2.6479492-.1103516.0551758-.1816406.0830078-.2148438.0830078-.0507812,0-.125-.0556641-.2246094-.1660156-.1162109-.1274414-.2578125-.2324219-.4238281-.3154297,1.5-.6474609,2.7509766-1.640625,3.7519531-2.9799805-.5585938-1.3115234-.9208984-3.043457-1.0869141-5.1962891h-7.2714844v1.6352539c0,.4926758-.0302734,1.1123047-.0908203,1.859375-.0556641.7583008-.1220703,1.2978516-.1992188,1.6186523-.3164062,1.3447266-.828125,2.4956055-1.5361328,3.453125-.0771484.0996094-.1386719.1494141-.1826172.1494141-.0390625,0-.1074219-.0444336-.2070312-.1328125-.1328125-.1381836-.2851562-.2353516-.4570312-.2905273.7636719-.8300781,1.2978516-1.8789062,1.6015625-3.1459961.2167969-.9296875.3242188-2.2382812.3242188-3.9262695l-.0332031-1.8178711c0-.0776367.0390625-.1162109.1162109-.1162109l2.4326172.0332031h5.453125l-.0166016-.5478516c-.0224609-.3984375-.0556641-.7250977-.0996094-.9794922.2714844.0112305.5087891.0332031.7138672.0664062.1494141.0219727.2246094.0717773.2246094.1494141,0,.0444336-.0253906.1245117-.0751953.2407227-.0224609.0664062-.0332031.1689453-.0332031.3071289v.2158203l.0166016.5478516h1.6347656l2.390625-.0332031c.0839844,0,.125.0385742.125.1162109v.5146484c0,.0776367-.0410156.1162109-.125.1162109l-2.390625-.0332031h-1.6015625c.1162109,1.7431641.40625,3.2373047.8710938,4.4824219Zm-3.7929688-7.4790039v-1.8344727c0-.9130859-.0410156-1.5024414-.125-1.7680664.4042969.0166016.7001953.0444336.8886719.0830078.1269531.0166016.1914062.0610352.1914062.1328125,0,.0664062-.03125.1464844-.0917969.2407227-.0664062.121582-.0996094.456543-.0996094,1.0043945h2.6152344l2.2070312-.0332031c.0839844,0,.125.0390625.125.1162109v.4814453c0,.0776367-.0410156.1162109-.125.1162109l-2.2070312-.0332031h-2.6152344v1.4941406h4.25l2.2744141-.0332031c.0771484,0,.1162109.0390625.1162109.1162109v.4980469c0,.0776367-.0390625.1162109-.1162109.1162109l-2.2744141-.0332031h-9.6621094l-2.2910156.0332031c-.0771484,0-.1162109-.0385742-.1162109-.1162109v-.4980469c0-.0771484.0390625-.1162109.1162109-.1162109l2.2910156.0332031h.8554688v-.9296875c0-.9018555-.0390625-1.4941406-.1171875-1.7763672.2441406.0166016.5429688.046875.8964844.0913086.1171875.0166016.1748047.0610352.1748047.1328125,0,.0664062-.0302734.1469727-.0908203.2407227-.0664062.1494141-.0996094.5869141-.0996094,1.3115234v.9296875h3.0292969Zm-5.1875,9.7617188c.6357422-.7026367,1.1230469-1.5439453,1.4609375-2.5234375.0771484-.2324219.1269531-.503418.1484375-.8134766.3046875.0776367.53125.1464844.6816406.2075195.1044922.0385742.1572266.0883789.1572266.1494141,0,.0664062-.0361328.1357422-.1083984.2075195-.0380859.0390625-.1044922.1796875-.1992188.4233398-.4033203.9907227-.8457031,1.8071289-1.328125,2.4487305-.0820312.1220703-.1464844.1826172-.1904297.1826172-.0390625,0-.1103516-.0385742-.2158203-.1162109-.1162109-.0830078-.2519531-.1381836-.40625-.1660156Zm3.6015625-4.590332h-.8378906l-1.7519531.0332031c-.0771484,0-.1152344-.0385742-.1152344-.1162109v-.4814453c0-.0776367.0380859-.1162109.1152344-.1162109l1.7519531.0332031h2.0419922l1.7841797-.0332031c.078125,0,.1171875.0385742.1171875.1162109v.4814453c0,.0776367-.0390625.1162109-.1171875.1162109l-1.7841797-.0332031h-.5068359v2.2744141l.0253906,2.2080078c0,.5864258-.140625.965332-.4238281,1.137207-.1601562.1049805-.359375.1689453-.5976562.190918-.1044922.0112305-.3457031.0166016-.7216797.0166016-.1386719,0-.2216797-.0141602-.2490234-.0415039-.0332031-.0224609-.0634766-.0942383-.0917969-.2158203-.0712891-.2045898-.1630859-.3789062-.2734375-.5229492.3544922.0444336.6533203.0664062.8964844.0664062.3154297,0,.5205078-.0522461.6142578-.1577148.0830078-.0883789.1240234-.2573242.1240234-.5063477v-4.4492188Zm1.7851562,1.5605469c-.0166016-.027832-.0253906-.0522461-.0253906-.074707,0-.0439453.0419922-.0800781.125-.1079102l.2246094-.0913086c.0820312-.0273438.1328125-.0415039.1484375-.0415039.0332031,0,.0693359.0249023.1083984.074707.3046875.4482422.6416016,1.1069336,1.0126953,1.9755859.0058594.027832.0078125.046875.0078125.0581055,0,.0385742-.0634766.0942383-.1904297.1660156l-.1904297.0830078c-.1054688.0551758-.171875.0830078-.1992188.0830078-.0283203,0-.0507812-.0332031-.0664062-.0996094-.25-.7583008-.5673828-1.4331055-.9550781-2.0253906Zm4.3330078-5.84375c.3046875.2045898.6748047.5146484,1.1123047.9296875.0273438.027832.0410156.0527344.0410156.074707,0,.0390625-.0380859.0942383-.1152344.1660156l-.1660156.1494141c-.0615234.0610352-.1083984.0913086-.1416016.0913086-.0273438,0-.0605469-.0219727-.0996094-.0664062-.265625-.293457-.6220703-.6166992-1.0712891-.9711914-.0332031-.0332031-.0488281-.0581055-.0488281-.074707,0-.027832.0332031-.0717773.0996094-.1328125l.1738281-.1328125c.0605469-.0551758.1054688-.0830078.1328125-.0830078.0224609,0,.0498047.0166016.0830078.0498047Z"/>
        <path class="cls-1" d="m234.8427734,152.8847656l.3564453-.4067383c1.6552734,1.3168945,2.8222656,2.6782227,3.5039062,4.0839844.5859375,1.2119141.8789062,2.5927734.8789062,4.1420898,0,1.765625-.3867188,3.3232422-1.1621094,4.6733398-.6914062,1.2119141-1.7646484,2.3959961-3.2207031,3.5527344l-.3564453-.4067383c1.4716797-1.3173828,2.4960938-2.6533203,3.0712891-4.0092773.4755859-1.1123047.7138672-2.3823242.7138672-3.8100586,0-1.6323242-.3154297-3.0742188-.9462891-4.324707-.5976562-1.1787109-1.5439453-2.3432617-2.8388672-3.4946289Z"/>
        <path class="cls-1" d="m246.7792969,159.359375c.3925781,0,.7226562.1464844.9882812.4399414.2265625.2543945.3398438.5507812.3398438.8881836,0,.3930664-.1464844.7250977-.4394531.9960938-.2548828.2324219-.5507812.3486328-.8886719.3486328-.3925781,0-.7246094-.1494141-.9960938-.4482422-.2324219-.2597656-.3486328-.5585938-.3486328-.8964844,0-.3925781.1494141-.722168.4482422-.987793.2548828-.2270508.5537109-.340332.8964844-.340332Z"/>
        <path class="cls-1" d="m252.1914062,161.9077148c.4257812-.2270508.9453125-.6557617,1.5605469-1.2866211.6972656-.6806641,1.5820312-1.5771484,2.65625-2.6894531.28125-.2822266.5527344-.4233398.8125-.4233398.2988281,0,.6005859.1303711.9052734.3901367,2.1083984,1.8261719,4.7148438,3.6967773,7.8193359,5.6113281.0771484.0498047.1162109.1025391.1162109.1577148,0,.027832-.0107422.0664062-.0332031.1162109-.1269531.2768555-.2568359.4956055-.3896484.6557617-.0332031.0556641-.0693359.0830078-.1083984.0830078-.0332031,0-.0830078-.0195312-.1494141-.0581055-2.9990234-2.0307617-5.5644531-3.9511719-7.6953125-5.7607422-.1601562-.1381836-.2988281-.2075195-.4140625-.2075195-.1220703,0-.2353516.0498047-.3408203.1494141-.8408203.8413086-1.7929688,1.8344727-2.8554688,2.9799805-.2265625.237793-.4648438.5561523-.7138672.9545898-.0605469.0776367-.125.1162109-.1914062.1162109-.0488281,0-.0996094-.0166016-.1484375-.0498047-.3105469-.2490234-.5869141-.4951172-.8300781-.7387695Zm11.0976562-6.6821289c.4921875,0,.8994141.1796875,1.2207031.5395508.2763672.3154297.4140625.6860352.4140625,1.1123047,0,.4926758-.1767578.9018555-.53125,1.2285156-.3095703.2822266-.6777344.4233398-1.1035156.4233398-.4921875,0-.9023438-.1796875-1.2285156-.5395508-.2880859-.3154297-.4316406-.6860352-.4316406-1.1123047,0-.4926758.1826172-.9018555.5478516-1.2285156.3154297-.2822266.6865234-.4233398,1.1123047-.4233398Zm0,.5976562c-.3154297,0-.578125.1132812-.7890625.340332-.1816406.1992188-.2734375.4370117-.2734375.7138672,0,.3208008.1162109.5864258.3486328.796875.2050781.1826172.4423828.2739258.7138672.2739258.3154297,0,.5751953-.1162109.7802734-.3486328.171875-.2045898.2568359-.4453125.2568359-.722168,0-.3208008-.1103516-.5834961-.3320312-.7885742-.1933594-.1767578-.4287109-.265625-.7050781-.265625Z"/>
        <path class="cls-1" d="m268.8759766,159.2265625c.4208984-.2490234.6367188-.3735352.6474609-.3735352.0332031-.0166016.0634766-.0249023.0917969-.0249023.0439453,0,.0966797.0361328.1572266.1079102.5146484.6586914.96875,1.4277344,1.3613281,2.3076172.0224609.0610352.0332031.1025391.0332031.1245117,0,.0390625-.0332031.0776367-.0996094.1162109-.1826172.1220703-.3710938.21875-.5644531.2905273-.0273438.0112305-.0527344.0166016-.0751953.0166016-.0546875,0-.1015625-.0415039-.140625-.1245117-.4316406-1.0180664-.9023438-1.831543-1.4111328-2.4404297Zm8.5830078-.871582c.4482422.1162109.8164062.2631836,1.1035156.4399414.0722656.0444336.1083984.1054688.1083984.1826172,0,.0664062-.0273438.1245117-.0830078.1743164-.1767578.1547852-.3378906.4067383-.4814453.7553711-.7470703,1.8154297-1.5800781,3.2929688-2.4990234,4.4326172-1.078125,1.3339844-2.2402344,2.4042969-3.4863281,3.2124023-.0605469.0385742-.1152344.0581055-.1660156.0581055-.0380859,0-.0742188-.0136719-.1074219-.0415039-.1767578-.1660156-.4208984-.2797852-.7304688-.340332.8574219-.5366211,1.5830078-1.0761719,2.1748047-1.6186523.4873047-.4482422,1.0205078-1.0239258,1.6025391-1.7265625.9677734-1.1953125,1.7451172-2.6176758,2.3320312-4.2666016.1220703-.3652344.1992188-.7856445.2324219-1.2617188Zm-5.2871094.0498047c.3652344-.2045898.5800781-.3237305.6464844-.3569336.0332031-.0107422.0615234-.0166016.0839844-.0166016.0605469,0,.1132812.0332031.1572266.0996094.4589844.6254883.8720703,1.402832,1.2373047,2.3325195.0107422.0332031.015625.0581055.015625.074707,0,.0498047-.0332031.0913086-.0996094.1245117-.2705078.1547852-.4648438.2519531-.5800781.2905273-.0283203.0112305-.0527344.0166016-.0751953.0166016-.0390625,0-.0751953-.0385742-.1083984-.1162109-.3867188-.9960938-.8125-1.8125-1.2773438-2.4487305Z"/>
        <path class="cls-1" d="m286.3320312,158.902832c1.9375.53125,3.7880859,1.3168945,5.5537109,2.3574219.0771484.0444336.1162109.0913086.1162109.1411133,0,.0166016-.0029297.0390625-.0078125.0664062-.0947266.2382812-.1972656.4428711-.3076172.6142578-.0498047.0664062-.0996094.0996094-.1494141.0996094-.0390625,0-.0859375-.0166016-.140625-.0498047-1.5605469-1.0068359-3.2490234-1.7734375-5.0644531-2.2993164v4.2998047c0,.0942383.0175781,1.1733398.0507812,3.2373047,0,.1381836-.0644531.2075195-.1914062.2075195-.0996094.0053711-.2070312.0083008-.3242188.0083008-.1210938,0-.234375-.0029297-.3398438-.0083008-.1386719,0-.2070312-.074707-.2070312-.2241211.0488281-1.3613281.0742188-2.4262695.0742188-3.1958008v-8.0766602c0-.9516602-.0634766-1.7124023-.1914062-2.2827148.5039062.0390625.8945312.1025391,1.1708984.190918.1162109.0332031.1748047.0996094.1748047.1992188,0,.0551758-.0224609.1357422-.0664062.2407227-.0996094.2216797-.1503906.7416992-.1503906,1.5605469v2.9135742Z"/>
        <path class="cls-1" d="m301.3564453,152.8847656c-1.4658203,1.3061523-2.4902344,2.6396484-3.0703125,4.0009766-.4765625,1.1181641-.7148438,2.390625-.7148438,3.8183594,0,1.6328125.3164062,3.0712891.9472656,4.3164062.5976562,1.1733398,1.5429688,2.3408203,2.8378906,3.5029297l-.3564453.4067383c-1.6542969-1.3168945-2.8222656-2.6782227-3.5029297-4.0839844-.5869141-1.2119141-.8798828-2.5922852-.8798828-4.1420898,0-1.7597656.3896484-3.3173828,1.1708984-4.6733398.6914062-1.206543,1.7617188-2.390625,3.2119141-3.5527344l.3564453.4067383Z"/>
        <path class="cls-1" d="m310.9853516,158.8447266c.9414062,2.9775391,2.3193359,5.2045898,4.1347656,6.6821289.7851562.6196289,1.8310547,1.2426758,3.1367188,1.8676758-.1767578.1601562-.3173828.3291016-.4228516.5063477-.0830078.144043-.1464844.2158203-.1904297.2158203-.0332031,0-.0996094-.0249023-.1992188-.074707-.9804688-.5205078-1.7441406-.9902344-2.2910156-1.4111328-1.1132812-.8354492-2.0039062-1.7651367-2.6738281-2.7890625-.7792969-1.1342773-1.4433594-2.5673828-1.9921875-4.2998047-.1933594,1.0957031-.4921875,2.0864258-.8964844,2.9716797-1.0732422,2.2802734-2.8798828,4.0952148-5.4199219,5.4453125-.1103516.0551758-.1826172.0830078-.2158203.0830078-.0605469,0-.1328125-.0634766-.2158203-.190918-.1162109-.1772461-.2792969-.3237305-.4902344-.4399414,2.7558594-1.2670898,4.6328125-3.0351562,5.6289062-5.3041992.4033203-.9018555.7080078-1.9892578.9121094-3.262207h-3.8925781l-2.2744141.0332031c-.0771484,0-.1162109-.0385742-.1162109-.1162109v-.5727539c0-.0830078.0390625-.1245117.1162109-.1245117l2.2744141.0332031h3.984375c.0996094-.8300781.1494141-1.831543.1494141-3.0048828,0-.8242188-.0390625-1.4609375-.1162109-1.9091797.3710938.0224609.6806641.0498047.9296875.0830078.1494141.0224609.2246094.074707.2246094.1577148,0,.0444336-.0146484.0996094-.0419922.1660156-.0332031.0776367-.0527344.1303711-.0576172.1577148-.0839844.2158203-.125.6503906-.125,1.3032227,0,1.1401367-.0498047,2.1557617-.1494141,3.0463867h4.78125l2.2744141-.0332031c.0771484,0,.1162109.0415039.1162109.1245117v.5727539c0,.0776367-.0390625.1162109-.1162109.1162109l-2.2744141-.0332031h-4.4912109Zm2.4990234-4.7231445c.7802734.5644531,1.5273438,1.2895508,2.2412109,2.1748047.0273438.0332031.0410156.0610352.0410156.0830078,0,.0332031-.046875.0913086-.140625.1743164l-.2402344.2407227c-.0947266.0830078-.1582031.1245117-.1914062.1245117-.0273438,0-.0605469-.0249023-.0996094-.074707-.5976562-.8188477-1.3173828-1.5551758-2.1582031-2.2080078-.0439453-.0385742-.0664062-.0717773-.0664062-.0996094,0-.0332031.046875-.0854492.140625-.1577148l.2167969-.2075195c.0712891-.0610352.1240234-.0913086.1572266-.0913086.0166016,0,.0498047.0136719.0996094.0415039Z"/>
        <path class="cls-1" d="m319.9921875,152.8847656l.3564453-.4067383c1.6552734,1.3168945,2.8222656,2.6782227,3.5039062,4.0839844.5859375,1.2119141.8789062,2.5927734.8789062,4.1420898,0,1.765625-.3867188,3.3232422-1.1621094,4.6733398-.6914062,1.2119141-1.7646484,2.3959961-3.2207031,3.5527344l-.3564453-.4067383c1.4716797-1.3173828,2.4960938-2.6533203,3.0712891-4.0092773.4755859-1.1123047.7138672-2.3823242.7138672-3.8100586,0-1.6323242-.3154297-3.0742188-.9462891-4.324707-.5976562-1.1787109-1.5439453-2.3432617-2.8388672-3.4946289Z"/>
      </g>
    </g>
  </g>
</svg>