<?xml version="1.0" encoding="UTF-8"?>
<svg id="_レイヤー_2" data-name="レイヤー 2" xmlns="http://www.w3.org/2000/svg" viewBox="0 0 379.7275391 176.6816406">
  <defs>
    <style>
      .cls-1, .cls-2 {
        stroke-width: 0px;
      }

      .cls-3 {
        font-family: YuGothic-Regular, 'Yu Gothic';
        font-size: 17px;
      }

      .cls-2 {
        fill: #bd989f;
      }

      .cls-4 {
        letter-spacing: -.75em;
      }

      .cls-5 {
        letter-spacing: -.25em;
      }

      .cls-6 {
        letter-spacing: -.5em;
      }
    </style>
  </defs>
  <g id="_レイヤー_2-2" data-name="レイヤー 2">
    <g>
      <path class="cls-2" d="m110.0478516,87.3081055c-.2177734,0-.3720703-.0620117-.5273438-.1860352-.5888672-.434082-1.1474609-.8991699-1.7675781-1.333252-1.8291016-1.3022461-3.7519531-2.5424805-5.6425781-3.7827148-.7753906-.4960938-1.5507812-.9921875-2.2949219-1.5192871-1.3955078.0310059-2.7597656.0620117-4.1542969.1240234-2.3876953,2.8835449-6.3876953,7.0693359-9.6738281,8.8676758-.1240234.0620117-.2792969.1240234-.4345703.1240234-.4648438,0-.8681641-.4030762-.8681641-.8681641,0-.3100586.1865234-.5581055.4345703-.7131348l1.3017578-.8371582c2.5429688-1.8293457,4.8369141-4.1237793,6.8837891-6.4802246-1.5820312.0620117-3.1943359.1860352-4.7753906.3410645-.6816406.0930176-1.3955078.217041-2.0771484.2790527h-.1240234c-.4345703,0-.8681641-.3720703-.8681641-.8371582,0-.434082.2792969-.7751465.7128906-.8681641.8369141-.1550293,1.7363281-.217041,2.6044922-.3100586,2.015625-.1860352,4.03125-.3100586,6.0458984-.3720703l1.3955078-1.8603516c-.6513672.0310059-1.3330078.0930176-1.984375.1550293v.0620117c.03125.4650879-.4033203.8371582-.8369141.8371582-.8994141,0-.8066406-.9611816-1.0849609-1.5192871v-.0620117l-.2177734-1.2402344c-.1542969-1.3022461-.2480469-2.635498-.2480469-3.9377441,0-.7441406-.1855469-2.2944336.8994141-2.2944336.2792969,0,.4648438.0930176.6513672.2790527.3095703-.0620117.6513672-.0930176.9609375-.1240234-.3095703-.3410645-.4648438-2.418457-.4960938-2.9145508-1.953125.0620117-3.90625.1550293-5.8603516.3410645-.7128906.0620117-1.3945312.1860352-2.1083984.2480469h-.1240234c-.4960938,0-.8681641-.3720703-.8681641-.8681641,0-.434082.3105469-.7441406.7138672-.8371582.9296875-.217041,1.984375-.2480469,2.9453125-.3410645,1.7675781-.1240234,3.5039062-.217041,5.2705078-.2790527,0-.2790527-.0302734-.5581055-.0302734-.8061523,0-.7441406-.0625-1.6433105.9609375-1.6433105.4335938,0,.8056641.434082.8056641.8681641,0,.4960938-.0302734,1.0231934-.0302734,1.5192871l4.0615234-.1240234c.0927734-.5891113.1240234-1.1782227.1240234-1.767334,0-.434082.3095703-.8991699.8056641-.8991699.6826172,0,.9306641.434082.9306641,1.0541992,0,.5270996-.0625,1.0541992-.1240234,1.5812988,1.8291016-.0310059,3.6582031-.0620117,5.5185547-.0620117.8681641,0,1.7675781-.0310059,2.6357422.0310059.4960938.0310059.8681641.3410645.8681641.8681641,0,.4960938-.4335938.8371582-.8994141.8371582-.5888672.0310059-1.1777344-.0310059-1.7363281-.0310059-2.2324219,0-4.4648438.0620117-6.6972656.0930176-.2167969.9611816-.4960938,1.8913574-.8056641,2.8215332.5576172,0,1.0849609-.0310059,1.6435547-.0310059.6816406,0,2.2626953-.217041,2.2626953.8681641,0,.217041-.0302734.434082-.0615234.651123-.2167969,1.6743164-.3720703,3.3796387-.7753906,5.0229492.1240234.1550293.2167969.3410645.2167969.5581055,0,.4960938-.3720703.8681641-.8681641.8681641-1.4257812,0-2.8828125.0620117-4.3095703.1240234-.3720703.651123-.8369141,1.2712402-1.2714844,1.8603516,2.7597656-.0930176,5.5195312-.1240234,8.2792969-.1240234h2.8828125c.5898438,0,1.2402344.0930176,1.2402344.8681641,0,.4650879-.4023438.8371582-.8681641.8371582-1.890625,0-3.8134766,0-5.7050781.0310059l.1552734.0930176c1.5507812.9611816,3.0390625,1.984375,4.5273438,3.0075684,1.0224609.6821289,2.1083984,1.3952637,3.0380859,2.2324219.1865234.1860352.3105469.4030762.3105469.6821289,0,.4650879-.4033203.8371582-.8681641.8371582Zm-7.6591797,2.1394043c.2480469.1550293.4345703.434082.4345703.7441406,0,.4650879-.4033203.8681641-.8681641.8681641-.8681641,0-6.7597656.0930176-7.0693359.3410645h-.1552734c-.4335938,0-.7441406-.3100586-.8369141-.7131348-.3105469-1.3952637-.3720703-4.2788086-.3720703-5.7670898,0-.8371582-.1552734-2.1394043,1.0234375-2.1394043.3095703,0,.6201172.3100586.7128906.5891113.1552734-.217041.3095703-.3410645.5576172-.4030762,1.0234375-.3100586,3.6591797-.3410645,4.7753906-.3410645.8056641,0,2.3564453-.2480469,2.3564453.9301758,0,1.767334-.2167969,4.185791-.5585938,5.8911133Zm-.1240234-18.8205566c-2.8828125,0-5.859375.0620117-8.7119141.434082v.3100586c0,.3410645,0,.651123.0302734.9921875,2.6982422-.434082,5.8291016-.4650879,8.5576172-.5270996.0625-.4030762.1240234-.8061523.1552734-1.2092285h-.03125Zm-8.5576172,3.4726562c.03125.4650879.09375.9611816.1865234,1.4262695,2.5419922-.2480469,5.1464844-.3410645,7.6894531-.3720703.1240234-.5270996.2167969-1.0541992.3095703-1.5812988-2.4492188.0310059-5.8291016.1240234-8.1855469.5270996Zm6.9150391,10.2319336c-1.4267578-.0310059-3.0078125,0-4.4033203.3100586-.0615234.0310059-.1240234.0310059-.2167969.0310059-.3105469,0-.5585938-.1860352-.7128906-.434082-.03125.2790527-.03125.5581055-.03125.8371582,0,.3410645.03125.6821289.03125,1.0231934,1.921875-.2480469,3.875-.3100586,5.7978516-.3410645.0615234-.4650879.0927734-.9611816.0927734-1.4262695h-.5576172Zm-5.2714844,3.4726562l.1240234,1.767334c1.7050781-.1550293,3.4414062-.1860352,5.1777344-.217041.1240234-.6201172.2177734-1.2712402.2792969-1.8913574-1.8603516.0620117-3.7519531.0930176-5.5810547.3410645Zm.2480469-21.5800781c.0625.7751465.0927734,1.550293.3105469,2.2944336.0302734.0930176.0302734.217041.0302734.3100586s0,.217041-.0302734.3100586c.8369141-.0620117,1.6425781-.1240234,2.4804688-.1550293l.0302734-.1550293c.3105469-.8991699.5898438-1.7983398.8378906-2.6975098l-3.6591797.0930176Z"/>
      <path class="cls-2" d="m127.3115234,88.951416c-.1542969.1240234-.3720703.1860352-.5576172.1860352-.4960938,0-.9306641-.4030762-.9306641-.8991699,0-.3100586.1552734-.5581055.3720703-.7441406.5273438-.434082,1.0859375-.8681641,1.5820312-1.333252,2.2324219-2.1704102,3.875-4.9919434,3.875-8.154541,0-1.1782227-1.0537109-1.333252-1.984375-1.333252-1.3945312,0-2.9453125.4030762-4.2167969.9301758-.1240234.0620117-.2480469.0930176-.4023438.0930176-1.2402344,0-1.3642578-2.3874512-1.3642578-3.2556152,0-1.2092285.3720703-4.2788086,1.0537109-5.302002.1865234-.2790527.4648438-.4650879.8066406-.4650879.5263672,0,.9296875.4030762.9296875.9301758,0,.1860352-.03125.3100586-.1240234.4650879-.5576172,1.0852051-.8056641,3.2866211-.8056641,4.4958496,0,.3410645,0,.6821289.0615234.9921875,1.2402344-.4030762,2.6669922-.7131348,4-.7131348,2.015625,0,3.90625.8371582,3.90625,3.1625977,0,4.3718262-2.7285156,8.4645996-6.2011719,10.9450684Zm4.9921875-20.060791c-.4960938,0-.9296875-.434082-.9296875-.9301758,0-.6821289-.1552734-2.6975098-.3417969-3.317627-.0302734-.1240234-.0615234-.217041-.0615234-.3410645,0-.4960938.4335938-.9301758.9296875-.9301758.4033203,0,.7138672.217041.8681641.5891113.2792969.651123.4658203,3.1936035.4658203,3.9997559,0,.4960938-.4345703.9301758-.9306641.9301758Z"/>
      <path class="cls-2" d="m161.3193359,88.7963867c-.0927734,0-.2792969-.0310059-.3720703-.0620117-3.7519531-1.4572754-4.0302734-7.503418-4.0302734-10.8830566,0-2.8525391.2167969-5.6740723.4960938-8.4645996l.2480469-2.5734863c.0302734-.434082.0615234-.8991699.1240234-1.333252.0927734-.4960938.4335938-.8371582.9296875-.8371582s.9609375.434082.9306641.9301758v.0930176c-.2177734,4.0617676-.8378906,8.1235352-.8378906,12.1853027,0,2.3874512.1240234,6.7282715,1.8916016,8.5266113.3105469.3100586.5888672.434082.9609375.651123.3417969.217041.5898438.434082.5898438.8681641,0,.4960938-.4345703.8991699-.9306641.8991699Z"/>
      <path class="cls-2" d="m193.9003906,87.6801758c-.1542969.1240234-.3720703.1860352-.5576172.1860352-.4960938,0-.9306641-.434082-.9306641-.9301758,0-.3100586.1240234-.5270996.3720703-.7441406.5273438-.4650879,1.0546875-.8681641,1.5507812-1.3952637,1.8603516-2.0153809,3.4414062-5.2399902,3.4414062-8.0305176,0-4.0307617-2.3876953-6.4492188-6.4804688-6.4802246.5585938.8371582,1.0234375,2.0773926,1.0234375,3.1005859,0,1.333252-.2480469,2.635498-.7128906,3.8757324-.9306641,2.4494629-3.4726562,5.9841309-6.4179688,5.9841309-2.8837891,0-4.8994141-2.4804688-4.8994141-5.2709961,0-5.8911133,5.3955078-9.5187988,10.8828125-9.5187988,5.1787109,0,8.4335938,3.1315918,8.4335938,8.3095703,0,3.9377441-2.5419922,8.6196289-5.7050781,10.9140625Zm-4.6191406-16.9291992c-.09375-.0930176-.1552734-.1240234-.1865234-.2480469-3.7207031.7441406-6.9765625,3.4416504-6.9765625,7.4724121,0,1.767334,1.1787109,3.4106445,3.0703125,3.4106445.6503906,0,1.3945312-.4650879,1.890625-.8371582,2.1083984-1.6433105,3.3798828-4.5268555,3.3798828-7.1623535,0-.9301758-.5273438-1.984375-1.1777344-2.635498Z"/>
      <path class="cls-2" d="m217.1181641,69.8518066c-1.1162109,0-2.2324219.0310059-3.3486328.0930176v6.170166c.4345703-.1550293,2.7910156-1.1782227,3.1318359-1.1782227.4648438,0,.8994141.4030762.8994141.8681641,0,.3720703-.2480469.6821289-.5898438.8371582-1.1162109.4960938-2.2939453.8681641-3.4414062,1.3642578-.03125,2.0773926,0,10.2319336-.8681641,11.9372559-.1552734.3100586-.4033203.4650879-.7441406.4650879-.7753906,0-2.8525391-2.2944336-2.8525391-3.0385742,0-.4650879.4033203-.8681641.8994141-.8681641.3095703,0,.5888672.1860352.7441406.434082.2167969.3410645.4335938.6821289.7128906.9921875.3720703-2.9145508.3408203-6.2631836.3408203-9.2087402-.9296875.434082-1.8603516.8991699-2.7587891,1.3952637-.1865234.0930176-.2792969.1240234-.4658203.1240234-.4960938,0-.8681641-.3410645-.8681641-.8681641,0-.3100586.1240234-.5270996.3720703-.7131348.8681641-.6201172,2.7285156-1.3642578,3.7519531-1.8293457v-6.7592773c-1.0537109.0930176-2.2011719.1550293-3.1933594.5270996-.1240234.0620117-.2167969.0620117-.3408203.0620117-.4960938,0-.8681641-.3720703-.8681641-.8681641,0-.3720703.2167969-.6201172.5263672-.7751465.8066406-.4030762,2.9462891-.6201172,3.8759766-.6821289,0-1.0541992-.0615234-3.1625977.1240234-4.1547852.0927734-.434082.3720703-.7751465.8369141-.7751465.4960938,0,.8994141.4030762.8681641.8681641v.1240234c-.0615234,1.2712402-.0927734,2.5424805-.0927734,3.8137207,1.1162109-.0620117,2.2324219-.0930176,3.3486328-.0930176.4648438,0,.8681641.4030762.8681641.8681641s-.4033203.8681641-.8681641.8681641Zm18.4482422,19.0996094c-.8369141.4030762-2.7587891.7131348-3.6894531.7131348-2.6357422,0-9.6425781-3.2556152-12.3710938-4.2478027-.7128906,1.1472168-2.2011719,3.2866211-3.1933594,4.1547852-.2177734.1860352-.3417969.2480469-.6201172.2480469-.4658203,0-.8681641-.3410645-.8681641-.8371582,0-.2480469.0927734-.4030762.2480469-.5891113l1.0537109-1.1782227c1.5810547-1.9223633,2.8837891-4.185791,3.9072266-6.4802246.2167969-.5270996.4023438-1.0852051.6503906-1.6433105.1552734-.3410645.4345703-.5891113.8378906-.5891113.4648438,0,.8681641.4030762.8681641.8681641,0,.6201172-1.6123047,3.8137207-1.984375,4.5268555.3720703.1240234.7128906.2790527,1.0537109.434082,1.1787109.4960938,2.3876953.9921875,3.5966797,1.4572754.03125-3.1005859.1240234-6.2321777.2167969-9.3327637-2.0146484.0620117-4.0302734.3100586-6.0458984.3100586h-.0927734c-.4648438,0-.8369141-.4030762-.8369141-.8681641,0-.4960938.3095703-.8061523.7744141-.8681641.5585938-.0930176,1.1474609-.0930176,1.7060547-.1240234,1.0849609-.0620117,2.1699219-.0930176,3.2548828-.1240234,2.9150391-.1240234,5.7988281-.1860352,8.7128906-.1860352.4648438,0,.8681641.4030762.8681641.8681641s-.4033203.8681641-.8681641.8681641c-1.921875,0-3.8134766.0310059-5.7363281.0930176l-.0927734,3.6586914c1.3955078-.0310059,2.8212891-.0310059,4.2167969-.0310059.6513672,0,1.4267578-.0310059,1.4267578.8681641,0,.4650879-.4033203.8681641-.8681641.8681641h-2.6357422c-.7128906,0-1.4570312,0-2.2011719.0310059-.03125,1.550293-.0625,3.0695801-.0625,4.619873,1.0849609.4030762,3.96875,1.5192871,5.0849609,1.5192871.9921875,0,2.1396484-.2480469,3.0693359-.5891113.09375-.0310059.2177734-.0620117.3105469-.0620117.4648438,0,.8681641.4030762.8681641.8371582,0,.4030762-.2167969.651123-.5585938.8061523Zm-4.1855469-22.045166c-.1552734,1.4262695-.2792969,2.8525391-.5273438,4.2478027.1865234.1550293.3105469.4030762.3105469.651123,0,.4960938-.4033203.8371582-.8681641.8681641-1.0234375.0620117-7.8134766.217041-8.2480469.434082h-.1542969c-.4345703,0-.7441406-.2790527-.8378906-.6821289-.1855469-.7751465-.1240234-2.1394043-.1240234-2.9145508,0-1.3642578.03125-2.7285156.09375-4.0617676.0302734-.5581055,0-1.1782227.0927734-1.7363281.0615234-.434082.4033203-.7751465.8369141-.7751465.7441406,0,.8681641.5581055.8681641,1.1162109,1.6748047-.217041,3.3798828-.217041,5.0537109-.217041.9306641,0,2.046875-.0620117,2.9765625.0930176.4345703.0620117.7441406.4030762.7441406.8681641,0,.5891113-.1542969,1.4882812-.2167969,2.1083984Zm-3.5341797-1.333252c-1.6748047,0-3.4423828-.0310059-5.1162109.2480469l-.0625,1.767334c2.2636719-.2790527,4.6513672-.3410645,6.9150391-.2480469.0927734-.5891113.1240234-1.1472168.1855469-1.7363281-.6513672-.0310059-1.2714844-.0310059-1.921875-.0310059Zm.3095703,3.4726562c-1.7978516,0-3.6894531.0310059-5.4882812.2790527v.4960938c0,.4650879,0,.9611816.03125,1.4572754,2.1396484-.1550293,4.2792969-.2480469,6.4179688-.3100586.1240234-.6201172.1865234-1.2712402.2792969-1.8913574-.4033203,0-.8056641-.0310059-1.2402344-.0310059Z"/>
      <path class="cls-2" d="m265.7607422,72.3632812h-.0927734c-1.2714844-.0620117-2.5429688-.0930176-3.8447266-.0930176-1.6435547,0-3.2871094.0310059-4.9306641.0620117-.2167969.8681641-.4960938,1.7363281-.8056641,2.5734863.7128906,0,2.1396484-.1860352,2.1396484.8991699,0,.4650879-.3720703.8991699-.8681641.8991699-.6826172,0-1.3642578,0-2.046875-.0310059-.2792969.4960938-.6816406,1.3952637-1.3642578,1.3952637-.4960938,0-.8994141-.434082-.8994141-.8991699,0-.217041.09375-.434082.2480469-.5891113-1.6123047-.1240234-5.0537109-.3100586-5.0537109-2.5734863,0-.434082.0927734-.8681641.1865234-1.3022461-2.2324219.1550293-6.3564453.3410645-8.4335938,1.0541992-.09375.0310059-.2177734.0620117-.3105469.0620117-.4648438,0-.8994141-.3720703-.8994141-.8681641,0-.3720703.2480469-.6821289.5898438-.8371582,1.7978516-.7441406,7.5029297-1.0852051,9.5498047-1.2092285l1.0849609-3.0075684c.1240234-.3410645.4648438-.5891113.8369141-.5891113.4960938,0,.8994141.434082.8994141.8991699,0,.434082-.7128906,2.0153809-.8994141,2.5734863l4.6513672-.1860352c.1855469-.8371582.3095703-1.6743164.4335938-2.5114746.0625-.4650879.3720703-.8061523.8681641-.8061523s.8994141.4030762.8994141.8991699c0,.7751465-.2167969,1.6433105-.3720703,2.3874512,1.6123047-.0620117,3.2246094-.0930176,4.8369141-.0930176,1.0234375,0,2.6972656-.0310059,3.6894531.1240234.4345703.0620117.8066406.4030762.8066406.8681641,0,.4960938-.4033203.9301758-.8994141.8991699Zm-.5585938,15.2548828c-3.4726562,0-8.4023438-1.9223633-11.5957031-3.317627v5.2089844c0,.4960938-.4033203.8681641-.8994141.8681641s-.8681641-.4030762-.8681641-.8991699v-5.519043c-1.6435547,1.4262695-3.4726562,2.6665039-5.3330078,3.8137207-.8994141.5891113-1.8603516,1.2092285-2.8212891,1.6433105-.1240234.0620117-.2792969.0930176-.4033203.0930176-.4648438,0-.8994141-.4030762-.8994141-.8681641,0-.3720703.2177734-.5891113.4960938-.7751465.4345703-.2790527.9306641-.4960938,1.3642578-.7441406,2.1708984-1.2712402,5.3955078-3.3486328,7.1318359-5.1159668-1.7363281.0930176-8.4960938.3410645-9.953125.9301758-.1240234.0620117-.2480469.0930176-.4033203.0930176-.4648438,0-.8681641-.3720703-.8681641-.8371582,0-.4030762.1865234-.651123.4960938-.8371582,1.2402344-.7131348,9.5498047-1.0852051,11.2246094-1.1472168.03125-.8061523-.1552734-2.0463867.9609375-2.0463867.5273438,0,.8994141.4030762.8994141.8991699s-.0625.5581055-.0927734,1.0852051c3.6582031-.1240234,7.3173828-.1860352,10.9755859-.1860352.4648438,0,.8681641.4030762.8681641.8681641s-.3720703.8991699-.8681641.8991699c-3.6582031,0-7.3486328.0620117-11.0068359.1860352v.4960938l.0927734.0310059c3.2246094,1.0852051,8.1542969,3.4106445,11.5029297,3.4106445.4960938,0,.8994141.4030762.8994141.8991699s-.4033203.8681641-.8994141.8681641Zm-3.8447266-17.9213867c-.1855469.2480469-.4023438.3720703-.7128906.3720703-.4960938,0-.8994141-.3720703-.8994141-.8681641,0-.217041.0625-.3720703.1552734-.5270996.4960938-.7751465.8066406-1.4262695,1.0849609-2.2944336-1.3642578-.0620117-2.6972656-.0620117-4.0615234-.0620117-2.2011719,0-4.4335938.0310059-6.6347656.1550293-1.3339844.0620117-2.7285156.1550293-4.03125.4650879-.1552734.9611816-.3095703,1.9223633-.3095703,2.8835449,0,.4960938-.4033203.8681641-.8681641.8681641-.5898438,0-.8994141-.4960938-.8994141-1.0541992,0-1.3952637.2480469-2.9455566.5576172-4.3098145.09375-.434082.4658203-.6821289.8994141-.6821289.3408203,0,.5888672.1550293.7441406.4650879,1.8916016-.3720703,3.9072266-.434082,5.8291016-.4960938l.1240234-1.1162109c.0625-.6201172.0625-1.4572754.9306641-1.4572754.4960938,0,.8984375.4030762.8984375.8991699,0,.5270996-.1542969,1.0541992-.1542969,1.6123047.7744141,0,1.5810547-.0310059,2.3564453-.0310059,1.3017578,0,2.5732422.0310059,3.875.0620117.6201172.0310059,1.3955078,0,1.984375.1550293.4345703.0930176.7138672.4030762.7138672.8681641,0,.9921875-.9921875,3.2866211-1.5820312,4.0927734Zm-11.0996094,2.8835449c-.1240234.434082-.2792969.8991699-.2480469,1.3642578v.1240234c.4960938.5891113,3.5341797.7441406,4.1855469.7751465.3408203-.8061523.5888672-1.6123047.8369141-2.4494629-1.5810547.0310059-3.1933594.1240234-4.7744141.1860352Z"/>
      <path class="cls-2" d="m16.5039062,126.4709473c-1.2089844,1.2092285-4.0615234,2.2944336-5.7666016,2.2944336-2.7910156,0-6.2011719-.9301758-6.2011719-4.3098145,0-2.7285156,2.0771484-4.9919434,4.1855469-6.4492188-1.0234375-2.1394043-1.3955078-5.1779785-1.3955078-7.5344238,0-1.333252.0927734-3.2866211.5273438-4.5268555.1552734-.4030762.4648438-.6821289.8994141-.6821289.5263672,0,.9296875.4030762.9296875.9301758,0,.0930176,0,.1550293-.03125.2480469-.3408203,1.3642578-.4648438,2.7285156-.4648438,4.0927734,0,2.0463867.2792969,4.619873,1.1162109,6.4802246,1.1162109-.6201172,3.1933594-1.550293,4.4648438-1.550293.4960938,0,.9609375.3720703.9609375.8991699,0,.5581055-.3408203.8681641-.8681641.9611816-.4960938.0930176-.9296875.1550293-1.3945312.3100586-2.6982422.8681641-7.0693359,3.6586914-7.0693359,6.8212891,0,2.1704102,2.6972656,2.4804688,4.3408203,2.4804688,1.6123047,0,3.2861328-.8991699,4.5263672-1.8603516.1865234-.1550293.3720703-.2480469.6201172-.2480469.4960938,0,.9306641.434082.9306641.9301758,0,.3100586-.09375.4960938-.3105469.7131348Z"/>
      <path class="cls-2" d="m45.0546875,130.7807617c-.1240234.0620117-.2480469.0930176-.3720703.0930176-.4960938,0-.9306641-.434082-.9306641-.9301758,0-.4030762.2177734-.651123.5585938-.8371582.6513672-.3410645,1.3017578-.651123,1.953125-1.0852051,2.4804688-1.6433105,4.9921875-4.5578613,4.9921875-7.6894531,0-2.6044922-1.2402344-4.5888672-3.6591797-5.5810547-1.7050781,6.2321777-5.3632812,10.9450684-11.5957031,13.0224609-.8369141.2790527-1.7050781.434082-2.5732422.434082-2.6669922,0-4.2480469-1.5192871-4.2480469-4.185791,0-5.1159668,5.0849609-9.487793,9.5810547-10.9760742.0302734-1.984375.1240234-3.96875.4335938-5.9221191-1.7978516.1240234-3.7207031.1550293-5.4570312.651123-.0927734.0310059-.2167969.0310059-.3095703.0310059-.4960938,0-.8994141-.4030762-.8994141-.8991699,0-.434082.2480469-.7131348.6201172-.8681641,1.0537109-.4650879,5.1162109-.7131348,6.3867188-.7751465.1552734-.7751465.3417969-1.6433105.6826172-2.3564453.1552734-.3410645.4648438-.5581055.8681641-.5581055.4648438,0,.8994141.4030762.8994141.8991699,0,.2480469-.4658203,1.5812988-.5585938,1.9533691,1.8916016-.0930176,3.7832031-.1240234,5.6738281-.1240234.8681641,0,2.3261719-.0620117,3.1943359.0620117.5263672.0620117.8681641.4030762.8681641.9611816,0,.5270996-.4658203.8681641-.9619141.8681641-.9609375,0-1.890625-.0620117-2.8525391-.0620117-2.0771484,0-4.1855469.0620117-6.2626953.1240234-.2792969,1.8293457-.4033203,3.6896973-.4648438,5.5500488,1.0224609-.2480469,2.0771484-.3100586,3.1308594-.3100586.8378906,0,1.6748047.0620117,2.4804688.1860352.1552734-.7441406.2480469-1.4882812.3720703-2.2324219.09375-.4650879.4345703-.8061523.8994141-.8061523.4960938,0,.9306641.4030762.9306641.8991699,0,.651123-.2792969,1.9533691-.4033203,2.635498,3.2558594,1.2092285,5.0537109,3.9377441,5.0537109,7.3793945,0,4.5888672-4.0927734,8.6816406-8.0302734,10.4489746Zm-1.2402344-16.6811523c-1.0546875,0-2.1708984.0620117-3.1933594.3410645.0302734,2.0463867.1855469,4.6818848.9296875,6.604248.0625.1240234.0927734.2480469.0927734.3720703,0,.5270996-.4335938.8991699-.9296875.8991699-.4033203,0-.6513672-.1860352-.8369141-.5270996-.7753906-1.3952637-1.0234375-5.1779785-1.0859375-6.7902832-3.5341797,1.3642578-7.7822266,4.8679199-7.7822266,8.9916992,0,1.6743164.7753906,2.3874512,2.4492188,2.3874512.6513672,0,1.3339844-.1240234,1.984375-.3410645,5.6748047-1.9223633,8.8681641-6.1081543,10.3876953-11.7822266-.6826172-.0930176-1.3339844-.1550293-2.015625-.1550293Z"/>
      <path class="cls-2" d="m76.7363281,123.7114258c-.9296875,2.8215332-3.5654297,4.6818848-6.5107422,4.6818848-2.046875,0-3.7832031-1.4882812-3.7832031-3.5966797,0-3.0075684,3.5351562-3.7827148,5.9228516-3.7827148.9609375,0,1.921875.0930176,2.8525391.3410645-.1552734-1.8913574-3.0078125-4.9919434-4.7753906-5.5500488-.4335938-.1550293-.7441406-.434082-.7441406-.8991699s.2167969-.6821289.5888672-.8681641c.8994141-.4960938,3.96875-4.5888672,4.4033203-5.6120605-.6201172-.6201172-2.0771484-.9611816-2.8837891-1.2092285-.4335938-.1240234-.7128906-.4650879-.7128906-.9301758,0-.4960938.4033203-.8991699.8994141-.8991699.0927734,0,.1855469,0,.2480469.0310059,1.3330078.3100586,4.3408203,1.2092285,4.3408203,2.9455566,0,1.3642578-3.2246094,5.2709961-4.2792969,6.3251953,2.0771484,1.3952637,4.7753906,4.2167969,4.7753906,6.8833008,0,.1860352-.03125.3720703-.03125.5581055.2167969.1550293.3408203.434082.3408203.6821289,0,.4030762-.2792969.7751465-.6513672.8991699Zm-4.4023438-.8681641c-1.1787109,0-4.0615234.3100586-4.0615234,1.9533691,0,1.0852051.9296875,1.767334,1.953125,1.767334,2.1699219,0,4-1.333252,4.7128906-3.3796387-.8369141-.2480469-1.7363281-.3410645-2.6044922-.3410645Z"/>
      <path class="cls-2" d="m112.8212891,111.1540527c-.4648438.3410645-1.8603516,3.317627-2.1699219,3.96875-1.984375,4.0617676-4.8994141,10.0769043-8.5576172,12.7744141-.1865234.1240234-.3720703.1860352-.5888672.1860352-.5273438,0-.9306641-.434082-.9306641-.9611816,0-.3100586.1240234-.4960938.3408203-.7131348.6826172-.6201172,1.3339844-1.1782227,1.9541016-1.8603516,2.6044922-3.0075684,4.4023438-6.7282715,6.1074219-10.2629395.4960938-1.0541992.9921875-2.1083984,1.5820312-3.1005859-1.3955078-.0310059-2.7597656-.0620117-4.1552734-.0620117-3.8759766,0-8.4023438.0620117-12.1855469.9921875-.0927734.0310059-.1542969.0310059-.2480469.0310059-.4960938,0-.9296875-.434082-.9296875-.9301758,0-.4650879.2792969-.7441406.6816406-.8991699.3720703-.1550293.8681641-.217041,1.2402344-.2790527,3.7519531-.7131348,7.7207031-.7751465,11.5039062-.7751465,1.3642578,0,2.6972656.0310059,4.0302734.0620117.6513672.0310059,1.3330078,0,1.953125.0620117.5273438.0620117.9306641.3720703.9306641.8991699,0,.4650879-.2480469.6201172-.5585938.8681641Z"/>
      <path class="cls-2" d="m137.4960938,120.4868164c-.5263672,0-.9609375-.434082-.9609375-.9301758,0-.4030762.2167969-.6201172.5273438-.8371582,1.3642578-.8681641,3.0078125-3.2556152,3.7207031-4.7128906-1.7363281,0-3.4726562.1240234-5.2089844.2480469-3.1933594.2480469-6.3564453.7441406-9.5498047.9301758h-.1240234c-.4960938.0310059-.8994141-.4030762-.8994141-.9301758,0-.4960938.3105469-.8371582.8066406-.9301758,1.2402344-.217041,2.5419922-.2790527,3.7822266-.4030762,2.4492188-.2480469,4.8994141-.4650879,7.3486328-.6201172,1.2089844-.0620117,2.3876953-.1550293,3.5966797-.1550293.7753906,0,2.3564453-.0930176,2.3564453,1.0852051,0,1.7363281-3.8134766,7.2553711-5.3955078,7.2553711Zm-3.5966797,5.6430664l-.3408203,1.5812988c-.1552734.5891113-.5273438.7131348-1.0849609.7131348-.4345703,0-.7441406-.4960938-.7441406-.8991699,0-.5270996.2167969-1.2402344.3408203-1.767334.3720703-1.6743164.7128906-3.317627.9921875-5.0229492.1865234-.9611816.3720703-1.984375.3720703-2.9765625,0-.4960938.4345703-.9301758.9306641-.9301758.5263672,0,.9296875.4030762.9296875.9301758,0,2.201416-.9296875,6.1391602-1.3955078,8.371582Z"/>
      <path class="cls-2" d="m168.4658203,127.6181641c-1.0546875,0-5.5195312-1.4572754-6.5732422-1.7983398-1.2099609-.3720703-2.4189453-.7751465-3.6279297-1.1162109-.4345703-.1240234-.7441406-.4030762-.7441406-.8991699s.4033203-.9301758.9296875-.9301758c.4658203,0,3.4111328.9611816,4,1.1472168l3.6894531,1.1472168c.7441406.217041,1.5507812.4960938,2.3564453.5891113.4960938.0620117.8994141.4030762.8994141.9301758s-.4033203.9301758-.9296875.9301758Zm.9296875-7.8444824c-.4648438,0-.8681641-.3720703-.9296875-.8371582-.7753906-.9301758-6.5429688-2.1394043-7.9375-2.5424805-.4345703-.1240234-.7138672-.4650879-.7138672-.8991699,0-.5270996.4033203-.9301758.8994141-.9301758.0927734,0,.1865234,0,.2480469.0310059,1.2714844.3100586,2.5732422.6201172,3.8447266.9611816,1.4267578.4030762,5.5195312,1.3022461,5.5195312,3.2866211,0,.5270996-.4033203.9301758-.9306641.9301758Zm.8369141-6.6662598c-.4960938,0-.9296875-.4030762-.9296875-.9301758,0-.3100586.2167969-.4650879.2167969-.651123,0-.0310059-.03125-.0620117-.03125-.0930176-.0302734-.1240234-.2480469-.3410645-.3408203-.4030762-1.4257812-1.2712402-4.9609375-2.1704102-6.7285156-2.6665039-.4023438-.1240234-.7128906-.4650879-.7128906-.8991699,0-.4960938.4345703-.9301758.9609375-.9301758.0625,0,.1552734,0,.2177734.0310059,1.984375.4960938,8.4638672,2.0463867,8.4638672,4.9609375,0,.6821289-.3408203,1.5812988-1.1162109,1.5812988Z"/>
      <path class="cls-2" d="m190.8769531,119.3706055c-1.7363281,0-1.7675781-2.9765625-1.7675781-4.1547852,0-1.7053223.3408203-6.5732422,1.1787109-7.6584473.1855469-.217041.4335938-.3720703.7441406-.3720703.5263672,0,.9296875.4030762.9296875.9301758,0,.217041-.0615234.3410645-.1552734.5270996-.5576172,1.0231934-.8369141,5.302002-.8369141,6.6352539,0,.5891113.03125,1.6123047.2167969,2.1704102.4658203.0620117.8681641.4650879.8681641.9301758,0,.6821289-.5576172.9921875-1.1777344.9921875Zm10.3554688-12.8984375c-.2167969.434082-.4648438,2.6975098-.5263672,3.2866211-.7138672,6.4182129-1.8603516,14.6657715-6.8837891,19.1616211-.1855469.1550293-.4033203.2790527-.6513672.2790527-.4960938,0-.9296875-.4030762-.9296875-.8991699,0-.2790527.1240234-.4960938.3095703-.6821289.5273438-.5581055,1.0546875-1.0852051,1.5507812-1.7363281,2.2636719-2.9765625,3.2558594-6.6972656,3.90625-10.3249512.3417969-1.984375.6201172-3.9997559.8681641-6.0151367.09375-.8371582.3105469-3.751709.9921875-4.3408203.1865234-.1550293.3720703-.2480469.6201172-.2480469.5273438,0,.9306641.434082.9306641.9301758,0,.2790527-.0625.3720703-.1865234.5891113Z"/>
      <path class="cls-2" d="m237.3173828,118.5334473h-.1240234c-1.7666016-.1240234-3.5341797-.2790527-5.3017578-.2790527-4.2480469,0-8.4335938.7131348-12.6503906.7131348h-.0615234c-1.2402344,0-3.2246094.0310059-3.96875-1.2402344-.09375-.1240234-.1240234-.2790527-.1240234-.434082,0-.5270996.4335938-.9611816.9296875-.9611816.8681641,0,.4345703.8061523,2.3251953.8061523.2480469,0,.4658203,0,.7138672-.0310059,4.4023438-.3410645,8.8056641-.6821289,13.2392578-.6821289,1.3955078,0,3.8134766,0,5.1464844.2480469.4658203.0930176.8066406.434082.8066406.9301758,0,.5270996-.4345703.9301758-.9306641.9301758Z"/>
      <path class="cls-2" d="m261.0625,127.6801758c-.1552734.1240234-.3720703.1860352-.5585938.1860352-.4960938,0-.9296875-.434082-.9296875-.9301758,0-.3100586.1240234-.5270996.3720703-.7441406.5273438-.4650879,1.0537109-.8681641,1.5498047-1.3952637,1.8603516-2.0153809,3.4423828-5.2399902,3.4423828-8.0305176,0-4.0307617-2.3876953-6.4492188-6.4804688-6.4802246.5576172.8371582,1.0234375,2.0773926,1.0234375,3.1005859,0,1.333252-.2480469,2.635498-.7138672,3.8757324-.9296875,2.4494629-3.4726562,5.9841309-6.4179688,5.9841309-2.8837891,0-4.8984375-2.4804688-4.8984375-5.2709961,0-5.8911133,5.3945312-9.5187988,10.8828125-9.5187988,5.1777344,0,8.4335938,3.1315918,8.4335938,8.3095703,0,3.9377441-2.5429688,8.6196289-5.7050781,10.9140625Zm-4.6201172-16.9291992c-.0927734-.0930176-.1552734-.1240234-.1855469-.2480469-3.7207031.7441406-6.9765625,3.4416504-6.9765625,7.4724121,0,1.767334,1.1777344,3.4106445,3.0693359,3.4106445.6513672,0,1.3955078-.4650879,1.8916016-.8371582,2.1083984-1.6433105,3.3798828-4.5268555,3.3798828-7.1623535,0-.9301758-.5273438-1.984375-1.1787109-2.635498Z"/>
      <path class="cls-2" d="m282.9775391,107.2783203c-.6816406,1.3952637-1.4570312,2.7595215-2.1699219,4.1547852.1855469.1860352.3095703.4030762.2783203.651123v.0930176c-.2783203,5.5500488-.7441406,11.1621094-.7441406,16.7121582,0,.5270996-.4023438.9301758-.9296875.9301758-.4960938,0-.9306641-.434082-.9306641-.9301758,0-4.6818848.2177734-9.3637695.5273438-14.0146484-.3720703.6821289-2.7597656,5.4570312-3.1318359,5.8601074-.2480469.2480469-.4023438.4030762-.7744141.4030762-.5273438,0-.9306641-.4030762-.9306641-.9301758,0-.217041.0625-.3100586.1552734-.4960938,1.5195312-2.635498,2.8525391-5.3330078,4.2480469-8.0305176l1.890625-3.5966797c.2792969-.5270996.5585938-1.1782227.8994141-1.6743164.2167969-.3100586.4345703-.4960938.8066406-.4960938.5263672,0,.9296875.4030762.9296875.8991699,0,.1860352-.0615234.3100586-.1240234.4650879Zm19.0996094,16.309082c-3.1318359,0-6.8525391-4.0617676-8.6816406-6.3562012-.1240234,4.0617676-.2167969,8.154541-.2167969,12.2163086,0,.4960938-.4345703.9301758-.9306641.9301758s-.9296875-.434082-.9296875-.9301758c0-4.0617676.0927734-8.1235352.2167969-12.1853027-1.6435547,1.6433105-3.2246094,3.3486328-4.7744141,5.0849609l-1.1474609,1.333252-.5585938.7131348c-.2167969.2480469-.4023438.3720703-.7441406.3720703-.4960938,0-.8984375-.4030762-.8984375-.8991699,0-.217041.0615234-.4030762.1855469-.5891113.7441406-1.0541992,1.7988281-2.1704102,2.6669922-3.1315918,1.1162109-1.2092285,2.2324219-2.418457,3.3789062-3.5966797.6513672-.651123,1.2714844-1.333252,1.984375-1.8913574l.09375-2.5114746c-1.8603516.0930176-3.7207031.1860352-5.5810547.3410645-.4345703.0310059-.8681641.0930176-1.3027344.1550293-.2167969,0-.4335938.0620117-.6201172.0930176h-.1855469c-.5585938,0-.9306641-.4030762-.9306641-.9301758,0-.4960938.3105469-.7441406.7441406-.8991699,1.0546875-.3410645,6.6357422-.5270996,7.96875-.5891113.0615234-1.1782227.3408203-5.7980957.7128906-6.7592773.1552734-.4030762.4345703-.6821289.8994141-.6821289.5273438,0,.9296875.4030762.9296875.9301758,0,.0930176,0,.1550293-.0302734.2480469-.4658203,1.9223633-.5585938,4.185791-.6513672,6.170166,2.5419922-.0930176,5.1162109-.1550293,7.6582031-.1550293.5273438,0,.9306641.4030762.9306641.9301758,0,.4960938-.4345703.9301758-.9306641.9301758-2.5732422,0-5.1777344.0620117-7.7509766.1550293l-.09375,2.3564453c.1552734.0620117.2792969.1550293.3720703.3100586l1.0546875,1.4572754c1.3330078,1.6433105,4.8984375,5.519043,7.1621094,5.519043.4960938,0,.8994141.434082.8994141.9301758s-.3720703.9301758-.8994141.9301758Z"/>
      <path class="cls-2" d="m328.6748047,128.2382812c-.6201172.0620117-1.3339844,0-1.984375,0-4.4960938,0-9.0849609.0930176-13.5810547.5891113-.1240234.0930176-.2480469.0930176-.4033203.0930176-.5263672,0-.8369141-.3720703-.9296875-.8371582-.1240234-.5891113-.0927734-1.9223633-.1240234-2.5734863-.0625-1.8913574-.0927734-3.751709-.0927734-5.6430664,0-3.0695801.0615234-6.170166.1855469-9.2397461.0625-1.1162109.0927734-2.201416.1865234-3.317627,0-.3410645,0-.7751465.0615234-1.1162109.0927734-.4960938.3720703-.8681641.9306641-.8681641.4960938,0,.8984375.4030762.8984375.8991699,1.1787109-.7751465,10.1699219-.8681641,12-.8681641.5888672,0,2.0146484-.0310059,2.5732422.0620117.7128906.1550293.8369141.5581055.8369141,1.2092285,0,2.8835449-.0927734,5.7980957-.1552734,8.6816406-.0615234,3.6896973-.1542969,7.4104004-.3095703,11.1000977.4960938.0310059.8681641.434082.8681641.9301758,0,.5581055-.4648438.8371582-.9609375.8991699Zm-3.2558594-21.0219727c-2.2324219,0-4.4960938.0620117-6.7285156.1860352-1.3330078.0930176-2.7285156.1240234-4.0302734.4650879-.09375.0310059-.1552734.0310059-.2480469.0310059-.2480469,0-.4658203-.0930176-.6513672-.2790527-.1865234,2.9145508-.2480469,5.7980957-.3105469,8.7126465,1.5820312-.3100586,3.1943359-.434082,4.8066406-.5581055,2.2939453-.1550293,4.6503906-.2480469,6.9755859-.2480469.6513672,0,1.3339844,0,1.984375.0310059.0625-2.7595215.1552734-5.5500488.1552734-8.3095703-.6513672-.0310059-1.3017578-.0310059-1.953125-.0310059Zm-.1240234,10.1699219c-2.4804688,0-4.9609375.0930176-7.4101562.2790527-1.4580078.1240234-3.0078125.217041-4.4345703.5581055v2.2634277c0,2.1394043,0,4.3098145.1240234,6.4492188,4.4033203-.4650879,8.8994141-.5581055,13.3330078-.5581055.1240234-2.9765625.1855469-5.9841309.2792969-8.9606934-.6201172-.0310059-1.2714844-.0310059-1.8916016-.0310059Z"/>
      <path class="cls-2" d="m341.0087891,120.6418457c-.9921875,1.3952637-1.921875,2.8215332-2.8837891,4.2478027-.1542969.2480469-.4023438.4030762-.7128906.4030762-.4648438,0-.8369141-.3720703-.8369141-.8371582,0-.1550293.03125-.3100586.1240234-.434082.3408203-.6201172.7753906-1.1782227,1.1474609-1.767334.5888672-.8991699,1.1777344-1.8293457,1.8603516-2.635498.1542969-.1860352.4023438-.3100586.6816406-.3100586.4345703,0,.8066406.3720703.8066406.8371582,0,.1860352-.09375.3410645-.1865234.4960938Zm6.2011719-3.1005859c-.8994141,0-.7441406-1.1162109-.8994141-1.7053223-.8056641.0930176-1.5810547.1550293-2.3867188.2790527-.2792969,4.3718262-.4033203,8.8056641-.4033203,13.2084961,0,.434082-.3720703.8681641-.8369141.8681641-.8066406,0-.8378906-.7131348-.8378906-1.3022461,0-4.185791.1552734-8.4025879.4033203-12.5883789-1.1777344.1550293-2.3876953.2790527-3.5654297.5270996-.0625,0-.0927734.0310059-.1552734.0310059-.4648438,0-.8369141-.4030762-.8369141-.8681641,0-.3100586.1855469-.5270996.4335938-.7131348,1.5820312-1.0231934,3.6904297-2.9765625,4.9609375-4.3718262-1.0537109-.2480469-2.0458984-.3410645-3.1308594-.3410645-.4658203,0-.8378906-.4030762-.8378906-.8371582,0-.2790527.1240234-.4650879.3105469-.651123,1.0234375-.9301758,2.4492188-3.4416504,3.2246094-4.6818848.1552734-.2480469.4033203-.434082.7128906-.434082.4648438,0,.8369141.3720703.8369141.8371582,0,.5891113-2.0771484,3.5656738-2.5107422,4.1547852.8369141.0930176,3.5654297.4650879,3.5654297,1.6433105,0,.8681641-3.0693359,3.5036621-3.7519531,4.1237793,1.4267578-.1860352,2.8837891-.3720703,4.3095703-.5270996-.1240234-.3410645-.5263672-.9611816-.5263672-1.2712402,0-.4650879.4023438-.8371582.8369141-.8371582.3095703,0,.5576172.1550293.7128906.4030762.5888672.8371582,1.2714844,3.1005859,1.2714844,4.1237793,0,.5581055-.3408203.9301758-.8994141.9301758Zm-.1552734,4.9919434c-.5888672,0-2.2626953-1.4572754-2.6972656-1.8913574-.1552734-.1550293-.2480469-.3720703-.2480469-.5891113,0-.4960938.3720703-.8371582.8369141-.8371582.2177734,0,.4345703.0930176.5898438.2480469.7744141.7131348,1.0849609.9301758,1.953125,1.5192871.2480469.1550293.4033203.4030762.4033203.7131348,0,.434082-.3720703.8371582-.8378906.8371582Zm16.3408203,7.5654297c-.1240234.3100586-.4345703.5270996-.7753906.5270996-.6826172,0-2.1708984-.4650879-2.1708984-1.3022461,0-.4960938.3720703-.8371582.8378906-.8371582.4023438,0,.4648438.1860352.7744141.2790527.4033203-1.7983398.4658203-3.751709.5273438-5.5810547-.8994141,0-1.7978516.0310059-2.6972656.0620117-.0625,1.2092285-.1240234,2.3874512-.2167969,3.5966797-.03125.5581055-.03125,1.2092285-.1552734,1.767334-.0927734.4030762-.4033203.7131348-.8369141.7131348-.4345703,0-.8066406-.4030762-.8066406-.8061523v-.1550293c.2480469-1.5812988.2480469-3.4726562.3408203-5.0849609l-1.953125.0930176c-.03125,1.550293-.0615234,3.1005859-.0615234,4.6508789,0,.4960938-.3417969.8681641-.8378906.8681641-.8369141,0-.8369141-.7751465-.8369141-1.3952637,0-1.333252.03125-2.6975098.0625-4.0307617-.8066406.0310059-1.5820312.0620117-2.3876953.1550293-.0625,1.550293-.1240234,3.1005859-.1240234,4.6508789,0,.3100586.03125.6201172.03125.9301758,0,.434082-.3720703.8061523-.8378906.8061523-.8984375,0-.8681641-.9301758-.8681641-1.5812988,0-2.4804688.1552734-4.9919434.2480469-7.503418-.8369141,1.984375-1.890625,3.9067383-3.1621094,5.6120605-.2167969.2480469-.4033203.5581055-.6201172.7751465-.1552734.1860352-.4033203.2790527-.6513672.2790527-.4335938,0-.8369141-.3720703-.8369141-.8061523,0-.217041.0927734-.4030762.2167969-.5581055.6513672-.8371582,1.2714844-1.6123047,1.7988281-2.5114746,2.3564453-3.9067383,3.9375-9.3637695,4.1855469-13.9216309-.2792969.0310059-.5888672.1240234-.8681641.1240234-.4345703,0-.8066406-.4030762-.8066406-.8371582,0-.4030762.2792969-.6821289.6513672-.8061523.6826172-.217041,1.6748047-.1860352,2.4189453-.2480469,2.5419922-.1550293,5.1152344-.217041,7.6894531-.217041.6816406,0,2.2011719-.217041,2.1083984.8371582v.1240234c-.1240234,1.767334-.6513672,3.534668-1.0859375,5.2399902-.0927734.4030762-.3408203.7441406-.8056641.7441406l-.03125.0310059h-.6513672c-1.4882812,0-2.9765625.0310059-4.4648438.0620117-1.0849609.0310059-2.1699219.0620117-3.2246094.1550293-.1542969.7131348-.3408203,1.4262695-.5576172,2.1394043.1552734.0620117.3095703.1860352.4033203.3410645,1.2705078-.2480469,2.6044922-.3100586,3.90625-.4030762,1.7675781-.0930176,3.5966797-.1550293,5.3955078-.1550293,2.7285156,0,2.6347656-.1550293,2.6347656,2.5114746,0,2.3254395-.0615234,8.7436523-.8984375,10.6660156Zm-10.9765625-10.9450684l-.1240234,2.7905273c.7753906-.0930176,1.5507812-.1240234,2.3251953-.1550293.03125-.9611816.0625-1.9533691.0625-2.9145508-.7441406.0620117-1.5195312.1240234-2.2636719.2790527Zm.8066406-9.4567871c-.03125,1.2092285-.1865234,2.418457-.4033203,3.5966797,2.4492188-.1550293,4.9609375-.1860352,7.4101562-.1860352.3105469-1.2092285.5273438-2.4494629.7441406-3.6586914-2.5732422,0-5.1777344.0930176-7.7509766.2480469Zm3.90625-3.4416504c-.2167969,0-.4335938-.0930176-.5888672-.2480469-.7441406-.7131348-1.5810547-1.333252-2.4492188-1.8913574-.2480469-.1550293-.3720703-.434082-.3720703-.7131348,0-.4650879.3408203-.8061523.8056641-.8061523.5888672,0,2.7285156,1.7363281,3.1933594,2.2324219.1552734.1550293.2480469.3720703.2480469.5891113,0,.4650879-.3720703.8371582-.8369141.8371582Zm-.7753906,12.4953613l-.0615234,2.9455566,1.984375-.0930176c.0615234-.9921875.0927734-1.9533691.1240234-2.9455566l-2.046875.0930176Zm6.2636719-.1550293h-.4648438c-.6826172,0-1.3955078,0-2.078125.0310059-.0302734.9921875-.0615234,1.9533691-.1240234,2.9455566.8994141-.0310059,1.7675781-.0310059,2.6669922-.0310059,0-.4960938.03125-.9921875.03125-1.5192871,0-.4650879,0-.9611816-.03125-1.4262695Z"/>
    </g>
    <g>
      <path class="cls-1" d="m111.2236328.5249023v18.2021484h7.28125v5.1455078h-13.3369141V.5249023h6.0556641Z"/>
      <path class="cls-1" d="m127.6728516.5249023v23.3476562h-6.0556641V.5249023h6.0556641Z"/>
      <path class="cls-1" d="m145.9433594,5.6704102h-7.3154297v3.8857422h6.6503906v5.1455078h-6.6503906v9.1708984h-6.0556641V.5249023h13.3710938v5.1455078Z"/>
      <path class="cls-1" d="m162.8134766,5.6704102h-7.2109375v3.8857422h6.8261719v5.1455078h-6.8261719v4.0253906h7.2109375v5.1455078h-13.2666016V.5249023h13.2666016v5.1455078Z"/>
      <path class="cls-1" d="m168.2021484,16.871582c1.2949219,1.2255859,3.2558594,2.3803711,5.3554688,2.3803711,1.2255859,0,1.9609375-.3847656,2.3457031-.8051758.3496094-.3496094.5947266-.875.5947266-1.4697266,0-.4550781-.1748047-.9804688-.6650391-1.4003906-.5947266-.5249023-1.5048828-.7700195-3.0097656-1.2250977l-1.5751953-.4902344c-.9804688-.3149414-2.4160156-.8398438-3.3603516-1.8901367-1.1904297-1.2949219-1.3300781-2.9404297-1.3300781-4.1303711,0-2.8701172,1.1201172-4.6206055,2.1347656-5.6357422,1.1904297-1.1899414,3.1503906-2.2050781,5.9853516-2.2050781,2.3105469,0,5.0058594.7353516,7.2109375,1.8901367l-2.4150391,4.7255859c-1.8203125-1.4350586-3.1855469-1.5751953-3.9902344-1.5751953-.5957031,0-1.4003906.1401367-1.9951172.7001953-.3505859.3500977-.5957031.7348633-.5957031,1.2602539,0,.4199219.0703125.7348633.3154297,1.0498047.1748047.2099609.5947266.6303711,2.0302734,1.050293l1.8544922.5600586c1.4707031.4550781,3.0107422.9799805,4.2363281,2.3100586,1.1894531,1.2602539,1.5048828,2.5551758,1.5048828,4.1655273,0,2.1352539-.5253906,4.2006836-2.2050781,5.8808594-1.9951172,1.9946289-4.4111328,2.3803711-6.8955078,2.3803711-1.4707031,0-2.8710938-.140625-4.5859375-.7705078-.3847656-.1401367-1.8554688-.7001953-3.5351562-1.8549805l2.5898438-4.9008789Z"/>
      <path class="cls-1" d="m195.46875,5.6704102v18.2021484h-6.0556641V5.6704102h-4.9707031V.5249023h15.9960938v5.1455078h-4.9697266Z"/>
      <path class="cls-1" d="m208.6972656,12.6713867l-8.4355469-12.1464844h7.2460938l4.4101562,6.3710938,4.2353516-6.3710938h7.3505859l-8.7158203,12.1464844v11.2011719h-6.0908203v-11.2011719Z"/>
      <path class="cls-1" d="m231.5878906.5249023v18.2021484h7.28125v5.1455078h-13.3369141V.5249023h6.0556641Z"/>
      <path class="cls-1" d="m255.2480469,5.6704102h-7.2109375v3.8857422h6.8261719v5.1455078h-6.8261719v4.0253906h7.2109375v5.1455078h-13.2666016V.5249023h13.2666016v5.1455078Z"/>
    </g>
    <text class="cls-3" transform="translate(0 171.543457)"><tspan x="0" y="0">家族構</tspan><tspan class="cls-5" x="51" y="0">成：</tspan><tspan class="cls-6" x="76.5" y="0">父</tspan><tspan x="85" y="0">（30歳</tspan><tspan class="cls-4" x="137.9091797" y="0">）</tspan><tspan class="cls-5" x="142.1591797" y="0">・</tspan><tspan class="cls-6" x="154.9091797" y="0">母</tspan><tspan x="163.4091797" y="0">（30歳</tspan><tspan class="cls-4" x="216.3183594" y="0">）</tspan><tspan class="cls-5" x="220.5683594" y="0">・</tspan><tspan x="233.3183594" y="0">息</tspan><tspan class="cls-6" x="250.3183594" y="0">子</tspan><tspan x="258.8183594" y="0">（8歳</tspan><tspan class="cls-4" x="302.2734375" y="0">）</tspan><tspan class="cls-5" x="306.5234375" y="0">・</tspan><tspan class="cls-6" x="319.2734375" y="0">娘</tspan><tspan x="327.7734375" y="0">（4歳</tspan><tspan class="cls-6" x="371.2275391" y="0">）</tspan></text>
  </g>
</svg>