<?xml version="1.0" encoding="UTF-8"?>
<svg id="_レイヤー_2" data-name="レイヤー 2" xmlns="http://www.w3.org/2000/svg" viewBox="0 0 348.149779 98.3349609">
  <defs>
    <style>
      .cls-1 {
        fill: #040000;
      }

      .cls-1, .cls-2 {
        stroke-width: 0px;
      }

      .cls-2 {
        fill: #31b1df;
      }
    </style>
  </defs>
  <g id="_レイヤー_1-2" data-name="レイヤー 1">
    <g>
      <path class="cls-2" d="m102.1044922,24.7490234c-.2099609,0-.3603516-.0600586-.5102539-.1801758-.5698242-.4199219-1.1098633-.8696289-1.7099609-1.2900391-1.7695312-1.2597656-3.6298828-2.4594727-5.4594727-3.659668-.75-.4799805-1.5-.9599609-2.2202148-1.4697266-1.3496094.0297852-2.6699219.0595703-4.0195312.1196289-2.3100586,2.7900391-6.1796875,6.8398438-9.3598633,8.5795898-.1201172.0600586-.2700195.1201172-.4199219.1201172-.449707,0-.8398438-.3896484-.8398438-.8398438,0-.2998047.1796875-.5400391.4199219-.6899414l1.2597656-.8100586c2.4599609-1.7700195,4.6801758-3.9897461,6.6601562-6.2695312-1.5302734.0595703-3.090332.1796875-4.6201172.3295898-.6601562.090332-1.3500977.2104492-2.0097656.2700195h-.1201172c-.4199219,0-.8398438-.3598633-.8398438-.8095703,0-.4204102.2700195-.75.6899414-.840332.8100586-.1499023,1.6796875-.2099609,2.5200195-.2998047,1.949707-.1801758,3.8994141-.300293,5.8496094-.3598633l1.3500977-1.800293c-.6303711.0302734-1.2900391.090332-1.9199219.1499023v.0605469c.0297852.449707-.3901367.8095703-.8100586.8095703-.8701172,0-.7802734-.9296875-1.0498047-1.4697266v-.0600586l-.2104492-1.199707c-.1499023-1.2602539-.2397461-2.550293-.2397461-3.8100586,0-.7202148-.1801758-2.2202148.8701172-2.2202148.2700195,0,.449707.090332.6298828.2705078.2998047-.0605469.6298828-.090332.9296875-.1201172-.2998047-.3300781-.449707-2.3398438-.4799805-2.8203125-1.8896484.0605469-3.7797852.1503906-5.6694336.3300781-.6899414.0600586-1.3500977.1801758-2.0400391.2402344h-.1201172c-.4799805,0-.8398438-.3603516-.8398438-.8398438,0-.4199219.2998047-.7202148.6899414-.8100586.8999023-.2099609,1.9199219-.2402344,2.8500977-.3300781,1.7099609-.1201172,3.3896484-.2099609,5.0996094-.2700195,0-.2700195-.0302734-.5400391-.0302734-.7802734,0-.7197266-.0595703-1.5898438.9301758-1.5898438.4199219,0,.7797852.4199219.7797852.840332,0,.4799805-.0297852.9897461-.0297852,1.4697266l3.9296875-.1196289c.090332-.5703125.1201172-1.1401367.1201172-1.7099609,0-.4204102.2998047-.8701172.7797852-.8701172.6601562,0,.9003906.4199219.9003906,1.0195312,0,.5102539-.0600586,1.0205078-.1201172,1.5302734,1.7700195-.0302734,3.5395508-.0600586,5.3398438-.0600586.8398438,0,1.7099609-.0297852,2.5498047.0297852.4799805.0302734.8398438.3300781.8398438.840332,0,.4799805-.4199219.8100586-.8701172.8100586-.5698242.0297852-1.1396484-.0302734-1.6796875-.0302734-2.1601562,0-4.3198242.0600586-6.4799805.0898438-.2099609.9301758-.4799805,1.8300781-.7797852,2.7299805.5400391,0,1.0498047-.0297852,1.5898438-.0297852.6601562,0,2.1899414-.2099609,2.1899414.8398438,0,.2099609-.0297852.4199219-.0600586.6298828-.2099609,1.6201172-.3598633,3.2700195-.75,4.8598633.1201172.1499023.2099609.3300781.2099609.5400391,0,.4799805-.3598633.8398438-.8398438.8398438-1.3798828,0-2.7900391.0600586-4.1699219.1201172-.3598633.6298828-.8095703,1.2299805-1.2299805,1.7998047,2.6699219-.0898438,5.3398438-.1196289,8.0097656-.1196289h2.7900391c.5698242,0,1.199707.0898438,1.199707.8398438,0,.449707-.3896484.8095703-.8398438.8095703-1.8300781,0-3.6899414,0-5.5195312.0302734l.1499023.0898438c1.5.9301758,2.9399414,1.9199219,4.3798828,2.9101562.9897461.6601562,2.0395508,1.3496094,2.9399414,2.159668.1796875.1801758.2998047.3901367.2998047.6601562,0,.449707-.3901367.8100586-.8398438.8100586Zm-7.409668,2.0698242c.2397461.1499023.4199219.4199219.4199219.7202148,0,.449707-.3901367.8398438-.8398438.8398438-.840332,0-6.5400391.0898438-6.8398438.3300781h-.1499023c-.4199219,0-.7202148-.300293-.8100586-.6904297-.300293-1.3496094-.3598633-4.1396484-.3598633-5.5795898,0-.8100586-.1503906-2.0698242.9897461-2.0698242.2998047,0,.6000977.2998047.6899414.5698242.1499023-.2099609.2998047-.3300781.5400391-.3901367.9897461-.2998047,3.5400391-.3300781,4.6196289-.3300781.7802734,0,2.2802734-.2397461,2.2802734.9003906,0,1.7099609-.2104492,4.0498047-.5400391,5.699707Zm-.1201172-18.2094727c-2.7900391,0-5.6699219.0600586-8.4296875.4199219v.300293c0,.3295898,0,.6298828.0297852.9599609,2.6103516-.4199219,5.6401367-.4501953,8.2797852-.5102539.0600586-.3896484.1201172-.7797852.1499023-1.1699219h-.0297852Zm-8.2797852,3.3598633c.0302734.4501953.0898438.9301758.1801758,1.3803711,2.4599609-.2402344,4.9794922-.3300781,7.4394531-.3603516.1201172-.5097656.2099609-1.0200195.300293-1.5297852-2.3701172.0297852-5.6401367.1196289-7.9199219.5097656Zm6.6899414,9.8999023c-1.3798828-.0302734-2.9101562,0-4.2597656.2998047-.0600586.0302734-.1201172.0302734-.2099609.0302734-.300293,0-.5400391-.1801758-.6899414-.4199219-.0302734.2695312-.0302734.5395508-.0302734.8095703,0,.3300781.0302734.6601562.0302734.9902344,1.8598633-.2402344,3.7495117-.300293,5.609375-.3300781.0600586-.4501953.090332-.9301758.090332-1.3798828h-.5400391Zm-5.1000977,3.3598633l.1201172,1.7094727c1.6499023-.1494141,3.3300781-.1796875,5.0097656-.2099609.1201172-.5996094.2099609-1.2294922.2700195-1.8295898-1.7998047.0600586-3.6298828.0898438-5.3999023.3300781Zm.2402344-20.8793945c.0600586.75.0898438,1.5.2998047,2.2197266.0302734.090332.0302734.2099609.0302734.300293,0,.0898438,0,.2099609-.0302734.2998047.8100586-.0600586,1.5898438-.1196289,2.3999023-.1499023l.0302734-.1499023c.2998047-.8701172.5698242-1.7397461.8100586-2.6098633l-3.5400391.0898438Z"/>
      <path class="cls-2" d="m118.8149414,26.3388672c-.1499023.1201172-.3598633.1796875-.5400391.1796875-.4799805,0-.8999023-.3896484-.8999023-.8696289,0-.300293.1499023-.5400391.3598633-.7202148.5102539-.4199219,1.050293-.8398438,1.5297852-1.2900391,2.1601562-2.0996094,3.75-4.8295898,3.75-7.8896484,0-1.1396484-1.0200195-1.2900391-1.9199219-1.2900391-1.3496094,0-2.8496094.3901367-4.0795898.9003906-.1201172.0595703-.2402344.0898438-.3901367.0898438-1.2001953,0-1.3198242-2.3095703-1.3198242-3.1499023,0-1.1699219.3598633-4.1396484,1.0200195-5.1298828.1796875-.2700195.449707-.449707.7797852-.449707.5097656,0,.8999023.3896484.8999023.8999023,0,.1801758-.0297852.2998047-.1201172.449707-.5400391,1.050293-.7797852,3.1801758-.7797852,4.3500977,0,.3300781,0,.659668.0600586.9599609,1.199707-.3901367,2.5800781-.6899414,3.8696289-.6899414,1.9501953,0,3.7797852.8095703,3.7797852,3.0595703,0,4.2299805-2.6396484,8.1899414-5.9995117,10.5898438Zm4.8295898-19.4091797c-.4799805,0-.8999023-.4199219-.8999023-.8999023,0-.6601562-.1499023-2.6098633-.3300781-3.2099609-.0297852-.1201172-.0595703-.2099609-.0595703-.3300781,0-.4799805.4199219-.8999023.8999023-.8999023.3896484,0,.6899414.2099609.8398438.5698242.2700195.6303711.4501953,3.0898438.4501953,3.8701172,0,.4799805-.4204102.8999023-.9003906.8999023Z"/>
      <path class="cls-2" d="m151.7246094,26.1889648c-.0898438,0-.2700195-.0302734-.3598633-.0600586-3.6298828-1.4101562-3.8999023-7.2597656-3.8999023-10.5297852,0-2.7597656.2099609-5.4897461.4799805-8.1894531l.2402344-2.4897461c.0297852-.4199219.0600586-.8701172.1196289-1.2900391.090332-.4799805.4204102-.8100586.9003906-.8100586s.9296875.4199219.8999023.8999023v.0898438c-.2099609,3.9296875-.8100586,7.8598633-.8100586,11.7895508,0,2.3100586.1201172,6.5097656,1.8300781,8.2495117.2998047.300293.5698242.4204102.9296875.6303711.3300781.2099609.5703125.4199219.5703125.8398438,0,.4799805-.4204102.8701172-.9003906.8701172Z"/>
      <path class="cls-2" d="m183.2548828,25.1088867c-.1503906.1201172-.3603516.1801758-.5400391.1801758-.4799805,0-.8999023-.4199219-.8999023-.9003906,0-.2998047.1196289-.5097656.3598633-.7197266.5097656-.4501953,1.0200195-.8398438,1.5-1.3500977,1.7998047-1.949707,3.3295898-5.0698242,3.3295898-7.7695312,0-3.8999023-2.3095703-6.2397461-6.2695312-6.2700195.5400391.8100586.9897461,2.0102539.9897461,3,0,1.2900391-.2397461,2.5498047-.6899414,3.75-.8999023,2.3701172-3.3598633,5.7900391-6.2094727,5.7900391-2.7900391,0-4.7397461-2.4003906-4.7397461-5.1000977,0-5.699707,5.2197266-9.2094727,10.5292969-9.2094727,5.0097656,0,8.159668,3.0297852,8.159668,8.0395508,0,3.8100586-2.4599609,8.3393555-5.5195312,10.5595703Zm-4.4697266-16.3793945c-.090332-.0898438-.1503906-.1201172-.1801758-.2402344-3.6000977.7202148-6.75,3.3300781-6.75,7.2299805,0,1.7099609,1.1401367,3.2998047,2.9702148,3.2998047.6298828,0,1.3496094-.449707,1.8295898-.8100586,2.0400391-1.5898438,3.2700195-4.3798828,3.2700195-6.9296875,0-.8999023-.5097656-1.9199219-1.1396484-2.5498047Z"/>
      <path class="cls-2" d="m205.7250977,7.859375c-1.0800781,0-2.1601562.0302734-3.2397461.090332v5.9697266c.4199219-.1499023,2.699707-1.1401367,3.0297852-1.1401367.449707,0,.8696289.3901367.8696289.8398438,0,.3603516-.2397461.6601562-.5698242.8100586-1.0800781.4799805-2.2197266.840332-3.3295898,1.3198242-.0302734,2.0102539,0,9.8999023-.840332,11.5498047-.1499023.2998047-.3896484.4501953-.7197266.4501953-.75,0-2.7597656-2.2202148-2.7597656-2.9404297,0-.449707.3896484-.8398438.8696289-.8398438.300293,0,.5703125.1801758.7202148.4199219.2099609.3300781.4199219.6601562.6899414.9599609.3598633-2.8198242.3300781-6.0595703.3300781-8.9091797-.8999023.4199219-1.800293.8696289-2.6699219,1.3496094-.1801758.0898438-.2700195.1201172-.4501953.1201172-.4799805,0-.8398438-.3300781-.8398438-.8398438,0-.300293.1201172-.5102539.3598633-.6904297.8398438-.5996094,2.6401367-1.3193359,3.6298828-1.7695312v-6.5400391c-1.0200195.090332-2.1298828.1503906-3.0898438.5102539-.1201172.0600586-.2099609.0600586-.3300781.0600586-.4799805,0-.8398438-.3603516-.8398438-.8398438,0-.3603516.2099609-.6000977.5097656-.75.7802734-.3901367,2.8500977-.6000977,3.75-.6601562,0-1.0200195-.0600586-3.0600586.1201172-4.0200195.0898438-.4199219.3598633-.7495117.8100586-.7495117.4799805,0,.8696289.3896484.8398438.8398438v.1201172c-.0600586,1.2294922-.0898438,2.4594727-.0898438,3.6894531,1.0795898-.0600586,2.159668-.0898438,3.2397461-.0898438.449707,0,.8398438.3896484.8398438.8398438s-.3901367.8398438-.8398438.8398438Zm17.8491211,18.4794922c-.8100586.3896484-2.6699219.6899414-3.5698242.6899414-2.5498047,0-9.3295898-3.1499023-11.9692383-4.1098633-.6904297,1.1098633-2.1298828,3.1796875-3.0898438,4.0195312-.2104492.1801758-.3300781.2402344-.6000977.2402344-.4501953,0-.840332-.3300781-.840332-.8100586,0-.2397461.090332-.3901367.2402344-.5698242l1.0200195-1.1396484c1.5297852-1.8603516,2.7900391-4.050293,3.7797852-6.2700195.2099609-.5102539.3901367-1.050293.6298828-1.5898438.1499023-.3300781.4199219-.5698242.8100586-.5698242.4501953,0,.8398438.3896484.8398438.8398438,0,.5996094-1.5600586,3.6894531-1.9199219,4.3798828.3598633.1196289.6899414.2695312,1.0200195.4199219,1.1401367.4799805,2.3100586.9599609,3.4799805,1.409668.0297852-2.9995117.1201172-6.0297852.2099609-9.0297852-1.949707.0605469-3.8999023.300293-5.8496094.300293h-.090332c-.449707,0-.8095703-.3901367-.8095703-.8398438,0-.4799805.2998047-.7802734.7495117-.840332.5400391-.0898438,1.1103516-.0898438,1.6499023-.1196289,1.050293-.0600586,2.1000977-.090332,3.1499023-.1201172,2.8203125-.1201172,5.6098633-.1801758,8.4296875-.1801758.4501953,0,.840332.3901367.840332.8398438,0,.4501953-.3901367.840332-.840332.840332-1.8598633,0-3.6894531.0297852-5.5498047.0898438l-.0898438,3.5400391c1.3500977-.0302734,2.7299805-.0302734,4.0800781-.0302734.6298828,0,1.3798828-.0297852,1.3798828.840332,0,.449707-.3901367.8398438-.840332.8398438h-2.5498047c-.6899414,0-1.409668,0-2.1298828.0297852-.0297852,1.5-.0600586,2.9702148-.0600586,4.4702148,1.050293.3896484,3.8398438,1.4697266,4.9199219,1.4697266.9599609,0,2.0698242-.2402344,2.9697266-.5703125.090332-.0297852.2104492-.0595703.300293-.0595703.449707,0,.8398438.3896484.8398438.8095703,0,.3901367-.2099609.6303711-.5400391.7802734Zm-4.0498047-21.3291016c-.1499023,1.3798828-.2700195,2.7597656-.5097656,4.1098633.1796875.1499023.2998047.3901367.2998047.6298828,0,.4799805-.3901367.8100586-.8398438.8398438-.9902344.0600586-7.5595703.2099609-7.9799805.4199219h-.1499023c-.4199219,0-.7197266-.2700195-.8100586-.659668-.1796875-.75-.1196289-2.0703125-.1196289-2.8203125,0-1.3198242.0297852-2.6396484.0898438-3.9296875.0297852-.5400391,0-1.1396484.0898438-1.6796875.0600586-.4199219.3901367-.75.8100586-.75.7202148,0,.8398438.5400391.8398438,1.0800781,1.6201172-.2099609,3.2700195-.2099609,4.8901367-.2099609.8999023,0,1.9799805-.0605469,2.8798828.0898438.4199219.0600586.7197266.3896484.7197266.8398438,0,.5703125-.1499023,1.4399414-.2099609,2.0400391Zm-3.4199219-1.2900391c-1.6196289,0-3.3295898-.0302734-4.949707.2402344l-.0600586,1.7099609c2.1899414-.2705078,4.5-.3300781,6.6899414-.2402344.0898438-.5703125.1196289-1.1098633.1796875-1.6796875-.6298828-.0302734-1.2299805-.0302734-1.8598633-.0302734Zm.300293,3.3598633c-1.7402344,0-3.5698242.0297852-5.3100586.2700195v.4799805c0,.449707,0,.9301758.0302734,1.409668,2.0698242-.1499023,4.1396484-.2397461,6.2094727-.2998047.1201172-.5996094.1801758-1.2299805.2700195-1.8300781-.3901367,0-.7797852-.0297852-1.199707-.0297852Z"/>
      <path class="cls-2" d="m252.7944336,10.2895508h-.090332c-1.2294922-.0600586-2.4594727-.090332-3.7197266-.090332-1.5898438,0-3.1796875.0302734-4.7695312.0605469-.2099609.8398438-.4799805,1.6796875-.7802734,2.4897461.6899414,0,2.0703125-.1801758,2.0703125.8696289,0,.4501953-.3603516.8701172-.840332.8701172-.659668,0-1.3198242,0-1.9799805-.0302734-.2700195.4804688-.659668,1.3500977-1.3198242,1.3500977-.4799805,0-.8701172-.4199219-.8701172-.8696289,0-.2099609.090332-.4199219.2402344-.5703125-1.5600586-.1201172-4.8896484-.2998047-4.8896484-2.4897461,0-.4199219.0898438-.8398438.1796875-1.2602539-2.159668.1503906-6.1494141.3300781-8.159668,1.0205078-.0898438.0297852-.2099609.0595703-.2998047.0595703-.4501953,0-.8701172-.3598633-.8701172-.8398438,0-.3598633.2402344-.6601562.5703125-.8100586,1.7397461-.7197266,7.2592773-1.0498047,9.2392578-1.1699219l1.050293-2.909668c.1196289-.3300781.449707-.5703125.8095703-.5703125.4799805,0,.8701172.4199219.8701172.8701172,0,.4199219-.6899414,1.9501953-.8701172,2.4902344l4.5-.1801758c.1801758-.8100586.2998047-1.6201172.4199219-2.4301758.0600586-.449707.3598633-.7797852.8398438-.7797852s.8701172.3901367.8701172.8701172c0,.75-.2099609,1.5898438-.3598633,2.3100586,1.5600586-.0605469,3.1196289-.090332,4.6796875-.090332.9902344,0,2.6098633-.0297852,3.5698242.1201172.4199219.0600586.7797852.3901367.7797852.8398438,0,.4799805-.3896484.8999023-.8696289.8701172Zm-.5400391,14.7592773c-3.3598633,0-8.1298828-1.8598633-11.2197266-3.2099609v5.0400391c0,.4799805-.3896484.8398438-.8696289.8398438s-.840332-.3901367-.840332-.8701172v-5.3398438c-1.5898438,1.3798828-3.3598633,2.5800781-5.159668,3.6899414-.8701172.5698242-1.7998047,1.1699219-2.7299805,1.590332-.1196289.0595703-.2700195.0898438-.3896484.0898438-.4501953,0-.8701172-.3901367-.8701172-.8398438,0-.3603516.2099609-.5703125.4799805-.75.4199219-.2705078.8999023-.4804688,1.3198242-.7202148,2.1000977-1.2299805,5.2197266-3.2397461,6.8999023-4.949707-1.6801758.0898438-8.2197266.3300781-9.6298828.8999023-.1196289.0600586-.2397461.0898438-.3896484.0898438-.4501953,0-.840332-.3598633-.840332-.8100586,0-.3896484.1801758-.6298828.4799805-.8095703,1.2001953-.6904297,9.2397461-1.0498047,10.8598633-1.1103516.0297852-.7797852-.1499023-1.9794922.9296875-1.9794922.5102539,0,.8701172.3896484.8701172.8696289s-.0600586.5400391-.0898438,1.050293c3.5395508-.1201172,7.0795898-.1801758,10.6196289-.1801758.449707,0,.8398438.3901367.8398438.8398438,0,.4501953-.3598633.8701172-.8398438.8701172-3.5400391,0-7.1098633.0600586-10.6499023.1801758v.4794922l.090332.0302734c3.1196289,1.0498047,7.8896484,3.2998047,11.1293945,3.2998047.4799805,0,.8701172.3901367.8701172.8701172s-.3901367.8398438-.8701172.8398438Zm-3.7197266-17.3393555c-.1801758.2402344-.3901367.3598633-.6899414.3598633-.4799805,0-.8701172-.3598633-.8701172-.8398438,0-.2099609.0600586-.3598633.1499023-.5097656.4799805-.75.7797852-1.3798828,1.0498047-2.2197266-1.3198242-.0605469-2.6098633-.0605469-3.9296875-.0605469-2.1298828,0-4.2895508.0302734-6.4194336.1503906-1.2900391.0595703-2.6401367.1499023-3.8999023.449707-.1503906.9301758-.300293,1.8598633-.300293,2.7900391,0,.4799805-.3896484.8398438-.8398438.8398438-.5698242,0-.8701172-.4799805-.8701172-1.0200195,0-1.3496094.2402344-2.8496094.5400391-4.1699219.0898438-.4199219.4501953-.659668.8701172-.659668.3300781,0,.5698242.1499023.7197266.449707,1.8300781-.3598633,3.7802734-.4199219,5.6401367-.4794922l.1196289-1.0800781c.0600586-.6000977.0600586-1.4101562.9003906-1.4101562.4794922,0,.8696289.3901367.8696289.8701172,0,.5097656-.1499023,1.0200195-.1499023,1.5595703.75,0,1.5297852-.0297852,2.2797852-.0297852,1.2602539,0,2.4902344.0297852,3.75.0600586.6000977.0302734,1.3500977,0,1.9199219.1499023.4199219.090332.6899414.3901367.6899414.840332,0,.9599609-.9599609,3.1796875-1.5297852,3.9594727Zm-10.7397461,2.7900391c-.1201172.4199219-.2700195.8696289-.2397461,1.3198242v.1201172c.4799805.5698242,3.4194336.7197266,4.0498047.75.3295898-.7802734.5698242-1.5600586.8095703-2.3701172-1.5297852.0302734-3.0898438.1201172-4.6196289.1801758Z"/>
      <path class="cls-2" d="m11.5795898,61.9389648c-1.1699219,1.1699219-3.9296875,2.2197266-5.5795898,2.2197266-2.7001953,0-6-.8999023-6-4.1694336,0-2.6401367,2.0102539-4.8300781,4.0498047-6.2402344-.9897461-2.0698242-1.3496094-5.0097656-1.3496094-7.2895508,0-1.2900391.0898438-3.1796875.5097656-4.3798828.1499023-.3901367.4501953-.659668.8701172-.659668.5097656,0,.8999023.3896484.8999023.8999023,0,.0898438,0,.1499023-.0297852.2397461-.3300781,1.3203125-.4501953,2.6401367-.4501953,3.9599609,0,1.9799805.2700195,4.4697266,1.0800781,6.2695312,1.0800781-.5996094,3.0898438-1.5,4.3198242-1.5.4799805,0,.9296875.3603516.9296875.8701172,0,.5400391-.3295898.8398438-.8398438.9301758-.4799805.0898438-.8999023.1499023-1.3500977.2998047-2.6098633.840332-6.8393555,3.5400391-6.8393555,6.6000977,0,2.0996094,2.6098633,2.3994141,4.199707,2.3994141,1.5600586,0,3.1796875-.8696289,4.3798828-1.7998047.1796875-.1499023.3598633-.2397461.5996094-.2397461.4804688,0,.9003906.4199219.9003906.8999023,0,.2998047-.090332.4799805-.300293.6899414Z"/>
      <path class="cls-2" d="m39.2099609,66.1088867c-.1201172.0600586-.2402344.0898438-.3603516.0898438-.4799805,0-.8999023-.4199219-.8999023-.8999023,0-.3901367.2099609-.6298828.5400391-.8100586.6298828-.3300781,1.2602539-.6298828,1.8901367-1.0498047,2.3999023-1.590332,4.8295898-4.409668,4.8295898-7.4399414,0-2.5195312-1.199707-4.4394531-3.5395508-5.3994141-1.6503906,6.0292969-5.1899414,10.5893555-11.2197266,12.5991211-.8100586.2700195-1.6499023.4204102-2.4897461.4204102-2.5800781,0-4.1098633-1.4702148-4.1098633-4.050293,0-4.949707,4.9194336-9.1791992,9.2695312-10.6196289.0297852-1.9199219.1201172-3.8398438.4199219-5.7294922-1.7397461.1201172-3.5996094.1499023-5.2797852.6298828-.0898438.0302734-.2099609.0302734-.2998047.0302734-.4799805,0-.8701172-.3901367-.8701172-.8701172,0-.4199219.2397461-.6899414.6000977-.8398438,1.0200195-.4501953,4.949707-.6904297,6.1796875-.75.1499023-.75.3300781-1.5898438.659668-2.2802734.1503906-.3300781.4501953-.5400391.840332-.5400391.449707,0,.8696289.3901367.8696289.8701172,0,.2402344-.449707,1.5302734-.5395508,1.8901367,1.8295898-.090332,3.659668-.1201172,5.4897461-.1201172.8398438,0,2.2495117-.0600586,3.0898438.0600586.5097656.0600586.8398438.3896484.8398438.9296875,0,.5102539-.4501953.840332-.9301758.840332-.9296875,0-1.8295898-.0600586-2.7597656-.0600586-2.0097656,0-4.0498047.0600586-6.0595703.1201172-.2700195,1.7695312-.3901367,3.5693359-.4501953,5.3696289.9902344-.2397461,2.0097656-.300293,3.0297852-.300293.8100586,0,1.6201172.0605469,2.3999023.1801758.1503906-.7202148.2402344-1.4399414.3603516-2.159668.0898438-.4501953.4199219-.7802734.8696289-.7802734.4799805,0,.8999023.3901367.8999023.8701172,0,.6298828-.2700195,1.8896484-.3896484,2.5498047,3.1499023,1.1699219,4.8896484,3.8100586,4.8896484,7.1396484,0,4.4399414-3.9599609,8.3999023-7.7695312,10.1098633Zm-1.2001953-16.1396484c-1.0200195,0-2.0996094.0600586-3.0898438.3300781.0302734,1.9799805.1801758,4.5297852.8999023,6.3896484.0600586.1201172.090332.2402344.090332.3598633,0,.5102539-.4204102.8701172-.9003906.8701172-.3896484,0-.6298828-.1796875-.8095703-.5097656-.75-1.3500977-.9902344-5.0097656-1.050293-6.5698242-3.4199219,1.3198242-7.5297852,4.7099609-7.5297852,8.699707,0,1.6201172.75,2.3095703,2.3701172,2.3095703.6298828,0,1.2900391-.1196289,1.9199219-.3295898,5.4897461-1.8598633,8.5795898-5.909668,10.0498047-11.3999023-.6601562-.0898438-1.2900391-.1499023-1.9501953-.1499023Z"/>
      <path class="cls-2" d="m69.8696289,59.269043c-.8999023,2.7299805-3.449707,4.5297852-6.2998047,4.5297852-1.9794922,0-3.659668-1.4399414-3.659668-3.4799805,0-2.909668,3.4199219-3.659668,5.7299805-3.659668.9296875,0,1.8598633.0898438,2.7597656.3300781-.1499023-1.8300781-2.9101562-4.8300781-4.6196289-5.3701172-.4204102-.1499023-.7202148-.4199219-.7202148-.8696289,0-.4501953.2099609-.6601562.5698242-.840332.8701172-.4794922,3.8398438-4.4394531,4.2597656-5.4296875-.5996094-.5996094-2.0097656-.9296875-2.7895508-1.1699219-.4199219-.1201172-.6899414-.4501953-.6899414-.8999023,0-.4799805.3896484-.8696289.8696289-.8696289.090332,0,.1801758,0,.2402344.0297852,1.2900391.2998047,4.199707,1.1699219,4.199707,2.8500977,0,1.3193359-3.1196289,5.0996094-4.1396484,6.1191406,2.0097656,1.3500977,4.6196289,4.0800781,4.6196289,6.6601562,0,.1796875-.0297852.3598633-.0297852.5400391.2099609.1499023.3300781.4199219.3300781.659668,0,.3901367-.2700195.75-.6303711.8701172Zm-4.2597656-.8398438c-1.1396484,0-3.9296875.2998047-3.9296875,1.8896484,0,1.050293.8999023,1.7099609,1.8896484,1.7099609,2.1000977,0,3.8701172-1.2895508,4.5600586-3.2700195-.8100586-.2397461-1.6801758-.3295898-2.5200195-.3295898Z"/>
      <path class="cls-2" d="m105.5693359,51.859375c-.2099609,0-.2998047-.0302734-.4799805-.1201172-.7197266-.2998047-6.9897461-.3598633-8.0092773-.3598633-.6000977,2.2197266-4.0200195,11.5493164-5.25,13.0493164-.1801758.2402344-.4199219.3901367-.7197266.3901367-.4799805,0-.9003906-.4199219-.9003906-.8999023,0-.1801758.0600586-.3300781.1503906-.4799805,1.0498047-1.6801758,1.7695312-3.6000977,2.4897461-5.4301758.8701172-2.1894531,1.7099609-4.3793945,2.3696289-6.6293945h-.3598633c-1.3798828,0-9.5092773.2099609-10.6196289,1.0795898-.2099609.1801758-.3295898.2705078-.6298828.2705078-.5097656,0-.8999023-.3901367-.8999023-.9003906,0-.2695312.0898438-.4199219.2402344-.6298828,1.2597656-1.6499023,11.4594727-1.6499023,13.6191406-1.6499023,1.4399414,0,7.9199219.0600586,9.0898438.4799805.449707.1503906.8100586.4199219.8100586.9599609,0,.4501953-.4204102.8701172-.9003906.8701172Zm-4.409668-6.4794922c-.1499023,0-.2397461-.0605469-.3598633-.090332-.5102539-.1499023-5.0996094-.1801758-5.8496094-.1801758-1.2299805,0-2.4599609.0302734-3.6899414.1201172h-.090332c-.5097656.0302734-.8999023-.4199219-.8999023-.8999023s.3300781-.8100586.7802734-.8999023c1.1396484-.1801758,2.6699219-.1499023,3.8095703-.1499023.6601562,0,1.3500977.0297852,2.0102539.0297852.8999023.0302734,3.7797852.0302734,4.5898438.3300781.1499023.0600586.2998047.1499023.3896484.2700195.1201172.1801758.2099609.3598633.2099609.5698242,0,.5102539-.4199219.9003906-.8999023.9003906Zm3.0600586-1.2602539c-.9599609,0-1.6801758-1.8300781-1.6801758-2.6401367,0-.5400391.3901367-.9296875.9301758-.9296875.4799805,0,.8398438.3896484.8701172.8701172.0595703.8696289.7495117,1.199707.7495117,1.7998047,0,.4799805-.3598633.8999023-.8696289.8999023Zm3.9897461-1.2602539c-1.2597656,0-1.7397461-2.3398438-1.7397461-3.3295898,0-.5102539.3295898-.9599609.8696289-.9599609.5102539,0,.8999023.3598633.9301758.8701172.0297852.4799805.0898438,1.4697266.4799805,1.7998047.2099609.1801758.3598633.4199219.3598633.7202148,0,.5097656-.4199219.8994141-.8999023.8994141Z"/>
      <path class="cls-2" d="m130.7099609,47.3896484c-.2402344.4199219-2.1899414,2.4897461-2.5800781,2.9394531.1499023.1503906.2397461.3901367.2397461.6000977,0,.9902344-.1499023,1.9799805-.2397461,2.9702148-.2402344,2.5195312-.5097656,5.0693359-.5097656,7.6196289,0,.449707.0595703.8999023.0595703,1.3798828s-.3896484.8696289-.8696289.8696289c-1.1401367,0-.9902344-1.5595703-.9902344-2.3095703,0-2.5800781.300293-5.1601562.5400391-7.7099609l.1499023-1.6796875c-.8999023.9599609-5.9394531,6.2998047-6.7797852,6.75-.1499023.0898438-.2700195.1196289-.449707.1196289-.4799805,0-.8999023-.3901367-.8999023-.8999023,0-.3598633.1796875-.5698242.449707-.7802734.6000977-.449707,1.1401367-1.0195312,1.6801758-1.5297852l2.9399414-2.9995117c1.1699219-1.2304688,2.3696289-2.4902344,3.5097656-3.75.75-.8100586,1.5297852-1.6499023,2.2197266-2.5200195.2099609-.2700195.4199219-.449707.75-.449707.5102539,0,.8999023.4199219.8999023.9296875,0,.1801758-.0297852.2998047-.1196289.4501953Z"/>
      <path class="cls-2" d="m152.8500977,51.4692383c-.4799805,0-.7797852-.2998047-.8701172-.75-.1499023-.659668-2.0698242-2.0698242-2.5498047-2.4296875-.9599609-.6899414-2.0097656-1.4101562-3.0898438-1.8901367-.3598633-.1499023-.6298828-.449707-.6298828-.8701172,0-.4794922.449707-.8994141.8999023-.8994141.1201172,0,.2099609.0297852.2998047.0595703.5400391.1801758,1.1103516.5400391,1.5898438.8398438,1.590332.9301758,4.8901367,3.0302734,5.25,4.9199219v.1201172c0,.5400391-.3901367.8999023-.8999023.8999023Zm13.6196289-1.5898438c-1.7099609,1.6499023-18.1494141,12.5693359-19.4995117,12.5693359-.4799805,0-.8999023-.449707-.8999023-.8999023,0-.4199219.2099609-.6601562.5400391-.8398438l.6601562-.3300781c.659668-.3300781,1.3198242-.7197266,1.9794922-1.1098633,2.6699219-1.5898438,5.2797852-3.2700195,7.8896484-4.9799805,2.7900391-1.8598633,5.5200195-3.7197266,8.1601562-5.7597656.1796875-.1499023.3598633-.2099609.5698242-.2099609.5097656,0,.8999023.3901367.8999023.8701172,0,.2998047-.0898438.5097656-.2998047.6899414Z"/>
      <path class="cls-2" d="m189.4799805,51.9492188c-1.2602539,2.5200195-2.4902344,5.0400391-3.6298828,7.5898438-.4799805,1.1098633-.8999023,2.25-1.3500977,3.3598633-.1499023.3598633-.4501953.6000977-.8398438.6000977-.4799805,0-.8999023-.4199219-.8999023-.9003906,0-.0898438.0297852-.2099609.0600586-.2998047,1.199707-3.6298828,3.3295898-7.6796875,5.0395508-11.1591797.7202148-1.4404297,1.5-2.9101562,2.1000977-4.4101562-1.9199219-.4199219-4.4101562-.4199219-6.3598633-.4199219-.2402344,0-.4501953-.0898438-.6298828-.2402344-.7202148,1.0200195-2.9399414,4.4101562-2.9101562,5.6699219v.0600586c.1801758.1801758.2700195.4199219.2700195.659668,0,.4804688-.4199219.8701172-.8999023.8701172-.75,0-1.1401367-.8398438-1.1401367-1.5,0-2.5795898,3.8100586-7.9492188,5.6098633-9.6894531.1801758-.1796875.3901367-.2700195.6298828-.2700195.5102539,0,.9003906.3901367.9003906.8701172,0,.5400391-.9003906,1.3798828-1.2602539,1.7998047,1.1699219,0,6.4799805,0,7.3798828,1.0200195.2099609.2402344.3598633.4501953.3598633.8100586,0,.9301758-2.0097656,4.7397461-2.4296875,5.5795898Z"/>
      <path class="cls-2" d="m223.409668,61.5791016c-.1201172,0-.2402344-.0302734-.3598633-.090332-2.1000977-.9599609-6.0297852-4.3793945-7.5297852-6.1796875-1.5898438,1.5297852-3.2099609,3.0898438-4.6796875,4.7700195-.3603516.3896484-.6899414.7797852-1.0200195,1.199707-.2099609.2402344-.3603516.5102539-.5703125.75-.2099609.2402344-.4199219.3901367-.75.3901367-.4794922,0-.8999023-.4501953-.8999023-.9301758,0-.1796875.0600586-.3598633.1503906-.5097656.659668-1.0200195,1.5898438-2.0102539,2.4296875-2.909668,1.6801758-1.7705078,3.449707-3.4799805,5.2197266-5.1601562,1.2299805-1.1699219,4.949707-4.6196289,5.6699219-5.9394531-1.3500977-.6601562-4.7397461-.8100586-6.2397461-.8100586-1.7099609,0-4.0200195.0898438-5.6098633.7197266-.1201172.0600586-.2397461.090332-.3598633.090332-.4799805,0-.8999023-.4199219-.8999023-.9003906,0-.3896484.2397461-.659668.5698242-.8398438,1.3198242-.6899414,4.8598633-.8701172,6.3598633-.8701172,1.5297852,0,8.0693359.0605469,8.0693359,2.4301758,0,1.3500977-2.6699219,3.8696289-3.5395508,4.7397461l-2.6098633,2.5498047c1.4399414,1.7402344,3.9296875,3.8701172,5.8198242,5.0996094.3896484.2402344.7797852.4501953,1.1699219.6601562.3295898.1801758.5400391.4501953.5400391.8398438,0,.4804688-.4204102.9003906-.9301758.9003906Z"/>
      <path class="cls-2" d="m248.25,63.1088867c-.1503906.1201172-.3603516.1801758-.5400391.1801758-.4799805,0-.8999023-.4199219-.8999023-.9003906,0-.2998047.1196289-.5097656.3598633-.7197266.5097656-.4501953,1.0200195-.8398438,1.5-1.3500977,1.7998047-1.949707,3.3295898-5.0698242,3.3295898-7.7695312,0-3.8999023-2.3095703-6.2397461-6.2695312-6.2700195.5400391.8100586.9897461,2.0102539.9897461,3,0,1.2900391-.2397461,2.5498047-.6899414,3.75-.8999023,2.3701172-3.3598633,5.7900391-6.2094727,5.7900391-2.7900391,0-4.7397461-2.4003906-4.7397461-5.1000977,0-5.699707,5.2197266-9.2094727,10.5292969-9.2094727,5.0097656,0,8.159668,3.0297852,8.159668,8.0395508,0,3.8100586-2.4599609,8.3393555-5.5195312,10.5595703Zm-4.4697266-16.3793945c-.090332-.0898438-.1503906-.1201172-.1801758-.2402344-3.6000977.7202148-6.75,3.3300781-6.75,7.2299805,0,1.7099609,1.1401367,3.2998047,2.9702148,3.2998047.6298828,0,1.3496094-.449707,1.8295898-.8100586,2.0400391-1.5898438,3.2700195-4.3798828,3.2700195-6.9296875,0-.8999023-.5097656-1.9199219-1.1396484-2.5498047Z"/>
      <path class="cls-2" d="m285.9594727,54.1992188c-.8999023,0-1.7700195-.0600586-2.6699219-.0600586-2.3398438,0-4.7094727.0600586-7.0795898.1201172,0,3.5097656.0297852,6.9897461.0297852,10.4995117,0,.5400391-.3598633.9296875-.8999023.9296875s-.8398438-.3598633-.8999023-.8696289c-.0898438-.6000977-.0297852-1.2900391-.0297852-1.8901367v-8.609375c-2.7900391.1201172-5.5800781.2099609-8.3398438.4199219l-2.0698242.2099609h-.1499023c-.5102539,0-.9301758-.3901367-.9301758-.8999023,0-.4799805.3300781-.75.75-.8701172.5102539-.1499023,1.2001953-.1499023,1.7397461-.1801758,1.2602539-.1196289,2.550293-.1796875,3.8100586-.2397461-.5698242-1.1401367-2.0097656-4.7099609-2.0097656-5.909668,0-.5097656.4199219-.8999023.8999023-.8999023s.8100586.2998047.8999023.7495117c.3598633,1.6503906,1.2299805,4.6801758,2.2797852,5.9702148l3.1201172-.1499023c0-3.3901367-.0302734-6.75.0297852-10.1396484-1.5898438.0595703-3.1499023.1201172-4.7397461.2099609-.4799805.0297852-.9897461.1201172-1.5.1201172h-.1201172c-.5097656,0-.8999023-.4204102-.8999023-.9003906s.3300781-.8095703.7802734-.8999023c.9599609-.2099609,3.0297852-.2397461,4.0498047-.2700195,2.8496094-.1201172,5.699707-.2099609,8.5493164-.2099609.75,0,2.1601562-.2099609,2.1601562.9301758,0,1.199707-1.5297852.8696289-2.2797852.8696289-1.4101562,0-2.7900391.0302734-4.2001953.090332-.0297852,2.159668-.0297852,4.2895508-.0297852,6.449707v3.6894531c.8398438,0,1.6796875-.0297852,2.5200195-.0595703,1.409668-1.7099609,2.8798828-4.8598633,3.5097656-6.9897461.1201172-.4199219.3901367-.75.8701172-.75.5097656,0,.8999023.4199219.8999023.9301758,0,1.2294922-2.3398438,5.6694336-3.0600586,6.7792969.8999023-.0297852,1.7700195-.0297852,2.6699219-.0297852.75,0,1.6499023-.0600586,2.3999023.0600586.4501953.0595703.8398438.3896484.8398438.8701172,0,.5097656-.3896484.9296875-.8999023.9296875Z"/>
      <path class="cls-2" d="m313.6796875,63.6489258c-.6000977.0600586-1.2900391,0-1.9199219,0-4.3500977,0-8.7895508.0898438-13.1396484.5698242-.1201172.0898438-.2397461.0898438-.3896484.0898438-.5102539,0-.8100586-.3598633-.9003906-.8095703-.1196289-.5703125-.0898438-1.8603516-.1196289-2.4902344-.0600586-1.8300781-.090332-3.6298828-.090332-5.4594727,0-2.9702148.0600586-5.9702148.1801758-8.9399414.0600586-1.0800781.0898438-2.1298828.1801758-3.2099609,0-.3295898,0-.75.0595703-1.0795898.090332-.4799805.3603516-.840332.9003906-.840332.4799805,0,.8696289.3901367.8696289.8701172,1.1401367-.75,9.8398438-.8398438,11.6098633-.8398438.5698242,0,1.949707-.0302734,2.4897461.0600586.6899414.1499023.8100586.5400391.8100586,1.1699219,0,2.7895508-.090332,5.6098633-.1499023,8.3999023-.0600586,3.5693359-.1503906,7.1694336-.300293,10.7392578.4799805.0302734.8398438.4199219.8398438.8999023,0,.5400391-.449707.8100586-.9296875.8701172Zm-3.1499023-20.3393555c-2.1601562,0-4.3500977.0600586-6.5097656.1801758-1.2900391.0898438-2.6401367.1196289-3.8999023.449707-.0898438.0302734-.1499023.0302734-.2397461.0302734-.2402344,0-.4501953-.0898438-.6303711-.2700195-.1796875,2.8198242-.2397461,5.6098633-.2998047,8.4296875,1.5297852-.300293,3.0898438-.4199219,4.6499023-.5400391,2.2197266-.1499023,4.4995117-.2397461,6.7495117-.2397461.6298828,0,1.2900391,0,1.9199219.0297852.0600586-2.6699219.1503906-5.3696289.1503906-8.0395508-.6303711-.0302734-1.2602539-.0302734-1.8901367-.0302734Zm-.1201172,9.8398438c-2.3999023,0-4.7998047.0898438-7.1694336.2695312-1.4101562.1201172-2.9101562.2104492-4.2900391.5400391v2.1904297c0,2.0693359,0,4.1694336.1201172,6.2392578,4.2597656-.449707,8.609375-.5400391,12.8994141-.5400391.1201172-2.8798828.1801758-5.7895508.2700195-8.6694336-.6000977-.0297852-1.2299805-.0297852-1.8300781-.0297852Z"/>
      <path class="cls-2" d="m325.6201172,56.2988281c-.9599609,1.3500977-1.8598633,2.7304688-2.7895508,4.1103516-.1499023.2397461-.3901367.3896484-.6899414.3896484-.4501953,0-.8100586-.3598633-.8100586-.8095703,0-.1503906.0297852-.300293.1201172-.4204102.3295898-.6000977.75-1.1396484,1.1098633-1.7094727.5698242-.8701172,1.1396484-1.7705078,1.7998047-2.550293.1499023-.1801758.3901367-.2998047.6601562-.2998047.4199219,0,.7797852.3598633.7797852.8100586,0,.1796875-.0898438.3300781-.1801758.4794922Zm6-2.9995117c-.8701172,0-.7197266-1.0800781-.8701172-1.6499023-.7797852.0898438-1.5297852.1499023-2.3095703.2700195-.2700195,4.2299805-.3901367,8.5195312-.3901367,12.7792969,0,.4199219-.3598633.840332-.8100586.840332-.7797852,0-.8100586-.6904297-.8100586-1.2602539,0-4.0498047.1499023-8.1293945.3901367-12.1791992-1.1401367.1494141-2.3100586.2695312-3.449707.5097656-.0600586,0-.090332.0297852-.1499023.0297852-.4501953,0-.8100586-.3901367-.8100586-.8398438,0-.300293.1796875-.5102539.4199219-.6899414,1.5297852-.9902344,3.5698242-2.8798828,4.7998047-4.2299805-1.0200195-.2397461-1.9799805-.3295898-3.0297852-.3295898-.4501953,0-.8100586-.3901367-.8100586-.8105469,0-.2695312.1201172-.449707.2998047-.6298828.9902344-.8999023,2.3701172-3.3295898,3.1201172-4.5292969.1499023-.2402344.3896484-.4204102.6899414-.4204102.449707,0,.8100586.3598633.8100586.8100586,0,.5703125-2.0102539,3.4501953-2.4301758,4.0200195.8100586.0898438,3.449707.449707,3.449707,1.5898438,0,.8398438-2.9697266,3.3896484-3.6293945,3.9897461,1.3798828-.1796875,2.7895508-.3598633,4.1694336-.5097656-.1196289-.3300781-.5097656-.9301758-.5097656-1.2299805,0-.4501953.3901367-.8100586.8100586-.8100586.2998047,0,.5400391.1499023.6899414.3896484.5698242.8105469,1.2299805,3,1.2299805,3.9902344,0,.5400391-.3300781.8999023-.8701172.8999023Zm-.1499023,4.8295898c-.5698242,0-2.1899414-1.409668-2.6098633-1.8300781-.1499023-.1494141-.2402344-.359375-.2402344-.5698242,0-.4799805.3603516-.8100586.8100586-.8100586.2099609,0,.4199219.090332.5698242.2402344.75.6899414,1.050293.8999023,1.8901367,1.4697266.2397461.1503906.3901367.3901367.3901367.6904297,0,.4199219-.3603516.8095703-.8100586.8095703Zm15.809082,7.3198242c-.1196289.300293-.4199219.5102539-.75.5102539-.659668,0-2.0996094-.4501953-2.0996094-1.2602539,0-.4799805.3598633-.8100586.8100586-.8100586.3896484,0,.449707.1801758.75.2700195.3896484-1.7397461.449707-3.6298828.5097656-5.3999023-.8701172,0-1.7397461.0302734-2.6098633.0605469-.0600586,1.1699219-.1201172,2.3095703-.2099609,3.4794922-.0302734.5400391-.0302734,1.1699219-.1499023,1.7099609-.090332.3901367-.3901367.6899414-.8100586.6899414s-.7802734-.3901367-.7802734-.7797852v-.1503906c.2402344-1.5297852.2402344-3.359375.3300781-4.9194336l-1.8896484.0898438c-.0302734,1.5-.0600586,3-.0600586,4.5,0,.4799805-.3300781.8398438-.8100586.8398438-.8100586,0-.8100586-.75-.8100586-1.3500977,0-1.2900391.0302734-2.6098633.0600586-3.8994141-.7797852.0297852-1.5297852.0595703-2.3100586.1494141-.0595703,1.5-.1196289,3-.1196289,4.5,0,.2998047.0297852.6000977.0297852.9003906,0,.4199219-.3598633.7797852-.8100586.7797852-.8696289,0-.8398438-.8999023-.8398438-1.5297852,0-2.4003906.1499023-4.8300781.2402344-7.2597656-.8100586,1.9199219-1.8300781,3.7797852-3.0600586,5.4296875-.2099609.2397461-.3901367.5400391-.6000977.75-.1499023.1796875-.3896484.2695312-.6298828.2695312-.4199219,0-.8100586-.359375-.8100586-.7797852,0-.2099609.090332-.3901367.2099609-.5395508.6298828-.8105469,1.2299805-1.5605469,1.7402344-2.4301758,2.2797852-3.7797852,3.8095703-9.0595703,4.0498047-13.4692383-.2700195.0297852-.5703125.1196289-.840332.1196289-.4199219,0-.7797852-.3901367-.7797852-.8100586,0-.3896484.2700195-.659668.6298828-.7797852.6601562-.2099609,1.6201172-.1801758,2.3398438-.2397461,2.4599609-.1503906,4.9501953-.2099609,7.4399414-.2099609.6601562,0,2.1298828-.2099609,2.0400391.8095703v.1201172c-.1201172,1.7099609-.6303711,3.4199219-1.050293,5.0698242-.0898438.3901367-.3295898.7202148-.7797852.7202148l-.0302734.0297852h-.6298828c-1.4399414,0-2.8798828.0297852-4.3198242.0600586-1.0498047.0297852-2.0996094.0600586-3.1196289.1499023-.1499023.6899414-.3300781,1.3798828-.5400391,2.0698242.1499023.0600586.2998047.1801758.3901367.3300781,1.2299805-.2402344,2.5195312-.2998047,3.7797852-.3901367,1.7099609-.0898438,3.4794922-.1499023,5.2197266-.1499023,2.6396484,0,2.5498047-.1499023,2.5498047,2.4296875,0,2.25-.0600586,8.4599609-.8701172,10.3198242Zm-10.6191406-10.5893555l-.1201172,2.699707c.75-.0898438,1.5-.1201172,2.25-.1499023.0297852-.9301758.0595703-1.8901367.0595703-2.8198242-.7197266.0600586-1.4697266.1196289-2.1894531.2700195Zm.7797852-9.1499023c-.0302734,1.1699219-.1801758,2.3398438-.3901367,3.4799805,2.3701172-.1499023,4.7998047-.1801758,7.1699219-.1801758.2998047-1.1699219.5097656-2.3696289.7197266-3.5395508-2.4897461,0-5.0097656.0898438-7.4995117.2397461Zm3.7797852-3.3295898c-.2099609,0-.4199219-.090332-.5698242-.2402344-.7202148-.6899414-1.5302734-1.2900391-2.3701172-1.8300781-.2397461-.1499023-.3598633-.4199219-.3598633-.6894531,0-.4501953.3300781-.7802734.7797852-.7802734.5703125,0,2.6401367,1.6796875,3.0898438,2.1601562.1499023.1499023.2402344.3598633.2402344.5698242,0,.449707-.3598633.8100586-.8100586.8100586Zm-.75,12.0893555l-.0600586,2.8500977,1.9199219-.090332c.0600586-.9599609.090332-1.8901367.1201172-2.8500977l-1.9799805.090332Zm6.0595703-.1499023h-.449707c-.6601562,0-1.3500977,0-2.0097656.0297852-.0302734.9599609-.0600586,1.8901367-.1201172,2.8500977.8696289-.0302734,1.7099609-.0302734,2.5795898-.0302734,0-.4799805.0302734-.9599609.0302734-1.4697266,0-.4501953,0-.9301758-.0302734-1.3798828Z"/>
    </g>
    <g>
      <path class="cls-1" d="m26.5014648,87.4199219c-.4160156.3486328-.9355469.7333984-1.5605469,1.1533203,1.6757812,1.6269531,2.5146484,3.6166992,2.5146484,5.96875,0,1.2392578-.171875,2.0693359-.5146484,2.4902344-.3154297.3925781-.8740234.5888672-1.6767578.5888672-.359375,0-.7001953-.0166016-1.0205078-.0498047-.1328125-.0107422-.2138672-.0302734-.2412109-.0576172-.0224609-.0283203-.0498047-.1054688-.0830078-.2324219-.0556641-.2275391-.140625-.4267578-.2578125-.5976562.7197266.1044922,1.3037109.1572266,1.7519531.1572266.4316406,0,.7412109-.1435547.9296875-.4316406.2431641-.3652344.3652344-.9931641.3652344-1.8837891,0-.5371094-.046875-1.0185547-.140625-1.4443359-1.0078125.8686523-2.125,1.6132812-3.3535156,2.2324219-1.0244141.5205078-2.2636719,1.0244141-3.71875,1.5107422-.1113281.0390625-.1806641.0585938-.2080078.0585938-.0498047,0-.1162109-.0693359-.1992188-.2080078-.1103516-.1660156-.2568359-.3154297-.4404297-.4482422,1.7773438-.4863281,3.2734375-1.0483398,4.4912109-1.6845703,1.1621094-.6035156,2.2441406-1.355957,3.2451172-2.2578125-.1542969-.5092773-.359375-1.0019531-.6132812-1.4775391-.9853516.6806641-1.9072266,1.2226562-2.7646484,1.6269531-.7695312.3652344-1.7402344.7470703-2.9130859,1.1455078-.1113281.0385742-.1855469.0576172-.2246094.0576172-.0605469,0-.1269531-.0664062-.1992188-.1992188-.0888672-.1601562-.2246094-.2958984-.40625-.40625,1.3945312-.3930664,2.5810547-.824707,3.5605469-1.2949219.8408203-.3984375,1.7041016-.9077148,2.5898438-1.5273438-.3320312-.4760742-.6894531-.8964844-1.0703125-1.2617188-1.0292969.5864258-2.2890625,1.1152344-3.7773438,1.5849609-.0996094.0332031-.1630859.0498047-.1914062.0498047-.0546875,0-.1210938-.0634766-.1992188-.1904297-.0771484-.1162109-.2177734-.2578125-.4228516-.4238281,1.3886719-.3652344,2.5322266-.7578125,3.4287109-1.1787109.7744141-.3652344,1.5185547-.8212891,2.2324219-1.3691406h-1.6855469l-2.3574219.0332031c-.0820312,0-.1240234-.0390625-.1240234-.1162109v-.4980469c0-.0888672.0419922-.1328125.1240234-.1328125l2.3574219.0332031h4.9648438l2.3652344-.0332031c.0771484,0,.1162109.0439453.1162109.1328125v.4980469c0,.0771484-.0390625.1162109-.1162109.1162109l-2.3652344-.0332031h-1.0380859c.3378906,1.4331055.7529297,2.6230469,1.2451172,3.5693359.8408203-.6865234,1.5498047-1.3779297,2.125-2.0751953.1884766-.2324219.3398438-.4594727.4570312-.6806641.3320312.2099609.5644531.3759766.6972656.4980469.0664062.0664062.0996094.1269531.0996094.1826172,0,.0605469-.0615234.1298828-.1835938.2070312-.1376953.0664062-.4003906.2939453-.7880859.6806641-.5810547.5810547-1.2705078,1.1816406-2.0673828,1.8017578,1.0185547,1.7041016,2.5488281,3.1376953,4.5908203,4.2998047-.1992188.1328125-.3652344.2958984-.4980469.4892578-.0771484.1386719-.1386719.2080078-.1826172.2080078-.0332031,0-.0966797-.0361328-.1914062-.1083984-1.8037109-1.2226562-3.1845703-2.6088867-4.1416016-4.1582031-.8193359-1.328125-1.4501953-2.9663086-1.8925781-4.9140625h-.4228516Zm-.8144531-3.2460938v-.2734375c0-.6699219-.0410156-1.1621094-.1240234-1.4775391.3486328.0219727.6416016.0498047.8798828.0830078.1269531.0219727.1914062.0634766.1914062.1240234,0,.0283203-.0332031.1357422-.0996094.3242188-.0556641.1269531-.0839844.4423828-.0839844.9462891v.2734375h4.0761719l2.3828125-.0332031c.0771484,0,.1152344.0390625.1152344.1162109l-.0332031.7470703v.6308594l.0332031,1.7519531c0,.0664062-.0380859.0996094-.1152344.0996094h-.5820312c-.0771484,0-.1152344-.0332031-.1152344-.0996094v-2.515625h-12.0371094v2.515625c0,.0664062-.0380859.0996094-.1152344.0996094h-.5820312c-.0771484,0-.1152344-.0332031-.1152344-.0996094l.0332031-1.7519531v-.5058594l-.0332031-.8720703c0-.0771484.0380859-.1162109.1152344-.1162109l2.3828125.0332031h3.8261719Z"/>
      <path class="cls-1" d="m38.4038086,86.1660156l-.0908203,2.515625h1.7021484l1.078125-.0332031c.0888672,0,.1328125.0439453.1328125.1328125-.0107422.2158203-.0214844.53125-.0332031.9462891-.015625.53125-.0273438.9130859-.0332031,1.1455078-.015625,1.7099609-.140625,3.2236328-.3730469,4.5400391-.1162109.6367188-.3017578,1.0908203-.5566406,1.3613281-.2431641.2602539-.5800781.390625-1.0117188.390625-.2832031,0-.5791016-.0166016-.8886719-.0498047-.1220703-.0117188-.1962891-.0332031-.2246094-.0664062-.0214844-.0332031-.0410156-.1137695-.0576172-.2412109-.0166016-.1879883-.0800781-.3818359-.1904297-.5810547.4423828.1162109.890625.1748047,1.34375.1748047.3105469,0,.5341797-.1606445.6728516-.4814453.0830078-.1938477.1572266-.5258789.2236328-.9960938.2382812-1.5830078.3652344-3.4365234.3828125-5.5615234h-2.2001953c-.0996094,1.9921875-.3154297,3.5605469-.6474609,4.7060547-.3095703,1.0791016-.796875,2.0839844-1.4609375,3.0136719-.0771484.1103516-.1328125.1660156-.1660156.1660156s-.0966797-.0449219-.1914062-.1328125c-.1210938-.1445312-.2841797-.2519531-.4892578-.3242188.9736328-1.1669922,1.6181641-2.6503906,1.9345703-4.4492188.2373047-1.3554688.3701172-3.4140625.3984375-6.1757812l-1.859375.0332031c-.078125,0-.1171875-.0380859-.1171875-.1162109v-.53125c0-.0664062.0390625-.0996094.1171875-.0996094l1.8925781.0332031h1.0703125v-1.203125c0-.8745117-.0410156-1.4697266-.125-1.7851562.3320312.0117188.6289062.0390625.8886719.0830078.1220703.0224609.1826172.0664062.1826172.1328125,0,.0449219-.0332031.1469727-.0996094.3076172-.0556641.1435547-.0830078.5644531-.0830078,1.2617188v1.203125h.4394531l1.8847656-.0332031c.0830078,0,.125.0332031.125.0996094v.53125c0,.078125-.0419922.1162109-.125.1162109l-1.8847656-.0332031h-1.5605469Zm8.3095703,6.0185547c.7197266,1.9643555,2.2109375,3.4609375,4.4736328,4.4902344-.1660156.1660156-.2900391.3242188-.3730469.4736328-.0605469.1269531-.1132812.1904297-.1582031.1904297-.0380859,0-.1044922-.0244141-.1992188-.0742188-2.0361328-1.090332-3.4199219-2.5625-4.1503906-4.4160156-.3261719,1.0678711-.8652344,1.9697266-1.6181641,2.7060547-.6972656.6748047-1.6240234,1.2558594-2.7802734,1.7431641-.1220703.0439453-.1972656.0664062-.2246094.0664062-.0556641,0-.125-.0664062-.2070312-.1992188-.0947266-.1552734-.2246094-.2910156-.390625-.4072266,1.4667969-.53125,2.5732422-1.2060547,3.3203125-2.0253906.625-.6855469,1.0595703-1.5351562,1.3027344-2.5478516h-1.3769531l-2.2421875.0332031c-.0771484,0-.1152344-.0390625-.1152344-.1162109v-.5146484c0-.0776367.0380859-.1162109.1152344-.1162109l2.2421875.0332031h1.5185547c.1054688-.5976562.1572266-1.3037109.1572266-2.1171875,0-.1708984-.0019531-.3398438-.0078125-.5058594h-1.8183594c-.3427734.5532227-.7275391,1.0791016-1.1533203,1.5771484-.0996094.1162109-.1689453.1738281-.2080078.1738281-.0332031,0-.0996094-.0439453-.1992188-.1328125-.09375-.0830078-.2324219-.1572266-.4140625-.2236328.8847656-.8857422,1.5214844-1.8154297,1.9082031-2.7890625.171875-.4262695.2744141-.7832031.3076172-1.0712891.3378906.0830078.5810547.1635742.7304688.2412109.0996094.0498047.1494141.1049805.1494141.1660156,0,.0771484-.0439453.1523438-.1328125.2236328-.0605469.0498047-.1738281.2412109-.3398438.5732422-.0283203.0717773-.125.2709961-.2910156.5976562h3.2949219l1.9589844-.0332031c.078125,0,.1171875.0385742.1171875.1162109v.4980469c0,.0771484-.0390625.1162109-.1171875.1162109l-1.9589844-.0332031h-1.0537109c-.0166016,1.0732422-.0722656,1.9477539-.1660156,2.6230469h1.6269531l2.2666016-.0332031c.0664062,0,.0996094.0385742.0996094.1162109v.5146484c0,.0771484-.0332031.1162109-.0996094.1162109l-2.2666016-.0332031h-1.5273438Zm-2.8056641-7.1972656h4.65625l2.0761719-.0332031c.0820312,0,.1240234.0390625.1240234.1162109v.53125c0,.078125-.0419922.1162109-.1240234.1162109l-2.0761719-.0332031h-4.9804688c-.4199219.8300781-.9404297,1.6162109-1.5605469,2.3574219-.0878906.1054688-.1484375.1582031-.1816406.1582031s-.1025391-.046875-.2080078-.1416016c-.1435547-.1044922-.2958984-.1767578-.4560547-.2158203.7128906-.7744141,1.2802734-1.5546875,1.7011719-2.3408203.2763672-.5253906.5371094-1.1503906.7802734-1.8759766.1435547-.4755859.2158203-.8603516.2158203-1.1533203.2880859.0771484.5566406.1630859.8046875.2568359.0888672.0283203.1328125.0830078.1328125.1660156,0,.0556641-.0439453.1303711-.1328125.2246094-.0771484.0717773-.1738281.2875977-.2900391.6474609-.1494141.4423828-.3095703.8496094-.4814453,1.2197266Z"/>
      <path class="cls-1" d="m55.0141602,86.2822266v-1.8339844c0-.9296875-.046875-1.5717773-.1416016-1.9257812.2880859.0166016.5839844.046875.8886719.0908203.1269531.0166016.1914062.0615234.1914062.1328125,0,.0664062-.0361328.1689453-.1083984.3076172-.0556641.1381836-.0830078.5976562-.0830078,1.3779297v1.8505859h.0830078l1.5107422-.0332031c.0771484,0,.1162109.0390625.1162109.1162109v.4980469c0,.078125-.0390625.1162109-.1162109.1162109l-1.5107422-.0332031h-.0498047c.4755859,1.5888672,1.0878906,2.8808594,1.8339844,3.8769531-.1484375.1269531-.2675781.2900391-.3564453.4892578-.0556641.1113281-.0966797.1660156-.1240234.1660156-.0283203,0-.0722656-.0498047-.1328125-.1494141-.5429688-1.0175781-.9960938-2.1855469-1.3613281-3.5029297.015625,2.2695312.0488281,4.640625.0996094,7.1142578.0107422.5917969.0244141,1.2783203.0410156,2.0585938.0107422.3701172.0166016.5722656.0166016.6054688,0,.0776367-.0419922.1162109-.1240234.1162109h-.6230469c-.0771484,0-.1162109-.0385742-.1162109-.1162109,0-.0053711.0087891-.4921875.0244141-1.4609375.0664062-2.8886719.1083984-5.6025391.125-8.1425781-.4648438,2.1523438-1.1787109,4.0561523-2.1416016,5.7109375-.0605469.0996094-.1083984.1494141-.1416016.1494141-.0380859,0-.0820312-.0498047-.1328125-.1494141-.0996094-.2050781-.2236328-.3515625-.3730469-.4404297,1.1953125-1.8476562,2.0615234-3.9560547,2.5976562-6.3251953h-.5058594l-1.5273438.0332031c-.0830078,0-.125-.0380859-.125-.1162109v-.4980469c0-.0771484.0419922-.1162109.125-.1162109l1.5273438.0332031h.6142578Zm5.1132812,1.8681641v-1.4033203l-1.9677734.0332031c-.0820312,0-.1240234-.0380859-.1240234-.1162109v-.3984375c0-.0771484.0419922-.1162109.1240234-.1162109l1.9677734.0332031v-1.2617188h-.0498047l-2.3652344.0332031c-.078125,0-.1171875-.0439453-.1171875-.1328125v-.3984375c0-.0771484.0390625-.1162109.1171875-.1162109l2.3652344.0332031h.0498047c0-.9238281-.0390625-1.5244141-.1162109-1.8007812.2988281.0166016.5703125.0439453.8134766.0830078.1269531.0166016.1904297.0551758.1904297.1162109,0,.0498047-.0351562.1523438-.1074219.3066406-.0556641.1279297-.0830078.5595703-.0830078,1.2949219h2.5986328c0-.9628906-.0332031-1.5629883-.0996094-1.8007812.28125.0166016.546875.0439453.796875.0830078.1269531.0166016.1904297.0551758.1904297.1162109,0,.0883789-.0361328.1904297-.1083984.3066406-.0546875.1162109-.0820312.5478516-.0820312,1.2949219h.7460938l2.3828125-.0332031c.0664062,0,.0996094.0390625.0996094.1162109v.3984375c0,.0888672-.0332031.1328125-.0996094.1328125l-2.3828125-.0332031h-.7460938v1.2617188h.2568359l2.2744141-.0332031c.0771484,0,.1162109.0390625.1162109.1162109v.3984375c0,.078125-.0390625.1162109-.1162109.1162109l-2.2744141-.0332031h-.2568359v1.4033203h1.0537109l2.3994141-.0332031c.0771484,0,.1152344.0385742.1152344.1162109v.4150391c0,.0771484-.0380859.1162109-.1152344.1162109l-2.3994141-.0332031h-2.7890625v1.3613281h1.5107422l2.2080078-.0419922c.0830078,0,.1240234.0390625.1240234.1162109l-.0332031,1.984375v1.7763672c.4267578-.0058594.8027344-.0136719,1.1289062-.0253906.2167969-.0048828.3271484-.0078125.3320312-.0078125.078125,0,.1171875.0385742.1171875.1162109v.4150391c0,.0771484-.0390625.1162109-.1171875.1162109-.0107422,0-.0712891-.0029297-.1816406-.0087891-.3652344-.0107422-.7919922-.019043-1.2792969-.0244141l.0175781,1.734375c0,.4814453-.1142578.8271484-.3408203,1.0380859-.2158203.1708984-.8271484.2626953-1.8349609.2734375-.1435547,0-.2294922-.0136719-.2568359-.0410156-.0224609-.0224609-.0498047-.0996094-.0830078-.2324219-.0390625-.1611328-.1298828-.3295898-.2734375-.5068359.4140625.0332031.8515625.0498047,1.3105469.0498047.3164062,0,.5234375-.0551758.6230469-.1660156.0830078-.09375.125-.2597656.125-.4980469v-1.6513672h-6.5742188v1.1699219l.0332031,1.9091797c0,.0776367-.0419922.1162109-.125.1162109h-.5390625c-.078125,0-.1171875-.0385742-.1171875-.1162109l.0332031-1.8505859v-1.2285156c-.3476562.0053711-.6582031.0136719-.9296875.0244141-.1816406.0058594-.2763672.0087891-.28125.0087891-.078125,0-.1171875-.0390625-.1171875-.1162109v-.4150391c0-.0776367.0390625-.1162109.1171875-.1162109.015625,0,.0683594.0029297.1572266.0078125.3154297.0117188.6669922.0195312,1.0537109.0253906v-1.8681641l-.0332031-1.8925781c0-.0771484.0390625-.1162109.1171875-.1162109l2.2070312.0419922h1.2207031v-1.3613281h-2.0332031l-2.3828125.0332031c-.0771484,0-.1162109-.0390625-.1162109-.1162109v-.4150391c0-.0776367.0390625-.1162109.1162109-.1162109l2.3828125.0332031h.4560547Zm1.5771484,2.5146484h-2.796875v1.3115234h2.796875v-1.3115234Zm0,1.859375h-2.796875v1.4033203h2.796875v-1.4033203Zm-.8798828-7.6035156v1.2617188h2.5986328v-1.2617188h-2.5986328Zm0,1.8261719v1.4033203h2.5986328v-1.4033203h-2.5986328Zm1.5605469,3.9179688v1.3115234h3.0966797v-1.3115234h-3.0966797Zm0,1.859375v1.4033203h3.0966797v-1.4033203h-3.0966797Z"/>
      <path class="cls-1" d="m80.3061523,92.3671875c.5595703-.8413086,1.0292969-1.7128906,1.4121094-2.6152344.2705078-.6640625.4228516-1.1757812.4560547-1.5351562.2597656.0717773.5087891.1689453.7470703.2900391.1269531.0722656.1914062.1416016.1914062.2080078,0,.0166016-.0615234.1191406-.1835938.3066406-.0664062.0830078-.2041016.3544922-.4140625.8134766-.5429688,1.2451172-1.1650391,2.3740234-1.8681641,3.3867188.4648438,1.0742188.9794922,1.9091797,1.5439453,2.5068359.4541016.4765625.8525391.7138672,1.1953125.7138672.5039062,0,.7861328-.8349609.8466797-2.5068359.1328125.1494141.2880859.2685547.4648438.3574219.1601562.0830078.2412109.1738281.2412109.2734375,0,.0332031-.0029297.078125-.0087891.1328125-.1601562,1.765625-.6640625,2.6484375-1.5107422,2.6484375-1.0683594,0-2.1611328-1.1425781-3.2792969-3.4287109-1.1289062,1.4169922-2.4091797,2.5429688-3.8427734,3.3789062-.0996094.0605469-.1689453.0908203-.2080078.0908203-.0488281,0-.1298828-.0634766-.2402344-.1904297-.0830078-.0996094-.21875-.2080078-.40625-.3242188,1.6152344-.8408203,3.0546875-2.0942383,4.3164062-3.7597656-.7636719-1.8652344-1.2460938-4.1591797-1.4453125-6.8818359h-6.1669922v2.9550781h2.6728516l1.4609375-.0332031c.0888672,0,.1328125.0449219.1328125.1328125l-.0996094,1.7353516c-.0556641,1.1010742-.140625,1.9755859-.2578125,2.6230469-.1767578.9516602-.7216797,1.4277344-1.6347656,1.4277344-.4541016,0-.8330078-.0166016-1.1367188-.0498047-.1171875-.0112305-.1884766-.0332031-.2167969-.0664062-.0214844-.0332031-.046875-.1191406-.0742188-.2578125-.0332031-.2041016-.1054688-.3867188-.2158203-.5478516.6416016.1054688,1.1787109.1582031,1.6103516.1582031.2714844,0,.4726562-.0634766.6054688-.1914062.1503906-.1435547.2607422-.3984375.3320312-.7636719.1113281-.5029297.1972656-1.6601562.2578125-3.4697266h-3.4365234c-.0166016,1.2949219-.0966797,2.390625-.2412109,3.2871094-.2763672,1.7597656-.7685547,3.1875-1.4765625,4.2832031-.078125.1220703-.1308594.1826172-.1582031.1826172-.0390625,0-.0996094-.0498047-.1826172-.1494141-.1162109-.1328125-.2685547-.2402344-.4560547-.3232422.7744141-1.1181641,1.2773438-2.5512695,1.5097656-4.2998047.1503906-1.1181641.2246094-2.418457.2246094-3.9013672l-.0332031-3.3623047c0-.0878906.0390625-.1328125.1162109-.1328125l2.4150391.0332031h4.4003906l-.0332031-.9707031c-.0283203-.8745117-.0722656-1.5302734-.1328125-1.9677734.28125.0166016.5751953.0498047.8789062.0996094.1386719.0224609.2080078.078125.2080078.1660156,0,.0722656-.0224609.1523438-.0664062.2412109-.0722656.1767578-.1083984.5390625-.1083984,1.0869141v.3242188c0,.2490234.0117188.5888672.0332031,1.0205078h2.9472656l2.3740234-.0332031c.0830078,0,.1240234.0449219.1240234.1328125v.5478516c0,.078125-.0410156.1162109-.1240234.1162109l-2.3740234-.0332031h-2.9052734c.1933594,2.3964844.6005859,4.4414062,1.2197266,6.1347656Zm1.0546875-9.4882812c.6035156.3486328,1.1923828.8359375,1.7675781,1.4609375.0332031.0390625.0507812.0693359.0507812.0917969,0,.0332031-.0390625.0883789-.1171875.1660156l-.2070312.2070312c-.09375.0947266-.1582031.1416016-.1914062.1416016-.0273438,0-.0517578-.0195312-.0742188-.0585938-.4589844-.5917969-1.0214844-1.1005859-1.6855469-1.5273438-.0488281-.0332031-.0742188-.0688477-.0742188-.1074219,0-.027832.0195312-.0610352.0585938-.0996094l.2480469-.2158203c.0664062-.0556641.1142578-.0830078.1416016-.0830078.0224609,0,.0498047.0078125.0830078.0244141Z"/>
      <path class="cls-1" d="m89.9526367,85.5849609c.3144531,0,.578125.1162109.7880859.3486328.1826172.1992188.2744141.4375.2744141.7138672,0,.3212891-.1171875.5898438-.3496094.8056641-.1992188.1826172-.4365234.2734375-.7128906.2734375-.3320312,0-.6035156-.1186523-.8144531-.3564453-.1767578-.1992188-.265625-.4404297-.265625-.7226562,0-.3203125.1171875-.5859375.3496094-.796875.1992188-.1767578.4423828-.265625.7304688-.265625Zm0,6.9560547c.3144531,0,.578125.1162109.7880859.3486328.1826172.2050781.2744141.4433594.2744141.7138672,0,.3320312-.1171875.6035156-.3496094.8134766-.1992188.1777344-.4365234.265625-.7128906.265625-.3378906,0-.609375-.1132812-.8144531-.3398438-.1767578-.1992188-.265625-.4453125-.265625-.7392578,0-.3154297.1171875-.578125.3496094-.7880859.1992188-.1826172.4423828-.2744141.7304688-.2744141Z"/>
      <path class="cls-1" d="m102.8764648,89.9345703h4.5742188l2.2988281-.0332031c.0771484,0,.1162109.0390625.1162109.1162109v.5644531c0,.078125-.0390625.1162109-.1162109.1162109l-2.2988281-.0332031h-4.1503906c.7246094,1.6162109,1.7177734,2.9194336,2.9794922,3.9101562,1.0400391.8134766,2.3876953,1.5107422,4.0419922,2.0917969-.1767578.1601562-.3066406.3291016-.3896484.5058594-.0722656.1552734-.1386719.2324219-.1992188.2324219-.0332031,0-.0966797-.0195312-.1904297-.0576172-1.8154297-.7197266-3.2871094-1.6240234-4.4160156-2.7148438-1.0517578-1.0126953-1.8623047-2.2382812-2.4326172-3.6767578-.0556641.2822266-.1240234.53125-.2080078.7470703-.4921875,1.421875-1.328125,2.6337891-2.5058594,3.6357422-.9628906.8188477-2.2138672,1.5380859-3.7519531,2.1582031-.1054688.0439453-.1748047.0664062-.2080078.0664062-.0439453,0-.1103516-.0664062-.1992188-.1992188-.1162109-.1826172-.2744141-.3349609-.4736328-.4570312,3.4375-1.2001953,5.5732422-3.0380859,6.4082031-5.5117188.078125-.2539062.1416016-.4980469.1914062-.7304688h-3.8925781l-2.3164062.0332031c-.0771484,0-.1162109-.0380859-.1162109-.1162109v-.5644531c0-.0771484.0390625-.1162109.1162109-.1162109l2.3164062.0332031h4.0253906c.1269531-.8847656.1914062-1.9892578.1914062-3.3115234h-2.6894531l-2.4326172.0332031c-.0771484,0-.1162109-.0390625-.1162109-.1162109v-.5644531c0-.0776367.0390625-.1162109.1162109-.1162109l2.4326172.0332031h2.6894531v-1.2451172c0-.8027344-.0419922-1.4580078-.125-1.9677734.3378906.0166016.6474609.0498047.9296875.0996094.1494141.0224609.2246094.0751953.2246094.1582031,0,.0166016-.0390625.1298828-.1171875.3398438-.0664062.1826172-.0996094.6337891-.0996094,1.3535156v1.2617188h2.921875l2.4326172-.0332031c.0771484,0,.1162109.0385742.1162109.1162109v.5644531c0,.0771484-.0390625.1162109-.1162109.1162109l-2.4326172-.0332031h-2.921875c0,1.2392578-.0683594,2.34375-.2070312,3.3115234Z"/>
      <path class="cls-1" d="m118.8881836,82.2900391c-1.4658203,1.3056641-2.4902344,2.6396484-3.0703125,4.0009766-.4765625,1.1176758-.7148438,2.390625-.7148438,3.8183594,0,1.6323242.3164062,3.0712891.9472656,4.3164062.5976562,1.1728516,1.5429688,2.3408203,2.8378906,3.5029297l-.3564453.40625c-1.6542969-1.3168945-2.8222656-2.6777344-3.5029297-4.0839844-.5869141-1.2119141-.8798828-2.5922852-.8798828-4.1416016,0-1.7597656.3896484-3.3173828,1.1708984-4.6738281.6914062-1.2060547,1.7617188-2.390625,3.2119141-3.5527344l.3564453.4072266Z"/>
      <path class="cls-1" d="m120.9311523,87.0126953c.2265625-1.1171875.6943359-1.953125,1.4023438-2.5068359.5976562-.4697266,1.3339844-.7050781,2.2080078-.7050781,1.0400391,0,1.8652344.3125,2.4736328.9375.5478516.5595703.8222656,1.2900391.8222656,2.1914062,0,.7255859-.1972656,1.3920898-.5898438,2.0009766-.3710938.5644531-1.0292969,1.2724609-1.9755859,2.125-1.5996094,1.3999023-2.7226562,2.7998047-3.3701172,4.2001953h5.9511719v.9375h-7.0214844v-.8378906c.7021484-1.6826172,1.9277344-3.3232422,3.6767578-4.9228516.9296875-.8681641,1.5410156-1.5576172,1.8349609-2.0664062.2480469-.4316406.3730469-.9101562.3730469-1.4365234,0-.7246094-.2294922-1.2861328-.6894531-1.6845703-.3925781-.3378906-.8935547-.5068359-1.5019531-.5068359-1.3945312,0-2.2353516.8496094-2.5234375,2.5488281l-1.0703125-.2744141Z"/>
      <path class="cls-1" d="m137.3745117,84.0078125v.8554688c-1.1621094,1.859375-2.0332031,3.7382812-2.6142578,5.6357422-.5253906,1.6992188-.8769531,3.5976562-1.0537109,5.6943359h-1.2128906c.2275391-2.3183594.6923828-4.4404297,1.3945312-6.3662109.5703125-1.5771484,1.3642578-3.1933594,2.3828125-4.8476562h-5.9511719v-.9716797h7.0546875Z"/>
      <path class="cls-1" d="m150.7133789,93.4375c.4101562-.6689453.7724609-1.4384766,1.0878906-2.3076172.1103516-.3261719.1884766-.671875.2324219-1.0371094.3046875.0883789.5253906.1689453.6640625.2402344.1386719.0664062.2070312.1279297.2070312.1826172,0,.0722656-.0351562.1416016-.1074219.2080078-.0664062.0664062-.1435547.2128906-.2324219.4394531-.5087891,1.2617188-1.0214844,2.2832031-1.5351562,3.0634766.3759766.8188477.7636719,1.4746094,1.1621094,1.9667969.359375.4428711.6640625.6640625.9121094.6640625.2714844,0,.4824219-.2211914.6308594-.6640625.0947266-.2822266.1972656-.7802734.3076172-1.4941406.0830078.1328125.21875.2631836.4072266.390625.1376953.0996094.2070312.1879883.2070312.265625,0,.0385742-.0058594.1025391-.0166016.1904297-.1435547.7802734-.3232422,1.3115234-.5400391,1.59375-.2373047.3212891-.5917969.4814453-1.0625.4814453-.7851562,0-1.6123047-.9130859-2.4814453-2.7392578-.9130859,1.1513672-1.9892578,2.0341797-3.2294922,2.6484375-.1103516.0546875-.1816406.0830078-.2148438.0830078-.0507812,0-.125-.0556641-.2246094-.1660156-.1162109-.1279297-.2578125-.2324219-.4238281-.3154297,1.5-.6474609,2.7509766-1.640625,3.7519531-2.9804688-.5585938-1.3115234-.9208984-3.0429688-1.0869141-5.1962891h-7.2714844v1.6357422c0,.4921875-.0302734,1.1123047-.0908203,1.859375-.0556641.7578125-.1220703,1.2978516-.1992188,1.6181641-.3164062,1.3447266-.828125,2.4960938-1.5361328,3.453125-.0771484.0996094-.1386719.1494141-.1826172.1494141-.0390625,0-.1074219-.0439453-.2070312-.1328125-.1328125-.1381836-.2851562-.2353516-.4570312-.2900391.7636719-.8300781,1.2978516-1.8789062,1.6015625-3.1464844.2167969-.9296875.3242188-2.2382812.3242188-3.9257812l-.0332031-1.8183594c0-.0771484.0390625-.1162109.1162109-.1162109l2.4326172.0332031h5.453125l-.0166016-.5478516c-.0224609-.3984375-.0556641-.7246094-.0996094-.9794922.2714844.0117188.5087891.0332031.7138672.0664062.1494141.0224609.2246094.0722656.2246094.1494141,0,.0449219-.0253906.125-.0751953.2412109-.0224609.0664062-.0332031.1689453-.0332031.3066406v.2158203l.0166016.5478516h1.6347656l2.390625-.0332031c.0839844,0,.125.0390625.125.1162109v.5146484c0,.078125-.0410156.1162109-.125.1162109l-2.390625-.0332031h-1.6015625c.1162109,1.7431641.40625,3.2373047.8710938,4.4824219Zm-3.7929688-7.4785156v-1.8349609c0-.9130859-.0410156-1.5019531-.125-1.7675781.4042969.0166016.7001953.0439453.8886719.0830078.1269531.0166016.1914062.0605469.1914062.1328125,0,.0664062-.03125.1464844-.0917969.2402344-.0664062.1220703-.0996094.4570312-.0996094,1.0048828h2.6152344l2.2070312-.0332031c.0839844,0,.125.0385742.125.1162109v.4814453c0,.0771484-.0410156.1162109-.125.1162109l-2.2070312-.0332031h-2.6152344v1.4941406h4.25l2.2744141-.0332031c.0771484,0,.1162109.0385742.1162109.1162109v.4980469c0,.0771484-.0390625.1162109-.1162109.1162109l-2.2744141-.0332031h-9.6621094l-2.2910156.0332031c-.0771484,0-.1162109-.0390625-.1162109-.1162109v-.4980469c0-.0776367.0390625-.1162109.1162109-.1162109l2.2910156.0332031h.8554688v-.9296875c0-.9023438-.0390625-1.4941406-.1171875-1.7763672.2441406.0166016.5429688.046875.8964844.0908203.1171875.0166016.1748047.0615234.1748047.1328125,0,.0664062-.0302734.1469727-.0908203.2412109-.0664062.1494141-.0996094.5864258-.0996094,1.3115234v.9296875h3.0292969Zm-5.1875,9.7617188c.6357422-.703125,1.1230469-1.5439453,1.4609375-2.5234375.0771484-.2324219.1269531-.5039062.1484375-.8134766.3046875.0771484.53125.1464844.6816406.2070312.1044922.0390625.1572266.0888672.1572266.1494141,0,.0664062-.0361328.1357422-.1083984.2080078-.0380859.0385742-.1044922.1796875-.1992188.4228516-.4033203.9912109-.8457031,1.8071289-1.328125,2.4492188-.0820312.121582-.1464844.1826172-.1904297.1826172-.0390625,0-.1103516-.0390625-.2158203-.1162109-.1162109-.0830078-.2519531-.1386719-.40625-.1660156Zm3.6015625-4.5908203h-.8378906l-1.7519531.0332031c-.0771484,0-.1152344-.0380859-.1152344-.1162109v-.4814453c0-.0771484.0380859-.1162109.1152344-.1162109l1.7519531.0332031h2.0419922l1.7841797-.0332031c.078125,0,.1171875.0390625.1171875.1162109v.4814453c0,.078125-.0390625.1162109-.1171875.1162109l-1.7841797-.0332031h-.5068359v2.2744141l.0253906,2.2080078c0,.5869141-.140625.9658203-.4238281,1.1376953-.1601562.1044922-.359375.168457-.5976562.1904297-.1044922.0112305-.3457031.0166016-.7216797.0166016-.1386719,0-.2216797-.0136719-.2490234-.0410156-.0332031-.0224609-.0634766-.0947266-.0917969-.2158203-.0712891-.2050781-.1630859-.3789062-.2734375-.5234375.3544922.0449219.6533203.0664062.8964844.0664062.3154297,0,.5205078-.0522461.6142578-.1572266.0830078-.0888672.1240234-.2578125.1240234-.5068359v-4.4492188Zm1.7851562,1.5605469c-.0166016-.0273438-.0253906-.0522461-.0253906-.0742188,0-.0444336.0419922-.0800781.125-.1083984l.2246094-.0908203c.0820312-.027832.1328125-.0419922.1484375-.0419922.0332031,0,.0693359.0253906.1083984.0751953.3046875.4482422.6416016,1.1064453,1.0126953,1.9755859.0058594.0273438.0078125.046875.0078125.0576172,0,.0390625-.0634766.0947266-.1904297.1660156l-.1904297.0830078c-.1054688.0556641-.171875.0830078-.1992188.0830078-.0283203,0-.0507812-.0332031-.0664062-.0996094-.25-.7578125-.5673828-1.4326172-.9550781-2.0253906Zm4.3330078-5.84375c.3046875.2050781.6748047.5146484,1.1123047.9296875.0273438.0283203.0410156.0527344.0410156.0751953,0,.0385742-.0380859.09375-.1152344.1660156l-.1660156.1494141c-.0615234.0605469-.1083984.0908203-.1416016.0908203-.0273438,0-.0605469-.0214844-.0996094-.0664062-.265625-.2929688-.6220703-.6166992-1.0712891-.9707031-.0332031-.0332031-.0488281-.0585938-.0488281-.0751953,0-.0273438.0332031-.0712891.0996094-.1328125l.1738281-.1328125c.0605469-.0546875.1054688-.0830078.1328125-.0830078.0224609,0,.0498047.0166016.0830078.0498047Z"/>
      <path class="cls-1" d="m156.4331055,82.2900391l.3564453-.4072266c1.6552734,1.3173828,2.8222656,2.6787109,3.5039062,4.0839844.5859375,1.2119141.8789062,2.5927734.8789062,4.1425781,0,1.7651367-.3867188,3.3232422-1.1621094,4.6728516-.6914062,1.2119141-1.7646484,2.3964844-3.2207031,3.5527344l-.3564453-.40625c1.4716797-1.3173828,2.4960938-2.6533203,3.0712891-4.0097656.4755859-1.1123047.7138672-2.3818359.7138672-3.8095703,0-1.6328125-.3154297-3.0742188-.9462891-4.3251953-.5976562-1.1787109-1.5439453-2.3432617-2.8388672-3.4941406Z"/>
      <path class="cls-1" d="m168.3696289,88.7646484c.3925781,0,.7226562.1464844.9882812.4394531.2265625.2548828.3398438.5507812.3398438.8886719,0,.3925781-.1464844.7246094-.4394531.9960938-.2548828.2324219-.5507812.3486328-.8886719.3486328-.3925781,0-.7246094-.1494141-.9960938-.4482422-.2324219-.2602539-.3486328-.559082-.3486328-.8964844,0-.3930664.1494141-.7226562.4482422-.9882812.2548828-.2265625.5537109-.3398438.8964844-.3398438Z"/>
      <path class="cls-1" d="m180.6625977,88.0507812v-1.4111328h-2.5566406l-2.40625.0332031c-.0839844,0-.125-.0390625-.125-.1162109v-.4814453c0-.0776367.0410156-.1162109.125-.1162109l2.40625.0332031h2.5566406v-1.2871094h-4l-2.3417969.0332031c-.0820312,0-.1240234-.0380859-.1240234-.1162109v-.5146484c0-.0664062.0419922-.0996094.1240234-.0996094l2.3417969.0332031h4v-.0664062c0-.71875-.0351562-1.2421875-.1074219-1.5683594.3427734.0166016.6279297.0385742.8554688.0664062.1210938.0219727.1816406.0693359.1816406.140625,0,.0498047-.0214844.1279297-.0664062.2324219-.0771484.2109375-.1152344.5869141-.1152344,1.1289062v.0664062h4.0253906l2.3652344-.0332031c.078125,0,.1171875.0332031.1171875.0996094v.5146484c0,.078125-.0390625.1162109-.1171875.1162109l-2.3652344-.0332031h-4.0253906v1.2871094h2.3818359l2.5322266-.0332031c.0771484,0,.1152344.0385742.1152344.1162109l-.0332031,1.5019531v.4736328h.1171875l1.875-.0332031c.078125,0,.1171875.0385742.1171875.1162109v.4814453c0,.0771484-.0390625.1162109-.1171875.1162109l-1.875-.0332031h-.1171875v.5390625l.0332031,1.5195312c0,.0771484-.0380859.1162109-.1152344.1162109l-2.5322266-.0332031h-3.8427734c.2871094.0664062.5136719.1357422.6796875.2070312.0996094.0390625.1503906.0947266.1503906.1660156,0,.0556641-.0507812.1191406-.1503906.1914062-.0712891.0385742-.2539062.2519531-.546875.6386719l-.1660156.2246094h6.1171875l2.2578125-.0332031c.0830078,0,.125.0385742.125.1162109v.4980469c0,.0771484-.0419922.1162109-.125.1162109l-2.2578125-.0332031h-1.3447266c-.5478516.9350586-1.1982422,1.7236328-1.9501953,2.3652344,1.5048828.4150391,3.0214844.9130859,4.5488281,1.4941406.0712891.0166016.1074219.0444336.1074219.0830078,0,.0332031-.0302734.0917969-.0917969.1748047l-.1816406.2490234c-.0996094.1435547-.1689453.2158203-.2080078.2158203-.0224609,0-.0556641-.0087891-.0996094-.0253906-1.8154297-.7246094-3.4199219-1.2807617-4.8144531-1.6679688-.9189453.5976562-2.0498047,1.0483398-3.3955078,1.3525391-.9677734.2216797-2.1738281.3930664-3.6191406.5146484-.0771484.0058594-.1210938.0087891-.1328125.0087891-.0878906,0-.1630859-.0693359-.2236328-.2080078-.0888672-.2045898-.1962891-.3623047-.3232422-.4726562,2.8828125-.1494141,5.1152344-.6337891,6.6982422-1.453125-.7246094-.1767578-1.8261719-.4150391-3.3037109-.7138672-.2490234.2490234-.4511719.4433594-.6054688.5810547-.0390625.0390625-.0859375.0585938-.1416016.0585938-.0498047,0-.1162109-.0195312-.1992188-.0585938l-.2412109-.0996094c-.1269531-.0605469-.1904297-.1103516-.1904297-.1494141,0-.0214844.0166016-.046875.0498047-.0742188.1933594-.1494141.4257812-.3544922.6972656-.6142578.4980469-.4760742.9765625-.9960938,1.4355469-1.5605469h-2.2988281l-2.2578125.0332031c-.0830078,0-.125-.0390625-.125-.1162109v-.4980469c0-.0776367.0419922-.1162109.125-.1162109l2.2578125.0332031h2.8056641l.2568359-.3408203c.265625-.359375.4677734-.7216797.6064453-1.0869141h-1.8505859l-2.3574219.0332031c-.0839844,0-.125-.0390625-.125-.1162109v-.4648438c0-.0776367.0410156-.1162109.125-.1162109l2.3574219.0332031h2.6386719v-1.5107422h-4.5732422l-2.2822266.0332031c-.078125,0-.1171875-.0390625-.1171875-.1162109v-.4814453c0-.0776367.0390625-.1162109.1171875-.1162109l2.2822266.0332031h4.5732422Zm-2.4482422,6.2753906c1.3837891.2324219,2.5898438.4814453,3.6191406.7470703.8193359-.5644531,1.4882812-1.2783203,2.0087891-2.1416016h-4.4414062c-.3984375.4868164-.7939453.9516602-1.1865234,1.3945312Zm7.4287109-6.2753906v-1.4111328h-4.2324219v1.4111328h4.2324219Zm0,.6474609h-4.2324219v1.5107422h4.2324219v-1.5107422Z"/>
      <path class="cls-1" d="m197.2973633,82.2900391c-1.4658203,1.3056641-2.4902344,2.6396484-3.0703125,4.0009766-.4765625,1.1176758-.7148438,2.390625-.7148438,3.8183594,0,1.6323242.3164062,3.0712891.9472656,4.3164062.5976562,1.1728516,1.5429688,2.3408203,2.8378906,3.5029297l-.3564453.40625c-1.6542969-1.3168945-2.8222656-2.6777344-3.5029297-4.0839844-.5869141-1.2119141-.8798828-2.5922852-.8798828-4.1416016,0-1.7597656.3896484-3.3173828,1.1708984-4.6738281.6914062-1.2060547,1.7617188-2.390625,3.2119141-3.5527344l.3564453.4072266Z"/>
      <path class="cls-1" d="m199.340332,87.0126953c.2265625-1.1171875.6943359-1.953125,1.4023438-2.5068359.5976562-.4697266,1.3339844-.7050781,2.2080078-.7050781,1.0400391,0,1.8652344.3125,2.4736328.9375.5478516.5595703.8222656,1.2900391.8222656,2.1914062,0,.7255859-.1972656,1.3920898-.5898438,2.0009766-.3710938.5644531-1.0292969,1.2724609-1.9755859,2.125-1.5996094,1.3999023-2.7226562,2.7998047-3.3701172,4.2001953h5.9511719v.9375h-7.0214844v-.8378906c.7021484-1.6826172,1.9277344-3.3232422,3.6767578-4.9228516.9296875-.8681641,1.5410156-1.5576172,1.8349609-2.0664062.2480469-.4316406.3730469-.9101562.3730469-1.4365234,0-.7246094-.2294922-1.2861328-.6894531-1.6845703-.3925781-.3378906-.8935547-.5068359-1.5019531-.5068359-1.3945312,0-2.2353516.8496094-2.5234375,2.5488281l-1.0703125-.2744141Z"/>
      <path class="cls-1" d="m215.6499023,85.3945312l-1.0205078.4980469c-.3486328-.7802734-.9433594-1.1708984-1.7841797-1.1708984-1.9042969,0-2.8886719,1.8515625-2.9550781,5.5537109.7685547-1.234375,1.7314453-1.8515625,2.8886719-1.8515625.984375,0,1.7705078.3935547,2.3574219,1.1787109.5136719.6923828.7714844,1.574707.7714844,2.6484375,0,1.3613281-.3681641,2.4267578-1.1035156,3.1953125-.6152344.6474609-1.3867188.9716797-2.3164062.9716797-1.1787109,0-2.0917969-.5283203-2.7392578-1.5859375-.6083984-.984375-.9130859-2.3544922-.9130859-4.1083984,0-2.4902344.4121094-4.3193359,1.2363281-5.4873047.6816406-.9570312,1.6162109-1.4355469,2.8066406-1.4355469,1.2724609,0,2.1962891.53125,2.7714844,1.59375Zm-5.7265625,5.9511719c.0107422,1.4667969.2900391,2.5595703.8378906,3.2792969.4423828.5810547,1.0185547.8710938,1.7265625.8710938.7695312,0,1.3583984-.3154297,1.7675781-.9462891.3652344-.5585938.5488281-1.3193359.5488281-2.2822266,0-.96875-.2246094-1.7128906-.6728516-2.2333984-.3876953-.4482422-.8935547-.671875-1.5185547-.671875-1.0625,0-1.9589844.6611328-2.6894531,1.9833984Z"/>
      <path class="cls-1" d="m229.1225586,93.4375c.4101562-.6689453.7724609-1.4384766,1.0878906-2.3076172.1103516-.3261719.1884766-.671875.2324219-1.0371094.3046875.0883789.5253906.1689453.6640625.2402344.1386719.0664062.2070312.1279297.2070312.1826172,0,.0722656-.0351562.1416016-.1074219.2080078-.0664062.0664062-.1435547.2128906-.2324219.4394531-.5087891,1.2617188-1.0214844,2.2832031-1.5351562,3.0634766.3759766.8188477.7636719,1.4746094,1.1621094,1.9667969.359375.4428711.6640625.6640625.9121094.6640625.2714844,0,.4824219-.2211914.6308594-.6640625.0947266-.2822266.1972656-.7802734.3076172-1.4941406.0830078.1328125.21875.2631836.4072266.390625.1376953.0996094.2070312.1879883.2070312.265625,0,.0385742-.0058594.1025391-.0166016.1904297-.1435547.7802734-.3232422,1.3115234-.5400391,1.59375-.2373047.3212891-.5917969.4814453-1.0625.4814453-.7851562,0-1.6123047-.9130859-2.4814453-2.7392578-.9130859,1.1513672-1.9892578,2.0341797-3.2294922,2.6484375-.1103516.0546875-.1816406.0830078-.2148438.0830078-.0507812,0-.125-.0556641-.2246094-.1660156-.1162109-.1279297-.2578125-.2324219-.4238281-.3154297,1.5-.6474609,2.7509766-1.640625,3.7519531-2.9804688-.5585938-1.3115234-.9208984-3.0429688-1.0869141-5.1962891h-7.2714844v1.6357422c0,.4921875-.0302734,1.1123047-.0908203,1.859375-.0556641.7578125-.1220703,1.2978516-.1992188,1.6181641-.3164062,1.3447266-.828125,2.4960938-1.5361328,3.453125-.0771484.0996094-.1386719.1494141-.1826172.1494141-.0390625,0-.1074219-.0439453-.2070312-.1328125-.1328125-.1381836-.2851562-.2353516-.4570312-.2900391.7636719-.8300781,1.2978516-1.8789062,1.6015625-3.1464844.2167969-.9296875.3242188-2.2382812.3242188-3.9257812l-.0332031-1.8183594c0-.0771484.0390625-.1162109.1162109-.1162109l2.4326172.0332031h5.453125l-.0166016-.5478516c-.0224609-.3984375-.0556641-.7246094-.0996094-.9794922.2714844.0117188.5087891.0332031.7138672.0664062.1494141.0224609.2246094.0722656.2246094.1494141,0,.0449219-.0253906.125-.0751953.2412109-.0224609.0664062-.0332031.1689453-.0332031.3066406v.2158203l.0166016.5478516h1.6347656l2.390625-.0332031c.0839844,0,.125.0390625.125.1162109v.5146484c0,.078125-.0410156.1162109-.125.1162109l-2.390625-.0332031h-1.6015625c.1162109,1.7431641.40625,3.2373047.8710938,4.4824219Zm-3.7929688-7.4785156v-1.8349609c0-.9130859-.0410156-1.5019531-.125-1.7675781.4042969.0166016.7001953.0439453.8886719.0830078.1269531.0166016.1914062.0605469.1914062.1328125,0,.0664062-.03125.1464844-.0917969.2402344-.0664062.1220703-.0996094.4570312-.0996094,1.0048828h2.6152344l2.2070312-.0332031c.0839844,0,.125.0385742.125.1162109v.4814453c0,.0771484-.0410156.1162109-.125.1162109l-2.2070312-.0332031h-2.6152344v1.4941406h4.25l2.2744141-.0332031c.0771484,0,.1162109.0385742.1162109.1162109v.4980469c0,.0771484-.0390625.1162109-.1162109.1162109l-2.2744141-.0332031h-9.6621094l-2.2910156.0332031c-.0771484,0-.1162109-.0390625-.1162109-.1162109v-.4980469c0-.0776367.0390625-.1162109.1162109-.1162109l2.2910156.0332031h.8554688v-.9296875c0-.9023438-.0390625-1.4941406-.1171875-1.7763672.2441406.0166016.5429688.046875.8964844.0908203.1171875.0166016.1748047.0615234.1748047.1328125,0,.0664062-.0302734.1469727-.0908203.2412109-.0664062.1494141-.0996094.5864258-.0996094,1.3115234v.9296875h3.0292969Zm-5.1875,9.7617188c.6357422-.703125,1.1230469-1.5439453,1.4609375-2.5234375.0771484-.2324219.1269531-.5039062.1484375-.8134766.3046875.0771484.53125.1464844.6816406.2070312.1044922.0390625.1572266.0888672.1572266.1494141,0,.0664062-.0361328.1357422-.1083984.2080078-.0380859.0385742-.1044922.1796875-.1992188.4228516-.4033203.9912109-.8457031,1.8071289-1.328125,2.4492188-.0820312.121582-.1464844.1826172-.1904297.1826172-.0390625,0-.1103516-.0390625-.2158203-.1162109-.1162109-.0830078-.2519531-.1386719-.40625-.1660156Zm3.6015625-4.5908203h-.8378906l-1.7519531.0332031c-.0771484,0-.1152344-.0380859-.1152344-.1162109v-.4814453c0-.0771484.0380859-.1162109.1152344-.1162109l1.7519531.0332031h2.0419922l1.7841797-.0332031c.078125,0,.1171875.0390625.1171875.1162109v.4814453c0,.078125-.0390625.1162109-.1171875.1162109l-1.7841797-.0332031h-.5068359v2.2744141l.0253906,2.2080078c0,.5869141-.140625.9658203-.4238281,1.1376953-.1601562.1044922-.359375.168457-.5976562.1904297-.1044922.0112305-.3457031.0166016-.7216797.0166016-.1386719,0-.2216797-.0136719-.2490234-.0410156-.0332031-.0224609-.0634766-.0947266-.0917969-.2158203-.0712891-.2050781-.1630859-.3789062-.2734375-.5234375.3544922.0449219.6533203.0664062.8964844.0664062.3154297,0,.5205078-.0522461.6142578-.1572266.0830078-.0888672.1240234-.2578125.1240234-.5068359v-4.4492188Zm1.7851562,1.5605469c-.0166016-.0273438-.0253906-.0522461-.0253906-.0742188,0-.0444336.0419922-.0800781.125-.1083984l.2246094-.0908203c.0820312-.027832.1328125-.0419922.1484375-.0419922.0332031,0,.0693359.0253906.1083984.0751953.3046875.4482422.6416016,1.1064453,1.0126953,1.9755859.0058594.0273438.0078125.046875.0078125.0576172,0,.0390625-.0634766.0947266-.1904297.1660156l-.1904297.0830078c-.1054688.0556641-.171875.0830078-.1992188.0830078-.0283203,0-.0507812-.0332031-.0664062-.0996094-.25-.7578125-.5673828-1.4326172-.9550781-2.0253906Zm4.3330078-5.84375c.3046875.2050781.6748047.5146484,1.1123047.9296875.0273438.0283203.0410156.0527344.0410156.0751953,0,.0385742-.0380859.09375-.1152344.1660156l-.1660156.1494141c-.0615234.0605469-.1083984.0908203-.1416016.0908203-.0273438,0-.0605469-.0214844-.0996094-.0664062-.265625-.2929688-.6220703-.6166992-1.0712891-.9707031-.0332031-.0332031-.0488281-.0585938-.0488281-.0751953,0-.0273438.0332031-.0712891.0996094-.1328125l.1738281-.1328125c.0605469-.0546875.1054688-.0830078.1328125-.0830078.0224609,0,.0498047.0166016.0830078.0498047Z"/>
      <path class="cls-1" d="m234.8422852,82.2900391l.3564453-.4072266c1.6552734,1.3173828,2.8222656,2.6787109,3.5039062,4.0839844.5859375,1.2119141.8789062,2.5927734.8789062,4.1425781,0,1.7651367-.3867188,3.3232422-1.1621094,4.6728516-.6914062,1.2119141-1.7646484,2.3964844-3.2207031,3.5527344l-.3564453-.40625c1.4716797-1.3173828,2.4960938-2.6533203,3.0712891-4.0097656.4755859-1.1123047.7138672-2.3818359.7138672-3.8095703,0-1.6328125-.3154297-3.0742188-.9462891-4.3251953-.5976562-1.1787109-1.5439453-2.3432617-2.8388672-3.4941406Z"/>
      <path class="cls-1" d="m246.7788086,88.7646484c.3925781,0,.7226562.1464844.9882812.4394531.2265625.2548828.3398438.5507812.3398438.8886719,0,.3925781-.1464844.7246094-.4394531.9960938-.2548828.2324219-.5507812.3486328-.8886719.3486328-.3925781,0-.7246094-.1494141-.9960938-.4482422-.2324219-.2602539-.3486328-.559082-.3486328-.8964844,0-.3930664.1494141-.7226562.4482422-.9882812.2548828-.2265625.5537109-.3398438.8964844-.3398438Z"/>
      <path class="cls-1" d="m252.190918,91.3125c.4257812-.2265625.9453125-.6552734,1.5605469-1.2861328.6972656-.6806641,1.5820312-1.5771484,2.65625-2.6894531.28125-.2822266.5527344-.4238281.8125-.4238281.2988281,0,.6005859.1303711.9052734.390625,2.1083984,1.8261719,4.7148438,3.6962891,7.8193359,5.6113281.0771484.0498047.1162109.1025391.1162109.1572266,0,.0283203-.0107422.0664062-.0332031.1162109-.1269531.2773438-.2568359.4956055-.3896484.65625-.0332031.0551758-.0693359.0830078-.1083984.0830078-.0332031,0-.0830078-.0195312-.1494141-.0585938-2.9990234-2.0302734-5.5644531-3.9511719-7.6953125-5.7607422-.1601562-.1376953-.2988281-.2070312-.4140625-.2070312-.1220703,0-.2353516.0498047-.3408203.1494141-.8408203.8408203-1.7929688,1.8339844-2.8554688,2.9794922-.2265625.2382812-.4648438.5566406-.7138672.9550781-.0605469.0771484-.125.1162109-.1914062.1162109-.0488281,0-.0996094-.0166016-.1484375-.0498047-.3105469-.2490234-.5869141-.4951172-.8300781-.7392578Zm11.0976562-6.6816406c.4921875,0,.8994141.1796875,1.2207031.5390625.2763672.3154297.4140625.6865234.4140625,1.1123047,0,.4931641-.1767578.9023438-.53125,1.2285156-.3095703.2822266-.6777344.4238281-1.1035156.4238281-.4921875,0-.9023438-.1796875-1.2285156-.5400391-.2880859-.3154297-.4316406-.6855469-.4316406-1.1123047,0-.4921875.1826172-.9013672.5478516-1.2285156.3154297-.2822266.6865234-.4228516,1.1123047-.4228516Zm0,.5976562c-.3154297,0-.578125.1132812-.7890625.3398438-.1816406.1992188-.2734375.4375-.2734375.7138672,0,.3212891.1162109.5869141.3486328.796875.2050781.1826172.4423828.2744141.7138672.2744141.3154297,0,.5751953-.1162109.7802734-.3486328.171875-.2050781.2568359-.4453125.2568359-.7226562,0-.3203125-.1103516-.5834961-.3320312-.7880859-.1933594-.1772461-.4287109-.265625-.7050781-.265625Z"/>
      <path class="cls-1" d="m268.8754883,88.6318359c.4208984-.2490234.6367188-.3740234.6474609-.3740234.0332031-.0166016.0634766-.0244141.0917969-.0244141.0439453,0,.0966797.0361328.1572266.1074219.5146484.6591797.96875,1.4277344,1.3613281,2.3076172.0224609.0615234.0332031.1025391.0332031.125,0,.0385742-.0332031.0771484-.0996094.1162109-.1826172.121582-.3710938.21875-.5644531.2900391-.0273438.0117188-.0527344.0166016-.0751953.0166016-.0546875,0-.1015625-.0410156-.140625-.1240234-.4316406-1.0185547-.9023438-1.8320312-1.4111328-2.4404297Zm8.5830078-.8720703c.4482422.1162109.8164062.2631836,1.1035156.4404297.0722656.0439453.1083984.1049805.1083984.1826172,0,.0664062-.0273438.1240234-.0830078.1738281-.1767578.1552734-.3378906.4072266-.4814453.7558594-.7470703,1.8149414-1.5800781,3.2924805-2.4990234,4.4326172-1.078125,1.3334961-2.2402344,2.4042969-3.4863281,3.2119141-.0605469.0390625-.1152344.0585938-.1660156.0585938-.0380859,0-.0742188-.0141602-.1074219-.0419922-.1767578-.1660156-.4208984-.2792969-.7304688-.3398438.8574219-.5371094,1.5830078-1.0761719,2.1748047-1.6191406.4873047-.4482422,1.0205078-1.0234375,1.6025391-1.7265625.9677734-1.1953125,1.7451172-2.6171875,2.3320312-4.2666016.1220703-.3652344.1992188-.7851562.2324219-1.2617188Zm-5.2871094.0498047c.3652344-.2041016.5800781-.3232422.6464844-.3564453.0332031-.0112305.0615234-.0166016.0839844-.0166016.0605469,0,.1132812.0332031.1572266.0996094.4589844.625.8720703,1.4023438,1.2373047,2.3320312.0107422.0332031.015625.0585938.015625.0751953,0,.0498047-.0332031.0908203-.0996094.1240234-.2705078.1552734-.4648438.2519531-.5800781.2910156-.0283203.0107422-.0527344.0166016-.0751953.0166016-.0390625,0-.0751953-.0390625-.1083984-.1162109-.3867188-.9960938-.8125-1.8125-1.2773438-2.4492188Z"/>
      <path class="cls-1" d="m286.331543,88.3076172c1.9375.53125,3.7880859,1.3173828,5.5537109,2.3574219.0771484.0449219.1162109.0917969.1162109.1416016,0,.0166016-.0029297.0385742-.0078125.0664062-.0947266.237793-.1972656.4423828-.3076172.6142578-.0498047.0664062-.0996094.0996094-.1494141.0996094-.0390625,0-.0859375-.0166016-.140625-.0498047-1.5605469-1.0073242-3.2490234-1.7734375-5.0644531-2.2998047v4.2998047c0,.0947266.0175781,1.1738281.0507812,3.2373047,0,.1386719-.0644531.2080078-.1914062.2080078-.0996094.0048828-.2070312.0078125-.3242188.0078125-.1210938,0-.234375-.0029297-.3398438-.0078125-.1386719,0-.2070312-.0751953-.2070312-.2246094.0488281-1.3613281.0742188-2.4262695.0742188-3.1953125v-8.0771484c0-.9511719-.0634766-1.7124023-.1914062-2.2822266.5039062.0385742.8945312.1025391,1.1708984.1904297.1162109.0332031.1748047.0996094.1748047.1992188,0,.0556641-.0224609.1357422-.0664062.2412109-.0996094.2211914-.1503906.7412109-.1503906,1.5605469v2.9130859Z"/>
      <path class="cls-1" d="m301.355957,82.2900391c-1.4658203,1.3056641-2.4902344,2.6396484-3.0703125,4.0009766-.4765625,1.1176758-.7148438,2.390625-.7148438,3.8183594,0,1.6323242.3164062,3.0712891.9472656,4.3164062.5976562,1.1728516,1.5429688,2.3408203,2.8378906,3.5029297l-.3564453.40625c-1.6542969-1.3168945-2.8222656-2.6777344-3.5029297-4.0839844-.5869141-1.2119141-.8798828-2.5922852-.8798828-4.1416016,0-1.7597656.3896484-3.3173828,1.1708984-4.6738281.6914062-1.2060547,1.7617188-2.390625,3.2119141-3.5527344l.3564453.4072266Z"/>
      <path class="cls-1" d="m310.9848633,88.25c.9414062,2.9770508,2.3193359,5.2041016,4.1347656,6.6816406.7851562.6201172,1.8310547,1.2426758,3.1367188,1.8681641-.1767578.1601562-.3173828.3291016-.4228516.5058594-.0830078.144043-.1464844.2158203-.1904297.2158203-.0332031,0-.0996094-.0244141-.1992188-.0742188-.9804688-.5205078-1.7441406-.9907227-2.2910156-1.4111328-1.1132812-.8359375-2.0039062-1.765625-2.6738281-2.7890625-.7792969-1.1347656-1.4433594-2.5678711-1.9921875-4.2998047-.1933594,1.0957031-.4921875,2.0859375-.8964844,2.9716797-1.0732422,2.2797852-2.8798828,4.0947266-5.4199219,5.4453125-.1103516.0546875-.1826172.0830078-.2158203.0830078-.0605469,0-.1328125-.0639648-.2158203-.1914062-.1162109-.1767578-.2792969-.3232422-.4902344-.4394531,2.7558594-1.2675781,4.6328125-3.0351562,5.6289062-5.3046875.4033203-.9013672.7080078-1.9892578.9121094-3.2617188h-3.8925781l-2.2744141.0332031c-.0771484,0-.1162109-.0390625-.1162109-.1162109v-.5732422c0-.0830078.0390625-.1240234.1162109-.1240234l2.2744141.0332031h3.984375c.0996094-.8300781.1494141-1.8320312.1494141-3.0048828,0-.824707-.0390625-1.4609375-.1162109-1.9091797.3710938.0219727.6806641.0498047.9296875.0830078.1494141.0219727.2246094.0742188.2246094.1572266,0,.0449219-.0146484.0996094-.0419922.1660156-.0332031.078125-.0527344.1303711-.0576172.1582031-.0839844.2158203-.125.6503906-.125,1.3027344,0,1.140625-.0498047,2.1557617-.1494141,3.046875h4.78125l2.2744141-.0332031c.0771484,0,.1162109.0410156.1162109.1240234v.5732422c0,.0771484-.0390625.1162109-.1162109.1162109l-2.2744141-.0332031h-4.4912109Zm2.4990234-4.7236328c.7802734.5644531,1.5273438,1.2900391,2.2412109,2.1748047.0273438.0332031.0410156.0615234.0410156.0830078,0,.0332031-.046875.0917969-.140625.1748047l-.2402344.2402344c-.0947266.0830078-.1582031.125-.1914062.125-.0273438,0-.0605469-.0253906-.0996094-.0751953-.5976562-.8183594-1.3173828-1.5546875-2.1582031-2.2080078-.0439453-.0380859-.0664062-.0712891-.0664062-.0996094,0-.0332031.046875-.0854492.140625-.1572266l.2167969-.2080078c.0712891-.0605469.1240234-.0908203.1572266-.0908203.0166016,0,.0498047.0136719.0996094.0410156Z"/>
      <path class="cls-1" d="m319.9916992,82.2900391l.3564453-.4072266c1.6552734,1.3173828,2.8222656,2.6787109,3.5039062,4.0839844.5859375,1.2119141.8789062,2.5927734.8789062,4.1425781,0,1.7651367-.3867188,3.3232422-1.1621094,4.6728516-.6914062,1.2119141-1.7646484,2.3964844-3.2207031,3.5527344l-.3564453-.40625c1.4716797-1.3173828,2.4960938-2.6533203,3.0712891-4.0097656.4755859-1.1123047.7138672-2.3818359.7138672-3.8095703,0-1.6328125-.3154297-3.0742188-.9462891-4.3251953-.5976562-1.1787109-1.5439453-2.3432617-2.8388672-3.4941406Z"/>
    </g>
  </g>
</svg>