<?xml version="1.0" encoding="UTF-8"?>
<svg id="_レイヤー_2" data-name="レイヤー 2" xmlns="http://www.w3.org/2000/svg" xmlns:xlink="http://www.w3.org/1999/xlink" viewBox="0 0 131.16 20.99">
  <defs>
    <style>
      .cls-1 {
        fill: url(#_新規グラデーションスウォッチ_4);
      }

      .cls-1, .cls-2, .cls-3, .cls-4, .cls-5, .cls-6, .cls-7 {
        stroke-width: 0px;
      }

      .cls-2 {
        fill: url(#_新規グラデーションスウォッチ_4-6);
      }

      .cls-3 {
        fill: url(#_新規グラデーションスウォッチ_4-3);
      }

      .cls-4 {
        fill: url(#_新規グラデーションスウォッチ_4-4);
      }

      .cls-5 {
        fill: url(#_新規グラデーションスウォッチ_4-7);
      }

      .cls-6 {
        fill: url(#_新規グラデーションスウォッチ_4-2);
      }

      .cls-7 {
        fill: url(#_新規グラデーションスウォッチ_4-5);
      }
    </style>
    <linearGradient id="_新規グラデーションスウォッチ_4" data-name="新規グラデーションスウォッチ 4" x1="0" y1="10.5" x2="20.96" y2="10.5" gradientUnits="userSpaceOnUse">
      <stop offset="0" stop-color="#94dee3"/>
      <stop offset="1" stop-color="#c29cef"/>
    </linearGradient>
    <linearGradient id="_新規グラデーションスウォッチ_4-2" data-name="新規グラデーションスウォッチ 4" x1="22.57" x2="43.58" xlink:href="#_新規グラデーションスウォッチ_4"/>
    <linearGradient id="_新規グラデーションスウォッチ_4-3" data-name="新規グラデーションスウォッチ 4" x1="45.97" y1="10.25" x2="60.42" y2="10.25" xlink:href="#_新規グラデーションスウォッチ_4"/>
    <linearGradient id="_新規グラデーションスウォッチ_4-4" data-name="新規グラデーションスウォッチ 4" x1="62.83" x2="83.79" xlink:href="#_新規グラデーションスウォッチ_4"/>
    <linearGradient id="_新規グラデーションスウォッチ_4-5" data-name="新規グラデーションスウォッチ 4" x1="86.19" x2="97.65" xlink:href="#_新規グラデーションスウォッチ_4"/>
    <linearGradient id="_新規グラデーションスウォッチ_4-6" data-name="新規グラデーションスウォッチ 4" x1="100.65" y1="10.25" x2="115.46" y2="10.25" xlink:href="#_新規グラデーションスウォッチ_4"/>
    <linearGradient id="_新規グラデーションスウォッチ_4-7" data-name="新規グラデーションスウォッチ 4" x1="116.12" x2="131.16" xlink:href="#_新規グラデーションスウォッチ_4"/>
  </defs>
  <g id="_レイヤー_1-2" data-name="レイヤー 1">
    <g>
      <path class="cls-1" d="M14.74,10.72l6.23.16c-.41,3.22-1.53,5.71-3.35,7.47-1.82,1.76-4.2,2.64-7.13,2.64s-5.47-1-7.48-3c-2.01-2-3.01-4.48-3.01-7.43S1.02,5.08,3.07,3.05C5.11,1.02,7.64,0,10.63,0s5.41,1,7.38,2.99c1.37,1.38,2.33,3.3,2.9,5.76l-6.37.42c-.71-2.19-2.07-3.28-4.06-3.28-1.27,0-2.32.44-3.14,1.32s-1.24,2-1.24,3.35.41,2.39,1.22,3.24c.81.85,1.84,1.28,3.08,1.28s2.26-.38,3.01-1.13c.75-.75,1.19-1.83,1.33-3.24Z"/>
      <path class="cls-6" d="M33.25,0c2.83,0,5.26,1.03,7.29,3.09,2.03,2.06,3.04,4.53,3.04,7.4s-1.02,5.4-3.06,7.44c-2.04,2.04-4.52,3.06-7.44,3.06s-5.38-1.03-7.43-3.08-3.08-4.53-3.08-7.43,1.03-5.41,3.1-7.44c2.06-2.03,4.59-3.05,7.58-3.05ZM33.08,5.89c-1.22,0-2.26.45-3.12,1.35-.86.9-1.29,1.98-1.29,3.25s.43,2.35,1.3,3.25c.87.9,1.9,1.35,3.11,1.35s2.27-.45,3.13-1.34,1.28-1.98,1.28-3.26-.43-2.37-1.28-3.26-1.9-1.34-3.13-1.34Z"/>
      <path class="cls-3" d="M45.97,20.49V7.51c0-2.28.68-4.1,2.04-5.46,1.36-1.37,3.18-2.05,5.44-2.05s3.98.66,5.18,1.99c1.2,1.33,1.79,3.24,1.79,5.73v12.77h-5.95V7.72c0-1.22-.43-1.83-1.3-1.83s-1.26.61-1.26,1.83v12.77h-5.95Z"/>
      <path class="cls-4" d="M77.56,10.72l6.23.16c-.41,3.22-1.53,5.71-3.35,7.47-1.82,1.76-4.2,2.64-7.13,2.64s-5.47-1-7.48-3c-2.01-2-3.01-4.48-3.01-7.43s1.02-5.48,3.07-7.51c2.05-2.03,4.57-3.05,7.57-3.05s5.41,1,7.38,2.99c1.37,1.38,2.33,3.3,2.9,5.76l-6.37.42c-.71-2.19-2.07-3.28-4.06-3.28-1.27,0-2.32.44-3.14,1.32s-1.24,2-1.24,3.35.41,2.39,1.22,3.24c.81.85,1.84,1.28,3.08,1.28s2.26-.38,3.01-1.13c.75-.75,1.19-1.83,1.33-3.24Z"/>
      <path class="cls-7" d="M97.27,8.28v4.45h-3.88c-.53,0-.9.08-1.12.23-.22.16-.33.42-.33.79,0,.42.11.7.34.83s.68.2,1.38.2h4v5.71h-4.67c-2.2,0-3.88-.52-5.04-1.57-1.16-1.05-1.74-2.57-1.74-4.55v-7.84c0-1.91.55-3.4,1.65-4.45,1.1-1.05,2.64-1.58,4.64-1.58h5.17v5.74h-3.79c-1.03,0-1.54.33-1.54,1,0,.39.12.66.37.81.24.15.68.23,1.3.23h3.28Z"/>
      <path class="cls-2" d="M107.56,13.58v-5.24c1.2,0,1.8-.46,1.8-1.38,0-.84-.46-1.26-1.38-1.26s-1.39.58-1.39,1.73v13.07h-5.95v-12.45c0-1.29.13-2.35.39-3.17.26-.83.7-1.59,1.33-2.31.7-.79,1.58-1.42,2.64-1.88,1.05-.46,2.14-.69,3.27-.69,2.03,0,3.74.68,5.12,2.05,1.38,1.37,2.07,3.06,2.07,5.08s-.62,3.55-1.86,4.78c-1.13,1.12-2.84,1.68-5.13,1.68h-.91Z"/>
      <path class="cls-5" d="M126.62,6.24v14.25h-5.95V6.24h-4.56V.5h15.04v5.74h-4.54Z"/>
    </g>
  </g>
</svg>