<?xml version="1.0" encoding="UTF-8"?>
<svg id="_レイヤー_2" data-name="レイヤー 2" xmlns="http://www.w3.org/2000/svg" xmlns:xlink="http://www.w3.org/1999/xlink" viewBox="0 0 604.175293 76.0881348">
  <defs>
    <style>
      .cls-1 {
        fill: url(#_新規グラデーションスウォッチ_3-4);
      }

      .cls-1, .cls-2, .cls-3, .cls-4, .cls-5, .cls-6, .cls-7, .cls-8, .cls-9 {
        stroke-width: 0px;
      }

      .cls-2 {
        fill: url(#_新規グラデーションスウォッチ_3-6);
      }

      .cls-3 {
        fill: url(#_新規グラデーションスウォッチ_3);
      }

      .cls-4 {
        fill: url(#_新規グラデーションスウォッチ_3-5);
      }

      .cls-5 {
        fill: url(#_新規グラデーションスウォッチ_3-8);
      }

      .cls-6 {
        fill: url(#_新規グラデーションスウォッチ_3-9);
      }

      .cls-7 {
        fill: url(#_新規グラデーションスウォッチ_3-7);
      }

      .cls-8 {
        fill: url(#_新規グラデーションスウォッチ_3-3);
      }

      .cls-9 {
        fill: url(#_新規グラデーションスウォッチ_3-2);
      }
    </style>
    <linearGradient id="_新規グラデーションスウォッチ_3" data-name="新規グラデーションスウォッチ 3" x1="0" y1="36.9313354" x2="40.1635742" y2="36.9313354" gradientUnits="userSpaceOnUse">
      <stop offset="0" stop-color="#95dfe4"/>
      <stop offset="1" stop-color="#c39df0"/>
    </linearGradient>
    <linearGradient id="_新規グラデーションスウォッチ_3-2" data-name="新規グラデーションスウォッチ 3" x1="50.7636719" y1="38.0440674" x2="131.5146484" y2="38.0440674" xlink:href="#_新規グラデーションスウォッチ_3"/>
    <linearGradient id="_新規グラデーションスウォッチ_3-3" data-name="新規グラデーションスウォッチ 3" x1="142.5400391" y1="37.7261353" x2="204.1098633" y2="37.7261353" xlink:href="#_新規グラデーションスウォッチ_3"/>
    <linearGradient id="_新規グラデーションスウォッチ_3-4" data-name="新規グラデーションスウォッチ 3" x1="221.0693359" x2="239.402832" xlink:href="#_新規グラデーションスウォッチ_3"/>
    <linearGradient id="_新規グラデーションスウォッチ_3-5" data-name="新規グラデーションスウォッチ 3" x1="256.3583984" x2="310.0864258" xlink:href="#_新規グラデーションスウォッチ_3"/>
    <linearGradient id="_新規グラデーションスウォッチ_3-6" data-name="新規グラデーションスウォッチ 3" x1="318.7797852" x2="407.2666016" xlink:href="#_新規グラデーションスウォッチ_3"/>
    <linearGradient id="_新規グラデーションスウォッチ_3-7" data-name="新規グラデーションスウォッチ 3" x1="421.0478516" x2="461.2114258" xlink:href="#_新規グラデーションスウォッチ_3"/>
    <linearGradient id="_新規グラデーションスウォッチ_3-8" data-name="新規グラデーションスウォッチ 3" x1="474.9907227" x2="545.4624023" xlink:href="#_新規グラデーションスウォッチ_3"/>
    <linearGradient id="_新規グラデーションスウォッチ_3-9" data-name="新規グラデーションスウォッチ 3" x1="555.7456055" x2="604.175293" xlink:href="#_新規グラデーションスウォッチ_3"/>
  </defs>
  <g id="_レイヤー_2-2" data-name="レイヤー 2">
    <g>
      <path class="cls-3" d="m40.1635742,17.1674805h-21.8300781v11.7629395h20.6645508v15.5778809h-20.6645508v12.1868896h21.8300781v15.5778809H0V1.5895996h40.1635742v15.5778809Z"/>
      <path class="cls-9" d="m131.5146484,73.5446777l-16.8496094,2.543457-5.9345703-6.7822266c-6.2524414,3.3911133-11.9746094,4.5567627-18.5449219,4.5567627-14.7299805,0-23.949707-5.7225342-29.4604534-11.6569824-6.7822224-7.2060547-9.9614216-16.8496094-9.9614216-25.5393066,0-9.9614258,4.2387695-19.4989014,10.9150391-25.9632568C68.7792969,3.8149414,78.8466797,0,89.6557617,0c10.0673828,0,20.6645508,3.4970703,28.0825195,10.597168,6.0405273,5.8284912,10.9150391,15.0480957,10.9150391,26.5991211,0,4.8746338-.7416992,9.2194824-2.8613281,14.2001953-1.5893555,3.7091064-3.4970703,6.6762695-6.4643555,9.6435547l12.1870117,12.5046387Zm-30.2021484-31.6856689l4.875,5.298584c2.2250977-3.1790771,3.2851562-6.9941406,3.2851562-10.3852539,0-4.3448486-2.2255859-9.6434326-5.7226562-13.1405029-3.8149414-3.8150635-9.5375977-5.8284912-14.0942383-5.8284912-5.0869141,0-10.2792969,2.0134277-13.9882812,5.8284912-3.6030273,3.7089844-5.7226562,9.0075684-5.7226562,14.2001953,0,5.4046631,2.331543,9.9614258,5.2983398,12.8227539,3.3911133,3.2850342,8.7958984,5.404541,14.3066406,5.404541,2.2250977,0,4.0268555-.3178711,5.722168-.7418213l-11.2329102-11.2330322,17.2734375-2.2254639Z"/>
      <path class="cls-8" d="m160.8735352,1.5895996v41.8590088c0,2.9671631.105957,7.5240479,3.6030273,10.9151611,2.1191406,2.0134277,5.5102539,3.3911133,8.6894531,3.3911133s6.4643555-1.2717285,8.4780273-3.0732422c4.2387695-3.7089844,4.1328125-8.9016113,4.1328125-12.8226318V1.5895996h18.3330078v40.5874023c0,7.4179688-.3178711,15.1539307-7.9477539,22.8898926-5.9345703,6.0405273-13.3525391,8.7957764-23.3139648,8.7957764-11.1269531,0-19.0751953-3.8150635-23.4199219-8.4777832-6.1464844-6.6762695-6.8881836-15.68396-6.8881836-23.2078857V1.5895996h18.3334961Z"/>
      <path class="cls-1" d="m239.402832,1.5895996v70.6834717h-18.3334961V1.5895996h18.3334961Z"/>
      <path class="cls-4" d="m274.6918945,48.8531494v23.4199219h-18.3334961V1.5895996h29.2485352c6.1464844,0,12.5048828,1.1656494,17.9091797,6.3582764,5.5107422,5.298584,6.5703125,11.2330322,6.5703125,17.1674805,0,5.6165771-.7416992,12.1868896-6.2524414,17.5914307-5.5102539,5.404541-12.0805664,6.1463623-17.5913086,6.1463623h-11.5507812Zm0-14.8360596h6.1459961c1.9077148,0,5.5107422-.2119141,7.7363281-2.2254639,2.2250977-1.9074707,2.3310547-4.7686768,2.3310547-6.4642334,0-1.9075928-.2119141-4.4509277-2.1191406-6.3583984-2.1196289-2.2253418-5.5107422-2.543335-7.8422852-2.543335h-6.2519531v17.5914307Z"/>
      <path class="cls-2" d="m318.7797852,72.2730713L330.7548828,1.5895996h18.1210938l14.3061523,37.7260742,15.1542969-37.7260742h18.3330078l10.597168,70.6834717h-18.3330078l-5.1928711-40.6933594-17.0615234,40.6933594h-7.3120117l-16.3198242-40.6933594-6.0400391,40.6933594h-18.2275391Z"/>
      <path class="cls-7" d="m461.2114258,17.1674805h-21.8300781v11.7629395h20.6645508v15.5778809h-20.6645508v12.1868896h21.8300781v15.5778809h-40.1635742V1.5895996h40.1635742v15.5778809Z"/>
      <path class="cls-5" d="m474.9907227,72.2730713V1.5895996h18.3334961l33.8051758,43.2366943V1.5895996h18.3330078v70.6834717h-18.3330078l-33.8051758-43.2366943v43.2366943h-18.3334961Z"/>
      <path class="cls-6" d="m589.1269531,17.1674805v55.1055908h-18.3330078V17.1674805h-15.0483398V1.5895996h48.4296875v15.5778809h-15.0483398Z"/>
    </g>
  </g>
</svg>