<?xml version="1.0" encoding="UTF-8"?>
<svg id="_レイヤー_2" data-name="レイヤー 2" xmlns="http://www.w3.org/2000/svg" viewBox="0 0 390.6891202 28.2861328">
  <defs>
    <style>
      .cls-1 {
        fill: #fff;
        stroke-width: 0px;
      }
    </style>
  </defs>
  <g id="_レイヤー_1-2" data-name="レイヤー 1">
    <g>
      <path class="cls-1" d="m119.1803312,25.5318604h-16.4003906l5.1806641-5.4260254c1.8393555-1.9311523,3.21875-3.6171875,4.199707-5.1806641.5517578-.8583984,1.1040039-1.869873,1.1040039-3.1879883,0-.2145996,0-1.2875977-.6132812-1.9619141-.3066406-.3374023-.8276367-.6132812-1.5019531-.6132812-.8583984,0-1.440918.3986816-1.7783203.8278809-.4902344.6435547-.7050781,1.8085938-.7353516,2.5136719h-5.4873047c.0302734-2.6669922,1.1953125-4.5983887,2.2685547-5.6711426,1.3793945-1.3796387,3.2490234-2.2072754,5.793457-2.2072754,3.0654297,0,4.84375,1.1955566,5.7631836,2.1152344.8276367.8276367,1.9926758,2.3911133,1.9926758,5.0273438,0,2.5749512-1.1958008,4.3530273-3.0351562,6.0698242l-3.4331055,3.1879883h6.6826172v4.5063477Z"/>
      <path class="cls-1" d="m135.5182218,17.5921631h2.4829102v4.0771484h-2.4829102v3.8625488h-4.9047852v-3.8625488h-9.9013672v-3.402832l7.8779297-13.1813965h6.9282227v12.5070801Zm-4.9047852,0v-8.3381348l-4.8129883,8.3381348h4.8129883Z"/>
    </g>
    <g>
      <g>
        <path class="cls-1" d="m145.6666593,5.4931641c1.2597656.1368408,3.1787109.2050781,5.7568359.2050781h10.7080078c.7519531,0,1.3037109-.1025391,1.6552734-.3076172.1757812-.1171875.3466797-.1757812.5126953-.1757812.1953125,0,.3613281.0684814.4980469.2050781.8984375.7227783,1.5820312,1.4161377,2.0507812,2.0800781.15625.2149658.234375.4101562.234375.5859375,0,.1856689-.0976562.3760986-.2929688.5712891-.2050781.2050781-.4394531.6005859-.703125,1.1865234-1.6113281,3.8868408-3.5498047,7.1387939-5.8154297,9.7558594-2.6953125,3.0761719-5.5322266,5.4591064-8.5107422,7.1484375-.2734375.1757812-.546875.2636719-.8203125.2636719s-.5224609-.1124268-.7470703-.3369141c-.625-.5958252-1.5527344-1.1425781-2.7832031-1.640625,2.3144531-1.171875,4.2529297-2.3778076,5.8154297-3.6181641,1.3574219-1.0839844,2.6855469-2.3778076,3.984375-3.8818359,2.2558594-2.578125,3.9501953-5.4345703,5.0830078-8.5693359h-10.8398438c-1.1328125,0-2.7832031.0489502-4.9511719.1464844-.3125.0196533-.5029297-.180542-.5712891-.6005859-.0683594-.4980469-.15625-1.5037842-.2636719-3.0175781Zm23.2763672-5.4931641c.9667969,0,1.7675781.3515625,2.4023438,1.0546875.5566406.6055908.8349609,1.3233643.8349609,2.1533203,0,.9667969-.3564453,1.7677002-1.0693359,2.4023438-.6054688.5469971-1.328125.8203125-2.1679688.8203125-.9667969,0-1.7675781-.3515625-2.4023438-1.0546875-.5566406-.6053467-.8349609-1.3280029-.8349609-2.1679688,0-.9862061.3564453-1.7871094,1.0693359-2.4023438.6054688-.5369873,1.328125-.8056641,2.1679688-.8056641Zm0,1.4355469c-.546875,0-.9912109.1904297-1.3330078.5712891-.2929688.3321533-.4394531.7324219-.4394531,1.2011719,0,.5566406.1904297,1.0059814.5712891,1.3476562.3222656.2929688.7226562.4394531,1.2011719.4394531.546875,0,.9912109-.1904297,1.3330078-.5712891.2929688-.3319092.4394531-.7371826.4394531-1.2158203,0-.5467529-.1904297-.9910889-.5712891-1.3330078-.3222656-.2929688-.7226562-.4394531-1.2011719-.4394531Z"/>
        <path class="cls-1" d="m193.1275968,22.5292969h-11.6308594v1.7724609c0,.2540283-.0488281.4151611-.1464844.4833984-.078125.0585938-.2490234.0928955-.5126953.1025391-.390625.0196533-.7861328.0292969-1.1865234.0292969s-.7958984-.0096436-1.1865234-.0292969c-.4199219-.0194092-.6298828-.1414795-.6298828-.3662109v-.0732422c.0585938-3.1151123.0878906-5.102417.0878906-5.9619141v-9.3017578c0-1.171875-.0195312-2.1776123-.0585938-3.0175781,0-.2830811.1123047-.4248047.3369141-.4248047,1.0546875.0585938,2.8417969.0878906,5.3613281.0878906h7.1337891c2.8222656,0,4.7021484-.0194092,5.6396484-.0585938.2636719,0,.3955078.1514893.3955078.4541016v.1464844l-.0292969,4.8486328v7.1630859c0,1.0839844.0488281,2.9882812.1464844,5.7128906,0,.3419189-.1904297.5126953-.5712891.5126953-.46875.0098877-.9277344.0146484-1.3769531.0146484-.46875,0-.9277344-.0096436-1.3769531-.0292969-.1855469,0-.3027344-.0292969-.3515625-.0878906-.0292969-.0585938-.0439453-.1854248-.0439453-.3808594v-1.5966797Zm0-3.1787109v-10.3417969h-11.6601562v10.3417969h11.6601562Z"/>
        <path class="cls-1" d="m205.2857999,13.0078125c.078125-.1268311.4101562-.6738281.9960938-1.640625.2636719-.4295654.4638672-.7371826.6005859-.9228516.1464844-.2050781.2978516-.3076172.4541016-.3076172.0390625,0,.0732422.0050049.1025391.0146484,2.0800781.6934814,4.0039062,1.6749268,5.7714844,2.9443359.2148438.1563721.3222656.3028564.3222656.4394531,0,.0585938-.0390625.1710205-.1171875.3369141-.2539062.6152344-.6933594,1.3769531-1.3183594,2.2851562-.1660156.1954346-.2978516.2929688-.3955078.2929688-.0878906,0-.2050781-.0585938-.3515625-.1757812-1.7089844-1.2597656-3.7304688-2.3485107-6.0644531-3.2666016Zm2.3730469,10.0488281c1.2695312-.2440186,2.6269531-.7371826,4.0722656-1.4794922,3.2421875-1.6992188,5.9814453-3.4277344,8.2177734-5.1855469,3.0957031-2.3533936,5.9765625-5.1416016,8.6425781-8.3642578.1367188.9473877.4296875,2.0654297.8789062,3.3544922.0976562.234375.1464844.4248047.1464844.5712891,0,.234375-.1074219.4639893-.3222656.6884766-2.2753906,2.4415283-4.8193359,4.7510986-7.6318359,6.9287109-2.3242188,1.7677002-5.3125,3.6474609-8.9648438,5.6396484-1.0449219.5665283-1.6259766.9082031-1.7431641,1.0253906-.15625.1561279-.3173828.234375-.4833984.234375-.2148438,0-.4150391-.1221924-.6005859-.3662109-.5664062-.5662842-1.3037109-1.5820312-2.2119141-3.046875Zm1.2597656-17.0947266l1.5820312-2.4023438c.1367188-.2244873.2783203-.3369141.4248047-.3369141.0878906,0,.2001953.0343018.3369141.1025391,2.265625.9180908,4.1455078,2.0264893,5.6396484,3.3251953.15625.1075439.234375.234375.234375.3808594,0,.1270752-.0390625.2589111-.1171875.3955078-.5859375,1.0352783-1.0986328,1.7871094-1.5380859,2.2558594-.0683594.1171875-.1660156.1757812-.2929688.1757812s-.2783203-.0682373-.4541016-.2050781c-1.8847656-1.5623779-3.8232422-2.7928467-5.8154297-3.6914062Zm13.7402344-2.2265625l1.5820312-1.1132812c.0683594-.0487061.1269531-.0732422.1757812-.0732422.078125,0,.1708984.0439453.2783203.1318359,1.0253906.8009033,1.9726562,1.8702393,2.8417969,3.2080078.0585938.0878906.0878906.1611328.0878906.2197266,0,.0977783-.0585938.1856689-.1757812.2636719l-1.2597656.9375c-.0878906.0585938-.1660156.0878906-.234375.0878906-.0878906,0-.1757812-.0633545-.2636719-.1904297-.9375-1.4158936-1.9482422-2.5731201-3.0322266-3.4716797Zm2.7539062-1.9775391l1.5087891-1.0839844c.0683594-.0487061.1318359-.0732422.1904297-.0732422.0683594,0,.1513672.0439453.2490234.1318359,1.1523438.8692627,2.1044922,1.8995361,2.8564453,3.0908203.0585938.0878906.0878906.1710205.0878906.2490234,0,.1075439-.0585938.2050781-.1757812.2929688l-1.2011719.9228516c-.0878906.0684814-.1660156.1025391-.234375.1025391-.1074219,0-.2001953-.0633545-.2783203-.1904297-.8398438-1.3377686-1.8408203-2.4852295-3.0029297-3.4423828Z"/>
        <path class="cls-1" d="m248.8063077,14.7949219v7.5878906h3.1787109c1.7773438,0,3.3886719-.0389404,4.8339844-.1171875.2539062,0,.390625.1904297.4101562.5712891.0195312.3321533.0292969.6495361.0292969.9521484,0,.3126221-.0097656.6348877-.0292969.9667969-.0195312.3614502-.1611328.5419922-.4248047.5419922h-.0732422l-4.7167969-.0585938h-9.4189453c-1.2890625,0-2.7587891.0391846-4.4091797.1171875-.3222656,0-.5126953-.2098389-.5712891-.6298828-.0976562-.5369873-.1464844-1.3476562-.1464844-2.4316406,1.1621094.0782471,2.8710938.1171875,5.1269531.1171875h3.0029297v-7.5878906h-1.6552734c-1.5332031,0-2.7636719.0098877-3.6914062.0292969h-.0439453c-.234375,0-.3759766-.2000732-.4248047-.6005859-.0488281-.2636719-.1123047-1.0643311-.1904297-2.4023438.859375.0782471,2.2509766.1171875,4.1748047.1171875h6.6650391l4.0429688-.0585938h.0732422c.234375,0,.3662109.1710205.3955078.5126953.0195312.3126221.0292969.6202393.0292969.9228516,0,.3126221-.0097656.6251221-.0292969.9375-.0195312.3808594-.1757812.5712891-.46875.5712891h-.1171875l-3.8964844-.0585938h-1.6552734Z"/>
        <path class="cls-1" d="m277.3854093,6.8701172l5.390625-.1171875c.6640625-.0194092,1.1669922-.1414795,1.5087891-.3662109.0976562-.0780029.2246094-.1171875.3808594-.1171875.1464844,0,.3076172.0585938.4833984.1757812.6835938.4394531,1.3623047.9814453,2.0361328,1.6259766.2636719.234375.3955078.4639893.3955078.6884766,0,.2149658-.1220703.4248047-.3662109.6298828-.3710938.2929688-.6982422.7227783-.9814453,1.2890625-1.8847656,3.8282471-3.8671875,6.9190674-5.9472656,9.2724609-1.3671875,1.5430908-2.9443359,3.0322266-4.7314453,4.4677734-1.5332031,1.2304688-2.9931641,2.2313232-4.3798828,3.0029297-.15625.0975342-.3173828.1464844-.4833984.1464844-.2148438,0-.4443359-.1075439-.6884766-.3222656-.7519531-.5958252-1.7041016-1.0546875-2.8564453-1.3769531,2.4316406-1.3476562,4.4189453-2.6268311,5.9619141-3.8378906,1.2792969-1.0253906,2.6220703-2.2998047,4.0283203-3.8232422,1.2890625-1.4256592,2.34375-2.7832031,3.1640625-4.0722656.7617188-1.1912842,1.5576172-2.6707764,2.3876953-4.4384766l-7.265625.2050781c-2.4023438,2.9786377-4.2919922,5.0294189-5.6689453,6.1523438-.2148438.2247314-.4248047.3369141-.6298828.3369141-.1464844,0-.2929688-.0585938-.4394531-.1757812-.9082031-.6541748-1.8701172-1.0887451-2.8857422-1.3037109,3.3496094-2.7342529,6.0400391-5.7030029,8.0712891-8.90625.9179688-1.5623779,1.5087891-2.9150391,1.7724609-4.0576172,1.6992188.6055908,2.8662109,1.1378174,3.5009766,1.5966797.2050781.1464844.3076172.3175049.3076172.5126953,0,.2050781-.1123047.3760986-.3369141.5126953-.1269531.0782471-.3759766.3468018-.7470703.8056641-.2148438.3419189-.5419922.8399658-.9814453,1.4941406Z"/>
        <path class="cls-1" d="m306.3160733,10.6201172c3.7695312,1.1817627,6.9482422,2.5440674,9.5361328,4.0869141.2636719.1368408.3955078.3076172.3955078.5126953,0,.0782471-.0195312.1661377-.0585938.2636719-.3710938.9375-.8007812,1.8067627-1.2890625,2.6074219-.1269531.2247314-.2587891.3369141-.3955078.3369141-.1171875,0-.2294922-.0487061-.3369141-.1464844-2.8125-1.8065186-5.4394531-3.0908203-7.8808594-3.8525391v6.6357422c0,1.0938721.0390625,3.0518799.1171875,5.8740234v.0878906c0,.2440186-.1806641.3662109-.5419922.3662109-.4492188.0292969-.8935547.0439453-1.3330078.0439453-.4492188,0-.8935547-.0146484-1.3330078-.0439453-.3808594,0-.5712891-.1514893-.5712891-.4541016.078125-1.9335938.1171875-3.9012451.1171875-5.9033203V6.2695312c0-1.8260498-.0976562-3.305542-.2929688-4.4384766,1.7578125.1171875,3.0078125.2783203,3.75.4833984.3808594.0782471.5712891.2490234.5712891.5126953,0,.1661377-.0830078.3955078-.2490234.6884766-.1367188.2636719-.2050781,1.2011719-.2050781,2.8125v4.2919922Z"/>
        <path class="cls-1" d="m335.9938077,1.1132812c1.2207031.0782471,2.2216797.2003174,3.0029297.3662109.3027344.0585938.4541016.1807861.4541016.3662109,0,.1757812-.078125.3858643-.234375.6298828-.1660156.234375-.2880859.6934814-.3662109,1.3769531-.1855469,1.3575439-.3466797,2.4561768-.4833984,3.2958984h1.3183594l3.0908203-.0585938c.2636719,0,.3955078.1221924.3955078.3662109-.0976562.6934814-.1660156,1.4208984-.2050781,2.1826172-.2734375,3.8575439-.9570312,7.0997314-2.0507812,9.7265625.7617188.5762939,1.6552734,1.3233643,2.6806641,2.2412109.1171875.0878906.1757812.1807861.1757812.2783203,0,.0878906-.0634766.2050781-.1904297.3515625l-1.0986328,1.6845703c-.1367188.1954346-.2441406.2929688-.3222656.2929688-.0585938,0-.1318359-.0389404-.2197266-.1171875-1.0253906-.9471436-1.8164062-1.6453857-2.3730469-2.0947266-1.2011719,1.9335938-2.8125,3.6817627-4.8339844,5.2441406-.3515625.2636719-.5810547.3955078-.6884766.3955078-.1269531,0-.3369141-.2296143-.6298828-.6884766-.4003906-.6055908-.8496094-1.1279297-1.3476562-1.5673828,2.2363281-1.4451904,3.9550781-3.1444092,5.15625-5.0976562-.5664062-.3905029-1.1962891-.7811279-1.8896484-1.171875l-.1464844.4248047c-.0878906.2540283-.2001953.3808594-.3369141.3808594-.0878906,0-.2148438-.0292969-.3808594-.0878906l-1.6259766-.5712891c-.2734375-.0780029-.4101562-.1707764-.4101562-.2783203,0-.0585938.0292969-.1658936.0878906-.3222656,1.0253906-2.7733154,1.8457031-5.7225342,2.4609375-8.8476562-.6445312.0098877-1.2304688.0245361-1.7578125.0439453-.3515625.0098877-.5371094.0146484-.5566406.0146484-.2050781,0-.3076172-.1072998-.3076172-.3222656v-2.1679688c0-.1951904.1025391-.2929688.3076172-.2929688l2.7539062.0585938c.1855469-1.1033936.3369141-2.1826172.4541016-3.2373047.0878906-.7420654.1318359-1.4891357.1318359-2.2412109,0-.2147217-.0048828-.4002686-.0146484-.5566406Zm4.1455078,8.7011719h-2.2851562c-.4589844,2.34375-1.0058594,4.5460205-1.640625,6.6064453,1.0351562.5566406,1.8017578.9864502,2.2998047,1.2890625.8105469-2.0800781,1.3525391-4.711792,1.6259766-7.8955078Zm15.2929688-3.8964844c1.6894531,2.2265625,3.1201172,4.7559814,4.2919922,7.5878906.0390625.1075439.0585938.1856689.0585938.234375,0,.0878906-.1171875.2003174-.3515625.3369141l-1.7724609.8349609c-.1953125.0977783-.3271484.1464844-.3955078.1464844-.0976562,0-.1757812-.0780029-.234375-.234375-.2441406-.6152344-.5322266-1.2938232-.8642578-2.0361328-2.7734375.4493408-6.2744141.8789062-10.5029297,1.2890625-.390625.0391846-.7324219.1318359-1.0253906.2783203-.1953125.1171875-.3564453.1757812-.4833984.1757812-.1660156,0-.2929688-.1611328-.3808594-.4833984-.15625-.6541748-.3369141-1.6453857-.5419922-2.9736328.4492188.0391846.9033203.0585938,1.3623047.0585938.2539062,0,.5371094-.0096436.8496094-.0292969,1.1328125-2.5096436,2.0556641-5.0390625,2.7685547-7.5878906.234375-.7420654.3857422-1.4941406.4541016-2.2558594,1.171875.1563721,2.1972656.3565674,3.0761719.6005859.3222656.1171875.4833984.2686768.4833984.4541016,0,.1757812-.0976562.3662109-.2929688.5712891-.234375.2636719-.4345703.6544189-.6005859,1.171875-.9179688,2.7539062-1.7871094,5.0343018-2.6074219,6.8408203,2.4707031-.2147217,4.53125-.4344482,6.1816406-.6591797-.5566406-1.0253906-1.2011719-2.0654297-1.9335938-3.1201172-.0683594-.1171875-.1025391-.2050781-.1025391-.2636719,0-.0780029.1171875-.1707764.3515625-.2783203l1.640625-.7470703c.15625-.0682373.2636719-.1025391.3222656-.1025391.078125,0,.1611328.0635986.2490234.1904297Zm-7.5585938,22.0751953c0,.1951904-.1123047.2929688-.3369141.2929688h-2.3876953c-.2246094,0-.3369141-.0977783-.3369141-.2929688l.0585938-5.2734375v-2.4902344l-.0585938-3.5595703c0-.1658936.0195312-.2636719.0585938-.2929688s.1318359-.0439453.2783203-.0439453l3.5595703.0585938h5.1708984l3.5595703-.0585938c.1757812,0,.2832031.0196533.3222656.0585938.0292969.0391846.0439453.1318359.0439453.2783203l-.0585938,3.1054688v2.8857422l.0585938,5.2441406c0,.1365967-.0195312.2244873-.0585938.2636719-.0488281.0194092-.1513672.0292969-.3076172.0292969h-2.4462891c-.2246094,0-.3369141-.0977783-.3369141-.2929688v-1.1425781h-6.7822266v1.2304688Zm6.7822266-8.8769531h-6.7822266v4.9511719h6.7822266v-4.9511719Z"/>
        <path class="cls-1" d="m378.2965421,22.8955078c-.1269531.4980469-.2148438.9571533-.2636719,1.3769531l-.1025391.5419922c1.5039062-1.7285156,2.6464844-3.9647217,3.4277344-6.7089844.4785156-1.8358154.8056641-4.3895264.9814453-7.6611328-.7324219.0098877-1.3867188.0245361-1.9628906.0439453-.4003906.0098877-.6054688.0146484-.6152344.0146484-.1660156,0-.2685547-.0194092-.3076172-.0585938-.0292969-.0389404-.0439453-.1268311-.0439453-.2636719v-2.1972656c0-.1561279.0195312-.2490234.0585938-.2783203s.1367188-.0439453.2929688-.0439453l2.7099609.0585938.0292969-2.4023438c0-1.6992188-.0732422-3.1102295-.2197266-4.2333984,1.0253906.0292969,2.0263672.1025391,3.0029297.2197266.3027344.0292969.4541016.1368408.4541016.3222656,0,.1270752-.0585938.3662109-.1757812.7177734-.1269531.3028564-.1904297,1.3233643-.1904297,3.0615234,0,1.0450439-.0097656,1.8164062-.0292969,2.3144531h1.7138672l3.2666016-.0585938c.2441406,0,.3662109.1221924.3662109.3662109-.0390625.6738281-.0585938,1.6212158-.0585938,2.8417969-.0292969,5.7421875-.3222656,10.3223877-.8789062,13.7402344-.2050781,1.2110596-.6396484,2.0750732-1.3037109,2.5927734-.5957031.46875-1.4306641.703125-2.5048828.703125-.4199219,0-.9667969-.0196533-1.640625-.0585938-.3613281-.0292969-.5761719-.0977783-.6445312-.2050781-.0488281-.0878906-.0976562-.3712158-.1464844-.8496094-.1269531-.7910156-.3271484-1.4598389-.6005859-2.0068359,1.0546875.1563721,1.8847656.234375,2.4902344.234375.8984375,0,1.4404297-.6298828,1.6259766-1.8896484.46875-2.8514404.7177734-7.0799561.7470703-12.6855469h-2.5195312c-.2050781,3.4962158-.5761719,6.3673096-1.1132812,8.6132812-.8398438,3.4277344-2.3193359,6.2745361-4.4384766,8.5400391-.3027344.3026123-.5126953.4541016-.6298828.4541016-.0976562,0-.2880859-.1417236-.5712891-.4248047-.5371094-.6251221-1.1767578-1.0986328-1.9189453-1.4208984.4492188-.4101562.7714844-.7225342.9667969-.9375-.1171875.0489502-.3076172.0878906-.5712891.1171875-3.2421875.6445312-6.7333984,1.1619873-10.4736328,1.5527344-.6542969.0878906-1.0253906.1611328-1.1132812.2197266-.2441406.1171875-.4150391.1757812-.5126953.1757812-.1855469,0-.3222656-.1710205-.4101562-.5126953-.1757812-.7520752-.3466797-1.6307373-.5126953-2.6367188.4101562.0196533.8251953.0292969,1.2451172.0292969.5078125,0,1.1425781-.0194092,1.9042969-.0585938,1.5332031-.0878906,2.6611328-.1658936,3.3837891-.234375v-1.7431641h-1.7724609l-3.6474609.0585938c-.2246094,0-.3369141-.0975342-.3369141-.2929688v-1.8017578c0-.1658936.0195312-.2636719.0585938-.2929688s.1318359-.0439453.2783203-.0439453l3.6474609.0585938h1.7724609v-1.2890625h-1.2011719l-3.5888672.0585938c-.1757812,0-.2832031-.0194092-.3222656-.0585938-.0292969-.0389404-.0439453-.1318359-.0439453-.2783203l.0585938-2.4755859v-3.2080078l-.0585938-2.4609375c0-.1658936.0195312-.2636719.0585938-.2929688.0488281-.0292969.1513672-.0439453.3076172-.0439453l3.5888672.0585938h1.2011719v-1.3183594h-2.2119141l-3.8085938.0585938c-.1660156,0-.2636719-.0194092-.2929688-.0585938-.0292969-.0389404-.0439453-.1268311-.0439453-.2636719v-1.7724609c0-.1561279.0195312-.2537842.0585938-.2929688.0390625-.0292969.1318359-.0439453.2783203-.0439453l3.8085938.0732422h2.2119141v-1.3623047c-1.71875.1661377-3.0078125.2686768-3.8671875.3076172-.1855469.0098877-.3271484.0146484-.4248047.0146484-.2148438,0-.3662109-.0535889-.4541016-.1611328-.0585938-.0682373-.1367188-.2391357-.234375-.5126953-.1757812-.4980469-.4833984-1.0400391-.9228516-1.6259766,4.0234375-.1072998,7.5634766-.4881592,10.6201172-1.1425781.5761719-.1268311,1.1279297-.2929688,1.6552734-.4980469.7324219.6055908,1.3037109,1.1524658,1.7138672,1.640625.15625.1856689.234375.3662109.234375.5419922,0,.2050781-.2099609.3076172-.6298828.3076172-.15625,0-.6054688.0684814-1.3476562.2050781-1.3476562.2735596-2.5585938.4737549-3.6328125.6005859v1.6845703h1.7285156l3.7939453-.0732422c.1953125,0,.2929688.1124268.2929688.3369141v1.7724609c0,.1661377-.0097656.2589111-.0292969.2783203-.0195312.0292969-.0878906.0439453-.2050781.0439453l-3.8525391-.0585938h-1.7285156v1.3183594h1.2890625l3.5888672-.0585938c.1660156,0,.2636719.0196533.2929688.0585938.0292969.0391846.0439453.1318359.0439453.2783203l-.0585938,2.4609375v3.2080078l.0585938,2.4755859c0,.1661377-.0195312.2636719-.0585938.2929688s-.1318359.0439453-.2783203.0439453l-3.5888672-.0585938h-1.2890625v1.2890625h1.0986328l3.6621094-.0585938c.1660156,0,.2636719.0196533.2929688.0585938.0292969.0391846.0439453.1318359.0439453.2783203v1.8017578c0,.1954346-.1123047.2929688-.3369141.2929688l-3.6621094-.0585938h-1.0986328v1.4355469c1.640625-.1757812,3.3398438-.414917,5.0976562-.7177734Zm-10.2978516-9.5654297h2.4902344v-1.5673828h-2.4902344v1.5673828Zm0,3.3251953h2.4902344v-1.5820312h-2.4902344v1.5820312Zm7.8076172-4.8925781h-2.6074219v1.5673828h2.6074219v-1.5673828Zm0,4.8925781v-1.5820312h-2.6074219v1.5820312h2.6074219Z"/>
      </g>
      <g>
        <path class="cls-1" d="m7.8539284,5.1634195h3.932389l7.8346401,20.3683766h-4.0300357l-1.5936905-4.1951912H5.6864129l-1.6575827,4.1951912H0L7.8539284,5.1634195Zm1.9903048,5.3995004l-2.7329019,6.9931909h5.450132l-2.7172302-6.9931909Z"/>
        <path class="cls-1" d="m33.3083715,7.9324868l-2.871536,2.5339919c-1.0078103-1.4032191-2.0349088-2.1048287-3.0788846-2.1048287-.5087272,0-.9258353.1362232-1.2489132.4086695-.3242835.2724463-.4858224.5786471-.4858224.9210132,0,.3411607.1157294.6642386.3471882.9692338.3146393.4062585,1.2621739,1.2778456,2.8438092,2.6171724,1.4791666,1.2368581,2.3760695,2.0168261,2.6907088,2.3399041.7859956.7932287,1.3429434,1.552703,1.6708434,2.2772173.3291055.7257199.4930555,1.5165375.4930555,2.374864,0,1.6708434-.5774415,3.0511577-1.7335302,4.140943-1.1548831,1.0885798-2.660571,1.6334724-4.5182691,1.6334724-1.4514397,0-2.7148191-.3556268-3.7913438-1.065675-1.0765246-.7112537-1.9987434-1.8287658-2.7654508-3.3513309l3.2585063-1.9661945c.9800835,1.7998335,2.1084452,2.700353,3.3838798,2.700353.6654441,0,1.2248029-.1940879,1.6780765-.5822636.4532735-.3869702.6799103-.8354217.6799103-1.3429434,0-.4617121-.1711831-.9234243-.5135493-1.3851364-.3423662-.4605066-1.0958129-1.1669382-2.2603401-2.1180894-2.2193526-1.8094776-3.6527096-3.2054636-4.300071-4.1891636-.6473614-.9824945-.9716449-1.9637835-.9716449-2.9414559,0-1.4128632.5388651-2.6244055,1.6153897-3.6358324,1.0765246-1.0102213,2.4050019-1.515332,3.9866372-1.515332,1.0162489,0,1.9842772.2350754,2.9040849.7052261.9198077.4713563,1.9155629,1.3296827,2.9872655,2.5761849Z"/>
        <path class="cls-1" d="m46.9825249,4.6510758c2.8823857,0,5.3597184,1.0427702,7.4332037,3.1295162,2.0746908,2.0855405,3.1114335,4.6291765,3.1114335,7.6297026,0,2.9715938-1.023482,5.487503-3.0692405,7.5465221-2.046964,2.0578136-4.5291188,3.0873232-7.4476699,3.0873232-3.0571853,0-5.5984103-1.0572364-7.621264-3.1705037-2.0228537-2.1144728-3.0342805-4.62556-3.0342805-7.5332614,0-1.9481118.4713563-3.7383011,1.4140688-5.3729791.941507-1.6334724,2.2374353-2.9281952,3.8865794-3.8841684,1.6479386-.9547677,3.4236618-1.4321515,5.3271695-1.4321515Zm-.042193,3.7937548c-1.8842195,0-3.4694713.6558-4.7533445,1.9661945-1.2850787,1.3103945-1.927618,2.9776213-1.927618,4.9992695,0,2.2519015.8089004,4.0336522,2.4267011,5.3440467,1.2561463,1.0246875,2.6979419,1.5370313,4.3241813,1.5370313,1.8384099,0,3.4043736-.6642386,4.6990964-1.9939213,1.2935173-1.3296827,1.9408787-2.9679772,1.9408787-4.9148835,0-1.9396732-.6521835-3.5803787-1.9553449-4.9233221-1.3031614-1.3429434-2.8872077-2.0144151-4.75455-2.0144151Z"/>
        <path class="cls-1" d="m61.1822827,25.5317961V5.1634195h3.2018471c1.8576982,0,3.2163133.119346,4.0758452.3592434,1.2199809.3230779,2.1916257.9234243,2.9125235,1.801039.7208978.8764092,1.0813467,1.9107408,1.0813467,3.1005838,0,.7763515-.16395,1.4803721-.49185,2.1120618-.3279.6328952-.8607375,1.2260085-1.599718,1.7793397,1.2368581.5822636,2.1421996,1.309189,2.7136136,2.1807761.5726195.8727927.859532,1.9047132.859532,3.0945563,0,1.145239-.2965566,2.1880092-.8872588,3.1295162-.5919077.941507-1.353793,1.6455276-2.2880669,2.1120618-.9330684.4665342-2.2217636.6991985-3.8672912.6991985h-5.7105232Zm3.8769353-16.6722685v4.2928379h.8474768c.9451235,0,1.6479386-.1977044,2.1060342-.5955243.4593011-.3966143.6883489-.9366849.6883489-1.6202118,0-.6365118-.2181982-1.1416224-.653389-1.515332-.4363963-.3737096-1.0982239-.5617699-1.9878938-.5617699h-1.0005772Zm0,7.7550762v5.2198787h.9716449c1.6105677,0,2.6955309-.2025265,3.2560952-.6087849.5593588-.4062585.8402438-.9969607.8402438-1.7721066,0-.8776147-.3291055-1.5695802-.986111-2.0771019-.6570055-.5075217-1.7492018-.7618853-3.276589-.7618853h-.8052838Z"/>
        <path class="cls-1" d="m87.2491274,4.6510758c2.8823857,0,5.3597184,1.0427702,7.4332037,3.1295162,2.0746908,2.0855405,3.1114335,4.6291765,3.1114335,7.6297026,0,2.9715938-1.023482,5.487503-3.0692405,7.5465221-2.046964,2.0578136-4.5291188,3.0873232-7.4476699,3.0873232-3.0571853,0-5.5984103-1.0572364-7.621264-3.1705037-2.0228537-2.1144728-3.0342805-4.62556-3.0342805-7.5332614,0-1.9481118.4713563-3.7383011,1.4140688-5.3729791.941507-1.6334724,2.2374353-2.9281952,3.8865794-3.8841684,1.6479386-.9547677,3.4236618-1.4321515,5.3271695-1.4321515Zm-.042193,3.7937548c-1.8842195,0-3.4694713.6558-4.7533445,1.9661945-1.2850787,1.3103945-1.927618,2.9776213-1.927618,4.9992695,0,2.2519015.8089004,4.0336522,2.4267011,5.3440467,1.2561463,1.0246875,2.6979419,1.5370313,4.3241813,1.5370313,1.8384099,0,3.4043736-.6642386,4.6990964-1.9939213,1.2935173-1.3296827,1.9408787-2.9679772,1.9408787-4.9148835,0-1.9396732-.6521835-3.5803787-1.9553449-4.9233221-1.3031614-1.3429434-2.8872077-2.0144151-4.75455-2.0144151Z"/>
      </g>
    </g>
  </g>
</svg>