<?xml version="1.0" encoding="UTF-8"?>
<svg id="_レイヤー_2" data-name="レイヤー 2" xmlns="http://www.w3.org/2000/svg" viewBox="0 0 325 110">
  <defs>
    <style>
      .cls-1 {
        fill: #040000;
        stroke-width: 0px;
      }
    </style>
  </defs>
  <g id="_レイヤー_1-2" data-name="レイヤー 1">
    <g>
      <path class="cls-1" d="m19.0588658,30.3286721h9.5425971l19.0120597,49.3284994h-9.7795531l-3.8673554-10.1599892H13.7990284l-4.0224007,10.1599892H0L19.0588658,30.3286721Zm4.8298062,13.0766068l-6.6318417,16.9362349h13.2256535l-6.5938118-16.9362349Z"/>
      <path class="cls-1" d="m79.8283129,37.0348489l-6.9682607,6.136867c-2.4456196-3.3983412-4.9380454-5.0975118-7.4714264-5.0975118-1.2345113,0-2.2466936.3299077-3.0306961.9897231-.7869278.6598154-1.1789291,1.4013778-1.1789291,2.2305264,0,.826229.2808367,1.608665.8425101,2.3473079.7635248.983884,3.0628753,3.0947094,6.9009769,6.3383151,3.5894441,2.9954451,5.7659286,4.8843856,6.5294533,5.6668216,1.9073493,1.9210554,3.2588759,3.7603638,4.0545799,5.5150056.7986294,1.7575614,1.1964814,3.6727777,1.1964814,5.7514881,0,4.0464785-1.4012581,7.3893485-4.2066998,10.02861-2.8025163,2.636342-6.4563188,3.9559728-10.9643329,3.9559728-3.5221603,0-6.587961-.8612635-9.2003274-2.5808708-2.6123664-1.7225269-4.8502839-4.4289378-6.710827-8.1163132l7.9073084-4.7617651c2.3783358,4.3588689,5.1164937,6.5397632,8.2115482,6.5397632,1.614811,0,2.9721884-.4700455,4.0721322-1.4101364,1.0999438-.9371714,1.6499156-2.0232392,1.6499156-3.2523644,0-1.1181827-.4154043-2.2363654-1.2462129-3.3545482-.8308086-1.1152632-2.6591725-2.8261119-5.4850919-5.1296267-5.3856289-4.3822252-8.8639084-7.7630492-10.4348387-10.1453915-1.5709303-2.3794228-2.3578582-4.755926-2.3578582-7.1236706,0-3.4216975,1.3076459-6.3558323,3.9200123-8.805324,2.6123664-2.4465721,5.8361377-3.6698582,9.6742393-3.6698582,2.4660973,0,4.8151793.5693097,7.047246,1.7079292,2.2320667,1.141539,4.6484325,3.2202495,7.2490974,6.2390508Z"/>
      <path class="cls-1" d="m112.0109239,29.0878688c6.9945891,0,13.0062498,2.5253996,18.0379074,7.5791184,5.034583,5.0507992,7.5504118,11.2110226,7.5504118,18.4777505,0,7.196659-2.4836496,13.289733-7.4480234,18.2763024-4.9672992,4.9836499-10.9906614,7.4769346-18.073012,7.4769346-7.4187696,0-13.5854755-2.5604341-18.494267-7.6783827-4.9087915-5.1208681-7.3631873-11.202264-7.3631873-18.2441875,0-4.717972,1.1438245-9.0534846,3.4314735-13.012377,2.2847236-3.9559728,5.4295096-7.0915557,9.4314326-9.4067486,3.9989976-2.3122734,8.3080858-3.4684101,12.9272645-3.4684101Zm-.1023884,9.1877833c-4.5723726,0-8.4192503,1.5882282-11.5347825,4.7617651-3.1184576,3.1735369-4.6776863,7.2112567-4.6776863,12.1073205,0,5.4536954,1.9629315,9.7687712,5.8887946,12.9423081,3.0482484,2.4816066,6.5470056,3.7224098,10.4933464,3.7224098,4.461208,0,8.2612797-1.608665,11.4031403-4.8289144,3.1389352-3.2202495,4.7098655-7.1879004,4.7098655-11.9029529,0-4.6975352-1.5826318-8.6710253-4.7449701-11.9233896-3.1623383-3.2523644-7.0062907-4.8785465-11.5377079-4.8785465Z"/>
      <path class="cls-1" d="m144.4690009,79.6571715V30.3286721h7.7698154c4.5080142,0,7.80492.2890342,9.8907176.8700221,2.9604869.782436,5.3183451,2.2363654,7.0677237,4.3617885,1.7493786,2.1225035,2.6240679,4.6274664,2.6240679,7.5090495,0,1.8801819-.397852,3.5851916-1.193556,5.1150291-.795704,1.532757-2.088723,2.9691693-3.8819823,4.3092368,3.0014423,1.4101364,5.1984044,3.1706173,6.5850356,5.2814427,1.3895566,2.1137449,2.0857976,4.6128687,2.0857976,7.4944518,0,2.7735603-.7196441,5.2989599-2.1530814,7.5791184-1.4363627,2.2801585-3.2852043,3.9851682-5.5523756,5.1150291-2.2642459,1.1298609-5.3914796,1.6933315-9.3846265,1.6933315h-13.8575361Zm9.4080295-40.3771985v10.3964717h2.0565438c2.2934997,0,3.9989976-.4788041,5.1106429-1.4422513,1.1145707-.9605277,1.6703933-2.2684804,1.6703933-3.9238579,0-1.5415156-.5294942-2.7648017-1.5855572-3.6698582-1.0589884-.9050565-2.6650233-1.3605043-4.8239554-1.3605043h-2.4280673Zm0,18.7813824v12.6415958h2.3578582c3.9083108,0,6.5411549-.4904822,7.9014577-1.4743663,1.3573774-.983884,2.0389915-2.4144572,2.0389915-4.2917196,0-2.125423-.7986294-3.8012373-2.3929627-5.0303625-1.5943334-1.2291251-4.2447297-1.8451475-7.9511892-1.8451475h-1.9541554Z"/>
      <path class="cls-1" d="m205.7245416,29.0878688c6.9945891,0,13.0062498,2.5253996,18.0379074,7.5791184,5.034583,5.0507992,7.5504118,11.2110226,7.5504118,18.4777505,0,7.196659-2.4836496,13.289733-7.4480234,18.2763024-4.9672992,4.9836499-10.9906614,7.4769346-18.073012,7.4769346-7.4187696,0-13.5854755-2.5604341-18.494267-7.6783827-4.9087915-5.1208681-7.3631873-11.202264-7.3631873-18.2441875,0-4.717972,1.1438245-9.0534846,3.4314735-13.012377,2.2847236-3.9559728,5.4295096-7.0915557,9.4314326-9.4067486,3.9989976-2.3122734,8.3080858-3.4684101,12.9272645-3.4684101Zm-.1023884,9.1877833c-4.5723726,0-8.4192503,1.5882282-11.5347825,4.7617651-3.1184576,3.1735369-4.6776863,7.2112567-4.6776863,12.1073205,0,5.4536954,1.9629315,9.7687712,5.8887946,12.9423081,3.0482484,2.4816066,6.5470056,3.7224098,10.4933464,3.7224098,4.461208,0,8.2612797-1.608665,11.4031403-4.8289144,3.1389352-3.2202495,4.7098655-7.1879004,4.7098655-11.9029529,0-4.6975352-1.5826318-8.6710253-4.7449701-11.9233896-3.1623383-3.2523644-7.0062907-4.8785465-11.5377079-4.8785465Z"/>
    </g>
    <g>
      <path class="cls-1" d="m50.604554,104.5008914c-1.044693,1.5743002-2.4000498,2.9490773-4.0886107,4.1244537l-.3557444-.3992905c1.9561043-1.6629363,3.3996622-3.5033894,4.3110735-5.5436101h-3.5995847l-.1999225-.5099329h3.9327888v-2.350386c1.2436354.0665077,1.8884834.2216515,1.8884834.4434252,0,.1330153-.2665633.2881592-.7781297.465676v1.4412848h2.0227451l.8437905-1.1087465c.4439455.4657982.8222302.8648443,1.1113338,1.2638903l-.2224628.3547891h-3.7554066v.7983366c2.2442279.8204651,3.3555616,1.6631808,3.3555616,2.616539,0,.4435475-.1999225.6653212-.5997674.6653212-.1999225,0-.399845-.1552661-.5997674-.4878044-.5115663-.8205873-1.2005149-1.5744224-2.1560268-2.1952422v5.7652616h-1.1103538v-5.3439648Zm1.0887935-5.5436101c.5105863-1.1752541.888871-2.372759,1.1769946-3.5922701,1.1113338.3991683,1.6670007.7317067,1.6670007.9757311,0,.1551438-.245003.24378-.7996899.2660307-.2891036.6208198-.8006699,1.3969056-1.4445379,2.3505083h1.9110237l.8212502-1.1531257c.400825.4212968.7340291.8425935,1.0221527,1.2638903l-.2214827.3992905h-9.1983941l-.2009025-.5100552h5.2665854Zm-1.0887935-4.2797198v-2.7273036c1.2661757.0442569,1.9110237.2216515,1.9110237.4878044,0,.1551438-.2665633.3325384-.8006699.5099329v1.7295663h2.0227451l.7996899-1.1973826c.399845.3770398.7330491.7539574.9770721,1.1087465l.1558219.1996453-.244023.3767953h-8.3105031l-.2214827-.4878044h3.710326Zm-2.4000498.7539574c1.3778971.8204651,2.0884059,1.7074378,2.0884059,2.5944105,0,.5100552-.244023.7318289-.7105088.7318289-.3116439,0-.4890261-.2217737-.5331266-.7095782-.0666408-.7318289-.4223852-1.5079148-1.1338741-2.3062513l.2891036-.3104099Zm9.510038,4.1465822v.3326606c0,2.1066061-.1999225,3.90268-.5997674,5.3662156-.4890261,1.7516947-1.3553568,3.2373588-2.5999723,4.501249l-.399845-.3325384c1.0662532-1.529921,1.7777421-3.2818602,2.1109462-5.233078.2214827-1.3748994.3332041-2.9713281.3332041-4.8117812v-5.6766254c.5331266.1772723.9555119.3767953,1.3102763.5320614,1.5778196-.4878044,2.8890759-1.1308749,3.9994296-1.9957192.888871.5765628,1.3553568.9978596,1.3553568,1.2196333,0,.1330153-.1107414.199523-.3547644.199523-.1783622,0-.3557444-.0221285-.5782072-.0886361-1.3328165.4879267-2.821455.9092235-4.5766568,1.2195111v4.2797198h4.5325562l.9329716-1.3082695c.5115663.4434252.9329716.9092235,1.2661757,1.3747772l-.1999225.4212968h-2.7107136v10.0228529h-1.1554343v-10.0228529h-2.6656331Z"/>
      <path class="cls-1" d="m78.9494457,97.6046326v.8203428c0,1.5966732-.5556669,2.8383127-1.6444604,3.7254077,1.0221527.1107646,1.532739.2882814,1.532739.5320614,0,.1331376-.244023.2882814-.7330491.4435475v.7983366h6.043735l1.0221527-1.0643673c.4223852.2882814.888871.6873275,1.3778971,1.1973826l-.2224628.3547891h-7.7763965c.0441005.0442569.0666408.0665077.1107414.0887584,2.0217651,1.5964286,4.7991196,2.616539,8.0655001,3.3038664-.4223852.3547891-.7555894.7539574-.9114113,1.2196333-3.2654005-1.0421165-5.8428325-2.5057744-7.7097557-4.3239768v5.1444418h-1.1554343v-4.4571144c-2.1325065,1.8404531-4.8657604,3.1709733-8.220342,4.0136891l-.2224628-.4879267c3.3104811-1.0422388,5.9545539-2.5721598,7.8655776-4.5013713h-7.4657326l-.2224628-.4878044h8.2654226v-1.5079148c-.5331266.3547891-1.2220752.6653212-2.0217651.9313519l-.2224628-.4212968c2.0893859-.9536027,3.1330989-2.4392667,3.1330989-4.4792428v-1.8404531c.245003.1108869.6223077.2660307,1.1328941.5100552h3.2889208l.5556669-.5988136c.7105088.4878044,1.0662532.8205873,1.0662532.9757311,0,.0665077-.0441005.1108869-.1558219.1773945l-.399845.2660307v3.1265941c0,.3326606.244023.4878044.7114888.4878044.4214052,0,.6879685-.1330153.7771496-.4212968.1558219-.4212968.2665633-1.1086242.3116439-2.0399761l.5105863.1773945c-.0225403.1773945-.0225403.3547891-.0225403.5321836,0,1.1308749.245003,1.6630586.7114888,1.6409301,0,.4878044-.1783622.7760859-.5115663.9091012-.2665633.1330153-.7555894.1773945-1.4886385.1773945-.7771496,0-1.288716-.0665077-1.5768396-.1773945-.3332041-.1330153-.4890261-.4212968-.4890261-.9091012v-3.8361723h-3.3104811Zm-3.3104811-3.7252854l.8663308-1.1530034c.4223852.3547891.7996899.7982143,1.1328941,1.2638903l-.244023.3769176h-4.1552516c1.0221527.5986913,1.5111788,1.1975049,1.5111788,1.8183247,0,.4878044-.2224628.7318289-.6664083.7318289-.3557444,0-.5341066-.2217737-.6007475-.6430705-.1107414-.7540796-.4664858-1.3526487-1.0211727-1.9070831h-.4674658c-.7771496,1.3526487-1.8218426,2.5056521-3.1105586,3.4813832l-.3547644-.3547891c1.4886385-1.5077925,2.5989923-3.4147533,3.3104811-5.7652616,1.1769946.2217737,1.7552018.4434252,1.7552018.6873275,0,.1773945-.2665633.3105321-.8663308.3991683-.1558219.4212968-.3116439.7760859-.4449255,1.0643673h3.3555616Zm-2.1109462,4.2574691v2.8383127c1.0887935-.1773945,2.1991473-.3991683,3.3104811-.6430705l.0666408.4879267c-2.2442279.7538351-4.4218149,1.330398-6.5543213,1.7516947-.1117214.4655537-.2224628.7095782-.3557444.7095782-.2665633,0-.5331266-.5988136-.8222302-1.7516947.7781297-.0887584,1.8669232-.1996453,3.2663805-.3992905v-2.9934565h-2.6215325l-.1783622-.4879267h5.1774042l.8437905-.9978596c.4664858.421419.8447705.7983366,1.1113338,1.1531257l-.2224628.3326606h-3.0213775Zm10.6644923-4.2574691l.9339516-1.2195111c.4439455.399046.8663308.8425935,1.2661757,1.330398l-.2224628.3769176h-5.64389c1.1554343.5544344,1.7111012,1.1309972,1.7111012,1.7295663,0,.4435475-.2224628.6653212-.643868.6653212-.3332041,0-.5331266-.1552661-.5997674-.4657982-.1332817-.7538351-.5341066-1.3746549-1.2446154-1.9290893h-.3332041c-.6889485.9534804-1.4886385,1.7739455-2.4882509,2.4391444l-.3332041-.2882814c1.3328165-1.3969056,2.2657881-2.9713281,2.7548142-4.7452735,1.1103538.1775168,1.6660207.3991683,1.6660207.6653212,0,.1551438-.2665633.2882814-.7771496.399046-.1558219.4212968-.3332041.7539574-.5115663,1.0422388h4.4659154Zm-4.5325562,4.3239768c1.0887935.8204651,1.6444604,1.6188016,1.6444604,2.4391444,0,.4878044-.2224628.7318289-.6889485.7318289-.3106639,0-.5105863-.2440245-.5105863-.7983366-.0225403-.7760859-.2891036-1.4634133-.7781297-2.1064838l.3332041-.2661529Z"/>
      <path class="cls-1" d="m91.1848976,101.3520465c2.7548142-2.2840006,4.755019-5.2553287,6.0211947-8.9139842,1.1995349.4212968,1.8002823.7538351,1.8002823,1.0198658,0,.1775168-.2675433.3105321-.8447705.4435475-.9996124,2.0844776-2.0658656,3.7696646-3.2213,5.0335549-.9114113.9757311-2.0227451,1.9292115-3.4222025,2.8161842l-.3332041-.3991683Zm3.2438403-1.0199881l-.1558219-.5099329h9.1993742l.7546094-.887095c.7781297.5988136,1.1779746.9978596,1.1779746,1.1973826,0,.0887584-.0666408.1996453-.1999225.2882814l-.4223852.3105321c-.0215603,3.9248085-.3332041,6.474962-.9770721,7.6500939-.4223852.7983366-1.2220752,1.1973826-2.333409,1.1973826,0-.399046-.2665633-.6873275-.7555894-.8868505-.3773047-.1552661-1.0887935-.3327829-2.1109462-.4879267v-.5321836c1.3337966.1773945,2.4000498.2660307,3.1330989.2660307.6889485,0,1.1554343-.4212968,1.3553568-1.2416396.3332041-1.3970279.5115663-3.5257624.5331266-6.3640751h-4.754039c-.2009025,2.3948875-.7555894,4.3239768-1.7111012,5.7652616-1.0221527,1.5744224-2.6215325,2.7940558-4.8216598,3.703157l-.2891036-.4435475c2.333409-1.2416396,3.9327888-2.9713281,4.7324787-5.1000626.4449255-1.1751319.7114888-2.5056521.8222302-3.9248085h-3.1771994Zm7.4431924-7.8939961c1.8443829,3.2152303,4.0886107,5.6101178,6.7326836,7.1844179-.399845.2882814-.7330491.6874497-1.044693,1.2195111-1.9551243-1.529921-3.5545041-3.3261172-4.755019-5.3660933-.4439455-.7760859-.9329716-1.7074378-1.4435579-2.7495543l.5105863-.2882814Z"/>
      <path class="cls-1" d="m117.5521248,95.9859532l.9114113-1.0422388c.4439455.3547891.8663308.7539574,1.2436354,1.1973826l-.1999225.3547891h-6.3543989l-.1999225-.5099329h4.5991971Zm-.5997674,2.5056521l.7996899-1.0199881c.399845.2882814.7996899.6873275,1.2005149,1.1751319l-.2224628.3326606h-4.8442001l-.1999225-.4878044h3.2663805Zm.0225403,2.4835236l.7771496-.9978596c.399845.3104099.7996899.6874497,1.2005149,1.1308749l-.2675433.3769176h-4.7765793l-.2224628-.5099329h3.2889208Zm.3332041,2.5500313l.643868-.7982143c.7781297.5985691,1.1779746.9978596,1.1779746,1.1973826,0,.0665077-.0441005.1330153-.1558219.199523l-.4223852.2440245v5.4769802h-1.0878135v-1.286141h-2.6440728v1.286141h-1.1113338v-6.9183873c.1332817.0442569.5556669.2439022,1.2446154.5986913h2.3549692Zm-.2665633-10.0449814l.7996899-1.0643673c.399845.3325384.7996899.7318289,1.2220752,1.1973826l-.1999225.3547891h-4.8657604l-.1999225-.4878044h3.2438403Zm-2.2216876,10.5549143v4.0358176h2.6440728v-4.0358176h-2.6440728Zm10.5978515-.7095782c-.4664858.4657982-1.044693.9536027-1.6660207,1.4636578v3.1265941c.888871-.1552661,1.9100437-.3992905,3.0439178-.687572l.1332817.4879267c-1.9551243.7539574-3.710326,1.2860188-5.3332262,1.6188016-.0666408.443303-.1999225.6650767-.3332041.6650767-.244023,0-.5105863-.5320614-.7546094-1.6186794.7546094-.0887584,1.4660982-.1552661,2.1325065-.2660307v-2.5945328c-1.0221527.5544344-2.2442279.9978596-3.6436852,1.3971501l-.245003-.4657982c2.1560268-.7317067,3.8886883-1.7739455,5.1999445-3.1265941h-4.5991971l-.1999225-.5099329h3.2213v-1.6188016h-2.0884059l-.1999225-.4878044h2.2883284v-1.4634133h-2.5333314l-.1773822-.5100552h2.7107136v-1.8627039c1.2220752.0887584,1.8443829.2661529,1.8443829.5323059,0,.1551438-.2665633.3325384-.7555894.4878044v.8425935h2.9547367v-1.9069608c1.2005149.0887584,1.8002823.2660307,1.8002823.5100552,0,.1551438-.245003.2882814-.7114888.4434252v.9534804h1.3112563l.7555894-.9091012c.3547644.3104099.6664083.665199.9770721,1.0421165l-.2214827.3770398h-2.822435v1.4634133h1.044693l.7771496-.9313519c.2224628.1996453.5556669.5544344.9780521,1.0201103l-.2224628.399046h-2.577432v1.6188016h1.7552018l.7330491-.9312297c.4223852.3767953.7555894.7095782,1.0005924,1.0421165l-.2224628.399046h-4.7099384c.3332041.9092235.8212502,1.7296885,1.4219976,2.4835236.7105088-.6430705,1.3769171-1.3746549,1.9551243-2.1952422.8663308.5544344,1.288716.9313519,1.288716,1.1531257,0,.1552661-.1558219.199523-.4449255.199523l-.4439455-.0442569c-.4890261.399046-1.1338741.8203428-2.0217651,1.2638903.8212502.8869727,2.0217651,1.685187,3.5986047,2.3726368-.399845.3547891-.7105088.7317067-.9329716,1.0643673-2.577432-1.4412848-4.2659929-3.5257624-4.999042-6.2975675h-.0666408Zm-5.9770942-6.0979222c1.4886385-.6650767,2.6666131-1.485664,3.5329438-2.4612729.9780521.3770398,1.4445379.6873275,1.4445379.8869727,0,.1773945-.2665633.2661529-.8222302.2661529h-.0225403c-1.1103538.7315844-2.4216101,1.2860188-3.8436077,1.685187l-.2891036-.3770398Zm4.9774818-3.2152303v-2.1066061c1.2436354.0222507,1.8659432.1552661,1.8659432.4212968,0,.1331376-.244023.2882814-.7330491.4657982v1.2195111h3.2438403l.9329716-1.1087465c.4223852.3770398.8222302.7983366,1.1779746,1.2418841l-.1999225.3767953h-10.798754l-.244023-.5099329h4.755019Zm-.9555119,5.2332002v1.4634133h2.9547367v-1.4634133h-2.9547367Zm0,1.9512177v1.6188016h2.9547367v-1.6188016h-2.9547367Zm2.9331764-6.3417022c1.4886385.2660307,2.5989923.6208198,3.3545816,1.0643673.5556669.3325384.8222302.6430705.8222302.9756089,0,.3770398-.1999225.5765628-.5782072.5765628-.1548419,0-.3332041-.0887584-.4880461-.2661529-.8222302-.8204651-1.933564-1.4635356-3.3330214-1.9290893l.2224628-.4212968Z"/>
      <path class="cls-1" d="m139.809181,98.2698316c0,.1551438-.245003.3326606-.7781297.5321836v11.042841h-1.1779746v-10.2667551c-.8212502,1.3748994-1.688561,2.6387897-2.6215325,3.7696646l-.399845-.3105321c2.0884059-3.0599642,3.6662255-6.7409927,4.755019-11.0869757,1.288716.3325384,1.932584.6429483,1.932584.9312297,0,.1773945-.3106639.3104099-.9329716.4212968-.4664858,1.552294-1.0662532,3.037958-1.7777421,4.4792428.6664083.1108869,1.0005924.2661529,1.0005924.4878044Zm7.1099882,4.3461052v5.6766254h3.9318088l1.0221527-1.4634133c.4664858.4212968.9114113.9313519,1.3778971,1.5521717l-.244023.3991683h-12.6872374l-.244023-.4879267h5.6213498v-5.6766254h-4.355174l-.2224628-.4878044h4.5776368v-4.7895305h-4.9108409l-.2224628-.5100552h9.7766013l.9555119-1.3526487c.5556669.5100552.9996124.9978596,1.3112563,1.4634133l-.2224628.3992905h-5.4655278v4.7895305h2.7989147l.9329716-1.330398c.4674658.4435475.888871.9313519,1.288716,1.4414071l-.2214827.3767953h-4.7991196Zm-2.9557167-10.6436727c2.2216876,1.1088687,3.3555616,2.173236,3.3555616,3.2376033,0,.5320614-.245003.7760859-.7340291.7760859-.3332041,0-.5546869-.2661529-.7330491-.7760859-.3106639-.9757311-1.0662532-1.9070831-2.177587-2.8163065l.2891036-.4212968Z"/>
      <path class="cls-1" d="m165.8206638,95.1653659v-3.1931018c1.3778971.0222507,2.0658656.1775168,2.0658656.4879267,0,.1551438-.3106639.3547891-.887891.5544344v2.1507408h6.1093958l.8447705-1.0198658c.9996124.9312297,1.5111788,1.529921,1.5111788,1.8182024,0,.1552661-.0891811.2217737-.2891036.2440245l-.6664083.1107646c-.5331266.6653212-1.1338741,1.3526487-1.8884834,2.0179699l-.3782847-.2882814c.399845-.7540796.7330491-1.5301655.9329716-2.372759h-13.131183v.3770398c0,.9533581-.1773822,1.7295663-.4890261,2.3505083-.2881236.5320614-.5997674.7982143-.9996124.7982143-.1773822,0-.3773047-.0886361-.5556669-.2661529-.1548419-.1330153-.2214827-.2882814-.2214827-.4655537,0-.2217737.1332817-.4435475.3773047-.7095782.7330491-.7318289,1.1113338-1.8849546,1.2220752-3.4148756l.5115663.0442569c.0666408.3326606.0882011.5765628.1107414.7760859h5.8212722Zm-.9555119,4.3906067c-1.9992248.4878044-3.9327888.8869727-5.8212722,1.1752541l-.2665633-.4878044c4.4884557-.8648443,8.1321409-2.0400984,10.8869551-3.5478909.9996124.5765628,1.5111788.9978596,1.5111788,1.2416396,0,.1110091-.1558219.1775168-.4223852.1775168-.1999225,0-.4439455-.0445015-.7105088-.0887584-1.3337966.4878044-2.6666131.9091012-3.9778694,1.2417618v3.7252854l6.3102983-.8648443.9780521-1.529921c.5546869.3547891,1.1328941.7982143,1.7552018,1.330398l-.2224628.4212968-8.8210895,1.1973826v3.90268c0,.3547891.1117214.5543121.3332041.6653212.2665633.0665077,1.288716.1330153,3.0439178.1330153,1.7336415,0,2.7557942-.0665077,3.0889983-.1773945.4664858-.1773945.8437905-1.2417618,1.043713-3.1931018l.5341066.2439022c-.0225403.2660307-.0225403.5765628-.0225403.8869727,0,.9092235.0891811,1.485664.2224628,1.7074378.0882011.1773945.2881236.2439022.6213277.2439022-.0666408.7095782-.4214052,1.086618-1.0662532,1.1752541-.6889485.1108869-2.0658656.1773945-4.0876307.1773945-2.5558717,0-4.0219699-.0887584-4.4002546-.3105321-.3547644-.199523-.5105863-.6208198-.5105863-1.2860188v-3.9913161l-6.7993244.9312297-.2665633-.5321836,7.0658877-.9534804v-3.6143986Z"/>
      <path class="cls-1" d="m197.0320911,91.9057564l.5997674.5988136-17.2638942,17.2293993-.6007475-.5986913,17.2648743-17.2295216Z"/>
      <path class="cls-1" d="m219.910475,98.9350305c-.3557444.3105321-.6664083.7095782-.9114113,1.2196333-3.4437627-1.6409301-6.1544764-3.8139216-8.1321409-6.5635982-.7996899,1.1530034-1.5101987,2.0622269-2.1325065,2.7274258-1.7336415,1.8183247-3.8886883,3.3483679-6.5327611,4.5234998l-.2665633-.4212968c2.577432-1.4191564,4.7109185-3.1931018,6.3543989-5.3439648.6664083-.8869727,1.3553568-1.95134,2.0668456-3.1931018,1.1103538.2882814,1.6660207.5765628,1.6660207.8427158,0,.1551438-.2665633.2660307-.8222302.3767953,2.4892309,2.7052974,5.399867,4.6567596,8.7103481,5.8318915Zm-8.5545262,5.3662156v4.0358176h5.0215823l1.0887935-1.3971501c.5105863.3992905.9996124.9092235,1.4886385,1.5079148l-.2224628.3991683h-15.6645144l-.2214827-.5099329h7.331471v-4.0358176h-4.8206798l-.245003-.5099329h5.0656829v-3.6809062h-4.9539615l-.1783622-.5100552h9.1317533l.9780521-.9313519c.4439455.2882814.9329716.6430705,1.3994574,1.0421165l-.244023.3992905h-4.9549415v3.6809062h2.8439953l.9780521-1.1753764c.3106639.2882814.7771496.7095782,1.3328165,1.3083917l-.1999225.3769176h-4.9549415Z"/>
      <path class="cls-1" d="m228.5914227,107.3169534v-.9756089c1.0662532-1.3748994,2.4441503-2.9270711,4.0660705-4.6345089,2.0443054-2.150863,3.0664581-3.8583008,3.0664581-5.1443195,0-.7983366-.245003-1.4636578-.7114888-2.0179699-.5105863-.5543121-1.1554343-.8203428-1.932584-.8203428-.8663308,0-1.6219201.2660307-2.2216876.8203428-.3116439.2882814-.4890261.6653212-.5782072,1.086618.4664858.2217737.6889485.5543121.6889485,1.0198658,0,.7095782-.3557444,1.086618-1.0662532,1.086618-.7114888,0-1.0887935-.399046-1.0887935-1.1973826s.2881236-1.5079148.888871-2.1287345c.8663308-.8869727,1.9992248-1.330398,3.4212225-1.330398.8447705,0,1.6219201.1772723,2.2883284.5099329,1.2446154.665199,1.8443829,1.7074378,1.8443829,3.1044657,0,.8868505-.3557444,1.8182024-1.044693,2.771805-.4214052.5543121-1.2661757,1.4191564-2.5548917,2.5942882-1.7993023,1.6409301-3.0664581,3.0158295-3.866148,4.0579461h4.8442001c.9996124,0,1.688561-.2660307,2.0217651-.8425935.2224628-.3547891.3557444-.9536027.4890261-1.7961962h.4664858v3.8361723h-9.0210119Z"/>
      <path class="cls-1" d="m248.6503116,93.4359219h.9780521v9.3131525h2.9106361v.9534804h-2.9106361v1.6186794c0,.6653212.1773822,1.086618.5331266,1.286141.2665633.1552661.7105088.2440245,1.3112563.2660307v.4435475h-5.1107634v-.4435475c.8663308-.0442569,1.4445379-.199523,1.688561-.4655537.1773822-.2217737.2665633-.5765628.2665633-1.086618v-1.6186794h-6.7983444v-.8425935l7.1315485-9.4240394Zm-.3332041,1.7739455l-5.7320911,7.539207h5.7320911v-7.539207Z"/>
      <path class="cls-1" d="m263.1976122,100.3320584c-.5997674,1.9070831-1.4445379,3.7475362-2.4882509,5.4992309l-.4664858-.3325384c1.3769171-2.5500313,2.3324289-5.4105948,2.9106361-8.6480758h-2.5558717l-.1773822-.5099329h2.7773545v-4.3904844c1.3553568.0442569,2.0217651.2216515,2.0217651.5543121,0,.1772723-.3106639.3547891-.9104313.5320614v3.3041109h1.1995349l.8222302-1.1308749c.4214052.399046.7771496.8425935,1.1103538,1.3081472l-.1999225.3326606h-2.9321964v2.2173707c.7996899.5100552,1.3994574,1.1308749,1.8659432,1.8184469.3773047.5764406.5997674,1.0643673.5997674,1.4634133,0,.465676-.2224628.7095782-.6889485.7095782-.244023,0-.399845-.1552661-.4664858-.4655537-.1999225-.9092235-.5997674-1.8849546-1.3102763-2.8605634v10.1114891h-1.1113338v-9.5127978Zm9.7315208-2.9934565h2.7557942l.7546094-.887095c.8006699.620942,1.2005149,1.0201103,1.2005149,1.1973826,0,.0887584-.0666408.1331376-.1783622.2217737l-.4664858.2882814v5.5658608h-1.1328941v-.8205873h-2.821455c.0215603.0445015.0666408.0887584.1332817.1552661,1.4435579,1.8183247,3.3320413,3.2596095,5.6654503,4.3462275-.3773047.3104099-.6664083.7095782-.888871,1.1973826-2.1109462-1.286141-3.7769669-2.9270711-5.0215823-4.9670473v6.2088091h-1.1103538v-5.4327232c-1.533719,1.8627039-3.466303,3.4591325-5.8212722,4.7675242l-.3332041-.4212968c2.4657106-1.6188016,4.4208349-3.5701416,5.8879131-5.8541422h-2.5333314v.9978596h-1.1328941v-7.2953048c.4880461.2439022.9104313.4878044,1.3102763.7318289h2.6225125v-2.173236h-4.8442001l-.1999225-.4878044h5.0441226v-2.7273036c1.2661757.0220062,1.9100437.199523,1.9100437.443303,0,.1552661-.2665633.3547891-.7996899.5544344v1.7295663h3.3996622l.9996124-1.2416396c.5782072.5320614,1.0221527.9756089,1.288716,1.3081472l-.1999225.4212968h-5.4880681v2.173236Zm-1.1103538.4878044h-2.7998947v1.9512177h2.7998947v-1.9512177Zm0,2.4612729h-2.7998947v2.1066061h2.7998947v-2.1066061Zm1.1103538-2.4612729v1.9512177h2.9331764v-1.9512177h-2.9331764Zm0,2.4612729v2.1066061h2.9331764v-2.1066061h-2.9331764Z"/>
    </g>
    <g>
      <g>
        <path class="cls-1" d="m64.7542512,3.7019704c-.1243053.3016838-.2005835.6259234-.3503148.9276072-.1243053.2734891-.1243053.6484792-.2740366.9247877-.1271304.3016838-.2768617.6005481-.4265931.8768567-.1525565.2988643-.4265931.499047-.5791495.8007308-.1751574.2734891-.2740366.6005481-.4237679.8740372-.1751574.2763085-.5537234.4257407-.7288809.6766739-.1751574.2763085-.2994627.6005481-.4746201.8514814-.1751574.2734891-.1525565.6992297-.35314.950163-.1751574.2763085-.5254722.4257407-.7260557.6512987-.2768617.3496149-.6780287.4736718-1.0791957.4736718-.2994627,0-.7260557.1015011-1.0029175-.1240569-.2994627-.225558-.4746201-.724605-.5000462-1.0770394-.0508522-.3496149.1497313-.7499803.401167-1.0488446.2005835-.225558.4265931-.4764912.6271766-.7527998.1751574-.2481138.2005835-.6005481.401167-.8740372.1751574-.2763085.5254722-.4257407.7006297-.7274245.1525565-.2481138.2768617-.5751729.4265931-.8486619.1751574-.2763085.2005835-.6259234.3503148-.9276072.1525565-.2734891.3277139-.5497976.4520191-.8261061.1497313-.2988643.4520191-.5497976.5763244-.8261061-.3503148-.0225558-.7260557-.0479311-1.0537696-.0479311-.3503148,0-.7006297-.1494322-1.0509445-.1494322s-.7034548.0479311-1.0537696.0479311-.7034548.0507505-1.0283435.0507505c-.3503148,0-.7006297.1240569-1.0537696.1494322-.3248888,0-.6752036-.225558-1.0283435-.225558-.3503148,0-.6752036.3778096-1.0255184.3778096-.35314,0-.7034548-.1015011-1.0283435-.0761258-.35314,0-.7034548.0761258-1.0283435.0761258-.3503148.0225558-.7034548-.0761258-1.0537696-.0761258-.3503148.0253753-.6780287.1240569-1.0283435.1494322-.3503148.0253753-.7006297-.0986816-1.0283435-.0986816-.3757409.0253753-.7260557-.0507505-1.0029175-.2763085-.2486105-.2509333-.6017505-.5751729-.6243514-.950163-.0254261-.3749901.1243053-.8768567.3503148-1.1277899.2486105-.2734891.7260557-.2001827,1.1272227-.225558.3248888-.0225558.6526026-.3496149,1.0283435-.3749901.3248888,0,.7034548.3524343,1.0537696.3270591.3503148-.0253753.7006297-.0253753,1.0509445-.0507505.35314,0,.7034548,0,1.0537696-.0253753.35314,0,.7034548-.0253753,1.0537696-.0507505.3503148,0,.7006297-.2734891,1.0537696-.2988643.3503148,0,.7006297.0253753,1.0537696.0253753.3503148,0,.7006297.1494322,1.0509445.1494322s.7034548.0253753,1.0537696.0253753.7034548.0761258,1.0537696.0761258.7006297-.2763085,1.0509445-.2763085h1.0283435c.35314.0253753.7034548,0,1.0537696.0253753.3503148,0,.7034548.1494322,1.0283435.1748074.4520191,0,.82776.225558,1.0791957.6005481.2231845.3749901.3248888.7753556.1751574,1.2010963-.1017043.2988643-.2005835.6005481-.3277139.8994125Zm-7.8962093,4.7057034c-.0508522.3242396-.2260096.6512987-.2768617.9755383s-.0988792.6512987-.1497313,1.0009135c-.0508522.3242396-.1497313.6512987-.2005835.9755383s-.1017043.6512987-.1751574,1.0009135c-.0508522.3270591-.1525565.6512987-.2005835.9755383-.0762782.3270591-.0254261.6766739-.1017043,1.0009135-.0734531.3270591-.0988792.6766739-.2005835,1.0009135-.0734531.3270591-.2486105.6259234-.3503148.9529825-.1017043.2988643-.3248888.4003654-.5508983.5751729-.2514356.1748074-.4265931.4736718-.7288809.4736718-.1497313,0-.2740366-.0507505-.401167-.0733063-.3757409-.1268764-.5254722-.451116-.7006297-.778175-.1751574-.2988643-.4265931-.6231039-.3022878-.9980941.0762782-.3016838.35314-.5779923.4520191-.8768567.0762782-.3016838-.1497313-.7020492-.0734531-1.0009135.0734531-.3270591.4746201-.5497976.5254722-.8768567.0734531-.2988643-.1497313-.6738545-.0762782-1.0009135.0508522-.2988643.1017043-.6259234.1497313-.9247877.0508522-.3270591.2514356-.6259234.3022878-.9247877.0508522-.3270591.2260096-.6259234.2514356-.9529825.0508522-.2988643.0254261-.6259234.0734531-.950163.0254261-.3242396.2260096-.6259234.2768617-.9247877.0254261-.3270591-.1017043-.6766739-.0762782-.9783577h-.0254261c.0508522-.4003654.3277139-.6231039.6045756-.8486619.2994627-.225558.5989254-.5018665.9774914-.451116.401167.0507505.6752036.3496149.9012132.6259234.2005835.2988643.401167.6259234.3503148,1.0262888-.0254261.3242396.0508522.6738545,0,1.0009135-.0254261.3242396-.2231845.6484792-.2740366.9755383Z"/>
        <path class="cls-1" d="m80.642724,8.9320961c-.2005835.0761258-.3248888.2001827-.5254722.2001827-.2768617,0-.4265931-.2001827-.6526026-.3496149s-.401167-.2509333-.5028713-.499047c-.1243053-.3016838-.5000462-.5018665-.6243514-.8261061-.1271304-.2763085-.2514356-.6005481-.3757409-.9022319-.1271304-.2988643.0988792-.724605,0-1.0516641-.1271304-.2988643-.5282974-.5244223-.6271766-.8486619-.0762782-.3016838-.0254261-.6766739-.1017043-1.0009135-.0988792-.3016838,0-.6766739-.0734531-1.0009135l-.35314.0733063c-.0988792-.3496149.1497313-.7753556.35314-1.0742199.1977584-.3016838.4746201-.5751729.850361-.6512987.3757409-.1015011.8531861-.1015011,1.1554739.0761258.2994627.1973632.3248888.6484792.4237679,1.0234693.0762782.3524343.35314.6512987.4520191,1.0009135.1017043.3524343.2005835.7020492.3277139,1.0262888.0988792.3496149.2231845.7020492.3503148,1.0262888.1243053.3496149-.0254261.8007308.0988792,1.1024146.1497313.3749901.4265931.6484792.5508983.950163.1525565.3496149.2260096.7499803.1017043,1.0770394-.1497313.3242396-.4774452.499047-.82776.6484792Zm9.376572-5.7291727c-.0734531.3496149-.1497313.6766739-.2486105,1.0009135-.0762782.3242396-.1017043.6738545-.2005835,1.0009135-.0762782.3242396-.1779825.6512987-.2768617.9755383s-.0762782.6992297-.2005835,1.0262888c-.1017043.2988643-.3248888.6005481-.4520191.8994125-.0988792.3270591-.2740366.6259234-.401167.9529825-.1243053.3242396-.0254261.724605-.1497313,1.0234693-.1243053.3270591-.2768617.6259234-.401167.9529825-.1243053.3242396-.3757409.5751729-.5254722.8740372-.1271304.3270591-.2005835.6512987-.35314.9755383-.1243053.3016838-.2005835.6512987-.3503148.9529825-.1497313.2988643-.2994627.6259234-.4520191.9247877-.1497313.3016838-.2005835.6766739-.3503148.9755383-.1497313.3016838-.5254722.4764912-.7006297.7753556,0,.0253753-.0762782-.0479311-.0762782-.0479311-.1243053.2481138-.1497313.5244223-.3757409.6484792-.2005835,0-.4774452-.0733063-.7288809-.0733063-.1977584,0-.4237679.0507505-.6243514-.0507505-.35314-.2001827-.4520191-.5018665-.5537234-.8514814-.0988792-.3496149-.3248888-.724605-.1497313-1.0742199.1497313-.2763085.4265931-.5018665.5508983-.8007308.1525565-.2763085.4774452-.5018665.6017505-.7753556.1525565-.3016838.1271304-.6766739.2768617-.9783577.1243053-.2734891.1017043-.6484792.2514356-.950163.1243053-.2988643.6017505-.451116.7260557-.724605.1243053-.3016838.2260096-.6259234.3503148-.9276072.1017043-.2988643.0254261-.6738545.1271304-.9755383.1243053-.2988643.2260096-.6259234.3503148-.9247877.0988792-.3016838.2260096-.6005481.3503148-.9022319.1017043-.2988643.2514356-.6005481.35314-.8994125.0988792-.3242396.3503148-.5751729.449194-.8768567.1017043-.3242396-.048027-.6992297.0508522-1.0009135.0762782-.3242396.1497313-.6259234.2514356-.950163.0734531-.2988643.3248888-.5751729.401167-.9022319.0988792-.3749901.1751574-.8232866.4746201-.9980941.3022878-.2030022.7543069-.1268764,1.1300478-.0507505.3757409.0986816.6017505.3749901.802334.6992297.1751574.3016838.1751574.6005481.0734531.9529825v.1240569Z"/>
        <path class="cls-1" d="m104.9302774,12.2111452c-.0762782.3496149-.2514356.6738545-.3277139,1.0262888-.0734531.3496149.0254261.7499803-.0508522,1.0995952-.0988792.3524343-.2486105.6766739-.3503148,1.0262888-.1243053.3242396-.2514356.6512987-.401167.9755383-.1243053.2509333-.3248888.3524343-.5508983.5018665-.2260096.1240569-.401167.4257407-.6780287.4257407-.2005835,0-.3503148-.225558-.5508983-.3016838-.3503148-.1494322-.7260557-.3242396-.8531861-.6738545-.1243053-.3270591-.0734531-.778175.1017043-1.1277899.0988792-.2509333.0988792-.5497976.2005835-.8740372.0988792-.2763085.3503148-.5272418.4265931-.8261061.048027-.2763085.1497313-.5779923.2260096-.8768567.048027-.2988643.1751574-.6005481.2231845-.9022319.0508522-.2988643-.1497313-.6484792-.0988792-.9247877.0508522-.3749901.401167-.6512987.7006297-.8514814.2768617-.225558.6017505-.2481138.9774914-.2001827.378566.0507505.7288809.1268764.9548904.4257407.2005835.2763085.1751574.6259234.1243053,1.0009135-.0508522.3524343-.0254261.7020492-.0734531,1.0770394Zm9.8511921-5.0553183c-.2740366.2509333-.6243514.2763085-1.0029175.2763085-.449194,0-.449194.0253753-.9012132.0253753s-.4520191-.1015011-.9040383-.1015011c-.449194,0-.449194.2001827-.9012132.2001827-.4265931,0-.4774452-.2509333-.7769079.0761258-.35314.3749901-.3022878.4257407-.3022878.9247877,0,.5018665.0762782.5018665.0762782,1.0262888,0,.499047-.0254261.499047-.0254261,1.0009135v1.0009135c0,.499047.0762782.499047.0762782,1.0262888v1.0009135c0,.499047.2740366.499047.2740366,1.0009135,0,.499047-.3503148.499047-.3503148,1.0262888,0,.499047.0508522.499047.0508522,1.0009135,0,.3749901.0254261.8007308-.2260096,1.0488446-.2514356.2509333-.6780287.2763085-1.0791957.2763085-.3757409,0-.7514818-.0733063-1.0029175-.3242396-.2514356-.2509333-.2005835-.6259234-.2005835-1.0009135,0-.5018665.0254261-.5018665.0254261-1.0262888,0-.5018665-.2514356-.5018665-.2514356-1.0009135,0-.5018665-.1243053-.5018665-.1243053-1.0262888,0-.499047.2994627-.499047.2994627-1.0009135s-.1243053-.5018665-.1243053-1.0009135-.1243053-.499047-.1243053-1.0262888c0-.499047.2005835-.499047.2005835-1.0009135,0-.499047.048027-.499047.048027-1.0009135,0-.499047.3277139-.7753556-.048027-1.0995952-.401167-.3749901-.6271766.0253753-1.1780749.0253753-.5537234,0-.5537234.0733063-1.1046218.0733063s-.5508983-.1748074-1.1017967-.1748074c-.5537234,0-.5537234.0507505-1.1046218.0507505-.3757409,0-.82776.0507505-1.0791957-.2001827-.2486105-.2509333-.2740366-.7020492-.2740366-1.0770394s.1243053-.724605.3757409-.9755383.6017505-.3496149.9774914-.3496149c.5508983,0,.5508983-.225558,1.1046218-.225558.5508983,0,.5508983.2988643,1.1017967.2988643s.5508983-.0733063,1.1046218-.0733063c.5508983,0,.7514818.3749901,1.1526488-.0253753.3757409-.4003654-.0254261-.6005481-.0254261-1.175721s.1497313-.5751729.1497313-1.1531652c0-.5497976-.3503148-.5497976-.3503148-1.1249704,0-.3749901.4265931-.6259234.6780287-.8768567.2486105-.2481138.5000462-.4736718.8757871-.4736718.401167,0,.82776.0253753,1.0791957.2763085.2514356.2481138.2994627.6992297.2994627,1.0742199,0,.5751729.0508522.5751729.0508522,1.1249704,0,.5779923-.0254261.5779923-.0254261,1.1531652s-.2260096.6005481.1271304,1.0516641c.2740366.3496149.3248888-.0253753.7769079-.0253753.449194,0,.449194.1748074.8757871.1748074.4520191,0,.4520191-.1748074.9040383-.1748074s.4520191-.0253753.9012132-.0253753c.378566,0,.7034548.2988643.9774914.5497976.2514356.2509333.401167.6005481.401167.9755383s-.1243053.7499803-.3757409,1.0009135Zm1.9578079,9.3099057c-.1271304.3242396-.4520191.6992297-.802334.8486619-.1751574.0507505-.4265931-.0253753-.6017505-.0253753-.2768617,0-.5028713-.1748074-.7288809-.3242396-.2005835-.1494322-.4746201-.2734891-.6017505-.5244223-.1243053-.3270591-.401167-.6259234-.5254722-.9755383-.1017043-.3270591-.1497313-.7274245-.2514356-1.0770394-.0988792-.3496149.0254261-.7499803-.0508522-1.1249704-.0988792-.3524343-.4265931-.6259234-.5254722-.9755383-.0762782-.3778096.0762782-.778175-.0254261-1.1277899,0,0-.2514356.2001827-.2768617.1494322-.0988792-.3749901.1271304-.8486619.3022878-1.1503457.1751574-.2988643.4265931-.6738545.802334-.7753556s.7514818.1748074,1.0537696.3496149c.2994627.2001827.4746201.451116.5763244.8261061.0734531.3016838.3757409.5751729.4746201.9022319.0762782.3242396.1525565.6484792.2514356.9755383.0762782.3496149.1017043.6738545.2005835,1.0009135.1017043.3496149.0762782.6992297.1751574,1.0009135.1017043.3496149.5028713.5751729.6017505.8486619.1525565.3524343.1017043.8514814-.048027,1.1785405Zm1.203501-10.5363772c0,.3016838.0734531.6005481.048027.8768567,0,.2988643-.2005835.4257407-.401167.6005481-.2005835.2001827-.3248888.4257407-.6243514.4257407-.0254261,0-.0508522.0986816-.0762782.0986816-.3022878-.0253753-.4520191-.3749901-.6271766-.5751729-.1751574-.225558-.5000462-.4003654-.4774452-.6992297.0254261-.3524343.2005835-.7274245.2005835-1.1277899.0254261-.3749901.1271304-.7753556.1271304-1.1503457s-.1525565-.7753556-.1525565-1.1503457h-.1977584c0-.3016838.401167-.4764912.5989254-.6766739.2034086-.2001827.378566-.4003654.6780287-.4003654.3277139,0,.5763244.1268764.7769079.3242396.2005835.2030022.401167.451116.401167.7527998,0,.2988643-.0988792.6005481-.0988792.8994125,0,.3016838.2005835.6005481.2005835.9022319,0,.2988643-.35314.6005481-.3757409.8994125Zm3.3590672,0c-.0254261.3016838,0,.6005481-.0254261.9022319-.0254261.2734891-.0508522.6512987-.2514356.8486619-.2005835.1776269-.5763244,0-.8757871,0-.0254261,0-.0508522.3016838-.0762782.3016838-.3248888-.0253753-.6780287-.2001827-.8531861-.4257407-.2005835-.225558-.2005835-.6005481-.1751574-.8994125.0254261-.3524343-.0508522-.7274245-.0508522-1.1277899,0-.3749901.2768617-.7753556.2768617-1.1503457v-1.1503457c0-.3016838-.1243053-.6766739.0762782-.8768567s.5763244-.1494322.8757871-.1494322c.3277139,0,.6271766,0,.8531861.2001827.2005835.2001827.4265931.5244223.4265931.8261061,0,.2988643-.3022878.6005481-.3022878.8994125,0,.3016838.3277139.6005481.3277139.9022319,0,.2988643-.2260096.6005481-.2260096.8994125Z"/>
      </g>
      <g>
        <path class="cls-1" d="m145.5049832,6.7655349c.2753834,3.3581484.9947123,6.040217,2.2432478,8.004394.6566081,1.013753,1.1005537,1.5206295,1.3543768,1.5206295.3175239,0,.6134876-1.20374.888871-3.6537652l.5076463.2322878c-.1264216,1.3516706-.1685621,2.3233673-.1685621,2.9357514,0,.9715744.2116826,1.5417799.6134876,1.6895883-.1274016.5913559-.3812247.8659446-.80459.8659446-.7399092,0-1.6503405-.6335345-2.6450528-1.9218761-1.6503405-2.0908349-2.6871933-5.3010527-3.1321189-9.5673243h-10.1362658l-.2116826-.4858483h10.3058079c-.084281-1.0347811-.1695421-2.7033413-.1901224-5.0054359,1.2691157.0634513,1.8835834.2324101,1.8835834.4858483,0,.1479307-.2332429.2956168-.7203089.4645757.0215603,1.8163685.0852611,3.1468888.1489618,3.9706547h3.2585404l.888871-1.2039845.487066.5068765c.2538231.2324101.486086.5068765.6977687.8027378l-.1901224.3589458h-5.079403Zm-4.7608991,8.7435583c1.290676-.2322878,2.7087536-.5490551,4.2532528-.9081231v.5914782l-.9731521.2956168c-3.0899783.887095-5.9045733,1.5629303-8.5074856,2.0485341-.084281.4858483-.1901224.7391643-.3596645.7391643-.2332429,0-.5713471-.5912336-.9310116-1.7950959,1.3965173-.1689588,2.095266-.2534382,2.1158463-.2534382v-6.9483402c1.2279552.1055076,1.8414429.2744664,1.8414429.5068765,0,.1476862-.2538231.2956168-.7614694.4645757v5.8289574c1.0368529-.1689588,1.776762-.2744664,2.2638281-.379974V7.5893008c1.1642544.1055076,1.7561818.2744664,1.7561818.5068765,0,.1689588-.2116826.316645-.6977687.4645757v2.5554106h1.6287802l.888871-1.3093698c.402785.4435475.7203089.8447941.9525718,1.2250126l.1274016.2111374-.1911024.3379177h-3.4065223v3.9282317Zm.1685621-12.017105l.9104313-1.2038622c.4439455.4434252.8251702.8659446,1.1848347,1.3516706l-.2322629.3167672h-6.9198659l-.1911024-.4645757h5.2479651Zm5.7144509-1.2250126c1.6503405.5702055,2.4333702,1.2673135,2.4333702,2.0908349,0,.4858483-.2116826.697108-.6556281.697108-.3175239,0-.5086263-.1689588-.6144676-.4858483-.2322629-.8024933-.6771884-1.4573005-1.3965173-1.9852051l.2332429-.3168895Z"/>
        <path class="cls-1" d="m169.8132048,8.3284652c.9731521.5068765,1.4807984.8658223,1.4807984,1.0981101,0,.1689588-.2322629.2322878-.6977687.2535605-.487066,1.5416576-1.1221139,2.9356291-1.8620231,4.1393691.486086.9293958,1.0152926,1.6895883,1.5650794,2.3020946.1695421.1901092.2753834.2745887.3606445.2745887.2322629,0,.5076463-1.077082.8457505-3.1679169l.4449255.253316c-.1479818,1.2460408-.2116826,2.1121076-.2116826,2.5977114,0,.760437.1901224,1.2250126.5497868,1.3939715-.1264216.5491773-.401805.823766-.8251702.823766-.4655058,0-1.0152926-.4012467-1.692481-1.0983546-.6987487-.7391643-1.2700958-1.4993568-1.6719007-2.3654236-1.2700958,1.5629303-2.7940147,2.7456421-4.5717567,3.6114644l-.2959637-.4012467c.8673108-.5068765,1.6082-1.0347811,2.2216876-1.6262593h-5.3743867v1.2461631h-1.0799734v-9.5251457c.5086263.2112597.9319916.4013689,1.291656.6125063h3.8514478l.7830297-1.013753c.401805.3591903.7614694.7391643,1.1005537,1.1193828l-.1695421.3802185h-2.9419965v1.8795753h.9947123l.6350479-.7391643c.6556281.4858483.9731521.7814651.9731521.950424,0,.063329-.0421405.1479307-.1264216.189987l-.3596645.2535605v2.6610404h-.9947123v-.6546849h-1.1221139v2.1542862h1.4180776l.7830297-.950424c.4439455.4012467.7193289.6968635.888871.887095.6556281-.6758353,1.1848347-1.3096143,1.5866397-1.9854496-.8251702-1.9429043-1.3112563-4.2449989-1.5444992-6.8850112h-8.2321022v2.6823131c0,1.8162463-.1695421,3.3579039-.4655058,4.6462455-.3596645,1.5419021-1.0584131,2.8935728-2.0737057,4.1183409l-.401805-.2956168c1.2269752-1.964177,1.8198826-4.7941762,1.8198826-8.5112705v-3.8227241c.5497868.2112597.9947123.4645757,1.3749571.7181362h7.9576988c0-.063329,0-.1056298-.0215603-.1479307,0-.1056298.0215603-.316645,0-.5702055v-.5912336h-.5713471v-1.3729433h-3.9367089v1.964177h-1.0789934v-1.964177h-4.9098609l-.1901224-.4856038h5.0999833v-1.9431488c1.2279552.0211504,1.8414429.1479307,1.8414429.4012467,0,.1689588-.2538231.3168895-.7624495.4858483v1.0560538h3.9367089v-1.9431488c1.1642544,0,1.7561818.1479307,1.7561818.4225193,0,.1689588-.2322629.3589458-.7193289.5489328v.9716967h3.4280825l.888871-1.1616836c.3812247.3168895.7830297.7391643,1.2279552,1.2460408l-.1911024.4012467h-5.3538064v.7391643c.7614694.0846017,1.1642544.2535605,1.1642544.4435475,0,.1056298-.1695421.2322878-.5086263.3802185,0,.5491773,0,.9081231.0215603,1.0560538h3.0899783l.7614694-1.1616836c.1479818.126658.2332429.2535605.3175239.3168895.2538231.253316.5292066.5702055.7830297.950424l-.2538231.379974h-4.6981783c.1058413,2.1754366.4655058,4.1184632,1.1005537,5.85023.5919273-1.1614391,1.1211339-2.6400123,1.5660594-4.4772867Zm-9.7344608,2.7876984h1.7983223v-1.8795753h-1.7983223v1.8795753Zm3.9572891,2.1754366v-1.7107387h-3.9572891v1.7107387h3.9572891Zm-2.1589668,2.6400123v-2.1542862h-1.7983223v2.1542862h1.7983223Zm6.1368362-11.8060899c1.3337966.2535605,1.9894247.7181362,1.9894247,1.3516706,0,.4435475-.1901224.6758353-.5713471.6758353-.2538231,0-.4233653-.1478084-.5292066-.4222748-.1264216-.4435475-.486086-.8660668-1.0574331-1.2461631l.1685621-.3590681Z"/>
        <path class="cls-1" d="m176.5772488,6.5120966l-.1901224-.4857261h2.8773157V1.506783c.1274016,0,.2753834-.0212727.3812247-.0212727.9731521,0,1.4602181.1479307,1.4602181.4012467,0,.1689588-.2538231.3802185-.7830297.6125063v3.5271073h1.1005537l.888871-1.2673135c.4233653.4435475.7614694.8660668,1.0368529,1.2673135l-.1274016.4857261h-2.898876v1.9430265c1.1221139.6548072,1.9051436,1.2671912,2.3490892,1.8162463.3812247.4646979.5713471.9293958.5713471,1.4362723,0,.4645757-.2322629.6968635-.6771884.6968635-.2322629,0-.4655058-.2322878-.5929074-.6968635-.2322629-.7391643-.7614694-1.6262593-1.6503405-2.6400123v9.4193936h-1.0584131v-8.9336675c-.7193289,2.0063555-1.6503405,3.8649027-2.8145949,5.5756414l-.4223852-.3379177c1.4807984-2.449903,2.5392115-5.2165733,3.1526991-8.2789826h-2.6029123Zm12.4647747,0h-5.0578428l-.1901224-.4857261h5.1842643V1.6544691c1.2700958.0212727,1.9041636.1902315,1.9041636.5068765,0,.1689588-.2744034.3591903-.80361.5491773v3.3158476h.9310116l.9310116-1.3728211c.487066.4857261.888871.9715744,1.206395,1.4784509l-.1695421.3800962h-2.8351752v10.1797083c0,1.077082-.6771884,1.6474097-2.010985,1.6474097-.0205803-.4223971-.2744034-.7392866-.7830297-.9082454-.3381042-.1055076-1.0152926-.253316-2.0521455-.4222748v-.4858483c1.1426942.1267803,2.1158463.1689588,2.9204362.1689588.5282266,0,.8251702-.189987.8251702-.5490551V6.5120966Zm-3.2163999,5.7024216c-.1911024-1.1405332-.8467305-2.3654236-1.9051436-3.6537652l.3175239-.3379177c1.206395.8447941,2.0531255,1.7739455,2.581352,2.7876984.2548032.4858483.3812247.9082454.3812247,1.2673135,0,.5702055-.2322629.8236437-.6977687.8236437-.3390842,0-.5723271-.2957391-.6771884-.8869727Z"/>
        <path class="cls-1" d="m200.208282,15.8893116h5.078423V2.1403175c1.3122363.0423008,1.9257239.189987,1.9257239.4435475,0,.1689588-.2538231.3589458-.80459.5702055v12.7352412h5.2068046V5.4771932c1.2691157.1056298,1.8826034.2745887,1.8826034.5280269,0,.1901092-.2322629.3590681-.7614694.5280269v11.5525294h-1.1211339v-1.7318891h-11.4063615v1.900848h-1.1005537V5.6038512c1.2485355.0423008,1.8826034.2112597,1.8826034.4858483,0,.1689588-.2538231.3379177-.7820497.5279046v9.2717074Z"/>
        <path class="cls-1" d="m226.3569665,4.8646869V1.570112c1.3328165.063329,1.9884447.2322878,1.9884447.4856038,0,.1689588-.2744034.3591903-.8673108.5491773v2.2597938h5.6076296l1.0378329-1.330398c.4439455.379974.9094513.8868505,1.4170976,1.4783286l-.2116826.3379177h-8.8877303c1.1211339.2112597,1.693461.4222748,1.693461.6125063,0,.126658-.1911024.253316-.6350479.4012467v2.0698068h4.4433751l.7624495-.8660668c.7614694.5914782,1.1426942.9715744,1.1426942,1.1405332,0,.0844794-.0421405.1689588-.1911024.2744664l-.4223852.3379177v5.4066825c0,.9927248-.6350479,1.5206295-1.9051436,1.5206295,0-.3379177-.1901224-.5702055-.5497868-.7391643-.3596645-.1476862-.9947123-.2956168-1.9051436-.4012467v-.5491773c.8682908.1269025,1.7356015.1902315,2.5607718.1902315.4655058,0,.6987487-.1902315.6987487-.5914782v-5.2587519h-4.6344775v9.5883524h-1.1642544v-9.5883524h-4.3385138v7.5185456h-1.1005537V7.8215887c.3812247.1476862.7624495.316645,1.1005537.5068765l.1695421.1056298h4.1689717v-3.0835598h-7.4490724l-.2322629-.4858483h7.7028956Z"/>
        <path class="cls-1" d="m243.4905191,9.4055471c.9525718.4012467,1.7356015.8658223,2.3696694,1.3726988.5292066.4646979.80459.9081231.80459,1.2883416,0,.4012467-.2116826.6335345-.6134876.6335345-.1911024,0-.4449255-.1689588-.6350479-.5489328-.4233653-.760437-1.0584131-1.4996013-1.9257239-2.1544085v8.4902423h-1.0584131v-8.0466948c-.7830297.887095-1.7140413,1.7318891-2.7293339,2.5766833l-.3175239-.3802185c2.2853884-2.1964648,3.9994296-4.5829166,5.1842643-7.180628h-4.7403188l-.1901224-.4646979h2.7930347V1.4433317c1.206395.0421786,1.8414429.1901092,1.8414429.4646979,0,.1476862-.2753834.316645-.7830297.5068765v2.576561h1.0368529l.7193289-.8869727c.7614694.6758353,1.1426942,1.0981101,1.1426942,1.2883416,0,.063329-.0637008.1476862-.1901224.2110152l-.487066.2112597c-.7614694,1.3093698-1.5023586,2.4287526-2.2216876,3.3581484v.2322878Zm7.3010906-4.41408V1.4433317c1.2691157.0421786,1.9041636.1901092,1.9041636.4646979,0,.126658-.2538231.316645-.7830297.5279046v2.5555329h2.6666131l.6771884-.8659446c.7830297.6125063,1.1642544.9927248,1.1642544,1.1827118,0,.063329-.0637008.126658-.1489618.2322878l-.486086.3379177v8.2579545h-1.0584131v-1.1193828h-2.8145949v5.4700115h-1.1211339v-5.4700115h-2.5401915v1.2883416h-1.0789934V4.3790831c.5292066.2322878.9525718.4434252,1.2485355.6123841h2.3706494Zm-2.5401915.4646979v3.2102178h2.5401915v-3.2102178h-2.5401915Zm2.5401915,3.6958216h-2.5401915v3.3791766h2.5401915v-3.3791766Zm3.9357288-.4856038v-3.2102178h-2.8145949v3.2102178h2.8145949Zm0,3.8647804v-3.3791766h-2.8145949v3.3791766h2.8145949Z"/>
        <path class="cls-1" d="m266.2954021,3.3653301l.7193289-.887095c.7203089.5491773,1.0799734.9081231,1.0799734,1.077082,0,.0844794-.0637008.1689588-.1695421.2534382l-.401805.2957391v10.7500361h-1.0799734v-1.2673135h-3.5339239v1.9852051h-1.1005537V2.7315511c.1479818.0634513.2969437.1269025.4449255.2112597.0637008.0211504.1685621.063329.3596645.1689588.2116826.1056298.401805.2112597.486086.2535605h3.1958197Zm.1479818,4.7729035V3.8509339h-3.5339239v4.2872997h3.5339239Zm0,.4858483h-3.5339239v4.477409h3.5339239v-4.477409Zm8.9729914-5.7446002l.7614694-.9292736c.7624495.5913559,1.1426942.9503017,1.1426942,1.1192606,0,.0634513-.0205803.1479307-.1479818.2535605l-.4439455.3589458v12.9888017c0,1.0560538-.6350479,1.5839585-1.9678644,1.5839585,0-.3379177-.2332429-.6125063-.6987487-.7814651-.3381042-.126658-1.0368529-.253316-2.0531255-.3589458v-.5281492c1.0584131.1056298,2.0531255.1479307,3.0056973.1479307.3802447,0,.5713471-.2112597.5713471-.6125063v-4.3929296h-4.7824593c-.1489618,1.4362723-.4655058,2.6189841-.9947123,3.6537652-.6350479,1.2250126-1.7140413,2.2597938-3.2379602,3.1257383l-.3390842-.3800962c1.5660594-1.1616836,2.582332-2.6189841,3.0684181-4.3296006.2753834-1.0349034.402785-2.2810665.402785-3.7593951V2.2246746c.401805.1689588.8457505.3802185,1.3122363.6548072h4.4012346Zm.1695421,8.3846125v-3.8650249h-4.7197386v2.6400123c0,.3168895,0,.7181362-.0421405,1.2250126h4.7618791Zm-4.7197386-7.9200368v3.5904363h4.7197386v-3.5904363h-4.7197386Z"/>
      </g>
    </g>
    <g>
      <path class="cls-1" d="m279.4988184,80.633007h-40.5161232l12.7986545-13.3775454c4.5438868-4.7615137,7.951544-8.9183922,10.3749274-12.7729101,1.3631317-2.1162664,2.7262633-4.6103764,2.7262633-7.8602589,0-.5290666,0-3.1743139-1.5143997-4.8370824-.7573718-.8314272-2.0448694-1.5116311-3.710881-1.5116311-2.1205034,0-3.5592691.9825645-4.3922749,2.0406978-1.2118636,1.5871141-1.7419894,4.4591532-1.8176235,6.1974904h-13.5556825c.075634-6.5754196,2.9535092-11.3369334,5.6037947-13.9821807,3.408001-3.4011057,8.0275219-5.4417177,14.3133981-5.4417177,7.57303,0,11.9653049,2.9476078,14.2374202,5.2149259,2.0445256,2.0406978,4.9224008,5.8952157,4.9224008,12.3950666,0,6.3486278-2.9535092,10.7322981-7.497396,14.9647452l-8.4820137,7.8602589h16.5095355v11.1101415Z"/>
      <path class="cls-1" d="m318.8657357,61.0579712h6.1342643v10.0520083h-6.1342643v9.5230275h-12.1169168v-9.5230275h-24.4610795v-8.3893256l19.4627009-32.4990832h17.1152954v30.8364005Zm-12.1169168,0v-20.5576003l-11.8896709,20.5576003h11.8896709Z"/>
    </g>
  </g>
</svg>