<?xml version="1.0" encoding="UTF-8"?>
<svg id="_レイヤー_2" data-name="レイヤー 2" xmlns="http://www.w3.org/2000/svg" viewBox="0 0 175 175">
  <defs>
    <style>
      .cls-1 {
        fill: #231815;
      }

      .cls-1, .cls-2, .cls-3 {
        stroke-width: 0px;
      }

      .cls-3 {
        fill: #fff100;
      }
    </style>
  </defs>
  <g id="_レイヤー_2-2" data-name="レイヤー 2">
    <circle class="cls-3" cx="87.5" cy="87.5" r="87.5"/>
    <g>
      <path class="cls-2" d="m24.7216797,80.5629883l-.1328125-.1140137v-2.0708008l.1142578-.1140137,2.2036133.0571289h2.3364258l2.2607422-.0571289.1137695.0949707v2.1088867l-.1137695.0949707-2.0898438-.0571289v2.7736816l1.8427734-.0571289.1142578.0949707v2.1088867l-.1142578.0949707-1.8427734-.0571289v3.1535645c.8168945-.2280273,1.5581055-.4558105,2.1660156-.6647949l.0375977,1.8996582c0,.342041-.0756836.4748535-.3989258.5888672-1.3105469.4938965-4.0463867,1.329834-5.9077148,1.8427734l-.1713867-.0949707-.7597656-2.2226562.0952148-.1708984c.7597656-.1520996,1.5766602-.342041,2.3935547-.5319824v-3.7995605l-1.8808594.0571289-.1328125-.1140137v-2.0708008l.1137695-.1140137,1.8999023.0571289v-2.7736816l-2.1469727.0571289Zm11.3037109,8.7575684c-.4560547,4.0844727-2.9257812,5.5092773-5.965332,5.9841309-.0571289.019043-.1328125.0380859-.1899414.0380859-.1328125,0-.2470703-.0380859-.3037109-.1330566l-1.4438477-1.9187012c3.1342773-.322998,4.9008789-1.3867188,5.2050781-3.932373l-1.1777344.0378418-.1333008-.1328125.0571289-2.6787109v-6.4589844l-.0571289-2.0708008.1333008-.1137695,2.7543945.0568848h3.6855469l2.621582-.0568848.1518555.1518555-.0566406,2.1276855v6.269043l.0566406,2.7736816-.1708984.1328125-1.9755859-.0568848v2.8686523c0,.3989258.0571289.4367676.3417969.4367676.7412109,0,.8740234-.0949707.96875-2.0515137l2.0708008.987793c.1899414.0949707.2089844.1330566.1899414.322998-.0947266,1.5766602-.3608398,2.1845703-.8544922,2.5834961-.5893555.4938965-1.1020508.6650391-2.8310547.6650391-2.1083984,0-2.4692383-.1520996-2.4692383-1.8808594v-3.951416h-.6079102Zm2.621582-9.1564941h-3.9897461v1.0068359h3.9897461v-1.0068359Zm-3.9897461,2.9255371v1.0827637h3.9897461v-1.0827637h-3.9897461Zm0,4.0654297h3.9897461v-1.0639648h-3.9897461v1.0639648Z"/>
      <path class="cls-2" d="m53.2583008,85.3500977v6.592041c0,.6079102.0571289.6269531,2.1088867.6269531,2.5644531,0,3.0395508-.0759277,3.3432617-.3417969.3232422-.2661133.4560547-.7219238.5322266-2.0517578l2.2416992.8928223c.2089844.0759277.2280273.1518555.2089844.3798828-.0952148,1.348877-.3232422,2.2607422-.9501953,2.7736816-.7597656.6269531-1.4433594.7409668-5.546875.7409668-3.9892578,0-4.5405273-.6079102-4.5405273-2.1088867l.0380859-3.5334473v-3.0014648l-1.3110352.5129395-.1708984-.0949707-.6455078-1.8618164h-.6079102v4.4833984c.6645508-.2089844,1.3295898-.4179688,1.9946289-.6459961v1.9187012c0,.342041-.0761719.4560547-.3798828.5888672-1.2539062.5129395-3.6098633,1.2729492-5.3955078,1.7858887l-.1708984-.0949707-.7216797-2.2226562.0947266-.1711426c.703125-.1518555,1.4057617-.3039551,2.0898438-.4748535v-5.1862793l-1.7666016.0571289-.1333008-.1140137v-2.0898438l.1142578-.1137695,1.7856445.0568848v-4.5974121l.1328125-.1518555h2.2226562l.1333008.1330566v4.597168l1.7666016-.0378418.1137695.0949707v1.3867188l.8549805-.2470703v-4.6162109l.1328125-.1520996h2.2797852l.1518555.1711426v3.7043457l1.1591797-.4179688v-5.0532227l.1328125-.1328125h2.1845703l.1518555.1518555v4.1413574l1.8618164-.6838379,1.8237305-.7028809.2089844.1518555c.019043,2.9067383.019043,4.5214844-.0947266,6.2121582-.1708984,2.5075684-.9311523,3.0966797-2.7358398,3.0966797-.3037109,0-.3989258-.019043-.5126953-.342041l-.5322266-1.3867188.0380859,3.590332h-2.5834961l.0571289-4.920166v-1.7287598l-1.1591797.4367676Zm3.628418,2.0898438c.3232422,0,.4560547-.019043.7602539-.0759277.3417969-.0571289.4936523-.2280273.5698242-.9309082.0571289-.5510254.0947266-1.8427734.0947266-2.982666l-1.4248047.5319824v3.4575195Z"/>
      <path class="cls-2" d="m68.6489258,89.4916992c2.9067383-1.0830078,6.4780273-3.5336914,9.4038086-7.5229492l1.2539062,2.659668c.0756836.1328125.1137695.2277832.1137695.3227539,0,.1140137-.0380859.2089844-.1518555.361084-2.7924805,3.4763184-6.4589844,6.0219727-11.512207,7.9787598-.1899414.0759277-.3041992.0949707-.3989258.0949707-.1142578,0-.1904297-.0568848-.3232422-.1708984l-1.5004883-1.348877.0947266-1.8046875v-9.8405762l.1518555-.1330566h2.7167969l.1518555.1520996v9.251709Z"/>
      <path class="cls-2" d="m82.1586914,90.2514648c1.1777344-1.2158203,2.1279297-2.5834961,2.7739258-3.970459l.1899414-.0759277,2.3745117,1.1589355.0571289.2087402c-.7788086,1.5388184-1.7861328,3.0395508-2.9257812,4.2553711h-.2089844l-2.2416992-1.4057617-.019043-.1708984Zm6.7822266-11.1323242l.1518555-.1330566h2.7167969l.1518555.1520996v3.1914062h3.1914062l2.5268555-.0568848.1518555.1330566v2.3935547l-.1328125.1518555-2.4887695-.0568848h-3.2485352v3.7614746l.0571289,2.5266113c.0566406,2.279541-.8740234,2.9064941-3.8754883,3.0585938-.3798828,0-.4179688-.019043-.5888672-.342041l-1.2919922-2.4885254c2.5454102,0,2.6787109-.0571289,2.6787109-1.2158203v-5.300293h-3.0585938l-2.7167969.0568848-.1328125-.1518555v-2.4125977l.1708984-.1140137,2.5834961.0568848h3.1538086v-3.2104492Zm9.6694336,10.9992676l-2.2226562,1.671875h-.1899414c-1.0068359-1.671875-2.0898438-3.001709-3.2294922-4.0085449v-.1708984l2.0708008-1.5007324h.1899414c1.4057617,1.1967773,2.659668,2.5456543,3.4194336,3.8183594l-.0380859.1899414Zm.0380859-10.4104004c0,1.0449219-.8740234,1.9187012-1.9189453,1.9187012-1.0634766,0-1.9375-.8737793-1.9375-1.9187012,0-1.0637207.8740234-1.9377441,1.9375-1.9377441,1.0449219,0,1.9189453.8740234,1.9189453,1.9377441Zm-2.7924805,0c0,.4748535.3989258.8549805.8735352.8549805.4750977,0,.8549805-.380127.8549805-.8549805,0-.4938965-.3798828-.8737793-.8549805-.8737793-.4746094,0-.8735352.3798828-.8735352.8737793Z"/>
      <path class="cls-2" d="m113.7348633,87.9338379h-8.4916992l-2.8305664.0568848-.1328125-.1518555v-2.7165527l.1708984-.1140137,2.7163086.0568848h8.4731445l2.925293-.0568848.1523438.1328125v2.6977539l-.1333008.1518555-2.8496094-.0568848Z"/>
      <path class="cls-2" d="m128.4794922,86.8510742l.0952148,7.2568359h-3.3056641l.0952148-7.2949219v-8.1877441l.1518555-.1330566h2.8115234l.1518555.1520996v6.3449707l1.6337891-1.8237305.1899414-.019043c1.5766602.8740234,2.7548828,1.6147461,4.2744141,2.9067383l-.019043.1899414-1.8427734,2.298584-.1899414.019043c-1.2724609-1.1589355-2.5263672-2.1276855-4.0463867-2.982666v1.2729492Z"/>
      <path class="cls-2" d="m139.1777344,87.8198242c2.1279297-1.7287598,3.628418-3.1914062,4.7304688-4.8442383-.9121094.0759277-1.8618164.0949707-2.7548828.0949707l-.1137695-.1140137-.0761719-2.3366699.1333008-.1140137c1.4248047,0,2.8305664-.0378418,4.2363281-.1328125.3417969-.7790527.6269531-1.6147461.8925781-2.5456543l.1523438-.0949707,2.6025391.3798828.1137695.1330566c-.2280273.6647949-.4555664,1.2346191-.6645508,1.7856445.949707-.1520996,1.8994141-.322998,2.8491211-.5510254l.1713867.0949707.1899414,2.2416992-.1142578.1711426c-1.3867188.2849121-2.9443359.5317383-4.5209961.7216797-.3041992.4560547-.722168,1.0449219-1.1020508,1.5009766.5698242-.1711426,1.0258789-.2470703,1.7856445-.2470703,1.1777344,0,2.0327148.7409668,2.3178711,1.8237305,1.1967773-.4558105,2.5454102-.9309082,4.0273438-1.4248047l.1899414.0759277,1.1777344,2.3366699-.0947266.1711426c-1.9189453.4938965-3.5527344.987793-4.9584961,1.5007324.0380859.7409668.0571289,1.6716309.0761719,2.5834961l-.1333008.1140137-2.5073242.0949707-.1523438-.1140137v-1.5576172c-1.1586914.5507812-1.8046875,1.0827637-1.8046875,1.7287598,0,.645752.7602539.8168945,2.4506836.8359375,1.3867188.0187988,3.2866211-.1520996,4.9584961-.3991699l.1899414.1140137.1708984,2.5266113-.1137695.1520996c-1.8051758.1518555-3.4008789.2468262-5.6235352.2468262-3.8374023,0-4.8442383-1.6147461-4.8442383-3.248291,0-1.8237305,1.5390625-3.0966797,3.3056641-4.1035156.3417969-.1899414.7216797-.3798828,1.1396484-.5698242-.0947266-.4750977-.3798828-.7219238-.949707-.7219238-.7597656,0-1.5009766.1899414-2.1655273.6647949-.8359375.6079102-2.1279297,1.8237305-3.3056641,3.0776367l-.1899414.019043-1.671875-1.8618164v-.2089844Z"/>
      <path class="cls-2" d="m41.6484375,120.791748c-.0761719.1899414-.1328125.1899414-.3417969.1899414-1.5771484.0571289-3.1347656.0949707-4.5976562.0949707-1.652832,0-3.1533203-.0378418-4.3500977-.1328125-1.652832-.1140137-3.1918945-.4938965-4.3125-1.8999023-.7216797.5891113-1.4628906,1.2919922-2.2797852,2.013916l-.1708984-.0761719-1.3486328-2.2226562.0566406-.1708984c.9882812-.6269531,1.7480469-1.0637207,2.640625-1.5578613v-4.0083008h-.4936523l-1.7290039.0568848-.1328125-.1140137v-2.1655273l.1142578-.1140137,1.7475586.0568848h.5126953l2.4887695-.0568848.1328125.1330566-.0566406,2.8496094v3.7424316c.7026367.9118652,2.0327148,1.1586914,3.7421875,1.2346191,2.355957.0952148,6.1743164-.0759277,9.4418945-.3227539l-1.0639648,2.4694824Zm-13.7158203-12.7661133h-.2661133c-.8168945-1.0446777-1.5766602-1.8237305-2.7358398-2.6975098l.019043-.1520996,1.652832-1.3867188.1899414-.0380859c1.1020508.7219238,1.9755859,1.4628906,2.9448242,2.5266113l-.019043.2089844-1.7856445,1.5388184Zm6.1928711,2.982666c-.1137695,3.4575195-.6459961,5.0722656-2.0708008,6.8010254-.0947266.1140137-.1899414.1899414-.3037109.1899414-.0761719,0-.1523438-.0380859-.2661133-.1140137l-1.9375-1.348877c1.6147461-1.8427734,1.918457-3.3625488,1.918457-7.1999512v-2.1845703l-.0571289-2.4697266.1333008-.1328125,2.0893555.3989258c1.8427734-.2280273,4.1416016-.7028809,5.8325195-1.310791h.1899414c.6269531.4938965,1.2724609,1.1208496,1.918457,1.8237305l-.019043.1899414c-2.2036133.6838379-4.8442383,1.1586914-7.3896484,1.4626465v1.6337891h5.546875l2.2416992-.0568848.1333008.1328125v2.1088867l-.1333008.1328125-2.2416992-.0568848h-.5126953v2.8305664l.0952148,4.1794434h-2.9067383l.0947266-4.1794434v-2.8305664h-2.3554688Z"/>
      <path class="cls-2" d="m48.5283203,119.8608398v1.4628906h-2.8686523l.0947266-8.3398438v-5.2241211l-.0566406-3.2485352.1518555-.1140137,3.2104492.0568848h6.8579102l3.1914062-.0568848.1523438.1140137-.0571289,3.2485352v4.939209l.0952148,8.6247559h-2.9448242v-1.4628906h-7.8266602Zm7.8266602-13.0129395h-7.8266602v4.0273438h7.8266602v-4.0273438Zm0,6.4020996h-7.8266602v4.1791992h7.8266602v-4.1791992Z"/>
      <path class="cls-2" d="m62.3417969,112.4709473c2.0708008-1.6147461,3.5527344-3.5524902,4.5214844-6.3068848l.2089844-.0380859,2.2988281,1.0258789.1137695.1518555c-1.0639648,2.7355957-2.8876953,5.3762207-4.8632812,6.934082-.1137695.0949707-.2089844.1330566-.2851562.1330566-.0756836,0-.1328125-.0380859-.2084961-.1140137l-1.7861328-1.7858887Zm9.8598633-1.1208496c-.8740234,2.3937988-1.690918,4.4643555-2.621582,6.4211426,1.7285156-.0949707,3.4575195-.2280273,5.1860352-.3989258-.6269531-.8928223-1.2729492-1.7287598-1.9755859-2.5646973l.0380859-.1328125,1.8803711-1.2539062.2089844.0380859c1.6337891,1.7287598,3.1347656,3.6662598,4.4833984,5.7751465l-.019043.2089844-2.1464844,1.6716309-.2280273-.0568848c-.2851562-.5129395-.5507812-1.0258789-.8359375-1.5009766-3.9892578.5319824-8.0927734.9499512-11.7592773,1.1589355l-.1899414-.1140137-.7407227-2.4694824.1518555-.1520996c.987793-.019043,1.9755859-.0380859,2.9633789-.0759277.987793-2.3747559,1.8618164-4.8632812,2.7167969-7.5610352l.1899414-.0949707,2.6025391.9118652.0952148.1899414Zm3.2485352-7.4467773c.9306641,3.8945312,2.6025391,5.9650879,5.2998047,7.6369629l-1.918457,2.1845703c-.0761719.0759277-.1328125.1140137-.2280273.1140137-.0761719,0-.1899414-.0571289-.3227539-.1520996-2.5078125-1.9377441-4.1987305-4.7492676-4.996582-7.4277344h-2.0893555l-2.5458984.0568848-.1328125-.1330566v-2.279541l.1328125-.1330566,2.5458984.0571289h2.3554688l1.671875-.0949707.2280273.1708984Z"/>
      <path class="cls-2" d="m87.5732422,103.8273926l2.0136719-.0571289.1328125.1330566-.0571289,2.0136719v2.4125977l.0571289,2.1276855-.1518555.1711426-2.0136719-.0571289h-2.9638672v10.8093262h-2.4316406l.0952148-6.4589844v-8.4916992l-.0571289-2.5266113.1142578-.1330566,2.0327148.0571289h3.2294922Zm-.2280273,2.6025391v-.7788086h-2.7548828v.7788086h2.7548828Zm-2.7548828,2.317627h2.7548828v-.7978516h-2.7548828v.7978516Zm2.2797852,7.8647461l-1.652832.0380859-.1518555-.1140137v-1.7666016l.1328125-.1140137,1.671875.0568848h.5698242c.019043-.4938965,0-.96875,0-1.4626465h-.1708984l-1.5576172.0378418-.1518555-.1140137v-1.7285156l.1328125-.1140137,1.5766602.0568848h6.4018555l1.5771484-.0568848.1328125.1328125v1.7097168l-.1328125.1140137-1.5771484-.0378418h-.2089844v1.4626465h.703125l1.5766602-.0568848.1333008.1328125v1.7478027l-.1333008.1140137-1.5766602-.0380859h-.703125l.0952148,3.8754883h-2.5268555l.0952148-3.8754883h-1.5576172c-.0952148.5700684-.2280273,1.0639648-.4370117,1.5009766-.5131836,1.1018066-1.3110352,1.9187012-2.621582,2.5644531-.0761719.0380859-.1518555.0571289-.2089844.0571289-.1142578,0-.2089844-.0571289-.2851562-.1520996l-1.3676758-1.5576172c1.1777344-.4750977,1.9375-.9499512,2.3364258-1.690918.1142578-.2089844.2089844-.4558105.2661133-.7219238h-.3798828Zm2.9067383-3.3623047c0,.4938965,0,.96875-.019043,1.4626465h1.3676758v-1.4626465h-1.3486328Zm3.3623047-2.6787109l-2.0136719.0571289-.1518555-.1711426.0566406-2.1276855v-2.4125977l-.0566406-2.0136719.1328125-.1330566,2.0136719.0571289h3.5146484l2.0327148-.0571289.1137695.1330566-.0566406,2.5266113v7.1809082l.0947266,5.4331055c0,1.690918-1.2158203,2.2038574-3.2104492,2.2038574-.3798828,0-.4560547-.0949707-.5317383-.2849121l-.8168945-2.2226562c.7026367,0,1.1967773-.019043,1.7475586-.0761719.2280273-.0378418.2661133-.1140137.2661133-.5698242v-7.5229492h-3.1347656Zm3.1347656-4.1413574v-.7788086h-2.8876953v.7788086h2.8876953Zm-2.8876953,2.317627h2.8876953v-.7978516h-2.8876953v.7978516Z"/>
      <path class="cls-2" d="m115.9008789,105.4230957c.1137695.1140137.1708984.2658691.1708984.3989258,0,.0759277-.019043.1520996-.0952148.2089844-1.4438477,1.0827637-2.8305664,1.9567871-4.7680664,3.0205078.2280273.1899414.4370117.361084.6459961.5510254v.2089844l-.4750977.4748535h3.8945312l1.7475586-.0568848,1.2729492,1.4245605c.1137695.1140137.1708984.2470703.1708984.380127,0,.0759277-.0380859.1708984-.0952148.2277832-1.0634766,1.1208496-2.3935547,2.3557129-4.3691406,3.8945312-.0761719.0568848-.1518555.0759277-.2089844.0759277-.0952148,0-.1899414-.0378418-.2661133-.1328125l-1.5576172-1.7478027c.987793-.6079102,1.7475586-1.1779785,2.3935547-1.7858887h-3.4384766v2.6218262l.0761719,3.6662598c0,2.1276855-1.1967773,2.5266113-4.293457,2.5266113-.3798828,0-.4179688-.0378418-.4941406-.2087402l-1.0634766-2.4316406c1.1967773,0,1.8237305-.019043,2.4882812-.0761719.3989258-.0378418.5131836-.1328125.5131836-.5698242v-5.5283203h-4.2744141l-3.1538086.0571289-.1328125-.1330566v-2.1276855l.1328125-.1328125,3.1538086.0568848h4.7871094c-1.0825195-.8549805-2.2983398-1.6906738-3.4765625-2.4125977v-.1520996l1.4819336-1.4438477h.2280273c.7407227.3991699,1.5195312.8359375,2.2797852,1.329834.949707-.4938965,1.6904297-.949707,2.2416992-1.3676758h-6.4589844l-2.6787109.0568848-.1333008-.1328125v-2.0327148l.1333008-.1330566,2.6787109.0568848h7.9213867l1.7480469-.0568848,1.2729492,1.4248047Z"/>
      <path class="cls-2" d="m127.3208008,110.9702148h-1.3676758l-2.4887695.0571289-.1328125-.0949707v-2.1467285l.1137695-.1330566,2.5078125.0568848h5.1098633l2.4506836-.0568848.1523438.1140137v2.1467285l-.0952148.1140137-2.5078125-.0571289h-1.0068359v2.0708008h1.9760742l2.4506836-.0571289.1518555.1140137v2.2226562l-.0952148.1140137-2.5073242-.0568848h-1.9760742v2.8496094c.5512695.0187988,1.1782227.0378418,1.8618164.0378418,1.4057617,0,3.1347656-.0378418,5.5283203-.2280273l-1.0639648,2.5456543c-.0756836.1711426-.1328125.1711426-.3417969.1899414-1.5766602.0761719-3.34375.0761719-4.8251953.0571289-1.2348633-.019043-2.6025391-.1899414-3.7045898-.4370117-1.2729492-.2849121-2.4316406-.949707-3.34375-1.8615723-.5698242.987793-1.2724609,1.8615723-2.1655273,2.5834961-.1328125.1140137-.2280273.1520996-.3227539.1520996-.1142578,0-.2089844-.0380859-.3232422-.1330566l-1.8613281-1.4628906c2.5073242-1.9377441,3.4951172-4.2172852,3.6660156-7.2949219l.1713867-.1140137,2.3554688.4370117.1518555.1520996c-.0947266,1.1586914-.3227539,2.3366699-.7026367,3.4763184.6079102.6269531,1.3486328,1.1589355,2.1845703,1.4438477v-6.8010254Zm-.2851562-7.6367188l.1333008-.1330566h2.5454102l.1328125.1330566v1.8996582h4.2177734l2.640625-.0571289.1518555.1330566-.0571289,1.4438477v.5507812l.0952148,2.659668h-2.7548828v-2.4506836h-11.2651367v2.4506836h-2.7548828l.0952148-2.4697266v-.5698242l-.0571289-1.6147461.1708984-.1330566,3.0966797.0571289h3.609375v-1.8996582Z"/>
      <path class="cls-2" d="m149.3222656,118.2460938c0,1.0068359-.8359375,1.8237305-1.8237305,1.8237305-1.0068359,0-1.8427734-.8168945-1.8427734-1.8237305s.8359375-1.8425293,1.8427734-1.8425293c.987793,0,1.8237305.8356934,1.8237305,1.8425293Zm-.3417969-3.3813477h-2.9824219v-10.1635742h2.9824219v10.1635742Z"/>
    </g>
    <g>
      <path class="cls-1" d="m39.2490234,62.1630859c-.8242188.4189453-1.4941406.5026855-2.0527344.5026855-1.7172852,0-2.8759766-.5864258-3.6577148-1.354248-.8378906-.8098145-1.4521484-2.0385742-1.4521484-3.5324707,0-1.4660645.6142578-2.6945801,1.4521484-3.5043945.8237305-.7958984,2.0244141-1.340332,3.4765625-1.340332.6142578,0,1.3261719.1257324,2.2338867.5166016v2.4851074c-.4750977-.5024414-1.1870117-.9912109-2.1782227-.9912109-.7817383,0-1.4101562.2514648-1.8989258.7260742-.5166016.5026855-.8793945,1.2565918-.8793945,2.1501465,0,.9633789.390625,1.6474609.8095703,2.0522461.1958008.1955566.8657227.7819824,2.0107422.7819824.5581055,0,1.3120117-.1535645,2.1362305-.9633789v2.4711914Z"/>
      <path class="cls-1" d="m49.2128906,54.2885742c.8798828.8518066,1.4521484,2.0803223,1.4521484,3.5185547,0,1.2424316-.4467773,2.5129395-1.4521484,3.4902344-.8657227.8378906-2.0380859,1.3684082-3.6020508,1.3684082-1.7451172,0-2.9321289-.6982422-3.6298828-1.3684082-.8935547-.8376465-1.4521484-2.0942383-1.4521484-3.4624023,0-1.340332.6000977-2.6945801,1.4379883-3.5322266.628418-.628418,1.7871094-1.3684082,3.644043-1.3684082,1.4521484,0,2.6665039.4467773,3.6020508,1.354248Zm-5.6542969,1.4240723c-.4047852.3911133-.8237305,1.0751953-.8237305,2.1083984,0,.8515625.2792969,1.5356445.8515625,2.0942383.6000977.5725098,1.2705078.7678223,1.996582.7678223.9492188,0,1.6196289-.3491211,2.0664062-.7958984.362793-.348877.8095703-1.005127.8095703-2.0800781,0-.9633789-.390625-1.6755371-.8095703-2.0944824-.4609375-.4467773-1.2006836-.7956543-2.0527344-.7956543-.8095703,0-1.5356445.2932129-2.0380859.7956543Z"/>
      <path class="cls-1" d="m51.8325195,62.4562988l1.4936523-9.3125h1.7871094l2.3178711,5.5708008,2.3178711-5.5708008h1.7871094l1.4936523,9.3125h-2.1499023l-.7402344-5.5568848-2.331543,5.5568848h-.7539062l-2.331543-5.5568848-.7402344,5.5568848h-2.1499023Z"/>
      <path class="cls-1" d="m66.8212891,53.1437988v9.3125h-2.1503906v-9.3125h2.1503906Z"/>
      <path class="cls-1" d="m68.8989258,62.4562988v-9.3125h1.8710938l5.0541992,6.0036621v-6.0036621h2.1499023v9.3125h-1.8706055l-5.0541992-6.0314941v6.0314941h-2.1503906Z"/>
      <path class="cls-1" d="m84.4887695,57.3742676h4.6210938v.0976562c0,1.1308594-.4047852,2.8481445-1.4379883,3.9233398-1.0332031,1.0749512-2.2197266,1.2705078-3.3227539,1.2705078-1.1166992,0-2.3178711-.1816406-3.4067383-1.298584-.5444336-.5583496-1.3681641-1.689209-1.3681641-3.5461426,0-1.5219727.5585938-2.7365723,1.340332-3.5324707,1.1450195-1.1867676,2.5551758-1.354248,3.6577148-1.354248.7680664,0,1.7456055.1257324,2.6113281.697998.6279297.4189453,1.1723633,1.0751953,1.5078125,1.6616211l-1.940918,1.0471191c-.1816406-.3630371-.4604492-.7399902-.8237305-1.0053711-.4189453-.3071289-.8935547-.4467773-1.4238281-.4467773-.8520508,0-1.4799805.2792969-1.9267578.7541504-.5166016.5444336-.7958984,1.340332-.7958984,2.2058105,0,1.0610352.390625,1.7453613.7817383,2.1362305.5444336.5583496,1.1728516.7260742,1.8847656.7260742.9213867,0,1.4101562-.3212891,1.6196289-.5026855.0698242-.0559082.4887695-.4189453.6704102-1.1030273h-2.2480469v-1.7312012Z"/>
      <path class="cls-1" d="m98.7646484,55.4194336c-.6982422-.6281738-1.2988281-.6699219-1.5639648-.6699219-.2929688,0-.65625.041748-.9077148.3210449-.1391602.1396484-.2373047.348877-.2373047.5864258,0,.2233887.0698242.3908691.2094727.5166016.2236328.2092285.5444336.2932129,1.1728516.5305176l.6982422.2651367c.4047852.1535645.9072266.3630371,1.2705078.7121582.5444336.5166016.684082,1.1867676.684082,1.7312012,0,.9633789-.3349609,1.8010254-.8237305,2.3037109-.8237305.8657227-2.0244141.9494629-2.6386719.9494629-.6704102,0-1.2568359-.0979004-1.8432617-.3908691-.4746094-.2375488-1.019043-.670166-1.3681641-1.0192871l1.1171875-1.5358887c.2373047.2373047.6142578.5585938.8652344.7121582.3632812.2233887.7402344.3349609,1.1728516.3349609.2792969,0,.6704102-.0556641.9775391-.3210449.1816406-.1535645.3349609-.4047852.3349609-.7539062,0-.3071289-.1254883-.5026855-.3208008-.670166-.2514648-.2094727-.8237305-.4189453-1.0893555-.5166016l-.7675781-.2653809c-.4331055-.1535645-.9355469-.348877-1.2988281-.7399902-.4882812-.5163574-.5581055-1.1726074-.5581055-1.6193848,0-.8237305.2509766-1.5219727.8095703-2.0942383.65625-.670166,1.4379883-.8518066,2.3037109-.8518066.6420898,0,1.675293.1118164,2.7646484.9216309l-.9633789,1.5634766Z"/>
      <path class="cls-1" d="m109.8876953,54.2885742c.8798828.8518066,1.4521484,2.0803223,1.4521484,3.5185547,0,1.2424316-.4467773,2.5129395-1.4521484,3.4902344-.8657227.8378906-2.0380859,1.3684082-3.6020508,1.3684082-1.7451172,0-2.9321289-.6982422-3.6298828-1.3684082-.8935547-.8376465-1.4521484-2.0942383-1.4521484-3.4624023,0-1.340332.6000977-2.6945801,1.4379883-3.5322266.628418-.628418,1.7871094-1.3684082,3.644043-1.3684082,1.4521484,0,2.6665039.4467773,3.6020508,1.354248Zm-5.6542969,1.4240723c-.4047852.3911133-.8237305,1.0751953-.8237305,2.1083984,0,.8515625.2792969,1.5356445.8515625,2.0942383.6000977.5725098,1.2705078.7678223,1.996582.7678223.9492188,0,1.6196289-.3491211,2.0664062-.7958984.362793-.348877.8095703-1.005127.8095703-2.0800781,0-.9633789-.390625-1.6755371-.8095703-2.0944824-.4609375-.4467773-1.2006836-.7956543-2.0527344-.7956543-.8095703,0-1.5356445.2932129-2.0380859.7956543Z"/>
      <path class="cls-1" d="m121.190918,54.2885742c.8798828.8518066,1.4521484,2.0803223,1.4521484,3.5185547,0,1.2424316-.4467773,2.5129395-1.4521484,3.4902344-.8657227.8378906-2.0380859,1.3684082-3.6020508,1.3684082-1.7451172,0-2.9321289-.6982422-3.6298828-1.3684082-.8935547-.8376465-1.4521484-2.0942383-1.4521484-3.4624023,0-1.340332.6000977-2.6945801,1.4379883-3.5322266.628418-.628418,1.7871094-1.3684082,3.644043-1.3684082,1.4521484,0,2.6665039.4467773,3.6020508,1.354248Zm-5.6542969,1.4240723c-.4047852.3911133-.8237305,1.0751953-.8237305,2.1083984,0,.8515625.2792969,1.5356445.8515625,2.0942383.6005859.5725098,1.2705078.7678223,1.996582.7678223.9492188,0,1.6196289-.3491211,2.0664062-.7958984.362793-.348877.8095703-1.005127.8095703-2.0800781,0-.9633789-.390625-1.6755371-.8095703-2.0944824-.4609375-.4467773-1.2006836-.7956543-2.0527344-.7956543-.8095703,0-1.5356445.2932129-2.0380859.7956543Z"/>
      <path class="cls-1" d="m124.2431641,62.4562988v-9.3125h1.8710938l5.0541992,6.0036621v-6.0036621h2.1499023v9.3125h-1.8706055l-5.0541992-6.0314941v6.0314941h-2.1503906Z"/>
    </g>
  </g>
</svg>