<?xml version="1.0" encoding="UTF-8"?>
<svg id="_レイヤー_2" data-name="レイヤー 2" xmlns="http://www.w3.org/2000/svg" viewBox="0 0 92.9370117 22.8466797">
  <defs>
    <style>
      .cls-1 {
        stroke-width: 0px;
      }
    </style>
  </defs>
  <g id="_レイヤー_2-2" data-name="レイヤー 2">
    <g>
      <path class="cls-1" d="m16.3613281,21.4570312h-.0732422c-.9506836-.0488281-1.9018555-.0732422-2.8525391-.0732422-3.5844727,0-7.1933594.0976562-10.777832.390625l-1.8286133.1708984h-.0976562c-.3901367,0-.7314453-.3173828-.7314453-.7314453,0-.390625.2685547-.6347656.6342773-.7070312.7558594-.1464844,1.6088867-.1708984,2.3891602-.2197266,1.512207-.0976562,3.0483398-.1708984,4.5844727-.2197266.1704102-1.7558594.2192383-3.5117188.2924805-5.2666016-1.9995117.0488281-3.9990234.2919922-5.9985352.2919922h-.0727539c-.4145508,0-.7319336-.3164062-.7319336-.7314453,0-.3896484.2685547-.6582031.6342773-.7314453.6337891-.1220703,1.3896484-.1220703,2.0239258-.1464844,1.3896484-.0722656,2.7797852-.0976562,4.1694336-.1455078.0488281-1.4873047.0732422-2.9511719.0976562-4.4384766-2.1704102,0-4.3647461.2197266-6.5351562.2197266-.4140625,0-.7558594-.2929688-.7558594-.7314453,0-.9511719.9267578-3.9746094,1.2192383-5.046875.0488281-.1708984.0732422-.390625.1464844-.5615234.1220703-.3173828.3657227-.5361328.7070312-.5361328.3901367,0,.7314453.3164062.7314453.7314453,0,.2441406-.121582.5361328-.1948242.7802734-.3657227,1.2919922-.7314453,2.5605469-1,3.8769531,1.3657227-.0732422,2.730957-.0976562,4.0966797-.1464844.5361328-.0244141,1.0727539-.0488281,1.609375-.0488281,0-.2675781.0244141-.5361328.0244141-.8046875l.0727539-3.3886719c0-.5615234-.0244141-1.1464844.0244141-1.7070312.0488281-.4150391.2929688-.7070312.7314453-.7070312.4145508,0,.7075195.3408203.7075195.7558594,0,1.9257812-.0976562,3.8769531-.0976562,5.8027344l4.315918-.1699219c.6337891-.0253906,1.2680664-.0976562,1.9018555-.0976562.4145508,0,.7558594.2919922.7558594.7314453,0,.4140625-.2924805.6826172-.6826172.7314453-.6826172.0976562-1.4389648.0732422-2.121582.0976562-1.3896484.0722656-2.8041992.1210938-4.1938477.1699219-.0244141,1.4882812-.0488281,2.9746094-.0976562,4.4628906,1.2192383,0,2.4628906-.0244141,3.6821289-.0244141.609375,0,1.3652344-.0488281,1.9506836.0244141.4389648.0488281.7070312.2919922.7070312.7558594,0,.4384766-.3657227.6826172-.7558594.7070312-.6337891.0244141-1.3168945-.0244141-1.9506836-.0244141-1.2192383,0-2.4384766.0244141-3.6577148.0244141-.0732422,1.7558594-.121582,3.5107422-.2680664,5.2421875,1.3413086-.0488281,2.6821289-.0732422,4.0234375-.0732422.8046875,0,2.5844727-.0244141,3.315918.0976562.4145508.0732422.6582031.3417969.6582031.7558594,0,.3896484-.3657227.6826172-.7314453.6582031Z"/>
      <path class="cls-1" d="m28.8251953,16.6533203c-.7070312.8535156-5.1694336,4.2675781-6.1445312,4.2675781-.3657227,0-.7075195-.2929688-.7075195-.6826172,0-.3173828.1953125-.5361328.487793-.6582031,1.3168945-.5371094,4.2670898-2.8291016,5.2915039-3.8769531.1459961-.1464844.3168945-.2441406.5117188-.2441406.4145508,0,.7314453.3408203.7314453.7314453,0,.1708984-.0727539.3417969-.1704102.4628906Zm-2.0239258-6.1689453c-.9995117.1953125-2.121582.2685547-3.1455078.2685547-.4389648,0-1.0483398-.0976562-1.0483398-.6826172,0-.4150391.2924805-.7802734.7314453-.7558594h.3657227c.9511719,0,1.9262695-.0732422,2.8774414-.2197266h.121582c.3901367,0,.6831055.3173828.6831055.7070312,0,.3417969-.2441406.609375-.5854492.6826172Zm.8779297-5.0224609c-.1708984,0-.3168945-.0488281-.4389648-.1464844-.7802734-.5361328-1.7802734-.8779297-2.6821289-1.1953125-.2924805-.0976562-.4633789-.3408203-.4633789-.6582031,0-.3896484.2924805-.7314453.6826172-.7314453.487793,0,2.9018555,1.0976562,3.3408203,1.4628906.1704102.1464844.2680664.3417969.2680664.5615234,0,.4140625-.3168945.7070312-.7070312.7070312Zm15.4101562,3.3398438c-.7802734,0-1.5849609-.0488281-2.3652344-.0488281-1.2675781,0-2.5600586.0253906-3.828125.0732422,0,1.390625-.0488281,2.8046875-.0488281,4.1943359,1.0488281-.0732422,2.121582-.1464844,3.1699219-.1464844.5854492,0,1.3901367-.0732422,1.3901367.7558594,0,.609375-.0732422,1.2441406-.1220703,1.8535156-.0976562,1.3896484-.2197266,2.7792969-.4145508,4.1699219.4633789,0,.9511719.1210938.9511719.7070312,0,.3896484-.3417969.6826172-.7075195.6826172-1.7553711,0-3.5356445.0488281-5.2910156.1708984-1.121582.0722656-2.3164062.1455078-3.4379883.3896484-.0732422.0244141-.0976562.0244141-.1708984.0244141-.3657227,0-.609375-.2441406-.7070312-.5849609-.1220703-.5361328-.1220703-1.4150391-.1220703-1.9755859-.0488281-1.3652344-.0727539-2.7548828-.0727539-4.1210938,0-.4873047-.0488281-1.0722656.0239258-1.5605469.0488281-.3652344.2929688-.6337891.6831055-.6337891.4389648,0,.7314453.3417969.7314453.7558594,0,.0244141-.0244141.0732422-.0244141.1220703.2192383-.1953125,2.3408203-.4140625,2.706543-.4628906,0-1.4140625.0488281-2.8535156.0488281-4.2675781-1.9995117.0976562-4.1455078.1953125-6.0961914.7558594-.0727539.0244141-.1459961.0244141-.2192383.0244141-.3901367,0-.7070312-.3164062-.7070312-.7070312,0-.3164062.1948242-.5361328.487793-.6582031,1.3408203-.5117188,5.0473633-.7558594,6.559082-.8291016,0-1.1210938-.0244141-1.9501953-.0244141-3.0722656,0-.3652344.2436523-.7314453.6582031-.7314453s.6826172.2685547.7314453.6826172c.0976562,1.0244141.0488281,2.0234375.0488281,3.0478516,1.3413086-.0488281,2.6821289-.0732422,4.0234375-.0732422.7070312,0,1.4873047-.0488281,2.1943359.0488281.4145508.0488281.6586914.3662109.6586914.7802734,0,.3662109-.3662109.6337891-.7075195.6337891Zm-3.0722656-5.8759766c-.4145508.0488281-.8291016.0488281-1.2192383.0976562-2.0234375.1953125-4.4375.4140625-6.3637695,1.0244141-.0732422.0234375-.1953125.0488281-.2685547.0488281-.3901367,0-.7070312-.3173828-.7070312-.7080078,0-.3164062.1708984-.5361328.4389648-.6582031,1.121582-.5361328,6.6811523-1.21875,8.0463867-1.21875.3657227,0,.7558594.2431641.7558594.6582031,0,.4140625-.2680664.7070312-.6826172.7558594Zm-4.315918,11.6308594c-.8046875.0732422-1.706543.1464844-2.4868164.3662109-.0732422.0234375-.1220703.0488281-.2197266.0488281s-.1948242-.0253906-.2680664-.0732422c0,1.7304688.0244141,3.4863281.1220703,5.2177734,2.1699219-.2929688,4.4130859-.390625,6.6079102-.4394531.2192383-1.7792969.3901367-3.5839844.5117188-5.3886719-1.4140625.0244141-2.8525391.1220703-4.2670898.2685547Z"/>
      <path class="cls-1" d="m53.2124023,7.9736328c-.2436523,0-.487793-.0253906-.7314453-.0253906-.6831055,0-1.3901367.0253906-2.0727539.0742188-.0976562,1.21875-.1220703,2.4619141-.1708984,3.7060547.6342773-.0244141,1.2680664-.0488281,1.9267578-.0488281.4873047,0,.9506836.0732422.9506836.6826172s-.5849609.6337891-1.0239258.6337891c-.6342773,0-1.2436523.0244141-1.8774414.0488281-.0244141.8291016-.0244141,1.6826172-.0244141,2.5117188v.8046875c.3901367-.1464844,2.2919922-.8291016,2.6088867-.8291016.3657227,0,.6582031.3164062.6582031.6582031,0,.3164062-.2192383.5605469-.5117188.6337891-1.2924805.3662109-2.5605469.8291016-3.8041992,1.3173828-.8046875.3164062-1.6333008.609375-2.3896484,1.0478516-.121582.0732422-.2192383.0976562-.3413086.0976562-.3413086,0-.6582031-.2685547-.6582031-.6337891,0-.2197266.0976562-.4150391.2924805-.5605469.512207-.3662109,2.2436523-1.0244141,2.8774414-1.2685547-.0732422-1.21875-.0488281-2.4873047-.0244141-3.7060547-.609375.0488281-1.2192383.0976562-1.8286133.2197266-.0488281,0-.0976562.0244141-.1464844.0244141-.3413086,0-.6582031-.2929688-.6582031-.6582031,0-.2929688.2192383-.5615234.5117188-.6347656.6831055-.1953125,1.4633789-.21875,2.1704102-.2675781.0244141-1.2197266.0732422-2.4628906.1459961-3.6826172-.8041992.0488281-1.7553711.0732422-2.5356445.3173828-.0732422.0244141-.1464844.0488281-.2197266.0488281-.3657227,0-.6337891-.3173828-.6337891-.6582031,0-.2929688.1708984-.5126953.4389648-.609375,1.121582-.390625,4.949707-.5615234,6.2421875-.5615234.512207,0,1.4628906-.0732422,1.4628906.6826172,0,.3417969-.2924805.6347656-.6337891.6347656Zm9.9970703,6.2167969c.2685547.0742188.487793.3173828.487793.6103516,0,.3652344-.2924805.6582031-.6582031.6582031-.9511719,0-1.9018555,0-2.8530273.0244141-.2680664.3417969-.5854492.6582031-.8779297.9755859v.0244141c-.2436523,1.5605469-.4389648,3.1210938-.4633789,4.6816406.2929688-.1464844,1.1704102-.7070312,1.4633789-.7070312.3413086,0,.6337891.2675781.6337891.609375,0,.1953125-.0976562.3652344-.2436523.5117188-.2685547.2685547-2.1459961,1.2675781-2.4873047,1.2675781-.7558594,0-.6826172-.8769531-.6826172-1.3896484,0-1.0966797.0976562-2.1943359.2192383-3.2919922-.7802734.8535156-2.2431641,2.4873047-3.1699219,3.1455078-.121582.0732422-.2436523.1464844-.3901367.1464844-.3413086,0-.6582031-.2685547-.6582031-.6337891,0-.1953125.0976562-.3652344.2436523-.4873047,1.6582031-1.4384766,3.1210938-3.1210938,4.5844727-4.7548828l-.2929688.0488281c-.121582.0976562-.2436523.1210938-.3901367.1210938-.3657227,0-.609375-.2431641-.6582031-.609375-.0976562-.7802734-.0488281-1.8769531-.0488281-2.6816406,0-.4394531-.0244141-.9023438.0244141-1.3417969.0244141-.3652344.3168945-.609375.6826172-.609375.2685547,0,.512207.1953125.5854492.4394531.9267578-.1464844,1.8774414-.1953125,2.8041992-.1953125.7558594,0,1.6337891,0,2.3652344.1953125.3168945.0732422.5117188.3164062.5117188.6337891,0,.5117188-.5849609,1.9990234-.7314453,2.6083984Zm3.5844727-4.5839844c-.609375,0-1.2436523-.0488281-1.8530273-.0488281-2.4873047,0-4.9741211.0976562-7.4370117.2929688-1,.0732422-2.097168.0976562-3.0478516.3662109-.0732422.0244141-.1220703.0244141-.1953125.0244141-.3657227,0-.6337891-.2929688-.6337891-.6347656,0-.3164062.1704102-.5117188.4389648-.6337891,1.2192383-.5361328,8.9975586-.7314453,10.6796875-.7314453.6098633,0,1.5361328-.0488281,2.121582.0732422.3413086.0732422.5849609.2929688.5849609.6337891,0,.3662109-.2924805.6582031-.6582031.6582031Zm-.7558594-4.1933594c.2680664.0976562.4633789.3164062.4633789.609375,0,.8291016-1,.609375-1.5117188.609375-1.4145508,0-7.5834961.1220703-8.6074219.5117188h-.0488281c-.0488281.0253906-.1220703.0253906-.1708984.0253906-.3168945,0-.5605469-.1708984-.6582031-.4638672-.1948242-.5605469-.1948242-2.2675781-.1948242-2.9013672,0-.8046875-.0488281-1.7070312.0483398-2.5117188.0488281-.3652344.2441406-.6337891.6586914-.6337891.2436523,0,.4873047.1953125.5849609.4140625,1-.0966797,1.9995117-.1455078,2.9990234-.1943359,1.512207-.0488281,2.9995117-.0976562,4.5112305-.0976562.3413086,0,1.5849609,0,1.8774414.0732422.3168945.0966797.487793.2919922.512207.6337891v.4384766c0,1.1464844-.0976562,2.3896484-.4633789,3.4873047Zm-7.534668-3.1699219c-.6337891.0244141-1.2675781.0488281-1.8774414.1220703-.0244141.5117188-.0244141.9990234-.0244141,1.5117188,0,.609375,0,1.2431641.0732422,1.8769531.6337891-.0966797,1.2680664-.1220703,1.9018555-.1943359-.0976562-1.0976562-.0732422-2.21875-.0732422-3.3164062Zm2.6337891,9.8261719c-.9511719,0-1.9023438.0488281-2.8530273.1953125v.7314453c0,.4384766,0,.8535156.0244141,1.2919922,1.1704102-.1210938,2.3652344-.1210938,3.5600586-.1210938.1459961-.6835938.4145508-1.3662109.609375-2.0488281-.4389648-.0488281-.9023438-.0488281-1.3408203-.0488281Zm-1.3168945-9.8994141v1.8046875c0,.5117188,0,1.0234375.0488281,1.5117188.5117188-.0244141,1.0483398-.0488281,1.5605469-.0488281.1948242-1.0976562.3901367-2.21875.609375-3.3164062l-2.21875.0488281Zm7.9003906,19.7265625c-.6831055,0-2.121582-.5371094-2.6582031-.9511719-.8774414-.6582031-1.6577148-1.4873047-2.4624023-2.2431641l-1.0244141-.9755859c-.121582-.1220703-.1948242-.2929688-.1948242-.4628906,0-.3662109.2680664-.6591797.6337891-.6591797s.7314453.4150391.9755859.6591797c1.1704102-.7568359,2.2431641-1.6826172,3.4868164-2.2919922l.0488281-.0253906c.121582-.0478516.1948242-.0966797.3413086-.0966797.3657227,0,.6337891.2919922.6337891.6582031,0,.2431641-.0976562.3896484-.2924805.5361328l-.0244141.0244141-.9750977.6337891c-.7558594.4882812-1.5361328.9755859-2.2680664,1.4873047.6342773.5859375,1.2436523,1.2197266,1.9262695,1.7558594.4145508.3173828,1.4389648.609375,1.9750977.6826172.3413086.0488281.5854492.2685547.5854492.6347656,0,.4140625-.3168945.6337891-.7070312.6337891Zm-4.340332-19.7998047c-.2441406,1.0976562-.4389648,2.1943359-.6098633,3.2919922.6342773-.0244141,1.2680664-.0244141,1.9023438-.0244141.4384766-.9511719.5361328-2.2431641.5361328-3.2675781h-1.8286133Z"/>
      <path class="cls-1" d="m78.0141602,16.921875c-2.3164062.8291016-4.6083984,1.5117188-6.8764648,2.5117188-.097168.0488281-.1948242.0732422-.2924805.0732422-.3657227,0-.6826172-.3173828-.6826172-.6826172,0-.2685547.1464844-.4882812.3901367-.6103516.8046875-.4384766,2.2919922-.9257812,3.1943359-1.2431641.1704102-1.8779297.1459961-3.8037109.1704102-5.6816406-.6582031.0488281-1.8286133.0732422-2.4379883.2441406-.0488281.0244141-.0976562.0244141-.1464844.0244141-.3657227,0-.6826172-.3173828-.6826172-.6826172,0-.3417969.2192383-.5849609.5361328-.6582031.6831055-.1708984,1.9995117-.2197266,2.730957-.2685547,0-.4394531-.0244141-.8535156-.0244141-1.2919922,0-.3662109.2929688-.6826172.6586914-.6826172s.6826172.2919922.6826172.6582031c0,.4140625.0244141.8046875.0244141,1.21875.7802734-.0488281,1.2924805-.0976562,2.0727539-.0976562.3657227,0,.6826172.3173828.6826172.6826172,0,.3662109-.3168945.6591797-.6826172.6591797-.7802734,0-1.2924805.0488281-2.0727539.0966797-.0244141,1.7558594-.0244141,3.5361328-.1220703,5.2919922.3901367-.1220703,2.3652344-.8779297,2.6577148-.8779297.3657227,0,.6831055.2919922.6831055.6582031,0,.3173828-.1708984.5605469-.4633789.6582031Zm14.6542969,2.7314453c-1.0727539,1.5117188-3.2426758,2.6328125-5.0961914,2.6328125-.3901367,0-.7802734-.0488281-1.1459961-.1220703-1.5117188-.3408203-1.6337891-2.2675781-1.6337891-3.5107422,0-.6582031.0976562-1.3164062.0976562-2v-.0488281l-.9995117.0488281c-1.0732422,1.9511719-3.2431641,4.7060547-5.0961914,5.9013672-.1220703.0732422-.2441406.1220703-.3901367.1220703-.3657227,0-.6582031-.2929688-.6582031-.6835938,0-.21875.097168-.3896484.2680664-.5361328,1.706543-1.3164062,3.1210938-2.8769531,4.2670898-4.7060547l-1.0483398.0976562c-.0732422.2685547-.3417969.4628906-.6342773.4628906-.3413086,0-.609375-.21875-.6826172-.5605469-.1220703-.6337891-.0976562-2.6816406-.0976562-3.4130859,0-.8535156-.0244141-1.7802734.0488281-2.6337891.0244141-.390625.2924805-.6337891.6826172-.6337891.3173828,0,.5854492.2685547.6342773.5605469,1.4873047-.2441406,3.0234375-.3173828,4.5107422-.3173828.5610352,0,1.8286133,0,2.3408203.2197266.3413086.1464844.4389648.3662109.4389648.7070312,0,1.2929688-.1953125,2.6582031-.4145508,3.9257812.3901367,0,.7558594.2197266.7558594.6591797,0,.3652344-.3168945.6816406-.6826172.6816406-.6342773,0-1.2436523.0253906-1.8774414.0488281-.0976562.3173828-.1464844,1.6337891-.1464844,2.0244141,0,.4628906.0244141,2.1210938.5854492,2.2675781.2924805.0732422.609375.0976562.9018555.0976562,1.4873047,0,2.9995117-.8779297,3.9257812-2.0244141.0976562-.3896484.0488281-.7314453.0488281-1.0966797,0-.390625.2680664-.6826172.6582031-.6826172.6831055,0,.7075195.6826172.7075195,1.1699219,0,.3417969-.0732422,1.0732422-.2685547,1.3417969Zm-1.9262695-10.4609375c-.6826172,0-1.3896484-.0488281-2.0722656-.0488281-1.9995117,0-8.3149414.0488281-9.9975586.609375-.0732422.0244141-.1220703.0488281-.1948242.0488281-.3657227,0-.6831055-.2929688-.6831055-.6582031,0-.3173828.1708984-.5605469.4633789-.6582031.7070312-.2685547,2.5117188-.4150391,3.2919922-.4628906-.0732422-1.1464844-.0976562-2.3173828-.1464844-3.4628906-.5361328.0244141-1.2192383.1464844-1.730957.1464844-.3417969,0-.6586914-.2929688-.6586914-.6347656,0-.3408203.2197266-.609375.5610352-.6826172.4145508-.0966797.8779297-.0966797,1.2924805-.1220703.9262695-.0722656,1.8774414-.0966797,2.828125-.1455078-.0244141-.7802734-.121582-1.5849609-.2436523-2.3652344v-.1220703c0-.3662109.2924805-.6337891.6582031-.6337891.3413086,0,.5854492.2197266.6586914.5605469.1704102.8046875.2192383,1.7070312.2680664,2.5117188.8291016,0,1.6337891-.0244141,2.4624023-.0244141.487793,0,1-.0244141,1.487793.0244141.3901367.0244141.6582031.2685547.6582031.6826172,0,.3896484-.3413086.6582031-.7070312.6582031-.5610352,0-1.097168-.0244141-1.6582031-.0244141-.1948242,1.1464844-.487793,2.3164062-.8779297,3.4140625h1.487793c.7558594,0,2.21875-.0488281,2.9257812.0488281.3413086.0488281.5849609.2919922.5849609.6582031,0,.3652344-.2924805.6826172-.6582031.6826172Zm-4.949707,2.4628906c-1.5117188,0-3.1210938.0488281-4.6083984.3408203-.0244141.2685547-.0244141.5371094-.0244141.8046875v.1953125c1.9262695-.2197266,3.9257812-.2919922,5.8764648-.2919922.0488281-.3417969.0732422-.6591797.097168-1-.4384766-.0488281-.9018555-.0488281-1.3408203-.0488281Zm-4.6083984,2.7060547v.2441406c0,.2929688,0,.609375.0244141.9023438,1.8041992-.2441406,3.6572266-.2685547,5.4863281-.3173828l.1948242-1.1455078c-1.8774414.0244141-3.828125.0732422-5.7055664.3164062Zm1.5605469-9.8505859c.0488281,1.1464844.0727539,2.2919922.1459961,3.4375.6831055-.0478516,1.3901367-.0722656,2.0727539-.0966797.4389648-1.0976562.7314453-2.2919922.9511719-3.4384766-1.0488281.0244141-2.121582.0488281-3.1699219.0976562Z"/>
    </g>
  </g>
</svg>