<?xml version="1.0" encoding="UTF-8"?>
<svg id="_レイヤー_2" data-name="レイヤー 2" xmlns="http://www.w3.org/2000/svg" xmlns:xlink="http://www.w3.org/1999/xlink" viewBox="0 0 144.19 22.35">
  <defs>
    <style>
      .cls-1 {
        fill: url(#_新規グラデーションスウォッチ_4);
      }

      .cls-1, .cls-2, .cls-3, .cls-4, .cls-5, .cls-6, .cls-7, .cls-8 {
        stroke-width: 0px;
      }

      .cls-2 {
        fill: url(#_新規グラデーションスウォッチ_4-6);
      }

      .cls-3 {
        fill: url(#_新規グラデーションスウォッチ_4-8);
      }

      .cls-4 {
        fill: url(#_新規グラデーションスウォッチ_4-3);
      }

      .cls-5 {
        fill: url(#_新規グラデーションスウォッチ_4-4);
      }

      .cls-6 {
        fill: url(#_新規グラデーションスウォッチ_4-7);
      }

      .cls-7 {
        fill: url(#_新規グラデーションスウォッチ_4-2);
      }

      .cls-8 {
        fill: url(#_新規グラデーションスウォッチ_4-5);
      }
    </style>
    <linearGradient id="_新規グラデーションスウォッチ_4" data-name="新規グラデーションスウォッチ 4" x1="0" y1="11.18" x2="9.01" y2="11.18" gradientUnits="userSpaceOnUse">
      <stop offset="0" stop-color="#94dee3"/>
      <stop offset="1" stop-color="#c29cef"/>
    </linearGradient>
    <linearGradient id="_新規グラデーションスウォッチ_4-2" data-name="新規グラデーションスウォッチ 4" x1="9.87" x2="32.24" xlink:href="#_新規グラデーションスウォッチ_4"/>
    <linearGradient id="_新規グラデーションスウォッチ_4-3" data-name="新規グラデーションスウォッチ 4" x1="33.92" x2="56.24" xlink:href="#_新規グラデーションスウォッチ_4"/>
    <linearGradient id="_新規グラデーションスウォッチ_4-4" data-name="新規グラデーションスウォッチ 4" x1="58.8" y1="10.91" x2="74.3" y2="10.91" xlink:href="#_新規グラデーションスウォッチ_4"/>
    <linearGradient id="_新規グラデーションスウォッチ_4-5" data-name="新規グラデーションスウォッチ 4" x1="76.22" x2="92.24" xlink:href="#_新規グラデーションスウォッチ_4"/>
    <linearGradient id="_新規グラデーションスウォッチ_4-6" data-name="新規グラデーションスウォッチ 4" x1="94.58" x2="100.91" xlink:href="#_新規グラデーションスウォッチ_4"/>
    <linearGradient id="_新規グラデーションスウォッチ_4-7" data-name="新規グラデーションスウォッチ 4" x1="103.89" x2="126.26" xlink:href="#_新規グラデーションスウォッチ_4"/>
    <linearGradient id="_新規グラデーションスウォッチ_4-8" data-name="新規グラデーションスウォッチ 4" x1="128.8" y1="10.91" x2="144.19" y2="10.91" xlink:href="#_新規グラデーションスウォッチ_4"/>
  </defs>
  <g id="_レイヤー_1-2" data-name="レイヤー 1">
    <g>
      <path class="cls-1" d="M0,.53h6.33v12.65c0,.99.16,1.65.48,1.97.32.33.94.49,1.88.49h.33v6.18h-1.68c-2.31,0-4.11-.67-5.4-2.02-1.29-1.35-1.93-3.21-1.93-5.61V.53Z"/>
      <path class="cls-7" d="M21.24,0c3.02,0,5.6,1.1,7.76,3.29,2.16,2.19,3.24,4.82,3.24,7.88s-1.09,5.75-3.26,7.92c-2.17,2.17-4.81,3.26-7.92,3.26s-5.72-1.09-7.91-3.28c-2.18-2.18-3.28-4.82-3.28-7.91s1.1-5.76,3.3-7.92c2.2-2.16,4.89-3.24,8.07-3.24ZM21.06,6.27c-1.3,0-2.41.48-3.32,1.44-.92.96-1.37,2.11-1.37,3.46s.46,2.51,1.38,3.46c.92.96,2.02,1.43,3.31,1.43s2.42-.48,3.33-1.43c.91-.95,1.36-2.11,1.36-3.47s-.46-2.52-1.36-3.47c-.91-.95-2.02-1.43-3.33-1.43Z"/>
      <path class="cls-4" d="M49.61,11.42l6.63.17c-.44,3.43-1.62,6.08-3.56,7.95-1.94,1.87-4.47,2.81-7.59,2.81s-5.83-1.06-7.96-3.19-3.21-4.77-3.21-7.92,1.09-5.84,3.27-8c2.18-2.16,4.86-3.24,8.06-3.24s5.76,1.06,7.86,3.18c1.46,1.47,2.48,3.51,3.09,6.13l-6.78.45c-.76-2.33-2.2-3.49-4.32-3.49-1.35,0-2.47.47-3.35,1.4-.88.94-1.32,2.13-1.32,3.57s.43,2.54,1.29,3.46c.86.91,1.95,1.36,3.28,1.36s2.41-.4,3.21-1.2c.8-.8,1.27-1.95,1.41-3.45Z"/>
      <path class="cls-5" d="M66.96,11.14v5.62h-1.82v5.07h-6.33v-13.54c0-2.62.71-4.66,2.14-6.11,1.43-1.45,3.44-2.18,6.03-2.18s4.34.66,5.54,1.97c1.2,1.32,1.79,3.35,1.79,6.09v13.76h-6.33v-13.34c0-.83-.1-1.41-.3-1.73-.2-.32-.55-.48-1.06-.48-.99,0-1.48.74-1.48,2.21v2.65h1.82Z"/>
      <path class="cls-8" d="M87.4,6.64v15.18h-6.33V6.64h-4.85V.53h16.02v6.11h-4.83Z"/>
      <path class="cls-2" d="M100.91.53v21.29h-6.33V.53h6.33Z"/>
      <path class="cls-6" d="M115.26,0c3.02,0,5.6,1.1,7.76,3.29,2.16,2.19,3.24,4.82,3.24,7.88s-1.09,5.75-3.26,7.92c-2.17,2.17-4.81,3.26-7.92,3.26s-5.72-1.09-7.91-3.28c-2.18-2.18-3.28-4.82-3.28-7.91s1.1-5.76,3.3-7.92c2.2-2.16,4.89-3.24,8.07-3.24ZM115.07,6.27c-1.3,0-2.41.48-3.32,1.44-.92.96-1.37,2.11-1.37,3.46s.46,2.51,1.38,3.46c.92.96,2.02,1.43,3.31,1.43s2.42-.48,3.33-1.43c.91-.95,1.36-2.11,1.36-3.47s-.46-2.52-1.36-3.47c-.91-.95-2.02-1.43-3.33-1.43Z"/>
      <path class="cls-3" d="M128.8,21.82v-13.82c0-2.42.73-4.36,2.18-5.82,1.45-1.46,3.38-2.18,5.79-2.18s4.24.71,5.51,2.12c1.27,1.41,1.91,3.45,1.91,6.1v13.6h-6.33v-13.6c0-1.3-.46-1.95-1.39-1.95s-1.34.65-1.34,1.95v13.6h-6.33Z"/>
    </g>
  </g>
</svg>