<?xml version="1.0" encoding="UTF-8"?>
<svg id="_レイヤー_2" data-name="レイヤー 2" xmlns="http://www.w3.org/2000/svg" viewBox="0 0 140.9314402 22.0427246">
  <defs>
    <style>
      .cls-1 {
        fill: #5bac31;
        stroke-width: 0px;
      }
    </style>
  </defs>
  <g id="_レイヤー_2-2" data-name="レイヤー 2">
    <g>
      <path class="cls-1" d="m12.4111328,11.5334473c-.097168.0487061-.2192383.0731201-.3168945.0731201-.4145508,0-.7314453-.3414307-.7314453-.7315674,0-.3168945.1464844-.4875488.3901367-.6583252,1.3901367-.9022217,3.2431641-3.4381104,3.8525391-4.9742432h-.4389648c-1.706543-.0244141-3.4379883.1219482-5.1445312.2438965-3.097168.2194824-6.1450195.7070312-9.2172852.8778076h-.0976562c-.4140625.024292-.7070312-.3170166-.7070312-.7315674,0-.3901367.2685547-.6339111.6342773-.7070312.3657227-.0732422.7558594-.0976562,1.121582-.1219482l2.6088867-.2926025c2.3896484-.2438965,4.8037109-.4633789,7.2177734-.6096191,1.1459961-.0731201,2.3164062-.1462402,3.4868164-.1462402.6337891,0,2.1699219-.1219482,2.1699219.9020996,0,1.7312012-3.2919922,6.1203613-4.828125,6.8762207Zm-3.0478516.8778076c-.2924805,1.633667-.6337891,3.243042-.9750977,4.876709-.0976562.512085-.1708984,1.0484619-.3168945,1.5605469-.1220703.4632568-.4389648.5852051-.8779297.5852051-.3168945,0-.5854492-.4145508-.5854492-.6827393,0-.4876709.2441406-1.2679443.3413086-1.7556152.3662109-1.6337891.7075195-3.291748,1-4.9499512.1704102-.9509277.3657227-1.9749756.3657227-2.9503174,0-.4145508.3168945-.7315674.7314453-.7315674.3901367,0,.7314453.3414307.7314453.7315674,0,1.09729-.2192383,2.2432861-.4145508,3.3161621Z"/>
      <path class="cls-1" d="m31.5561523,20.092041c-.3901367,0-.7314453-.3413086-.7314453-.7314453,0-.2438965.097168-.4389648.2924805-.5852051.5849609-.487793,1.121582-.9753418,1.6337891-1.5362549,1.609375-1.7556152,5.0717773-6.3884277,5.925293-8.5830078-1.121582-.2437744-2.4384766-.1950684-3.5844727-.1950684-1.4384766,0-2.8530273.0488281-4.2670898.0975342-.8291016.0488281-1.7070312.0732422-2.5117188.2194824-.0488281,0-.0976562.0244141-.1459961.0244141-.2197266,0-.4633789-.1219482-.5854492-.3170166,0,.9266357.0488281,3.3892822.3168945,4.2670898.1708984.1463623.2685547.3658447.2685547.5852051,0,.4145508-.3173828.7315674-.7319336.7315674-1.2431641,0-1.1948242-2.6334229-1.2431641-3.4381104-.0488281-1.0484619-.0732422-2.1213379-.0732422-3.1697998,0-.3901367.3413086-.7315674.7314453-.7315674.5610352,0,.7314453.4632568.7314453.9266357.1220703-.1950684.2436523-.2438965.4389648-.3170166.3901367-.1219482,2.8774414-.2194824,3.3891602-.2438965-.0244141-.2681885-.0244141-.536377-.0244141-.8045654,0-.9753418.0976562-1.9506836.0976562-2.9260254,0-.4145508.3168945-.7315674.7314453-.7315674.3901367,0,.7314453.3414307.7314453.7315674,0,.9996338-.097168,2.0238037-.097168,3.0234375,0,.2194824,0,.4145508.0244141.6340332.8041992,0,1.6088867-.0488281,2.4135742-.0488281.9511719,0,3.9013672-.0731201,4.6572266.7071533.1953125.1950684.2685547.3901367.2685547.6827393,0,1.9262695-7.1689453,11.7285156-8.65625,11.7285156Z"/>
      <path class="cls-1" d="m62.234375,12.4112549c-.0732422,0-.2197266-.0244141-.2929688-.0488281l-1.3896484-.536377c-1.5361328-.512085-3.0722656-.9997559-4.6083984-1.4385986-.0244141.7070312-.0244141,1.4141846-.0244141,2.1213379,0,1.4385986.0488281,6.0471191.487793,7.3393555.121582.1463623.2192383.3170166.2192383.512085,0,.4145508-.3168945.7315674-.7314453.7315674-.2680664,0-.4633789-.0975342-.6337891-.2926025-.7802734-.8291016-.8046875-6.7298584-.8046875-8.144165,0-2.5114746.0732422-5.0229492.3413086-7.5344238.0976562-1.048584.2192383-2.3896484.487793-3.4138184.097168-.3413086.3413086-.6094971.7314453-.6094971.4145508,0,.7314453.3413086.7314453.7558594,0,.0487061-.0244141.0975342-.0244141.1463623-.4145508,2.2675781-.6098633,4.5596924-.7314453,6.8760986,1.5117188.4145508,3.0234375.9022217,4.5107422,1.4141846.5610352.1707764,1.5361328.4633789,2.0239258.7315674.2680664.1463623.4389648.3657227.4389648.6827393,0,.3901367-.3413086.7071533-.7314453.7071533Z"/>
      <path class="cls-1" d="m85.8657227,12.5574951c-.1464844,0-.2197266-.024292-.3417969-.0975342-.6337891-.3413086-1.3652344-.560791-2.0478516-.8046875-1.1953125-.4388428-2.4140625-.8533936-3.6333008-1.2435303-.0244141.7071533-.0244141,1.4143066-.0244141,2.12146,0,1.4385986.0488281,6.0227051.487793,7.3149414.1220703.1463623.2192383.3170166.2192383.512085,0,.4145508-.3168945.7315674-.7314453.7315674-.2680664,0-.4633789-.0975342-.6337891-.2926025-.7558594-.8291016-.8046875-6.7054443-.8046875-8.0953369,0-2.5114746.0976562-5.0473633.3413086-7.55896.1220703-1.0484619.2192383-2.4139404.487793-3.4381104.0976562-.3413086.3413086-.6094971.7314453-.6094971s.7314453.3413086.7314453.7314453c0,.0488281-.0244141.0975342-.0244141.1463623-.4145508,2.2919922-.609375,4.6083984-.7314453,6.9249268,1.7070312.512085,3.4135742,1.09729,5.0717773,1.7312012.3896484.1463623.9023438.3170166,1.2431641.536499.2441406.1462402.390625.3413086.390625.6583252,0,.3901367-.3173828.7314453-.7314453.7314453Zm-.3417969-7.2906494c-.4628906,0-1.6337891-.512085-2.0234375-.8046875-.1953125-.1462402-.3173828-.3413086-.3173828-.5852051,0-.4145508.3417969-.7558594.7314453-.7558594.3173828,0,1.1708984.6096191,1.7314453.6827393.3896484.0487061.6582031.3657227.6582031.7558594,0,.4389648-.3662109.7071533-.7802734.7071533Zm2.3408203-.7071533c-.7802734,0-1.1699219-1.4385986-1.5605469-1.9749756-.0244141-.0976562-.0488281-.1707764-.0488281-.2683105,0-.4145508.3173828-.7558594.7314453-.7558594.3173828,0,.5605469.1950684.6826172.4632568.1708984.3658447.4638672.9997559.7070312,1.2923584.1464844.1706543.2197266.3170166.2197266.536377,0,.4145508-.3173828.7071533-.7314453.7071533Z"/>
      <path class="cls-1" d="m109.9594727,11.5334473c-.0966797.0487061-.21875.0731201-.3164062.0731201-.4150391,0-.7314453-.3414307-.7314453-.7315674,0-.3168945.1464844-.4875488.3896484-.6583252,1.390625-.9022217,3.2431641-3.4381104,3.8525391-4.9742432h-.4384766c-1.7070312-.0244141-3.4384766.1219482-5.1445312.2438965-3.0976562.2194824-6.1455078.7070312-9.2177734.8778076h-.0976562c-.4140625.024292-.7070312-.3170166-.7070312-.7315674,0-.3901367.2685547-.6339111.6347656-.7070312.3652344-.0732422.7558594-.0976562,1.1210938-.1219482l2.609375-.2926025c2.3896484-.2438965,4.8037109-.4633789,7.2177734-.6096191,1.1455078-.0731201,2.3164062-.1462402,3.4863281-.1462402.6337891,0,2.1699219-.1219482,2.1699219.9020996,0,1.7312012-3.2919922,6.1203613-4.828125,6.8762207Zm-3.0478516.8778076c-.2919922,1.633667-.6337891,3.243042-.9746094,4.876709-.0976562.512085-.1708984,1.0484619-.3173828,1.5605469-.1220703.4632568-.4384766.5852051-.8779297.5852051-.3164062,0-.5849609-.4145508-.5849609-.6827393,0-.4876709.2441406-1.2679443.3408203-1.7556152.3662109-1.6337891.7080078-3.291748,1-4.9499512.1708984-.9509277.3662109-1.9749756.3662109-2.9503174,0-.4145508.3164062-.7315674.7314453-.7315674.3896484,0,.7314453.3414307.7314453.7315674,0,1.09729-.2197266,2.2432861-.4150391,3.3161621Z"/>
      <path class="cls-1" d="m122.6186523,14.1911621c-.7802734,1.09729-1.5117188,2.2189941-2.2675781,3.3405762-.1220703.1950684-.3173828.3170166-.5605469.3170166-.3662109,0-.6591797-.2926025-.6591797-.6583252,0-.1219482.0244141-.2438965.0976562-.3414307.2685547-.4876709.6103516-.9265137.9023438-1.3897705.4638672-.7071533.9267578-1.4387207,1.4628906-2.0726318.1220703-.1463623.3173828-.2438965.5371094-.2438965.3408203,0,.6337891.2926025.6337891.6583252,0,.1463623-.0732422.2683105-.1464844.3901367Zm4.8769531-2.4382324c-.7070312,0-.5859375-.8779297-.7070312-1.3411865-.6347656.0731201-1.2441406.1219482-1.8779297.2194824-.2197266,3.4381104-.3173828,6.9249268-.3173828,10.3873291,0,.3414307-.2919922.6828613-.6582031.6828613-.6337891,0-.6582031-.5609131-.6582031-1.0241699,0-3.291748.1220703-6.6079102.3173828-9.8996582-.9267578.1218262-1.8779297.2193604-2.8046875.4144287-.0488281,0-.0732422.0244141-.1220703.0244141-.3652344,0-.6582031-.3170166-.6582031-.6827393,0-.2438965.1464844-.4145508.3417969-.560791,1.2431641-.8046875,2.9013672-2.3408203,3.9013672-3.4381104-.8291016-.1950684-1.609375-.2681885-2.4628906-.2681885-.3652344,0-.6582031-.3170166-.6582031-.6584473,0-.2193604.0976562-.3657227.2441406-.5119629.8046875-.7315674,1.9257812-2.706543,2.5351562-3.6818848.1220703-.1950684.3173828-.3414307.5615234-.3414307.3652344,0,.6582031.2926025.6582031.6583252,0,.4633789-1.6337891,2.8041992-1.9755859,3.2674561.6582031.0731201,2.8046875.3657227,2.8046875,1.2923584,0,.6826172-2.4140625,2.755249-2.9511719,3.2429199,1.1220703-.1462402,2.2685547-.2926025,3.3896484-.4145508-.0976562-.2681885-.4140625-.7558594-.4140625-.9996338,0-.3658447.3164062-.6583252.6582031-.6583252.2441406,0,.4384766.1218262.5605469.3168945.4638672.6584473,1,2.4383545,1,3.243042,0,.4388428-.2685547.7315674-.7070312.7315674Zm-.1220703,3.9256592c-.4638672,0-1.7802734-1.1459961-2.1210938-1.4874268-.1220703-.1218262-.1953125-.2924805-.1953125-.4632568,0-.3901367.2919922-.6583252.6582031-.6583252.1708984,0,.3417969.0731201.4628906.1950684.6103516.560791.8535156.7314453,1.5361328,1.1948242.1953125.1218262.3173828.3168945.3173828.560791,0,.3413086-.2929688.6583252-.6582031.6583252Zm12.8496094,5.949585c-.0966797.2438965-.3408203.4145508-.609375.4145508-.5361328,0-1.7070312-.3657227-1.7070312-1.0241699,0-.3901367.2929688-.6583252.6591797-.6583252.3164062,0,.3652344.1463623.609375.2194824.3164062-1.4141846.3652344-2.9504395.4140625-4.3890381-.7070312,0-1.4140625.0244141-2.1210938.0488281-.0488281.9509277-.0976562,1.8774414-.1708984,2.8283691-.0244141.4389648-.0244141.9510498-.1220703,1.3898926-.0732422.3170166-.3164062.560791-.6582031.560791-.3408203,0-.6337891-.3168945-.6337891-.6339111v-.1219482c.1953125-1.2435303.1953125-2.730957.2685547-3.9989014l-1.5361328.0731201c-.0244141,1.2192383-.0488281,2.4384766-.0488281,3.6575928,0,.3901367-.2685547.6827393-.6582031.6827393-.6591797,0-.6591797-.6096191-.6591797-1.09729,0-1.0484619.0244141-2.1213379.0488281-3.1697998-.6337891.0244141-1.2431641.0487061-1.8769531.1218262-.0488281,1.2192383-.0976562,2.4384766-.0976562,3.6575928,0,.2437744.0244141.4876709.0244141.7315674,0,.3413086-.2929688.6339111-.6582031.6339111-.7070312,0-.6826172-.7315674-.6826172-1.2435303,0-1.9506836.1210938-3.9257812.1943359-5.9008789-.6582031,1.5605469-1.4873047,3.0723877-2.4873047,4.4134521-.1699219.1950684-.3164062.4388428-.4873047.6096191-.1220703.1462402-.3173828.2193604-.5117188.2193604-.3417969,0-.6582031-.2924805-.6582031-.6339111,0-.1706543.0722656-.3170166.1699219-.4388428.5126953-.6584473,1-1.2680664,1.4150391-1.9750977,1.8525391-3.0723877,3.0966797-7.3638916,3.2910156-10.9482422-.21875.0244141-.4628906.0975342-.6826172.0975342-.3408203,0-.6337891-.3170166-.6337891-.6583252,0-.3170166.2197266-.536499.5117188-.6340332.5371094-.1706543,1.3173828-.1462402,1.9023438-.1950684,1.9990234-.1218262,4.0234375-.1706543,6.046875-.1706543.5361328,0,1.7314453-.1706543,1.6582031.6583252v.0975342c-.0976562,1.3898926-.5117188,2.7797852-.8535156,4.1208496-.0732422.3170166-.2685547.5852051-.6337891.5852051l-.0244141.0244141h-.5117188c-1.1708984,0-2.3408203.0244141-3.5117188.0487061-.8535156.0244141-1.7070312.0488281-2.5361328.1219482-.1210938.560791-.2675781,1.121582-.4384766,1.6824951.1220703.0487061.2441406.1462402.3173828.2681885.9990234-.1950684,2.0478516-.2438965,3.0722656-.3170166,1.3896484-.0731201,2.828125-.1219482,4.2421875-.1219482,2.1455078,0,2.0732422-.1218262,2.0732422,1.9750977,0,1.8288574-.0488281,6.8762207-.7080078,8.3879395Zm-8.6318359-8.6074219l-.0966797,2.1945801c.609375-.0731201,1.21875-.0975342,1.828125-.1219482.0244141-.7558594.0488281-1.5361328.0488281-2.2919922-.5849609.0487061-1.1943359.0975342-1.7802734.2193604Zm.6347656-7.4368896c-.0244141.9509277-.1464844,1.9018555-.3173828,2.8284912,1.9267578-.1219482,3.9013672-.1463623,5.828125-.1463623.2431641-.9509277.4140625-1.9262695.5849609-2.8771973-2.0244141,0-4.0722656.0731201-6.0957031.1950684Zm3.0722656-2.706665c-.1708984,0-.3417969-.0731201-.4638672-.1950684-.5849609-.560791-1.2431641-1.0484619-1.9257812-1.4873047-.1953125-.1219482-.2929688-.3414307-.2929688-.560791,0-.3658447.2685547-.6340332.6337891-.6340332.4638672,0,2.1464844,1.3654785,2.5117188,1.7556152.1220703.1219482.1953125.2926025.1953125.4632568,0,.3658447-.2929688.6583252-.6582031.6583252Zm-.609375,9.8266602l-.0488281,2.3164062,1.5605469-.0731201c.0488281-.7802734.0722656-1.5362549.0966797-2.3165283l-1.6083984.0732422Zm4.9248047-.1219482h-.3652344c-.5371094,0-1.0976562,0-1.6337891.0244141-.0244141.7802734-.0488281,1.5361328-.0976562,2.3164062.7070312-.0244141,1.3896484-.0244141,2.0966797-.0244141,0-.3901367.0244141-.7802734.0244141-1.1947021,0-.3658447,0-.7559814-.0244141-1.1217041Z"/>
    </g>
  </g>
</svg>