<?xml version="1.0" encoding="UTF-8"?>
<svg id="_レイヤー_2" data-name="レイヤー 2" xmlns="http://www.w3.org/2000/svg" xmlns:xlink="http://www.w3.org/1999/xlink" viewBox="0 0 132.03 22.35">
  <defs>
    <style>
      .cls-1 {
        fill: url(#_新規グラデーションスウォッチ_4);
      }

      .cls-1, .cls-2, .cls-3, .cls-4, .cls-5, .cls-6, .cls-7, .cls-8 {
        stroke-width: 0px;
      }

      .cls-2 {
        fill: url(#_新規グラデーションスウォッチ_4-6);
      }

      .cls-3 {
        fill: url(#_新規グラデーションスウォッチ_4-8);
      }

      .cls-4 {
        fill: url(#_新規グラデーションスウォッチ_4-3);
      }

      .cls-5 {
        fill: url(#_新規グラデーションスウォッチ_4-4);
      }

      .cls-6 {
        fill: url(#_新規グラデーションスウォッチ_4-7);
      }

      .cls-7 {
        fill: url(#_新規グラデーションスウォッチ_4-2);
      }

      .cls-8 {
        fill: url(#_新規グラデーションスウォッチ_4-5);
      }
    </style>
    <linearGradient id="_新規グラデーションスウォッチ_4" data-name="新規グラデーションスウォッチ 4" x1="0" y1="10.91" x2="15.77" y2="10.91" gradientUnits="userSpaceOnUse">
      <stop offset="0" stop-color="#94dee3"/>
      <stop offset="1" stop-color="#c29cef"/>
    </linearGradient>
    <linearGradient id="_新規グラデーションスウォッチ_4-2" data-name="新規グラデーションスウォッチ 4" x1="17.95" y1="11.18" x2="26.97" y2="11.18" xlink:href="#_新規グラデーションスウォッチ_4"/>
    <linearGradient id="_新規グラデーションスウォッチ_4-3" data-name="新規グラデーションスウォッチ 4" x1="28.67" x2="44.17" xlink:href="#_新規グラデーションスウォッチ_4"/>
    <linearGradient id="_新規グラデーションスウォッチ_4-4" data-name="新規グラデーションスウォッチ 4" x1="47.57" x2="62.96" xlink:href="#_新規グラデーションスウォッチ_4"/>
    <linearGradient id="_新規グラデーションスウォッチ_4-5" data-name="新規グラデーションスウォッチ 4" x1="66.38" x2="81.77" xlink:href="#_新規グラデーションスウォッチ_4"/>
    <linearGradient id="_新規グラデーションスウォッチ_4-6" data-name="新規グラデーションスウォッチ 4" x1="85.63" y1="11.18" x2="91.96" y2="11.18" xlink:href="#_新規グラデーションスウォッチ_4"/>
    <linearGradient id="_新規グラデーションスウォッチ_4-7" data-name="新規グラデーションスウォッチ 4" x1="95.78" x2="111.17" xlink:href="#_新規グラデーションスウォッチ_4"/>
    <linearGradient id="_新規グラデーションスウォッチ_4-8" data-name="新規グラデーションスウォッチ 4" x1="113.73" y1="11.18" x2="132.03" y2="11.18" xlink:href="#_新規グラデーションスウォッチ_4"/>
  </defs>
  <g id="_レイヤー_1-2" data-name="レイヤー 1">
    <g>
      <path class="cls-1" d="M7.36,14.46v-5.58c1.28,0,1.92-.49,1.92-1.47,0-.89-.49-1.34-1.47-1.34s-1.48.61-1.48,1.84v13.91H0v-13.26c0-1.37.14-2.5.41-3.38s.75-1.7,1.41-2.46c.75-.84,1.68-1.51,2.81-2,1.12-.49,2.28-.73,3.48-.73,2.16,0,3.98.73,5.45,2.18,1.47,1.46,2.21,3.26,2.21,5.41s-.66,3.78-1.98,5.08c-1.21,1.2-3.03,1.79-5.46,1.79l-.97-.02Z"/>
      <path class="cls-7" d="M17.95.53h6.33v12.65c0,.99.16,1.65.48,1.97.32.33.94.49,1.88.49h.33v6.18h-1.68c-2.31,0-4.11-.67-5.4-2.02-1.29-1.35-1.93-3.22-1.93-5.61V.53Z"/>
      <path class="cls-4" d="M36.82,11.14v5.61h-1.82v5.07h-6.33v-13.54c0-2.62.71-4.66,2.14-6.11,1.43-1.45,3.44-2.18,6.03-2.18s4.34.66,5.54,1.97c1.2,1.32,1.79,3.35,1.79,6.09v13.76h-6.33v-13.34c0-.83-.1-1.41-.3-1.73-.2-.32-.55-.48-1.06-.48-.99,0-1.48.74-1.48,2.21v2.65h1.82Z"/>
      <path class="cls-5" d="M47.57,21.82v-13.82c0-2.42.73-4.36,2.18-5.82,1.45-1.46,3.38-2.18,5.79-2.18s4.24.71,5.51,2.12c1.27,1.41,1.91,3.45,1.91,6.1v13.6h-6.33v-13.6c0-1.3-.46-1.95-1.39-1.95s-1.34.65-1.34,1.95v13.6h-6.33Z"/>
      <path class="cls-8" d="M66.38,21.82v-13.82c0-2.42.73-4.36,2.18-5.82,1.45-1.46,3.38-2.18,5.79-2.18s4.24.71,5.51,2.12c1.27,1.41,1.91,3.45,1.91,6.1v13.6h-6.33v-13.6c0-1.3-.46-1.95-1.39-1.95s-1.34.65-1.34,1.95v13.6h-6.33Z"/>
      <path class="cls-2" d="M91.96.53v21.29h-6.33V.53h6.33Z"/>
      <path class="cls-6" d="M95.78,21.82v-13.82c0-2.42.73-4.36,2.18-5.82,1.45-1.46,3.38-2.18,5.79-2.18s4.24.71,5.51,2.12c1.27,1.41,1.91,3.45,1.91,6.1v13.6h-6.33v-13.6c0-1.3-.46-1.95-1.39-1.95s-1.34.65-1.34,1.95v13.6h-6.33Z"/>
      <path class="cls-3" d="M124.04,9.89h6.04c1.3,1.61,1.95,3.31,1.95,5.1,0,2.08-.76,3.83-2.29,5.24-1.52,1.41-3.4,2.12-5.62,2.12-2.89,0-5.34-1.1-7.36-3.29-2.02-2.19-3.03-4.87-3.03-8.02s1.03-5.79,3.08-7.89c2.05-2.1,4.62-3.15,7.7-3.15,1.05,0,2.21.21,3.49.64v6.33c-1-.47-1.91-.7-2.73-.7-1.49,0-2.7.46-3.64,1.39-.94.93-1.41,2.13-1.41,3.6s.44,2.7,1.31,3.59,2.05,1.33,3.54,1.33c.95,0,1.42-.28,1.42-.83,0-.42-.31-.62-.94-.62h-1.51v-4.83Z"/>
    </g>
  </g>
</svg>