<?xml version="1.0" encoding="UTF-8"?>
<svg id="_レイヤー_2" data-name="レイヤー 2" xmlns="http://www.w3.org/2000/svg" xmlns:xlink="http://www.w3.org/1999/xlink" viewBox="0 0 429.7802734 75.0253906">
  <defs>
    <style>
      .cls-1 {
        fill: url(#_新規グラデーションスウォッチ_3-4);
      }

      .cls-1, .cls-2, .cls-3, .cls-4, .cls-5, .cls-6, .cls-7 {
        stroke-width: 0px;
      }

      .cls-2 {
        fill: url(#_新規グラデーションスウォッチ_3-6);
      }

      .cls-3 {
        fill: url(#_新規グラデーションスウォッチ_3);
      }

      .cls-4 {
        fill: url(#_新規グラデーションスウォッチ_3-5);
      }

      .cls-5 {
        fill: url(#_新規グラデーションスウォッチ_3-7);
      }

      .cls-6 {
        fill: url(#_新規グラデーションスウォッチ_3-3);
      }

      .cls-7 {
        fill: url(#_新規グラデーションスウォッチ_3-2);
      }
    </style>
    <linearGradient id="_新規グラデーションスウォッチ_3" data-name="新規グラデーションスウォッチ 3" x1="0" y1="37.5126953" x2="79.6230469" y2="37.5126953" gradientUnits="userSpaceOnUse">
      <stop offset="0" stop-color="#95dfe4"/>
      <stop offset="1" stop-color="#c39df0"/>
    </linearGradient>
    <linearGradient id="_新規グラデーションスウォッチ_3-2" data-name="新規グラデーションスウォッチ 3" x1="88.4018555" y1="37.1992188" x2="149.1118164" y2="37.1992188" xlink:href="#_新規グラデーションスウォッチ_3"/>
    <linearGradient id="_新規グラデーションスウォッチ_3-3" data-name="新規グラデーションスウォッチ 3" x1="157.1591797" y1="36.4155273" x2="229.8857422" y2="36.4155273" xlink:href="#_新規グラデーションスウォッチ_3"/>
    <linearGradient id="_新規グラデーションスウォッチ_3-4" data-name="新規グラデーションスウォッチ 3" x1="237.9326172" y1="36.4155273" x2="277.7441406" y2="36.4155273" xlink:href="#_新規グラデーションスウォッチ_3"/>
    <linearGradient id="_新規グラデーションスウォッチ_3-5" data-name="新規グラデーションスウォッチ 3" x1="287.0439453" y1="36.4155273" x2="305.1210938" y2="36.4155273" xlink:href="#_新規グラデーションスウォッチ_3"/>
    <linearGradient id="_新規グラデーションスウォッチ_3-6" data-name="新規グラデーションスウォッチ 3" x1="313.1665039" y1="36.4155273" x2="360.9194336" y2="36.4155273" xlink:href="#_新規グラデーションスウォッチ_3"/>
    <linearGradient id="_新規グラデーションスウォッチ_3-7" data-name="新規グラデーションスウォッチ 3" x1="360.3974609" y1="36.4155273" x2="429.7802734" y2="36.4155273" xlink:href="#_新規グラデーションスウォッチ_3"/>
  </defs>
  <g id="_レイヤー_2-2" data-name="レイヤー 2">
    <g>
      <path class="cls-3" d="m79.6230469,72.5175781l-16.6142578,2.5078125-5.8515625-6.6875c-6.1650391,3.34375-11.8076172,4.4931641-18.2861328,4.4931641-14.5244141,0-23.6152344-5.6425781-29.0488281-11.4941406C3.1347656,54.2314453,0,44.7226562,0,36.1542969c0-9.8222656,4.1796875-19.2265625,10.7626953-25.6005859C17.7636719,3.7617188,27.6904297,0,38.3486328,0c9.9267578,0,20.3759766,3.4482422,27.6904297,10.4492188,5.9560547,5.7470703,10.7626953,14.8378906,10.7626953,26.2275391,0,4.8066406-.7314453,9.0908203-2.8212891,14.0019531-1.5673828,3.6572266-3.4482422,6.5830078-6.3740234,9.5087891l12.0166016,12.3300781Zm-29.7802734-31.2431641l4.8066406,5.2246094c2.1943359-3.1347656,3.2392578-6.8964844,3.2392578-10.2402344,0-4.2841797-2.1943359-9.5087891-5.6425781-12.9570312-3.7617188-3.7617188-9.4042969-5.7470703-13.8974609-5.7470703-5.015625,0-10.1357422,1.9853516-13.7929688,5.7470703-3.5527344,3.6572266-5.6425781,8.8818359-5.6425781,14.0019531,0,5.3291016,2.2988281,9.8222656,5.2246094,12.6435547,3.34375,3.2392578,8.6728516,5.3291016,14.1064453,5.3291016,2.1943359,0,3.9707031-.3134766,5.6425781-.7314453l-11.0761719-11.0761719,17.0322266-2.1943359Z"/>
      <path class="cls-7" d="m106.4790039,1.5673828v41.2744141c0,2.9257812.1044922,7.4189453,3.5527344,10.7626953,2.0898438,1.9853516,5.4335938,3.34375,8.5683594,3.34375s6.3740234-1.2539062,8.359375-3.0302734c4.1796875-3.6572266,4.0751953-8.7773438,4.0751953-12.6435547V1.5673828h18.0771484v40.0205078c0,7.3144531-.3134766,14.9423828-7.8369141,22.5703125-5.8515625,5.9560547-13.1660156,8.6728516-22.9882812,8.6728516-10.9716797,0-18.8085938-3.7617188-23.0927734-8.359375-6.0605469-6.5830078-6.7919922-15.4648438-6.7919922-22.8837891V1.5673828h18.0771484Z"/>
      <path class="cls-6" d="m206.2705078,59.5605469h-25.2871094l-4.7021484,11.703125h-19.1220703L183.9091797,1.5673828h19.7490234l26.2275391,69.6962891h-19.3310547l-4.2841797-11.703125Zm-4.8066406-13.7929688l-7.8369141-22.5703125-7.6279297,22.5703125h15.4648438Z"/>
      <path class="cls-1" d="m256.0097656,1.5673828v54.3359375h21.734375v15.3603516h-39.8115234V1.5673828h18.0771484Z"/>
      <path class="cls-4" d="m305.1210938,1.5673828v69.6962891h-18.0771484V1.5673828h18.0771484Z"/>
      <path class="cls-2" d="m346.081543,16.9277344v54.3359375h-18.0771484V16.9277344h-14.8378906V1.5673828h47.7529297v15.3603516h-14.8378906Z"/>
      <path class="cls-5" d="m385.5800781,37.8261719L360.3974609,1.5673828h21.6298828l13.1660156,19.0175781,12.6435547-19.0175781h21.9433594l-26.0185547,36.2587891v33.4375h-18.1816406v-33.4375Z"/>
    </g>
  </g>
</svg>