<?xml version="1.0" encoding="UTF-8"?>
<svg id="_レイヤー_2" data-name="レイヤー 2" xmlns="http://www.w3.org/2000/svg" xmlns:xlink="http://www.w3.org/1999/xlink" viewBox="0 0 117.39 20.49">
  <defs>
    <style>
      .cls-1 {
        fill: url(#_新規グラデーションスウォッチ_2);
      }

      .cls-1, .cls-2, .cls-3, .cls-4, .cls-5, .cls-6, .cls-7 {
        stroke-width: 0px;
      }

      .cls-2 {
        fill: url(#_新規グラデーションスウォッチ_2-7);
      }

      .cls-3 {
        fill: url(#_新規グラデーションスウォッチ_2-5);
      }

      .cls-4 {
        fill: url(#_新規グラデーションスウォッチ_2-6);
      }

      .cls-5 {
        fill: url(#_新規グラデーションスウォッチ_2-4);
      }

      .cls-6 {
        fill: url(#_新規グラデーションスウォッチ_2-2);
      }

      .cls-7 {
        fill: url(#_新規グラデーションスウォッチ_2-3);
      }
    </style>
    <linearGradient id="_新規グラデーションスウォッチ_2" data-name="新規グラデーションスウォッチ 2" x1="0" y1="10.25" x2="21.75" y2="10.25" gradientUnits="userSpaceOnUse">
      <stop offset="0" stop-color="#95dfe4"/>
      <stop offset="1" stop-color="#c39df0"/>
    </linearGradient>
    <linearGradient id="_新規グラデーションスウォッチ_2-2" data-name="新規グラデーションスウォッチ 2" x1="24.15" y1="10.16" x2="40.73" y2="10.16" xlink:href="#_新規グラデーションスウォッチ_2"/>
    <linearGradient id="_新規グラデーションスウォッチ_2-3" data-name="新規グラデーションスウォッチ 2" x1="42.93" y1="9.95" x2="62.79" y2="9.95" xlink:href="#_新規グラデーションスウォッチ_2"/>
    <linearGradient id="_新規グラデーションスウォッチ_2-4" data-name="新規グラデーションスウォッチ 2" x1="64.99" y1="9.95" x2="75.87" y2="9.95" xlink:href="#_新規グラデーションスウォッチ_2"/>
    <linearGradient id="_新規グラデーションスウォッチ_2-5" data-name="新規グラデーションスウォッチ 2" x1="78.41" y1="9.95" x2="83.34" y2="9.95" xlink:href="#_新規グラデーションスウォッチ_2"/>
    <linearGradient id="_新規グラデーションスウォッチ_2-6" data-name="新規グラデーションスウォッチ 2" x1="85.54" y1="9.95" x2="98.59" y2="9.95" xlink:href="#_新規グラデーションスウォッチ_2"/>
    <linearGradient id="_新規グラデーションスウォッチ_2-7" data-name="新規グラデーションスウォッチ 2" x1="98.44" y1="9.95" x2="117.39" y2="9.95" xlink:href="#_新規グラデーションスウォッチ_2"/>
  </defs>
  <g id="_レイヤー_1-2" data-name="レイヤー 1">
    <g>
      <path class="cls-1" d="M21.75,19.81l-4.54.69-1.6-1.83c-1.68.91-3.23,1.23-4.99,1.23-3.97,0-6.45-1.54-7.93-3.14-1.83-1.94-2.68-4.54-2.68-6.88,0-2.68,1.14-5.25,2.94-6.99C4.85,1.03,7.56,0,10.47,0c2.71,0,5.57.94,7.56,2.85,1.63,1.57,2.94,4.05,2.94,7.16,0,1.31-.2,2.48-.77,3.82-.43,1-.94,1.8-1.74,2.6l3.28,3.37ZM13.61,11.27l1.31,1.43c.6-.86.88-1.88.88-2.8,0-1.17-.6-2.6-1.54-3.54-1.03-1.03-2.57-1.57-3.8-1.57-1.37,0-2.77.54-3.77,1.57-.97,1-1.54,2.43-1.54,3.82s.63,2.68,1.43,3.45c.91.88,2.37,1.46,3.85,1.46.6,0,1.08-.09,1.54-.2l-3.03-3.03,4.65-.6Z"/>
      <path class="cls-6" d="M29.08.43v11.27c0,.8.03,2.03.97,2.94.57.54,1.48.91,2.34.91s1.74-.34,2.28-.83c1.14-1,1.11-2.4,1.11-3.45V.43h4.94v10.93c0,2-.09,4.08-2.14,6.17-1.6,1.63-3.6,2.37-6.28,2.37-3,0-5.14-1.03-6.31-2.28-1.66-1.8-1.86-4.22-1.86-6.25V.43h4.94Z"/>
      <path class="cls-7" d="M56.34,16.27h-6.91l-1.28,3.2h-5.22L50.23.43h5.39l7.16,19.04h-5.28l-1.17-3.2ZM55.03,12.5l-2.14-6.17-2.08,6.17h4.22Z"/>
      <path class="cls-5" d="M69.93.43v14.84h5.94v4.2h-10.87V.43h4.94Z"/>
      <path class="cls-3" d="M83.34.43v19.04h-4.94V.43h4.94Z"/>
      <path class="cls-4" d="M94.53,4.62v14.84h-4.94V4.62h-4.05V.43h13.04v4.2h-4.05Z"/>
      <path class="cls-2" d="M105.32,10.33L98.44.43h5.91l3.6,5.19,3.45-5.19h5.99l-7.11,9.9v9.13h-4.97v-9.13Z"/>
    </g>
  </g>
</svg>