<?xml version="1.0" encoding="UTF-8"?>
<svg id="_レイヤー_2" data-name="レイヤー 2" xmlns="http://www.w3.org/2000/svg" xmlns:xlink="http://www.w3.org/1999/xlink" viewBox="0 0 161.46 23.78">
  <defs>
    <style>
      .cls-1 {
        fill: url(#_新規グラデーションスウォッチ_4);
      }

      .cls-1, .cls-2, .cls-3, .cls-4, .cls-5, .cls-6, .cls-7, .cls-8, .cls-9 {
        stroke-width: 0px;
      }

      .cls-2 {
        fill: url(#_新規グラデーションスウォッチ_4-6);
      }

      .cls-3 {
        fill: url(#_新規グラデーションスウォッチ_4-8);
      }

      .cls-4 {
        fill: url(#_新規グラデーションスウォッチ_4-9);
      }

      .cls-5 {
        fill: url(#_新規グラデーションスウォッチ_4-3);
      }

      .cls-6 {
        fill: url(#_新規グラデーションスウォッチ_4-4);
      }

      .cls-7 {
        fill: url(#_新規グラデーションスウォッチ_4-7);
      }

      .cls-8 {
        fill: url(#_新規グラデーションスウォッチ_4-2);
      }

      .cls-9 {
        fill: url(#_新規グラデーションスウォッチ_4-5);
      }
    </style>
    <linearGradient id="_新規グラデーションスウォッチ_4" data-name="新規グラデーションスウォッチ 4" x1="0" y1="11.18" x2="12.2" y2="11.18" gradientUnits="userSpaceOnUse">
      <stop offset="0" stop-color="#94dee3"/>
      <stop offset="1" stop-color="#c29cef"/>
    </linearGradient>
    <linearGradient id="_新規グラデーションスウォッチ_4-2" data-name="新規グラデーションスウォッチ 4" x1="14.54" y1="11.89" x2="36.87" y2="11.89" xlink:href="#_新規グラデーションスウォッチ_4"/>
    <linearGradient id="_新規グラデーションスウォッチ_4-3" data-name="新規グラデーションスウォッチ 4" x1="39.43" y1="11.44" x2="54.82" y2="11.44" xlink:href="#_新規グラデーションスウォッチ_4"/>
    <linearGradient id="_新規グラデーションスウォッチ_4-4" data-name="新規グラデーションスウォッチ 4" x1="58.67" x2="65.01" xlink:href="#_新規グラデーションスウォッチ_4"/>
    <linearGradient id="_新規グラデーションスウォッチ_4-5" data-name="新規グラデーションスウォッチ 4" x1="68.83" y1="10.91" x2="84.6" y2="10.91" xlink:href="#_新規グラデーションスウォッチ_4"/>
    <linearGradient id="_新規グラデーションスウォッチ_4-6" data-name="新規グラデーションスウォッチ 4" x1="86.78" y1="10.91" x2="109.32" y2="10.91" xlink:href="#_新規グラデーションスウォッチ_4"/>
    <linearGradient id="_新規グラデーションスウォッチ_4-7" data-name="新規グラデーションスウォッチ 4" x1="112.72" x2="124.91" xlink:href="#_新規グラデーションスウォッチ_4"/>
    <linearGradient id="_新規グラデーションスウォッチ_4-8" data-name="新規グラデーションスウォッチ 4" x1="128.11" y1="10.91" x2="143.51" y2="10.91" xlink:href="#_新規グラデーションスウォッチ_4"/>
    <linearGradient id="_新規グラデーションスウォッチ_4-9" data-name="新規グラデーションスウォッチ 4" x1="145.44" x2="161.46" xlink:href="#_新規グラデーションスウォッチ_4"/>
  </defs>
  <g id="_レイヤー_1-2" data-name="レイヤー 1">
    <g>
      <path class="cls-1" d="M11.79,8.81v4.74h-4.13c-.56,0-.96.08-1.19.25-.23.17-.35.45-.35.84,0,.45.12.74.36.88.24.14.73.21,1.47.21h4.26v6.08h-4.97c-2.34,0-4.13-.56-5.37-1.68-1.24-1.12-1.86-2.73-1.86-4.84V6.96c0-2.04.58-3.62,1.75-4.74,1.17-1.12,2.82-1.68,4.94-1.68h5.5v6.11h-4.04c-1.09,0-1.64.35-1.64,1.06,0,.42.13.7.39.87s.72.24,1.39.24h3.49Z"/>
      <path class="cls-8" d="M22.69,23.78v-1.86c-2.47-.69-4.45-2.01-5.93-3.98s-2.22-4.24-2.22-6.83c0-3.42,1.29-6.22,3.87-8.41,2.14-1.81,4.58-2.71,7.31-2.71,3.53,0,6.37,1.27,8.53,3.82,1.75,2.06,2.62,4.43,2.62,7.13s-.78,5.01-2.32,7.1c-1.39,1.89-3.34,3.19-5.83,3.88v1.86h-6.02ZM22.91,12.84h5.6v2.39c1.25-1.07,1.87-2.43,1.87-4.07,0-1.32-.46-2.46-1.39-3.43-.92-.97-2.02-1.45-3.28-1.45s-2.37.48-3.29,1.45c-.93.97-1.39,2.11-1.39,3.43,0,1.68.62,3.04,1.87,4.07v-2.39Z"/>
      <path class="cls-5" d="M54.82.53v13.8c0,2.43-.73,4.38-2.18,5.83-1.45,1.46-3.38,2.18-5.79,2.18s-4.24-.71-5.51-2.12c-1.27-1.41-1.91-3.45-1.91-6.1V.53h6.33v13.58c0,1.3.46,1.95,1.39,1.95s1.34-.65,1.34-1.95V.53h6.33Z"/>
      <path class="cls-6" d="M65.01.53v21.29h-6.33V.53h6.33Z"/>
      <path class="cls-9" d="M76.19,14.46v-5.58c1.28,0,1.92-.49,1.92-1.47,0-.89-.49-1.34-1.47-1.34s-1.48.61-1.48,1.84v13.91h-6.33v-13.26c0-1.37.14-2.5.41-3.38.28-.88.75-1.7,1.41-2.46.75-.84,1.68-1.51,2.81-2s2.28-.73,3.48-.73c2.16,0,3.98.73,5.45,2.18,1.47,1.46,2.21,3.26,2.21,5.41s-.66,3.78-1.98,5.08c-1.21,1.2-3.03,1.79-5.46,1.79l-.97-.02Z"/>
      <path class="cls-2" d="M86.78,21.82V6.47c0-1.9.58-3.46,1.73-4.66,1.15-1.21,2.65-1.81,4.49-1.81,2.18,0,3.86,1,5.04,3.01.72-1.08,1.49-1.85,2.31-2.32.82-.46,1.83-.69,3.04-.69,1.91,0,3.38.6,4.4,1.81,1.02,1.21,1.53,2.94,1.53,5.21v14.8h-6.33V7.97c0-.69-.05-1.14-.16-1.36-.11-.22-.33-.33-.66-.33-.62,0-.94.53-.94,1.59v13.96h-6.33V7.97c0-.68-.06-1.13-.17-1.36-.11-.23-.34-.34-.67-.34-.62,0-.94.57-.94,1.7v13.85h-6.33Z"/>
      <path class="cls-7" d="M124.51,8.81v4.74h-4.13c-.56,0-.96.08-1.19.25-.23.17-.35.45-.35.84,0,.45.12.74.36.88.24.14.73.21,1.47.21h4.26v6.08h-4.97c-2.34,0-4.13-.56-5.37-1.68-1.24-1.12-1.86-2.73-1.86-4.84V6.96c0-2.04.58-3.62,1.75-4.74,1.17-1.12,2.82-1.68,4.94-1.68h5.5v6.11h-4.04c-1.09,0-1.64.35-1.64,1.06,0,.42.13.7.39.87s.72.24,1.39.24h3.49Z"/>
      <path class="cls-3" d="M128.11,21.82v-13.82c0-2.42.72-4.36,2.18-5.82,1.45-1.46,3.38-2.18,5.79-2.18s4.24.71,5.51,2.12c1.27,1.41,1.91,3.45,1.91,6.1v13.6h-6.33v-13.6c0-1.3-.46-1.95-1.39-1.95s-1.34.65-1.34,1.95v13.6h-6.33Z"/>
      <path class="cls-4" d="M156.62,6.64v15.18h-6.33V6.64h-4.85V.53h16.02v6.11h-4.83Z"/>
    </g>
  </g>
</svg>