<?xml version="1.0" encoding="UTF-8"?>
<svg id="_レイヤー_2" data-name="レイヤー 2" xmlns="http://www.w3.org/2000/svg" viewBox="0 0 164.6360357 22.0429688">
  <defs>
    <style>
      .cls-1 {
        fill: #0097e0;
        stroke-width: 0px;
      }
    </style>
  </defs>
  <g id="_レイヤー_2-2" data-name="レイヤー 2">
    <g>
      <path class="cls-1" d="m15.6787109,12.1435547c-.2436523.1459961-.5605469.2680664-.8291016.3896484l-2.0478516.9755859-6.1689453,2.9013672-3.8041992,1.7802734c-.5849609.2680664-1.1704102.5849609-1.7797852.8291016-.0976562.0488281-.1953125.0732422-.3168945.0732422-.4145508,0-.7319336-.3173828-.7319336-.7314453,0-.3173828.1464844-.487793.390625-.6586914.3168945-.2192383,1.3896484-.6582031,1.7553711-.8291016l3.8525391-1.8041992,6.0961914-2.8774414c.9750977-.4389648,1.9501953-.9506836,2.9257812-1.3652344.0976562-.0488281.2192383-.0732422.3413086-.0732422.3901367,0,.7314453.3168945.7314453.7070312,0,.3168945-.1459961.512207-.4145508.6831055Zm-9.1679688-.7319336c-.3413086,0-.6826172-.2680664-.7314453-.609375-.7558594-.3168945-3.3408203-.2192383-4.2670898-.2192383-.4145508,0-.7558594-.2685547-.7558594-.7075195,0-.3901367.3168945-.7314453.7070312-.7558594.487793-.0244141.9995117-.0244141,1.4873047-.0244141.9506836,0,3.21875-.0727539,3.9257812.6831055.2436523.2436523.3657227.5605469.3657227.9018555,0,.3901367-.3413086.7314453-.7314453.7314453Zm-.1708984-3.2426758c-.4145508,0-.7314453-.3417969-.7314453-.7558594,0-.1708984.0732422-.2685547.1464844-.4394531-.2685547-.4628906-2.7797852-1.2675781-3.2675781-1.4384766-.2924805-.0976562-.512207-.3657227-.512207-.6826172,0-.4145508.3173828-.7314453.7319336-.7314453.0727539,0,.1459961,0,.2192383.0244141,1.097168.3413086,3.7548828,1.097168,4.2182617,2.3408203.0488281.1464844.0732422.2924805.0732422.4633789,0,.512207-.2680664,1.2192383-.8779297,1.2192383Z"/>
      <path class="cls-1" d="m36.2133789,14.3134766c-.1459961.9750977-.3168945,1.9262695-.5849609,2.8769531.4873047,0,.9018555.2197266.9018555.7558594,0,.7314453-.6826172.7075195-1.21875.7075195-1.512207,0-5.9008789.121582-7.1689453.609375-.0976562.0488281-.1953125.0732422-.3168945.0732422-.3901367,0-.7314453-.3413086-.7314453-.7314453,0-.2924805.1704102-.5366211.4145508-.6586914,1.0727539-.5605469,5.2421875-.7070312,6.5834961-.7314453.2924805-.9506836.4628906-1.9501953.6337891-2.9257812-.512207-.0244141-1.0483398-.0244141-1.5605469-.0244141-.8046875,0-4.8037109.0732422-5.4375.3657227-.1464844.0732422-.1953125.0976562-.3657227.0976562-.3901367,0-.7070312-.3168945-.7070312-.7075195,0-.2680664.121582-.4873047.3413086-.6337891.9506836-.609375,6.534668-.609375,7.9487305-.5605469.1220703-.8046875.2197266-1.6337891.2929688-2.4384766-.5366211-.0976562-1.0732422-.1220703-1.609375-.1220703-.7558594,0-2.8530273.1220703-3.5600586.3657227-.1220703.0488281-.1953125.0732422-.3168945.0732422-.4145508,0-.7314453-.3168945-.7314453-.7314453,0-.2924805.1704102-.512207.4145508-.6586914.609375-.3408203,3.5112305-.5117188,4.2426758-.5117188.7558594,0,1.8530273.0488281,2.5600586.2924805.3413086.1220703.512207.3901367.512207.7558594,0,.9023438-.2197266,2.1948242-.3413086,3.1210938.2436523.1708984.3657227.3901367.3657227.6831055,0,.3168945-.2685547.5849609-.5610352.6582031Z"/>
      <path class="cls-1" d="m53.3833008,14.3623047c-.1953125,0-.2929688-.0488281-.4389648-.1708984-1.609375-1.2919922-2.1948242-3.1210938-2.3164062-5.0961914v-.0727539c-.0244141-.390625.3168945-.7319336.7314453-.7319336.3657227,0,.6826172.2924805.7314453.6586914.2436523,1.609375.3901367,2.9746094,1.7314453,4.0961914.1948242.1464844.2924805.3413086.2924805.5854492,0,.3896484-.3413086.7314453-.7314453.7314453Zm9.7290039-4.5112305c-.2197266.6098633-.7314453,1.3168945-1.097168,1.8530273-1.5605469,2.4140625-4.2670898,6.0717773-6.5351562,7.7783203-.1459961.0976562-.2924805.1708984-.4633789.1708984-.3896484,0-.7070312-.3657227-.7070312-.7558594,0-.2436523.0976562-.3901367.2685547-.5605469.4145508-.3662109.8291016-.7075195,1.21875-1.0976562,1.512207-1.5117188,2.8286133-3.2431641,4.0722656-4.9741211.6582031-.9262695,1.3657227-1.8774414,1.8774414-2.9018555.1464844-.2924805.3168945-.4873047.6831055-.4873047.3896484,0,.7314453.3168945.7314453.7314453,0,.0732422-.0244141.1708984-.0488281.2436523Zm-5.8032227,3.730957c-1.3168945,0-2.1948242-3.8525391-2.3652344-4.7548828,0-.0488281-.0244141-.1220703-.0244141-.1953125,0-.3896484.3413086-.7314453.7558594-.7314453.3168945,0,.6337891.2441406.7070312.5854492.1464844.7314453.6826172,3.2182617,1.3413086,3.7548828.1948242.1464844.3168945.3413086.3168945.6098633,0,.3652344-.3413086.7314453-.7314453.7314453Z"/>
      <path class="cls-1" d="m85.7436523,10.4609375c-2.5356445,0-6.9736328.3657227-9.3876953,1.121582-.0727539.5849609-.097168,1.1948242-.097168,1.7797852,0,3.3652344,1.0483398,4.2431641,4.3642578,4.2431641,1.5849609,0,3.1455078-.2929688,4.7304688-.390625h.0976562c.3901367-.0244141.6826172.3417969.6826172.7070312,0,.390625-.2436523.6342773-.609375.7075195-.512207.121582-1.097168.1459961-1.6337891.1948242-1.097168.1220703-2.1699219.2197266-3.2675781.2197266-4.0961914,0-5.7788086-1.5361328-5.7788086-5.6816406,0-1.8530273.2924805-3.7060547.5854492-5.5351562.121582-.7314453.2436523-1.7553711.4145508-2.4379883.097168-.3413086.3168945-.5854492.7070312-.5854492s.7070312.3173828.7070312.7070312v.1220703c-.2680664,1.4873047-.512207,2.9501953-.7070312,4.4379883,2.7553711-.7075195,6.3637695-1.0244141,9.1923828-1.0244141.3901367,0,.7314453.3168945.7314453.7075195,0,.3896484-.3413086.7070312-.7314453.7070312Zm.5854492-2.9750977c-1.2680664,0-2.1948242-.8041992-2.1948242-2.0966797,0-.6098633.4389648-2.2192383,1.1704102-2.3408203.2929688-.5610352.9023438-.9267578,1.5361328-.9267578,1.3901367,0,2.3652344,1.2192383,2.3652344,2.5600586,0,1.4389648-1.4628906,2.8041992-2.8769531,2.8041992Zm.5117188-3.949707c-.5605469,0-.0727539,1.0727539-1.121582,1.0727539-.097168.2436523-.1704102.512207-.1704102.7802734,0,.487793.3413086.6582031.7802734.6582031.6337891,0,1.4628906-.6826172,1.4628906-1.3657227,0-.5361328-.3413086-1.1455078-.9511719-1.1455078Z"/>
      <path class="cls-1" d="m103.425293,10.265625c-.3901367,0-.6337891-.2436523-.7070312-.609375-.121582-.5366211-1.6821289-1.6826172-2.0722656-1.9750977-.7802734-.5610352-1.6337891-1.1459961-2.5117188-1.5361328-.2924805-.1220703-.512207-.3657227-.512207-.7075195,0-.3896484.3657227-.7314453.7314453-.7314453.0976562,0,.1708984.0244141.2441406.0488281.4389648.1464844.9023438.4389648,1.2919922.6826172,1.2924805.7558594,3.9746094,2.4628906,4.2675781,3.9990234v.0976562c0,.4389648-.3173828.7314453-.7319336.7314453Zm11.0703125-1.2919922c-1.3896484,1.3408203-14.7519531,10.2163086-15.8491211,10.2163086-.3901367,0-.7314453-.3657227-.7314453-.7314453,0-.3413086.1704102-.5366211.4384766-.6826172l.5366211-.2680664c.5366211-.2685547,1.0727539-.5854492,1.609375-.9023438,2.1699219-1.2924805,4.2915039-2.6577148,6.4125977-4.0478516,2.2680664-1.5117188,4.4868164-3.0234375,6.6328125-4.6816406.1459961-.1220703.2924805-.1704102.4628906-.1704102.4145508,0,.7314453.3168945.7314453.7070312,0,.2436523-.0727539.4145508-.2436523.5610352Z"/>
      <path class="cls-1" d="m131.8603516,11.1923828c-1.0239258,2.0478516-2.0239258,4.0961914-2.9501953,6.1933594l-.8046875,1.9506836c-.0732422.2680664-.1708984.5366211-.2685547.7802734-.121582.2680664-.3901367.4633789-.6826172.4633789-.3901367,0-.7558594-.3173828-.7558594-.7070312,0-.0976562.0244141-.1708984.0488281-.2441406.9995117-2.9746094,2.706543-6.2421875,4.1206055-9.0703125.5854492-1.1708984,1.2192383-2.3652344,1.7070312-3.5849609-1.4384766-.3652344-3.706543-.3408203-5.1694336-.3408203-.1948242,0-.3657227-.0732422-.5117188-.1953125-.6098633.8535156-2.4140625,3.5600586-2.3652344,4.6083984v.0488281c.121582.1220703.2192383.3168945.2192383.512207,0,.3901367-.3413086.7314453-.7314453.7314453-.6337891,0-.9267578-.7070312-.9267578-1.2436523,0-2.0966797,3.0722656-6.4375,4.5600586-7.8515625.1459961-.1464844.3168945-.2192383.5361328-.2192383.3901367,0,.7070312.3168945.7070312.7070312,0,.4633789-.7314453,1.097168-1.0239258,1.4384766.9267578,0,5.2915039.0244141,5.9985352.8535156.1704102.1948242.2680664.3901367.2680664.6586914,0,.7314453-1.6337891,3.828125-1.9750977,4.5107422Zm3.6821289-5.1694336c-.9023438,0-1.4633789-1.4140625-1.4633789-2.1704102,0-.3896484.3417969-.7314453.7314453-.7314453.9755859,0,.512207,1.1464844,1.0732422,1.487793.2436523.1459961.3901367.3901367.3901367.6826172,0,.3901367-.3413086.7314453-.7314453.7314453Zm2.1699219-1.1459961c-.9023438,0-.9995117-1.4628906-.9995117-2.0966797,0-.512207.097168-1.0976562.7314453-1.0976562.4145508,0,.7314453.3413086.7314453.7314453,0,.1220703-.0244141.2197266-.0244141.3417969,0,.2436523.0488281.8046875.1708984.9995117.0727539.121582.121582.2436523.121582.3901367,0,.3901367-.3413086.7314453-.7314453.7314453Z"/>
      <path class="cls-1" d="m146.3232422,14.1914062c-.7802734,1.097168-1.5117188,2.21875-2.2675781,3.3408203-.121582.1948242-.3168945.3168945-.5605469.3168945-.3657227,0-.6586914-.2924805-.6586914-.6586914,0-.121582.0244141-.2436523.0976562-.3413086.2680664-.487793.6098633-.9262695.9023438-1.3896484.4633789-.7070312.9262695-1.4389648,1.4628906-2.0727539.1220703-.1464844.3168945-.2436523.5366211-.2436523.3413086,0,.6337891.2924805.6337891.6582031,0,.1464844-.0732422.2680664-.1464844.3901367Zm4.8769531-2.4384766c-.7070312,0-.5849609-.8779297-.7070312-1.3408203-.6342773.0732422-1.2436523.1220703-1.8774414.2192383-.2197266,3.4379883-.3173828,6.925293-.3173828,10.387207,0,.3417969-.2924805.6831055-.6582031.6831055-.6337891,0-.6582031-.5610352-.6582031-1.0239258,0-3.2919922.121582-6.6083984.3168945-9.8999023-.9267578.121582-1.8774414.2192383-2.8041992.4145508-.0488281,0-.0732422.0244141-.121582.0244141-.3662109,0-.6586914-.3173828-.6586914-.6826172,0-.2441406.1464844-.4150391.3413086-.5610352,1.2436523-.8046875,2.9018555-2.3408203,3.9013672-3.4379883-.8291016-.1953125-1.609375-.2685547-2.4624023-.2685547-.3657227,0-.6586914-.3168945-.6586914-.6582031,0-.2192383.0976562-.3657227.2441406-.5117188.8046875-.7319336,1.9262695-2.7070312,2.5356445-3.6821289.1220703-.1948242.3168945-.3413086.5610352-.3413086.3657227,0,.6582031.2924805.6582031.6582031,0,.4633789-1.6337891,2.8041992-1.9750977,3.2675781.6582031.0732422,2.8041992.3657227,2.8041992,1.2919922,0,.6826172-2.4140625,2.7553711-2.9501953,3.2431641,1.121582-.1464844,2.2675781-.2924805,3.3891602-.4145508-.0976562-.2680664-.4145508-.7558594-.4145508-.9995117,0-.3662109.3168945-.6582031.6582031-.6582031.2441406,0,.4389648.121582.5610352.3164062.4633789.6586914.9995117,2.4384766.9995117,3.2431641,0,.4389648-.2680664.7314453-.7070312.7314453Zm-.1220703,3.9257812c-.4628906,0-1.7797852-1.1459961-2.1210938-1.4873047-.1220703-.1220703-.1953125-.2924805-.1953125-.4633789,0-.3901367.2929688-.6582031.6586914-.6582031.1704102,0,.3413086.0732422.4628906.1948242.6098633.5610352.8535156.7314453,1.5361328,1.1953125.1953125.121582.3173828.3164062.3173828.5605469,0,.3413086-.2929688.6582031-.6586914.6582031Zm12.8500977,5.949707c-.097168.2436523-.3413086.4145508-.609375.4145508-.5366211,0-1.7070312-.3657227-1.7070312-1.0244141,0-.3896484.2929688-.6582031.6586914-.6582031.3168945,0,.3657227.1464844.609375.2197266.3168945-1.4140625.3657227-2.9506836.4145508-4.3891602-.7070312,0-1.4140625.0244141-2.121582.0488281-.0483398.9506836-.097168,1.8774414-.1704102,2.8286133-.0244141.4384766-.0244141.9506836-.1220703,1.3896484-.0732422.3168945-.3168945.5605469-.6582031.5605469s-.6342773-.3164062-.6342773-.6337891v-.1220703c.1953125-1.2431641.1953125-2.7304688.2685547-3.9985352l-1.5361328.0727539c-.0244141,1.2197266-.0488281,2.4384766-.0488281,3.6577148,0,.3901367-.2680664.6831055-.6582031.6831055-.6586914,0-.6586914-.6098633-.6586914-1.0976562,0-1.0483398.0244141-2.1210938.0488281-3.1699219-.6337891.0244141-1.2436523.0488281-1.8774414.1220703-.0488281,1.2192383-.0976562,2.4384766-.0976562,3.6577148,0,.2436523.0244141.487793.0244141.7314453,0,.3413086-.2924805.6337891-.6582031.6337891-.7070312,0-.6826172-.7314453-.6826172-1.2436523,0-1.9501953.121582-3.9257812.1948242-5.9003906-.6582031,1.5605469-1.4873047,3.0722656-2.4873047,4.4130859-.1704102.1953125-.3168945.4389648-.4873047.6098633-.1220703.1459961-.3168945.2192383-.512207.2192383-.3413086,0-.6582031-.2924805-.6582031-.6337891,0-.1708984.0732422-.3173828.1704102-.4389648.512207-.6586914,1-1.2680664,1.4145508-1.9750977,1.8530273-3.0722656,3.0966797-7.3637695,3.2915039-10.9482422-.2192383.0244141-.4633789.0976562-.6826172.0976562-.3413086,0-.6337891-.3173828-.6337891-.6582031,0-.3173828.2192383-.5366211.5117188-.6342773.5366211-.1704102,1.3168945-.1459961,1.9018555-.1948242,1.9995117-.1220703,4.0234375-.1708984,6.0473633-.1708984.5366211,0,1.730957-.1708984,1.6582031.6582031v.0976562c-.0976562,1.3896484-.512207,2.7797852-.8535156,4.1210938-.0732422.3168945-.2680664.5849609-.6342773.5849609l-.0244141.0244141h-.5117188c-1.1704102,0-2.3408203.0244141-3.5112305.0488281-.8535156.0244141-1.7070312.0488281-2.5361328.1220703-.121582.5605469-.2680664,1.1210938-.4389648,1.6821289.1220703.0488281.2441406.1464844.3173828.2680664.9995117-.1948242,2.0478516-.2436523,3.0722656-.3168945,1.3896484-.0727539,2.828125-.121582,4.2426758-.121582,2.1455078,0,2.0727539-.1220703,2.0727539,1.9746094,0,1.8291016-.0488281,6.8764648-.7075195,8.3881836Zm-8.6313477-8.6074219l-.0976562,2.1948242c.609375-.0732422,1.2192383-.0976562,1.8286133-.1220703.0244141-.7558594.0488281-1.5361328.0488281-2.2919922-.5854492.0488281-1.1948242.0976562-1.7797852.2192383Zm.6337891-7.4370117c-.0244141.9511719-.1464844,1.9018555-.3168945,2.8286133,1.9262695-.1220703,3.9013672-.1464844,5.8276367-.1464844.2436523-.9506836.4145508-1.9262695.5849609-2.8769531-2.0239258,0-4.0717773.0727539-6.0957031.1948242Zm3.0722656-2.706543c-.1708984,0-.3413086-.0732422-.4633789-.1948242-.5849609-.5610352-1.2436523-1.0488281-1.9262695-1.4873047-.1948242-.1220703-.2924805-.3417969-.2924805-.5610352,0-.3657227.2680664-.6342773.6337891-.6342773.4633789,0,2.1459961,1.3657227,2.5117188,1.7558594.121582.1220703.1948242.2924805.1948242.4633789,0,.3657227-.2924805.6582031-.6582031.6582031Zm-.609375,9.8266602l-.0488281,2.3164062,1.5605469-.0732422c.0488281-.7802734.0732422-1.5361328.097168-2.3164062l-1.6088867.0732422Zm4.925293-.1220703h-.3657227c-.5366211,0-1.097168,0-1.6337891.0244141-.0244141.7802734-.0488281,1.5361328-.0976562,2.3164062.7070312-.0244141,1.3901367-.0244141,2.097168-.0244141,0-.3901367.0244141-.7802734.0244141-1.1943359,0-.3662109,0-.7563477-.0244141-1.1220703Z"/>
    </g>
  </g>
</svg>